<!-- This Source Code Form is subject to the terms of the Mozilla Public
   - License, v. 2.0. If a copy of the MPL was not distributed with this
   - file, You can obtain one at http://mozilla.org/MPL/2.0/. -->
<svg xmlns="http://www.w3.org/2000/svg" width="16" height="16" fill="context-fill" fill-opacity="context-fill-opacity">
  <path d="M14.5 8c-.97 0-1 1-1.75 1a.77.77 0 01-.75-.75V5a1 1 0 00-1-1H7.75A.77.77 0 017 3.25c0-.75 1-.78 1-1.75C8 .64 7.1 0 6 0S4 .64 4 1.5c0 .97 1 1 1 1.75a.77.77 0 01-.75.75H1a1 1 0 00-1 1v2.25A.77.77 0 00.75 8c.75 0 .78-1 1.75-1C3.37 7 4 7.9 4 9s-.64 2-1.5 2c-.97 0-1-1-1.75-1a.77.77 0 00-.75.75V15a1 1 0 001 1h3.25a.77.77 0 00.75-.75c0-.75-1-.78-1-1.75 0-.86.9-1.5 2-1.5s2 .64 2 1.5c0 .97-1 1-1 1.75a.77.77 0 00.75.75H11a1 1 0 001-1v-3.25a.77.77 0 01.75-.75c.75 0 .78 1 1.75 1 .86 0 1.5-.9 1.5-2s-.64-2-1.5-2z"/>
</svg>
