<!-- This Source Code Form is subject to the terms of the Mozilla Public
   - License, v. 2.0. If a copy of the MPL was not distributed with this
   - file, You can obtain one at http://mozilla.org/MPL/2.0/. -->
<svg xmlns="http://www.w3.org/2000/svg" width="16" height="16" viewBox="0 0 16 16" fill="context-fill" fill-opacity="context-fill-opacity">
  <path d="M8 1a7 7 0 107 7 7 7 0 00-7-7zm0 13a6 6 0 116-6 6 6 0 01-6 6zM8 3.12A2.7 2.7 0 005.12 6a.88.88 0 001.75 0c0-1 .6-1.13 1.13-1.13a1.1 1.1 0 011.13.75.9.9 0 01-.53 1.01A2.74 2.74 0 007.13 9v.34a.88.88 0 001.75 0v-.37a1.04 1.04 0 01.6-.83 2.64 2.64 0 001.34-2.98A2.84 2.84 0 008 3.12zm0 7.63A1.25 1.25 0 109.25 12 1.25 1.25 0 008 10.75z"/>
</svg>
