<!-- This Source Code Form is subject to the terms of the Mozilla Public
   - License, v. 2.0. If a copy of the MPL was not distributed with this
   - file, You can obtain one at http://mozilla.org/MPL/2.0/. -->
<svg xmlns="http://www.w3.org/2000/svg" width="16" height="16" viewBox="0 0 16 16" fill="context-fill" fill-opacity="context-fill-opacity">
  <path d="M8 1a7 7 0 107 7 7 7 0 00-7-7zm0 13a6 6 0 116-6 6 6 0 01-6 6zm0-7a1 1 0 00-1 1v3a1 1 0 102 0V8a1 1 0 00-1-1zm0-3.19A1.19 1.19 0 109.19 5 1.19 1.19 0 008 3.81z"/>
</svg>
