<!-- This Source Code Form is subject to the terms of the Mozilla Public
   - License, v. 2.0. If a copy of the MPL was not distributed with this
   - file, You can obtain one at http://mozilla.org/MPL/2.0/. -->
<svg xmlns="http://www.w3.org/2000/svg" width="16" height="16" fill="context-fill" fill-opacity="context-fill-opacity">
  <path d="M3 3h3a1 1 0 000-2H3a1 1 0 000 2zm11.7 1.3L5 14h9a1 1 0 001-1V5a1 1 0 00-.3-.7z"/>
  <path d="M14.7 1.3a.99.99 0 00-1.2-.15A.97.97 0 0013 1h-3a1 1 0 000 2h1.59l-1 1H2a1 1 0 00-1 1v8a.97.97 0 00.15.5.99.99 0 00.14 1.2 1 1 0 001.42 0l12-12a1 1 0 000-1.4z"/>
</svg>
