<!-- This Source Code Form is subject to the terms of the Mozilla Public
   - License, v. 2.0. If a copy of the MPL was not distributed with this
   - file, You can obtain one at http://mozilla.org/MPL/2.0/. -->
<svg xmlns="http://www.w3.org/2000/svg" width="16" height="16" viewBox="0 0 16 16">
  <path d="M12.5 6.98h-.48L4 15h8.5a1.5 1.5 0 001.5-1.5V8.48a1.5 1.5 0 00-1.5-1.5zm-6.5 0V5a2 2 0 014 0v1l1.9-1.9A4 4 0 004 5v1.98h-.5A1.5 1.5 0 002 8.48v5.02a1.48 1.48 0 00.07.43l6.95-6.95z" fill="context-fill" fill-opacity="context-fill-opacity"/>
  <path d="M2 15a1 1 0 01-.7-1.7l12-12a1 1 0 011.4 1.4l-12 12a1 1 0 01-.7.3z" fill="#ff0039"/>
</svg>
