<!-- This Source Code Form is subject to the terms of the Mozilla Public
   - License, v. 2.0. If a copy of the MPL was not distributed with this
   - file, You can obtain one at http://mozilla.org/MPL/2.0/. -->
<svg xmlns="http://www.w3.org/2000/svg" width="16" height="16" viewBox="0 0 16 16">
  <path d="M8 1a4 4 0 00-4 4v1.98h-.5A1.5 1.5 0 002 8.48v5.02A1.5 1.5 0 003.5 15h2.54a2.27 2.27 0 01.2-1.32l3.19-6.41a2.27 2.27 0 01.2-.29H6V5a2 2 0 014 0v1.57A2.25 2.25 0 0111.48 6a2.28 2.28 0 01.52.07V5a4 4 0 00-4-4z" fill="context-fill" fill-opacity="context-fill-opacity"/>
  <path d="M15.82 14.13l-3.2-6.41a1.28 1.28 0 00-2.3 0l-3.18 6.4A1.3 1.3 0 008.29 16h6.38a1.3 1.3 0 001.15-1.87z" fill="#ffbf00"/>
  <path d="M11.48 8a.27.27 0 01.25.16l3.2 6.41a.3.3 0 01-.02.3.28.28 0 01-.24.13H8.29a.28.28 0 01-.24-.14.29.29 0 01-.02-.29l3.2-6.4a.27.27 0 01.25-.17m0-1a1.27 1.27 0 00-1.15.72l-3.2 6.4A1.3 1.3 0 008.3 16h6.38a1.3 1.3 0 001.15-1.87l-3.2-6.41A1.27 1.27 0 0011.49 7z" fill="#d76e00" opacity=".35"/>
  <path d="M11.5 12a.5.5 0 00.5-.5v-2a.5.5 0 00-1 0v2a.5.5 0 00.5.5zm0 .8a.7.7 0 10.7.7.7.7 0 00-.7-.7z" fill="#fff"/>
</svg>
