<!-- This Source Code Form is subject to the terms of the Mozilla Public
   - License, v. 2.0. If a copy of the MPL was not distributed with this
   - file, You can obtain one at http://mozilla.org/MPL/2.0/. -->
<svg xmlns="http://www.w3.org/2000/svg" width="16" height="16" fill="context-fill" fill-opacity="context-fill-opacity">
  <path d="M15 7h-2.1a4.97 4.97 0 00-.73-1.75l1.49-1.5a1 1 0 00-1.42-1.4l-1.49 1.48A4.97 4.97 0 009 3.1V1a1 1 0 00-2 0v2.1a4.97 4.97 0 00-1.75.73l-1.5-1.49a1 1 0 00-1.4 1.42l1.48 1.49A4.97 4.97 0 003.1 7H1a1 1 0 000 2h2.1a4.97 4.97 0 00.74 1.76l-.05.03-1.45 1.45a1 1 0 101.42 1.42L5.2 12.2c0-.02.01-.03.03-.05A4.97 4.97 0 007 12.9V15a1 1 0 002 0v-2.1a4.97 4.97 0 001.75-.73l1.5 1.49a1 1 0 001.4-1.42l-1.48-1.49A4.97 4.97 0 0012.9 9H15a1 1 0 000-2zM5 8a3 3 0 113 3 3 3 0 01-3-3z"/>
</svg>
