<!-- This Source Code Form is subject to the terms of the Mozilla Public
   - License, v. 2.0. If a copy of the MPL was not distributed with this
   - file, You can obtain one at https://mozilla.org/MPL/2.0/. -->
<svg xmlns="http://www.w3.org/2000/svg" width="16" height="16" fill="none">
  <path fill="context-fill" d="M15.5 8a7 7 0 1 1-14 0 7 7 0 0 1 14 0Z" opacity=".2"/>
  <path fill="context-stroke" d="M8.5.5C4.364.5 1 3.864 1 8s3.364 7.5 7.5 7.5S16 12.136 16 8 12.636.5 8.5.5Zm0 1a6.76 6.76 0 0 1 .953.07A6.49 6.49 0 0 1 15 8a6.57 6.57 0 0 1-.264 1.832 6.457 6.457 0 0 1-.765 1.678l-.002.004-.004.006A6.528 6.528 0 0 1 13 12.69v-.023c-.306.302-.64.573-1 .809v.002a6.506 6.506 0 0 1-2.574.955 6.555 6.555 0 0 1-1.852 0 6.465 6.465 0 0 1-1.775-.522A6.502 6.502 0 0 1 5 13.478v-.001a6.501 6.501 0 0 1-1-.809v.023a6.53 6.53 0 0 1-.965-1.171l-.006-.01a6.454 6.454 0 0 1-.963-2.584 6.564 6.564 0 0 1 0-1.852 6.51 6.51 0 0 1 5.508-5.508c.302-.042.612-.066.926-.066Zm-3 3a.5.5 0 0 0-.354.854L7.793 8l-2.647 2.646a.5.5 0 1 0 .708.707L8.5 8.707l2.646 2.646a.5.5 0 1 0 .707-.707L9.207 8l2.646-2.646a.5.5 0 1 0-.707-.708L8.5 7.293 5.854 4.646A.5.5 0 0 0 5.5 4.5Z"/>
</svg>
