<!-- This Source Code Form is subject to the terms of the Mozilla Public
   - License, v. 2.0. If a copy of the MPL was not distributed with this
   - file, You can obtain one at http://mozilla.org/MPL/2.0/. -->
<svg width="16" height="16" viewBox="0 0 16 16" xmlns="http://www.w3.org/2000/svg">
  <path d="M4 1.5C2.615 1.5 1.5 2.615 1.5 4V4.5H14.5V4C14.5 2.615 13.385 1.5 12 1.5H4ZM11.5 7.5C9.29086 7.5 7.5 9.29086 7.5 11.5C7.5 13.7091 9.29086 15.5 11.5 15.5C13.7091 15.5 15.5 13.7091 15.5 11.5C15.5 9.29086 13.7091 7.5 11.5 7.5Z" fill-opacity="context-fill-opacity" fill="context-fill"/>
  <path d="M4 1C2.34314 1 1 2.34315 1 4V12C1 13.6569 2.34314 15 4 15H7.25781C7.00418 14.6929 6.78251 14.3578 6.59961 14H4C2.89543 14 2 13.1046 2 12V5H4V5.5C4 5.77614 4.22386 6 4.5 6C4.77614 6 5 5.77614 5 5.5V5H11V5.5C11 5.77614 11.2239 6 11.5 6C11.7761 6 12 5.77614 12 5.5V5H14V6.59961C14.3578 6.78251 14.6929 7.00418 15 7.25781V4C15 2.34315 13.6569 1 12 1H4ZM4 2H12C13.1046 2 14 2.89543 14 4H12V3.5C12 3.22386 11.7761 3 11.5 3C11.2239 3 11 3.22386 11 3.5V4H5V3.5C5 3.22386 4.77614 3 4.5 3C4.22386 3 4 3.22386 4 3.5V4H2C2 2.89543 2.89543 2 4 2ZM4.5 7C4.22386 7 4 7.22386 4 7.5C4 7.77614 4.22386 8 4.5 8H5.5C5.77614 8 6 7.77614 6 7.5C6 7.22386 5.77614 7 5.5 7H4.5ZM7.51562 7C7.23948 7 7.01562 7.22386 7.01562 7.5C7.01562 7.69834 7.13143 7.87035 7.29883 7.95117C7.36883 7.86839 7.44093 7.78746 7.51562 7.70898C7.76513 7.44686 8.0412 7.20893 8.33789 7H7.51562ZM11.5 7C9.01472 7 7 9.01472 7 11.5C7 13.9853 9.01472 16 11.5 16C13.9853 16 16 13.9853 16 11.5C16 9.01472 13.9853 7 11.5 7ZM11.5 8C13.433 8 15 9.567 15 11.5C15 13.433 13.433 15 11.5 15C9.567 15 8 13.433 8 11.5C8 9.567 9.567 8 11.5 8ZM4.5 9C4.22386 9 4 9.22386 4 9.5C4 9.7761 4.22386 10 4.5 10H5.5C5.77614 10 6 9.7761 6 9.5C6 9.22386 5.77614 9 5.5 9H4.5ZM10.4707 9.2832C10.3901 9.28538 10.3074 9.30633 10.2324 9.34961C9.99253 9.48811 9.91227 9.7933 10.0508 10.0332L11.0508 11.7656C11.0681 11.7956 11.0874 11.8228 11.1094 11.8477C11.1315 11.8726 11.1557 11.8944 11.1816 11.9141C11.2075 11.9337 11.2348 11.9508 11.2637 11.9648C11.2925 11.9789 11.3226 11.9897 11.3535 11.998C11.3844 12.0062 11.4153 12.0114 11.4473 12.0137C11.4793 12.0159 11.5127 12.0157 11.5449 12.0117C11.5771 12.0076 11.609 12.0007 11.6406 11.9902C11.6721 11.9796 11.7024 11.9646 11.7324 11.9473L13.4648 10.9473C13.7039 10.8092 13.7864 10.5048 13.6484 10.2656C13.5103 10.0265 13.2039 9.944 12.9648 10.082L11.666 10.832L10.916 9.5332C10.8208 9.36828 10.6479 9.27841 10.4707 9.2832ZM4.5 11C4.22386 11 4 11.2239 4 11.5C4 11.7761 4.22386 12 4.5 12H5.5C5.77614 12 6 11.7761 6 11.5C6 11.2239 5.77614 11 5.5 11H4.5Z" fill-opacity="context-stroke-opacity" fill="context-stroke"/>
</svg>
