<!-- This Source Code Form is subject to the terms of the Mozilla Public
   - License, v. 2.0. If a copy of the MPL was not distributed with this
   - file, You can obtain one at http://mozilla.org/MPL/2.0/. -->
<svg width="16" height="16" viewBox="0 0 16 16" fill-opacity="context-fill-opacity" xmlns="http://www.w3.org/2000/svg">
  <path d="M8 4.50012C6.067 4.50012 4.5 6.06712 4.5 8.00012C4.5 9.93312 6.067 11.5001 8 11.5001C9.933 11.5001 11.5 9.93312 11.5 8.00012C11.5 6.06712 9.933 4.50012 8 4.50012Z" fill="context-fill"/>
  <path d="M8 4C5.79679 4 4 5.79678 4 8C4 10.2032 5.79679 12 8 12C10.2032 12 12 10.2032 12 8C12 5.79678 10.2032 4 8 4ZM8 5C9.66278 5 11 6.33722 11 8C11 9.66278 9.66278 11 8 11C6.33722 11 5 9.66278 5 8C5 6.33722 6.33722 5 8 5ZM8.44531 6.08984C8.35197 6.10024 8.26344 6.13669 8.18986 6.19507C8.11628 6.25345 8.06064 6.33138 8.0293 6.41992C7.98551 6.54477 7.99299 6.68186 8.0501 6.80121C8.10721 6.92055 8.20929 7.01242 8.33398 7.05664C8.86026 7.24271 9.12943 7.80769 8.94336 8.33398C8.89957 8.45883 8.90705 8.59593 8.96416 8.71527C9.02127 8.83462 9.12335 8.92648 9.24805 8.9707C9.37289 9.01449 9.51001 9.007 9.62935 8.94989C9.74869 8.89278 9.84054 8.79071 9.88477 8.66602C10.251 7.6302 9.70183 6.48144 8.66602 6.11523C8.59528 6.09032 8.51985 6.08165 8.44531 6.08984Z" fill="context-stroke"/>
</svg>
