<!-- This Source Code Form is subject to the terms of the Mozilla Public
   - License, v. 2.0. If a copy of the MPL was not distributed with this
   - file, You can obtain one at http://mozilla.org/MPL/2.0/. -->
<svg width="16" height="16" viewBox="0 0 16 16" fill="none" xmlns="http://www.w3.org/2000/svg">
  <path d="M2 3.5C1.723 3.5 1.5 3.723 1.5 4V12C1.5 12.831 2.169 13.5 3 13.5H11V13H7C6.44772 13 6 12.5523 6 12V8C6 7.44772 6.44772 7 7 7H11C11.5523 7 12 7.44772 12 8V11H14.5V8C14.5 7 13.6801 6.5 13 6.5H8.5L6.5 3.5H2Z" fill="context-fill" opacity="context-fill-opacity"/>
  <path d="M2 3C1.45465 3 1 3.45465 1 4V12C1 13.0993 1.90065 14 3 14H11V13H3C2.43735 13 2 12.5626 2 12V6H4.5C4.63261 6 4.75976 5.94729 4.85352 5.85352C4.94729 5.75976 5 5.63261 5 5.5C5 5.36739 4.94729 5.24024 4.85352 5.14648C4.75976 5.05271 4.63261 5 4.5 5H2V4H6.23242L8.08398 6.77734C8.12965 6.84583 8.1911 6.90257 8.26367 6.94141C8.33624 6.98025 8.41769 6.99999 8.5 7H13C13.2175 7 13.4868 7.08928 13.6777 7.25391C13.8687 7.41853 14 7.63665 14 8V11H15V6C15 4.90065 14.0993 4 13 4H7.5C7.48025 4.00273 7.46069 4.00665 7.44141 4.01172L6.91602 3.22266C6.87035 3.15417 6.8089 3.09743 6.73633 3.05859C6.66376 3.01975 6.58231 3.00001 6.5 3H2ZM8.10156 5H13C13.5626 5 14 5.43735 14 6V6.26367C13.6856 6.08669 13.3379 6 13 6H8.76758L8.10156 5ZM7.5 8C7.3674 8.00002 7.24024 8.05271 7.14648 8.14648C7.05274 8.24025 7 8.36741 7 8.5C7 8.63259 7.05274 8.75975 7.14648 8.85352L9.29297 11H7.5C7.36739 11 7.24024 11.0528 7.14648 11.1465C7.05271 11.2403 7 11.3674 7 11.5C7 11.6326 7.05271 11.7597 7.14648 11.8535C7.24024 11.9472 7.36739 12 7.5 12H10.5C10.6326 12 10.7598 11.9473 10.8535 11.8535C10.883 11.8236 10.9086 11.7902 10.9297 11.7539L10.9336 11.75L10.9355 11.7461C10.9561 11.7092 10.9718 11.6698 10.9824 11.6289C10.9939 11.5869 10.9998 11.5436 11 11.5V8.5C11 8.36739 10.9472 8.24025 10.8535 8.14648C10.7597 8.05272 10.6326 8 10.5 8C10.3674 8 10.2403 8.05272 10.1465 8.14648C10.0528 8.24025 10 8.36739 10 8.5V10.293L7.85352 8.14648C7.75976 8.05271 7.6326 8.00002 7.5 8ZM12.5 12C12.3674 12 12.2402 12.0527 12.1465 12.1465C12.117 12.1764 12.0914 12.2098 12.0703 12.2461L12.0664 12.25L12.0645 12.2539C12.0439 12.2908 12.0282 12.3302 12.0176 12.3711C12.0061 12.4131 12.0002 12.4564 12 12.5V15.5C12 15.6326 12.0528 15.7597 12.1465 15.8535C12.2403 15.9472 12.3674 16 12.5 16C12.6326 16 12.7597 15.9472 12.8535 15.8535C12.9472 15.7597 13 15.6326 13 15.5V13.707L15.1465 15.8535C15.2402 15.9473 15.3674 16 15.5 16C15.6326 16 15.7598 15.9473 15.8535 15.8535C15.9473 15.7598 16 15.6326 16 15.5C16 15.3674 15.9473 15.2402 15.8535 15.1465L13.707 13H15.5C15.6326 13 15.7597 12.9472 15.8535 12.8535C15.9472 12.7597 16 12.6326 16 12.5C16 12.3674 15.9472 12.2403 15.8535 12.1465C15.7597 12.0528 15.6326 12 15.5 12H12.5Z" fill="context-stroke" opacity="context-stroke-opacity"/>
</svg>
