<!-- This Source Code Form is subject to the terms of the Mozilla Public
   - License, v. 2.0. If a copy of the MPL was not distributed with this
   - file, You can obtain one at http://mozilla.org/MPL/2.0/. -->
<svg xmlns="http://www.w3.org/2000/svg" width="16" height="16" viewBox="0 0 16 16" fill-opacity="context-fill-opacity">
  <path fill="context-stroke" d="M6.5 14a.5.5 0 0 0 0-1H5a2 2 0 0 1-2-2V5a2 2 0 0 1 2-2h6a2 2 0 0 1 2 2v1.5a.5.5 0 0 0 1 0V5a3 3 0 0 0-3-3H5a3 3 0 0 0-3 3v6a3 3 0 0 0 3 3z"/>
  <path fill="context-stroke" d="M13.5 14a.5.5 0 0 0 .5-.5v-4a.5.5 0 0 0-1 0v2.843l-2.94-2.94a.5.5 0 0 0-.706.708L12.242 13H9.5a.5.5 0 0 0 0 1z"/>
</svg>
