<!-- This Source Code Form is subject to the terms of the Mozilla Public
   - License, v. 2.0. If a copy of the MPL was not distributed with this
   - file, You can obtain one at http://mozilla.org/MPL/2.0/. -->
<svg width="16" height="16" viewBox="0 0 16 16" xmlns="http://www.w3.org/2000/svg">
  <path d="M4 0.5C3.169 0.5 2.5 1.169 2.5 2V2.5H11.5V2C11.5 1.169 10.831 0.5 10 0.5H4ZM2.5 11.5V12C2.5 12.831 3.169 13.5 4 13.5H6V11.5H2.5Z" fill-opacity="context-fill-opacity" fill="context-fill"/>
  <path d="M4 0C2.90065 0 2 0.900654 2 2V12C2 13.0993 2.90065 14 4 14H6V13H4C3.43735 13 3 12.5626 3 12H6V11H3V3H11V6H12V2C12 0.900654 11.0993 0 10 0H4ZM4 1H10C10.5626 1 11 1.43735 11 2H3C3 1.43735 3.43735 1 4 1ZM9 7C7.90065 7 7 7.90065 7 9V14C7 15.0993 7.90065 16 9 16H14C15.0993 16 16 15.0993 16 14V9C16 7.90065 15.0993 7 14 7H9ZM9 8H14C14.5626 8 15 8.43736 15 9V14C15 14.5626 14.5626 15 14 15H9C8.43736 15 8 14.5626 8 14V9C8 8.43736 8.43736 8 9 8ZM11.5 9C11.3674 9 11.2403 9.05271 11.1465 9.14648C11.0527 9.24024 11 9.36739 11 9.5V12.293L9.85352 11.1465C9.75975 11.0527 9.63259 11 9.5 11C9.36741 11 9.24025 11.0527 9.14648 11.1465C9.05272 11.2402 9.00002 11.3674 9 11.5C9.00002 11.6326 9.0527 11.7597 9.14648 11.8535L11.1465 13.8535C11.1516 13.8588 11.1568 13.864 11.1621 13.8691C11.1691 13.8752 11.1763 13.8811 11.1836 13.8867C11.1887 13.8907 11.1939 13.8946 11.1992 13.8984C11.2069 13.9045 11.2147 13.9104 11.2227 13.916L11.2363 13.9258C11.2453 13.9313 11.2544 13.9365 11.2637 13.9414L11.2773 13.9473L11.2793 13.9492C11.2889 13.9534 11.2987 13.9573 11.3086 13.9609C11.322 13.9667 11.3357 13.972 11.3496 13.9766L11.3555 13.9785L11.3633 13.9805C11.3762 13.9842 11.3892 13.9875 11.4023 13.9902L11.4082 13.9922C11.4224 13.9947 11.4368 13.9967 11.4512 13.998C11.4674 13.9995 11.4837 14.0001 11.5 14C11.5862 14.0001 11.671 13.9779 11.7461 13.9355L11.75 13.9336C11.7879 13.9115 11.8227 13.8846 11.8535 13.8535L13.8535 11.8535C13.9473 11.7597 14 11.6326 14 11.5C14 11.3674 13.9473 11.2402 13.8535 11.1465C13.7597 11.0527 13.6326 11 13.5 11C13.3674 11 13.2403 11.0527 13.1465 11.1465L12 12.293V9.5C12 9.36739 11.9473 9.24024 11.8535 9.14648C11.7597 9.05271 11.6326 9 11.5 9Z" fill-opacity="context-stroke-opacity" fill="context-stroke"/>
</svg>
