<!-- This Source Code Form is subject to the terms of the Mozilla Public
   - License, v. 2.0. If a copy of the MPL was not distributed with this
   - file, You can obtain one at http://mozilla.org/MPL/2.0/. -->
<svg width="16" height="16" viewBox="0 0 16 16" xmlns="http://www.w3.org/2000/svg">
  <path d="M4 0.5C3.169 0.5 2.5 1.169 2.5 2V2.5H11.5V2C11.5 1.169 10.831 0.5 10 0.5H4ZM2.5 11.5V12C2.5 12.831 3.169 13.5 4 13.5H6V11.5H2.5Z" fill-opacity="context-fill-opacity" fill="context-fill"/>
  <path d="M4 0C2.90065 0 2 0.900654 2 2V12C2 13.0993 2.90065 14 4 14H6V13H4C3.43735 13 3 12.5626 3 12H6V11H3V3H11V6H12V2C12 0.900654 11.0993 0 10 0H4ZM4 1H10C10.5626 1 11 1.43735 11 2H3C3 1.43735 3.43735 1 4 1ZM9 7C7.90065 7 7 7.90065 7 9V14C7 15.0993 7.90065 16 9 16H14C15.0993 16 16 15.0993 16 14V9C16 7.90065 15.0993 7 14 7H9ZM9 8H14C14.5626 8 15 8.43736 15 9V14C15 14.5626 14.5626 15 14 15H9C8.43736 15 8 14.5626 8 14V9C8 8.43736 8.43736 8 9 8ZM11.5 9C11.4837 8.99985 11.4674 9.00051 11.4512 9.00195C11.4368 9.00328 11.4224 9.00524 11.4082 9.00781L11.4023 9.00977C11.3892 9.0125 11.3762 9.01575 11.3633 9.01953L11.3555 9.02148L11.3496 9.02344C11.3357 9.02804 11.322 9.03327 11.3086 9.03906C11.2987 9.04266 11.2889 9.04657 11.2793 9.05078L11.2773 9.05273L11.2637 9.05859C11.2544 9.06351 11.2453 9.06872 11.2363 9.07422L11.2227 9.08398C11.2147 9.08961 11.2069 9.09548 11.1992 9.10156C11.1939 9.10537 11.1887 9.10927 11.1836 9.11328C11.1763 9.11894 11.1691 9.1248 11.1621 9.13086C11.1568 9.13595 11.1516 9.14116 11.1465 9.14648L9.14648 11.1465C9.0527 11.2403 9.00002 11.3674 9 11.5C9.00002 11.6326 9.05272 11.7598 9.14648 11.8535C9.24025 11.9473 9.36741 12 9.5 12C9.63259 12 9.75975 11.9473 9.85352 11.8535L11 10.707V13.5C11 13.6326 11.0527 13.7598 11.1465 13.8535C11.2403 13.9473 11.3674 14 11.5 14C11.6326 14 11.7597 13.9473 11.8535 13.8535C11.9473 13.7598 12 13.6326 12 13.5V10.707L13.1465 11.8535C13.2403 11.9473 13.3674 12 13.5 12C13.6326 12 13.7597 11.9473 13.8535 11.8535C13.9473 11.7598 14 11.6326 14 11.5C14 11.3674 13.9473 11.2403 13.8535 11.1465L11.8535 9.14648C11.8227 9.11537 11.7879 9.08845 11.75 9.06641L11.7461 9.06445C11.671 9.02211 11.5862 8.99991 11.5 9Z" fill-opacity="context-stroke-opacity" fill="context-stroke"/>
</svg>
