<!-- This Source Code Form is subject to the terms of the Mozilla Public
   - License, v. 2.0. If a copy of the MPL was not distributed with this
   - file, You can obtain one at http://mozilla.org/MPL/2.0/. -->
<svg width="16" height="16" viewBox="0 0 16 16" xmlns="http://www.w3.org/2000/svg">
  <path d="M5 4.5C3.90065 4.5 3 5.40065 3 6.5V10.5C3 11.5993 3.90065 12.5 5 12.5H5.5C5.63261 12.5 5.75979 12.4473 5.85355 12.3536C5.94732 12.2598 6 12.1326 6 12C6 11.8674 5.94732 11.7402 5.85355 11.6464C5.75979 11.5527 5.63261 11.5 5.5 11.5H5C4.43735 11.5 4 11.0627 4 10.5V6.5C4 5.93735 4.43735 5.5 5 5.5H11C11.5626 5.5 12 5.93735 12 6.5V10.5C12 11.0627 11.5626 11.5 11 11.5H9.70703L10.8535 10.3535C10.9473 10.2598 10.9999 10.1326 10.9999 10C10.9999 9.86741 10.9473 9.74025 10.8535 9.64648C10.7598 9.55271 10.6326 9.50002 10.5 9.5C10.3674 9.50002 10.2402 9.55271 10.1465 9.64648L8.14648 11.6465C8.05275 11.7403 8.00009 11.8674 8.00009 12C8.00009 12.1326 8.05275 12.2597 8.14648 12.3535L10.1465 14.3535C10.2402 14.4473 10.3674 14.4999 10.5 14.4999C10.6326 14.4999 10.7598 14.4473 10.8535 14.3535C10.9473 14.2598 10.9999 14.1326 10.9999 14C10.9999 13.8674 10.9473 13.7402 10.8535 13.6465L9.70703 12.5H11C12.0993 12.5 13 11.5993 13 10.5V6.5C13 5.40065 12.0993 4.5 11 4.5H5Z" fill-opacity="context-stroke-opacity" fill="context-stroke"/>
</svg>
