<!-- This Source Code Form is subject to the terms of the Mozilla Public
   - License, v. 2.0. If a copy of the MPL was not distributed with this
   - file, You can obtain one at http://mozilla.org/MPL/2.0/. -->
<svg width="16" height="16" viewBox="0 0 16 16" xmlns="http://www.w3.org/2000/svg">
  <path fill-opacity="context-fill-opacity" d="M8 2.47656C7.24059 2.47656 6.90417 5.83021 6.36719 6.36719C5.83021 6.90417 2.47656 7.24059 2.47656 8C2.47656 8.75941 5.83021 9.09583 6.36719 9.63281C6.90417 10.1698 7.24059 13.5234 8 13.5234C8.75941 13.5234 9.09583 10.1698 9.63281 9.63281C10.1698 9.09583 13.5234 8.75941 13.5234 8C13.5234 7.24059 10.1698 6.90417 9.63281 6.36719C9.09583 5.83021 8.75941 2.47656 8 2.47656Z" fill="context-fill"/>
  <path d="M8 1.97656C7.72107 1.97656 7.49946 2.13457 7.36133 2.28906C7.2232 2.44355 7.13035 2.61479 7.04492 2.80273C6.87407 3.17862 6.74234 3.62946 6.61719 4.08984C6.49204 4.55023 6.37641 5.01706 6.26367 5.38672C6.15093 5.75638 5.98237 6.04497 6.01367 6.01367C6.04497 5.98237 5.75638 6.15093 5.38672 6.26367C5.01706 6.37641 4.55023 6.49204 4.08984 6.61719C3.62946 6.74234 3.17862 6.87407 2.80273 7.04492C2.61479 7.13035 2.44355 7.2232 2.28906 7.36133C2.13457 7.49946 1.97656 7.72107 1.97656 8C1.97656 8.27893 2.13457 8.50054 2.28906 8.63867C2.44355 8.7768 2.61479 8.86965 2.80273 8.95508C3.17862 9.12593 3.62946 9.25766 4.08984 9.38281C4.55023 9.50796 5.01706 9.62359 5.38672 9.73633C5.75638 9.84907 6.04497 10.0176 6.01367 9.98633C5.98237 9.95503 6.15093 10.2436 6.26367 10.6133C6.37641 10.9829 6.49204 11.4498 6.61719 11.9102C6.74234 12.3705 6.87407 12.8214 7.04492 13.1973C7.13035 13.3852 7.2232 13.5564 7.36133 13.7109C7.49946 13.8654 7.72107 14.0234 8 14.0234C8.27893 14.0234 8.50055 13.8654 8.63867 13.7109C8.7768 13.5564 8.86965 13.3852 8.95508 13.1973C9.12593 12.8214 9.25767 12.3705 9.38281 11.9102C9.50796 11.4498 9.62359 10.9829 9.73633 10.6133C9.84907 10.2436 10.0176 9.95503 9.98633 9.98633C9.95503 10.0176 10.2436 9.84907 10.6133 9.73633C10.9829 9.62359 11.4498 9.50796 11.9102 9.38281C12.3705 9.25766 12.8214 9.12593 13.1973 8.95508C13.3852 8.86965 13.5564 8.7768 13.7109 8.63867C13.8654 8.50054 14.0234 8.27893 14.0234 8C14.0234 7.72107 13.8654 7.49946 13.7109 7.36133C13.5564 7.2232 13.3852 7.13035 13.1973 7.04492C12.8214 6.87407 12.3705 6.74234 11.9102 6.61719C11.4498 6.49204 10.9829 6.37641 10.6133 6.26367C10.2436 6.15093 9.95503 5.98237 9.98633 6.01367C10.0176 6.04497 9.84907 5.75638 9.73633 5.38672C9.62359 5.01706 9.50796 4.55023 9.38281 4.08984C9.25767 3.62946 9.12593 3.17862 8.95508 2.80273C8.86965 2.61479 8.7768 2.44355 8.63867 2.28906C8.50055 2.13457 8.27893 1.97656 8 1.97656ZM8 3.13867C8.01749 3.17111 8.02668 3.17667 8.04492 3.2168C8.16751 3.4865 8.29696 3.90641 8.41797 4.35156C8.53897 4.79671 8.6542 5.26756 8.77929 5.67773C8.90439 6.08791 8.9795 6.42091 9.27929 6.7207C9.57909 7.02049 9.91209 7.09561 10.3223 7.2207C10.7324 7.3458 11.2033 7.46102 11.6484 7.58203C12.0936 7.70304 12.5135 7.83249 12.7832 7.95508C12.8233 7.97332 12.8289 7.98251 12.8613 8C12.8289 8.01749 12.8233 8.02668 12.7832 8.04492C12.5135 8.16751 12.0936 8.29696 11.6484 8.41797C11.2033 8.53898 10.7324 8.6542 10.3223 8.7793C9.91209 8.90439 9.57909 8.97951 9.27929 9.2793C8.9795 9.57909 8.90439 9.91209 8.77929 10.3223C8.6542 10.7324 8.53897 11.2033 8.41797 11.6484C8.29696 12.0936 8.16751 12.5135 8.04492 12.7832C8.02668 12.8233 8.01749 12.8289 8 12.8613C7.98251 12.8289 7.97332 12.8233 7.95508 12.7832C7.83249 12.5135 7.70304 12.0936 7.58203 11.6484C7.46102 11.2033 7.3458 10.7324 7.2207 10.3223C7.09561 9.91209 7.0205 9.57909 6.7207 9.2793C6.42091 8.9795 6.08791 8.90439 5.67773 8.7793C5.26756 8.6542 4.79671 8.53898 4.35156 8.41797C3.90641 8.29696 3.4865 8.16751 3.2168 8.04492C3.17667 8.02668 3.17111 8.01749 3.13867 8C3.17111 7.98251 3.17667 7.97332 3.2168 7.95508C3.4865 7.83249 3.90641 7.70304 4.35156 7.58203C4.79671 7.46102 5.26756 7.3458 5.67773 7.2207C6.08791 7.09561 6.42091 7.0205 6.7207 6.7207C7.0205 6.42091 7.09561 6.08791 7.2207 5.67773C7.3458 5.26756 7.46102 4.79671 7.58203 4.35156C7.70304 3.90641 7.83249 3.4865 7.95508 3.2168C7.97332 3.17667 7.98251 3.17111 8 3.13867Z" fill="context-stroke"/>
</svg>
