<!-- This Source Code Form is subject to the terms of the Mozilla Public
   - License, v. 2.0. If a copy of the MPL was not distributed with this
   - file, You can obtain one at http://mozilla.org/MPL/2.0/. -->
<svg width="16" height="16" viewBox="0 0 16 16" xmlns="http://www.w3.org/2000/svg">
  <path d="M8 10C7.72386 10 7.5 9.77614 7.5 9.5V4.70711L5.35355 6.85355C5.15829 7.04882 4.84171 7.04882 4.64645 6.85355C4.45118 6.65829 4.45118 6.34171 4.64645 6.14645L7.64645 3.14645C7.84171 2.95118 8.15829 2.95118 8.35355 3.14645L11.3536 6.14645C11.5488 6.34171 11.5488 6.65829 11.3536 6.85355C11.1583 7.04882 10.8417 7.04882 10.6464 6.85355L8.5 4.70711V9.5C8.5 9.77614 8.27614 10 8 10ZM4.5 10.5C4.5 10.2239 4.27614 10 4 10C3.72386 10 3.5 10.2239 3.5 10.5V11.5C3.5 12.3301 4.16986 13 5 13H11C11.8301 13 12.5 12.3301 12.5 11.5V10.5C12.5 10.2239 12.2761 10 12 10C11.7239 10 11.5 10.2239 11.5 10.5V11.5C11.5 11.7779 11.2779 12 11 12H5C4.72214 12 4.5 11.7779 4.5 11.5V10.5Z" fill-opacity="context-stroke-opacity" fill="#context-stroke"/>
</svg>
