<svg width="218" height="82" viewBox="0 0 218 82" fill="none" xmlns="http://www.w3.org/2000/svg">
<g filter="url(#filter0_d_1_11)">
<path d="M36.0318 15.5747H36.0392C38.4821 7.03497 49.1269 2.86584 59.9745 2.86584C67.4691 2.86584 74.1986 5.23957 78.8109 9.00644C75.9538 9.14809 73.2355 9.70719 70.7475 10.6095C74.4747 11.9941 77.6763 14.1258 80.0494 16.7629C78.4749 16.4908 76.8421 16.3476 75.168 16.3476C74.9872 16.3476 74.8071 16.3493 74.6271 16.3526C78.939 22.6039 81.4637 30.1826 81.4637 38.3511C81.4637 59.7753 64.096 77.143 42.6717 77.143C21.5777 77.143 3.87964 59.4813 3.87964 38.351C3.87964 35.0139 4.32383 31.5671 5.18464 28.3366C5.40982 27.658 5.72477 27.0072 6.14301 26.7692C6.66647 26.4713 7.14223 27.3596 7.21931 27.6488C7.78781 29.7832 8.55369 31.8475 9.4985 33.8249C9.41601 29.3954 11.3078 25.3619 13.911 21.872C15.6462 19.5459 17.2546 17.3895 17.9975 11.1685C18.0474 10.7509 18.4434 10.4504 18.843 10.5813C24.4917 12.4306 27.5115 21.8357 27.0413 29.7005C30.1618 30.1465 30.1473 26.8871 30.1473 26.8871C29.1498 23.8219 29.8149 18.1239 36.0216 15.5747H36.0318Z" fill="url(#paint0_linear_1_11)"/>
<path opacity="0.9" d="M80.1946 28.4725C81.1377 49.8084 63.5983 68.2028 42.2099 68.2028C22.1882 68.2028 5.78098 52.7276 4.29695 33.0857C4.03547 34.9003 3.89393 36.7537 3.88062 38.6376C4.03256 59.6564 21.6877 77.1431 42.6717 77.1431C64.0959 77.1431 81.4637 59.7754 81.4637 38.3512C81.4637 34.9374 81.0224 31.6265 80.1946 28.4725Z" fill="url(#paint1_radial_1_11)"/>
<path d="M41.7269 18.4023C41.3088 17.6625 39.3789 16.5689 38.5357 16.3781C41.7269 6.15378 57.9893 3.01472 67.9425 4.82375C72.084 5.57647 77.243 7.83456 78.8118 9.0065C74.1994 5.23959 67.4698 2.86584 59.975 2.86584C49.1273 2.86584 38.4824 7.03501 36.0395 15.5748H36.032H36.0219C29.8151 18.124 29.1508 23.8238 30.1483 26.8891C31.1053 23.2328 35.6623 18.7396 41.7269 18.4023Z" fill="url(#paint2_linear_1_11)"/>
<path d="M52.9996 11.3415C44.2858 13.056 41.4381 13.6163 38.5215 16.3888C41.797 7.71739 50.1579 5.96049 60.12 9.91267C57.3782 10.48 55.0297 10.942 52.9996 11.3415Z" fill="url(#paint3_linear_1_11)"/>
<path d="M5.98536 27.1492C3.60484 36.8956 5.44431 48.3517 16.2596 57.9656C13.0397 54.4451 9.10916 41.4438 17.7838 32.1552C18.3681 31.5295 19.3735 31.99 19.4051 32.8455C20.1198 52.1483 35.6965 63.9378 53.6535 61.7331C48.0894 61.4205 29.6887 54.9761 43.3765 52.4261C50.5313 51.0932 61.7495 49.0034 61.7495 38.9387C61.7495 22.6205 49.1322 17.8497 41.4819 18.5595C36.2456 19.0453 31.5854 22.3677 30.1506 26.8859C30.7012 28.6676 28.5063 29.915 27.0414 29.7056C27.5117 21.8408 24.4919 12.4306 18.8432 10.5812C18.4435 10.4504 18.0475 10.7509 17.9976 11.1685C17.2547 17.3896 15.6462 19.546 13.911 21.8722C11.3078 25.3621 9.41601 29.3955 9.49851 33.8252C8.55369 31.8478 7.78774 29.7835 7.21924 27.649C7.15547 27.4095 6.80904 26.7419 6.38969 26.7104C6.16269 26.6933 6.04254 26.9151 5.98536 27.1492Z" fill="url(#paint4_radial_1_11)"/>
<path d="M38.5698 53.4138C49.1032 61.9666 70.2878 55.5544 70.2878 34.7576C61.7349 47.7219 50.8421 56.6637 38.5698 53.4138Z" fill="url(#paint5_linear_1_11)"/>
<path d="M17.7835 32.1553C18.0058 31.9171 18.2895 31.8353 18.5575 31.8725C10.7923 41.3427 17.0551 57.9764 21.3538 62.0622C21.5939 62.7427 17.2763 59.2044 16.6809 58.3758C13.4114 55.6018 8.72537 41.8545 17.7835 32.1553Z" fill="url(#paint6_linear_1_11)"/>
<path d="M42.7269 54.1784C53.2634 54.1784 61.805 47.209 61.805 38.6117C61.805 30.0144 53.2634 23.0449 42.7269 23.0449C33.7382 23.0449 23.6456 28.8928 23.6489 38.8389C23.654 54.209 39.8911 63.0511 53.7318 61.7125C52.6922 61.5919 46.2066 61.2474 41.8229 56.2884C41.4276 55.8412 40.7413 55.0616 41.0525 54.5546C41.3638 54.0477 42.2191 54.1784 42.7269 54.1784Z" fill="url(#paint7_linear_1_11)"/>
<path opacity="0.7" d="M42.7269 54.1784C53.2634 54.1784 61.805 47.2089 61.805 38.6116C61.805 35.9865 61.0086 33.5132 59.6023 31.3437L44.4602 45.0965C43.4028 46.0568 41.6216 46.0568 40.5643 45.0965L25.7038 31.5995C24.4106 33.6784 23.648 36.1037 23.6489 38.8389C23.654 54.209 39.8911 63.051 53.7318 61.7125C53.669 61.7052 53.5865 61.6971 53.4858 61.6873L53.4854 61.6872C51.9164 61.5334 45.9418 60.9478 41.8229 56.2884C41.4276 55.8412 40.7413 55.0615 41.0525 54.5546C41.3139 54.1289 41.9589 54.1529 42.4597 54.1715C42.5552 54.175 42.6455 54.1784 42.7269 54.1784Z" fill="url(#paint8_linear_1_11)"/>
<g filter="url(#filter1_f_1_11)">
<path fill-rule="evenodd" clip-rule="evenodd" d="M38.2986 45.1879C35.4889 42.2636 27.0737 32.5498 27.0737 32.5498L27.7251 32.5778L40.8982 42.4171C41.8852 43.134 43.292 43.1268 44.27 42.3999L57.1874 32.5905L57.8732 32.5372C57.8732 32.5372 49.7332 42.0209 46.6155 45.1454C43.4978 48.2699 41.1083 48.1123 38.2986 45.1879Z" fill="#458FCD"/>
</g>
<path d="M44.5997 45.9862L59.711 31.5581C56.5116 26.6225 50.61 23.0449 42.7361 23.0449C36.2199 23.0449 29.1157 26.1188 25.7061 31.5986L40.3436 45.9862C41.401 46.9466 43.5423 46.9466 44.5997 45.9862Z" fill="url(#paint9_linear_1_11)"/>
<path opacity="0.6" d="M59.7268 31.5394L44.6494 45.9658C43.3113 46.9163 41.887 46.9863 40.4808 46.123L25.6943 31.5913C26.1108 30.9199 26.5852 30.2764 27.1121 29.6653C27.6449 30.1635 28.1608 30.6467 28.6641 31.1181C32.5487 34.7566 35.6885 37.6975 40.1137 41.4743C42.1115 43.1793 42.7323 43.1458 44.6907 41.4743C49.7546 37.1524 53.4567 33.8817 58.2709 29.584C58.8123 30.2036 59.2995 30.8569 59.7268 31.5394Z" fill="white"/>
<path opacity="0.2" d="M54.0323 51.1342C50.9844 52.963 47.0497 54.1902 42.6718 54.1971C42.5905 54.1971 42.5003 54.1937 42.4048 54.1902L42.4046 54.1902H42.4046C41.9038 54.1715 41.2588 54.1476 40.9974 54.5733C40.863 54.7922 40.9147 55.0621 41.0486 55.334H41.0484C40.7321 54.9026 40.5101 54.0827 41.8404 53.9605C45.11 53.6602 44.7776 54.0713 48.4905 53.1292C52.2035 52.1871 54.1935 49.8838 54.1431 50.2476L54.0323 51.1342Z" fill="url(#paint10_linear_1_11)"/>
<path d="M45.3476 15.2766C47.3893 14.6337 47.2106 12.6125 47.2106 12.6125C47.2106 12.6125 46.1891 11.4107 44.1664 12.0768C42.2729 12.7003 41.9795 14.0485 41.9795 14.0485C41.9795 14.0485 43.0139 16.0115 45.3476 15.2766Z" fill="white"/>
<g filter="url(#filter2_d_1_11)">
<path d="M31.7256 24.2507C32.594 24.5981 34.5912 25.0323 35.4073 26.5832L49.4102 46.4607C49.9625 47.2447 49.7747 48.3283 48.9906 48.8807C48.2064 49.4331 47.1229 49.2451 46.5706 48.4611L36.5685 34.2629C36.0161 33.4788 34.9326 33.2909 34.1485 33.8433C33.3643 34.3957 33.1765 35.4792 33.7288 36.2633L43.7309 50.4615C45.3881 52.8139 48.6386 53.3776 50.991 51.7203C53.3404 50.0653 53.9056 46.8212 52.2562 44.4694L52.2498 44.4603L38.2469 24.5828C37.7802 23.9202 36.0057 23.6975 35.4073 23.2087C34.2405 23.7999 32.7991 23.5283 31.7256 24.2507Z" fill="#19518F"/>
</g>
<path d="M28.147 25.3244C30.4994 23.6672 33.7499 24.2308 35.4071 26.5832L49.41 46.4607C49.9623 47.2447 49.7745 48.3283 48.9903 48.8807C48.2062 49.4331 47.1226 49.2451 46.5703 48.4611L36.5683 34.2629C36.0159 33.4788 34.9324 33.2909 34.1482 33.8433C33.3641 34.3957 33.1762 35.4792 33.7286 36.2633L43.7307 50.4615C45.3878 52.8139 48.6383 53.3776 50.9908 51.7204C53.3401 50.0653 53.9054 46.8212 52.256 44.4694L52.2496 44.4603L38.2467 24.5828C35.4847 20.6621 30.0673 19.7227 26.1466 22.4847C22.2259 25.2467 21.2865 30.6641 24.0485 34.5849L24.1625 34.842C24.6058 33.512 25.2912 32.1092 26.0466 31.0182C25.1428 28.8188 26.1209 26.7517 28.147 25.3244Z" fill="#19518F"/>
<path d="M52.1848 44.5192L52.1849 44.5192C53.8068 46.8319 53.251 50.0219 50.9408 51.6494C48.6275 53.279 45.4312 52.7247 43.8017 50.4115L33.7996 36.2133C33.2748 35.4684 33.4533 34.4391 34.1982 33.9143C34.9432 33.3895 35.9725 33.568 36.4973 34.3129L46.4993 48.5111C47.0793 49.3343 48.217 49.5317 49.0404 48.9517C49.8637 48.3717 50.0609 47.2339 49.481 46.4107L35.4781 26.5332C33.7932 24.1415 30.4886 23.5686 28.097 25.2534C27.0737 25.9742 26.3098 26.8603 25.9174 27.8497C25.5293 28.828 25.5064 29.9024 25.9486 31.0074C25.2383 32.0423 24.5925 33.3464 24.152 34.6041L24.1279 34.5497L24.1244 34.5419L24.1195 34.5349C21.3851 30.6533 22.3151 25.2901 26.1966 22.5557C30.0781 19.8213 35.4413 20.7513 38.1757 24.6328L52.1785 44.5101L52.1786 44.5103L52.1848 44.5192Z" stroke="black" stroke-opacity="0.1" stroke-width="0.173675"/>
<g filter="url(#filter3_f_1_11)">
<path d="M27.2096 24.598C31.291 21.2114 34.5835 23.8955 36.2407 26.248L50.3089 45.7864C51.1773 47.9573 51.0036 48.7389 49.7879 49.8678C49.085 50.5204 47.2696 51.344 45.7934 49.6073L35.7913 35.409C35.2389 34.6249 35.5334 34.2925 34.7492 34.8449C33.9651 35.3973 34.1969 35.1459 34.7492 35.9301L44.7513 50.1283C46.3144 52.2992 49.3537 51.5014 50.8299 50.4615C52.1325 49.5439 52.914 47.7837 51.351 44.918L37.1959 25.4664C34.4339 21.5457 30.8698 20.4466 26.9491 23.2086C23.9459 25.3244 22.2601 30.2571 24.6401 33.4004L24.9521 33.8432C25.2129 33.2818 25.3865 33.0213 25.7339 32.4134C24.3798 30.503 23.9456 27.9847 27.2096 24.598Z" fill="#1373D9"/>
</g>
</g>
<path d="M104.572 72.2491C98.6611 72.2491 93.6551 70.2356 89.5542 66.2086L92.2696 62.8282C94.006 64.5646 95.8902 65.9131 97.9222 66.8736C99.9542 67.8342 102.226 68.3145 104.739 68.3145C106.623 68.3145 108.23 68.0189 109.56 67.4278C110.89 66.7997 111.887 65.987 112.552 64.9894C113.254 63.955 113.605 62.8466 113.605 61.6644C113.605 59.7433 112.792 58.284 111.167 57.2865C109.578 56.252 106.974 55.3099 103.353 54.4602C100.582 53.7952 98.2916 53.0563 96.4813 52.2435C94.708 51.4307 93.3226 50.3408 92.3251 48.9739C91.3645 47.57 90.8842 45.8151 90.8842 43.7092C90.8842 41.7142 91.4384 39.8855 92.5467 38.2229C93.6551 36.5604 95.1698 35.2489 97.0909 34.2883C99.049 33.3278 101.229 32.8475 103.63 32.8475C106.327 32.8475 108.747 33.3278 110.89 34.2883C113.07 35.2119 115.102 36.542 116.986 38.2784L114.326 41.6588C112.7 40.1071 110.964 38.9064 109.116 38.0567C107.269 37.207 105.367 36.7821 103.408 36.7821C101.894 36.7821 100.508 37.0961 99.2522 37.7242C97.9961 38.3153 97.017 39.1281 96.3151 40.1625C95.6131 41.1601 95.2622 42.2315 95.2622 43.3767C95.2622 45.187 96.0565 46.5725 97.6451 47.533C99.2337 48.4566 101.857 49.3618 105.514 50.2485C109.578 51.209 112.663 52.5206 114.769 54.1831C116.912 55.8087 117.983 58.1731 117.983 61.2765C117.983 63.3454 117.466 65.2111 116.432 66.8736C115.434 68.5361 113.919 69.8477 111.887 70.8082C109.855 71.7688 107.417 72.2491 104.572 72.2491Z" fill="#19518F"/>
<path d="M138.115 68.5916C139.815 68.5916 141.514 68.2591 143.214 67.5941C144.95 66.929 146.262 66.1163 147.148 65.1557L149.697 67.8711C148.478 69.2011 146.76 70.2725 144.544 71.0853C142.364 71.8981 140.24 72.3045 138.171 72.3045C135.621 72.3045 133.239 71.658 131.022 70.3649C128.805 69.0718 127.013 67.28 125.646 64.9894C124.316 62.6619 123.651 60.0758 123.651 57.231C123.651 54.4602 124.279 51.9295 125.536 49.6389C126.829 47.3483 128.547 45.5565 130.689 44.2634C132.869 42.9703 135.234 42.3238 137.783 42.3238C142.068 42.3238 145.393 43.8201 147.758 46.8126C150.159 49.8051 151.36 53.8321 151.36 58.8936H127.918C128.214 61.7383 129.285 64.0658 131.133 65.8761C133.017 67.6864 135.344 68.5916 138.115 68.5916ZM137.949 46.0368C135.363 46.0368 133.146 46.8865 131.299 48.586C129.452 50.2485 128.343 52.4467 127.974 55.1806H147.259C146.964 52.4467 146.021 50.2485 144.433 48.586C142.844 46.8865 140.683 46.0368 137.949 46.0368Z" fill="#19518F"/>
<path d="M171.794 42.3238C173.863 42.3238 175.71 42.8041 177.335 43.7647C178.998 44.6883 180.273 45.9998 181.159 47.6993C182.083 49.3618 182.545 51.2645 182.545 53.4072V71.6395H178.388V53.9614C178.388 51.6339 177.723 49.7312 176.393 48.2535C175.063 46.7757 173.345 46.0368 171.24 46.0368C169.651 46.0368 168.173 46.3693 166.806 47.0343C165.476 47.6993 164.405 48.6044 163.592 49.7497C162.779 50.895 162.373 52.1142 162.373 53.4072V71.6395H158.217V42.9888H162.373V47.5884C163.223 46.0368 164.497 44.7806 166.197 43.8201C167.933 42.8226 169.799 42.3238 171.794 42.3238Z" fill="#19518F"/>
<path d="M217.502 32.9029V71.6395H213.345V66.264C212.237 68.1852 210.778 69.6814 208.967 70.7528C207.194 71.7873 205.181 72.3045 202.927 72.3045C200.452 72.3045 198.198 71.6764 196.166 70.4203C194.171 69.1273 192.601 67.3354 191.456 65.0449C190.31 62.7543 189.738 60.1681 189.738 57.2865C189.738 54.4048 190.31 51.8371 191.456 49.5835C192.601 47.2929 194.171 45.5195 196.166 44.2634C198.198 42.9703 200.452 42.3238 202.927 42.3238C205.181 42.3238 207.194 42.8595 208.967 43.9309C210.778 44.9654 212.237 46.4432 213.345 48.3643V32.9029H217.502ZM203.703 68.5916C205.55 68.5916 207.213 68.1113 208.69 67.1507C210.168 66.1901 211.313 64.8601 212.126 63.1607C212.939 61.4243 213.345 59.4662 213.345 57.2865C213.345 55.1067 212.939 53.1671 212.126 51.4676C211.313 49.7682 210.168 48.4382 208.69 47.4776C207.213 46.517 205.55 46.0368 203.703 46.0368C201.856 46.0368 200.193 46.517 198.715 47.4776C197.274 48.4382 196.148 49.7682 195.335 51.4676C194.522 53.1671 194.116 55.1067 194.116 57.2865C194.116 59.4662 194.522 61.4243 195.335 63.1607C196.148 64.8601 197.274 66.1901 198.715 67.1507C200.193 68.1113 201.856 68.5916 203.703 68.5916Z" fill="#19518F"/>
<path d="M122.096 24.832H118.576V23.008H127.6V24.832H124.08V34H122.096V24.832ZM132.956 25.536C133.553 25.536 134.081 25.6747 134.54 25.952C135.009 26.2187 135.372 26.5973 135.628 27.088C135.895 27.568 136.028 28.1173 136.028 28.736V34H134.14V29.12C134.14 28.5547 133.975 28.096 133.644 27.744C133.324 27.3813 132.908 27.2 132.396 27.2C131.841 27.2 131.367 27.376 130.972 27.728C130.577 28.08 130.38 28.5013 130.38 28.992V34H128.428V22.816H130.38V26.864C130.636 26.4587 130.993 26.1387 131.452 25.904C131.911 25.6587 132.412 25.536 132.956 25.536ZM144.899 25.728V34H142.947V32.896C142.691 33.2907 142.334 33.6053 141.875 33.84C141.416 34.0747 140.92 34.192 140.387 34.192C139.79 34.192 139.256 34.0587 138.787 33.792C138.328 33.5147 137.966 33.136 137.699 32.656C137.443 32.1653 137.315 31.6107 137.315 30.992V25.728H139.203V30.608C139.203 31.1733 139.363 31.6373 139.683 32C140.014 32.352 140.435 32.528 140.947 32.528C141.459 32.528 141.902 32.3787 142.275 32.08C142.659 31.7813 142.883 31.408 142.947 30.96V25.728H144.899ZM150.762 25.536C151.359 25.536 151.887 25.6747 152.346 25.952C152.815 26.2187 153.178 26.5973 153.434 27.088C153.701 27.568 153.834 28.1173 153.834 28.736V34H151.946V29.12C151.946 28.5547 151.781 28.096 151.45 27.744C151.13 27.3813 150.714 27.2 150.202 27.2C149.69 27.2 149.242 27.3493 148.858 27.648C148.485 27.9467 148.266 28.32 148.202 28.768V34H146.25V25.728H148.202V26.832C148.458 26.4373 148.815 26.1227 149.274 25.888C149.733 25.6533 150.229 25.536 150.762 25.536ZM163.393 22.816V34H161.441V32.72C161.111 33.1893 160.7 33.552 160.209 33.808C159.719 34.064 159.175 34.192 158.577 34.192C157.852 34.192 157.201 34.0107 156.625 33.648C156.049 33.2747 155.596 32.7573 155.265 32.096C154.945 31.4347 154.785 30.688 154.785 29.856C154.785 29.024 154.945 28.2827 155.265 27.632C155.596 26.9707 156.049 26.4587 156.625 26.096C157.201 25.7227 157.852 25.536 158.577 25.536C159.175 25.536 159.719 25.664 160.209 25.92C160.7 26.176 161.111 26.5387 161.441 27.008V22.816H163.393ZM159.105 32.528C159.788 32.528 160.348 32.2773 160.785 31.776C161.223 31.2747 161.441 30.6347 161.441 29.856C161.441 29.0773 161.223 28.4427 160.785 27.952C160.348 27.4507 159.788 27.2 159.105 27.2C158.412 27.2 157.841 27.4507 157.393 27.952C156.945 28.4427 156.721 29.0773 156.721 29.856C156.721 30.6347 156.945 31.2747 157.393 31.776C157.841 32.2773 158.412 32.528 159.105 32.528ZM168.647 32.464C169.031 32.464 169.425 32.384 169.831 32.224C170.236 32.064 170.556 31.8667 170.791 31.632L172.023 32.912C171.671 33.2853 171.175 33.5947 170.535 33.84C169.895 34.0747 169.271 34.192 168.663 34.192C167.873 34.192 167.148 34.0053 166.487 33.632C165.836 33.2587 165.313 32.7413 164.919 32.08C164.535 31.4187 164.343 30.672 164.343 29.84C164.343 29.0293 164.529 28.2987 164.903 27.648C165.276 26.9867 165.783 26.4693 166.423 26.096C167.063 25.7227 167.772 25.536 168.551 25.536C169.393 25.536 170.119 25.7387 170.727 26.144C171.335 26.5493 171.799 27.1307 172.119 27.888C172.439 28.6347 172.599 29.5147 172.599 30.528H166.359C166.476 31.104 166.737 31.5733 167.143 31.936C167.559 32.288 168.06 32.464 168.647 32.464ZM168.631 27.264C168.087 27.264 167.607 27.424 167.191 27.744C166.785 28.064 166.513 28.496 166.375 29.04H170.727C170.609 28.496 170.369 28.064 170.007 27.744C169.655 27.424 169.196 27.264 168.631 27.264ZM175.491 27.328C175.757 26.7733 176.147 26.336 176.659 26.016C177.181 25.696 177.779 25.536 178.451 25.536V27.2C177.565 27.2 176.851 27.44 176.307 27.92C175.763 28.4 175.491 29.0347 175.491 29.824V34H173.539V25.728H175.491V27.328ZM183.977 25.536C184.702 25.536 185.353 25.7227 185.929 26.096C186.505 26.4587 186.953 26.9707 187.273 27.632C187.604 28.2827 187.769 29.024 187.769 29.856C187.769 30.688 187.604 31.4347 187.273 32.096C186.953 32.7573 186.505 33.2747 185.929 33.648C185.353 34.0107 184.702 34.192 183.977 34.192C183.369 34.192 182.82 34.064 182.329 33.808C181.838 33.5413 181.428 33.168 181.097 32.688V34H179.145V22.816H181.097V27.04C181.428 26.56 181.838 26.192 182.329 25.936C182.82 25.6693 183.369 25.536 183.977 25.536ZM183.449 32.528C184.142 32.528 184.713 32.2773 185.161 31.776C185.609 31.2747 185.833 30.6347 185.833 29.856C185.833 29.0773 185.609 28.4427 185.161 27.952C184.713 27.4507 184.142 27.2 183.449 27.2C182.766 27.2 182.206 27.4507 181.769 27.952C181.332 28.4427 181.113 29.0773 181.113 29.856C181.113 30.6347 181.332 31.2747 181.769 31.776C182.206 32.2773 182.766 32.528 183.449 32.528ZM189.726 24.48C189.417 24.48 189.15 24.368 188.926 24.144C188.713 23.92 188.606 23.6587 188.606 23.36C188.606 23.0613 188.713 22.8053 188.926 22.592C189.15 22.368 189.417 22.256 189.726 22.256C190.025 22.256 190.281 22.368 190.494 22.592C190.718 22.8053 190.83 23.0613 190.83 23.36C190.83 23.6587 190.718 23.92 190.494 24.144C190.281 24.368 190.025 24.48 189.726 24.48ZM188.734 25.728H190.686V34H188.734V25.728ZM194.044 27.328C194.311 26.7733 194.7 26.336 195.212 26.016C195.735 25.696 196.332 25.536 197.004 25.536V27.2C196.119 27.2 195.404 27.44 194.86 27.92C194.316 28.4 194.044 29.0347 194.044 29.824V34H192.092V25.728H194.044V27.328ZM205.89 22.816V34H203.938V32.72C203.607 33.1893 203.197 33.552 202.706 33.808C202.215 34.064 201.671 34.192 201.074 34.192C200.349 34.192 199.698 34.0107 199.122 33.648C198.546 33.2747 198.093 32.7573 197.762 32.096C197.442 31.4347 197.282 30.688 197.282 29.856C197.282 29.024 197.442 28.2827 197.762 27.632C198.093 26.9707 198.546 26.4587 199.122 26.096C199.698 25.7227 200.349 25.536 201.074 25.536C201.671 25.536 202.215 25.664 202.706 25.92C203.197 26.176 203.607 26.5387 203.938 27.008V22.816H205.89ZM201.602 32.528C202.285 32.528 202.845 32.2773 203.282 31.776C203.719 31.2747 203.938 30.6347 203.938 29.856C203.938 29.0773 203.719 28.4427 203.282 27.952C202.845 27.4507 202.285 27.2 201.602 27.2C200.909 27.2 200.338 27.4507 199.89 27.952C199.442 28.4427 199.218 29.0773 199.218 29.856C199.218 30.6347 199.442 31.2747 199.89 31.776C200.338 32.2773 200.909 32.528 201.602 32.528Z" fill="#1A202C"/>
<defs>
<filter id="filter0_d_1_11" x="0.083472" y="0.0187162" width="85.1763" height="81.8696" filterUnits="userSpaceOnUse" color-interpolation-filters="sRGB">
<feFlood flood-opacity="0" result="BackgroundImageFix"/>
<feColorMatrix in="SourceAlpha" type="matrix" values="0 0 0 0 0 0 0 0 0 0 0 0 0 0 0 0 0 0 127 0" result="hardAlpha"/>
<feOffset dy="0.949038"/>
<feGaussianBlur stdDeviation="1.89808"/>
<feComposite in2="hardAlpha" operator="out"/>
<feColorMatrix type="matrix" values="0 0 0 0 0.000624525 0 0 0 0 0.276128 0 0 0 0 0.599544 0 0 0 0.39 0"/>
<feBlend mode="normal" in2="BackgroundImageFix" result="effect1_dropShadow_1_11"/>
<feBlend mode="normal" in="SourceGraphic" in2="effect1_dropShadow_1_11" result="shape"/>
</filter>
<filter id="filter1_f_1_11" x="23.527" y="28.9905" width="37.893" height="21.9913" filterUnits="userSpaceOnUse" color-interpolation-filters="sRGB">
<feFlood flood-opacity="0" result="BackgroundImageFix"/>
<feBlend mode="normal" in="SourceGraphic" in2="BackgroundImageFix" result="shape"/>
<feGaussianBlur stdDeviation="1.77335" result="effect1_foregroundBlur_1_11"/>
</filter>
<filter id="filter2_d_1_11" x="30.3362" y="22.8613" width="24.2544" height="32.2417" filterUnits="userSpaceOnUse" color-interpolation-filters="sRGB">
<feFlood flood-opacity="0" result="BackgroundImageFix"/>
<feColorMatrix in="SourceAlpha" type="matrix" values="0 0 0 0 0 0 0 0 0 0 0 0 0 0 0 0 0 0 127 0" result="hardAlpha"/>
<feOffset dy="1.04205"/>
<feGaussianBlur stdDeviation="0.6947"/>
<feComposite in2="hardAlpha" operator="out"/>
<feColorMatrix type="matrix" values="0 0 0 0 0.0845064 0 0 0 0 0.199583 0 0 0 0 0.429736 0 0 0 0.3 0"/>
<feBlend mode="normal" in2="BackgroundImageFix" result="effect1_dropShadow_1_11"/>
<feBlend mode="normal" in="SourceGraphic" in2="effect1_dropShadow_1_11" result="shape"/>
</filter>
<filter id="filter3_f_1_11" x="21.4293" y="19.5913" width="32.873" height="33.9979" filterUnits="userSpaceOnUse" color-interpolation-filters="sRGB">
<feFlood flood-opacity="0" result="BackgroundImageFix"/>
<feBlend mode="normal" in="SourceGraphic" in2="BackgroundImageFix" result="shape"/>
<feGaussianBlur stdDeviation="1.04205" result="effect1_foregroundBlur_1_11"/>
</filter>
<linearGradient id="paint0_linear_1_11" x1="35.6821" y1="-33.7185" x2="2.66405" y2="70.5757" gradientUnits="userSpaceOnUse">
<stop stop-color="#AA6000"/>
<stop offset="1" stop-color="#F09D38"/>
</linearGradient>
<radialGradient id="paint1_radial_1_11" cx="0" cy="0" r="1" gradientUnits="userSpaceOnUse" gradientTransform="translate(17.2432 33.2033) rotate(66.5179) scale(32.8023 31.4237)">
<stop offset="0.525579" stop-color="#AA6000" stop-opacity="0"/>
<stop offset="1" stop-color="#AA6000" stop-opacity="0.45"/>
</radialGradient>
<linearGradient id="paint2_linear_1_11" x1="33.6941" y1="2.86584" x2="75.8949" y2="23.8841" gradientUnits="userSpaceOnUse">
<stop stop-color="#FEF7EC"/>
<stop offset="0.51" stop-color="#F09D38"/>
</linearGradient>
<linearGradient id="paint3_linear_1_11" x1="47.375" y1="3.73112" x2="45.7021" y2="16.6152" gradientUnits="userSpaceOnUse">
<stop stop-color="#AA6000"/>
<stop offset="1" stop-color="#F09D38"/>
</linearGradient>
<radialGradient id="paint4_radial_1_11" cx="0" cy="0" r="1" gradientUnits="userSpaceOnUse" gradientTransform="translate(28.0417 59.4875) rotate(-64.2627) scale(51.1749 63.2159)">
<stop offset="0.0160882" stop-color="#AA6000"/>
<stop offset="0.967387" stop-color="#AA6000" stop-opacity="0.5"/>
</radialGradient>
<linearGradient id="paint5_linear_1_11" x1="41.1073" y1="34.7576" x2="71.521" y2="45.2946" gradientUnits="userSpaceOnUse">
<stop stop-color="#FEF7EC"/>
<stop offset="1" stop-color="#F09D38"/>
</linearGradient>
<linearGradient id="paint6_linear_1_11" x1="5.98541" y1="31.9044" x2="22.6775" y2="32.5376" gradientUnits="userSpaceOnUse">
<stop stop-color="#FEF7EC"/>
<stop offset="1" stop-color="#F09D38"/>
</linearGradient>
<linearGradient id="paint7_linear_1_11" x1="42.7276" y1="28.7457" x2="42.7276" y2="61.5527" gradientUnits="userSpaceOnUse">
<stop stop-color="white"/>
<stop offset="0.90535" stop-color="#BEE1FE"/>
<stop offset="1" stop-color="#96CEFD"/>
</linearGradient>
<linearGradient id="paint8_linear_1_11" x1="43.3412" y1="47.3104" x2="43.3412" y2="61.0538" gradientUnits="userSpaceOnUse">
<stop stop-color="#BCE0FD"/>
<stop offset="1" stop-color="#88CCFC"/>
</linearGradient>
<linearGradient id="paint9_linear_1_11" x1="42.6634" y1="26.3906" x2="42.7085" y2="62.3952" gradientUnits="userSpaceOnUse">
<stop stop-color="white"/>
<stop offset="0.90535" stop-color="#BEE1FE"/>
<stop offset="1" stop-color="#96CEFD"/>
</linearGradient>
<linearGradient id="paint10_linear_1_11" x1="50.5963" y1="47.643" x2="43.8354" y2="60.666" gradientUnits="userSpaceOnUse">
<stop stop-color="#021022" stop-opacity="0"/>
<stop offset="1" stop-color="#094188"/>
</linearGradient>
</defs>
</svg>
