<!-- This Source Code Form is subject to the terms of the Mozilla Public
   - License, v. 2.0. If a copy of the MPL was not distributed with this
   - file, You can obtain one at http://mozilla.org/MPL/2.0/. -->
<svg xmlns="http://www.w3.org/2000/svg" width="16px" height="16px" viewBox="0 0 128 125.8" fill="#000">
  <path d="M126.6 53.5c-1.2-6.4-3.7-12.6-7.1-18.2-.3-.5-.6-1.1-1-1.6-.7-1.1-1.5-2.2-2.3-3.3-7.2-10.1-12.9-13.5-14-14.1-1-.7-2-1.4-3-2-9.3-5.8-15.3-6.6-15.3-6.6-4.3-1.8-8.5-2.8-11.6-3.3-6.7-.8-12.3-.7-17.2 0 .8-1.4 1.5-1.9 1.7-2h0c-2.4.2-5.3 1.8-7.9 3.4C50.7 2.3 54.5.3 55 0h.1c-3-.2-11.5 1.7-18.8 9.8C13.6 19.3 0 40.1 0 62.8 0 80 6.6 92.2 13.9 100.4l.1.2c6.9 7.5 14.5 11.5 18.1 12.6.5.2 1 .3 1.4.3-.1 0-.1-.1-.2-.1.1-.3-4.6-7.8-6.7-16.8 4.2 4.3 9.2 7.6 14.8 8.2.6.1-2-3.1-4.8-7.3l3.8 1.3 41.7 13.9c-4.1 4.2-9.6 8.3-17.1 11.9 0 0 16.8-1.4 25.1-10.7-3.4 7.8-12.7 12-12.7 12 6.8-1 24.8-6.3 36.2-20.6 13-16.2 16.9-31.4 13-51.8zM23.8 31.9zm69.6 59.5c-1.3 6.3-4 13.3-10.1 20L9.6 86.9c-2.1-6.7-3.1-14.5-2.5-23.6 1.3 2.4 5.2 4.4 7.6 4.5-5.6-12.5-3.4-21.1.8-26.8 1.5 2.2 3.4 5 5.5 8.1v-.6c.1-.8.2-1.4.4-2-1.9-2.8-3.5-5.2-4.7-6.9 2.3-2.6 4.9-4.5 7.2-5.8.1 1.1.3 2.1.6 3.3.4 1.7.5 4.2.3 6.2v-.1c0 .4-.1.8-.2 1.2-.1.4-1.2 1.5-1.5 4.4-.3 3.1.8 4.8 1.9 6.1 1.3-1.2 3.7-4.2 8.1-5.9 4.4-1.8 7.3-4.4 12.9-7.2 3.3-1.7 6.8-1.5 11.2-1.3 7.9 1.4 18.3 4.2 28 4.7 2.2 5.2 3.1 12.7 3.1 12.9 0 .7.1 1.3.1 1.9C71.2 66.5 51 73.9 42.5 76.1c-.7.2-8.1-10.5-15-20.7-.1.2-.3.3-.4.4-.2.2-.4.4-.5.6H26c7.4 10.9 15.3 22.2 16.1 22.2 7.5-2.7 29.9-10.4 46.2-16-.1 12.3-3.1 16.9-3.1 16.9s4.1-1.6 8.3-5.8c0 3.4-.9 12.2-8 20.7 0 0 3.7-1 7.9-3z"/>
</svg>
