<!-- This Source Code Form is subject to the terms of the Mozilla Public
   - License, v. 2.0. If a copy of the MPL was not distributed with this
   - file, You can obtain one at http://mozilla.org/MPL/2.0/. -->
<svg xmlns="http://www.w3.org/2000/svg" width="11" height="11" fill="context-fill" fill-opacity="context-fill-opacity" viewBox="0 0 11 11">
  <path d="M1 0C.5 0 0 .5 0 1v9c0 .5.5 1 1 1h9c.5 0 1-.5 1-1V1c0-.5-.5-1-1-1zm0 1h9v9H1zm6.82 2.99a.52.52 0 0 0-.37.16L4.8 6.79 3.65 5.65c-.46-.48-1.17.23-.7.7l1.5 1.5c.2.2.5.2.7 0l3-3c.36-.35.05-.84-.33-.86z"/>
</svg>
