<!-- This Source Code Form is subject to the terms of the Mozilla Public
   - License, v. 2.0. If a copy of the MPL was not distributed with this
   - file, You can obtain one at http://mozilla.org/MPL/2.0/. -->
<svg xmlns="http://www.w3.org/2000/svg" fill-opacity="context-fill-opacity" viewBox="0 0 20 20" height="20" width="20">
  <path d="M18 9.5A8.5 8.5 0 0 1 9.5 18 8.5 8.5 0 0 1 1 9.5 8.5 8.5 0 0 1 9.5 1 8.5 8.5 0 0 1 18 9.5Z" fill="context-fill"/>
  <path d="M9.5 5a.5.5 0 0 0-.5.5V9H5.5a.5.5 0 0 0 0 1H9v3.5a.5.5 0 0 0 1 0V10h3.5a.5.5 0 0 0 0-1H10V5.5a.5.5 0 0 0-.5-.5Z" fill="context-stroke"/>
</svg>
