<!-- This Source Code Form is subject to the terms of the Mozilla Public
   - License, v. 2.0. If a copy of the MPL was not distributed with this
   - file, You can obtain one at http://mozilla.org/MPL/2.0/. -->
<svg xmlns="http://www.w3.org/2000/svg" viewBox="0 0 20 20" height="20" width="20">
  <path d="M17.5 9.5a8 8 0 0 1-8 8 8 8 0 0 1-8-8 8 8 0 0 1 8-8 8 8 0 0 1 8 8Z" stroke-opacity="0.2" stroke="context-stroke" fill="context-fill"/>
  <path d="M9.5 5a.5.5 0 0 0-.5.5V9H5.5a.5.5 0 0 0 0 1H9v3.5a.5.5 0 0 0 1 0V10h3.5a.5.5 0 0 0 0-1H10V5.5a.5.5 0 0 0-.5-.5Z" fill="context-stroke"/>
</svg>
