<!-- This Source Code Form is subject to the terms of the Mozilla Public
   - License, v. 2.0. If a copy of the MPL was not distributed with this
   - file, You can obtain one at http://mozilla.org/MPL/2.0/. -->
<svg xmlns="http://www.w3.org/2000/svg" fill-opacity="context-fill-opacity" viewBox="0 0 20 20">
  <path d="M5.5 2h9c.831 0 1.5.669 1.5 1.5v13c0 .831-.669 1.5-1.5 1.5h-9c-.831 0-1.5-.669-1.5-1.5v-13C4 2.669 4.669 2 5.5 2Z" fill="context-fill"/>
  <path d="M5.5 1a2.508 2.508 0 0 0-2.45 2H2.5a.499.499 0 1 0 0 1H3v2h-.5a.499.499 0 1 0 0 1H3v2h-.5a.499.499 0 1 0 0 1H3v2h-.5a.499.499 0 1 0 0 1H3v2h-.5a.499.499 0 1 0 0 1H3v.5C3 17.876 4.124 19 5.5 19h9c1.376 0 2.5-1.124 2.5-2.5v-13C17 2.124 15.876 1 14.5 1h-9zm0 1h9c.84 0 1.5.66 1.5 1.5v13c0 .84-.66 1.5-1.5 1.5h-9c-.84 0-1.5-.66-1.5-1.5V16h.5a.499.499 0 1 0 0-1H4v-2h.5a.499.499 0 1 0 0-1H4v-2h.5a.499.499 0 1 0 0-1H4V7h.5a.499.499 0 1 0 0-1H4V4h.5a.499.499 0 1 0 0-1h-.416c.202-.587.752-1 1.416-1zm4.496 3A3.008 3.008 0 0 0 7 8.002a.5.5 0 0 0 0 .002c.004.765.358 1.448.873 1.996H7.5c-.822 0-1.5.678-1.5 1.5v2a.5.5 0 0 0 .5.5.5.5 0 0 0 .5-.5v-2c0-.286.214-.5.5-.5h1a.5.5 0 0 0 .5-.5v-.51a.5.5 0 0 0-.2-.4A1.998 1.998 0 0 1 8 8.002V8c0-1.109.887-1.998 1.996-2A1.994 1.994 0 0 1 12 7.996v.002a1.999 1.999 0 0 1-.8 1.592.5.5 0 0 0-.2.4v.51a.5.5 0 0 0 .5.5h1c.286 0 .5.214.5.5v2a.5.5 0 0 0 .5.5.5.5 0 0 0 .5-.5v-2c0-.822-.678-1.5-1.5-1.5h-.373c.516-.549.87-1.233.873-1.998A.5.5 0 0 0 13 8v-.006a.5.5 0 0 0 0-.002A3.006 3.006 0 0 0 9.996 5z" fill="context-stroke"/>
</svg>
