<!-- This Source Code Form is subject to the terms of the Mozilla Public
   - License, v. 2.0. If a copy of the MPL was not distributed with this
   - file, You can obtain one at http://mozilla.org/MPL/2.0/. -->
<svg width="28" height="28" viewBox="0 0 28 28" xmlns="http://www.w3.org/2000/svg">
  <path d="M26 25V3C26 1.34315 24.6569 0 23 0H4.99999C3.34314 0 2 1.34315 2 3V25C2 26.6569 3.34314 28 4.99999 28H23C24.6569 28 26 26.6569 26 25Z" fill="url(#paint0_linear_463_1617)"/>
  <path d="M2 21V23C2 24.662 3.338 26 5 26H23C24.662 26 26 24.662 26 23V21C26 22.662 24.662 24 23 24H5C3.338 24 2 22.662 2 21Z" fill="#F9F9FA"/>
  <path d="M2 3V23H3C4.10457 23 5 22.1046 5 21C5 19.8954 4.10457 19 3 19C4.10457 19 5 18.1046 5 17C5 15.8954 4.10457 15 3 15C4.10457 15 5 14.1046 5 13C5 11.8954 4.10457 11 3 11C4.10457 11 5 10.1046 5 9C5 7.89543 4.10457 7 3 7C4.10457 7 5 6.10457 5 5C5 3.89543 4.10457 3 3 3H2ZM2 23V25C2 26.662 3.338 28 5 28H23C24.662 28 26 26.662 26 25V23C26 24.662 24.662 26 23 26H5C3.338 26 2 24.662 2 23Z" opacity="0.15" fill="black"/>
  <path d="M1 3.99989C0.470171 4.02649 0.0507812 4.46321 0.0507812 4.99989C0.0507812 5.55389 0.496781 5.99989 1.05078 5.99989H3.05078C3.60478 5.99989 4.05078 5.55389 4.05078 4.99989C4.05078 4.44589 3.60478 3.99989 3.05078 3.99989H1.05078C1.03346 3.99989 1.01709 3.99903 1 3.99989ZM1 7.99989C0.470171 8.02649 0.0507812 8.46321 0.0507812 8.99989C0.0507812 9.55389 0.496781 9.99989 1.05078 9.99989H3.05078C3.60478 9.99989 4.05078 9.55389 4.05078 8.99989C4.05078 8.44589 3.60478 7.99989 3.05078 7.99989H1.05078C1.03346 7.99989 1.01709 7.99903 1 7.99989ZM1 11.9999C0.470171 12.0265 0.0507812 12.4632 0.0507812 12.9999C0.0507812 13.5539 0.496781 13.9999 1.05078 13.9999H3.05078C3.60478 13.9999 4.05078 13.5539 4.05078 12.9999C4.05078 12.4459 3.60478 11.9999 3.05078 11.9999H1.05078C1.03346 11.9999 1.01709 11.999 1 11.9999ZM1 15.9999C0.470171 16.0265 0.0507812 16.4632 0.0507812 16.9999C0.0507812 17.5539 0.496781 17.9999 1.05078 17.9999H3.05078C3.60478 17.9999 4.05078 17.5539 4.05078 16.9999C4.05078 16.4459 3.60478 15.9999 3.05078 15.9999H1.05078C1.03346 15.9999 1.01709 15.999 1 15.9999ZM1 19.9999C0.470171 20.0265 0.0507812 20.4632 0.0507812 20.9999C0.0507812 21.5539 0.496781 21.9999 1.05078 21.9999H3.05078C3.60478 21.9999 4.05078 21.5539 4.05078 20.9999C4.05078 20.4459 3.60478 19.9999 3.05078 19.9999H1.05078C1.03346 19.9999 1.01709 19.999 1 19.9999Z" fill="url(#paint1_linear_463_1617)"/>
  <path d="M15 6C13.2778 6 11.9264 6.62429 11.1055 7.60938C10.2846 8.59446 10 9.83334 10 11C10 12.7222 10.5969 13.9726 11.2188 14.75C11.5821 15.2042 11.7352 15.2352 12 15.418V16H11C9.3553 16 8 17.3553 8 19V21C8 21.2652 8.10536 21.5196 8.29289 21.7072C8.48043 21.8947 8.73478 22 9 22C9.26522 22 9.5196 21.8947 9.7071 21.7072C9.8946 21.5196 10 21.2652 10 21V19C10 18.4287 10.4287 18 11 18H13C13.2652 18 13.5195 17.8946 13.7071 17.707C13.8946 17.5195 14 17.2652 14 17V15C13.9998 14.8141 13.9478 14.6319 13.8499 14.4739C13.7519 14.3159 13.6118 14.1883 13.4453 14.1055C13.4453 14.1055 13.1594 13.9727 12.7812 13.5C12.4031 13.0274 12 12.2778 12 11C12 10.1667 12.2154 9.40554 12.6445 8.89062C13.0736 8.37573 13.7222 8 15 8C16.2778 8 16.9264 8.37573 17.3555 8.89062C17.7846 9.40554 18 10.1667 18 11C18 12.2778 17.5969 13.0274 17.2188 13.5C16.8406 13.9726 16.5547 14.1055 16.5547 14.1055C16.3882 14.1883 16.2481 14.3159 16.1501 14.4739C16.0522 14.6319 16.0002 14.8141 16 15V17C16 17.2652 16.1054 17.5195 16.2929 17.707C16.4805 17.8946 16.7348 18 17 18H19C19.5713 18 20 18.4287 20 19V21C20 21.2652 20.1054 21.5196 20.2929 21.7072C20.4804 21.8947 20.7348 22 21 22C21.2652 22 21.5196 21.8947 21.7071 21.7072C21.8946 21.5196 22 21.2652 22 21V19C22 17.3553 20.6447 16 19 16H18V15.418C18.2648 15.2352 18.4179 15.2042 18.7812 14.75C19.4031 13.9726 20 12.7222 20 11C20 9.83334 19.7154 8.59446 18.8945 7.60938C18.0736 6.62429 16.7222 6 15 6Z" opacity="0.3" fill="white"/>
  <path d="M15 4C13.2778 4 11.9264 4.62429 11.1055 5.60937C10.2846 6.59445 10 7.83334 10 9C10 10.7222 10.5969 11.9726 11.2188 12.75C11.5821 13.2042 11.7352 13.2351 12 13.4179V14H11C9.3553 14 8 15.3553 8 17V19C8 19.2652 8.10536 19.5196 8.29289 19.7071C8.48043 19.8946 8.73478 20 9 20C9.26522 20 9.5196 19.8946 9.7071 19.7071C9.8946 19.5196 10 19.2652 10 19V17C10 16.4287 10.4287 16 11 16H13C13.2652 15.9999 13.5195 15.8945 13.7071 15.707C13.8946 15.5195 14 15.2652 14 15V13C13.9998 12.814 13.9478 12.6318 13.8499 12.4738C13.7519 12.3158 13.6118 12.1882 13.4453 12.1054C13.4453 12.1054 13.1594 11.9726 12.7812 11.5C12.4031 11.0273 12 10.2777 12 9C12 8.16668 12.2154 7.40554 12.6445 6.89062C13.0736 6.37572 13.7222 6 15 6C16.2778 6 16.9264 6.37572 17.3555 6.89062C17.7846 7.40554 18 8.16666 18 9C18 10.2777 17.5969 11.0273 17.2188 11.5C16.8406 11.9726 16.5547 12.1054 16.5547 12.1054C16.3882 12.1882 16.2481 12.3158 16.1501 12.4738C16.0522 12.6318 16.0002 12.814 16 13V15C16 15.2652 16.1054 15.5195 16.2929 15.707C16.4805 15.8945 16.7348 15.9999 17 16H19C19.5713 16 20 16.4287 20 17V19C20 19.2652 20.1054 19.5196 20.2929 19.7071C20.4804 19.8946 20.7348 20 21 20C21.2652 20 21.5196 19.8946 21.7071 19.7071C21.8946 19.5196 22 19.2652 22 19V17C22 15.3553 20.6447 14 19 14H18V13.4179C18.2648 13.2351 18.4179 13.2042 18.7812 12.75C19.4031 11.9726 20 10.7222 20 9C20 7.83334 19.7154 6.59445 18.8945 5.60937C18.0736 4.62429 16.7222 4 15 4Z" fill="url(#paint2_linear_463_1617)"/>
  <defs>
    <linearGradient id="paint0_linear_463_1617" x1="14" y1="28" x2="14" y2="0" gradientUnits="userSpaceOnUse">
      <stop stop-color="#D7BC96"/>
      <stop offset="1" stop-color="#EFDFC4"/>
    </linearGradient>
    <linearGradient id="paint1_linear_463_1617" x1="0.0436713" y1="13.0425" x2="4.04233" y2="13.0425" gradientUnits="userSpaceOnUse">
      <stop stop-color="#D7D7DB"/>
      <stop offset="0.5" stop-color="white"/>
      <stop offset="1" stop-color="#D7D7DB"/>
    </linearGradient>
    <linearGradient id="paint2_linear_463_1617" x1="14" y1="4.00024" x2="14" y2="20.0002" gradientUnits="userSpaceOnUse">
      <stop stop-color="#96764B"/>
      <stop offset="1" stop-color="#725534"/>
    </linearGradient>
  </defs>
</svg>
