<!-- This Source Code Form is subject to the terms of the Mozilla Public
   - License, v. 2.0. If a copy of the MPL was not distributed with this
   - file, You can obtain one at http://mozilla.org/MPL/2.0/. -->
<svg xmlns="http://www.w3.org/2000/svg" fill-opacity="context-fill-opacity" viewBox="0 0 20 20" height="20" width="20">
  <path d="M5.5 3A2.495 2.495 0 0 0 3 5.5v9C3 15.885 4.115 17 5.5 17h9c1.385 0 2.5-1.115 2.5-2.5v-9C17 4.115 15.885 3 14.5 3ZM14 5h.5c.277 0 .5.223.5.5V7h-1.473c0 1.657-1.87 3-3.527 3S6.479 8.657 6.479 7H5V5.5c0-.277.223-.5.5-.5H6Z" fill="context-fill"/>
  <path d="M5.5 2C3.57 2 2 3.57 2 5.5v9C2 16.43 3.57 18 5.5 18h9c1.93 0 3.5-1.57 3.5-3.5v-9C18 3.57 16.43 2 14.5 2Zm0 1h9C15.894 3 17 4.106 17 5.5V7h-1V5.5c0-.822-.678-1.5-1.5-1.5h-9C4.678 4 4 4.678 4 5.5V7H3V5.5C3 4.106 4.106 3 5.5 3Zm0 2h9c.286 0 .5.214.5.5V7h-1.496a.5.5 0 0 0-.5.502c.003 1.15-1.327 2.514-3.004 2.514S6.993 8.652 6.996 7.502a.5.5 0 0 0-.5-.502H5V5.5c0-.286.214-.5.5-.5ZM3 8h3.115C6.41 9.632 8.01 11.016 10 11.016V12h1v-1h-.63c1.816-.158 3.239-1.47 3.515-3H17v6.5c0 1.394-1.106 2.5-2.5 2.5H10v-1H9v1H5.5A2.484 2.484 0 0 1 3 14.5Zm7 8h1v-1h-1zm0-1v-1H9v1zm0-1h1v-1h-1zm0-1v-1H9v1z" fill="context-stroke"/>
</svg>
