<!-- This Source Code Form is subject to the terms of the Mozilla Public
   - License, v. 2.0. If a copy of the MPL was not distributed with this
   - file, You can obtain one at http://mozilla.org/MPL/2.0/. -->
<svg xmlns="http://www.w3.org/2000/svg" fill-opacity="context-fill-opacity" viewBox="0 0 20 20" height="20" width="20">
  <path d="M5.5 2.5c-1.394 0-3 1.606-3 3v1h15v-1c0-1.394-1.606-3-3-3zm.467 7c-.259 0-.467.223-.467.5v2c0 .277.208.5.467.5h2.066c.259 0 .467-.223.467-.5v-2c0-.277-.208-.5-.467-.5Zm6 2c-.259 0-.467.223-.467.5v2c0 .277.208.5.467.5h2.066c.259 0 .467-.223.467-.5v-2c0-.277-.208-.5-.467-.5z" fill="context-fill"/>
  <path d="M5.5 2C3.57 2 2 3.57 2 5.5v9C2 16.43 3.57 18 5.5 18h9c1.93 0 3.5-1.57 3.5-3.5v-9C18 3.57 16.43 2 14.5 2Zm0 1h9C15.894 3 17 4.106 17 5.5V6h-3v-.5a.5.5 0 0 0-.5-.5.5.5 0 0 0-.5.5V6H7v-.5a.5.5 0 0 0-.5-.5.5.5 0 0 0-.5.5V6H3v-.5C3 4.106 4.106 3 5.5 3ZM3 7h3v.5a.5.5 0 0 0 .5.5.5.5 0 0 0 .5-.5V7h6v.5a.5.5 0 0 0 .5.5.5.5 0 0 0 .5-.5V7h3v7.5c0 1.393-1.106 2.5-2.5 2.5h-9A2.484 2.484 0 0 1 3 14.5Zm2.967 2C5.421 9 5 9.472 5 10v2c0 .527.42 1 .967 1h2.066c.546 0 .967-.473.967-1v-2c0-.528-.42-1-.967-1ZM10.5 9a.5.5 0 1 0 0 1h4a.5.5 0 1 0 0-1zM6 10h2v2H6Zm5.967 1c-.546 0-.967.472-.967 1v2c0 .527.42 1 .967 1h2.066c.546 0 .967-.473.967-1v-2c0-.528-.42-1-.967-1zM12 12h2v2h-2zm-6.5 2a.5.5 0 1 0 0 1h4a.5.5 0 1 0 0-1z" fill="context-stroke"/>
</svg>
