<!-- This Source Code Form is subject to the terms of the Mozilla Public
   - License, v. 2.0. If a copy of the MPL was not distributed with this
   - file, You can obtain one at http://mozilla.org/MPL/2.0/. -->
<svg xmlns="http://www.w3.org/2000/svg" fill-opacity="context-fill-opacity" viewBox="0 0 20 20">
  <path d="M5.5 2C3.57 2 2 3.57 2 5.5v9C2 16.43 3.57 18 5.5 18h9c1.93 0 3.5-1.57 3.5-3.5v-9C18 3.57 16.43 2 14.5 2h-9zm0 1h9C15.894 3 17 4.106 17 5.5V6h-3v-.5a.5.5 0 0 0-.5-.5.5.5 0 0 0-.5.5V6H7v-.5a.5.5 0 0 0-.5-.5.5.5 0 0 0-.5.5V6H3v-.5C3 4.106 4.106 3 5.5 3zM3 7h3v.5a.5.5 0 0 0 .5.5.5.5 0 0 0 .5-.5V7h6v.5a.5.5 0 0 0 .5.5.5.5 0 0 0 .5-.5V7h3v7.5c0 1.394-1.106 2.5-2.5 2.5h-9A2.484 2.484 0 0 1 3 14.5V7zm2.5 2a.5.5 0 1 0 0 1h1a.5.5 0 1 0 0-1h-1zm4 0a.5.5 0 1 0 0 1h1a.5.5 0 0 0 0-1h-1zm4 0a.5.5 0 0 0 0 1h1a.5.5 0 0 0 0-1h-1zm-8 2a.5.5 0 0 0 0 1h1a.5.5 0 0 0 0-1h-1zm4 0a.5.5 0 0 0 0 1h1a.5.5 0 0 0 0-1h-1zm4 0a.5.5 0 0 0 0 1h1a.5.5 0 0 0 0-1h-1zm-8 2a.5.5 0 0 0 0 1h1a.5.5 0 0 0 0-1h-1zm4 0a.5.5 0 0 0 0 1h1a.5.5 0 0 0 0-1h-1zm4 0a.5.5 0 0 0 0 1h1a.5.5 0 0 0 0-1h-1z" fill="context-stroke"/>
  <path d="M5.5 3A2.484 2.484 0 0 0 3 5.5V6h14v-.5C17 4.106 15.894 3 14.5 3Z" fill="context-fill"/>
</svg>

