<!-- This Source Code Form is subject to the terms of the Mozilla Public
   - License, v. 2.0. If a copy of the MPL was not distributed with this
   - file, You can obtain one at http://mozilla.org/MPL/2.0/. -->
<svg width="28" height="28" viewBox="0 0 28 28" xmlns="http://www.w3.org/2000/svg">
  <path d="M22 0H5.99999C2.68629 0 0 2.6863 0 6V22C0 25.3137 2.68629 28 5.99999 28H22C25.3137 28 28 25.3137 28 22V6C28 2.6863 25.3137 0 22 0Z" fill="#F9F9FA"/>
  <path d="M5.99999 0H22C25.324 0 28 2.676 28 6V8C22 8 10 8 0 8V6C0 2.676 2.676 0 5.99999 0Z" fill="url(#paint0_linear_463_1624)"/>
  <path d="M7 5C5.89372 5 5 5.89372 5 7V8H0V9H5C5 10.1063 5.89372 11 7 11C8.10629 11 9 10.1063 9 9H19C19 10.1063 19.8937 11 21 11C22.1063 11 23 10.1063 23 9H28V8H23V7C23 5.89372 22.1063 5 21 5C19.8937 5 19 5.89372 19 7V8H9V7C9 5.89372 8.10629 5 7 5ZM21 6C21.554 6 22 6.446 22 7V8H20V7C20 6.446 20.446 6 21 6ZM5 12C4.44772 12 4 12.4477 4 13C4 13.5523 4.44772 14 5 14H7C7.55228 14 8 13.5523 8 13C8 12.4477 7.55228 12 7 12H5ZM13 12C12.4477 12 12 12.4477 12 13C12 13.5523 12.4477 14 13 14H15C15.5523 14 16 13.5523 16 13C16 12.4477 15.5523 12 15 12H13ZM21 12C20.4477 12 20 12.4477 20 13C20 13.5523 20.4477 14 21 14H23C23.5523 14 24 13.5523 24 13C24 12.4477 23.5523 12 23 12H21ZM5 16C4.44772 16 4 16.4477 4 17C4 17.5523 4.44772 18 5 18H7C7.55228 18 8 17.5523 8 17C8 16.4477 7.55228 16 7 16H5ZM13 16C12.4477 16 12 16.4477 12 17C12 17.5523 12.4477 18 13 18H15C15.5523 18 16 17.5523 16 17C16 16.4477 15.5523 16 15 16H13ZM21 16C20.4477 16 20 16.4477 20 17C20 17.5523 20.4477 18 21 18H23C23.5523 18 24 17.5523 24 17C24 16.4477 23.5523 16 23 16H21ZM0 20V22C0 25.324 2.676 28 6 28H22C25.324 28 28 25.324 28 22V20C28 23.324 25.324 26 22 26H6C2.676 26 0 23.324 0 20ZM5 20C4.44772 20 4 20.4477 4 21C4 21.5523 4.44772 22 5 22H7C7.55228 22 8 21.5523 8 21C8 20.4477 7.55228 20 7 20H5ZM13 20C12.4477 20 12 20.4477 12 21C12 21.5523 12.4477 22 13 22H15C15.5523 22 16 21.5523 16 21C16 20.4477 15.5523 20 15 20H13ZM21 20C20.4477 20 20 20.4477 20 21C20 21.5523 20.4477 22 21 22H23C23.5523 22 24 21.5523 24 21C24 20.4477 23.5523 20 23 20H21Z" opacity="0.15" fill="black"/>
  <path d="M7 6C6.446 6 6 6.446 6 7V9C6 9.554 6.446 10 7 10C7.554 10 8 9.554 8 9V7C8 6.446 7.554 6 7 6ZM21 6C20.446 6 20 6.446 20 7V9C20 9.554 20.446 10 21 10C21.554 10 22 9.554 22 9V7C22 6.446 21.554 6 21 6Z" fill="url(#paint1_linear_463_1624)"/>
  <defs>
    <linearGradient id="paint0_linear_463_1624" x1="14" y1="8" x2="14" y2="0" gradientUnits="userSpaceOnUse">
      <stop stop-color="#D70022"/>
      <stop offset="1" stop-color="#FF555F"/>
    </linearGradient>
    <linearGradient id="paint1_linear_463_1624" x1="14" y1="6" x2="14" y2="10" gradientUnits="userSpaceOnUse">
      <stop stop-color="#D7D7DB"/>
      <stop offset="0.5" stop-color="white"/>
      <stop offset="1" stop-color="#D7D7DB"/>
    </linearGradient>
  </defs>
</svg>
