<!-- This Source Code Form is subject to the terms of the Mozilla Public
   - License, v. 2.0. If a copy of the MPL was not distributed with this
   - file, You can obtain one at http://mozilla.org/MPL/2.0/. -->
<svg xmlns="http://www.w3.org/2000/svg" fill-opacity="context-fill-opacity" viewBox="0 0 20 20">
  <path d="M4.5 1C2.57 1 1 2.57 1 4.5v4C1 10.43 2.57 12 4.5 12H5v3.5a.5.5 0 0 0 .854.354L6.707 15h3.586l3.853 3.854A.5.5 0 0 0 15 18.5V15h.5c1.93 0 3.5-1.57 3.5-3.5v-4a3.503 3.503 0 0 0-3.033-3.467A3.503 3.503 0 0 0 12.5 1Zm0 1h8C13.894 2 15 3.106 15 4.5v4c0 1.394-1.106 2.5-2.5 2.5h-3a.5.5 0 0 0-.354.146L6 14.293V11.5a.5.5 0 0 0-.5-.5h-1A2.484 2.484 0 0 1 2 8.5v-4C2 3.106 3.106 2 4.5 2ZM16 5.049A2.48 2.48 0 0 1 18 7.5v4c0 1.394-1.106 2.5-2.5 2.5h-1a.5.5 0 0 0-.5.5v2.793l-3.146-3.147A.5.5 0 0 0 10.5 14H7.707l2-2H12.5c1.93 0 3.5-1.57 3.5-3.5ZM5.5 6a.5.5 0 0 0-.5.5.5.5 0 0 0 .5.5.5.5 0 0 0 .5-.5.5.5 0 0 0-.5-.5Zm2 0a.5.5 0 1 0 0 1h2a.5.5 0 1 0 0-1zm4 0a.5.5 0 0 0-.5.5.5.5 0 0 0 .5.5.5.5 0 0 0 .5-.5.5.5 0 0 0-.5-.5Z" fill="context-stroke"/>
  <path d="M16 5.049A2.48 2.48 0 0 1 18 7.5v4c0 1.394-1.106 2.5-2.5 2.5h-1a.5.5 0 0 0-.5.5v2.793l-3.146-3.147A.5.5 0 0 0 10.5 14H7.707l2-2H12.5c1.93 0 3.5-1.57 3.5-3.5Z" fill="context-fill"/>
</svg>
