<!-- This Source Code Form is subject to the terms of the Mozilla Public
   - License, v. 2.0. If a copy of the MPL was not distributed with this
   - file, You can obtain one at http://mozilla.org/MPL/2.0/. -->
<svg xmlns="http://www.w3.org/2000/svg" fill-opacity="context-fill-opacity" viewBox="0 0 20 20" width="20" height="20">
  <path d="M12.5 2.527A3.987 3.987 0 0 0 9.396 4 3.997 3.997 0 0 0 7.5 3.527a3.992 3.992 0 0 0-3.908 3.137A2.964 2.964 0 0 0 1.5 9.494v.067c0 1.643 1.338 2.966 3 2.966H9V10.5c0-.831.669-1.5 1.5-1.5s1.5.669 1.5 1.5v2.027h3.5c1.662 0 3-1.323 3-2.966v-.067a2.96 2.96 0 0 0-2-2.795v-.172c0-2.216-1.784-4-4-4z" fill="context-fill"/>
  <path d="M12.5 2.027c-1.284 0-2.404.582-3.223 1.444-.554-.242-1.136-.444-1.777-.444-2.082 0-3.81 1.423-4.322 3.348C1.925 6.902 1 8.062 1 9.495v.066c0 1.915 1.573 3.466 3.5 3.466h4a.5.5 0 0 0 .5-.5.5.5 0 0 0-.5-.5h-4c-1.397 0-2.5-1.094-2.5-2.466v-.067a2.46 2.46 0 0 1 1.74-2.353.5.5 0 0 0 .34-.37A3.487 3.487 0 0 1 7.5 4.027c.604 0 1.168.15 1.66.414a.5.5 0 0 0 .625-.125A3.48 3.48 0 0 1 12.5 3.027c1.948 0 3.5 1.553 3.5 3.5V6.7a.5.5 0 0 0 .336.473A2.452 2.452 0 0 1 18 9.494v.067c0 1.372-1.103 2.466-2.5 2.466h-3a.5.5 0 0 0-.5.5.5.5 0 0 0 .5.5h3c1.927 0 3.5-1.551 3.5-3.466v-.067c0-1.364-.855-2.463-2.012-3.027a4.495 4.495 0 0 0-4.488-4.44zM10.5 10a.5.5 0 0 0-.5.5v6.793l-3.146-3.147a.5.5 0 1 0-.708.708l4 4 .03.019c.03.026.064.048.1.066a.5.5 0 0 0 .225.06.5.5 0 0 0 .323-.126.438.438 0 0 0 .03-.02l4-4a.5.5 0 1 0-.708-.707L11 17.293V10.5a.5.5 0 0 0-.5-.5z" fill="context-stroke"/>
</svg>
