<!-- This Source Code Form is subject to the terms of the Mozilla Public
   - License, v. 2.0. If a copy of the MPL was not distributed with this
   - file, You can obtain one at http://mozilla.org/MPL/2.0/. -->
<svg xmlns="http://www.w3.org/2000/svg" viewbox="0 0 20 20" width="20" height="20" fill-opacity="context-fill-opacity">
  <path d="M10.5 3a.5.5 0 0 0-.5.5v7.793L6.854 8.146A.5.5 0 0 0 6.5 8a.5.5 0 0 0-.354.146.5.5 0 0 0 0 .708l4 4A.5.5 0 0 0 10.5 13a.5.5 0 0 0 .354-.146l4-4a.5.5 0 0 0 0-.708.5.5 0 0 0-.708 0L11 11.293V3.5a.5.5 0 0 0-.5-.5zm-6 9a.5.5 0 0 0-.5.5V14c0 1.1.9 2 2 2h9c1.1 0 2-.9 2-2v-1.5a.5.5 0 0 0-.5-.5.5.5 0 0 0-.5.5V14c0 .563-.437 1-1 1H6c-.563 0-1-.437-1-1v-1.5a.5.5 0 0 0-.5-.5z" fill="context-stroke"/>
</svg>
