<!-- This Source Code Form is subject to the terms of the Mozilla Public
   - License, v. 2.0. If a copy of the MPL was not distributed with this
   - file, You can obtain one at http://mozilla.org/MPL/2.0/. -->
<svg xmlns="http://www.w3.org/2000/svg" fill-opacity="context-fill-opacity" viewBox="0 0 20 20" height="20" width="20">
  <path d="M3 3.5h5.5l2 3h6c1.108 0 2 .892 2 2v6c0 1.108-.892 2-2 2h-13c-1.108 0-2-.892-2-2V5C1.5 4 2 3.5 3 3.5Z" fill="context-fill"/>
  <path d="M3 3c-.583 0-1.11.153-1.479.521C1.154 3.889 1 4.416 1 5v9.5C1 15.876 2.124 17 3.5 17h13c1.376 0 2.5-1.124 2.5-2.5v-8C19 5.123 17.876 4 16.5 4h-7a.5.5 0 0 0-.059.011l-.525-.789A.5.5 0 0 0 8.5 3Zm0 1h5.232l1.852 2.777A.5.5 0 0 0 10.5 7h6c.84 0 1.5.66 1.5 1.5v6c0 .84-.66 1.5-1.5 1.5h-13c-.84 0-1.5-.66-1.5-1.5V7h3.5a.5.5 0 0 0 .5-.5.5.5 0 0 0-.5-.5H2V5c0-.417.096-.64.229-.772C2.361 4.096 2.583 4 3 4Zm7.102 1H16.5c.84 0 1.5.66 1.5 1.5v.006A2.482 2.482 0 0 0 16.5 6h-5.732z" fill="context-stroke"/>
</svg>
