<!-- This Source Code Form is subject to the terms of the Mozilla Public
   - License, v. 2.0. If a copy of the MPL was not distributed with this
   - file, You can obtain one at http://mozilla.org/MPL/2.0/. -->
<svg xmlns="http://www.w3.org/2000/svg" fill-opacity="context-fill-opacity" viewBox="0 0 20 20" height="20" width="20">
  <path d="M3 3.5C2 3.5 1.5 4 1.5 5v9.5c0 1.108.892 2 2 2H11v-.857A4 4 0 0 1 14 9c2.21 0 4 1.5 4 3.5l.5.5V8.5c0-1.108-.892-2-2-2h-6l-2-3z" fill="context-fill"/>
  <path d="M3 3c-.583 0-1.11.154-1.479.521C1.154 3.89 1 4.417 1 5v9.5C1 15.876 2.124 17 3.5 17h7a.5.5 0 0 0 .5-.5.5.5 0 0 0-.5-.5h-7c-.84 0-1.5-.66-1.5-1.5V7h3.5a.5.5 0 0 0 .5-.5.5.5 0 0 0-.5-.5H2V5c0-.417.096-.64.229-.771C2.36 4.096 2.583 4 3 4h5.232l1.852 2.777A.5.5 0 0 0 10.5 7h6c.84 0 1.5.66 1.5 1.5v4a.5.5 0 0 0 .5.5.5.5 0 0 0 .5-.5v-6C19 5.124 17.876 4 16.5 4h-7a.5.5 0 0 0-.059.012l-.525-.79A.5.5 0 0 0 8.5 3Zm7.102 2H16.5c.84 0 1.5.66 1.5 1.5v.006A2.482 2.482 0 0 0 16.5 6h-5.732ZM14 10c-1.65 0-3 1.35-3 3s1.35 3 3 3a2.98 2.98 0 0 0 1.736-.557l2.41 2.41a.5.5 0 0 0 .708 0 .5.5 0 0 0 0-.707l-2.41-2.41c.35-.49.556-1.09.556-1.736 0-1.65-1.35-3-3-3Zm0 1c1.11 0 2 .89 2 2 0 1.11-.89 2-2 2-1.11 0-2-.89-2-2 0-1.11.89-2 2-2z" fill="context-stroke"/>
</svg>
