<!-- This Source Code Form is subject to the terms of the Mozilla Public
   - License, v. 2.0. If a copy of the MPL was not distributed with this
   - file, You can obtain one at http://mozilla.org/MPL/2.0/. -->
<svg xmlns="http://www.w3.org/2000/svg" fill-opacity="context-fill-opacity" viewBox="0 0 20 20" height="20" width="20">
  <path d="M3 3.5C2 3.5 1.5 4 1.5 5v9.5c0 1.108.892 2 2 2H10V11c0-1.108.892-2 2-2h5c.6 0 1.134.263 1.5.678V8.5c0-1.108-.892-2-2-2h-6l-2-3zm10 11a1.5 1.5 0 0 0-1.5 1.5 1.5 1.5 0 0 0 1.5 1.5 1.5 1.5 0 0 0 1.5-1.5 1.5 1.5 0 0 0-1.5-1.5Z" fill="context-fill"/>
  <path d="M3 3c-.583 0-1.11.154-1.479.521C1.154 3.89 1 4.417 1 5v9.5C1 15.876 2.124 17 3.5 17h6a.5.5 0 0 0 0-1h-6c-.84 0-1.5-.66-1.5-1.5V7h3.5a.5.5 0 1 0 0-1H2V5c0-.417.096-.64.229-.771C2.36 4.096 2.583 4 3 4h5.232l1.852 2.777A.5.5 0 0 0 10.5 7h6c.84 0 1.5.66 1.5 1.5v1.004a.5.5 0 0 0 1 0V6.5C19 5.124 17.876 4 16.5 4h-7a.5.5 0 0 0-.059.012l-.525-.79A.5.5 0 0 0 8.5 3Zm7.102 2H16.5c.84 0 1.5.66 1.5 1.5v.006A2.482 2.482 0 0 0 16.5 6h-5.732Zm1.398 5a.5.5 0 0 0-.5.5.5.5 0 0 0 .5.5H13c2.767 0 5 2.233 5 5v1.5a.5.5 0 0 0 .5.5.5.5 0 0 0 .5-.5V16c0-3.308-2.692-6-6-6zm0 2a.5.5 0 0 0-.5.5.5.5 0 0 0 .5.5H13c1.674 0 3 1.261 3 3v1.5a.5.5 0 0 0 .5.5.5.5 0 0 0 .5-.5V16c0-2.261-1.808-4-4-4zm1.5 2c-1.099 0-2 .901-2 2s.901 2 2 2 2-.901 2-2-.901-2-2-2zm0 1c.558 0 1 .442 1 1s-.442 1-1 1-1-.442-1-1 .442-1 1-1z" fill="context-stroke"/>
</svg>
