<!-- This Source Code Form is subject to the terms of the Mozilla Public
   - License, v. 2.0. If a copy of the MPL was not distributed with this
   - file, You can obtain one at http://mozilla.org/MPL/2.0/. -->
<svg xmlns="http://www.w3.org/2000/svg" fill-opacity="context-fill-opacity" viewBox="0 0 20 20" height="20" width="20">
  <path d="M9.5 1.5a8 8 0 0 0-8 8 8 8 0 0 0 8 8 8 8 0 0 0 .5-.035V14.5c0-.78.434-1.393 1-1.852V12.5c0-2.472 2.028-4.5 4.5-4.5.689 0 1.342.157 1.928.438A8 8 0 0 0 9.5 1.5Zm3 12.5c-.277 0-.5.223-.5.5v3c0 .277.223.5.5.5h6c.277 0 .5-.223.5-.5v-3c0-.277-.223-.5-.5-.5Z" fill="context-fill"/>
  <path d="M9.5 1c-.432 0-.855.033-1.27.096l-.007-.012-.02.014a8.52 8.52 0 0 0-7.105 7.105l-.014.02.012.007a8.535 8.535 0 0 0 0 2.54l-.012.007.014.02a8.52 8.52 0 0 0 7.105 7.105l.02.014.007-.012a8.533 8.533 0 0 0 1.817.076A2.478 2.478 0 0 1 10 17.5v-.518a7.353 7.353 0 0 1-1.4-.037c-.238-.202-.687-.647-1.17-1.453a8.951 8.951 0 0 1-.795-1.744c.843.156 1.793.252 2.865.252.194 0 .38-.008.566-.014.104-.396.325-.739.606-1.033A15.91 15.91 0 0 1 9.5 13c-1.23 0-2.277-.13-3.168-.332A14.277 14.277 0 0 1 6 9.5c0-1.23.13-2.278.332-3.168C7.222 6.13 8.27 6 9.5 6c1.23 0 2.277.13 3.168.332.161.71.274 1.522.314 2.445.3-.204.625-.374.971-.502a15.02 15.02 0 0 0-.203-1.64c.704.238 1.28.518 1.742.795.4.239.707.469.944.67a4.477 4.477 0 0 1 1.525.64 8.728 8.728 0 0 0-.057-.51l.012-.007-.014-.02a8.52 8.52 0 0 0-7.105-7.105 24.73 24.73 0 0 1-.02-.014l-.007.012A8.533 8.533 0 0 0 9.5 1Zm0 1c.305 0 .605.02.9.055.238.202.687.647 1.17 1.453.278.462.557 1.039.795 1.744A15.706 15.706 0 0 0 9.5 5c-1.072 0-2.022.096-2.865.252a8.951 8.951 0 0 1 .795-1.744c.483-.806.932-1.25 1.17-1.453.295-.036.595-.055.9-.055Zm-2.572.451a7.864 7.864 0 0 0-.358.541c-.388.647-.771 1.48-1.062 2.52a10.25 10.25 0 0 0-2.516 1.06c-.198.12-.375.239-.54.358a7.502 7.502 0 0 1 4.475-4.48Zm5.144 0A7.502 7.502 0 0 1 16.55 6.93a7.891 7.891 0 0 0-.541-.358 10.269 10.269 0 0 0-2.516-1.06 10.237 10.237 0 0 0-1.062-2.52 7.865 7.865 0 0 0-.358-.54ZM5.25 6.635A15.71 15.71 0 0 0 5 9.5c0 1.073.094 2.024.25 2.867a8.923 8.923 0 0 1-1.742-.795c-.806-.483-1.25-.933-1.453-1.172a7.588 7.588 0 0 1 0-1.798c.202-.238.645-.688 1.453-1.172a8.947 8.947 0 0 1 1.742-.795ZM15.5 9c-1.93 0-3.5 1.57-3.5 3.5v.59c-.58.208-1 .763-1 1.41v3c0 .822.678 1.5 1.5 1.5h6c.822 0 1.5-.678 1.5-1.5v-3c0-.647-.42-1.202-1-1.41v-.59c0-1.93-1.57-3.5-3.5-3.5Zm0 1c1.394 0 2.5 1.106 2.5 2.5v.5h-5v-.5c0-1.394 1.106-2.5 2.5-2.5ZM2.453 12.074c.165.118.342.237.54.356.646.388 1.478.77 2.517 1.06.29 1.039.672 1.871 1.06 2.518.12.198.239.375.358.54a7.505 7.505 0 0 1-4.475-4.474ZM12.5 14h6c.286 0 .5.214.5.5v3c0 .286-.214.5-.5.5h-6a.488.488 0 0 1-.5-.5v-3c0-.286.214-.5.5-.5Z" fill="context-stroke"/>
</svg>
