<!-- This Source Code Form is subject to the terms of the Mozilla Public
   - License, v. 2.0. If a copy of the MPL was not distributed with this
   - file, You can obtain one at http://mozilla.org/MPL/2.0/. -->
<svg xmlns="http://www.w3.org/2000/svg" fill-opacity="context-fill-opacity" viewBox="0 0 20 20" height="20" width="20">
  <path d="M17.5 9.5a8 8 0 0 1-8 8 8 8 0 0 1-8-8 8 8 0 0 1 8-8 8 8 0 0 1 8 8z" fill="context-fill"/>
  <path d="M9.5 1c-.432 0-.855.033-1.27.096l-.007-.012-.02.014a8.52 8.52 0 0 0-7.105 7.105l-.014.02.012.007a8.535 8.535 0 0 0 0 2.54l-.012.007.014.02a8.52 8.52 0 0 0 7.105 7.105l.02.014.007-.012a8.533 8.533 0 0 0 2.54 0l.007.012.02-.014a8.52 8.52 0 0 0 7.105-7.105l.014-.02-.012-.007a8.533 8.533 0 0 0 0-2.54l.012-.007-.014-.02a8.52 8.52 0 0 0-7.105-7.105 24.73 24.73 0 0 1-.02-.014l-.007.012A8.533 8.533 0 0 0 9.5 1Zm0 1c.305 0 .605.02.9.055.238.202.687.647 1.17 1.453.278.462.557 1.039.795 1.744A15.706 15.706 0 0 0 9.5 5c-1.072 0-2.022.096-2.865.252a8.951 8.951 0 0 1 .795-1.744c.483-.806.932-1.25 1.17-1.453.295-.036.595-.055.9-.055Zm-2.572.451a7.864 7.864 0 0 0-.358.541c-.388.647-.771 1.48-1.062 2.52a10.25 10.25 0 0 0-2.516 1.06c-.198.12-.375.239-.54.358a7.502 7.502 0 0 1 4.475-4.48Zm5.144 0A7.502 7.502 0 0 1 16.55 6.93a7.891 7.891 0 0 0-.541-.358 10.269 10.269 0 0 0-2.516-1.06 10.237 10.237 0 0 0-1.062-2.52 7.864 7.864 0 0 0-.358-.54ZM9.5 6c1.23 0 2.277.13 3.168.332.202.89.332 1.938.332 3.168 0 1.23-.13 2.277-.332 3.168-.89.202-1.938.332-3.168.332-1.23 0-2.277-.13-3.168-.332A14.277 14.277 0 0 1 6 9.5c0-1.23.13-2.278.332-3.168C7.222 6.13 8.27 6 9.5 6Zm-4.25.635A15.71 15.71 0 0 0 5 9.5c0 1.073.094 2.024.25 2.867a8.923 8.923 0 0 1-1.742-.795c-.806-.483-1.25-.933-1.453-1.172a7.588 7.588 0 0 1 0-1.798c.202-.238.645-.688 1.453-1.172a8.947 8.947 0 0 1 1.742-.795Zm8.5 0c.704.238 1.28.518 1.742.795.808.484 1.251.934 1.453 1.172.035.294.055.594.055.898 0 .305-.02.605-.055.9-.202.239-.647.689-1.453 1.172a8.923 8.923 0 0 1-1.742.795c.156-.843.25-1.794.25-2.867a15.71 15.71 0 0 0-.25-2.865Zm-11.297 5.44c.165.117.342.236.54.355.646.388 1.478.77 2.517 1.06.29 1.039.672 1.871 1.06 2.518.12.198.239.375.358.54a7.505 7.505 0 0 1-4.475-4.474Zm14.094 0a7.505 7.505 0 0 1-4.475 4.474c.12-.166.239-.343.358-.541.388-.647.77-1.48 1.06-2.518a10.253 10.253 0 0 0 2.518-1.06c.197-.119.374-.238.539-.356zm-9.912 1.673c.843.156 1.793.252 2.865.252 1.072 0 2.022-.096 2.865-.252a8.951 8.951 0 0 1-.795 1.744c-.483.806-.932 1.25-1.17 1.453a7.588 7.588 0 0 1-1.8 0c-.238-.202-.687-.647-1.17-1.453a8.951 8.951 0 0 1-.795-1.744Z" fill="context-stroke"/>
</svg>
