<!-- This Source Code Form is subject to the terms of the Mozilla Public
   - License, v. 2.0. If a copy of the MPL was not distributed with this
   - file, You can obtain one at http://mozilla.org/MPL/2.0/. -->
<svg width="28" height="28" viewBox="0 0 28 28" fill="none" xmlns="http://www.w3.org/2000/svg">
  <path d="M22 0H5.99999C2.68629 0 0 2.6863 0 6V22C0 25.3137 2.68629 28 5.99999 28H22C25.3137 28 28 25.3137 28 22V6C28 2.6863 25.3137 0 22 0Z" fill="#0A84FF"/>
  <path d="M22 2H5.99999C3.79086 2 2 3.79086 2 6V22C2 24.2091 3.79086 26 5.99999 26H22C24.2091 26 26 24.2091 26 22V6C26 3.79086 24.2091 2 22 2Z" fill="url(#paint0_linear_368_1361)"/>
  <path opacity="0.15" d="M21 4H6.99999C5.34314 4 4 5.34315 4 7V13C4 14.6569 5.34314 16 6.99999 16H21C22.6569 16 24 14.6569 24 13V7C24 5.34315 22.6569 4 21 4Z" fill="black"/>
  <path d="M20 6H7.99999C6.89543 6 6 6.89543 6 8V10C6 11.1046 6.89543 12 7.99999 12H20C21.1046 12 22 11.1046 22 10V8C22 6.89543 21.1046 6 20 6Z" fill="#F9F9FA"/>
  <path opacity="0.15" d="M23 8H4.99999C3.34314 8 2 9.34315 2 11V19C2 20.6569 3.34314 22 4.99999 22H23C24.6569 22 26 20.6569 26 19V11C26 9.34315 24.6569 8 23 8Z" fill="black"/>
  <path d="M6 10C4.892 10 4 10.892 4 12V16C4 17.108 4.892 18 6 18H8.35938C8.77204 19.1672 9.53565 20.1782 10.5455 20.8943C11.5554 21.6104 12.762 21.9966 14 22C15.238 21.9966 16.4446 21.6104 17.4545 20.8943C18.4644 20.1782 19.228 19.1672 19.6406 18H22C23.108 18 24 17.108 24 16V12C24 10.892 23.108 10 22 10H14H6Z" fill="#F9F9FA"/>
  <path opacity="0.15" d="M28 15H19C19 17 17 18.9991 14 18.9991C11 18.9991 9 17 9 15C7 15 2.62241 15.016 0 15" stroke="black" stroke-width="2" stroke-linejoin="round"/>
  <path d="M0 16V17L-0.0078125 18C-0.0055989 18 -0.00221584 18 0 18V22C0 25.324 2.676 28 6 28H22C25.324 28 28 25.324 28 22V18V16H19C18.7348 16 18.4805 16.1054 18.2929 16.2929C18.1054 16.4805 18 16.7348 18 17C18 18.3333 16.5557 20 14 20C11.4443 20 10 18.3333 10 17C9.99997 16.7348 9.89461 16.4805 9.70708 16.2929C9.51955 16.1054 9.26521 16 9 16H6H0.0078125H0Z" fill="url(#paint1_linear_368_1361)"/>
  <path opacity="0.15" d="M28 17H19C19 19 17 20.9991 14 20.9991C11 20.9991 9 19 9 17C7 17 2.62241 17.016 0 17" stroke="white" stroke-linejoin="round"/>
  <path opacity="0.15" d="M0 20V22C0 25.324 2.676 28 6 28H22C25.324 28 28 25.324 28 22V20C28 23.324 25.324 26 22 26H6C2.676 26 0 23.324 0 20Z" fill="black"/>
  <defs>
    <linearGradient id="paint0_linear_368_1361" x1="14" y1="2" x2="14" y2="20" gradientUnits="userSpaceOnUse">
      <stop stop-color="#003EAA"/>
      <stop offset="1" stop-color="#0A84FF"/>
    </linearGradient>
    <linearGradient id="paint1_linear_368_1361" x1="14" y1="16" x2="14" y2="28" gradientUnits="userSpaceOnUse">
      <stop stop-color="#0A84FF"/>
      <stop offset="1" stop-color="#45A1FF"/>
    </linearGradient>
  </defs>
</svg>
