<!-- This Source Code Form is subject to the terms of the Mozilla Public
   - License, v. 2.0. If a copy of the MPL was not distributed with this
   - file, You can obtain one at http://mozilla.org/MPL/2.0/. -->
<svg xmlns="http://www.w3.org/2000/svg" fill-opacity="context-fill-opacity" viewBox="0 0 20 20" height="20" width="20">
  <path d="M14.488 1.001a2.559 2.559 0 0 0-1.814.751L9.751 4.676c-1 .999-1 2.629-.001 3.628l.62.619-1.448 1.449-.62-.62c-1-1-2.63-1-3.63 0l-2.921 2.922c-1 1-1 2.631-.001 3.63l1.949 1.948c1 .999 2.63.999 3.63 0l2.921-2.922c1-1 1-2.63 0-3.63l-.62-.62 1.449-1.449.62.62c.998.999 2.63 1 3.63 0l2.923-2.921c1-1 1-2.632 0-3.632l-1.949-1.947c-.5-.499-1.156-.75-1.815-.75Zm-.001.993c.399 0 .8.155 1.109.465l1.947 1.948c.62.62.62 1.593 0 2.214L14.62 9.544a1.55 1.55 0 0 1-2.214 0l-.62-.62 2.068-2.068a.5.5 0 0 0 0-.708.5.5 0 0 0-.352-.148.5.5 0 0 0-.355.148l-2.068 2.069-.622-.622a1.552 1.552 0 0 1-.002-2.215l2.924-2.923c.31-.31.709-.464 1.108-.464Zm-8 8c.399 0 .8.155 1.109.465l.618.62-2.068 2.068a.5.5 0 0 0 0 .708.5.5 0 0 0 .708 0l2.069-2.068.62.619c.62.62.621 1.597 0 2.218l-2.92 2.921c-.62.62-1.598.621-2.219.001l-1.948-1.948a1.556 1.556 0 0 1 .001-2.218L5.38 10.46a1.56 1.56 0 0 1 1.107-.465Z" fill="context-stroke"/>
</svg>

