<!-- This Source Code Form is subject to the terms of the Mozilla Public
   - License, v. 2.0. If a copy of the MPL was not distributed with this
   - file, You can obtain one at http://mozilla.org/MPL/2.0/. -->
<svg xmlns="http://www.w3.org/2000/svg" fill-opacity="context-fill-opacity" viewBox="0 0 20 20" height="20" width="20">
  <path fill-opacity="1" d="M3.5 4C2.669 4 2 4.669 2 5.5v9c0 .831.669 1.5 1.5 1.5H10v-1.5c0-.78.434-1.393 1-1.852V12.5c0-2.472 2.028-4.5 4.5-4.5a4.46 4.46 0 0 1 2.5.766V5.5c0-.831-.669-1.5-1.5-1.5Zm9 10c-.277 0-.5.223-.5.5v3c0 .277.223.5.5.5h6c.277 0 .5-.223.5-.5v-3c0-.277-.223-.5-.5-.5Z" fill="context-fill"/>
  <path d="M3.5 3A2.506 2.506 0 0 0 1 5.5v9C1 15.876 2.124 17 3.5 17H10v-1H3.5c-.84 0-1.5-.66-1.5-1.5v-9C2 4.66 2.66 4 3.5 4h13c.84 0 1.5.66 1.5 1.5v3.266c.377.254.715.563 1 .916V5.5C19 4.124 17.876 3 16.5 3Zm.977 3.002a.5.5 0 0 0-.346.162.5.5 0 0 0 .033.705l3.28 2.98-3.298 3.297a.5.5 0 0 0 0 .708.5.5 0 0 0 .708 0l3.33-3.33 1.48 1.345a.5.5 0 0 0 .672 0l.91-.828a4.536 4.536 0 0 1 3.207-2.916l1.383-1.256a.5.5 0 0 0 .033-.705.5.5 0 0 0-.705-.033L10 10.824 4.836 6.131a.5.5 0 0 0-.36-.129ZM15.5 9c-1.93 0-3.5 1.57-3.5 3.5v.59c-.58.208-1 .763-1 1.41v3c0 .822.678 1.5 1.5 1.5h6c.822 0 1.5-.678 1.5-1.5v-3c0-.647-.42-1.202-1-1.41v-.59c0-1.93-1.57-3.5-3.5-3.5Zm0 1c1.394 0 2.5 1.106 2.5 2.5v.5h-5v-.5c0-1.394 1.106-2.5 2.5-2.5Zm-3 4h6c.286 0 .5.214.5.5v3c0 .286-.214.5-.5.5h-6a.488.488 0 0 1-.5-.5v-3c0-.286.214-.5.5-.5Z" fill="context-stroke"/>
</svg>
