<!-- This Source Code Form is subject to the terms of the Mozilla Public
   - License, v. 2.0. If a copy of the MPL was not distributed with this
   - file, You can obtain one at http://mozilla.org/MPL/2.0/. -->
<svg xmlns="http://www.w3.org/2000/svg" fill-opacity="context-fill-opacity" viewBox="0 0 20 20" height="20" width="20">
  <path d="M8 2c-1.1 0-2 .9-2 2v3H3c-1.1 0-2 .9-2 2v6c0 1.1.9 2 2 2h2.445c.062.007.124.013.192.016C6.065 17.033 6.758 17 8 17h9c1.1 0 2-.9 2-2V4c0-1.1-.9-2-2-2Zm0 1h9c.563 0 1 .437 1 1v11c0 .563-.437 1-1 1H8c-.766 0-1.069.006-1.414.01A.5.5 0 0 0 6.5 16h-.367c.125-.174.207-.25.347-.537.28-.574.52-1.372.52-2.44V4c0-.563.437-1 1-1Zm1 2c-.545 0-1 .455-1 1v3c0 .545.455 1 1 1h3c.545 0 1-.455 1-1V6c0-.545-.455-1-1-1Zm5.5 0a.5.5 0 0 0-.5.5.5.5 0 0 0 .5.5h2a.5.5 0 0 0 .5-.5.5.5 0 0 0-.5-.5ZM9 6h3v3H9Zm5.5 1a.5.5 0 0 0-.5.5.5.5 0 0 0 .5.5h2a.5.5 0 0 0 .5-.5.5.5 0 0 0-.5-.5ZM3 8h3v5.023c0 .921-.198 1.551-.418 2.002-.22.452-.448.689-.623.95L4.943 16H3c-.563 0-1-.437-1-1V9c0-.563.437-1 1-1Zm11.5 1a.5.5 0 0 0-.5.5.5.5 0 0 0 .5.5h2a.5.5 0 0 0 .5-.5.5.5 0 0 0-.5-.5Zm-6 2a.5.5 0 0 0-.5.5.5.5 0 0 0 .5.5h8a.5.5 0 0 0 .5-.5.5.5 0 0 0-.5-.5Zm0 2a.5.5 0 0 0-.5.5.5.5 0 0 0 .5.5h8a.5.5 0 0 0 .5-.5.5.5 0 0 0-.5-.5Z" fill="context-stroke"/>
  <path d="M3 8h3v5.023c0 .921-.198 1.551-.418 2.002-.22.452-.448.689-.623.95L4.943 16H3c-.563 0-1-.437-1-1V9c0-.563.437-1 1-1Z" fill="context-fill"/>
</svg>
