<!-- This Source Code Form is subject to the terms of the Mozilla Public
   - License, v. 2.0. If a copy of the MPL was not distributed with this
   - file, You can obtain one at http://mozilla.org/MPL/2.0/. -->
<svg xmlns="http://www.w3.org/2000/svg" fill-opacity="context-fill-opacity" viewBox="0 0 20 20" height="20" width="20">
  <path d="M5.5 3A2.495 2.495 0 0 0 3 5.5v9C3 15.885 4.115 17 5.5 17h6.59l-1.455-.688C9.72 16.058 9 15.338 9 14.17c0-.11.01-.214.023-.316-1.335-.39-2.544-1.52-2.544-2.854H5V9.5c0-.277.223-.5.5-.5H6V6.5c0-.277.223-.5.5-.5h7c.277 0 .5.223.5.5V9h.5c.277 0 .5.223.5.5v.762l2-.787V5.5C17 4.115 15.885 3 14.5 3Zm5.135 13.313c.074.02.15.038.226.052l-.363-.117.137.064z" fill="context-fill"/>
  <path d="M5.5 2C3.57 2 2 3.57 2 5.5v9C2 16.43 3.57 18 5.5 18h7.537l-.332-.709L12.09 17H5.5A2.484 2.484 0 0 1 3 14.5V12h3.115c.25 1.38 1.434 2.58 2.998 2.918a2.424 2.424 0 0 1-.09-1.063c-1.187-.391-2.03-1.438-2.027-2.353a.5.5 0 0 0-.5-.502H5V9.5c0-.286.214-.5.5-.5h9c.286 0 .5.214.5.5v.762l1-.395V9.5c0-.647-.42-1.202-1-1.41V6.5c0-.822-.678-1.5-1.5-1.5h-7C5.678 5 5 5.678 5 6.5v1.59c-.58.208-1 .763-1 1.41V11H3V5.5C3 4.106 4.106 3 5.5 3h9C15.894 3 17 4.106 17 5.5v3.975l.201-.08.004-.002c.23-.093.494-.2.795-.28V5.5C18 3.57 16.43 2 14.5 2Zm1 4h7c.286 0 .5.214.5.5V8H6V6.5c0-.286.214-.5.5-.5Zm12.334 4c-.47 0-.832.151-1.256.322l-6.596 2.594c-.542.168-.982.64-.982 1.254 0 .629.447 1.054.957 1.187l-.031-.013.12.039c-.03-.006-.059-.018-.089-.026l2.5 1.184 1.176 2.508c-.008-.028-.019-.054-.026-.082l.034.097-.008-.015c.07.23.196.438.377.61.203.19.489.341.824.341.629 0 1.041-.484 1.24-.924a.5.5 0 0 0 .012-.027l2.607-6.762a.5.5 0 0 0 .008-.025c.097-.297.299-.606.299-1.096 0-.638-.528-1.166-1.166-1.166Zm0 1c.098 0 .166.068.166.166 0 .175-.112.369-.246.78l-.002.005-2.59 6.713c-.11.244-.22.336-.328.336-.033 0-.08-.015-.137-.068a.472.472 0 0 1-.117-.194.5.5 0 0 0-.035-.097l-1.11-2.368 1.752-1.752a.5.5 0 0 0 0-.707.5.5 0 0 0-.353-.148.5.5 0 0 0-.355.148l-1.75 1.75-2.375-1.125a.5.5 0 0 0-.122-.039c-.073-.013-.232-.16-.232-.23 0-.102.117-.257.295-.305a.5.5 0 0 0 .055-.02l6.593-2.593a.5.5 0 0 0 .004-.002c.43-.173.622-.25.887-.25Z" fill="context-stroke"/>
</svg>
