<!-- This Source Code Form is subject to the terms of the Mozilla Public
   - License, v. 2.0. If a copy of the MPL was not distributed with this
   - file, You can obtain one at http://mozilla.org/MPL/2.0/. -->
<svg width="28" height="28" viewBox="0 0 28 28" fill="none" xmlns="http://www.w3.org/2000/svg">
  <path d="M22 0H5.99999C2.68629 0 0 2.6863 0 6V22C0 25.3137 2.68629 28 5.99999 28H22C25.3137 28 28 25.3137 28 22V6C28 2.6863 25.3137 0 22 0Z" fill="#0A84FF"/>
  <path d="M22 2H5.99999C3.79086 2 2 3.79086 2 6V22C2 24.2091 3.79086 26 5.99999 26H22C24.2091 26 26 24.2091 26 22V6C26 3.79086 24.2091 2 22 2Z" fill="url(#paint0_linear_368_1373)"/>
  <path opacity="0.15" d="M28 15H19C19 17 17 18.9991 14 18.9991C11 18.9991 9 17 9 15C7 15 2.62241 15.016 0 15" stroke="black" stroke-width="2" stroke-linejoin="round"/>
  <path d="M0 16V17L-0.0078125 18C-0.0055989 18 -0.00221584 18 0 18V22C0 25.324 2.676 28 6 28H22C25.324 28 28 25.324 28 22V18V16H19C18.7348 16 18.4805 16.1054 18.2929 16.2929C18.1054 16.4805 18 16.7348 18 17C18 18.3333 16.5557 20 14 20C11.4443 20 10 18.3333 10 17C9.99997 16.7348 9.89461 16.4805 9.70708 16.2929C9.51955 16.1054 9.26521 16 9 16H6H0.0078125H0Z" fill="url(#paint1_linear_368_1373)"/>
  <path opacity="0.15" d="M28 17H19C19 19 17 20.9991 14 20.9991C11 20.9991 9 19 9 17C7 17 2.62241 17.016 0 17" stroke="white" stroke-linejoin="round"/>
  <path opacity="0.15" d="M0 20V22C0 25.324 2.676 28 6 28H22C25.324 28 28 25.324 28 22V20C28 23.324 25.324 26 22 26H6C2.676 26 0 23.324 0 20Z" fill="black"/>
  <path opacity="0.15" d="M13.9996 1.99951C13.7025 1.99903 13.4205 2.1307 13.2301 2.35888L8.23004 8.35888C7.68644 9.01074 8.1508 10.0008 8.99957 9.99951H11.9996V14.9996C11.9997 15.5518 12.4474 15.9995 12.9996 15.9996H14.9996C15.5519 15.9995 15.9996 15.5518 15.9996 14.9996V9.99951H18.9996C19.8484 10.0008 20.3128 9.01074 19.7692 8.35888L14.7692 2.35888C14.5788 2.1307 14.2968 1.99903 13.9996 1.99951Z" fill="black"/>
  <path opacity="0.15" d="M13.9999 -0.000488062C13.1112 -0.000828062 12.2647 0.395097 11.6952 1.07764L6.69519 7.07764C5.15575 8.92366 6.59727 11.9996 8.99988 11.9996H9.99988V14.9996C10 16.6326 11.3669 17.9994 12.9999 17.9996H14.9999C16.6329 17.9994 17.9997 16.6326 17.9999 14.9996V11.9996H18.9999C21.4025 11.9996 22.844 8.92366 21.3046 7.07764L16.3046 1.07764C15.7351 0.395097 14.8886 -0.000828062 13.9999 -0.000488062Z" fill="black"/>
  <path d="M13.9996 2C13.7024 1.99952 13.4204 2.13119 13.23 2.35937L8.23004 8.35937C7.68644 9.01123 8.1508 10.0012 8.99957 10H11.9996V15C11.9996 15.5522 12.4473 15.9999 12.9996 16H14.9996C15.5518 15.9999 15.9995 15.5522 15.9996 15V10H18.9996C19.8483 10.0012 20.3127 9.01123 19.7691 8.35937L14.7691 2.35937C14.5787 2.13119 14.2967 1.99952 13.9996 2Z" fill="#F9F9FA"/>
  <path opacity="0.3" d="M8.59723 7.91797L8.23004 8.35938C7.68644 9.01123 8.1508 10.0012 8.99957 10H11.9996V8H8.99957C8.85288 8.00021 8.71774 7.97011 8.59723 7.91797ZM19.4019 7.91797C19.2814 7.97011 19.1463 8.00021 18.9996 8H15.9996V10H18.9996C19.8483 10.0012 20.3127 9.01123 19.7691 8.35938L19.4019 7.91797ZM11.9996 13V15C11.9996 15.5523 12.4473 15.9999 12.9996 16H14.9996C15.5518 15.9999 15.9995 15.5523 15.9996 15V13C15.9995 13.5523 15.5518 13.9999 14.9996 14H12.9996C12.4473 13.9999 11.9996 13.5523 11.9996 13Z" fill="#737373"/>
  <defs>
    <linearGradient id="paint0_linear_368_1373" x1="14" y1="2" x2="14" y2="20" gradientUnits="userSpaceOnUse">
      <stop stop-color="#003EAA"/>
      <stop offset="1" stop-color="#0A84FF"/>
    </linearGradient>
    <linearGradient id="paint1_linear_368_1373" x1="14" y1="16" x2="14" y2="28" gradientUnits="userSpaceOnUse">
      <stop stop-color="#0A84FF"/>
      <stop offset="1" stop-color="#45A1FF"/>
    </linearGradient>
  </defs>
</svg>

