<!-- This Source Code Form is subject to the terms of the Mozilla Public
   - License, v. 2.0. If a copy of the MPL was not distributed with this
   - file, You can obtain one at http://mozilla.org/MPL/2.0/. -->
<svg xmlns="http://www.w3.org/2000/svg" fill-opacity="context-fill-opacity" viewBox="0 0 20 20">
  <path d="M4.5 4a.5.5 0 0 0-.354.146.5.5 0 0 0 0 .708L8.793 9.5l-4.647 4.646a.5.5 0 0 0 0 .708.5.5 0 0 0 .708 0l5-5a.5.5 0 0 0 0-.708l-5-5A.5.5 0 0 0 4.5 4zm6 0a.5.5 0 0 0-.354.146.5.5 0 0 0 0 .708L14.793 9.5l-4.647 4.646a.5.5 0 0 0 0 .708.5.5 0 0 0 .708 0l5-5a.5.5 0 0 0 0-.708l-5-5A.5.5 0 0 0 10.5 4z" fill="context-stroke"/>
</svg>
