<!-- This Source Code Form is subject to the terms of the Mozilla Public
   - License, v. 2.0. If a copy of the MPL was not distributed with this
   - file, You can obtain one at http://mozilla.org/MPL/2.0/. -->
<svg xmlns="http://www.w3.org/2000/svg" fill-opacity="context-fill-opacity" viewBox="0 0 20 20" height="20" width="20">
  <path d="M4 2.5a1.5 1.5 0 1 0 0 3h1a9.5 9.5 0 0 1 9.422 8.5l.078 2a1.5 1.5 0 1 0 2.984-.221v-.002L17.428 14A12.5 12.5 0 0 0 5 2.5Zm0 5a1.5 1.5 0 1 0 0 3h1A4.5 4.5 0 0 1 9.373 14l.127 2a1.5 1.5 0 1 0 2.984-.221v-.002L12.428 14A7.5 7.5 0 0 0 5 7.5Zm1 5A2.5 2.5 0 0 0 2.5 15 2.5 2.5 0 0 0 5 17.5 2.5 2.5 0 0 0 7.5 15 2.5 2.5 0 0 0 5 12.5Z" fill="context-fill"/>
  <path d="M4 2c-1.099 0-2 .9-2 2 0 1.098.901 2 2 2h1a8.994 8.994 0 0 1 8.924 8.05v.002L14 16c0 1.098.901 2 2 2 1.098 0 1.999-.9 2-1.999v-.002c0-.074-.007-.148-.016-.222a.5.5 0 0 0 0-.016l-.056-1.777a.5.5 0 0 0-.002-.024C17.386 7.223 11.761 2.017 5.002 2A.5.5 0 0 0 5 2Zm0 1h1a11.994 11.994 0 0 1 11.928 11.037l.056 1.748a.5.5 0 0 0 .006.066c.007.049.01.097.01.147A.5.5 0 0 0 17 16c0 .558-.442 1-1 1s-1-.442-1-1a.5.5 0 0 0 0-.02l-.078-2a.5.5 0 0 0-.002-.033A10.006 10.006 0 0 0 5.002 5 .5.5 0 0 0 5 5H4c-.558 0-1-.442-1-1 0-.559.442-1 1-1Zm0 4c-1.099 0-2 .9-2 2 0 1.098.901 2 2 2h1a3.993 3.993 0 0 1 3.879 3.103L9 16c0 1.098.901 2 2 2 1.098 0 1.999-.9 2-1.999v-.002c0-.074-.007-.148-.016-.222a.5.5 0 0 0 0-.016l-.056-1.777a.5.5 0 0 0-.004-.05A8.007 8.007 0 0 0 5 7Zm0 1h1a6.992 6.992 0 0 1 6.93 6.058l.054 1.727a.5.5 0 0 0 .006.066c.007.049.01.097.01.147A.5.5 0 0 0 12 16c0 .558-.442 1-1 1s-1-.442-1-1a.5.5 0 0 0-.002-.032l-.127-2a.5.5 0 0 0-.01-.08A5.005 5.005 0 0 0 5.002 10 .5.5 0 0 0 5 10H4c-.558 0-1-.442-1-1 0-.559.442-1 1-1Zm1 4c-1.65 0-3 1.349-3 3 0 1.65 1.35 3 3 3s3-1.35 3-3c0-1.651-1.35-3-3-3zm0 1c1.11 0 2 .889 2 2 0 1.11-.89 2-2 2-1.11 0-2-.89-2-2 0-1.111.89-2 2-2z" fill="context-stroke"/>
</svg>
