<!-- This Source Code Form is subject to the terms of the Mozilla Public
   - License, v. 2.0. If a copy of the MPL was not distributed with this
   - file, You can obtain one at http://mozilla.org/MPL/2.0/. -->
<svg xmlns="http://www.w3.org/2000/svg" fill-opacity="context-fill-opacity" viewBox="0 0 20 20" height="20" width="20">
  <path fill-rule="evenodd" d="M10.387 16.528c.073.544.558.972 1.11.972s.947-.432 1.178-.946L17.087 4.91c.175-.536.41-.858.41-1.41a1 1 0 0 0-1-1c-.552 0-.967.17-1.608.429L3.503 7.322c-.56.15-1 .631-1 1.184 0 .552.422 1.008.96 1.082L8.497 11.5Z" fill="context-fill"/>
  <path fill-rule="evenodd" d="M16.496 2c-.655 0-1.155.207-1.795.465L3.322 6.855l.051-.015c-.754.202-1.37.847-1.37 1.666 0 .826.627 1.404 1.306 1.558l-.024-.01.084.026a.665.665 0 0 1-.06-.016l4.8 1.823 1.81 4.818c.088.32.263.612.515.85.267.253.635.445 1.062.445.813 0 1.359-.63 1.635-1.24a.5.5 0 0 0 .012-.028l4.412-11.644a.5.5 0 0 0 .008-.022c.151-.466.433-.872.433-1.566 0-.822-.677-1.5-1.5-1.5Zm0 1c.282 0 .5.218.5.5 0 .41-.187.65-.385 1.256l-4.396 11.598c-.187.41-.43.646-.719.646a.556.556 0 0 1-.377-.172.913.913 0 0 1-.246-.412.5.5 0 0 0-.018-.062l-1.777-4.727 2.774-2.773a.5.5 0 0 0 0-.708.5.5 0 0 0-.71 0l-2.77 2.772L3.64 9.121a.5.5 0 0 0-.086-.023c-.229-.044-.551-.338-.551-.592 0-.286.265-.604.629-.701a.5.5 0 0 0 .05-.016l11.385-4.393a.5.5 0 0 0 .008-.003c.643-.26.97-.393 1.42-.393Z" fill="context-stroke"/>
</svg>
