<!-- This Source Code Form is subject to the terms of the Mozilla Public
   - License, v. 2.0. If a copy of the MPL was not distributed with this
   - file, You can obtain one at http://mozilla.org/MPL/2.0/. -->
<svg xmlns="http://www.w3.org/2000/svg" fill-opacity="context-fill-opacity" viewBox="0 0 20 20">
  <path d="M9.5 1.5c-.554 0-1 .446-1 1v1.191a6.5 6.5 0 0 0-3.21 1.852l-1.032-.594a.997.997 0 0 0-1.365.365l-.5.868a.997.997 0 0 0 .365 1.365l1.017.588A6.5 6.5 0 0 0 3.5 10a6.5 6.5 0 0 0 .273 1.86l-1.015.585a.997.997 0 0 0-.365 1.366l.5.865a.997.997 0 0 0 1.365.367l1.025-.592A6.5 6.5 0 0 0 8.5 16.31v1.183c0 .554.446 1 1 1h1c.554 0 1-.446 1-1V16.31a6.5 6.5 0 0 0 3.217-1.858l1.025.592a.997.997 0 0 0 1.365-.367l.5-.865a.997.997 0 0 0-.365-1.366l-1.015-.586A6.5 6.5 0 0 0 16.5 10a6.5 6.5 0 0 0-.273-1.867l1.015-.586a.997.997 0 0 0 .365-1.365l-.5-.868a.997.997 0 0 0-1.365-.365l-1.02.588a6.5 6.5 0 0 0-3.222-1.86V2.5c0-.554-.446-1-1-1zm.5 6a2.5 2.5 0 0 1 2.5 2.5 2.5 2.5 0 0 1-2.5 2.5A2.5 2.5 0 0 1 7.5 10 2.5 2.5 0 0 1 10 7.5Z" fill="context-fill"/>
  <path d="M9.5 1C8.678 1 8 1.678 8 2.5v.857a6.95 6.95 0 0 0-2.75 1.586l-.742-.427a1.508 1.508 0 0 0-2.049.548l-.5.868a1.508 1.508 0 0 0 .549 2.048l.728.42C3.112 8.926 3.001 9.458 3 10c0 .54.11 1.068.234 1.592l-.726.42a1.508 1.508 0 0 0-.549 2.049l.5.865c.41.711 1.336.962 2.049.55l.736-.425A6.948 6.948 0 0 0 8 16.643v.85c0 .822.678 1.5 1.5 1.5h1c.822 0 1.5-.678 1.5-1.5v-.85a6.948 6.948 0 0 0 2.756-1.592l.736.426a1.51 1.51 0 0 0 2.049-.551l.5-.865a1.508 1.508 0 0 0-.549-2.05l-.726-.42c.123-.523.233-1.052.234-1.591 0-.542-.11-1.073-.234-1.6l.726-.42c.712-.41.96-1.337.549-2.048l-.5-.868a1.508 1.508 0 0 0-2.049-.548l-.73.421A6.946 6.946 0 0 0 12 3.345V2.5c0-.822-.678-1.5-1.5-1.5Zm0 1h1c.286 0 .5.214.5.5v1.178a.5.5 0 0 0 .385.486 6 6 0 0 1 2.974 1.717.5.5 0 0 0 .614.09l1.02-.588a.486.486 0 0 1 .68.181l.5.868a.486.486 0 0 1-.18.681l-1.016.586a.5.5 0 0 0-.229.576 6.007 6.007 0 0 1 0 3.442.5.5 0 0 0 .229.576l1.015.586a.486.486 0 0 1 .182.682l-.5.865a.487.487 0 0 1-.682.183l-1.025-.591a.5.5 0 0 0-.613.09 5.999 5.999 0 0 1-2.97 1.714.5.5 0 0 0-.384.487v1.183c0 .286-.214.5-.5.5h-1a.488.488 0 0 1-.5-.5V16.31a.5.5 0 0 0-.385-.487 5.999 5.999 0 0 1-2.969-1.715.5.5 0 0 0-.613-.09l-1.025.592a.487.487 0 0 1-.682-.183l-.5-.865a.486.486 0 0 1 .182-.682l1.015-.586a.5.5 0 0 0 .229-.576 5.993 5.993 0 0 1 .002-3.438.5.5 0 0 0-.229-.578l-1.017-.588a.486.486 0 0 1-.182-.681l.5-.868a.486.486 0 0 1 .682-.181l1.031.594a.5.5 0 0 0 .613-.09 5.996 5.996 0 0 1 2.963-1.71A.5.5 0 0 0 9 3.692V2.5c0-.286.214-.5.5-.5Zm.5 5c-1.65 0-3 1.35-3 3s1.35 3 3 3 3-1.35 3-3-1.35-3-3-3zm0 1c1.11 0 2 .89 2 2 0 1.11-.89 2-2 2-1.11 0-2-.89-2-2 0-1.11.89-2 2-2Z" fill="context-stroke"/>
</svg>
