<!-- This Source Code Form is subject to the terms of the Mozilla Public
   - License, v. 2.0. If a copy of the MPL was not distributed with this
   - file, You can obtain one at http://mozilla.org/MPL/2.0/. -->
<svg xmlns="http://www.w3.org/2000/svg" fill-opacity="context-fill-opacity" viewBox="0 0 20 20" height="20" width="20">
  <path d="M8.5.5c11.91 4.927 8.427 16.652 3 18 1.5-2.598 0-5-2-5s-3.5 2.402-2 5c-4-.5-8-8-2-14C5 8 7 9 8 8.5c2-1 1.906-5.263.5-8z" fill="context-fill"/>
  <path d="M8.691.037a.5.5 0 0 0-.636.692c.656 1.278 1.02 2.967.972 4.406-.047 1.439-.507 2.546-1.25 2.918-.261.13-.782.098-1.218-.387-.437-.485-.8-1.445-.565-3.096a.5.5 0 0 0-.848-.424C2.034 7.26 1.473 10.85 2.268 13.697c.794 2.848 2.885 5.013 5.17 5.3a.5.5 0 0 0 .496-.747c-.681-1.179-.658-2.242-.295-3.01C8.002 14.472 8.7 14 9.5 14s1.498.472 1.861 1.24.386 1.831-.295 3.01a.5.5 0 0 0 .555.734c6.037-1.5 9.27-13.9-2.93-18.947Zm.717 1.545c9.382 4.699 7.029 13.754 2.91 15.955.27-.993.31-1.955-.054-2.724C11.752 13.73 10.7 13 9.5 13c-1.2 0-2.252.73-2.764 1.813-.36.761-.325 1.712-.064 2.695-1.436-.621-2.858-1.995-3.44-4.08-.621-2.228-.246-4.939 1.803-7.53.074 1.037.307 1.91.781 2.436.689.765 1.668.983 2.407.613 1.257-.628 1.75-2.152 1.804-3.779.04-1.18-.224-2.417-.619-3.586Z" fill="context-stroke"/>
</svg>
