<!-- This Source Code Form is subject to the terms of the Mozilla Public
   - License, v. 2.0. If a copy of the MPL was not distributed with this
   - file, You can obtain one at http://mozilla.org/MPL/2.0/. -->
<svg xmlns="http://www.w3.org/2000/svg" fill-opacity="context-fill-opacity" viewBox="0 0 20 20" height="20" width="20">
  <path d="M5.5 2h9c.831 0 1.5.669 1.5 1.5v13c0 .83-.669 1.5-1.5 1.5h-9c-.831 0-1.5-.67-1.5-1.5v-13C4 2.669 4.669 2 5.5 2Z" fill="context-fill"/>
  <path d="M5.5 1A2.506 2.506 0 0 0 3 3.5v13C3 17.876 4.124 19 5.5 19h9c1.376 0 2.5-1.124 2.5-2.5v-13C17 2.124 15.876 1 14.5 1Zm0 1h9c.84 0 1.5.66 1.5 1.5v13c0 .84-.66 1.5-1.5 1.5h-9c-.84 0-1.5-.66-1.5-1.5v-13C4 2.66 4.66 2 5.5 2ZM10 4a.5.5 0 0 0-.5.5v.563A2.011 2.011 0 0 0 8 7c0 .705.372 1.327.928 1.684L7.98 12H6.5a.5.5 0 0 0-.5.5.5.5 0 0 0 .5.5h1.195l-.675 2.363a.5.5 0 0 0 .343.617.5.5 0 0 0 .617-.343L8.734 13h2.532l.754 2.637a.5.5 0 0 0 .617.343.5.5 0 0 0 .343-.617L12.305 13H13.5a.5.5 0 0 0 .5-.5.5.5 0 0 0-.5-.5h-1.48l-.948-3.316C11.628 8.327 12 7.704 12 7c0-.926-.64-1.714-1.5-1.938V4.5A.5.5 0 0 0 10 4Zm0 2c.558 0 1 .442 1 1s-.442 1-1 1-1-.442-1-1 .442-1 1-1Zm-.123 2.996a1.97 1.97 0 0 0 .246 0L10.98 12H9.02Z" fill="context-stroke"/>
</svg>
