<?xml version="1.0" encoding="UTF-8" standalone="no"?>
<svg
   xmlns:dc="http://purl.org/dc/elements/1.1/"
   xmlns:cc="http://creativecommons.org/ns#"
   xmlns:rdf="http://www.w3.org/1999/02/22-rdf-syntax-ns#"
   xmlns:svg="http://www.w3.org/2000/svg"
   xmlns="http://www.w3.org/2000/svg"
   xmlns:xlink="http://www.w3.org/1999/xlink"
   xmlns:sodipodi="http://sodipodi.sourceforge.net/DTD/sodipodi-0.dtd"
   xmlns:inkscape="http://www.inkscape.org/namespaces/inkscape"
   width="128px"
   height="128px"
   viewBox="0 0 128 128"
   version="1.1"
   id="SVGRoot"
   inkscape:version="0.92.2 (5c3e80d, 2017-08-06)"
   sodipodi:docname="downloadManagerScalable.svg">
<!--

    This Source Code Form is subject to the terms of the Mozilla Public
    License, v. 2.0. If a copy of the MPL was not distributed with this
    file, You can obtain one at https://mozilla.org/MPL/2.0/.

-->
  <sodipodi:namedview
     id="base"
     pagecolor="#ffffff"
     bordercolor="#666666"
     borderopacity="1.0"
     inkscape:pageopacity="0.0"
     inkscape:pageshadow="2"
     inkscape:zoom="2"
     inkscape:cx="64"
     inkscape:cy="64"
     inkscape:document-units="px"
     inkscape:current-layer="layer1"
     showgrid="false"
     inkscape:window-width="1786"
     inkscape:window-height="1021"
     inkscape:window-x="47"
     inkscape:window-y="0"
     inkscape:window-maximized="1"
     inkscape:grid-bbox="true" />
  <defs
     id="defs4997">
    <linearGradient
       y2="786.83405"
       x2="553.63983"
       y1="596.54565"
       x1="441.50293"
       gradientTransform="matrix(0.1730824,0,0,0.1718448,373.11251,357.18549)"
       gradientUnits="userSpaceOnUse"
       id="linearGradient2242"
       xlink:href="#linearGradient5809"
       inkscape:collect="always" />
    <linearGradient
       id="linearGradient5809">
      <stop
         id="stop5811"
         offset="0.00000000"
         style="stop-color:#2727e8;stop-opacity:1.0000000;" />
      <stop
         id="stop5813"
         offset="1.0000000"
         style="stop-color:#5f5fee;stop-opacity:1.0000000;" />
    </linearGradient>
    <linearGradient
       y2="133.54459"
       x2="225.65819"
       y1="354.45773"
       x1="331.57434"
       gradientTransform="matrix(0.1730824,0,0,0.1718448,373.11251,357.18549)"
       gradientUnits="userSpaceOnUse"
       id="linearGradient2239"
       xlink:href="#linearGradient5074"
       inkscape:collect="always" />
    <linearGradient
       id="linearGradient5074">
      <stop
         id="stop5076"
         offset="0.00000000"
         style="stop-color:#2b2b9c;stop-opacity:1.0000000;" />
      <stop
         id="stop5078"
         offset="1.0000000"
         style="stop-color:#5c5cb3;stop-opacity:1.0000000;" />
    </linearGradient>
    <radialGradient
       inkscape:collect="always"
       xlink:href="#linearGradient3484"
       id="radialGradient4215"
       gradientUnits="userSpaceOnUse"
       gradientTransform="matrix(2.0948682,-2.3267471,1.1043583,0.9943003,-2088.218,2560.8382)"
       cx="1087.3295"
       cy="756.81622"
       fx="1087.3295"
       fy="756.81622"
       r="4.13275" />
    <linearGradient
       inkscape:collect="always"
       id="linearGradient3484">
      <stop
         style="stop-color:#00a83e;stop-opacity:1"
         offset="0"
         id="stop3486" />
      <stop
         style="stop-color:#73cf95;stop-opacity:1"
         offset="1"
         id="stop3488" />
    </linearGradient>
    <linearGradient
       inkscape:collect="always"
       xlink:href="#linearGradient3458"
       id="linearGradient4217"
       gradientUnits="userSpaceOnUse"
       gradientTransform="translate(-62.48626,26.463358)"
       x1="1086.8507"
       y1="749.88818"
       x2="1086.8507"
       y2="754.21796" />
    <linearGradient
       inkscape:collect="always"
       id="linearGradient3458">
      <stop
         style="stop-color:#009b35;stop-opacity:1"
         offset="0"
         id="stop3460" />
      <stop
         style="stop-color:#00561d;stop-opacity:1"
         offset="1"
         id="stop3462" />
    </linearGradient>
    <linearGradient
       inkscape:collect="always"
       xlink:href="#linearGradient3526"
       id="linearGradient4219"
       gradientUnits="userSpaceOnUse"
       x1="1021.7614"
       y1="732.21332"
       x2="1021.7063"
       y2="725.86243" />
    <linearGradient
       inkscape:collect="always"
       id="linearGradient3526">
      <stop
         style="stop-color:#00561d;stop-opacity:1;"
         offset="0"
         id="stop3528" />
      <stop
         style="stop-color:#00561d;stop-opacity:0;"
         offset="1"
         id="stop3530" />
    </linearGradient>
  </defs>
  <metadata
     id="metadata5000">
    <rdf:RDF>
      <cc:Work
         rdf:about="">
        <dc:format>image/svg+xml</dc:format>
        <dc:type
           rdf:resource="http://purl.org/dc/dcmitype/StillImage" />
        <dc:title></dc:title>
      </cc:Work>
    </rdf:RDF>
  </metadata>
  <g
     id="layer1"
     inkscape:groupmode="layer"
     inkscape:label="Layer 1">
    <g
       id="g4113"
       transform="translate(-373.79172,-373.74403)">
      <g
         style="display:inline"
         inkscape:label="Shadow"
         id="layer3" />
      <g
         style="display:inline"
         id="g4116"
         inkscape:label="Background">
        <g
           id="g2219">
          <circle
             r="395.53806"
             cy="433.07086"
             cx="365.22308"
             style="fill:#9195e1;fill-opacity:1;fill-rule:evenodd;stroke:none;stroke-width:10;stroke-linecap:butt;stroke-linejoin:round;stroke-miterlimit:4;stroke-dasharray:none;stroke-dashoffset:0;stroke-opacity:1"
             id="path6573"
             transform="matrix(0.1596245,0,0,0.1596247,379.49308,368.61522)" />
          <path
             inkscape:connector-curvature="0"
             style="fill:url(#linearGradient2242);fill-opacity:1;fill-rule:evenodd;stroke:none;stroke-width:1px;stroke-linecap:butt;stroke-linejoin:miter;stroke-opacity:1"
             d="m 383.85677,470.3348 c -6.32473,-12.34953 -8.05387,-20.49647 -9.52788,-32.28418 3.81257,-0.10939 4.90008,-2.24285 31.45589,3.47223 7.16773,3.65338 19.48816,5.76222 21.97314,5.67619 1.35759,0.0791 13.05993,-0.67788 15.04445,-1.97661 1.98739,-0.88215 15.99863,-3.10467 21.11682,-3.66075 3.18189,-0.47001 4.50887,-1.12735 7.73783,-1.15937 11.35612,-5.35068 24.3651,-3.5214 29.52452,-2.34558 -0.1077,4.34882 -0.64329,10.45278 -1.44535,13.25753 -0.83486,3.95125 -1.25505,6.04479 -3.20764,9.5936 -0.86304,4.07813 -2.79707,6.71702 -5.82995,11.62656 -3.16637,4.95692 -8.85713,10.12649 -15.35852,15.5514 -4.35459,5.8898 -19.72031,9.02775 -22.94775,10.88715 -8.55892,2.31056 -17.1425,3.16792 -32.16414,-0.86687 -16.64504,-3.63918 -29.62612,-18.61585 -36.37142,-27.7713 z"
             id="path2064"
             sodipodi:nodetypes="ccccccccccccccc"
             inkscape:export-xdpi="24.028801"
             inkscape:export-ydpi="24.028801" />
          <path
             inkscape:connector-curvature="0"
             style="fill:url(#linearGradient2239);fill-opacity:1;fill-rule:evenodd;stroke:none;stroke-width:1px;stroke-linecap:butt;stroke-linejoin:miter;stroke-opacity:1"
             d="m 375.79574,423.19042 c 0.6654,-2.66163 2.25909,-8.13069 3.89624,-10.31356 2.73624,-3.64834 6.99051,-12.21676 10.08436,-16.5017 4.52016,-6.26037 18.25337,-14.60235 24.29417,-17.41846 9.3217,-4.34562 32.45573,-6.36135 45.37965,-0.45838 5.54058,2.53065 16.26536,8.07359 20.62713,12.60546 4.06502,4.22358 10.5201,11.73492 13.7514,18.33522 1.74906,3.57267 7.16364,17.7727 6.41732,17.87684 -4.71335,0.65767 -9.56876,2.38248 -14.43898,3.89623 -3.42766,1.06538 -9.31841,3.89624 -10.08436,3.89624 -3.43786,0 -15.4907,-0.83882 -19.0228,-0.68757 -3.52211,0.15082 -8.86547,0.0959 -10.54273,0.45837 -5.14771,1.11256 -13.46546,-0.10221 -18.33522,-2.97947 -9.24476,1.9224 -12.77368,3.34755 -27.27363,-1.37513 -12.22239,-3.98088 -23.04873,-1.05625 -24.52336,-0.68758 -1.94899,0.48725 -0.57979,-5.24412 -0.22919,-6.64651 z"
             id="path2056"
             sodipodi:nodetypes="cssssssssssscsss" />
          <path
             inkscape:connector-curvature="0"
             style="fill:#b2b4ff;fill-opacity:0.50196078;fill-rule:evenodd;stroke:none;stroke-width:1px;stroke-linecap:butt;stroke-linejoin:miter;stroke-opacity:1"
             d="m 374.65256,430.0385 c -0.46386,0.30755 -0.29852,6.66155 0.0735,9.77357 0.69771,1.34006 -0.75673,3.15055 0.0612,4.42669 1.06229,1.26575 17.96392,4.17448 30.99751,-2.71591 7.16773,3.65338 19.48816,5.76222 21.97314,5.67619 1.35759,0.0791 31.04308,-5.08128 36.16127,-5.63736 3.18189,-0.47001 6.34239,-1.12735 9.57135,-1.15937 2.18853,-0.0793 11.59494,2.01483 14.10855,3.03809 7.97815,3.2478 10.94211,1.92182 12.43548,2.40625 0.3507,-1.15174 0.96205,-3.0669 0.61838,-5.30434 -0.14728,-2.69526 0.80767,-8.85257 -0.22817,-10.57514 -0.86303,-0.73485 0.23011,-2.34712 -0.76943,-2.57144 -3.35671,0.5678 -9.25646,2.30332 -14.14181,3.90936 -4.29978,1.42531 -6.14948,2.85959 -9.02473,2.95456 -2.70396,0.83022 -9.61856,0.40802 -12.73297,0.33881 -6.61848,-1.45305 -13.54767,-4.88569 -20.73662,-6.10729 -3.89623,-0.29835 -11.99097,1.55012 -15.2184,3.40951 -5.12106,-2.50243 -16.63917,-4.01807 -20.88889,-4.38581 -15.49707,-1.34855 -27.70891,1.32477 -32.25937,2.52363 z"
             id="path2058"
             sodipodi:nodetypes="cccccccsccccccccccc" />
          <circle
             r="395.53806"
             cy="433.07086"
             cx="365.22308"
             style="fill:none;fill-opacity:0.36184208;fill-rule:evenodd;stroke:#26269a;stroke-width:10.80470085;stroke-linecap:butt;stroke-linejoin:round;stroke-miterlimit:4;stroke-dasharray:none;stroke-dashoffset:0;stroke-opacity:1"
             id="path2052"
             transform="matrix(0.1596245,0,0,0.1596247,379.49308,368.61522)" />
        </g>
      </g>
      <g
         style="display:inline"
         inkscape:label="SeaMonkey"
         id="layer2" />
    </g>
    <g
       transform="matrix(2.8571604,0,0,2.8571604,-2863.2797,-2029.3264)"
       id="g4181">
      <rect
         y="722.69794"
         x="1011.0417"
         height="17.999828"
         width="26.999828"
         id="rect4183"
         style="opacity:1;fill:#f3f4f5;fill-opacity:1;fill-rule:nonzero;stroke:#3b556e;stroke-width:1;stroke-linecap:round;stroke-linejoin:miter;stroke-miterlimit:4;stroke-dasharray:none;stroke-opacity:1" />
      <rect
         y="727.71289"
         x="1015.0414"
         height="4.0004034"
         width="19.000404"
         id="rect4185"
         style="opacity:1;fill:#ffffff;fill-opacity:1;fill-rule:nonzero;stroke:#00561d;stroke-width:1;stroke-linecap:round;stroke-linejoin:miter;stroke-miterlimit:4;stroke-dasharray:none;stroke-opacity:1" />
      <path
         inkscape:connector-curvature="0"
         sodipodi:nodetypes="ccc"
         id="path4187"
         d="m 1016.0339,727.75491 v 3.82169 z"
         style="fill:none;fill-rule:evenodd;stroke:#49b83c;stroke-width:1px;stroke-linecap:butt;stroke-linejoin:miter;stroke-opacity:1" />
      <path
         inkscape:connector-curvature="0"
         style="fill:none;fill-rule:evenodd;stroke:#49b83c;stroke-width:1px;stroke-linecap:butt;stroke-linejoin:miter;stroke-opacity:1"
         d="m 1018.028,727.7436 v 3.82169 z"
         id="path4189"
         sodipodi:nodetypes="ccc" />
      <path
         inkscape:connector-curvature="0"
         sodipodi:nodetypes="ccc"
         id="path4191"
         d="m 1020.017,727.73673 v 3.82169 z"
         style="fill:none;fill-rule:evenodd;stroke:#49b83c;stroke-width:1px;stroke-linecap:butt;stroke-linejoin:miter;stroke-opacity:1" />
      <path
         inkscape:connector-curvature="0"
         style="fill:none;fill-rule:evenodd;stroke:#49b83c;stroke-width:1px;stroke-linecap:butt;stroke-linejoin:miter;stroke-opacity:1"
         d="m 1022.0115,727.60918 v 3.82169 z"
         id="path4193"
         sodipodi:nodetypes="ccc" />
      <path
         inkscape:connector-curvature="0"
         sodipodi:nodetypes="ccc"
         id="path4195"
         d="m 1023.9948,727.6158 v 3.82169 z"
         style="fill:none;fill-rule:evenodd;stroke:#49b83c;stroke-width:1px;stroke-linecap:butt;stroke-linejoin:miter;stroke-opacity:1" />
      <rect
         style="opacity:1;fill:none;fill-opacity:1;fill-rule:nonzero;stroke:#73c890;stroke-width:1;stroke-linecap:round;stroke-linejoin:miter;stroke-miterlimit:4;stroke-dasharray:none;stroke-opacity:1"
         id="rect4197"
         width="19.000404"
         height="4.0004034"
         x="1015.0414"
         y="727.71289" />
      <g
         transform="translate(0.1771012,-38.795917)"
         id="g4199">
        <path
           inkscape:connector-curvature="0"
           id="path4201"
           d="m 1021.0703,782.19928 0.037,-5.6165 6.5797,-0.11554 -0.01,5.86042 1.1725,0.0899 -4.4735,4.7307 -4.5408,-4.64725 z"
           style="fill:#6ec527;fill-opacity:1;fill-rule:evenodd;stroke:none;stroke-width:1px;stroke-linecap:butt;stroke-linejoin:miter;stroke-opacity:1" />
        <path
           inkscape:connector-curvature="0"
           sodipodi:nodetypes="ccccccc"
           style="fill:url(#radialGradient4215);fill-opacity:1;fill-rule:evenodd;stroke:none;stroke-width:1px;stroke-linecap:butt;stroke-linejoin:miter;stroke-opacity:1"
           d="m 1021.0703,782.19928 0.037,-5.6165 6.5797,-0.11554 0.1994,5.96205 -4.1978,4.09216 -3.8509,-4.02048 z"
           id="path4203" />
        <path
           inkscape:connector-curvature="0"
           id="path4205"
           d="m 1020.8642,781.38404 v -5.0002 h 7.0004 v 5.0002"
           style="fill:none;fill-opacity:1;fill-rule:nonzero;stroke:url(#linearGradient4217);stroke-width:1;stroke-linecap:square;stroke-linejoin:miter;stroke-miterlimit:4;stroke-opacity:1" />
        <path
           inkscape:connector-curvature="0"
           id="path4207"
           d="m 1027.8606,782.31893 h 1.4534 l -4.9495,4.94951 -4.9495,-4.94947 1.4469,-1e-5"
           style="fill:none;fill-opacity:1;fill-rule:nonzero;stroke:#00561d;stroke-width:1;stroke-linecap:square;stroke-linejoin:miter;stroke-miterlimit:4;stroke-opacity:1" />
      </g>
      <rect
         y="727.71289"
         x="1015.0414"
         height="4.0004034"
         width="19.000404"
         id="rect4209"
         style="opacity:1;fill:none;fill-opacity:1;fill-rule:nonzero;stroke:url(#linearGradient4219);stroke-width:1;stroke-linecap:round;stroke-linejoin:miter;stroke-miterlimit:4;stroke-dasharray:none;stroke-opacity:1" />
    </g>
  </g>
</svg>
