<?xml version="1.0" encoding="UTF-8" standalone="no"?>
<svg
   xmlns:dc="http://purl.org/dc/elements/1.1/"
   xmlns:cc="http://creativecommons.org/ns#"
   xmlns:rdf="http://www.w3.org/1999/02/22-rdf-syntax-ns#"
   xmlns:svg="http://www.w3.org/2000/svg"
   xmlns="http://www.w3.org/2000/svg"
   xmlns:xlink="http://www.w3.org/1999/xlink"
   xmlns:sodipodi="http://sodipodi.sourceforge.net/DTD/sodipodi-0.dtd"
   xmlns:inkscape="http://www.inkscape.org/namespaces/inkscape"
   width="128px"
   height="128px"
   viewBox="0 0 128 128"
   version="1.1"
   id="SVGRoot"
   inkscape:version="0.92.2 (5c3e80d, 2017-08-06)"
   sodipodi:docname="editorWindowScalable.svg">
<!--

    This Source Code Form is subject to the terms of the Mozilla Public
    License, v. 2.0. If a copy of the MPL was not distributed with this
    file, You can obtain one at https://mozilla.org/MPL/2.0/.

-->
  <sodipodi:namedview
     id="base"
     pagecolor="#ffffff"
     bordercolor="#666666"
     borderopacity="1.0"
     inkscape:pageopacity="0.0"
     inkscape:pageshadow="2"
     inkscape:zoom="2"
     inkscape:cx="64"
     inkscape:cy="64"
     inkscape:document-units="px"
     inkscape:current-layer="layer1"
     showgrid="false"
     inkscape:window-width="1786"
     inkscape:window-height="1021"
     inkscape:window-x="47"
     inkscape:window-y="0"
     inkscape:window-maximized="1"
     inkscape:grid-bbox="true" />
  <defs
     id="defs5613">
    <linearGradient
       y2="786.83405"
       x2="553.63983"
       y1="596.54565"
       x1="441.50293"
       gradientTransform="matrix(0.1730824,0,0,0.1718448,373.11251,357.18549)"
       gradientUnits="userSpaceOnUse"
       id="linearGradient2242"
       xlink:href="#linearGradient5809"
       inkscape:collect="always" />
    <linearGradient
       id="linearGradient5809">
      <stop
         id="stop5811"
         offset="0.00000000"
         style="stop-color:#2727e8;stop-opacity:1.0000000;" />
      <stop
         id="stop5813"
         offset="1.0000000"
         style="stop-color:#5f5fee;stop-opacity:1.0000000;" />
    </linearGradient>
    <linearGradient
       y2="133.54459"
       x2="225.65819"
       y1="354.45773"
       x1="331.57434"
       gradientTransform="matrix(0.1730824,0,0,0.1718448,373.11251,357.18549)"
       gradientUnits="userSpaceOnUse"
       id="linearGradient2239"
       xlink:href="#linearGradient5074"
       inkscape:collect="always" />
    <linearGradient
       id="linearGradient5074">
      <stop
         id="stop5076"
         offset="0.00000000"
         style="stop-color:#2b2b9c;stop-opacity:1.0000000;" />
      <stop
         id="stop5078"
         offset="1.0000000"
         style="stop-color:#5c5cb3;stop-opacity:1.0000000;" />
    </linearGradient>
  </defs>
  <metadata
     id="metadata5616">
    <rdf:RDF>
      <cc:Work
         rdf:about="">
        <dc:format>image/svg+xml</dc:format>
        <dc:type
           rdf:resource="http://purl.org/dc/dcmitype/StillImage" />
        <dc:title></dc:title>
      </cc:Work>
    </rdf:RDF>
  </metadata>
  <g
     id="layer1"
     inkscape:groupmode="layer"
     inkscape:label="Layer 1">
    <g
       transform="translate(-157.06859,-245.97515)"
       id="g2435">
      <g
         transform="translate(-216.72313,-127.76887)"
         id="g2405">
        <g
           id="layer3"
           inkscape:label="Shadow"
           style="display:inline" />
        <g
           inkscape:label="Background"
           id="g2408"
           style="display:inline">
          <g
             id="g2219">
            <circle
               r="395.53806"
               cy="433.07086"
               cx="365.22308"
               transform="matrix(0.1596245,0,0,0.1596247,379.49308,368.61522)"
               id="path6573"
               style="fill:#9195e1;fill-opacity:1;fill-rule:evenodd;stroke:none;stroke-width:10;stroke-linecap:butt;stroke-linejoin:round;stroke-miterlimit:4;stroke-dasharray:none;stroke-dashoffset:0;stroke-opacity:1" />
            <path
               inkscape:connector-curvature="0"
               inkscape:export-ydpi="24.028801"
               inkscape:export-xdpi="24.028801"
               sodipodi:nodetypes="ccccccccccccccc"
               id="path2064"
               d="m 383.85677,470.3348 c -6.32473,-12.34953 -8.05387,-20.49647 -9.52788,-32.28418 3.81257,-0.10939 4.90008,-2.24285 31.45589,3.47223 7.16773,3.65338 19.48816,5.76222 21.97314,5.67619 1.35759,0.0791 13.05993,-0.67788 15.04445,-1.97661 1.98739,-0.88215 15.99863,-3.10467 21.11682,-3.66075 3.18189,-0.47001 4.50887,-1.12735 7.73783,-1.15937 11.35612,-5.35068 24.3651,-3.5214 29.52452,-2.34558 -0.1077,4.34882 -0.64329,10.45278 -1.44535,13.25753 -0.83486,3.95125 -1.25505,6.04479 -3.20764,9.5936 -0.86304,4.07813 -2.79707,6.71702 -5.82995,11.62656 -3.16637,4.95692 -8.85713,10.12649 -15.35852,15.5514 -4.35459,5.8898 -19.72031,9.02775 -22.94775,10.88715 -8.55892,2.31056 -17.1425,3.16792 -32.16414,-0.86687 -16.64504,-3.63918 -29.62612,-18.61585 -36.37142,-27.7713 z"
               style="fill:url(#linearGradient2242);fill-opacity:1;fill-rule:evenodd;stroke:none;stroke-width:1px;stroke-linecap:butt;stroke-linejoin:miter;stroke-opacity:1" />
            <path
               inkscape:connector-curvature="0"
               sodipodi:nodetypes="cssssssssssscsss"
               id="path2056"
               d="m 375.79574,423.19042 c 0.6654,-2.66163 2.25909,-8.13069 3.89624,-10.31356 2.73624,-3.64834 6.99051,-12.21676 10.08436,-16.5017 4.52016,-6.26037 18.25337,-14.60235 24.29417,-17.41846 9.3217,-4.34562 32.45573,-6.36135 45.37965,-0.45838 5.54058,2.53065 16.26536,8.07359 20.62713,12.60546 4.06502,4.22358 10.5201,11.73492 13.7514,18.33522 1.74906,3.57267 7.16364,17.7727 6.41732,17.87684 -4.71335,0.65767 -9.56876,2.38248 -14.43898,3.89623 -3.42766,1.06538 -9.31841,3.89624 -10.08436,3.89624 -3.43786,0 -15.4907,-0.83882 -19.0228,-0.68757 -3.52211,0.15082 -8.86547,0.0959 -10.54273,0.45837 -5.14771,1.11256 -13.46546,-0.10221 -18.33522,-2.97947 -9.24476,1.9224 -12.77368,3.34755 -27.27363,-1.37513 -12.22239,-3.98088 -23.04873,-1.05625 -24.52336,-0.68758 -1.94899,0.48725 -0.57979,-5.24412 -0.22919,-6.64651 z"
               style="fill:url(#linearGradient2239);fill-opacity:1;fill-rule:evenodd;stroke:none;stroke-width:1px;stroke-linecap:butt;stroke-linejoin:miter;stroke-opacity:1" />
            <path
               inkscape:connector-curvature="0"
               sodipodi:nodetypes="cccccccsccccccccccc"
               id="path2058"
               d="m 374.65256,430.0385 c -0.46386,0.30755 -0.29852,6.66155 0.0735,9.77357 0.69771,1.34006 -0.75673,3.15055 0.0612,4.42669 1.06229,1.26575 17.96392,4.17448 30.99751,-2.71591 7.16773,3.65338 19.48816,5.76222 21.97314,5.67619 1.35759,0.0791 31.04308,-5.08128 36.16127,-5.63736 3.18189,-0.47001 6.34239,-1.12735 9.57135,-1.15937 2.18853,-0.0793 11.59494,2.01483 14.10855,3.03809 7.97815,3.2478 10.94211,1.92182 12.43548,2.40625 0.3507,-1.15174 0.96205,-3.0669 0.61838,-5.30434 -0.14728,-2.69526 0.80767,-8.85257 -0.22817,-10.57514 -0.86303,-0.73485 0.23011,-2.34712 -0.76943,-2.57144 -3.35671,0.5678 -9.25646,2.30332 -14.14181,3.90936 -4.29978,1.42531 -6.14948,2.85959 -9.02473,2.95456 -2.70396,0.83022 -9.61856,0.40802 -12.73297,0.33881 -6.61848,-1.45305 -13.54767,-4.88569 -20.73662,-6.10729 -3.89623,-0.29835 -11.99097,1.55012 -15.2184,3.40951 -5.12106,-2.50243 -16.63917,-4.01807 -20.88889,-4.38581 -15.49707,-1.34855 -27.70891,1.32477 -32.25937,2.52363 z"
               style="fill:#b2b4ff;fill-opacity:0.50196078;fill-rule:evenodd;stroke:none;stroke-width:1px;stroke-linecap:butt;stroke-linejoin:miter;stroke-opacity:1" />
            <circle
               r="395.53806"
               cy="433.07086"
               cx="365.22308"
               transform="matrix(0.1596245,0,0,0.1596247,379.49308,368.61522)"
               id="path2052"
               style="fill:none;fill-opacity:0.36184208;fill-rule:evenodd;stroke:#26269a;stroke-width:10.80470085;stroke-linecap:butt;stroke-linejoin:round;stroke-miterlimit:4;stroke-dasharray:none;stroke-dashoffset:0;stroke-opacity:1" />
          </g>
        </g>
        <g
           id="layer2"
           inkscape:label="SeaMonkey"
           style="display:inline" />
      </g>
      <g
         id="g2417"
         transform="matrix(3.5766367,0,0,3.5766367,277.69915,379.568)">
        <path
           inkscape:connector-curvature="0"
           id="path2419"
           d="m -25.69054,-11.447732 5.26078,-14.094435 11.986099,2.169649 -2.158268,14.9308247 z"
           style="fill:#ffffff;fill-rule:evenodd;stroke:#8d8888;stroke-width:1px;stroke-linecap:butt;stroke-linejoin:miter;stroke-opacity:1" />
        <path
           inkscape:connector-curvature="0"
           sodipodi:nodetypes="ccccccccccccccccccccccccccc"
           id="path2421"
           d="m -19.730935,-21.959623 0.749132,0.135603 0.749131,0.135603 0.749131,0.135603 0.749131,0.135603 0.749131,0.135603 0.749131,0.135604 0.749132,0.135603 0.749131,0.135603 0.749131,0.135603 0.749131,0.135603 0.749131,0.135603 0.749132,0.135603 v 0 l -0.749132,-0.135603 -0.749131,-0.135603 -0.749131,-0.135603 -0.749131,-0.135603 -0.749131,-0.135603 -0.749132,-0.135603 -0.749131,-0.135604 -0.749131,-0.135603 -0.749131,-0.135603 -0.749131,-0.135603 -0.749131,-0.135603 z"
           style="fill:#ffffff;fill-rule:evenodd;stroke:#8d8888;stroke-width:1px;stroke-linecap:round;stroke-linejoin:round;stroke-opacity:1" />
        <path
           inkscape:connector-curvature="0"
           style="fill:#ffffff;fill-rule:evenodd;stroke:#8d8888;stroke-width:1px;stroke-linecap:round;stroke-linejoin:round;stroke-opacity:1"
           d="m -20.458605,-19.575327 0.749132,0.135603 0.749131,0.135603 0.749131,0.135603 0.749131,0.135603 0.749131,0.135603 0.749131,0.135604 0.749132,0.135603 0.749131,0.135603 0.749131,0.135603 0.749131,0.135603 0.749131,0.135603 0.749132,0.135603 v 0 l -0.749132,-0.135603 -0.749131,-0.135603 -0.749131,-0.135603 -0.749131,-0.135603 -0.749131,-0.135603 -0.749132,-0.135603 -0.749131,-0.135604 -0.749131,-0.135603 -0.749131,-0.135603 -0.749131,-0.135603 -0.749131,-0.135603 z"
           id="path2423"
           sodipodi:nodetypes="ccccccccccccccccccccccccccc" />
        <path
           inkscape:connector-curvature="0"
           style="fill:#a2c2de;fill-opacity:1;fill-rule:nonzero;stroke:#2271bc;stroke-width:0.5;stroke-linecap:round;stroke-linejoin:miter;stroke-miterlimit:4;stroke-dasharray:none;stroke-opacity:1"
           d="m -8.450037,-28.245275 c -0.970358,2.006581 -2.166317,3.931798 -3.682122,5.54764 -0.509248,0.500769 -1.058333,1.066037 -1.750015,1.205493 -0.54566,0.08346 -0.674001,-0.592426 -0.618549,-1.039912 0.14582,-1.41906 0.759026,-2.759364 1.381823,-4.040375 0.969709,-1.884697 2.125466,-3.705249 3.599541,-5.209737 0.487262,-0.450156 1.023899,-0.992482 1.682798,-1.04552 0.544816,0.02662 0.56687,0.736752 0.511403,1.188274 -0.148152,1.163095 -0.610945,2.274243 -1.099996,3.341338"
           id="path2425" />
        <path
           inkscape:connector-curvature="0"
           sodipodi:nodetypes="csssccscc"
           id="path2427"
           d="m -12.873502,-21.508276 c -0.502412,0.518158 -1.042444,0.838596 -1.440354,1.012263 -0.16156,0.07051 -0.309507,0.278033 -0.583527,0.15493 -0.23579,-0.110547 -0.43802,-0.285099 -0.47272,-0.446272 -0.08713,-0.404734 0.05555,-1.280998 0.28909,-1.877028 0.1616,-0.405262 0.402886,-1.013441 0.669696,-1.443413 0.72003,-0.06238 1.343294,0.143983 1.518734,0.287907 0.4558,0.373918 0.798955,0.757496 0.921345,1.309524 -0.450913,0.528581 -0.644945,0.729805 -0.902264,1.002089 z"
           style="fill:#000000;fill-opacity:0.99215686;fill-rule:nonzero;stroke:none;stroke-width:5;stroke-linecap:round;stroke-linejoin:miter;stroke-miterlimit:4;stroke-opacity:1" />
        <path
           inkscape:connector-curvature="0"
           sodipodi:nodetypes="cccssccsscc"
           id="path2429"
           d="m -13.278907,-20.408924 c -0.108123,0.590226 -0.29482,1.26275 -0.801275,2.021917 -0.121028,0.156629 -1.032398,-0.375324 -2.14733,1.128838 -0.284721,0.384119 1.547051,-3.350132 1.410256,-3.433094 -0.136663,-0.09258 -1.544388,3.547818 -1.514129,3.418801 0.319782,-1.363461 -0.57915,-1.934836 -0.532114,-2.159478 0.206373,-0.874762 0.607095,-1.658897 1.188459,-2.323433 0.300451,-0.326124 0.634229,-0.639981 1.127534,-0.81581 0.195489,-0.05819 0.434537,-0.117957 0.736353,0.0054 0.275031,0.126518 0.410178,0.362893 0.483058,0.544883 0.170925,0.463474 0.17481,0.968007 0.04919,1.612022 z"
           style="fill:#c5c5c5;fill-opacity:1;fill-rule:nonzero;stroke:#000000;stroke-width:0.25;stroke-linecap:round;stroke-linejoin:round;stroke-miterlimit:4;stroke-dasharray:none;stroke-opacity:1" />
        <path
           inkscape:connector-curvature="0"
           sodipodi:nodetypes="ccccccccccccccccccccccccccc"
           id="path2431"
           d="m -21.129721,-16.757843 0.749132,0.135603 0.749131,0.135603 0.749131,0.135603 0.749131,0.135603 0.749131,0.135603 0.749131,0.135604 0.749132,0.135603 0.749131,0.135603 0.749131,0.135603 0.749131,0.135603 0.749131,0.135603 0.749132,0.135603 v 0 l -0.749132,-0.135603 -0.749131,-0.135603 -0.749131,-0.135603 -0.749131,-0.135603 -0.749131,-0.135603 -0.749132,-0.135603 -0.749131,-0.135604 -0.749131,-0.135603 -0.749131,-0.135603 -0.749131,-0.135603 -0.749131,-0.135603 z"
           style="fill:#ffffff;fill-rule:evenodd;stroke:#8d8888;stroke-width:1px;stroke-linecap:round;stroke-linejoin:round;stroke-opacity:1" />
        <path
           inkscape:connector-curvature="0"
           style="fill:#ffffff;fill-rule:evenodd;stroke:#8d8888;stroke-width:1px;stroke-linecap:round;stroke-linejoin:round;stroke-opacity:1"
           d="m -22.000837,-14.036738 0.749132,0.135603 0.749131,0.135603 0.749131,0.135603 0.749131,0.135603 0.749131,0.135603 0.749131,0.135604 0.749132,0.135603 0.749131,0.135603 0.749131,0.135603 0.749131,0.135603 0.749131,0.135603 0.749132,0.135603 v 0 l -0.749132,-0.135603 -0.749131,-0.135603 -0.749131,-0.135603 -0.749131,-0.135603 -0.749131,-0.135603 -0.749132,-0.135603 -0.749131,-0.135604 -0.749131,-0.135603 -0.749131,-0.135603 -0.749131,-0.135603 -0.749131,-0.135603 z"
           id="path2433"
           sodipodi:nodetypes="ccccccccccccccccccccccccccc" />
      </g>
    </g>
  </g>
</svg>
