<?xml version="1.0" encoding="UTF-8" standalone="no"?>
<svg
   xmlns:dc="http://purl.org/dc/elements/1.1/"
   xmlns:cc="http://creativecommons.org/ns#"
   xmlns:rdf="http://www.w3.org/1999/02/22-rdf-syntax-ns#"
   xmlns:svg="http://www.w3.org/2000/svg"
   xmlns="http://www.w3.org/2000/svg"
   xmlns:xlink="http://www.w3.org/1999/xlink"
   xmlns:sodipodi="http://sodipodi.sourceforge.net/DTD/sodipodi-0.dtd"
   xmlns:inkscape="http://www.inkscape.org/namespaces/inkscape"
   width="128px"
   height="128px"
   viewBox="0 0 128 128"
   version="1.1"
   id="SVGRoot"
   inkscape:version="0.92.2 (5c3e80d, 2017-08-06)"
   sodipodi:docname="history-windowScalable.svg">
<!--

    This Source Code Form is subject to the terms of the Mozilla Public
    License, v. 2.0. If a copy of the MPL was not distributed with this
    file, You can obtain one at https://mozilla.org/MPL/2.0/.

-->
  <sodipodi:namedview
     id="base"
     pagecolor="#ffffff"
     bordercolor="#666666"
     borderopacity="1.0"
     inkscape:pageopacity="0.0"
     inkscape:pageshadow="2"
     inkscape:zoom="2"
     inkscape:cx="64"
     inkscape:cy="64"
     inkscape:document-units="px"
     inkscape:current-layer="layer1"
     showgrid="false"
     inkscape:window-width="1786"
     inkscape:window-height="1021"
     inkscape:window-x="47"
     inkscape:window-y="0"
     inkscape:window-maximized="1"
     inkscape:grid-bbox="true" />
  <defs
     id="defs9553">
    <linearGradient
       inkscape:collect="always"
       xlink:href="#linearGradient5809"
       id="linearGradient3873"
       gradientUnits="userSpaceOnUse"
       gradientTransform="matrix(0.1730824,0,0,0.1718448,373.11251,357.18549)"
       x1="441.50293"
       y1="596.54565"
       x2="553.63983"
       y2="786.83405" />
    <linearGradient
       id="linearGradient5809">
      <stop
         id="stop5811"
         offset="0.00000000"
         style="stop-color:#2727e8;stop-opacity:1.0000000;" />
      <stop
         id="stop5813"
         offset="1.0000000"
         style="stop-color:#5f5fee;stop-opacity:1.0000000;" />
    </linearGradient>
    <linearGradient
       inkscape:collect="always"
       xlink:href="#linearGradient5074"
       id="linearGradient3875"
       gradientUnits="userSpaceOnUse"
       gradientTransform="matrix(0.1730824,0,0,0.1718448,373.11251,357.18549)"
       x1="331.57434"
       y1="354.45773"
       x2="225.65819"
       y2="133.54459" />
    <linearGradient
       id="linearGradient5074">
      <stop
         id="stop5076"
         offset="0.00000000"
         style="stop-color:#2b2b9c;stop-opacity:1.0000000;" />
      <stop
         id="stop5078"
         offset="1.0000000"
         style="stop-color:#5c5cb3;stop-opacity:1.0000000;" />
    </linearGradient>
    <filter
       inkscape:collect="always"
       id="filter4288">
      <feGaussianBlur
         inkscape:collect="always"
         stdDeviation="8.1055212"
         id="feGaussianBlur4290" />
    </filter>
    <linearGradient
       inkscape:collect="always"
       xlink:href="#linearGradient3152"
       id="linearGradient3885"
       gradientUnits="userSpaceOnUse"
       gradientTransform="matrix(2.4893755,0,0,2.4893755,754.50881,-27.065893)"
       spreadMethod="pad"
       x1="-136.54431"
       y1="58.386353"
       x2="-130.13719"
       y2="78.847557" />
    <linearGradient
       id="linearGradient3152"
       inkscape:collect="always">
      <stop
         id="stop3154"
         offset="0"
         style="stop-color:#63ba0f;stop-opacity:1;" />
      <stop
         id="stop3156"
         offset="1"
         style="stop-color:#509e07;stop-opacity:1" />
    </linearGradient>
  </defs>
  <metadata
     id="metadata9556">
    <rdf:RDF>
      <cc:Work
         rdf:about="">
        <dc:format>image/svg+xml</dc:format>
        <dc:type
           rdf:resource="http://purl.org/dc/dcmitype/StillImage" />
        <dc:title></dc:title>
      </cc:Work>
    </rdf:RDF>
  </metadata>
  <g
     id="layer1"
     inkscape:groupmode="layer"
     inkscape:label="Layer 1">
    <g
       id="g3261"
       transform="translate(-390.91039,-54.388836)">
      <g
         transform="translate(17.118669,-319.35519)"
         id="g3787">
        <g
           id="g3789"
           inkscape:label="Shadow"
           style="display:inline" />
        <g
           inkscape:label="Background"
           id="g3791"
           style="display:inline">
          <g
             id="g3793">
            <circle
               r="395.53806"
               cy="433.07086"
               cx="365.22308"
               transform="matrix(0.1596245,0,0,0.1596247,379.49308,368.61522)"
               id="path3795"
               style="fill:#9195e1;fill-opacity:1;fill-rule:evenodd;stroke:none;stroke-width:10;stroke-linecap:butt;stroke-linejoin:round;stroke-miterlimit:4;stroke-dasharray:none;stroke-dashoffset:0;stroke-opacity:1" />
            <path
               inkscape:connector-curvature="0"
               inkscape:export-ydpi="24.028801"
               inkscape:export-xdpi="24.028801"
               sodipodi:nodetypes="ccccccccccccccc"
               id="path3797"
               d="m 383.85677,470.3348 c -6.32473,-12.34953 -8.05387,-20.49647 -9.52788,-32.28418 3.81257,-0.10939 4.90008,-2.24285 31.45589,3.47223 7.16773,3.65338 19.48816,5.76222 21.97314,5.67619 1.35759,0.0791 13.05993,-0.67788 15.04445,-1.97661 1.98739,-0.88215 15.99863,-3.10467 21.11682,-3.66075 3.18189,-0.47001 4.50887,-1.12735 7.73783,-1.15937 11.35612,-5.35068 24.3651,-3.5214 29.52452,-2.34558 -0.1077,4.34882 -0.64329,10.45278 -1.44535,13.25753 -0.83486,3.95125 -1.25505,6.04479 -3.20764,9.5936 -0.86304,4.07813 -2.79707,6.71702 -5.82995,11.62656 -3.16637,4.95692 -8.85713,10.12649 -15.35852,15.5514 -4.35459,5.8898 -19.72031,9.02775 -22.94775,10.88715 -8.55892,2.31056 -17.1425,3.16792 -32.16414,-0.86687 -16.64504,-3.63918 -29.62612,-18.61585 -36.37142,-27.7713 z"
               style="fill:url(#linearGradient3873);fill-opacity:1;fill-rule:evenodd;stroke:none;stroke-width:1px;stroke-linecap:butt;stroke-linejoin:miter;stroke-opacity:1" />
            <path
               inkscape:connector-curvature="0"
               sodipodi:nodetypes="cssssssssssscsss"
               id="path3799"
               d="m 375.79574,423.19042 c 0.6654,-2.66163 2.25909,-8.13069 3.89624,-10.31356 2.73624,-3.64834 6.99051,-12.21676 10.08436,-16.5017 4.52016,-6.26037 18.25337,-14.60235 24.29417,-17.41846 9.3217,-4.34562 32.45573,-6.36135 45.37965,-0.45838 5.54058,2.53065 16.26536,8.07359 20.62713,12.60546 4.06502,4.22358 10.5201,11.73492 13.7514,18.33522 1.74906,3.57267 7.16364,17.7727 6.41732,17.87684 -4.71335,0.65767 -9.56876,2.38248 -14.43898,3.89623 -3.42766,1.06538 -9.31841,3.89624 -10.08436,3.89624 -3.43786,0 -15.4907,-0.83882 -19.0228,-0.68757 -3.52211,0.15082 -8.86547,0.0959 -10.54273,0.45837 -5.14771,1.11256 -13.46546,-0.10221 -18.33522,-2.97947 -9.24476,1.9224 -12.77368,3.34755 -27.27363,-1.37513 -12.22239,-3.98088 -23.04873,-1.05625 -24.52336,-0.68758 -1.94899,0.48725 -0.57979,-5.24412 -0.22919,-6.64651 z"
               style="fill:url(#linearGradient3875);fill-opacity:1;fill-rule:evenodd;stroke:none;stroke-width:1px;stroke-linecap:butt;stroke-linejoin:miter;stroke-opacity:1" />
            <path
               inkscape:connector-curvature="0"
               sodipodi:nodetypes="cccccccsccccccccccc"
               id="path3801"
               d="m 374.65256,430.0385 c -0.46386,0.30755 -0.29852,6.66155 0.0735,9.77357 0.69771,1.34006 -0.75673,3.15055 0.0612,4.42669 1.06229,1.26575 17.96392,4.17448 30.99751,-2.71591 7.16773,3.65338 19.48816,5.76222 21.97314,5.67619 1.35759,0.0791 31.04308,-5.08128 36.16127,-5.63736 3.18189,-0.47001 6.34239,-1.12735 9.57135,-1.15937 2.18853,-0.0793 11.59494,2.01483 14.10855,3.03809 7.97815,3.2478 10.94211,1.92182 12.43548,2.40625 0.3507,-1.15174 0.96205,-3.0669 0.61838,-5.30434 -0.14728,-2.69526 0.80767,-8.85257 -0.22817,-10.57514 -0.86303,-0.73485 0.23011,-2.34712 -0.76943,-2.57144 -3.35671,0.5678 -9.25646,2.30332 -14.14181,3.90936 -4.29978,1.42531 -6.14948,2.85959 -9.02473,2.95456 -2.70396,0.83022 -9.61856,0.40802 -12.73297,0.33881 -6.61848,-1.45305 -13.54767,-4.88569 -20.73662,-6.10729 -3.89623,-0.29835 -11.99097,1.55012 -15.2184,3.40951 -5.12106,-2.50243 -16.63917,-4.01807 -20.88889,-4.38581 -15.49707,-1.34855 -27.70891,1.32477 -32.25937,2.52363 z"
               style="fill:#b2b4ff;fill-opacity:0.50196078;fill-rule:evenodd;stroke:none;stroke-width:1px;stroke-linecap:butt;stroke-linejoin:miter;stroke-opacity:1" />
            <circle
               r="395.53806"
               cy="433.07086"
               cx="365.22308"
               transform="matrix(0.1596245,0,0,0.1596247,379.49308,368.61522)"
               id="path3803"
               style="fill:none;fill-opacity:0.36184208;fill-rule:evenodd;stroke:#26269a;stroke-width:10.80470085;stroke-linecap:butt;stroke-linejoin:round;stroke-miterlimit:4;stroke-dasharray:none;stroke-dashoffset:0;stroke-opacity:1" />
          </g>
        </g>
        <g
           id="g3805"
           inkscape:label="SeaMonkey"
           style="display:inline" />
      </g>
      <g
         transform="translate(12.062002,-22.917805)"
         id="g3887">
        <path
           transform="matrix(0.2477023,0,0,0.2079683,648.47198,64.124139)"
           sodipodi:open="true"
           sodipodi:end="5.9263177"
           sodipodi:start="5.9358167"
           d="m -661.87975,209.38359 a 127.14286,151.42857 0 0 1 -75.98248,193.81123 127.14286,151.42857 0 0 1 -162.90828,-90.03549 127.14286,151.42857 0 0 1 75.20875,-194.23885 127.14286,151.42857 0 0 1 163.26548,89.11295"
           sodipodi:ry="151.42857"
           sodipodi:rx="127.14286"
           sodipodi:cy="260.93362"
           sodipodi:cx="-781.42859"
           id="path3807"
           style="fill:#e6e6e6;fill-opacity:1;fill-rule:nonzero;stroke:#000000;stroke-width:4.40591908;stroke-linecap:round;stroke-linejoin:round;stroke-miterlimit:4;stroke-dasharray:none;stroke-opacity:1"
           sodipodi:type="arc" />
        <text
           id="text3809"
           y="93.797005"
           x="451.29788"
           style="font-style:normal;font-weight:bold;line-height:0%;font-family:'Trebuchet MS';writing-mode:lr-tb;fill:#000000;fill-opacity:1;stroke:none;stroke-width:1px;stroke-linecap:butt;stroke-linejoin:miter;stroke-opacity:1"
           xml:space="preserve"><tspan
             y="93.797005"
             x="451.29788"
             id="tspan3811"
             sodipodi:role="line"
             style="font-size:5.00000095px;line-height:1.25">XII</tspan></text>
        <text
           id="text3813"
           y="97.519417"
           x="466.95267"
           style="font-style:normal;font-weight:bold;line-height:0%;font-family:'Trebuchet MS';writing-mode:lr-tb;fill:#000000;fill-opacity:1;stroke:none;stroke-width:1px;stroke-linecap:butt;stroke-linejoin:miter;stroke-opacity:1"
           xml:space="preserve"><tspan
             y="97.519417"
             x="466.95267"
             id="tspan3815"
             sodipodi:role="line"
             style="font-size:5.00000095px;line-height:1.25">I</tspan></text>
        <text
           id="text3817"
           y="106.09559"
           x="475.9686"
           style="font-style:normal;font-weight:bold;line-height:0%;font-family:'Trebuchet MS';writing-mode:lr-tb;fill:#000000;fill-opacity:1;stroke:none;stroke-width:1px;stroke-linecap:butt;stroke-linejoin:miter;stroke-opacity:1"
           xml:space="preserve"><tspan
             y="106.09559"
             x="475.9686"
             id="tspan3819"
             sodipodi:role="line"
             style="font-size:5.00000095px;line-height:1.25">II</tspan></text>
        <text
           id="text3821"
           y="119.60712"
           x="479.48703"
           style="font-style:normal;font-weight:bold;line-height:0%;font-family:'Trebuchet MS';writing-mode:lr-tb;fill:#000000;fill-opacity:1;stroke:none;stroke-width:1px;stroke-linecap:butt;stroke-linejoin:miter;stroke-opacity:1"
           xml:space="preserve"><tspan
             y="119.60712"
             x="479.48703"
             id="tspan3823"
             sodipodi:role="line"
             style="font-size:5.00000095px;line-height:1.25">III</tspan></text>
        <text
           id="text3825"
           y="133.25336"
           x="475.19901"
           style="font-style:normal;font-weight:bold;line-height:0%;font-family:'Trebuchet MS';writing-mode:lr-tb;fill:#000000;fill-opacity:1;stroke:none;stroke-width:1px;stroke-linecap:butt;stroke-linejoin:miter;stroke-opacity:1"
           xml:space="preserve"><tspan
             y="133.25336"
             x="475.19901"
             id="tspan3827"
             sodipodi:role="line"
             style="font-size:5.00000095px;line-height:1.25">IV</tspan></text>
        <text
           id="text3829"
           y="142.88013"
           x="466.40292"
           style="font-style:normal;font-weight:bold;line-height:0%;font-family:'Trebuchet MS';writing-mode:lr-tb;fill:#000000;fill-opacity:1;stroke:none;stroke-width:1px;stroke-linecap:butt;stroke-linejoin:miter;stroke-opacity:1"
           xml:space="preserve"><tspan
             y="142.88013"
             x="466.40292"
             id="tspan3831"
             sodipodi:role="line"
             style="font-size:5.00000095px;line-height:1.25">V</tspan></text>
        <text
           id="text3833"
           y="146.44739"
           x="451.66959"
           style="font-style:normal;font-weight:bold;line-height:0%;font-family:'Trebuchet MS';writing-mode:lr-tb;fill:#000000;fill-opacity:1;stroke:none;stroke-width:1px;stroke-linecap:butt;stroke-linejoin:miter;stroke-opacity:1"
           xml:space="preserve"><tspan
             y="146.44739"
             x="451.66959"
             id="tspan3835"
             sodipodi:role="line"
             style="font-size:5.00000095px;line-height:1.25">VI</tspan></text>
        <text
           id="text3837"
           y="143.14886"
           x="437.59592"
           style="font-style:normal;font-weight:bold;line-height:0%;font-family:'Trebuchet MS';writing-mode:lr-tb;fill:#000000;fill-opacity:1;stroke:none;stroke-width:1px;stroke-linecap:butt;stroke-linejoin:miter;stroke-opacity:1"
           xml:space="preserve"><tspan
             y="143.14886"
             x="437.59592"
             id="tspan3839"
             sodipodi:role="line"
             style="font-size:5.00000095px;line-height:1.25">VII</tspan></text>
        <text
           id="text3841"
           y="133.09454"
           x="428.68991"
           style="font-style:normal;font-weight:bold;line-height:0%;font-family:'Trebuchet MS';writing-mode:lr-tb;fill:#000000;fill-opacity:1;stroke:none;stroke-width:1px;stroke-linecap:butt;stroke-linejoin:miter;stroke-opacity:1"
           xml:space="preserve"><tspan
             y="133.09454"
             x="428.68991"
             id="tspan3843"
             sodipodi:role="line"
             style="font-size:5.00000095px;line-height:1.25">VIII</tspan></text>
        <text
           id="text3845"
           y="119.50953"
           x="426.38095"
           style="font-style:normal;font-weight:bold;line-height:0%;font-family:'Trebuchet MS';writing-mode:lr-tb;fill:#000000;fill-opacity:1;stroke:none;stroke-width:1px;stroke-linecap:butt;stroke-linejoin:miter;stroke-opacity:1"
           xml:space="preserve"><tspan
             y="119.50953"
             x="426.38095"
             id="tspan3847"
             sodipodi:role="line"
             style="font-size:5.00000095px;line-height:1.25">IX</tspan></text>
        <text
           id="text3849"
           y="105.9856"
           x="430.44913"
           style="font-style:normal;font-weight:bold;line-height:0%;font-family:'Trebuchet MS';writing-mode:lr-tb;fill:#000000;fill-opacity:1;stroke:none;stroke-width:1px;stroke-linecap:butt;stroke-linejoin:miter;stroke-opacity:1"
           xml:space="preserve"><tspan
             y="105.9856"
             x="430.44913"
             id="tspan3851"
             sodipodi:role="line"
             style="font-size:5.00000095px;line-height:1.25">X</tspan></text>
        <text
           id="text3853"
           y="97.519417"
           x="439.02524"
           style="font-style:normal;font-weight:bold;line-height:0%;font-family:'Trebuchet MS';writing-mode:lr-tb;fill:#000000;fill-opacity:1;stroke:none;stroke-width:1px;stroke-linecap:butt;stroke-linejoin:miter;stroke-opacity:1"
           xml:space="preserve"><tspan
             y="97.519417"
             x="439.02524"
             id="tspan3855"
             sodipodi:role="line"
             style="font-size:5.00000095px;line-height:1.25">XI</tspan></text>
        <g
           transform="matrix(0.5000001,0,0,0.5000001,64.050849,-145.21778)"
           id="g3857">
          <path
             inkscape:connector-curvature="0"
             style="fill:#000000;fill-opacity:1;fill-rule:evenodd;stroke:none;stroke-width:4;stroke-linecap:butt;stroke-linejoin:miter;stroke-miterlimit:4;stroke-dasharray:none;stroke-opacity:1"
             d="m 779.71875,502 v 2.875 2.875 2.875 2.875 2.875 2.875 2.875 2.875 2.875 h 4 V 525 522.125 519.25 516.375 513.5 510.625 507.75 504.875 502 Z"
             id="path3859"
             sodipodi:nodetypes="ccccccccccccccccccccc" />
          <path
             inkscape:connector-curvature="0"
             style="fill:#000000;fill-opacity:1;fill-rule:nonzero;stroke:#000000;stroke-width:2.76657629;stroke-linecap:round;stroke-linejoin:round;stroke-miterlimit:4;stroke-opacity:1"
             d="m 781.71875,496.68239 2.61671,5.23343 h -5.23342 z"
             id="path3861"
             sodipodi:nodetypes="cccc" />
        </g>
        <g
           transform="matrix(-0.4291897,-0.256508,0.256508,-0.4291897,652.78758,549.26748)"
           id="g3863">
          <path
             inkscape:connector-curvature="0"
             sodipodi:nodetypes="ccccccccccccccccccccccccccc"
             id="path3865"
             d="m 779.71875,502 v 2.875 2.875 2.875 2.875 2.875 2.875 2.875 2.875 2.875 2.875 2.875 2.875 h 4 V 533.625 530.75 527.875 525 522.125 519.25 516.375 513.5 510.625 507.75 504.875 502 Z"
             style="fill:#000000;fill-opacity:1;fill-rule:evenodd;stroke:none;stroke-width:4;stroke-linecap:butt;stroke-linejoin:miter;stroke-miterlimit:4;stroke-dasharray:none;stroke-opacity:1" />
          <path
             inkscape:connector-curvature="0"
             sodipodi:nodetypes="cccc"
             id="path3867"
             d="m 781.71875,496.68239 2.61671,5.23343 h -5.23342 z"
             style="fill:#000000;fill-opacity:1;fill-rule:nonzero;stroke:#000000;stroke-width:2.76657629;stroke-linecap:round;stroke-linejoin:round;stroke-miterlimit:4;stroke-opacity:1" />
        </g>
        <path
           transform="matrix(0.5000001,0,0,0.5000001,67.279699,-148.03415)"
           sodipodi:open="true"
           sodipodi:end="5.9263177"
           sodipodi:start="5.9358167"
           d="m 778.6727,531.61082 a 3.6283669,3.6283669 0 0 1 -2.16837,4.6439 3.6283669,3.6283669 0 0 1 -4.64903,-2.15734 3.6283669,3.6283669 0 0 1 2.14629,-4.65414 3.6283669,3.6283669 0 0 1 4.65922,2.13523"
           sodipodi:ry="3.6283669"
           sodipodi:rx="3.6283669"
           sodipodi:cy="532.84601"
           sodipodi:cx="775.26105"
           id="path3869"
           style="fill:#cccccc;fill-opacity:1;fill-rule:nonzero;stroke:#000000;stroke-width:2;stroke-linecap:round;stroke-linejoin:round;stroke-miterlimit:4;stroke-dasharray:none;stroke-opacity:1"
           sodipodi:type="arc" />
        <path
           sodipodi:type="inkscape:offset"
           inkscape:radius="3.7992489"
           inkscape:original="M -784.625 119.21875 C -823.30724 120.2578 -857.85589 145.69751 -876.65625 178.4375 C -911.16585 236.5006 -905.33598 317.22678 -859.21875 367.5 C -835.95661 393.00489 -800.00341 407.76292 -765.34375 401.375 C -725.99105 394.88795 -694.34644 364.38152 -678.625 328.90625 C -652.69932 272.153 -661.28225 199.33022 -704.71875 153.46875 C -725.24632 131.86038 -754.52802 118.0423 -784.625 119.21875 z "
           style="fill:#ffffff;fill-opacity:0.23602486;fill-rule:nonzero;stroke:#000000;stroke-width:4.40591908;stroke-linecap:round;stroke-linejoin:round;stroke-miterlimit:4;stroke-dasharray:none;stroke-opacity:1;filter:url(#filter4288)"
           id="path3871"
           d="m -784.75977,115.42188 c -40.2611,1.09547 -75.79772,27.37379 -95.17382,61.09765 -35.37906,59.54928 -29.45794,141.89836 17.9082,193.54102 0.002,0.002 0.006,0.003 0.008,0.006 3.4e-4,3.7e-4 -3.4e-4,0.002 0,0.002 24.07235,26.38799 61.18486,41.68739 97.31055,35.05078 40.90102,-6.75069 73.38739,-38.20666 89.54687,-74.6582 26.55489,-58.15536 17.83876,-132.4738 -26.80078,-179.60547 a 3.7996289,3.7996289 0 0 0 -0.004,-0.004 c -21.21,-22.32673 -51.44654,-36.65052 -82.79493,-35.42968 z"
           transform="matrix(0.2477023,0,0,0.2079683,648.46968,64.107569)" />
      </g>
      <path
         inkscape:connector-curvature="0"
         sodipodi:nodetypes="ccccccccccccsc"
         id="path3883"
         d="m 404.19444,135.98197 24.79232,-24.32202 c 3.13106,-2.55685 11.83238,7.75331 8.38038,11.39109 l -7.10342,7.3016 c -1.18415,1.22356 -0.20921,2.58737 2.51053,2.50551 l 26.97005,0.24521 c 5.00448,0.28701 4.38868,15.11016 0.10407,15.01699 l -27.06073,-0.13418 c -2.95307,-0.0983 -3.38304,1.50804 -2.53262,2.2944 l 7.00805,7.6908 c 3.09206,2.62399 -5.82774,12.40827 -7.80957,10.55959 L 404.47801,143.9352 c -1.63098,-1.38486 -1.7996,-2.78055 -1.82857,-3.79858 -0.0268,-0.94281 0.0817,-2.60794 1.545,-4.15465 z"
         style="fill:url(#linearGradient3885);fill-opacity:1;fill-rule:evenodd;stroke:#3f7b07;stroke-width:2.48937559px;stroke-linecap:butt;stroke-linejoin:round;stroke-opacity:1" />
    </g>
  </g>
</svg>
