<?xml version="1.0" encoding="UTF-8" standalone="no"?>
<svg
   xmlns:dc="http://purl.org/dc/elements/1.1/"
   xmlns:cc="http://creativecommons.org/ns#"
   xmlns:rdf="http://www.w3.org/1999/02/22-rdf-syntax-ns#"
   xmlns:svg="http://www.w3.org/2000/svg"
   xmlns="http://www.w3.org/2000/svg"
   xmlns:xlink="http://www.w3.org/1999/xlink"
   xmlns:sodipodi="http://sodipodi.sourceforge.net/DTD/sodipodi-0.dtd"
   xmlns:inkscape="http://www.inkscape.org/namespaces/inkscape"
   width="128px"
   height="128px"
   viewBox="0 0 128 128"
   version="1.1"
   id="SVGRoot"
   inkscape:version="0.92.2 (5c3e80d, 2017-08-06)"
   sodipodi:docname="JSConsoleWindowScalable.svg">
<!--

    This Source Code Form is subject to the terms of the Mozilla Public
    License, v. 2.0. If a copy of the MPL was not distributed with this
    file, You can obtain one at https://mozilla.org/MPL/2.0/.

-->
  <sodipodi:namedview
     id="base"
     pagecolor="#ffffff"
     bordercolor="#666666"
     borderopacity="1.0"
     inkscape:pageopacity="0.0"
     inkscape:pageshadow="2"
     inkscape:zoom="2"
     inkscape:cx="64"
     inkscape:cy="64"
     inkscape:document-units="px"
     inkscape:current-layer="layer1"
     showgrid="false"
     inkscape:window-width="1786"
     inkscape:window-height="1021"
     inkscape:window-x="47"
     inkscape:window-y="0"
     inkscape:window-maximized="1"
     inkscape:grid-bbox="true" />
  <defs
     id="defs12339">
    <linearGradient
       inkscape:collect="always"
       id="linearGradient2242"
       x1="441.50293"
       x2="553.63983"
       gradientTransform="matrix(0.1730824,0,0,0.1718448,373.11251,357.18549)"
       y1="596.54565"
       gradientUnits="userSpaceOnUse"
       xlink:href="#linearGradient5809"
       y2="786.83405" />
    <linearGradient
       id="linearGradient5809">
      <stop
         offset="0.00000000"
         id="stop5811"
         style="stop-color:#2727e8;stop-opacity:1.0000000;" />
      <stop
         offset="1.0000000"
         id="stop5813"
         style="stop-color:#5f5fee;stop-opacity:1.0000000;" />
    </linearGradient>
    <linearGradient
       inkscape:collect="always"
       id="linearGradient2239"
       x1="331.57434"
       x2="225.65819"
       gradientTransform="matrix(0.1730824,0,0,0.1718448,373.11251,357.18549)"
       y1="354.45773"
       gradientUnits="userSpaceOnUse"
       xlink:href="#linearGradient5074"
       y2="133.54459" />
    <linearGradient
       id="linearGradient5074">
      <stop
         offset="0.00000000"
         id="stop5076"
         style="stop-color:#2b2b9c;stop-opacity:1.0000000;" />
      <stop
         offset="1.0000000"
         id="stop5078"
         style="stop-color:#5c5cb3;stop-opacity:1.0000000;" />
    </linearGradient>
    <radialGradient
       inkscape:collect="always"
       id="radialGradient2275"
       r="22.724789"
       gradientTransform="matrix(0.701911,-0.2667433,0.1979628,0.5209215,179.39359,699.29387)"
       cx="1147.2316"
       cy="821.82721"
       gradientUnits="userSpaceOnUse"
       xlink:href="#linearGradient3214"
       fy="821.82721"
       fx="1147.2316" />
    <linearGradient
       inkscape:collect="always"
       id="linearGradient3214">
      <stop
         offset="0"
         id="stop3216"
         style="stop-color:#eb0000;stop-opacity:1" />
      <stop
         offset="1"
         id="stop3218"
         style="stop-color:#ae0000;stop-opacity:1" />
    </linearGradient>
    <linearGradient
       inkscape:collect="always"
       id="linearGradient2277"
       x1="1139.5706"
       y1="826.1059"
       x2="1152.082"
       gradientUnits="userSpaceOnUse"
       xlink:href="#linearGradient3251"
       y2="730.0083" />
    <linearGradient
       inkscape:collect="always"
       id="linearGradient3251">
      <stop
         offset="0"
         id="stop3253"
         style="stop-color:#380000;stop-opacity:1" />
      <stop
         offset="1"
         id="stop3255"
         style="stop-color:#b90000;stop-opacity:1" />
    </linearGradient>
  </defs>
  <metadata
     id="metadata12342">
    <rdf:RDF>
      <cc:Work
         rdf:about="">
        <dc:format>image/svg+xml</dc:format>
        <dc:type
           rdf:resource="http://purl.org/dc/dcmitype/StillImage" />
        <dc:title></dc:title>
      </cc:Work>
    </rdf:RDF>
  </metadata>
  <g
     id="layer1"
     inkscape:groupmode="layer"
     inkscape:label="Layer 1">
    <g
       transform="translate(-373.79172,-373.74402)"
       id="g3501"
       inkscape:label="Background"
       style="display:inline">
      <g
         id="g2219">
        <circle
           id="path6573"
           transform="matrix(0.1596245,0,0,0.1596247,379.49308,368.61522)"
           style="fill:#9195e1;fill-opacity:1;fill-rule:evenodd;stroke:none;stroke-width:10;stroke-linecap:butt;stroke-linejoin:round;stroke-miterlimit:4;stroke-dasharray:none;stroke-dashoffset:0;stroke-opacity:1"
           cx="365.22308"
           cy="433.07086"
           r="395.53806" />
        <path
           id="path2064"
           inkscape:export-xdpi="24.028801"
           sodipodi:nodetypes="ccccccccccccccc"
           inkscape:export-ydpi="24.028801"
           d="m 383.85677,470.3348 c -6.32473,-12.34953 -8.05387,-20.49647 -9.52788,-32.28418 3.81257,-0.10939 4.90008,-2.24285 31.45589,3.47223 7.16773,3.65338 19.48816,5.76222 21.97314,5.67619 1.35759,0.0791 13.05993,-0.67788 15.04445,-1.97661 1.98739,-0.88215 15.99863,-3.10467 21.11682,-3.66075 3.18189,-0.47001 4.50887,-1.12735 7.73783,-1.15937 11.35612,-5.35068 24.3651,-3.5214 29.52452,-2.34558 -0.1077,4.34882 -0.64329,10.45278 -1.44535,13.25753 -0.83486,3.95125 -1.25505,6.04479 -3.20764,9.5936 -0.86304,4.07813 -2.79707,6.71702 -5.82995,11.62656 -3.16637,4.95692 -8.85713,10.12649 -15.35852,15.5514 -4.35459,5.8898 -19.72031,9.02775 -22.94775,10.88715 -8.55892,2.31056 -17.1425,3.16792 -32.16414,-0.86687 -16.64504,-3.63918 -29.62612,-18.61585 -36.37142,-27.7713 z"
           style="fill:url(#linearGradient2242);fill-opacity:1;fill-rule:evenodd;stroke:none;stroke-width:1px;stroke-linecap:butt;stroke-linejoin:miter;stroke-opacity:1"
           inkscape:connector-curvature="0" />
        <path
           d="m 375.79574,423.19042 c 0.6654,-2.66163 2.25909,-8.13069 3.89624,-10.31356 2.73624,-3.64834 6.99051,-12.21676 10.08436,-16.5017 4.52016,-6.26037 18.25337,-14.60235 24.29417,-17.41846 9.3217,-4.34562 32.45573,-6.36135 45.37965,-0.45838 5.54058,2.53065 16.26536,8.07359 20.62713,12.60546 4.06502,4.22358 10.5201,11.73492 13.7514,18.33522 1.74906,3.57267 7.16364,17.7727 6.41732,17.87684 -4.71335,0.65767 -9.56876,2.38248 -14.43898,3.89623 -3.42766,1.06538 -9.31841,3.89624 -10.08436,3.89624 -3.43786,0 -15.4907,-0.83882 -19.0228,-0.68757 -3.52211,0.15082 -8.86547,0.0959 -10.54273,0.45837 -5.14771,1.11256 -13.46546,-0.10221 -18.33522,-2.97947 -9.24476,1.9224 -12.77368,3.34755 -27.27363,-1.37513 -12.22239,-3.98088 -23.04873,-1.05625 -24.52336,-0.68758 -1.94899,0.48725 -0.57979,-5.24412 -0.22919,-6.64651 z"
           id="path2056"
           style="fill:url(#linearGradient2239);fill-opacity:1;fill-rule:evenodd;stroke:none;stroke-width:1px;stroke-linecap:butt;stroke-linejoin:miter;stroke-opacity:1"
           sodipodi:nodetypes="cssssssssssscsss"
           inkscape:connector-curvature="0" />
        <path
           d="m 374.65256,430.0385 c -0.46386,0.30755 -0.29852,6.66155 0.0735,9.77357 0.69771,1.34006 -0.75673,3.15055 0.0612,4.42669 1.06229,1.26575 17.96392,4.17448 30.99751,-2.71591 7.16773,3.65338 19.48816,5.76222 21.97314,5.67619 1.35759,0.0791 31.04308,-5.08128 36.16127,-5.63736 3.18189,-0.47001 6.34239,-1.12735 9.57135,-1.15937 2.18853,-0.0793 11.59494,2.01483 14.10855,3.03809 7.97815,3.2478 10.94211,1.92182 12.43548,2.40625 0.3507,-1.15174 0.96205,-3.0669 0.61838,-5.30434 -0.14728,-2.69526 0.80767,-8.85257 -0.22817,-10.57514 -0.86303,-0.73485 0.23011,-2.34712 -0.76943,-2.57144 -3.35671,0.5678 -9.25646,2.30332 -14.14181,3.90936 -4.29978,1.42531 -6.14948,2.85959 -9.02473,2.95456 -2.70396,0.83022 -9.61856,0.40802 -12.73297,0.33881 -6.61848,-1.45305 -13.54767,-4.88569 -20.73662,-6.10729 -3.89623,-0.29835 -11.99097,1.55012 -15.2184,3.40951 -5.12106,-2.50243 -16.63917,-4.01807 -20.88889,-4.38581 -15.49707,-1.34855 -27.70891,1.32477 -32.25937,2.52363 z"
           id="path2058"
           style="fill:#b2b4ff;fill-opacity:0.50196078;fill-rule:evenodd;stroke:none;stroke-width:1px;stroke-linecap:butt;stroke-linejoin:miter;stroke-opacity:1"
           sodipodi:nodetypes="cccccccsccccccccccc"
           inkscape:connector-curvature="0" />
        <circle
           id="path2052"
           transform="matrix(0.1596245,0,0,0.1596247,379.49308,368.61522)"
           style="fill:none;fill-opacity:0.36184208;fill-rule:evenodd;stroke:#26269a;stroke-width:10.80470085;stroke-linecap:butt;stroke-linejoin:round;stroke-miterlimit:4;stroke-dasharray:none;stroke-dashoffset:0;stroke-opacity:1"
           cx="365.22308"
           cy="433.07086"
           r="395.53806" />
      </g>
    </g>
    <path
       d="m 1161.6664,817.31491 -13.6628,10.48381 -17.0742,-2.24786 -10.4838,-13.66277 2.2479,-17.07422 13.6627,-10.48381 17.0742,2.24786 10.4839,13.66278 z"
       inkscape:flatsided="true"
       id="path3230"
       inkscape:rounded="0"
       inkscape:export-ydpi="90.000084"
       sodipodi:cx="1142.1799"
       inkscape:export-xdpi="90.000084"
       inkscape:randomized="0"
       transform="matrix(1.6768645,-0.2183201,0.2183201,1.6768645,-2027.2621,-1038.2989)"
       sodipodi:arg2="0.91629786"
       sodipodi:arg1="0.52359878"
       inkscape:export-filename="C:\Documents and Settings\Owner.SPINELLOZONE\Desktop\inkscape images\seamonkey-console3.svg.png"
       sodipodi:r2="20.788244"
       sodipodi:r1="22.501036"
       sodipodi:sides="8"
       sodipodi:type="star"
       style="fill:url(#radialGradient2275);fill-opacity:1;fill-rule:nonzero;stroke:url(#linearGradient2277);stroke-width:1.98091471;stroke-linecap:round;stroke-linejoin:round;stroke-miterlimit:4;stroke-dasharray:none;stroke-opacity:1"
       sodipodi:cy="806.06439" />
    <path
       inkscape:connector-curvature="0"
       id="path3236"
       inkscape:export-xdpi="90.000084"
       inkscape:export-filename="C:\Documents and Settings\Owner.SPINELLOZONE\Desktop\inkscape images\seamonkey-console3.svg.png"
       sodipodi:nodetypes="cscssssssscccczzc"
       inkscape:export-ydpi="90.000084"
       d="M 59.3082,86 C 57.9189,86 56.7703,85.57255 55.8621,84.71769 54.9543,83.86283 54.5,82.74084 54.5,81.3517 c 0.036,-0.24889 0.054,-0.44453 0.054,-0.58693 0.1778,-1.53148 0.8194,-2.72465 1.9238,-3.57955 1.1041,-0.85486 2.4398,-1.28231 4.0058,-1.28231 0.926,0 1.8522,0.28478 2.7781,0.85433 0.9259,0.56955 1.4961,1.28177 1.7098,2.13664 0.2134,0.85489 0.3203,1.47851 0.3203,1.87089 0,1.53151 -0.6057,2.78692 -1.8164,3.76626 C 62.2644,85.51035 60.8756,86 59.3082,86 Z m 4.115,-13.51607 h -3.3127 c 0,0 -1.0556,-19.2335 2.297,-25.644649 3.3526,-6.41115 10.859,-6.41115 11.1126,0 C 73.7744,53.25043 63.4232,72.48393 63.4232,72.48393 Z"
       style="font-style:normal;font-weight:bold;font-size:24px;font-family:'Sprint SF';writing-mode:lr-tb;fill:#ffffff;fill-opacity:1;stroke:none;stroke-width:1px;stroke-linecap:butt;stroke-linejoin:miter;stroke-opacity:1" />
  </g>
</svg>
