<?xml version="1.0" encoding="UTF-8" standalone="no"?>
<svg
   xmlns:dc="http://purl.org/dc/elements/1.1/"
   xmlns:cc="http://creativecommons.org/ns#"
   xmlns:rdf="http://www.w3.org/1999/02/22-rdf-syntax-ns#"
   xmlns:svg="http://www.w3.org/2000/svg"
   xmlns="http://www.w3.org/2000/svg"
   xmlns:xlink="http://www.w3.org/1999/xlink"
   xmlns:sodipodi="http://sodipodi.sourceforge.net/DTD/sodipodi-0.dtd"
   xmlns:inkscape="http://www.inkscape.org/namespaces/inkscape"
   width="128px"
   height="128px"
   viewBox="0 0 128 128"
   version="1.1"
   id="SVGRoot"
   inkscape:version="0.92.2 (5c3e80d, 2017-08-06)"
   sodipodi:docname="messengerWindowScalable.svg">
<!--

    This Source Code Form is subject to the terms of the Mozilla Public
    License, v. 2.0. If a copy of the MPL was not distributed with this
    file, You can obtain one at https://mozilla.org/MPL/2.0/.

-->
  <sodipodi:namedview
     id="base"
     pagecolor="#ffffff"
     bordercolor="#666666"
     borderopacity="1.0"
     inkscape:pageopacity="0.0"
     inkscape:pageshadow="2"
     inkscape:zoom="2"
     inkscape:cx="64"
     inkscape:cy="64"
     inkscape:document-units="px"
     inkscape:current-layer="layer1"
     showgrid="false"
     inkscape:window-width="1786"
     inkscape:window-height="1021"
     inkscape:window-x="47"
     inkscape:window-y="0"
     inkscape:window-maximized="1"
     inkscape:grid-bbox="true" />
  <defs
     id="defs548">
    <linearGradient
       inkscape:collect="always"
       xlink:href="#linearGradient3278"
       id="linearGradient2346"
       gradientUnits="userSpaceOnUse"
       gradientTransform="translate(-220.53892,-160.04912)"
       x1="63.666668"
       y1="18.9375"
       x2="77.5"
       y2="18.9375" />
    <linearGradient
       inkscape:collect="always"
       id="linearGradient3278">
      <stop
         style="stop-color:#7aa1ca;stop-opacity:1;"
         offset="0"
         id="stop3280" />
      <stop
         style="stop-color:#3c75b2;stop-opacity:1"
         offset="1"
         id="stop3282" />
    </linearGradient>
    <linearGradient
       inkscape:collect="always"
       xlink:href="#linearGradient5074"
       id="linearGradient2343"
       gradientUnits="userSpaceOnUse"
       gradientTransform="matrix(0.1730824,0,0,0.1718448,152.57359,197.13637)"
       x1="331.57434"
       y1="354.45773"
       x2="225.65819"
       y2="133.54459" />
    <linearGradient
       id="linearGradient5074">
      <stop
         id="stop5076"
         offset="0.00000000"
         style="stop-color:#2b2b9c;stop-opacity:1.0000000;" />
      <stop
         id="stop5078"
         offset="1.0000000"
         style="stop-color:#5c5cb3;stop-opacity:1.0000000;" />
    </linearGradient>
    <filter
       inkscape:collect="always"
       id="filter3495">
      <feGaussianBlur
         inkscape:collect="always"
         stdDeviation="0.6546695"
         id="feGaussianBlur3497" />
    </filter>
  </defs>
  <metadata
     id="metadata551">
    <rdf:RDF>
      <cc:Work
         rdf:about="">
        <dc:format>image/svg+xml</dc:format>
        <dc:type
           rdf:resource="http://purl.org/dc/dcmitype/StillImage" />
        <dc:title></dc:title>
      </cc:Work>
    </rdf:RDF>
  </metadata>
  <g
     id="layer1"
     inkscape:groupmode="layer"
     inkscape:label="Layer 1">
    <g
       id="g2381"
       transform="translate(-153.25271,-213.69491)">
      <circle
         style="fill:#9195e1;fill-opacity:1;fill-rule:evenodd;stroke:none;stroke-width:10;stroke-linecap:butt;stroke-linejoin:round;stroke-miterlimit:4;stroke-dasharray:none;stroke-dashoffset:0;stroke-opacity:1"
         id="path6573"
         transform="matrix(0.1596245,0,0,0.1596247,158.95416,208.5661)"
         cx="365.22308"
         cy="433.07086"
         r="395.53806" />
      <path
         style="fill:url(#linearGradient2346);fill-opacity:1;fill-rule:evenodd;stroke:none;stroke-width:1px;stroke-linecap:butt;stroke-linejoin:miter;stroke-opacity:1"
         d="m 163.31785,310.28568 c -6.32473,-12.34953 -8.05387,-20.49647 -9.52788,-32.28418 3.81257,-0.10939 4.90008,-2.24285 31.45589,3.47223 7.16773,3.65338 19.48816,5.76222 21.97314,5.67619 1.35759,0.0791 13.05993,-0.67788 15.04445,-1.97661 1.98739,-0.88215 15.99863,-3.10467 21.11682,-3.66075 3.18189,-0.47001 4.50887,-1.12735 7.73783,-1.15937 11.35612,-5.35068 24.3651,-3.5214 29.52452,-2.34558 -0.1077,4.34882 -0.64329,10.45278 -1.44535,13.25753 -0.83486,3.95125 -1.25505,6.04479 -3.20764,9.5936 -0.86304,4.07813 -2.79707,6.71702 -5.82995,11.62656 -3.16637,4.95692 -8.85713,10.12649 -15.35852,15.5514 -4.35459,5.8898 -19.72031,9.02775 -22.94775,10.88715 -8.55892,2.31056 -17.1425,3.16792 -32.16414,-0.86687 -16.64504,-3.63918 -29.62612,-18.61585 -36.37142,-27.7713 z"
         id="path2064"
         sodipodi:nodetypes="ccccccccccccccc"
         inkscape:export-xdpi="24.028801"
         inkscape:export-ydpi="24.028801"
         inkscape:connector-curvature="0" />
      <path
         style="fill:url(#linearGradient2343);fill-opacity:1;fill-rule:evenodd;stroke:none;stroke-width:1px;stroke-linecap:butt;stroke-linejoin:miter;stroke-opacity:1"
         d="m 155.25682,263.1413 c 0.6654,-2.66163 2.25909,-8.13069 3.89624,-10.31356 2.73624,-3.64834 6.99051,-12.21676 10.08436,-16.5017 4.52016,-6.26037 18.25337,-14.60235 24.29417,-17.41846 9.3217,-4.34562 32.45573,-6.36135 45.37965,-0.45838 5.54058,2.53065 16.26536,8.07359 20.62713,12.60546 4.06502,4.22358 10.5201,11.73492 13.7514,18.33522 1.74906,3.57267 7.16364,17.7727 6.41732,17.87684 -4.71335,0.65767 -9.56876,2.38248 -14.43898,3.89623 -3.42766,1.06538 -9.31841,3.89624 -10.08436,3.89624 -3.43786,0 -15.4907,-0.83882 -19.0228,-0.68757 -3.52211,0.15082 -8.86547,0.0959 -10.54273,0.45837 -5.14771,1.11256 -13.46546,-0.10221 -18.33522,-2.97947 -9.24476,1.9224 -12.77368,3.34755 -27.27363,-1.37513 -12.22239,-3.98088 -23.04873,-1.05625 -24.52336,-0.68758 -1.94899,0.48725 -0.57979,-5.24412 -0.22919,-6.64651 z"
         id="path2056"
         sodipodi:nodetypes="cssssssssssscsss"
         inkscape:connector-curvature="0" />
      <path
         style="fill:#b2b4ff;fill-opacity:0.50196078;fill-rule:evenodd;stroke:none;stroke-width:1px;stroke-linecap:butt;stroke-linejoin:miter;stroke-opacity:1"
         d="m 154.11364,269.98938 c -0.46386,0.30755 -0.29852,6.66155 0.0735,9.77357 0.69771,1.34006 -0.75673,3.15055 0.0612,4.42669 1.06229,1.26575 17.96392,4.17448 30.99751,-2.71591 7.16773,3.65338 19.48816,5.76222 21.97314,5.67619 1.35759,0.0791 31.04308,-5.08128 36.16127,-5.63736 3.18189,-0.47001 6.34239,-1.12735 9.57135,-1.15937 2.18853,-0.0793 11.59494,2.01483 14.10855,3.03809 7.97815,3.2478 10.94211,1.92182 12.43548,2.40625 0.3507,-1.15174 0.96205,-3.0669 0.61838,-5.30434 -0.14728,-2.69526 0.80767,-8.85257 -0.22817,-10.57514 -0.86303,-0.73485 0.23011,-2.34712 -0.76943,-2.57144 -3.35671,0.5678 -9.25646,2.30332 -14.14181,3.90936 -4.29978,1.42531 -6.14948,2.85959 -9.02473,2.95456 -2.70396,0.83022 -9.61856,0.40802 -12.73297,0.33881 -6.61848,-1.45305 -13.54767,-4.88569 -20.73662,-6.10729 -3.89623,-0.29835 -11.99097,1.55012 -15.2184,3.40951 -5.12106,-2.50243 -16.63917,-4.01807 -20.88889,-4.38581 -15.49707,-1.34855 -27.70891,1.32477 -32.25937,2.52363 z"
         id="path2058"
         sodipodi:nodetypes="cccccccsccccccccccc"
         inkscape:connector-curvature="0" />
      <circle
         style="fill:none;fill-opacity:0.36184208;fill-rule:evenodd;stroke:#26269a;stroke-width:10.80470085;stroke-linecap:butt;stroke-linejoin:round;stroke-miterlimit:4;stroke-dasharray:none;stroke-dashoffset:0;stroke-opacity:1"
         id="path2052"
         transform="matrix(0.1596245,0,0,0.1596247,158.95416,208.5661)"
         cx="365.22308"
         cy="433.07086"
         r="395.53806" />
      <g
         transform="translate(3.3772247,7.0388147)"
         id="g2373">
        <path
           style="fill:#000000;fill-opacity:1;fill-rule:evenodd;stroke:#000000;stroke-width:1.54999995;stroke-linecap:butt;stroke-linejoin:miter;stroke-miterlimit:4;stroke-dasharray:none;stroke-opacity:1;filter:url(#filter3495)"
           d="m 211.32356,128.37745 c 1.33355,-0.68632 17.24041,1.35319 17.85159,3.07786 0.87206,1.13542 1.20617,10.94739 0.41038,11.69588 -1.00211,1.03148 -22.13027,-0.99964 -23.18655,-2.87267 -0.78052,-1.12703 2.65776,-10.31084 4.92458,-11.90107 z"
           id="path2458"
           sodipodi:nodetypes="ccccc"
           transform="matrix(3.3771096,0,0,3.3771096,-522.87836,-188.0747)"
           inkscape:connector-curvature="0" />
        <path
           sodipodi:nodetypes="ccccc"
           id="path2460"
           d="m 214.85909,134.27001 c 1.33355,-0.68632 3.45183,-1.12168 4.06302,0.60299 3.22908,0.1926 11.45921,7.5297 10.66342,8.27819 -1.00211,1.03148 -22.13027,-0.99964 -23.18655,-2.87267 -0.78052,-1.12703 4.89693,-5.95035 8.46011,-6.00851 z"
           style="fill:#000000;fill-opacity:1;fill-rule:evenodd;stroke:#000000;stroke-width:1.54999995;stroke-linecap:butt;stroke-linejoin:miter;stroke-miterlimit:4;stroke-dasharray:none;stroke-opacity:1;filter:url(#filter3495)"
           transform="matrix(3.3771096,0,0,3.3771096,-522.87836,-188.0747)"
           inkscape:connector-curvature="0" />
        <path
           sodipodi:nodetypes="ccccc"
           id="path2466"
           d="m 211.32356,128.37745 c 1.33355,-0.68632 17.24041,1.35319 17.85159,3.07786 -0.4243,2.31393 -3.74358,4.22987 -5.95358,4.86051 -3.12344,0.44223 -7.98814,-0.52823 -9.28012,-1.69416 -1.25193,-0.89132 -3.9419,-4.06472 -2.61789,-6.24421 z"
           style="fill:#000000;fill-opacity:1;fill-rule:evenodd;stroke:#000000;stroke-width:1.54999995;stroke-linecap:butt;stroke-linejoin:miter;stroke-miterlimit:4;stroke-dasharray:none;stroke-opacity:1;filter:url(#filter3495)"
           transform="matrix(3.3771096,0,0,3.3771096,-522.87836,-188.0747)"
           inkscape:connector-curvature="0" />
        <path
           sodipodi:nodetypes="ccccc"
           id="path2231"
           d="m 190.78446,245.47002 c 4.50355,-2.31778 58.22276,4.56987 60.28678,10.39427 2.94504,3.83444 4.07337,36.97054 1.3859,39.49827 -3.38424,3.48342 -74.73635,-3.3759 -78.30352,-9.70132 -2.6359,-3.80611 8.97554,-34.82084 16.63084,-40.19122 z"
           style="fill:#eee5dd;fill-opacity:1;fill-rule:evenodd;stroke:#94806f;stroke-width:5.23451948;stroke-linecap:butt;stroke-linejoin:miter;stroke-miterlimit:4;stroke-dasharray:none;stroke-opacity:1"
           inkscape:connector-curvature="0" />
        <path
           style="fill:#f3ebe4;fill-opacity:1;fill-rule:evenodd;stroke:#937f6d;stroke-width:5.23451948;stroke-linecap:butt;stroke-linejoin:miter;stroke-miterlimit:4;stroke-dasharray:none;stroke-opacity:0.95686275"
           d="m 202.72434,265.36984 c 4.50354,-2.31778 11.6572,-3.78804 13.72126,2.03636 10.90496,0.65043 38.69901,25.42863 36.01154,27.95636 -3.38424,3.48342 -74.73635,-3.3759 -78.30352,-9.70132 -2.6359,-3.80611 16.53747,-20.09499 28.57072,-20.2914 z"
           id="path2233"
           sodipodi:nodetypes="ccccc"
           inkscape:connector-curvature="0" />
        <path
           style="fill:#f7f0e9;fill-opacity:1;fill-rule:evenodd;stroke:#9e8b7a;stroke-width:5.23451948;stroke-linecap:butt;stroke-linejoin:miter;stroke-miterlimit:4;stroke-dasharray:none;stroke-opacity:1"
           d="m 190.78446,245.47002 c 4.50355,-2.31778 58.22276,4.56987 60.28678,10.39427 -1.43291,7.81439 -12.64248,14.28473 -20.10589,16.41447 -10.5482,1.49346 -26.97683,-1.78389 -31.33999,-5.72136 -4.2279,-3.01008 -13.31222,-13.727 -8.8409,-21.08738 z"
           id="path2235"
           sodipodi:nodetypes="ccccc"
           inkscape:connector-curvature="0" />
      </g>
    </g>
  </g>
</svg>
