<?xml version="1.0" encoding="UTF-8" standalone="no"?>
<svg
   xmlns:dc="http://purl.org/dc/elements/1.1/"
   xmlns:cc="http://creativecommons.org/ns#"
   xmlns:rdf="http://www.w3.org/1999/02/22-rdf-syntax-ns#"
   xmlns:svg="http://www.w3.org/2000/svg"
   xmlns="http://www.w3.org/2000/svg"
   id="svg173"
   enable-background="new 0.0 0.0 202.0 202.0"
   viewBox="0.0 0.0 202.0 202.0"
   overflow="visible"
   height="202.0px"
   width="202.0px"
   version="1.1">
<!-- Official SeaMonkey logo

    This Source Code Form is subject to the terms of the Mozilla Public
    License, v. 2.0. If a copy of the MPL was not distributed with this
    file, You can obtain one at https://mozilla.org/MPL/2.0/.

    Prepared from the SeaMonkey Artwork project code
    (see https://www.seamonkey-project.org/dev/artwork for more info).

-->
<!-- Created with Inkscape (http://www.inkscape.org/) -->
  <metadata
     id="metadata177">
    <rdf:RDF>
      <cc:Work
         rdf:about="">
        <dc:format>image/svg+xml</dc:format>
        <dc:type
           rdf:resource="http://purl.org/dc/dcmitype/StillImage" />
        <dc:title></dc:title>
      </cc:Work>
    </rdf:RDF>
  </metadata>
  <defs
     id="defs105">
    <linearGradient
       y2="0"
       x2="819.2"
       y1="0"
       x1="-819.2"
       gradientTransform="matrix(-0.02980042,-0.05162048,0.10150147,-0.05860901,139.75,135.45)"
       gradientUnits="userSpaceOnUse"
       id="Grad1">
      <stop
         id="stop10"
         stop-opacity="0.28235295"
         stop-color="#FFFFFF"
         offset="0.0" />
      <stop
         id="stop12"
         stop-opacity="0.0"
         stop-color="#FFFFFF"
         offset="1.0" />
    </linearGradient>
    <linearGradient
       y2="0"
       x2="819.2"
       y1="0"
       x1="-819.2"
       gradientTransform="matrix(0.02276611,0.05506897,-0.10826111,0.04475403,74.85,61.55)"
       gradientUnits="userSpaceOnUse"
       id="Grad2">
      <stop
         id="stop15"
         stop-opacity="0.2509804"
         stop-color="#FFFFFF"
         offset="0.0" />
      <stop
         id="stop17"
         stop-opacity="0.0"
         stop-color="#FFFFFF"
         offset="1.0" />
    </linearGradient>
    <linearGradient
       y2="0"
       x2="819.2"
       y1="0"
       x1="-819.2"
       gradientTransform="matrix(-0.01377869,-0.02386475,0.06390381,-0.03691101,112.85,110.8)"
       gradientUnits="userSpaceOnUse"
       id="Grad3">
      <stop
         id="stop20"
         stop-opacity="0.7529412"
         stop-color="#FFFFFF"
         offset="0.0" />
      <stop
         id="stop22"
         stop-opacity="0.0"
         stop-color="#FFFFFF"
         offset="1.0" />
    </linearGradient>
    <linearGradient
       y2="0"
       x2="819.2"
       y1="0"
       x1="-819.2"
       gradientTransform="matrix(0.01478577,0.02560425,-0.06390381,0.03691101,124.65,67.85)"
       gradientUnits="userSpaceOnUse"
       id="Grad4">
      <stop
         id="stop25"
         stop-opacity="0.6627451"
         stop-color="#FFFFFF"
         offset="0.078431375" />
      <stop
         id="stop27"
         stop-opacity="0.0"
         stop-color="#FFFFFF"
         offset="1.0" />
    </linearGradient>
    <linearGradient
       y2="0"
       x2="819.2"
       y1="0"
       x1="-819.2"
       gradientTransform="matrix(-0.01382446,0.05155945,-0.0725708,-0.0194397,106.45,90.35)"
       gradientUnits="userSpaceOnUse"
       id="Grad5">
      <stop
         id="stop30"
         stop-color="#FFFFFF"
         offset="0.0" />
      <stop
         id="stop32"
         stop-opacity="0.0"
         stop-color="#FFFFFF"
         offset="1.0" />
    </linearGradient>
    <radialGradient
       cy="0"
       cx="0"
       r="819.2"
       gradientTransform="matrix(0.08848572,0,0,0.08848572,102.7,84.95)"
       gradientUnits="userSpaceOnUse"
       id="Grad6">
      <stop
         id="stop35"
         stop-color="#188BFE"
         offset="0.0" />
      <stop
         id="stop37"
         stop-opacity="0.5019608"
         stop-color="#A6CAF0"
         offset="1.0" />
    </radialGradient>
    <linearGradient
       y2="0"
       x2="819.2"
       y1="0"
       x1="-819.2"
       gradientTransform="matrix(0.00497437,-0.00926209,0.01187134,0.00636291,147.9,87.6)"
       gradientUnits="userSpaceOnUse"
       id="Grad7">
      <stop
         id="stop40"
         stop-opacity="0.0"
         stop-color="#FFFFFF"
         offset="0.0" />
      <stop
         id="stop42"
         stop-opacity="0.5019608"
         stop-color="#FFFFFF"
         offset="1.0" />
    </linearGradient>
    <linearGradient
       y2="0"
       x2="819.2"
       y1="0"
       x1="-819.2"
       gradientTransform="matrix(0.00318909,-0.00860596,0.00933838,0.00344849,148.65,74.3)"
       gradientUnits="userSpaceOnUse"
       id="Grad8">
      <stop
         id="stop45"
         stop-opacity="0.0"
         stop-color="#FFFFFF"
         offset="0.0" />
      <stop
         id="stop47"
         stop-opacity="0.5019608"
         stop-color="#FFFFFF"
         offset="1.0" />
    </linearGradient>
    <linearGradient
       y2="0"
       x2="819.2"
       y1="0"
       x1="-819.2"
       gradientTransform="matrix(0.00167847,-0.00621033,0.00637817,0.00170898,147.45,62.35)"
       gradientUnits="userSpaceOnUse"
       id="Grad9">
      <stop
         id="stop50"
         stop-opacity="0.0"
         stop-color="#FFFFFF"
         offset="0.0" />
      <stop
         id="stop52"
         stop-opacity="0.5019608"
         stop-color="#FFFFFF"
         offset="1.0" />
    </linearGradient>
    <linearGradient
       y2="0"
       x2="819.2"
       y1="0"
       x1="-819.2"
       gradientTransform="matrix(9.3078613e-4,-0.00343323,0.00375366,0.00100708,144.5,52.95)"
       gradientUnits="userSpaceOnUse"
       id="Grad10">
      <stop
         id="stop55"
         stop-opacity="0.0"
         stop-color="#FFFFFF"
         offset="0.0" />
      <stop
         id="stop57"
         stop-opacity="0.5019608"
         stop-color="#FFFFFF"
         offset="1.0" />
    </linearGradient>
    <linearGradient
       y2="0"
       x2="819.2"
       y1="0"
       x1="-819.2"
       gradientTransform="matrix(0.00770569,-0.00982666,0.01483154,0.01164246,145.05,102.45)"
       gradientUnits="userSpaceOnUse"
       id="Grad11">
      <stop
         id="stop60"
         stop-opacity="0.0"
         stop-color="#FFFFFF"
         offset="0.0" />
      <stop
         id="stop62"
         stop-opacity="0.5019608"
         stop-color="#FFFFFF"
         offset="1.0" />
    </linearGradient>
    <linearGradient
       y2="0"
       x2="819.2"
       y1="0"
       x1="-819.2"
       gradientTransform="matrix(0.00814819,0.00468445,-0.00396729,0.00692749,65.6,150.7)"
       gradientUnits="userSpaceOnUse"
       id="Grad12">
      <stop
         id="stop65"
         stop-opacity="0.0"
         stop-color="#FFFFFF"
         offset="0.0" />
      <stop
         id="stop67"
         stop-opacity="0.5019608"
         stop-color="#FFFFFF"
         offset="1.0" />
    </linearGradient>
    <linearGradient
       y2="0"
       x2="819.2"
       y1="0"
       x1="-819.2"
       gradientTransform="matrix(0.00517273,0.00241089,-0.00442505,0.00958252,79.8,146.3)"
       gradientUnits="userSpaceOnUse"
       id="Grad13">
      <stop
         id="stop70"
         stop-opacity="0.0"
         stop-color="#FFFFFF"
         offset="0.0" />
      <stop
         id="stop72"
         stop-opacity="0.5019608"
         stop-color="#FFFFFF"
         offset="1.0" />
    </linearGradient>
    <linearGradient
       y2="0"
       x2="819.2"
       y1="0"
       x1="-819.2"
       gradientTransform="matrix(0.0080719,-0.00523376,0.01164246,0.01797485,138,114)"
       gradientUnits="userSpaceOnUse"
       id="Grad14">
      <stop
         id="stop75"
         stop-opacity="0.0"
         stop-color="#FFFFFF"
         offset="0.0" />
      <stop
         id="stop77"
         stop-opacity="0.5019608"
         stop-color="#FFFFFF"
         offset="1.0" />
    </linearGradient>
    <linearGradient
       y2="0"
       x2="819.2"
       y1="0"
       x1="-819.2"
       gradientTransform="matrix(0.00566101,-0.00151062,0.00544739,0.02049255,128.3,122.15)"
       gradientUnits="userSpaceOnUse"
       id="Grad15">
      <stop
         id="stop80"
         stop-opacity="0.0"
         stop-color="#FFFFFF"
         offset="0.0" />
      <stop
         id="stop82"
         stop-opacity="0.5019608"
         stop-color="#FFFFFF"
         offset="1.0" />
    </linearGradient>
    <linearGradient
       y2="0"
       x2="819.2"
       y1="0"
       x1="-819.2"
       gradientTransform="matrix(0.004776,-5.79834e-4,0.00231934,0.01898193,118.5,128.4)"
       gradientUnits="userSpaceOnUse"
       id="Grad16">
      <stop
         id="stop85"
         stop-opacity="0.0"
         stop-color="#FFFFFF"
         offset="0.0" />
      <stop
         id="stop87"
         stop-opacity="0.5019608"
         stop-color="#FFFFFF"
         offset="1.0" />
    </linearGradient>
    <linearGradient
       y2="0"
       x2="819.2"
       y1="0"
       x1="-819.2"
       gradientTransform="matrix(0.00550842,0.00161743,-0.00361633,0.01231384,89.95,142.45)"
       gradientUnits="userSpaceOnUse"
       id="Grad17">
      <stop
         id="stop90"
         stop-opacity="0.0"
         stop-color="#FFFFFF"
         offset="0.0" />
      <stop
         id="stop92"
         stop-opacity="0.5019608"
         stop-color="#FFFFFF"
         offset="1.0" />
    </linearGradient>
    <linearGradient
       y2="0"
       x2="819.2"
       y1="0"
       x1="-819.2"
       gradientTransform="matrix(0.00509644,5.79834e-4,-0.00170898,0.01495361,100.05,138.3)"
       gradientUnits="userSpaceOnUse"
       id="Grad18">
      <stop
         id="stop95"
         stop-opacity="0.0"
         stop-color="#FFFFFF"
         offset="0.0" />
      <stop
         id="stop97"
         stop-opacity="0.5019608"
         stop-color="#FFFFFF"
         offset="1.0" />
    </linearGradient>
    <linearGradient
       y2="0"
       x2="819.2"
       y1="0"
       x1="-819.2"
       gradientTransform="matrix(0.00476074,-1.0681152e-4,4.4250488e-4,0.01708984,109.55,133.7)"
       gradientUnits="userSpaceOnUse"
       id="Grad19">
      <stop
         id="stop100"
         stop-opacity="0.0"
         stop-color="#FFFFFF"
         offset="0.0" />
      <stop
         id="stop102"
         stop-opacity="0.5019608"
         stop-color="#FFFFFF"
         offset="1.0" />
    </linearGradient>
  </defs>
  <g
     transform="translate(0,1.961165)"
     id="g171">
    <g
       id="g169">
      <g
         id="g167">
        <path
           style="fill:#000089;stroke-linecap:round;stroke-linejoin:round"
           id="path107"
           d="m 171.2,169.2 c -19.33333,19.4 -42.66666,29.1 -70,29.1 -27.36667,0 -50.750003,-9.7 -70.15,-29.1 C 11.683332,149.86667 2.0166655,126.51667 2.05,99.15 2.0166667,71.78333 11.683333,48.416664 31.05,29.05 50.45,9.683332 73.83333,-9.536743e-7 101.2,0 c 27.33333,0 50.66665,9.683333 70,29.05 19.36667,19.366664 29.06666,42.73333 29.1,70.1 -0.0333,27.36666 -9.73333,50.71667 -29.1,70.05 z" />
        <path
           style="fill:#9293fe;stroke-linecap:round;stroke-linejoin:round"
           id="path109"
           d="m 164.9,93.35 3.6,-1.3 3.1,-1.2 c 8.03333,-3.26667 16.18333,-5.550005 24.45,-6.85 l 0.1,0.8 c 0.66667,4.633334 1,9.41667 1,14.35 v 0.15 c -17.30001,-2.3 -34.10001,-0.68333 -50.4,4.85 -6.8,2.7 -14.56667,5.28333 -23.3,7.75 -22.06667,5.16667 -44.98334,3.38333 -68.75,-5.35 l -3.25,-1.15 c -15.8,-5.43333 -31.233333,-7.76667 -46.3,-7 0.033333,-3.23333 0.2,-6.39999 0.5,-9.5 l 0.2,-2 c 3.699999,-1.066664 7.449999,-1.76666 11.25,-2.1 l 4.4,-0.2 c 7.566666,-0.06667 15.333332,1.36667 23.3,4.3 13.966666,5.166666 27.383334,5.7 40.25,1.6 L 86,90.85 c 27.46667,10.1 53.76666,10.93333 78.9,2.5 z m -18.15,10.8 h 0.05 z" />
        <path
           style="fill:#5050fe;stroke-linecap:round;stroke-linejoin:round"
           id="path111"
           d="m 197.15,99.3 c 0,4.26667 -0.25,8.41667 -0.75,12.45 -5.76667,-0.5 -11.65,-1.85 -17.65,-4.05 -11.03334,-4.03334 -21.68333,-5.21667 -31.95,-3.55 16.26667,-5.53333 33.04999,-7.15 50.35,-4.85 z m -50.35,4.85 h -0.05 z" />
        <path
           style="fill:#0101e4;stroke-linecap:round;stroke-linejoin:round"
           id="path113"
           d="m 196.4,111.75 c -1.56667,13 -5.63334,24.96666 -12.2,35.9 -4.1,6.83332 -9.16666,13.28332 -15.2,19.35 -18.73334,18.76666 -41.33334,28.15 -67.8,28.15 -26.533336,0 -49.183337,-9.38334 -67.95,-28.15 -6.066668,-6.06667 -11.133335,-12.51666 -15.2,-19.35 -6.9,-11.53333 -11.0333336,-24.23333 -12.4,-38.1 13.533334,3.8 26.516668,3.18333 38.95,-1.85 2.266665,-0.93333 4.549998,-1.69999 6.85,-2.3 l 3.25,1.15 c 23.76667,8.73333 46.68333,10.51667 68.75,5.35 8.73333,-2.46667 16.51667,-5.05 23.35,-7.75 10.26667,-1.66666 20.91666,-0.48333 31.95,3.55 6,2.2 11.88333,3.55 17.65,4.05 z" />
        <path
           style="fill:#6263fd;stroke-linecap:round;stroke-linejoin:round"
           id="path115"
           d="m 5.65,109.55 c -0.3333334,-3.4 -0.5,-6.86667 -0.5,-10.4 V 98.4 c 15.066667,-0.76667 30.5,1.56667 46.3,7 -2.3,0.6 -4.58333,1.36666 -6.85,2.3 -12.433336,5.03333 -25.41667,5.65 -38.95,1.85 z" />
        <path
           style="fill:#5c5cbe;stroke-linecap:round;stroke-linejoin:round"
           id="path117"
           d="m 21.5,84.6 c 20.433334,-3.96667 41.61667,-2 63.55,5.9 C 72.183334,94.6 58.766666,94.066666 44.8,88.9 36.833332,85.96667 29.066666,84.53333 21.5,84.6 Z" />
        <path
           style="fill:#4d4db7;stroke-linecap:round;stroke-linejoin:round"
           id="path119"
           d="m 85.05,90.5 0.75,-0.25 3.7,-1.35 c 14.16666,-5.73333 29.06667,-5.73333 44.7,0 7.53334,2.76667 14.91667,4.200006 22.15,4.3 h 0.25 l 8.3,0.15 c -25.13334,8.43333 -51.43334,7.6 -78.9,-2.5 z" />
        <path
           style="fill:url(#Grad1);stroke-linecap:round;stroke-linejoin:round"
           id="path121"
           d="m 169,167 c -18.73334,18.76666 -41.33334,28.15 -67.8,28.15 C 74.666664,195.15 52.016663,185.76666 33.25,167 14.516666,148.26666 5.1499996,125.64999 5.15,99.15 c 0,-26.5 9.366666,-49.133334 28.1,-67.9 18.76667,-18.733334 41.41667,-28.1000004 67.95,-28.1 26.46666,0 49.06666,9.366666 67.8,28.1 18.76666,18.76667 28.15,41.40001 28.15,67.9 0,26.49999 -9.38334,49.11666 -28.15,67.85 z" />
        <path
           style="fill:url(#Grad2);stroke-linecap:round;stroke-linejoin:round"
           id="path123"
           d="M 169.05,167.1 C 150.25,185.8 127.6,195.16667 101.1,195.2 74.6,195.16666 51.999996,185.79999 33.3,167.1 14.5,148.3 5.116667,125.65 5.15,99.15 5.116667,72.683334 14.5,50.083332 33.3,31.35 52,12.583334 74.600006,3.2000008 101.1,3.2 c 26.50001,0 49.15,9.383333 67.95,28.15 18.7,18.733336 28.06667,41.333334 28.1,67.8 -0.0333,26.49999 -9.4,49.14999 -28.1,67.95 z" />
        <path
           style="fill:#ffffff;stroke-linecap:round;stroke-linejoin:round"
           id="path125"
           d="M 166,88.95 V 89 l -1.45,10.05 c -1.93333,9 -5.85,17.08334 -11.75,24.25 -6.23333,7.46666 -14.68333,13.9 -25.35,19.3 -6.36666,3.13334 -13.49999,5.91666 -21.4,8.35 -6.56667,1.96666 -13.66667,3.71666 -21.3,5.25 -6.9,1.33333 -14.25,2.46666 -22.05,3.4 -3.9,2.66668 -7.833335,5.61667 -11.8,8.85 l -0.1,0.05 C 34.233334,181.7 18.65,189.41666 4.05,191.65 3.15,191.75 2.3333333,191.5667 1.6,191.1 L 1.5,191.05 C 0.8333333,190.58334 0.3833333,189.96667 0.15,189.2 L 0.1,189 c -0.20000002,-0.83333 -0.11666668,-1.61667 0.25,-2.35 l 0.05,-0.1 c 0.4000001,-0.8 1.0166667,-1.35 1.85,-1.65 23.066666,-8.6 44.1,-23.81666 63.1,-45.65 19,-21.86667 31.583334,-44.316666 37.75,-67.35 6.66666,-24.933333 15.13333,-39.716666 25.4,-44.35 10.83333,-5.266667 18.91666,-5.916667 24.25,-1.95 l 0.1,0.05 c 3.83333,2.466667 4.85,6.066667 3.05,10.8 -1.03333,2.9 -3.56666,6.383332 -7.6,10.45 l -0.8,0.8 1.1,0.3 c 2.6,0.766666 4.9,1.95 6.9,3.55 3.59999,2.866664 6.11665,6.483333 7.55,10.85 1.2,3.86666 2.11667,8.166666 2.75,12.9 0.53334,4.766666 0.60001,9.31666 0.2,13.65 z m -1.45,10.1 V 99.1 Z M 84.75,156.2 H 84.7 Z M 4.05,191.65 V 191.6 Z M 0.1,189 v -0.05 z m 2.15,-4.1 H 2.3 Z" />
        <path
           style="fill:#3399ff;stroke-linecap:round;stroke-linejoin:round"
           id="path127"
           d="m 143.95,45.55 -0.1,0.25 v 0.25 C 157.88333,91.149994 141.36667,121.96666 94.3,138.5 79.5,143.59999 64.183334,152.53333 48.35,165.3 34.516666,176.33334 21.4,183.40001 9,186.5 c 21.566666,-9.06667 41.35,-23.93333 59.35,-44.6 19.466666,-22.36667 32.33333,-45.35001 38.6,-68.95 6.26667,-23.333335 14.03334,-37.266666 23.3,-41.8 9.16667,-4.466666 15.96667,-5.2 20.4,-2.2 2,1.4 2.5,3.41667 1.5,6.05 -1.1,2.833332 -3.83333,6.35 -8.2,10.55 z M 48.35,165.3 H 48.4 Z M 150.65,28.95 V 29 Z" />
        <path
           style="fill:#0582fe;stroke-linecap:round;stroke-linejoin:round"
           id="path129"
           d="m 143.85,45.8 0.1,-0.25 c 4.36667,-4.2 7.1,-7.716668 8.2,-10.55 1,-2.633335 0.5,-4.633335 -1.5,-6 -4.43334,-3.033333 -11.23334,-2.316666 -20.4,2.15 -9.26667,4.533334 -17.03334,18.46667 -23.3,41.8 -6.26667,23.6 -19.133334,46.58334 -38.6,68.95 -18,20.66667 -37.783334,35.53333 -59.35,44.6 12.400002,-3.09999 25.533337,-10.16666 39.4,-21.2 15.8,-12.76667 31.1,-21.70001 45.9,-26.8 47.06667,-16.53334 63.58333,-47.350006 49.55,-92.45 z M 48.4,165.3 H 48.35 Z M 150.65,29 v -0.05 z m 0.55,-0.85 c 2.46666,1.666666 3.09999,4.083334 1.9,7.25 -1.1,2.866666 -3.83334,6.416666 -8.2,10.65 14.1,45.533336 -2.65,76.66667 -50.25,93.4 C 79.91667,144.51666 64.700005,153.4 49,166.1 32.866665,178.93333 17.73333,186.45 3.6,188.65 l -0.35,-0.05 -0.2,-0.3 v -0.35 l 0.3,-0.25 C 26.816668,178.93333 48.233337,163.45 67.6,141.25 86.933334,118.98333 99.73334,96.13333 106,72.7 c 6.33334,-23.76667 14.26667,-37.916667 23.8,-42.45 9.6,-4.666668 16.73333,-5.366669 21.4,-2.1 z" />
        <path
           style="fill:url(#Grad3);stroke-linecap:round;stroke-linejoin:round"
           id="path131"
           d="m 149.15,31.1 c 0.83332,0.700001 1.01666,1.7 0.55,3 -1.03334,2.533335 -3.55,5.700003 -7.55,9.5 -0.43334,0.433333 -0.71667,0.933333 -0.85,1.5 -0.16667,0.566668 -0.16667,1.15 0,1.75 3.3,10.566668 4.85001,20.333334 4.65,29.3 -0.63333,27.83334 -18.13333,47.78333 -52.5,59.85 -9.7,3.33333 -19.6,8.28333 -29.7,14.85 l 6.6,-7.2 c 12.73333,-14.66666 22.683325,-29.58333 29.85,-44.75 3.96666,-8.333334 7.08333,-16.75 9.35,-25.25 5.90001,-22.3 13.16667,-35.683337 21.8,-40.15 8.03333,-3.866667 13.96667,-4.666666 17.8,-2.4 z" />
        <path
           style="fill:url(#Grad4);stroke-linecap:round;stroke-linejoin:round"
           id="path133"
           d="m 149.15,31.1 c 0.83332,0.700001 1.01666,1.7 0.55,3 -1.03334,2.533335 -3.55,5.700003 -7.55,9.5 -0.43334,0.433333 -0.71667,0.933333 -0.85,1.5 -0.16667,0.566668 -0.16667,1.15 0,1.75 3.3,10.566668 4.85001,20.333334 4.65,29.3 -0.63333,27.83334 -18.13333,47.78333 -52.5,59.85 -9.7,3.33333 -19.6,8.28333 -29.7,14.85 l 6.6,-7.2 c 12.73333,-14.66666 22.683325,-29.58333 29.85,-44.75 3.96666,-8.333334 7.08333,-16.75 9.35,-25.25 5.90001,-22.3 13.16667,-35.683337 21.8,-40.15 8.03333,-3.866667 13.96667,-4.666666 17.8,-2.4 z" />
        <path
           style="fill:url(#Grad5);stroke-linecap:round;stroke-linejoin:round"
           id="path135"
           d="M 149.4,32.15 148.6,32 c -3.6,-2.033333 -9.18333,-1.216665 -16.75,2.45 -8.39999,4.4 -15.49999,17.55 -21.3,39.45 -2.26667,8.56667 -5.4,17.05 -9.4,25.45 -7.2,15.23333 -17.2,30.21667 -30,44.95 l -6.6,7.3 c -0.2,0.2 -0.45,0.31667 -0.75,0.35 -0.266667,0 -0.5,-0.10001 -0.7,-0.3 -0.233335,-0.2 -0.35,-0.45 -0.35,-0.75 -0.03333,-0.26667 0.05,-0.5 0.25,-0.7 l 6.55,-7.25 c 12.66667,-14.56667 22.56667,-29.40001 29.7,-44.5 3.93333,-8.3 7.03333,-16.65 9.3,-25.05 6,-22.733336 13.46667,-36.33334 22.4,-40.8 8.43333,-4.1 14.66667,-4.883333 18.7,-2.35 l 0.5,0.6 -0.1,0.8 c -0.16667,0.233333 -0.38334,0.4 -0.65,0.5 z" />
        <path
           style="fill:url(#Grad6);stroke-linecap:round;stroke-linejoin:round"
           id="path137"
           d="m 162.5,88.6 c -0.43333,4.066664 -0.9,7.316664 -1.4,9.75 -1.8,8.43333 -5.46667,16 -11,22.7 -5.93333,7.13333 -14.01666,13.26667 -24.25,18.4 -6.16667,3.06666 -13.11666,5.78334 -20.85,8.15 -6.46667,1.93334 -13.45,3.65 -20.95,5.15 -8.099995,1.56667 -16.8,2.83333 -26.1,3.8 14.83333,-10.26667 24.38333,-16.61668 28.65,-19.05 6.43333,-3.8 12.25,-7.71667 17.45,-11.75 5.56667,-4.4 10.38333,-8.93333 14.45,-13.6 3.66666,-4.26667 6.73333,-8.63334 9.2,-13.1 2.33333,-4.233334 4.14999,-8.6 5.45,-13.1 1.3,-4.633334 2.03333,-9.366664 2.2,-14.2 l 0.05,-1.45 c 0.0667,-5.366666 -0.51667,-11.866666 -1.75,-19.5 8.56666,-1.266667 15.11666,-0.1 19.65,3.5 3.06667,2.433334 5.2,5.483333 6.4,9.15 1.16667,3.66667 2.03334,7.75 2.6,12.25 0.53334,4.5 0.60001,8.8 0.2,12.9 z" />
        <path
           style="fill:url(#Grad7);stroke-linecap:round;stroke-linejoin:round"
           id="path139"
           d="m 162.2,90.85 c -0.23333,2.53333 -0.6,5 -1.1,7.4 -2.13334,-1.833336 -4.31667,-3.450005 -6.55,-4.85 -6.03334,-3.9 -13.05,-6.8 -21.05,-8.7 0.66667,-2.66667 1.16667,-5.366664 1.5,-8.1 7.86667,0.63334 14.86667,2.2 21,4.7 2.09999,0.83334 4.21666,2 6.35,3.5 z" />
        <path
           style="fill:url(#Grad8);stroke-linecap:round;stroke-linejoin:round"
           id="path141"
           d="m 161.35,73.45 0.95,8.8 c -1.86667,-1.200005 -3.7,-2.16667 -5.5,-2.9 -6.3,-2.56667 -13.5,-4.166666 -21.6,-4.8 l 0.15,-2.8 0.05,-1.45 -0.05,-3.8 c 9.56667,-0.73333 17.91666,0.38334 25.05,3.35 l 0.4,0.2 z m -0.95,-3.6 h -0.05 z" />
        <path
           style="fill:url(#Grad9);stroke-linecap:round;stroke-linejoin:round"
           id="path143"
           d="m 160.25,67.55 c -7.16667,-2.83333 -15.5,-3.900002 -25,-3.2 L 134.7,58 c 8.33333,-1.533333 15.8,-1.35 22.4,0.55 1.1,1.83333 1.94999,3.983333 2.55,6.45 z" />
        <path
           style="fill:url(#Grad10);stroke-linecap:round;stroke-linejoin:round"
           id="path145"
           d="m 155.1,55.95 c -6.19999,-1.4 -13.1,-1.4 -20.7,0 l -0.75,-5.15 c 8.56666,-1.266667 15.11666,-0.1 19.65,3.5 z" />
        <path
           style="fill:url(#Grad11);stroke-linecap:round;stroke-linejoin:round"
           id="path147"
           d="m 132.95,86.7 c 7.76667,1.866666 14.58334,4.68333 20.45,8.45 2.43333,1.56667 4.81666,3.38333 7.15,5.45 -1.5,5.9 -3.96667,11.38334 -7.4,16.45 -6.26667,-10.26667 -13.98333,-17.8 -23.15,-22.6 1.16667,-2.533336 2.15001,-5.11667 2.95,-7.75 z" />
        <path
           style="fill:url(#Grad12);stroke-linecap:round;stroke-linejoin:round"
           id="path149"
           d="m 57.95,156.55 c 6.8,-4.73333 12.5,-8.61667 17.1,-11.65 -0.599995,3.19999 -1.51666,6.48333 -2.75,9.85 z" />
        <path
           style="fill:url(#Grad13);stroke-linecap:round;stroke-linejoin:round"
           id="path151"
           d="m 77.45,143.3 c 3.3,-2.2 5.91667,-3.86667 7.85,-5 -0.06667,4.63333 -0.78334,9.51667 -2.15,14.65 l -8.55,1.45 c 1.333334,-3.76667 2.28333,-7.46667 2.85,-11.1 z" />
        <path
           style="fill:url(#Grad14);stroke-linecap:round;stroke-linejoin:round"
           id="path153"
           d="m 150.1,121.05 c -2.9,3.46667 -6.30001,6.7 -10.2,9.7 -3.53333,-9.43333 -8.41666,-18.6 -14.65,-27.5 l 2.45,-4.2 1.4,-2.65 c 8.86666,4.63333 16.33332,11.95 22.4,21.95 l 0.3,0.55 z" />
        <path
           style="fill:url(#Grad15);stroke-linecap:round;stroke-linejoin:round"
           id="path155"
           d="m 127,138.9 c -1.5,-9.66666 -4.13333,-18.81666 -7.9,-27.45 l 4.9,-6.35 c 6.03334,8.7 10.75,17.68334 14.15,26.95 -3.36666,2.43334 -7.08332,4.71666 -11.15,6.85 z" />
        <path
           style="fill:url(#Grad16);stroke-linecap:round;stroke-linejoin:round"
           id="path157"
           d="m 117.55,113.2 c 3.56667,8.4 6.06667,17.28334 7.5,26.65 l -8.2,3.65 c -0.63333,-8.59999 -2.18334,-16.86666 -4.65,-24.8 z" />
        <path
           style="fill:url(#Grad17);stroke-linecap:round;stroke-linejoin:round"
           id="path159"
           d="m 94.5,132.55 c 0.4,5.83333 0.13333,11.86666 -0.8,18.1 l -8.3,1.85 c 1.36666,-5.40001 2.016664,-10.55 1.95,-15.45 z" />
        <path
           style="fill:url(#Grad18);stroke-linecap:round;stroke-linejoin:round"
           id="path161"
           d="m 104.15,147.9 -8.25,2.25 c 0.933336,-6.5 1.13333,-12.80001 0.6,-18.9 l 6.5,-4.65 c 1.29999,6.73333 1.68333,13.83332 1.15,21.3 z" />
        <path
           style="fill:url(#Grad19);stroke-linecap:round;stroke-linejoin:round"
           id="path163"
           d="m 104.8,125.15 5.7,-4.85 c 2.29999,7.7 3.71666,15.7 4.25,24 l -8.5,2.95 c 0.5,-7.73334 0.0167,-15.1 -1.45,-22.1 z" />
        <path
           style="fill:#0582fe;stroke-linecap:round;stroke-linejoin:round"
           id="path165"
           d="m 160.2,63.3 c 1.16667,3.7 2.03334,7.81667 2.6,12.35 0.53334,4.533334 0.60001,8.86667 0.2,13 -0.43333,4.1 -0.9,7.36666 -1.4,9.8 -1.83332,8.53333 -5.53332,16.18333 -11.1,22.95 -6,7.16667 -14.13333,13.33334 -24.4,18.5 -6.23333,3.06666 -13.2,5.8 -20.9,8.2 -6.5,1.93334 -13.516666,3.65 -21.05,5.15 -8.1,1.56667 -16.816664,2.83333 -26.15,3.8 l -0.35,-0.05 -0.2,-0.25 v -0.35 l 0.2,-0.25 c 14.83334,-10.26667 24.4,-16.61666 28.7,-19.05 6.43333,-3.8 12.25,-7.71667 17.45,-11.75 5.53334,-4.36666 10.31667,-8.86666 14.35,-13.5 3.6,-4.2 6.61666,-8.48333 9.05,-12.85 l 0.05,-0.2 c 2.33333,-4.2 4.15,-8.53334 5.45,-13 1.26667,-4.599995 1.98335,-9.28333 2.15,-14.05 l 0.05,-1.45 c 0.0667,-5.33333 -0.51667,-11.8 -1.75,-19.4 l 0.1,-0.4 c 0.0667,-0.100002 0.18333,-0.166668 0.35,-0.2 8.7,-1.3 15.36667,-0.1 20,3.6 3.13334,2.5 5.33333,5.633333 6.6,9.4 z m -27.5,22.5 v 0.05 z m 29.1,-10.05 c -0.56666,-4.46667 -1.41667,-8.51667 -2.55,-12.15 -1.16667,-3.566667 -3.25,-6.533334 -6.25,-8.9 -4.36667,-3.433334 -10.61667,-4.583335 -18.75,-3.45 1.16667,7.433334 1.71667,13.78333 1.65,19.05 l -0.05,1.5 c -0.16667,4.866664 -0.9,9.63333 -2.2,14.3 -1.30001,4.43333 -3.10001,8.75 -5.4,12.95 l -0.05,0.25 c -2.5,4.5 -5.6,8.90001 -9.3,13.2 -4.1,4.66666 -8.93333,9.21667 -14.5,13.65 -5.23333,4.03333 -11.08333,7.96667 -17.55,11.8 -4.13333,2.33333 -13.15,8.3 -27.05,17.9 8.599994,-0.93333 16.65,-2.13333 24.15,-3.6 7.5,-1.5 14.483334,-3.2 20.95,-5.1 7.66667,-2.36666 14.58333,-5.08332 20.75,-8.15 10.13334,-5.09999 18.16668,-11.18333 24.1,-18.25 5.46666,-6.63333 9.08333,-14.13333 10.85,-22.5 0.5,-2.433334 0.96667,-5.666664 1.4,-9.7 0.40001,-4.06667 0.33334,-8.33334 -0.2,-12.8 z" />
      </g>
    </g>
  </g>
</svg>
