<!-- This Source Code Form is subject to the terms of the Mozilla Public
  - License, v. 2.0. If a copy of the MPL was not distributed with this
  - file, You can obtain one at http://mozilla.org/MPL/2.0/. -->
<svg width="12" height="12" xmlns="http://www.w3.org/2000/svg" fill-opacity="context-fill-opacity" viewBox="0 0 12 12">
  <path d="M6 .5A5.5 5.5 0 0 0 .5 6a5.5 5.5 0 0 0 2 4.232V8.5c0-.554.446-1 1-1h1v-.508A2.5 2.5 0 0 1 3.5 5 2.5 2.5 0 0 1 6 2.5 2.5 2.5 0 0 1 8.5 5a2.5 2.5 0 0 1-1 1.992V7.5h1c.554 0 1 .446 1 1v1.732A5.5 5.5 0 0 0 11.5 6 5.5 5.5 0 0 0 6 .5Z" fill="context-fill"/>
  <path d="M6 0C2.692 0 0 2.692 0 6s2.692 6 6 6 6-2.692 6-6-2.692-6-6-6Zm0 1c2.767 0 5 2.233 5 5a4.983 4.983 0 0 1-1 3.004V8.5C10 7.678 9.322 7 8.5 7h-.373c.516-.549.87-1.233.873-1.998A.5.5 0 0 0 9 5v-.006a.5.5 0 0 0 0-.002A3.006 3.006 0 0 0 5.996 2 3.008 3.008 0 0 0 3 5.002a.5.5 0 0 0 0 .002c.004.765.358 1.448.873 1.996H3.5C2.678 7 2 7.678 2 8.5v.504A4.983 4.983 0 0 1 1 6c0-2.767 2.233-5 5-5Zm-.004 2A1.994 1.994 0 0 1 8 4.996v.002a1.999 1.999 0 0 1-.8 1.592.5.5 0 0 0-.2.4v.51a.5.5 0 0 0 .5.5h1c.286 0 .5.214.5.5V10a.5.5 0 0 0 0 .002A4.982 4.982 0 0 1 6 11a4.982 4.982 0 0 1-3-.998A.5.5 0 0 0 3 10V8.5c0-.286.214-.5.5-.5h1a.5.5 0 0 0 .5-.5v-.51a.5.5 0 0 0-.2-.4A1.998 1.998 0 0 1 4 5.002V5c0-1.109.887-1.998 1.996-2Z" fill="context-stroke"/>
</svg>

