<!-- This Source Code Form is subject to the terms of the Mozilla Public
   - License, v. 2.0. If a copy of the MPL was not distributed with this
   - file, You can obtain one at http://mozilla.org/MPL/2.0/. -->
<svg xmlns="http://www.w3.org/2000/svg" fill-opacity="context-fill-opacity" viewBox="0 0 12 12" height="12" width="12">
  <path d="M7 2.501A1.5 1.5 0 0 0 4 2.5v5.975c0 1.38 1.12 2.55 2.5 2.55S9 9.855 9 8.475V4.5a.5.5 0 0 1 1 0v4.054c-.044 1.896-1.594 3.47-3.5 3.47S3.044 10.451 3 8.555V2.502a2.5 2.5 0 0 1 5 0v5.027a1.5 1.5 0 0 1-3-.003V3.501a.5.5 0 0 1 1 0v4.024a.5.5 0 0 0 1 0z" fill="context-stroke"/>
</svg>
