<!-- This Source Code Form is subject to the terms of the Mozilla Public
   - License, v. 2.0. If a copy of the MPL was not distributed with this
   - file, You can obtain one at http://mozilla.org/MPL/2.0/. -->
<svg xmlns="http://www.w3.org/2000/svg" fill-opacity="context-fill-opacity" viewBox="0 0 12 12" height="12" width="12">
  <path d="M6 1.504c-1.662 0-3.5 1.338-3.5 3v3.002a1.03 1.036 0 0 0-1.002 1.037v.616c0 .192.153.345.344.345h8.377a.344.346 0 0 0 .346-.346v-.615c0-.575-.461-1.038-1.034-1.038H9.5V4.504c0-1.662-1.838-3-3.5-3z" fill="context-fill"/>
  <path d="M6 1.002c-.964 0-1.932.375-2.687.989C2.558 2.604 2 3.487 2 4.504v2.715c-.555.232-1 .685-1 1.324v.616c0 .46.384.847.842.847H4c0 .582.154 1.11.521 1.477.369.367.895.521 1.479.521.584 0 1.11-.154 1.478-.521.368-.367.521-.895.522-1.477h2.219a.854.854 0 0 0 .843-.847v-.616c0-.661-.476-1.13-1.064-1.345V4.504c0-1.017-.557-1.9-1.312-2.513C7.93 1.377 6.964 1.002 6 1.002Zm0 1.004c.698 0 1.481.295 2.06.766.58.47.942 1.087.942 1.732v3.502h.529a.523.526 0 0 1 .535.537v.461h-8.07v-.46a.523.526 0 0 1 .518-.538l.484-.014V4.504c0-.645.362-1.26.942-1.732.579-.471 1.363-.766 2.06-.766Zm-1 8h2c0 .416-.096.638-.229.77-.132.132-.354.228-.77.228-.418 0-.64-.096-.773-.228-.131-.132-.228-.354-.228-.77Z" fill="context-stroke"/>
</svg>
