<!-- This Source Code Form is subject to the terms of the Mozilla Public
   - License, v. 2.0. If a copy of the MPL was not distributed with this
   - file, You can obtain one at http://mozilla.org/MPL/2.0/. -->
<svg xmlns="http://www.w3.org/2000/svg" fill-opacity="context-fill-opacity" viewBox="0 0 12 12" height="12" width="12">
  <path d="M6 1.504c-1.662 0-3.5 1.338-3.5 3v2.88l5.355-5.357C7.285 1.7 6.63 1.504 6 1.504Zm3.5 3.122L4.62 9.504h5.598a.344.346 0 0 0 .346-.346v-.615c0-.575-.461-1.038-1.034-1.038H9.5ZM2.364 7.519a1.029 1.035 0 0 0-.85.85l.85-.849Z" fill="context-fill"/>
  <path d="M6 1.002c-.964 0-1.932.375-2.687.989C2.558 2.604 2 3.487 2 4.504v2.715c-.555.232-1 .685-1 1.324v.34l1.998-1.998V4.504c0-.645.362-1.26.942-1.732.579-.471 1.363-.766 2.06-.766.487 0 1.013.147 1.485.393l.736-.736c-.668-.416-1.445-.66-2.221-.66Zm4.5.002a.5.5 0 0 0-.354.147l-9 9a.5.5 0 0 0 0 .707.5.5 0 0 0 .707 0l9-9a.5.5 0 0 0 0-.707.5.5 0 0 0-.353-.147Zm-.525 3.147-.973.972v2.883h.529a.523.526 0 0 1 .535.537v.461H5.121l-1.117 1.117c.02.537.175 1.02.517 1.362.369.367.895.521 1.479.521.584 0 1.11-.154 1.478-.521.368-.367.521-.895.522-1.477h2.219a.854.854 0 0 0 .843-.847v-.616c0-.661-.476-1.13-1.064-1.345V4.504c0-.12-.009-.238-.023-.353zM5 10.006h2c0 .416-.096.638-.229.77-.132.132-.354.228-.77.228-.418 0-.64-.096-.773-.228-.131-.132-.228-.354-.228-.77Z" fill="context-stroke"/>
</svg>
