<!-- This Source Code Form is subject to the terms of the Mozilla Public
   - License, v. 2.0. If a copy of the MPL was not distributed with this
   - file, You can obtain one at http://mozilla.org/MPL/2.0/. -->
<svg xmlns="http://www.w3.org/2000/svg" fill-opacity="context-fill-opacity" viewBox="0 0 12 12" height="12" width="12">
  <path d="M3 4.5c-.831 0-1.5.669-1.5 1.5v3c0 .83.669 1.5 1.5 1.5h2.3l2.42-4.031c.264-.397.67-.47.67-.47.17 0 .392-.002.61 0h.5c0-.83-.669-1.5-1.5-1.5z" fill="context-fill"/>
  <path d="M5.5 0C3.57 0 2 1.57 2 3.5v.771C1.404 4.619 1 5.264 1 6v3c0 1.099.9 2 2 2h2l.6-1H3c-.563 0-1-.438-1-1V6c0-.563.437-1 1-1h5c.563 0 1 .437 1 1h1c0-.736-.404-1.381-1-1.729V3.5C9 1.57 7.43 0 5.5 0Zm0 1C6.894 1 8 2.106 8 3.5V4H3v-.5C3 2.106 4.106 1 5.5 1Z" fill="context-stroke"/>
  <path fill="#facc15" d="M9 7a.5.5 0 0 0-.424.234l-2.5 4A.5.5 0 0 0 6.5 12h5a.5.5 0 0 0 .424-.766l-2.5-4A.5.5 0 0 0 9 7Z"/>
</svg>
