<!-- This Source Code Form is subject to the terms of the Mozilla Public
   - License, v. 2.0. If a copy of the MPL was not distributed with this
   - file, You can obtain one at http://mozilla.org/MPL/2.0/. -->
<svg xmlns="http://www.w3.org/2000/svg" fill-opacity="context-fill-opacity" width="12" height="12">
  <path fill="context-fill" d="M11 6A5 5 0 1 1 1 6a5 5 0 0 1 10 0"/>
  <path fill="context-stroke" d="M6 .5A5.51 5.51 0 0 0 .5 6c0 1.796.865 3.394 2.201 4.398l.006.006.004.002A5.47 5.47 0 0 0 6 11.5a5.47 5.47 0 0 0 3.29-1.094l.009-.008A5.5 5.5 0 0 0 11.5 6C11.5 2.968 9.032.5 6 .5m0 1q.11 0 .22.006h.012l.21.015.019.002a5 5 0 0 1 .412.063h.004l.031.006q.424.087.815.25a4.5 4.5 0 0 1 2.685 3.25l.006.031v.004q.04.203.063.412l.001.02a4.5 4.5 0 0 1-.023 1.074v.008l-.002.01a4.479 4.479 0 0 1-.96 2.193l-.003-.016a4.6 4.6 0 0 1-.99.908v.008q-.034.021-.066.041a4.5 4.5 0 0 1-.553.303l-.031.014a4.5 4.5 0 0 1-.575.214l-.023.006a4.5 4.5 0 0 1-.6.131l-.045.004A5 5 0 0 1 6 10.5a5 5 0 0 1-.607-.043l-.045-.004a4.5 4.5 0 0 1-.6-.13l-.023-.007a4.5 4.5 0 0 1-.575-.214l-.03-.014a4.5 4.5 0 0 1-.554-.303q-.032-.02-.066-.04v-.009a4.5 4.5 0 0 1-.99-.908l-.002.016a4.5 4.5 0 0 1-.961-2.194l-.002-.017a4.6 4.6 0 0 1 0-1.27v-.006a4.5 4.5 0 0 1 .361-1.226 4.5 4.5 0 0 1 2.15-2.19l.075-.035a4.5 4.5 0 0 1 1.226-.361h.006Q5.675 1.5 6 1.5m0 2a.5.5 0 0 0-.5.5v1.5H4a.5.5 0 1 0 0 1h1.5V8a.5.5 0 0 0 1 0V6.5H8a.5.5 0 1 0 0-1H6.5V4a.5.5 0 0 0-.5-.5"/>
</svg>
