<!-- This Source Code Form is subject to the terms of the Mozilla Public
   - License, v. 2.0. If a copy of the MPL was not distributed with this
   - file, You can obtain one at http://mozilla.org/MPL/2.0/. -->
<svg xmlns="http://www.w3.org/2000/svg" fill-opacity="context-fill-opacity" viewBox="0 0 12 12" height="12" width="12">
  <path d="M3 2c-.554 0-1 .446-1 1v1h8V3c0-.554-.446-1-1-1Z" fill="context-fill"/>
  <path d="M3 1c-1.1 0-2 .9-2 2v6c0 1.099.9 2 2 2h4.5a.5.5 0 0 0 .5-.5.5.5 0 0 0-.5-.5H5V5h2v.5a.5.5 0 0 0 .5.5.5.5 0 0 0 .5-.5V5h2v.5a.5.5 0 0 0 .5.5.5.5 0 0 0 .5-.5V3c0-1.1-.9-2-2-2Zm0 1h1v2H2V3c0-.563.437-1 1-1Zm2 0h2v2H5Zm3 0h1c.563 0 1 .437 1 1v1H8ZM2 5h2v5H3c-.563 0-1-.438-1-1Zm5.5 2a.5.5 0 0 0-.416.777l2 3a.5.5 0 0 0 .832 0l2-3A.5.5 0 0 0 11.5 7Z" fill="context-stroke"/>
</svg>
