<!-- This Source Code Form is subject to the terms of the Mozilla Public
   - License, v. 2.0. If a copy of the MPL was not distributed with this
   - file, You can obtain one at http://mozilla.org/MPL/2.0/. -->
<svg xmlns="http://www.w3.org/2000/svg" fill-opacity="context-fill-opacity" viewBox="0 0 11 11" height="11" width="11">
  <path d="M2.5 1a.5.5 0 0 0-.5.5.5.5 0 0 0 .5.5H5v6.293L2.854 6.146A.5.5 0 0 0 2.5 6a.5.5 0 0 0-.354.146.5.5 0 0 0 0 .708l3 3a.5.5 0 0 0 .036.025.5.5 0 0 0 .058.04.5.5 0 0 0 .074.04.5.5 0 0 0 .065.021.5.5 0 0 0 .086.014A.5.5 0 0 0 5.5 10a.5.5 0 0 0 .035-.006.5.5 0 0 0 .086-.014.5.5 0 0 0 .065-.021.5.5 0 0 0 .074-.04.5.5 0 0 0 .058-.04.5.5 0 0 0 .036-.025l3-3a.5.5 0 0 0 0-.708.5.5 0 0 0-.708 0L6 8.293V2h2.5a.5.5 0 0 0 .5-.5.5.5 0 0 0-.5-.5h-6z" fill="context-stroke"/>
</svg>
