<!-- This Source Code Form is subject to the terms of the Mozilla Public
   - License, v. 2.0. If a copy of the MPL was not distributed with this
   - file, You can obtain one at http://mozilla.org/MPL/2.0/. -->

<svg xmlns="http://www.w3.org/2000/svg" width="16" height="16" fill="none">
  <path fill="context-fill" d="M12.5 7.5a2 2 0 0 0-1 3.732V12.5h-1a1 1 0 0 0-1 1v1s1 1 3 1 3-1 3-1v-1a1 1 0 0 0-1-1h-1v-1.268a2 2 0 0 0-1-3.732Z" opacity=".2"/>
  <path fill="context-fill" fill-rule="evenodd" d="M10 9.5C10 8.125 11.123 7 12.5 7 13.873 7 15 8.125 15 9.5c0 1.374-1.126 2.5-2.5 2.5A2.508 2.508 0 0 1 10 9.5ZM12.5 8c.834 0 1.5.665 1.5 1.5 0 .834-.666 1.5-1.5 1.5-.835 0-1.5-.666-1.5-1.5 0-.835.665-1.5 1.5-1.5Z" clip-rule="evenodd"/>
  <path fill="context-fill" d="M9.2 14.898a5.59 5.59 0 0 1-.2-.159v-1.405l.007.01c.08-.75.72-1.344 1.49-1.344H11.5a.5.5 0 0 1 0 1h-1.002a.486.486 0 0 0-.498.5v.744a4.489 4.489 0 0 0 2.5.756c.926 0 1.786-.28 2.5-.756V13.5c0-.286-.214-.5-.5-.5h-1a.5.5 0 1 1 0-1h1c.77 0 1.413.593 1.492 1.343l.008-.01v1.406a5.604 5.604 0 0 1-.2.16l-.006.003-.005.004A5.473 5.473 0 0 1 12.5 16a5.473 5.473 0 0 1-3.289-1.094l-.002-.001-.002-.001-.006-.006ZM6 1C4 1 3 2.125 3 3.5a.5.5 0 0 0 1 0C4 2.666 4.54 2 6 2s2 .762 2 2-1.666 2-2.5 2a.495.495 0 0 0-.168.031A.493.493 0 0 0 5 6.5v1a.5.5 0 0 0 1 0v-.55C7.137 6.715 9 5.5 9 4c0-1.5-1-3-3-3Zm-.5 9a.5.5 0 1 0 0 1 .5.5 0 0 0 0-1Z"/>
</svg>
