<!-- This Source Code Form is subject to the terms of the Mozilla Public
   - License, v. 2.0. If a copy of the MPL was not distributed with this
   - file, You can obtain one at http://mozilla.org/MPL/2.0/. -->
<svg xmlns="http://www.w3.org/2000/svg" fill-opacity="context-fill-opacity" viewBox="0 0 12 12" height="12" width="12">
  <path d="M3 2.5h6c.831 0 1.5.669 1.5 1.5v4c0 .83-.669 1.5-1.5 1.5H3c-.831 0-1.5-.67-1.5-1.5V4c0-.831.669-1.5 1.5-1.5Z" fill="context-fill"/>
  <path d="M3 2c-1.1 0-2 .9-2 2v4c0 1.099.9 2 2 2h6c1.1 0 2-.901 2-2V4c0-1.1-.9-2-2-2Zm0 1h6c.563 0 1 .437 1 1v4c0 .562-.437 1-1 1H3c-.563 0-1-.438-1-1V4c0-.563.437-1 1-1Zm5.477 1a.5.5 0 0 0-.29.109L6 5.859l-2.188-1.75a.5.5 0 0 0-.367-.105.5.5 0 0 0-.336.183.5.5 0 0 0 .079.703l1.23.985-1.272 1.271a.5.5 0 0 0 0 .707.5.5 0 0 0 .708 0l1.35-1.35.484.387a.5.5 0 0 0 .625 0l.484-.386 1.35 1.35a.5.5 0 0 0 .707 0 .5.5 0 0 0 0-.708L7.582 5.875l1.23-.985a.5.5 0 0 0 .079-.703A.5.5 0 0 0 8.477 4Z" fill="context-stroke"/>
</svg>
