<!-- This Source Code Form is subject to the terms of the Mozilla Public
   - License, v. 2.0. If a copy of the MPL was not distributed with this
   - file, You can obtain one at http://mozilla.org/MPL/2.0/. -->
<svg width="12" height="12" viewBox="0 0 12 12" fill-opacity="context-fill-opacity" xmlns="http://www.w3.org/2000/svg">
  <path fill="context-fill" d="M9.5 6c.038-.046.131-.142.236-.29.163-.228.734-.227.762.052.42 4.173-4.537 5.997-7.248 3.738C.41 7.134.93 2.08 5.233 1.546c.24-.03.36.283.184.45-.344.33-.746.787-.917 1.254C3.383 6.298 7.27 8.693 9.5 6Z"/>
  <path fill="context-stroke" d="M5.172 1.05c-2.34.291-3.752 1.884-4.1 3.692A5.424 5.424 0 0 0 2.93 9.885c1.521 1.268 3.638 1.382 5.326.613 1.687-.769 2.97-2.497 2.74-4.785a.752.752 0 0 0-.35-.537.932.932 0 0 0-.459-.13c-.294-.01-.615.035-.857.374-.084.117-.14.172-.215.262-.977 1.18-2.195 1.199-3.119.664C5.072 5.81 4.49 4.73 4.97 3.422c.12-.329.476-.76.795-1.065a.779.779 0 0 0 .181-.843c-.106-.269-.43-.506-.773-.463Zm-.61 1.087a4.26 4.26 0 0 0-.53.941 3.373 3.373 0 0 0 1.462 4.133c1.298.751 3.138.62 4.39-.893l.249-.285c-.04 1.574-1.069 2.998-2.291 3.555-1.364.621-3.082.519-4.272-.473C2.297 8.054 1.777 6.374 2.055 4.93c.23-1.201 1.137-2.34 2.506-2.793Zm5.58 3.865c-.078.11-.032.041.006.043.02 0 .023.011-.015-.012-.002-.001-.004-.01-.006-.012l.016-.019z"/>
</svg>
