<!-- This Source Code Form is subject to the terms of the Mozilla Public
   - License, v. 2.0. If a copy of the MPL was not distributed with this
   - file, You can obtain one at http://mozilla.org/MPL/2.0/. -->
<svg xmlns="http://www.w3.org/2000/svg" fill-opacity="context-fill-opacity" viewBox="0 0 8 8" height="8" width="8">
  <!-- Use both context-fill and context-stroke path to account for the styling coming from toolkit for those sections we can't override. -->
  <path fill="context-fill transparent" d="M7.83 5.87a.5.5 0 0 0 .04-.7l-3.5-4a.5.5 0 0 0-.74 0l-3.5 4a.5.5 0 0 0 .74.66L4 2.25l3.13 3.58c.18.2.5.22.7.04z"/>
  <path fill="context-stroke transparent" d="M7.83 5.87a.5.5 0 0 0 .04-.7l-3.5-4a.5.5 0 0 0-.74 0l-3.5 4a.5.5 0 0 0 .74.66L4 2.25l3.13 3.58c.18.2.5.22.7.04z"/>
</svg>
