<!-- This Source Code Form is subject to the terms of the Mozilla Public
   - License, v. 2.0. If a copy of the MPL was not distributed with this
   - file, You can obtain one at http://mozilla.org/MPL/2.0/. -->
<svg xmlns="http://www.w3.org/2000/svg" fill-opacity="context-fill-opacity" viewBox="0 0 8 8" height="8" width="8">
  <!-- Use both context-fill and context-stroke path to account for the styling coming from toolkit for those sections we can't override. -->
  <path fill="context-fill transparent" d="M.17 2.13a.5.5 0 0 0-.04.7l3.5 4c.2.22.54.22.74 0l3.5-4a.5.5 0 0 0-.74-.66L4 5.75.87 2.17a.5.5 0 0 0-.7-.04z"/>
  <path fill="context-stroke transparent" d="M.17 2.13a.5.5 0 0 0-.04.7l3.5 4c.2.22.54.22.74 0l3.5-4a.5.5 0 0 0-.74-.66L4 5.75.87 2.17a.5.5 0 0 0-.7-.04z"/>
</svg>
