<!-- This Source Code Form is subject to the terms of the Mozilla Public
  - License, v. 2.0. If a copy of the MPL was not distributed with this
  - file, You can obtain one at http://mozilla.org/MPL/2.0/. -->
<svg width="12" height="12" xmlns="http://www.w3.org/2000/svg" fill-opacity="context-fill-opacity" viewBox="0 0 12 12">
  <path d="M6 0C2.692 0 0 2.692 0 6s2.692 6 6 6 6-2.692 6-6-2.692-6-6-6Zm0 1c2.767 0 5 2.233 5 5a4.983 4.983 0 0 1-1 3.004V8.5C10 7.678 9.322 7 8.5 7h-.373c.516-.549.87-1.233.873-1.998A.5.5 0 0 0 9 5v-.006a.5.5 0 0 0 0-.002A3.006 3.006 0 0 0 5.996 2 3.008 3.008 0 0 0 3 5.002a.5.5 0 0 0 0 .002c.004.765.358 1.448.873 1.996H3.5C2.678 7 2 7.678 2 8.5v.504A4.983 4.983 0 0 1 1 6c0-2.767 2.233-5 5-5Zm-.004 2A1.994 1.994 0 0 1 8 4.996v.002a1.999 1.999 0 0 1-.8 1.592.5.5 0 0 0-.2.4v.51a.5.5 0 0 0 .5.5h1c.286 0 .5.214.5.5V10a.5.5 0 0 0 0 .002A4.982 4.982 0 0 1 6 11a4.982 4.982 0 0 1-3-.998A.5.5 0 0 0 3 10V8.5c0-.286.214-.5.5-.5h1a.5.5 0 0 0 .5-.5v-.51a.5.5 0 0 0-.2-.4A1.998 1.998 0 0 1 4 5.002V5c0-1.109.887-1.998 1.996-2Z" fill="context-stroke"/>
  <path d="M6 1a5 5 0 0 0-4.207 7.703A5 5 0 0 0 2 8.98V8.5C2 7.678 2.678 7 3.5 7h.373c-.515-.548-.87-1.231-.873-1.996v-.002A3.008 3.008 0 0 1 5.996 2 3.006 3.006 0 0 1 9 4.994v.008c-.003.765-.357 1.45-.873 1.998H8.5c.822 0 1.5.678 1.5 1.5v.479c.072-.09.141-.182.207-.276a5 5 0 0 0 .334-.613l.008-.014.004-.008a5 5 0 0 0 .24-.65c0-.003.003-.006.004-.01l.002-.01a5 5 0 0 0 .148-.677l.002-.01V6.7a5.01 5.01 0 0 0-.045-1.676 5 5 0 0 0-4.392-4c-.007 0-.015 0-.022-.002a5.006 5.006 0 0 0-.232-.017h-.012A4.996 4.996 0 0 0 6 1Z" fill="context-fill"/>
</svg>

