<!-- This Source Code Form is subject to the terms of the Mozilla Public
   - License, v. 2.0. If a copy of the MPL was not distributed with this
   - file, You can obtain one at http://mozilla.org/MPL/2.0/. -->
<svg xmlns="http://www.w3.org/2000/svg" fill-opacity="context-fill-opacity" viewBox="0 0 16 16" height="16" width="16">
  <path d="M8.023 3.5C7.504 3.5 7.323 4.836 7 6c-1.05-.594-1.5-.5-1.5-.5s-.094.45.5 1.5c-1.163.323-2.5.504-2.5 1.023 0 .52 1.337.654 2.5.977-.594 1.049-.5 1.5-.5 1.5s.45.094 1.5-.5c.323 1.163.504 2.5 1.023 2.5.52 0 .654-1.337.977-2.5 1.05.594 1.5.5 1.5.5s.094-.451-.5-1.5c1.163-.323 2.72-.317 2.72-.836 0-.52-1.557-.841-2.72-1.164.594-1.05.5-1.5.5-1.5s-.45-.094-1.5.5c-.323-1.164-.457-2.5-.977-2.5Z" fill="context-fill"/>
  <path d="M8.023 3c-.344 0-.607.235-.75.45-.142.216-.23.453-.312.714-.112.355-.206.763-.303 1.16-.238-.098-.534-.253-.699-.287a1.909 1.909 0 0 0-.37-.043c-.092-.001-.19.015-.19.015a.5.5 0 0 0-.39.389s-.016.1-.015.193c0 .094.011.215.043.367.034.166.19.461.287.7-.396.097-.804.19-1.16.302-.26.082-.498.17-.713.313-.215.143-.451.406-.451.75s.243.612.46.75c.219.138.454.218.714.293.352.102.755.19 1.146.281-.096.236-.249.53-.283.694a1.9 1.9 0 0 0-.043.369c0 .093.016.191.016.191a.5.5 0 0 0 .388.389s.099.016.192.015c.093 0 .217-.01.369-.043.165-.034.46-.19.7-.287.096.397.19.804.302 1.16.082.261.17.498.312.713.143.216.406.451.75.451.345 0 .61-.24.748-.458.138-.218.22-.455.295-.715.103-.353.19-.755.282-1.147.235.096.53.25.693.283.152.032.276.043.37.043.092.001.19-.015.19-.015a.5.5 0 0 0 .39-.389s.016-.098.015-.191a1.9 1.9 0 0 0-.043-.37c-.033-.157-.184-.442-.274-.665.404-.078.817-.154 1.204-.229.283-.055.538-.113.779-.227.12-.056.242-.127.351-.25a.799.799 0 0 0 .198-.505c0-.38-.26-.624-.487-.774a3.434 3.434 0 0 0-.773-.353c-.405-.141-.854-.253-1.29-.368.101-.243.257-.543.292-.71.032-.153.042-.274.043-.368 0-.093-.016-.193-.016-.193a.5.5 0 0 0-.388-.389s-.099-.016-.192-.015a1.82 1.82 0 0 0-.369.043c-.164.034-.458.187-.693.283-.092-.391-.18-.792-.282-1.145a2.716 2.716 0 0 0-.295-.714C8.634 3.243 8.368 3 8.023 3Zm-.007 1.222c.03.079.058.12.09.23.126.44.242 1.07.412 1.682a.5.5 0 0 0 .728.301c.267-.151.373-.163.547-.228-.065.173-.077.28-.229.546a.5.5 0 0 0 .303.729c.596.165 1.27.326 1.766.498.126.044.186.082.281.125-.08.02-.114.04-.213.059-.503.097-1.196.176-1.834.353a.5.5 0 0 0-.303.729c.152.267.164.373.229.547-.174-.066-.28-.078-.547-.229a.5.5 0 0 0-.728.303c-.17.612-.286 1.24-.413 1.68-.031.11-.058.151-.09.23-.034-.08-.063-.126-.099-.24-.137-.438-.265-1.064-.434-1.67a.5.5 0 0 0-.728-.303c-.267.151-.373.163-.547.229.065-.174.077-.28.229-.547a.5.5 0 0 0-.303-.729c-.612-.17-1.241-.285-1.68-.412-.11-.032-.151-.059-.23-.09.08-.034.126-.063.24-.1.437-.137 1.064-.265 1.67-.433a.5.5 0 0 0 .303-.728c-.152-.267-.164-.374-.229-.547.174.065.28.077.547.228a.5.5 0 0 0 .728-.3c.169-.607.297-1.235.434-1.673.036-.114.065-.16.1-.24Z" fill="context-stroke"/>
</svg>
