<!-- This Source Code Form is subject to the terms of the Mozilla Public
   - License, v. 2.0. If a copy of the MPL was not distributed with this
   - file, You can obtain one at http://mozilla.org/MPL/2.0/. -->
<svg xmlns="http://www.w3.org/2000/svg" fill-opacity="context-fill-opacity" viewBox="0 0 12 12" height="12" width="12">
  <path d="M3 2c-1.1 0-2 .9-2 2v4c0 1.099.9 2 2 2h.5a.5.5 0 0 0 .5-.5.5.5 0 0 0-.5-.5H3c-.563 0-1-.438-1-1V4c0-.563.437-1 1-1h6c.563 0 1 .437 1 1v4c0 .562-.437 1-1 1H7.707l1.147-1.147a.5.5 0 0 0 0-.707.5.5 0 0 0-.708 0l-2 2a.5.5 0 0 0 0 .707l2 2a.5.5 0 0 0 .708 0 .5.5 0 0 0 0-.707L7.707 10H9c1.1 0 2-.901 2-2V4c0-1.1-.9-2-2-2H3z" fill="context-stroke"/>
</svg>
