<!-- This Source Code Form is subject to the terms of the Mozilla Public
   - License, v. 2.0. If a copy of the MPL was not distributed with this
   - file, You can obtain one at http://mozilla.org/MPL/2.0/. -->
<svg xmlns="http://www.w3.org/2000/svg" fill-opacity="context-fill-opacity" viewBox="0 0 12 12" height="12" width="12">
  <path d="M5 5.5c-1.5 0-1.5-2-1.5-2-.592.639-1 2-1 3.5 0 2 1.128 2.868 2 3.5 0-1 .5-2 1.5-2s1.5 1 1.5 2c.872-.632 2-2 2-4.5s-2-4.5-4-4.5c1.34 1.538 1.5 4-.5 4z" fill="context-fill"/>
  <path d="M5.5 1a.5.5 0 0 0-.377.828c.59.677.914 1.59.88 2.222-.016.316-.11.545-.253.694C5.607 4.892 5.397 5 5 5c-.264 0-.407-.072-.535-.186a1.247 1.247 0 0 1-.309-.49C4.007 3.926 4 3.5 4 3.5a.5.5 0 0 0-.867-.34C2.378 3.974 2 5.409 2 7c0 2.188 1.325 3.265 2.207 3.904A.5.5 0 0 0 5 10.5c0-.417.112-.83.291-1.098C5.47 9.134 5.667 9 6 9c.333 0 .53.134.709.402.179.268.291.68.291 1.098a.5.5 0 0 0 .793.404C8.777 10.19 10 8.65 10 6c0-2.767-2.167-5-4.5-5Zm1.037 1.257C7.845 2.794 9 4.23 9 6c0 1.838-.64 2.829-1.28 3.498-.072-.216-.053-.461-.179-.65C7.22 8.366 6.667 8 6 8c-.667 0-1.22.366-1.541.847-.147.22-.136.502-.211.756C3.594 9.063 3 8.407 3 7c0-.807.154-1.519.357-2.114.111.234.22.475.444.674.293.26.713.44 1.199.44.603 0 1.123-.202 1.47-.563.348-.36.506-.842.532-1.334.032-.607-.168-1.237-.465-1.846Z" fill="context-stroke"/>
</svg>
