<!-- This Source Code Form is subject to the terms of the Mozilla Public
   - License, v. 2.0. If a copy of the MPL was not distributed with this
   - file, You can obtain one at http://mozilla.org/MPL/2.0/. -->
<svg xmlns="http://www.w3.org/2000/svg" fill-opacity="context-fill-opacity" viewBox="0 0 12 12" height="12" width="12">
  <path d="M6 1.5a.602.602 0 0 0-.546.345L4.267 4.269l-2.268.238a.6.6 0 0 0-.336 1.021l1.578 1.504-.733 2.751a.602.602 0 0 0 .834.67L6 9.36l2.633 1.093a.602.602 0 0 0 .834-.67l-.708-2.75 1.579-1.505a.6.6 0 0 0-.337-1.021l-2.268-.238-1.187-2.424A.602.602 0 0 0 6 1.5Z" fill="context-fill"/>
  <path d="M6 1c-.426 0-.817.247-.998.632L3.939 3.8l-1.992.21a.5.5 0 0 0-.02.001c-.867.126-1.24 1.258-.615 1.873a.5.5 0 0 0 .006.006l1.364 1.3-.657 2.464a.5.5 0 0 0-.007.03c-.175.848.735 1.576 1.527 1.226L6 9.9l2.432 1.01c.79.348 1.7-.38 1.525-1.227a.5.5 0 0 0-.006-.025l-.635-2.467 1.366-1.3a.5.5 0 0 0 .006-.007c.625-.616.253-1.747-.616-1.873a.5.5 0 0 0-.02-.002L8.061 3.8 6.998 1.632A1.105 1.105 0 0 0 6 1Zm0 1c.041 0 .077.022.094.058a.5.5 0 0 0 .002.008L7.283 4.49a.5.5 0 0 0 .399.277l2.248.235c.116.016.139.089.056.17L8.414 6.67a.5.5 0 0 0-.139.488l.702 2.726c.022.109-.037.158-.141.112a.5.5 0 0 0-.012-.004L6.191 8.898a.5.5 0 0 0-.38 0L3.152 9.99a.5.5 0 0 0-.011.006c-.104.046-.165-.003-.143-.111l.727-2.723a.5.5 0 0 0-.14-.492L2.014 5.172c-.083-.081-.06-.153.056-.17l2.248-.235a.5.5 0 0 0 .399-.277l1.187-2.424a.5.5 0 0 0 .002-.008A.102.102 0 0 1 6 2Z" fill="context-stroke"/>
</svg>
