<!-- This Source Code Form is subject to the terms of the Mozilla Public
   - License, v. 2.0. If a copy of the MPL was not distributed with this
   - file, You can obtain one at http://mozilla.org/MPL/2.0/. -->
<svg xmlns="http://www.w3.org/2000/svg" fill-opacity="context-fill-opacity" viewBox="0 0 12 12" height="12" width="12">
  <path d="M10.5 5.5a5 5 0 1 1-10 0 5 5 0 0 1 10 0z" fill="context-fill"/>
  <path d="M5.5 0A5.508 5.508 0 0 0 0 5.5a5.496 5.496 0 0 0 2.207 4.404A5.473 5.473 0 0 0 5.5 11a5.473 5.473 0 0 0 3.29-1.094l.009-.008A5.496 5.496 0 0 0 11 5.5C11 2.468 8.532 0 5.5 0Zm0 1c.074 0 .147.002.22.006h.012l.21.015.019.002a4.5 4.5 0 0 1 .412.063h.004l.031.006a4.496 4.496 0 0 1 3.506 3.531v.004c.027.135.048.273.063.412a4.545 4.545 0 0 1-.021 1.094v.008l-.003.01a4.477 4.477 0 0 1-.96 2.193l-.003-.015a4.613 4.613 0 0 1-.99.907v.008l-.066.041a4.696 4.696 0 0 1-.553.303l-.031.013a4.453 4.453 0 0 1-.575.215l-.023.006a4.471 4.471 0 0 1-.6.131l-.045.004A4.556 4.556 0 0 1 5.5 10a4.54 4.54 0 0 1-.607-.043c-.015 0-.03-.003-.045-.004a4.477 4.477 0 0 1-1.198-.352l-.03-.013a4.498 4.498 0 0 1-.554-.303L3 9.244v-.008a4.5 4.5 0 0 1-.99-.908l-.002.015a4.477 4.477 0 0 1-.961-2.193l-.002-.018a4.562 4.562 0 0 1 0-1.27v-.005a4.473 4.473 0 0 1 .361-1.227 4.496 4.496 0 0 1 2.15-2.19c.025-.01.05-.023.075-.034a4.472 4.472 0 0 1 1.226-.362h.006c.208-.029.42-.045.637-.045Zm-2 4a.5.5 0 0 0 0 1h4a.5.5 0 0 0 0-1z" fill="context-stroke"/>
</svg>
