<!-- This Source Code Form is subject to the terms of the Mozilla Public
   - License, v. 2.0. If a copy of the MPL was not distributed with this
   - file, You can obtain one at http://mozilla.org/MPL/2.0/. -->
<svg width="12" height="12" viewBox="0 0 12 12" fill-opacity="context-fill-opacity" xmlns="http://www.w3.org/2000/svg">
  <path fill="context-fill" d="M8.5 6a2.5 2.5 0 1 1-5 0 2.5 2.5 0 0 1 5 0Z"/>
  <path fill="context-stroke" d="M3 6c0-1.65 1.35-3 3-3s3 1.35 3 3-1.35 3-3 3-3-1.35-3-3Zm5 0c0-1.11-.89-2-2-2-1.11 0-2 .89-2 2 0 1.11.89 2 2 2 1.11 0 2-.89 2-2Zm2.243 4.243a1 1 0 1 0-1.415-1.415 1 1 0 0 0 1.415 1.415zM3.172 1.757a1 1 0 1 1-1.415 1.415 1 1 0 0 1 1.415-1.415zm0 8.486a1 1 0 1 1-1.415-1.414 1 1 0 0 1 1.415 1.414zm5.656-7.071a1 1 0 1 0 1.415-1.415 1 1 0 0 0-1.415 1.415zM12 6a1 1 0 1 0-2 0 1 1 0 0 0 2 0zM1 5a1 1 0 1 1 0 2 1 1 0 0 1 0-2Zm5 5a1 1 0 1 0 0 2 1 1 0 0 0 0-2ZM6 0a1 1 0 1 0 0 2 1 1 0 0 0 0-2Z"/>
</svg>
