<!-- This Source Code Form is subject to the terms of the Mozilla Public
   - License, v. 2.0. If a copy of the MPL was not distributed with this
   - file, You can obtain one at http://mozilla.org/MPL/2.0/. -->
<svg xmlns="http://www.w3.org/2000/svg" fill-opacity="context-fill-opacity" viewBox="0 0 12 12" height="12" width="12">
  <path d="M2.5.5a1 1 0 0 0-1 1 1 1 0 0 0 1 1 1 1 0 0 0 1-1 1 1 0 0 0-1-1zm5 5a1 1 0 0 0-1 1 1 1 0 0 0 1 1 1 1 0 0 0 1-1 1 1 0 0 0-1-1zm0 4a1 1 0 0 0-1 1 1 1 0 0 0 1 1 1 1 0 0 0 1-1 1 1 0 0 0-1-1z" fill="context-fill"/>
  <path d="M3.5 0C2.677 0 2 .677 2 1.5c0 .648.42 1.204 1 1.412V9c0 1.1.9 2 2 2h2.088c.208.58.764 1 1.412 1 .823 0 1.5-.677 1.5-1.5S9.323 9 8.5 9c-.648 0-1.204.42-1.412 1H5c-.563 0-1-.437-1-1V6.729C4.295 6.9 4.636 7 5 7h2.088c.208.58.764 1 1.412 1 .823 0 1.5-.677 1.5-1.5S9.323 5 8.5 5c-.648 0-1.204.42-1.412 1H5c-.563 0-1-.437-1-1V2.912c.58-.208 1-.764 1-1.412C5 .677 4.323 0 3.5 0zm0 1c.282 0 .5.218.5.5 0 .282-.218.5-.5.5a.493.493 0 0 1-.5-.5c0-.282.218-.5.5-.5zm5 5c.282 0 .5.218.5.5 0 .282-.218.5-.5.5a.493.493 0 0 1-.5-.5c0-.282.218-.5.5-.5zm0 4c.282 0 .5.218.5.5 0 .282-.218.5-.5.5a.493.493 0 0 1-.5-.5c0-.282.218-.5.5-.5z" fill="context-stroke"/>
</svg>
