<!-- This Source Code Form is subject to the terms of the Mozilla Public
   - License, v. 2.0. If a copy of the MPL was not distributed with this
   - file, You can obtain one at http://mozilla.org/MPL/2.0/. -->
<svg xmlns="http://www.w3.org/2000/svg" fill-opacity="context-fill-opacity" viewBox="0 0 12 12" height="12" width="12">
  <path d="M2.531 2.42c-.572 0-1.033.461-1.033 1.037v.693c0 .192.153.346.344.346h.626l.032 5c.003.575.428 1 1 1h4c.572 0 1-.425 1-1v-5h.718a.344.346 0 0 0 .347-.346v-.693c0-.576-.462-1.037-1.034-1.037z" fill="context-fill"/>
  <path d="M5.031 1c-.352 0-.703.158-.863.416a.914.914 0 0 0-.139.507H2.531c-.842 0-1.533.695-1.533 1.538v.693c0 .459.383.846.844.846h.13L2 9.504A1.51 1.51 0 0 0 3.5 11h4c.82 0 1.5-.677 1.5-1.5V5h.219c.46 0 .845-.387.845-.846v-.693c0-.843-.69-1.538-1.533-1.538H7.033a.914.914 0 0 0-.138-.507C6.735 1.158 6.384 1 6.031 1Zm-2.5 1.923h6c.302 0 .533.23.533.538V4H1.998v-.54c0-.308.231-.537.533-.537zM2.973 5H8v4.5c0 .327-.176.5-.5.5h-4c-.324 0-.498-.173-.5-.504ZM4.5 6a.5.5 0 0 0-.5.5v2a.5.5 0 0 0 .5.5.5.5 0 0 0 .5-.5v-2a.5.5 0 0 0-.5-.5Zm2 0a.5.5 0 0 0-.5.5v2a.5.5 0 0 0 .5.5.5.5 0 0 0 .5-.5v-2a.5.5 0 0 0-.5-.5Z" fill="context-stroke"/>
</svg>
