<!-- This Source Code Form is subject to the terms of the Mozilla Public
   - License, v. 2.0. If a copy of the MPL was not distributed with this
   - file, You can obtain one at http://mozilla.org/MPL/2.0/. -->
<svg xmlns="http://www.w3.org/2000/svg" fill-opacity="context-fill-opacity" viewBox="0 0 12 12" height="12" width="12">
  <path d="M4.957 2.5a3 3 0 0 1 .008.955l-.002.013-.002.006a3 3 0 0 1-.106.442l-.011.033a3 3 0 0 1-.158.383l-.03.058a3 3 0 0 1-.197.323c-.019.026-.037.054-.057.08l-.004.004a3 3 0 0 1-.601.601l-.004.004c-.026.02-.054.039-.08.057-.103.073-.21.138-.322.197l-.059.03a2.998 2.998 0 0 1-.383.158l-.033.011a3.008 3.008 0 0 1-.441.106l-.006.002-.014.002C2.305 5.988 2.152 6 2 6a3.037 3.037 0 0 1-.5-.047V8.5c0 .554.446 1 1 1h7c.554 0 1-.446 1-1v-5c0-.554-.446-1-1-1z" fill="context-fill"/>
  <path d="M2 1C.901 1 0 1.901 0 3c0 1.098.901 2 2 2s2-.902 2-2c0-1.099-.901-2-2-2Zm0 1c.558 0 1 .441 1 1 0 .558-.442 1-1 1s-1-.442-1-1c0-.559.442-1 1-1Zm2.826 0c.112.313.174.65.174 1h4c.563 0 1 .437 1 1v4c0 .562-.437 1-1 1H3c-.563 0-1-.438-1-1V6a2.99 2.99 0 0 1-1-.174V8c0 1.099.9 2 2 2h6c1.1 0 2-.901 2-2V4c0-1.1-.9-2-2-2Zm3.729 2.002a.5.5 0 0 0-.367.107L6 5.859 4.498 4.656c-.187.28-.42.529-.687.732l.607.487-1.272 1.271a.5.5 0 0 0 0 .707.5.5 0 0 0 .708 0l1.35-1.35.484.387a.5.5 0 0 0 .625 0l.484-.386 1.35 1.35a.5.5 0 0 0 .707 0 .5.5 0 0 0 0-.708L7.582 5.875l1.23-.985a.5.5 0 0 0 .079-.703.5.5 0 0 0-.336-.185Z" fill="context-stroke"/>
</svg>
