<svg width="333" height="48" viewBox="0 0 333 48" fill="none" xmlns="http://www.w3.org/2000/svg">
<path d="M270.794 21.877C271.708 21.877 272.522 22.0597 273.237 22.4253C273.951 22.7908 274.508 23.2976 274.906 23.9456C275.305 24.5936 275.505 25.3246 275.505 26.1388C275.505 27.0028 275.297 27.7256 274.882 28.3071C274.483 28.8886 273.876 29.4203 273.062 29.9022C274.059 30.4006 274.823 31.032 275.355 31.7963C275.903 32.544 276.178 33.3831 276.178 34.3136C276.178 35.2108 275.962 36.0166 275.53 36.7311C275.098 37.4456 274.491 38.0022 273.71 38.401C272.946 38.7997 272.074 38.9991 271.093 38.9991H262.943V21.877H270.794ZM270.296 29.1296C271.243 29.1296 272.015 28.872 272.614 28.357C273.228 27.8419 273.536 27.1856 273.536 26.388C273.536 25.5905 273.228 24.9342 272.614 24.4191C272.015 23.904 271.243 23.6465 270.296 23.6465H264.887V29.1296H270.296ZM270.595 37.2296C271.658 37.2296 272.522 36.9388 273.187 36.3573C273.868 35.7591 274.209 34.9948 274.209 34.0643C274.209 33.1339 273.868 32.3779 273.187 31.7963C272.522 31.1982 271.658 30.8991 270.595 30.8991H264.887V37.2296H270.595Z" fill="url(#paint0_linear_5014_7529)"/>
<path d="M291.833 23.7213H281.514V29.3539H290.811V31.1982H281.514V37.1548H291.833V38.9991H279.545V21.877H291.833V23.7213Z" fill="url(#paint1_linear_5014_7529)"/>
<path d="M300.281 23.7213H294.524V21.877H307.983V23.7213H302.225V38.9991H300.281V23.7213Z" fill="url(#paint2_linear_5014_7529)"/>
<path d="M323.113 38.9991L321.393 35.1111H311.848L310.128 38.9991H308.01L315.561 21.877H317.68L325.232 38.9991H323.113ZM312.645 33.2668H320.596L316.633 24.2696L312.645 33.2668Z" fill="url(#paint3_linear_5014_7529)"/>
<path d="M204.785 7.70312C203.961 7.70312 203.25 8.0013 202.654 8.59766C202.086 9.16562 201.803 9.84745 201.803 10.6426C201.803 11.4378 202.086 12.1341 202.654 12.7305C203.25 13.3268 203.961 13.625 204.785 13.625C205.58 13.625 206.26 13.3268 206.828 12.7305C207.396 12.1341 207.682 11.4378 207.682 10.6426C207.682 9.84745 207.396 9.16562 206.828 8.59766C206.26 8.0013 205.58 7.70312 204.785 7.70312ZM32.0176 9.19336V38.9688H37.2129V25.6367C37.2129 24.302 37.7257 23.1802 38.748 22.2715C39.7987 21.3344 41.075 20.8652 42.5801 20.8652C43.9432 20.8652 45.0524 21.349 45.9043 22.3145C46.7562 23.2516 47.1816 24.4715 47.1816 25.9766V38.9688H52.25V24.9551C52.25 23.308 51.8955 21.8463 51.1855 20.5684C50.504 19.2621 49.5386 18.253 48.2891 17.543C47.068 16.8047 45.6626 16.4355 44.0723 16.4355C42.624 16.4355 41.2895 16.7629 40.0684 17.416C38.8473 18.0408 37.8945 18.8769 37.2129 19.9277V9.19336H32.0176ZM123.354 9.19336V20.3965C122.502 19.147 121.407 18.1816 120.072 17.5C118.766 16.7901 117.319 16.4355 115.729 16.4355C113.798 16.4355 112.065 16.9319 110.531 17.9258C108.998 18.8913 107.791 20.2549 106.91 22.0156C106.03 23.7479 105.59 25.7224 105.59 27.9375C105.59 30.1525 106.03 32.1397 106.91 33.9004C107.791 35.661 108.998 37.0373 110.531 38.0312C112.065 38.9967 113.798 39.4805 115.729 39.4805C117.319 39.4805 118.766 39.1406 120.072 38.459C121.407 37.7491 122.502 36.769 123.354 35.5195V38.9688H128.551V9.19336H123.354ZM175.312 9.19336V38.9688H180.51V35.5195C181.362 36.769 182.439 37.7491 183.746 38.459C185.08 39.1406 186.545 39.4805 188.135 39.4805C190.066 39.4805 191.797 38.9967 193.33 38.0312C194.864 37.0373 196.07 35.661 196.951 33.9004C197.831 32.1397 198.271 30.1525 198.271 27.9375C198.271 25.7224 197.831 23.7479 196.951 22.0156C196.07 20.2549 194.864 18.8913 193.33 17.9258C191.797 16.9319 190.066 16.4355 188.135 16.4355C186.545 16.4355 185.08 16.7901 183.746 17.5C182.439 18.1816 181.362 19.147 180.51 20.3965V9.19336H175.312ZM244.893 9.19336V20.3965C244.041 19.147 242.946 18.1816 241.611 17.5C240.305 16.7901 238.858 16.4355 237.268 16.4355C235.336 16.4355 233.603 16.9319 232.07 17.9258C230.536 18.8913 229.329 20.2549 228.449 22.0156C227.569 23.7479 227.129 25.7224 227.129 27.9375C227.129 30.1525 227.569 32.1397 228.449 33.9004C229.329 35.661 230.536 37.0373 232.07 38.0312C233.603 38.9967 235.336 39.4805 237.268 39.4805C238.858 39.4805 240.305 39.1406 241.611 38.459C242.946 37.7491 244.041 36.769 244.893 35.5195V38.9688H250.09V9.19336H244.893ZM3.57617 9.70508V14.5605H12.9473V38.9688H18.2715V14.5605H27.6016V9.70508H3.57617ZM254.982 14C253.885 14 253 14.9214 253 16.0566C253 17.196 253.885 18.0977 254.982 18.0977C256.164 18.0977 257.051 17.196 257.051 16.0566C257.051 14.9214 256.164 14 254.982 14ZM254.982 14.3926C255.953 14.3926 256.588 15.0987 256.588 16.0566C256.588 17.0188 255.953 17.7051 254.982 17.7051C254.096 17.7051 253.422 17.0188 253.422 16.0566C253.422 15.0987 254.096 14.3926 254.982 14.3926ZM254.266 14.9199V17.127H254.73V16.2793H254.941L255.404 17.127H255.953L255.363 16.207C255.659 16.1184 255.869 15.9125 255.869 15.5918C255.869 15.1445 255.573 14.9199 254.898 14.9199H254.266ZM254.73 15.2715H254.941C255.279 15.2715 255.404 15.3681 255.404 15.5918C255.404 15.8323 255.236 15.9297 254.982 15.9297H254.73V15.2715ZM93.8281 16.4355C92.3798 16.4355 91.0453 16.7483 89.8242 17.373C88.6314 17.9694 87.6952 18.793 87.0137 19.8438V16.9473H81.8164V38.9688H87.0137V25.6367C87.0137 24.302 87.5246 23.1802 88.5469 22.2715C89.5693 21.3344 90.8328 20.8652 92.3379 20.8652C93.701 20.8652 94.8083 21.349 95.6602 22.3145C96.5406 23.2516 96.9805 24.4715 96.9805 25.9766V38.9688H102.051V24.9551C102.051 23.308 101.694 21.8463 100.984 20.5684C100.303 19.2621 99.3374 18.253 98.0879 17.543C96.8384 16.8047 95.4184 16.4355 93.8281 16.4355ZM143.879 16.4355C141.806 16.4355 139.904 16.9319 138.172 17.9258C136.468 18.9197 135.117 20.2833 134.123 22.0156C133.129 23.7479 132.633 25.7079 132.633 27.8945C132.633 30.1095 133.145 32.0967 134.168 33.8574C135.218 35.6181 136.624 36.9963 138.385 37.9902C140.145 38.9841 142.076 39.4805 144.178 39.4805C145.797 39.4805 147.456 39.1678 149.16 38.543C150.864 37.8899 152.184 37.0662 153.121 36.0723L150.141 33.0059C149.431 33.6875 148.507 34.242 147.371 34.668C146.263 35.094 145.142 35.3066 144.006 35.3066C142.331 35.3066 140.925 34.7812 139.789 33.7305C138.653 32.6514 137.943 31.2314 137.66 29.4707H154.697C154.697 25.4382 153.734 22.2563 151.803 19.9277C149.9 17.599 147.258 16.4355 143.879 16.4355ZM171.492 16.4355C169.731 16.4355 168.155 16.861 166.764 17.7129C165.372 18.5365 164.321 19.6728 163.611 21.1211V16.9473H158.414V38.9688H163.611V27.8516C163.611 25.7501 164.335 24.0611 165.783 22.7832C167.231 21.5052 169.135 20.8652 171.492 20.8652V16.4355ZM225.502 16.4355C223.741 16.4355 222.164 16.861 220.773 17.7129C219.381 18.5365 218.331 19.6728 217.621 21.1211V16.9473H212.426V38.9688H217.621V27.8516C217.621 25.7501 218.347 24.0611 219.795 22.7832C221.243 21.5052 223.145 20.8652 225.502 20.8652V16.4355ZM56.5527 16.9473V30.9609C56.5527 32.608 56.8927 34.0843 57.5742 35.3906C58.2842 36.6685 59.2496 37.6776 60.4707 38.416C61.7202 39.1259 63.1402 39.4805 64.7305 39.4805C66.1788 39.4805 67.4987 39.1823 68.6914 38.5859C69.9125 37.9612 70.8654 37.123 71.5469 36.0723V38.9688H76.7852V16.9473H71.5469V30.2793C71.5469 31.614 71.0361 32.7504 70.0137 33.6875C68.9914 34.5962 67.7278 35.0508 66.2227 35.0508C64.8596 35.0508 63.7378 34.5816 62.8574 33.6445C62.0055 32.679 61.5781 31.4445 61.5781 29.9395V16.9473H56.5527ZM202.186 16.9473V38.9688H207.383V16.9473H202.186ZM143.965 20.6094C145.555 20.6094 146.833 21.1077 147.799 22.1016C148.793 23.0955 149.416 24.4008 149.672 26.0195H137.701C138.042 24.3724 138.782 23.0671 139.918 22.1016C141.054 21.1077 142.403 20.6094 143.965 20.6094ZM117.135 20.8652C118.952 20.8652 120.441 21.5324 121.605 22.8672C122.77 24.1735 123.354 25.8644 123.354 27.9375C123.354 29.3006 123.084 30.5205 122.545 31.5996C122.033 32.6788 121.293 33.5315 120.328 34.1562C119.39 34.7525 118.327 35.0508 117.135 35.0508C115.26 35.0508 113.726 34.3835 112.533 33.0488C111.341 31.7141 110.744 30.0105 110.744 27.9375C110.744 25.8644 111.341 24.1735 112.533 22.8672C113.726 21.5324 115.26 20.8652 117.135 20.8652ZM186.729 20.8652C188.603 20.8652 190.135 21.5324 191.328 22.8672C192.521 24.1735 193.117 25.8644 193.117 27.9375C193.117 30.0105 192.521 31.7141 191.328 33.0488C190.135 34.3835 188.603 35.0508 186.729 35.0508C185.536 35.0508 184.456 34.7525 183.49 34.1562C182.553 33.5315 181.815 32.6788 181.275 31.5996C180.764 30.5205 180.51 29.3006 180.51 27.9375C180.51 25.8644 181.092 24.1735 182.256 22.8672C183.42 21.5324 184.911 20.8652 186.729 20.8652ZM238.674 20.8652C240.492 20.8652 241.982 21.5324 243.146 22.8672C244.31 24.1735 244.893 25.8644 244.893 27.9375C244.893 29.3006 244.622 30.5205 244.082 31.5996C243.571 32.6788 242.833 33.5315 241.867 34.1562C240.93 34.7525 239.867 35.0508 238.674 35.0508C236.8 35.0508 235.265 34.3835 234.072 33.0488C232.879 31.7141 232.283 30.0105 232.283 27.9375C232.283 25.8644 232.879 24.1735 234.072 22.8672C235.265 21.5324 236.8 20.8652 238.674 20.8652Z" fill="context-fill"/>
<defs>
<linearGradient id="paint0_linear_5014_7529" x1="261" y1="18" x2="334.731" y2="45" gradientUnits="userSpaceOnUse">
<stop stop-color="#0DB7BD"/>
<stop offset="1" stop-color="#1373D9"/>
</linearGradient>
<linearGradient id="paint1_linear_5014_7529" x1="261" y1="18" x2="334.731" y2="45" gradientUnits="userSpaceOnUse">
<stop stop-color="#0DB7BD"/>
<stop offset="1" stop-color="#1373D9"/>
</linearGradient>
<linearGradient id="paint2_linear_5014_7529" x1="261" y1="18" x2="334.731" y2="45" gradientUnits="userSpaceOnUse">
<stop stop-color="#0DB7BD"/>
<stop offset="1" stop-color="#1373D9"/>
</linearGradient>
<linearGradient id="paint3_linear_5014_7529" x1="261" y1="18" x2="334.731" y2="45" gradientUnits="userSpaceOnUse">
<stop stop-color="#0DB7BD"/>
<stop offset="1" stop-color="#1373D9"/>
</linearGradient>
</defs>
</svg>
