<svg xmlns="http://www.w3.org/2000/svg"
     xmlns:xlink="http://www.w3.org/1999/xlink"
     viewBox="0 0 18 18">
  <style>
    path {
      display: none;
      fill: #404040;
      stroke: #404040;
    }
    path:target {
      display: block;
      stroke-width: 1;
    }
    @media (-moz-windows-default-theme) and (-moz-os-version: windows-win8) {
      path {
        fill: #797c80;
        stroke: #797c80;
      }
    }
    @media (-moz-windows-default-theme) and (-moz-os-version: windows-win10) {
      path {
        fill: #4c4c4c;
        stroke: #4c4c4c;
      }
    }
    @media (-moz-mac-yosemite-theme) {
      path {
        fill: #4d4d4d;
        stroke: #4d4d4d;
      }
    }
  </style>
  <path id="event-single" d="m 10.5,7.5 h 3 v 7 h -2 v -5 h -1 z m -9,-5 v 14 h 15 v -14 h -2 v 2 h -2 V 1 4.5 h -2 v -2 h -3 v 2 h -2 V 1 4.5 h -2 v -2 z m 0,3 h 15 v 11 h -15 z m 3,2 h 3 v 7 h -2 v -5 h -1 z"/>
  <path id="event-all" style="fill-opacity:0;" d="m 8.5,10.5 h 2 v 4 h -1 v -3 h -1 z m -7,-3 v 9 h 11 v -9 h -1 v 1 h -2 V 7 8.5 h -2 v -1 h -1 v 1 h -2 V 7 8.5 h -2 v -1 z m 2,3 h 2 v 4 h -1 v -3 h -1 z m 9,3 h 2 v -9 h -1 v 1 h -2 V 4 5.5 h -2 v -1 h -1 v 1 h -2 V 4 5.5 h -2 v -1 h -1 V 7 m 11,3.5 h 2 V 1.5 h -1 v 1 h -2 v -1.5 1.5 h -2 v -1 h -1 v 1 h -2 v -1.5 1.5 h -2 v -1 h -1 V 4"/>
  <path id="task-single" d="m 4.5,2.5 h -2 v 14 h 13 v -14 h -2 v 2 h 2 l 0,12 h -13 l 0,-12 h 2 z m 2,-1 h 5 v 3 h -5 z M 5.1,10.8 6.7,9.2 8.5,10.7 12,7 l 1.5,1.5 -5,5 z"/>
  <path id="task-all" style="fill-opacity:0;" d="M 9,2.5 7,2.5 m 6.5,8 h 3 V 2.5 H 15 m -4.5,-1 h 3 v 1 h -3 z m -4.5,4 H 4 M 10.5,13.5 h 3 V 5.5 H 12 m -4.5,-1 h 3 v 1 h -3 z M 3,8.5 H 1.5 v 8 h 9 v -8 H 9 m -4.5,-1 h 3 v 1 h -3 z m -1,6 0.7,-0.6 1.1,0.9 2.6,-2.6 0.7,0.6 L 5.5,15 Z"/>
</svg>
