<svg xmlns="http://www.w3.org/2000/svg"
     xmlns:xlink="http://www.w3.org/1999/xlink"
     viewBox="0 0 18 18">
  <style>
    path {
      display: none;
    }
    path:target {
      display: block;
      stroke-width: 1;
    }
    .normal {
      fill: #505050;
      fill-opacity: 0.8;
      stroke: #404040;
    }
    @media (-moz-windows-default-theme) and (-moz-os-version: windows-win8) {
      .normal {
        fill: #797c80;
      fill-opacity: 1;
        stroke: #797c80;
      }
    }
    @media (-moz-windows-default-theme) and (-moz-os-version: windows-win10) {
      .normal {
        fill: #4c4c4c;
      fill-opacity: 1;
        stroke: #4c4c4c;
      }
    }
    @media (-moz-windows-default-theme) and (-moz-os-version: windows-vista),
       (-moz-windows-default-theme) and (-moz-os-version: windows-win7) {
      .normal {
        fill: url(#win1);
      fill-opacity: 1;
        stroke: url(#win2);
      }
    }
    @media (-moz-mac-lion-theme) {
      .normal {
        fill: url(#osx1);
      fill-opacity: 1;
        stroke: url(#osx2);
      }
    }
    @media (-moz-mac-yosemite-theme) {
      .normal {
        fill: #4d4d4d;
      fill-opacity: 1;
        stroke: #4d4d4d;
      }
    }
    .inverted {
      fill: #fff;
      fill-opacity: 1;
      stroke: #111922;
    }
  </style>
  <defs>
    <linearGradient
       id="win1"
       x1="8"
       y1="1"
       x2="8"
       y2="15"
       gradientUnits="userSpaceOnUse">
       <stop stop-color="#3f4f5a" offset="0"/>
       <stop stop-color="#7e8c97" offset="1"/>
    </linearGradient>
    <linearGradient
       id="win2"
       x1="8"
       y1="1"
       x2="8"
       y2="15"
       gradientUnits="userSpaceOnUse">
      <stop stop-color="#0c1b25" offset="0"/>
      <stop stop-color="#4f585f" stop-opacity="0.9" offset="1"/>
    </linearGradient>
    <linearGradient
       id="osx1"
       x1="8"
       y1="1"
       x2="8"
       y2="15"
       gradientUnits="userSpaceOnUse">
       <stop stop-color="#4f4f4f" stop-opacity="0.76" offset="0"/>
       <stop stop-color="#717171" stop-opacity="0.6" offset="1"/>
    </linearGradient>
    <linearGradient
       id="osx2"
       x1="8"
       y1="1"
       x2="8"
       y2="15"
       gradientUnits="userSpaceOnUse">
      <stop stop-color="#252525" stop-opacity="0.88" offset="0"/>
      <stop stop-color="#505050" stop-opacity="0.68" offset="1"/>
    </linearGradient>
  </defs>
  <path id="calendar-tab" class="normal" d="m 1.5,2.5 0,14 15,0 0,-14 -2,0 0,2 -2,0 0,-3.5 0,3.5 -2,0 0,-2 -3,0 0,2 -2,0 0,-3.5 0,3.5 -2,0 0,-2 z m 0,3 15,0 0,11 -15,0 z m 4,2 6.5,0 -3,7 -2.5,0 2,-5 -3,0 z"/>
  <path id="calendar-tab-inverted" class="inverted" d="m 1.5,3.5 0,13 15,0 0,-13 -3,0 0,1 -3,0 0,-1 -3,0 0,1 -3,0 0,-1 z m 3,3 9,0 0,7 -9,0 z m 0,-5 0,3 3,0 0,-3 z m 6,0 0,3 3,0 0,-3 z m -5,5 7,0 -3,7 -3,0 1.7,-4 -2.7,0 z"/>
  <path id="task-tab" class="normal" d="m 4.5,2.5 -2,0 0,14 13,0 0,-14 -2,0 0,3 1,0 0,10 -11,0 0,-10 1,0 z m 2,-1 5,0 0,4 -5,0 z M 5.1,11.8 6.7,10.2 8.5,11.7 12,8 l 1.5,1.5 -5,5 z"/>
  <path id="task-tab-inverted" class="inverted" d="m 5.5,2.5 -3,0 0,14 13,0 0,-14 -3,0 0,3 0,0 0,8 -7,0 0,-8 0,0 z m 0,-1 7,0 0,4 -7,0 z m 0.1,9.3 1.5,-2.1 1.3,1.2 2.4,-3 1.7,1.6 -4,4.8 z"/>
  <path id="synchronize" class="normal" d="m 11.5,1.9 0,3.7 c 3.7,1.8 1.7,5.5 -1,6.8 l -2,-1.9 0,6 5.7,0 -1.6,-1.6 C 18.5,12.5 18.2,2.7 11.5,1.9 Z m -3.8,3.8 1.8,1.8 0,-6 -5.8,0 L 5.3,3 C -0.9,6.3 0.4,15 6.5,16.1 l 0,-3.6 C 3,10.7 4.5,7 7.7,5.7 Z"/>
  <path id="synchronize-inverted" class="inverted" d="m 11.5,1.9 0,3.7 c 3.6,1.2 2.1,5.4 -0.7,6.5 L 8.5,9.5 l 0,7 6.7,0 -1.9,-2 C 18.6,11.6 18,2.8 11.5,1.9 Z M 7,6 9.5,8.5 l 0,-7 -6.8,0 2.2,2.1 C -0.9,6.8 0.6,14.8 6.5,16.1 l 0,-3.6 C 3.5,11 4,7.3 7,6 Z"/>
  <path id="newevent" class="normal" d="m 1.5,2.5 0,14 15,0 0,-14 -2,0 0,2 -2,0 0,-3.5 0,3.5 -2,0 0,-2 -3,0 0,2 -2,0 0,-3.5 0,3.5 -2,0 0,-2 z m 0,3 15,0 0,11 -15,0 z m 6,2 3,0 0,2 2,0 0,3 -2,0 0,2 -3,0 0,-2 -2,0 0,-3 2,0 z"/>
  <path id="newevent-inverted" class="inverted" d="m 1.5,3.5 0,13 15,0 0,-13 -3,0 0,1 -3,0 0,-1 -3,0 0,1 -3,0 0,-1 z m 3,3 9,0 0,7 -9,0 z m 0,-5 0,3 3,0 0,-3 z m 6,0 0,3 3,0 0,-3 z m 0,5 0,2 2,0 0,3 -2,0 0,2 -3,0 0,-2 -2,0 0,-3 2,0 0,-2 z"/>
  <path id="newtask" class="normal" d="m 4.5,1.5 -3,0 0,16 15,0 0,-16 -3,0 0,3 2,0 0,12 -13,0 0,-12 2,0 z m 2,-1 5,0 0,4 -5,0 z m 1,7 3,0 0,2 2,0 0,3 -2,0 0,2 -3,0 0,-2 -2,0 0,-3 2,0 z"/>
  <path id="newtask-inverted" class="inverted" d="m 5.5,2.5 -3,0 0,14 13,0 0,-14 -3,0 0,3 0,0 0,8 -7,0 0,-8 0,0 z m 0,-1 7,0 0,4 -7,0 z m 2,5 3,0 0,2 2,0 0,3 -2,0 0,2 -3,0 0,-2 -2,0 0,-3 2,0 z"/>
  <path id="edit" class="normal" d="M 3.6,11.5 2.2,15.7 6.5,14.3 15.8,5 13,2.2 Z m 0,0 L 4.1,11 7,13.8 6.5,14.3 2.2,15.7 Z"/>
  <path id="edit-inverted" class="inverted" d="M 3.6,11.5 2.2,15.7 6.5,14.3 15.8,4.9 13,2.1 Z m 1,-1 0.4,-0.4 2.8,2.8 -0.4,0.4 z"/>
  <path id="delete" class="normal" d="m 9,1.5 c 4.2,0 7.5,3.3 7.5,7.5 0,4.1 -3.3,7.5 -7.5,7.5 C 4.9,16.5 1.5,13.2 1.5,9 1.5,4.8 4.9,1.5 9,1.5 Z m -3,3 7.5,7.5 C 16.3,7.1 11,1.7 6,4.5 Z M 4.5,6 c -3.1,5.4 2.9,10 7.5,7.5 z"/>
  <path id="delete-inverted" class="inverted" d="m 9,1.5 c 4.2,0 7.5,3.3 7.5,7.5 0,4.1 -3.3,7.5 -7.5,7.5 C 4.9,16.5 1.5,13.2 1.5,9 1.5,4.8 4.9,1.5 9,1.5 Z M 7,5 13,11 C 14.5,6.6 11.2,3.6 7,5 Z M 5,7 c -1.6,4.3 1.5,7.7 6,6 z"/>
  <path id="today" class="normal" d="m 1.5,2.5 0,14 15,0 0,-14 -2,0 0,2 -2,0 0,-3.5 0,3.5 -2,0 0,-2 -3,0 0,2 -2,0 0,-3.5 0,3.5 -2,0 0,-2 z m 0,3 15,0 0,11 -15,0 z m 6,2 3,0 0,4 2,0 -3.5,3 -3.5,-3 2,0 z"/>
  <path id="today-inverted" class="inverted" d="m 1.5,3.5 0,13 15,0 0,-13 -3,0 0,1 -3,0 0,-1 -3,0 0,1 -3,0 0,-1 z m 3,3 9,0 0,7 -9,0 z m 0,-5 0,3 3,0 0,-3 z m 6,0 0,3 3,0 0,-3 z m -3,5 3,0 0,3 3,0 -4.5,4 -4.5,-4 3,0 z"/>
  <path id="print" class="normal" d="m 4.5,2.5 0,4 -1.5,0 c -0.8,0 -1.5,1.1 -1.5,2 l 0,3 c 0,1 1.4,2 2.5,2 l 1.5,0 0,-1 7,0 0,1 1.5,0 c 1,0 2.5,-1 2.5,-2 l 0,-3 c 0,-0.8 -0.6,-2 -1.5,-2 l -1.5,0 0,-4 z m 0,0 9,0 0,6 -9,0 z m 4,6 2,0 0,2 -2,0 z m -4,0 3,0 0,2 -3,0 z m 0,5.4 0,1.6 m -2.5,0 14,0 m -2.5,0 0,-1.6"/>
  <path id="print-inverted" class="inverted" d="m 3.5,2.5 0,5 -0.5,0 c -0.8,0 -1.5,1.1 -1.5,2 l 0,2 c 0,0.8 0.4,2 2.5,2 l -1.5,0 0,2 13,0 0,-2 -1.5,0 c 2,0 2.5,-1.1 2.5,-2 l 0,-2 c 0,-0.8 -0.6,-2 -1.5,-2 l -0.5,0 0,-5 z m 2,2 7,0 0,3 -7,0 z m -2,5 3,0 0,1 -3,0 z m 5,0 2,0 0,1 -2,0 z m -3,3 7,0 0,1 -7,0 z"/>
  <path id="find" class="normal" d="M 8,2.5 C 5,2.5 2.5,5 2.5,8 c 0,3 2.5,5.5 5.5,5.5 3,0 5.5,-2.4 5.5,-5.5 C 13.5,5 11,2.5 8,2.5 Z m 0,2 c 2,0 3.5,1.5 3.5,3.5 0,2 -1.5,3.5 -3.5,3.5 C 6,11.5 4.5,10 4.5,8 4.5,6 6,4.5 8,4.5 Z m 4.5,7 -1,1 3,3 1,-1 z"/>
  <path id="find-inverted" class="inverted" d="M 11,12.7 14.3,16 16,14 12.7,10.9 C 13.1,10 13.5,9 13.5,8 13.5,5 11,2.5 8,2.5 5,2.5 2.5,5 2.5,8 c 0,3 2.5,5.5 5.5,5.5 1,0 2,0 3,-0.8 z M 8,5 c 1.6,0 3,1.3 3,3 0,1.6 -1.3,3 -3,3 C 6.3,11 5,9.6 5,8 5,6.3 6.3,5 8,5 Z"/>
  <path id="category" class="normal" d="M 4 2.5 C 3.3 2.5 2.5 3.3 2.5 4 L 2.5 8 L 10 15.5 L 15.5 10 L 8 2.5 L 4 2.5 z M 6 4 A 2 2 0 0 1 8 6 A 2 2 0 0 1 6 8 A 2 2 0 0 1 4 6 A 2 2 0 0 1 6 4 z"/>
  <path id="category-inverted" class="inverted" d="M 4 2.5 C 3.3 2.5 2.5 3.3 2.5 4 L 2.5 8 L 10 15.5 L 15.5 10 L 8 2.5 L 4 2.5 z M 6 4 A 2 2 0 0 1 8 6 A 2 2 0 0 1 6 8 A 2 2 0 0 1 4 6 A 2 2 0 0 1 6 4 z"/>
  <path id="complete" class="normal" d="M 1.5,10.5 3,8.5 6.7,11.7 C 9,7.8 12.6,5.6 16.5,3.5 l 0,1 c -4,3.1 -7,6.7 -9,11.2 z"/>
  <path id="complete-inverted" class="inverted" d="M 1.5,10.5 3,7.5 6.7,10.7 C 9,6.8 12.6,4.6 16.5,2.5 l 0,2 c -4,3.1 -7,6.7 -9,11.2 z"/>
  <path id="priority" class="normal" d="m 7.5,2.5 3,0 0,8 -3,0 z m 0,10 3,0 0,3 -3,0 z"/>
  <path id="priority-inverted" class="inverted" d="m 7.5,2.5 3,0 0,8 -3,0 z m 0,10 3,0 0,3 -3,0 z"/>
  <path id="pane" class="normal" d="m 1.5,2.5 0,14 15,0 0,-14 -2,0 0,2 -2,0 0,-3.5 0,3.5 -2,0 0,-2 -3,0 0,2 -2,0 0,-3.5 0,3.5 -2,0 0,-2 z m 0,3 15,0 0,11 -15,0 z"/>
  <path id="pane-inverted" class="inverted" d="m 0.5,2.5 0,15 17,0 0,-15 -4,0 0,2 -3,0 0,-2 -3,0 0,2 -3,0 0,-2 z m 3,4 11,0 0,8 -11,0 z m 1,-6 0,4 3,0 0,-4 z m 6,0 0,4 3,0 0,-4 z"/>
  <path id="save" class="normal" d="m 2.5,2.5 0,13 2,0 0,-6 8,0 0,6 3,0 0,-13 z m 2,0 9,0 0,5 -9,0 z m 2,9 4,0 0,4 -4,0 z"/>
  <path id="save-inverted" class="inverted" d="m 2.5,2.5 0,13 2.1,0 0,-5 6.9,0 0,5 4,0 0,-13 z m 2,0 9,0 0,5 -9,0 z m 0.1,8 6.9,0 0,5 -6.9,0 z"/>
  <path id="address" class="normal" d="m 2.5,15.5 13,0 c 0,-3.4 -2.2,-3 -5,-3 l 0,-1 C 12.5,10.4 12.7,9.4 13,8 13,7.7 13.5,7.4 13.5,7 13.5,6.6 13.1,6.3 13,6 12.8,5.6 12.9,3.7 12,3 10.4,1.8 7.56,1.8 6,3 5,3.7 5.1,5.6 5,6 4.8,6.3 4.5,6.6 4.5,7 c 0,0.3 0.4,0.6 0.5,1 0.2,1.5 0.5,2.3 2.5,3.5 l 0,1 c -2.5,0 -5,-0.5 -5,3 z"/>
  <path id="address-inverted" class="inverted" d="m 2.5,15.5 13,0 c 0,-3.4 -2.2,-3 -5,-3 l 0,-1 C 12.5,10.4 12.7,9.4 13,8 13,7.7 13.5,7.4 13.5,7 13.5,6.6 13.1,6.3 13,6 12.8,5.6 12.9,3.7 12,3 10.4,1.8 7.56,1.8 6,3 5,3.7 5.1,5.6 5,6 4.8,6.3 4.5,6.6 4.5,7 c 0,0.3 0.4,0.6 0.5,1 0.2,1.5 0.5,2.3 2.5,3.5 l 0,1 c -2.5,0 -5,-0.5 -5,3 z"/>
  <path id="security" class="normal" d="m 9,2.5 c -2.5,0 -4.4,1.8 -4.5,5 l 0,1 -2,0 0,7 13,0 0,-7 -2,0 0,-1 C 13.4,3.9 11.3,2.5 9,2.5 Z m 0,2.2 c 2.2,0 2.5,1.8 2.5,3.8 l -5,0 C 6.5,6.5 6.6,4.7 9,4.7 Z"/>
  <path id="security-inverted" class="inverted" d="m 9,2.5 c -2.75,0 -5.5,0.75 -5.5,5 l 0,1 -1,0 0,7 13,0 0,-7 -1,0 0,-1 c 0,-4 -3,-5 -5.5,-5 z m 0,3 c 2.5,0 2.5,1 2.5,3 l -5,0 c 0,-2 0,-3 2.5,-3 z"/>
  <path id="attach" class="normal" d="m 13.5,2.5 0,10.5 -4,3.5 -4,-3.5 0,-11.5 6,0 0,10 -2,2 -2,-2 0,-8 2,0 0,6.5" style="fill:none"/>
  <path id="attach-inverted" class="inverted" d="m 11.5,3 2,0 0,10 L 9,16.5 4.5,13 l 0,-11.5 7,0 z m 0,0.5 0,8.5 -2.5,2 -2.5,-2 0,-8.5 3,0 0,7.5 L 9,11.4 8.5,11 8.5,4"/>
  <path id="status" class="normal" d="M 16.5,9 A 7.5,7.5 0 0 1 9,16.5 7.5,7.5 0 0 1 1.5,9 7.5,7.5 0 0 1 9,1.5 7.5,7.5 0 0 1 16.5,9 Z M 12.5,9 A 3.5,3.5 0 0 1 9,12.5 3.5,3.5 0 0 1 5.5,9 3.5,3.5 0 0 1 9,5.5 3.5,3.5 0 0 1 12.5,9 Z" style="fill-opacity:0.5"/>
  <path id="status-inverted" class="inverted" d="M 16.5,9 A 7.5,7.5 0 0 1 9,16.5 7.5,7.5 0 0 1 1.5,9 7.5,7.5 0 0 1 9,1.5 7.5,7.5 0 0 1 16.5,9 Z M 12.5,9 A 3.5,3.5 0 0 1 9,12.5 3.5,3.5 0 0 1 5.5,9 3.5,3.5 0 0 1 9,5.5 3.5,3.5 0 0 1 12.5,9 Z"/>
  <path id="freebusy" class="normal" d="M 9,1.5 C 4.8,1.5 1.5,4.8 1.5,9 1.5,13.1 5.2,16.3 9,16.5 13,16.7 16.5,13.2 16.5,9 16.5,4.8 13.1,1.5 9,1.5 Z m 0,0 c 0.7,0 1.5,0 2.5,0.5 l 0,4.5 4,0 0,5 -6,0 0,5 C 4.5,16.3 1.5,12.5 1.5,9 1.5,5.3 4.2,1.6 9,1.5 Z m -0.5,2 1,0 0,5 4,0 0,1 -5,0 z"/>
  <path id="freebusy-inverted" class="inverted" d="M 9,1.5 C 4.8,1.5 1.5,4.8 1.5,9 1.5,13.1 5.2,16.3 9,16.5 13,16.7 16.5,13.2 16.5,9 16.5,4.8 13.1,1.5 9,1.5 Z m -1.5,3.7 0,-1.7 3,0 0,4 4,0 0,3 -5,0 0,3 C 6.2,13.4 4.4,11.5 4.5,9 4.5,6.4 6,5.2 7.5,5.2 Z m 0,-1.7 3,0 0,4 4,0 0,3 -7,0 z"/>
  <path id="timezones" class="normal" d="M 9,1.5 C 4.8,1.5 1.5,4.8 1.5,9 1.5,13.1 5.2,16.3 9,16.5 13,16.7 16.5,13.2 16.5,9 16.5,4.8 13.1,1.5 9,1.5 Z M 7,3.8 6.3,4.6 6.3,5.7 7.1,6.8 7.8,8.2 9.4,8.3 10.4,6.1 9.8,3.8 11.3,1.9 c 1.5,0.5 3,1.5 3.8,3 l -3.4,2.5 1.6,-0.1 1.3,2 -0.3,1.8 -0.8,1.4 0.7,1.8 c -0.5,0.7 -1.5,1.3 -2.6,1.7 L 9.7,14 11.2,11.1 9.7,9.9 8.3,9 6.8,10.2 5.9,12.2 6,14 7,16 C 4.7,15.4 3.3,14 2.3,12.2 L 3.5,10.4 3.4,8.9 4.3,8 3.7,7.1 3.7,5.4 2.8,4.7 C 4,3 5.8,1.8 7.8,1.6 Z"/>
  <path id="timezones-inverted" class="inverted" d="M 9,1.5 C 4.8,1.5 1.5,4.8 1.5,9 1.5,13.1 5.2,16.3 9,16.5 13,16.7 16.5,13.2 16.5,9 16.5,4.8 13.1,1.5 9,1.5 Z m -2.8,3.3 0.8,2.8 L 7.5,9 9.9,8.6 10,5.7 9.8,3.6 c 1.5,0.5 1.8,0.1 2.6,1.6 l -1,2 0.3,2.7 2.6,-0.7 C 14.2,12 12.6,13.4 10.2,14.3 L 11.1,13.3 11,11.2 10.1,8.7 7,9 5.8,13.4 8,14.5 c -2.3,-0.6 -3.5,-2 -4.5,-3.8 C 5.6,9.3 6,8 4.3,5.7 5.6,4.3 6,4 7.7,3.5 Z"/>
  <path id="decline" class="normal" d="M 2.5,5 5,2.5 l 4,4 4,-4 2.5,2.5 -4,4 4,4 -2.5,2.5 -4,-4 -4,4 -2.5,-2.5 4,-4 z"/>
  <path id="decline-inverted" class="inverted" d="M 2.5,5 5,2.5 l 4,4 4,-4 2.5,2.5 -4,4 4,4 -2.5,2.5 -4,-4 -4,4 -2.5,-2.5 4,-4 z"/>
  <path id="tentative" class="normal" d="m 8.2,6.5 -2.7,0 c 0,-1.4 0.5,-4 3.5,-4 2.3,0 4.4,1 4.5,4 0,2.8 -3,2.5 -3,5 l -3,0 C 7.4,8 10.3,8.5 10.2,6.5 10,5.5 9.3,5.5 9,5.5 c 0,0 -0.8,0 -0.8,1 z m -0.7,7 3,0 0,2 -3,0 z"/>
  <path id="tentative-inverted" class="inverted" d="m 8.2,6.5 -2.7,0 c 0,-1.4 0.5,-4 3.5,-4 2.3,0 4.4,1 4.5,4 0,2.8 -3,2.5 -3,5 l -3,0 C 7.4,8 10.3,8.5 10.2,6.5 10,5.5 9.3,5.5 9,5.5 c 0,0 -0.8,0 -0.8,1 z m -0.7,7 3,0 0,2 -3,0 z"/>
</svg>
