<!-- This Source Code Form is subject to the terms of the Mozilla Public
   - License, v. 2.0. If a copy of the MPL was not distributed with this
   - file, You can obtain one at http://mozilla.org/MPL/2.0/. -->
<svg width="12" height="12" viewBox="0 0 12 12" xmlns="http://www.w3.org/2000/svg">
  <path d="M3.50005 3C3.36745 3.00002 3.24028 3.05271 3.14653 3.14648C3.05279 3.24025 3.00012 3.36741 3.00012 3.5C3.00012 3.63259 3.05279 3.75975 3.14653 3.85352L5.29302 6L3.14653 8.14648C3.05279 8.24025 3.00012 8.36741 3.00012 8.5C3.00012 8.63259 3.05279 8.75975 3.14653 8.85352C3.2403 8.94726 3.36746 8.99992 3.50005 8.99992C3.63264 8.99992 3.7598 8.94726 3.85356 8.85352L6.00005 6.70703L8.14653 8.85352C8.2403 8.94726 8.36746 8.99992 8.50005 8.99992C8.63264 8.99992 8.7598 8.94726 8.85356 8.85352C8.94731 8.75975 8.99997 8.63259 8.99997 8.5C8.99997 8.36741 8.94731 8.24025 8.85356 8.14648L6.70708 6L8.85356 3.85352C8.94731 3.75975 8.99997 3.63259 8.99997 3.5C8.99997 3.36741 8.94731 3.24025 8.85356 3.14648C8.7598 3.05274 8.63264 3.00008 8.50005 3.00008C8.36746 3.00008 8.2403 3.05274 8.14653 3.14648L6.00005 5.29297L3.85356 3.14648C3.75981 3.05271 3.63265 3.00002 3.50005 3Z" fill-opacity="context-stroke-opacity" fill="context-stroke"/>
</svg>
