<!-- This Source Code Form is subject to the terms of the Mozilla Public
   - License, v. 2.0. If a copy of the MPL was not distributed with this
   - file, You can obtain one at http://mozilla.org/MPL/2.0/. -->
<svg width="12" height="12" viewBox="0 0 12 12" fill-opacity="context-fill-opacity" xmlns="http://www.w3.org/2000/svg">
  <path d="M8.5 6C8.5 6.3283 8.43534 6.65341 8.3097 6.95673C8.18406 7.26004 7.99991 7.53561 7.76777 7.76776C7.53562 7.99991 7.26002 8.18406 6.95671 8.30969C6.65339 8.43533 6.3283 8.5 6 8.5C5.67169 8.5 5.34661 8.43533 5.04329 8.30969C4.73998 8.18406 4.46438 7.99991 4.23223 7.76776C4.00009 7.53561 3.81594 7.26004 3.6903 6.95673C3.56466 6.65341 3.5 6.3283 3.5 6C3.5 5.6717 3.56466 5.34659 3.6903 5.04327C3.81594 4.73996 4.00009 4.46439 4.23223 4.23224C4.46438 4.00009 4.73998 3.81594 5.04329 3.69031C5.34661 3.56467 5.67169 3.5 6 3.5C6.3283 3.5 6.65339 3.56467 6.95671 3.69031C7.26002 3.81594 7.53562 4.00009 7.76777 4.23224C7.99991 4.46439 8.18406 4.73996 8.3097 5.04327C8.43534 5.34659 8.5 5.6717 8.5 6Z" fill="context-fill"/>
  <path d="M6 3C4.34907 3 3 4.34907 3 6C3 7.65093 4.34907 9 6 9C7.65093 9 9 7.65093 9 6C9 4.34907 7.65093 3 6 3ZM6 4C7.11049 4 8 4.88951 8 6C8 7.11049 7.11049 8 6 8C4.88951 8 4 7.11049 4 6C4 4.88951 4.88951 4 6 4ZM6.5 5C6.43434 5 6.36932 5.01296 6.30866 5.03809C6.248 5.06321 6.19288 5.09999 6.14645 5.14642C6.10002 5.19285 6.06319 5.24799 6.03806 5.30865C6.01293 5.36932 6 5.43434 6 5.5C6 5.56566 6.01293 5.63068 6.03806 5.69135C6.06319 5.75201 6.10002 5.80715 6.14645 5.85358C6.19288 5.90001 6.248 5.93679 6.30866 5.96191C6.36932 5.98704 6.43434 6 6.5 6C6.56566 6 6.63068 5.98704 6.69134 5.96191C6.752 5.93679 6.80712 5.90001 6.85355 5.85358C6.89998 5.80715 6.93681 5.75201 6.96194 5.69135C6.98707 5.63068 7 5.56566 7 5.5C7 5.43434 6.98707 5.36932 6.96194 5.30865C6.93681 5.24799 6.89998 5.19285 6.85355 5.14642C6.80712 5.09999 6.752 5.06321 6.69134 5.03809C6.63068 5.01296 6.56566 5 6.5 5Z" fill="context-stroke"/>
</svg>
