<!-- This Source Code Form is subject to the terms of the Mozilla Public
   - License, v. 2.0. If a copy of the MPL was not distributed with this
   - file, You can obtain one at http://mozilla.org/MPL/2.0/. -->
<svg width="12" height="12" viewBox="0 0 12 12" xmlns="http://www.w3.org/2000/svg">
  <path d="M2.5 8.5V9C2.5 9.831 3.169 10.5 4 10.5H10C10.831 10.5 11.5 9.831 11.5 9V5C11.5 4.169 10.831 3.5 10 3.5H9.5V7C9.5 7.831 8.831 8.5 8 8.5H2.5Z" fill="context-fill" fill-opacity="context-fill-opacity"/>
  <path d="M2 1C0.900652 1 0 1.90065 0 3V7C0 8.09935 0.900652 9 2 9C2 10.1046 2.89543 11 4 11H10C11.1046 11 12 10.1046 12 9V5C12 3.89543 11.1046 3 10 3C10 1.90065 9.09935 1 8 1H2ZM2 2H8C8.56265 2 9 2.43735 9 3V7C9 7.56265 8.56265 8 8 8H2C1.43735 8 1 7.56265 1 7V3C1 2.43735 1.43735 2 2 2ZM2.46484 3C2.40605 3.0042 2.34695 3.02047 2.29297 3.04492C2.22099 3.07751 2.15867 3.12576 2.10938 3.1875C2.06831 3.23878 2.03783 3.29823 2.01953 3.36133C2.00123 3.42443 1.99469 3.48939 2.00195 3.55469C2.0092 3.61999 2.0308 3.68465 2.0625 3.74219C2.09421 3.79974 2.13618 3.84962 2.1875 3.89062L3.41797 4.875L2.14648 6.14648C2.05274 6.24025 2 6.36741 2 6.5C2 6.63259 2.05274 6.75975 2.14648 6.85352C2.24025 6.94726 2.36741 7 2.5 7C2.63259 7 2.75975 6.94726 2.85352 6.85352L4.20312 5.50391L4.6875 5.89062C4.77619 5.96162 4.8864 6 5 6C5.1136 6 5.22381 5.96162 5.3125 5.89062L5.79688 5.50391L7.14648 6.85352C7.24025 6.94726 7.36741 7 7.5 7C7.63259 7 7.75975 6.94726 7.85352 6.85352C7.94726 6.75975 8 6.63259 8 6.5C8 6.36741 7.94726 6.24025 7.85352 6.14648L6.58203 4.875L7.8125 3.89062C7.86382 3.84962 7.90579 3.79974 7.9375 3.74219C7.9692 3.68465 7.9908 3.61999 7.99805 3.55469C8.00531 3.48939 7.99877 3.42443 7.98047 3.36133C7.96217 3.29823 7.93169 3.23878 7.89062 3.1875C7.84962 3.13617 7.79974 3.0942 7.74219 3.0625C7.68464 3.03079 7.61999 3.0092 7.55469 3.00195C7.48939 2.99469 7.42443 3.00123 7.36133 3.01953C7.29823 3.03783 7.23878 3.06831 7.1875 3.10938L5 4.85938L2.8125 3.10938C2.73011 3.04331 2.62892 3.00502 2.52344 3C2.50371 2.99908 2.48444 2.9986 2.46484 3ZM10 4C10.5523 4 11 4.44772 11 5V9C11 9.55228 10.5523 10 10 10H4C3.44772 10 3 9.55228 3 9H8C9.09935 9 10 8.09935 10 7V4Z" fill="context-stroke" fill-opacity="context-stroke-opacity"/>
</svg>
