<!-- This Source Code Form is subject to the terms of the Mozilla Public
   - License, v. 2.0. If a copy of the MPL was not distributed with this
   - file, You can obtain one at http://mozilla.org/MPL/2.0/. -->
<svg width="12" height="12" viewBox="0 0 12 12" xmlns="http://www.w3.org/2000/svg">
  <path d="M6 2.5C5.32248 2.5 5.03407 4.06866 4.55499 4.54663C4.07591 5.0246 2.5 5.32405 2.5 6C2.5 6.67595 4.07591 6.9754 4.55499 7.45337C5.03407 7.93135 5.32248 9.5 6 9.5C6.67752 9.5 6.98941 7.93135 7.46849 7.45337C7.94757 6.9754 9.5 6.67595 9.5 6C9.5 5.32405 7.94757 5.0246 7.46849 4.54663C6.98941 4.06866 6.67752 2.5 6 2.5Z" fill="context-fill"/>
  <path d="M6 2C5.63768 2 5.35464 2.21638 5.17383 2.43164C4.99302 2.6469 4.86722 2.88654 4.75195 3.12695C4.52142 3.60777 4.28261 4.11211 4.20117 4.19336C4.11873 4.27561 3.6135 4.51505 3.13086 4.74805C2.88954 4.86455 2.64709 4.99061 2.43164 5.17188C2.21619 5.35314 2 5.63673 2 6C2 6.36327 2.21619 6.64686 2.43164 6.82812C2.64709 7.00939 2.88954 7.13545 3.13086 7.25195C3.6135 7.48495 4.11873 7.72439 4.20117 7.80664C4.28262 7.8879 4.52142 8.39223 4.75195 8.87305C4.86722 9.11345 4.99302 9.3531 5.17383 9.56836C5.35464 9.78362 5.63768 10 6 10C6.36232 10 6.64527 9.78633 6.82812 9.57227C7.01098 9.35821 7.13943 9.11735 7.25781 8.87695C7.49458 8.39616 7.73793 7.89079 7.82227 7.80664C7.9076 7.7215 8.40567 7.48336 8.88281 7.25C9.12138 7.13332 9.36113 7.00803 9.57422 6.82617C9.78731 6.64432 10 6.36038 10 6C10 5.63962 9.78731 5.35568 9.57422 5.17383C9.36113 4.99197 9.12138 4.86668 8.88281 4.75C8.40567 4.51664 7.9076 4.2785 7.82227 4.19336C7.73793 4.10922 7.49458 3.60384 7.25781 3.12305C7.13943 2.88265 7.01098 2.64179 6.82812 2.42773C6.64527 2.21367 6.36232 2 6 2ZM6 3C5.97644 3 5.98721 2.98313 6.06836 3.07812C6.14951 3.17312 6.25521 3.35294 6.35937 3.56445C6.5677 3.98748 6.72049 4.50656 7.11523 4.90039C7.50898 5.29322 8.02451 5.44359 8.44336 5.64844C8.65278 5.75086 8.83282 5.85621 8.92578 5.93555C9.01875 6.01489 9 6.0224 9 6C9 5.9776 9.01875 5.98511 8.92578 6.06445C8.83282 6.14379 8.65278 6.24914 8.44336 6.35156C8.02451 6.55641 7.50898 6.70678 7.11523 7.09961C6.72049 7.49344 6.5677 8.01252 6.35938 8.43555C6.25521 8.64706 6.14951 8.82688 6.06836 8.92188C5.98721 9.01687 5.97644 9 6 9C6.02356 9 6.01824 9.01958 5.93945 8.92578C5.86066 8.83198 5.75571 8.65095 5.6543 8.43945C5.45148 8.01645 5.30583 7.49633 4.9082 7.09961C4.51157 6.70389 3.98953 6.55677 3.56445 6.35156C3.35191 6.24896 3.17118 6.14243 3.07617 6.0625C2.98117 5.98257 3 5.9747 3 6C3 6.0253 2.98117 6.01743 3.07617 5.9375C3.17118 5.85757 3.35191 5.75104 3.56445 5.64844C3.98953 5.44323 4.51157 5.29611 4.9082 4.90039C5.30584 4.50367 5.45148 3.98355 5.6543 3.56055C5.75571 3.34904 5.86066 3.16802 5.93945 3.07422C6.01824 2.98042 6.02356 3 6 3Z" fill="context-stroke"/>
</svg>
