<!-- This Source Code Form is subject to the terms of the Mozilla Public
   - License, v. 2.0. If a copy of the MPL was not distributed with this
   - file, You can obtain one at http://mozilla.org/MPL/2.0/. -->
<svg height="16" viewBox="0 0 16 16" width="16" xmlns="http://www.w3.org/2000/svg">
    <path fill="context-fill" fill-opacity="context-fill-opacity" d="M11 10a1 1 0 01-1-1V5H3v8a1 1 0 001 1h2a1 1 0 010 2H3a2 2 0 01-2-2V4c0-1.1.9-2 2-2h1.05a2.5 2.5 0 014.9 0H10a2 2 0 012 2v5a1 1 0 01-1 1zm-1-6V3H8.95a1 1 0 01-.98-.8 1.5 1.5 0 00-2.94 0 1 1 0 01-.98.8H3v1zM6.5 2a.5.5 0 110 1 .5.5 0 010-1zm-2 5a.5.5 0 010-1h4a.5.5 0 010 1zm0 2a.5.5 0 010-1h2a.5.5 0 010 1zm0 2a.5.5 0 110-1h3a.5.5 0 110 1zm5.16 5a.67.67 0 01-.47-.2l-2-2a.67.67 0 01.94-.95l1.44 1.44 4.22-6.02a.67.67 0 011.1.77L10.2 15.7a.67.67 0 01-.55.29z"/>
</svg>
