<!-- This Source Code Form is subject to the terms of the Mozilla Public
   - License, v. 2.0. If a copy of the MPL was not distributed with this
   - file, You can obtain one at http://mozilla.org/MPL/2.0/. -->
<svg width="210" height="210" viewBox="0 0 210 210" fill="none" xmlns="http://www.w3.org/2000/svg">
<g clip-path="url(#clip0_640_4234)">
<path d="M89.5704 54.9563L89.5869 54.9563C94.9543 36.1931 118.343 27.0328 142.177 27.0328C158.644 27.0328 173.43 32.2483 183.564 40.5248C177.286 40.836 171.314 42.0644 165.847 44.047C174.036 47.0891 181.071 51.7728 186.285 57.567C182.826 56.9692 179.238 56.6546 175.559 56.6546C175.162 56.6546 174.766 56.6583 174.372 56.6655C183.845 70.4007 189.392 87.0525 189.392 105C189.392 152.073 151.232 190.232 104.16 190.232C57.8124 190.232 18.9268 151.427 18.9268 105C18.9268 97.6675 19.9027 90.0944 21.7941 82.9964C22.2888 81.5054 22.9808 80.0755 23.8998 79.5525C25.0499 78.8979 26.0952 80.8497 26.2645 81.4853C27.5137 86.175 29.1965 90.7106 31.2723 95.0551C31.0911 85.3227 35.2477 76.4605 40.9674 68.7927C44.7797 63.6817 48.3139 58.9438 49.9461 45.2753C50.0557 44.3578 50.9258 43.6973 51.804 43.9848C64.215 48.0482 70.8499 68.7129 69.8167 85.9931C76.6731 86.9732 76.6414 79.8116 76.6414 79.8116C74.4497 73.0767 75.911 60.5572 89.5482 54.9562L89.5704 54.9563Z" fill="url(#paint0_linear_640_4234)"/>
<path opacity="0.9" d="M186.604 83.2946C188.676 130.173 150.139 170.589 103.145 170.589C59.154 170.589 23.1045 136.587 19.8438 93.4307C19.2693 97.4176 18.9583 101.49 18.929 105.629C19.2629 151.811 58.0543 190.232 104.16 190.232C151.232 190.232 189.392 152.073 189.392 105C189.392 97.499 188.423 90.2245 186.604 83.2946Z" fill="url(#paint1_radial_640_4234)"/>
<g style="mix-blend-mode:screen">
<path d="M102.083 61.1686C101.164 59.5432 96.924 57.1404 95.0715 56.7211C102.083 34.2569 137.814 27.3599 159.682 31.3347C168.782 32.9885 180.117 37.9498 183.564 40.5248C173.43 32.2483 158.644 27.0328 142.177 27.0328C118.343 27.0328 94.9542 36.1931 89.5869 54.9563L89.5704 54.9563L89.5481 54.9562C75.9109 60.5572 74.4514 73.0806 76.6431 79.8154C78.7458 71.7819 88.758 61.9098 102.083 61.1686Z" fill="url(#paint2_radial_640_4234)"/>
</g>
<path d="M126.851 45.6546C107.706 49.4216 101.449 50.6527 95.0406 56.7441C102.237 37.6918 120.608 33.8317 142.496 42.5152C136.471 43.7617 131.311 44.7769 126.851 45.6546Z" fill="url(#paint3_linear_640_4234)"/>
<path d="M23.5535 80.3873C18.3232 101.802 22.3647 126.972 46.1274 148.095C39.0529 140.36 30.417 111.795 49.4764 91.3861C50.7603 90.0113 52.9692 91.0231 53.0387 92.9029C54.609 135.314 88.8332 161.217 128.287 156.373C116.062 155.686 75.633 141.527 105.707 135.924C121.427 132.996 146.075 128.404 146.075 106.29C146.075 70.4369 118.353 59.9548 101.545 61.5144C90.0397 62.5818 79.8006 69.8815 76.6481 79.8088C77.8578 83.7234 73.0353 86.4641 69.8167 86.004C70.8499 68.7238 64.2151 48.0483 51.804 43.9849C50.9258 43.6974 50.0557 44.3579 49.9462 45.2754C48.3139 58.9439 44.7797 63.6818 40.9674 68.7927C35.2477 76.4606 31.0911 85.3228 31.2724 95.0552C29.1965 90.7107 27.5137 86.175 26.2645 81.4854C26.1244 80.9591 25.3632 79.4924 24.4419 79.4231C23.9431 79.3857 23.6791 79.8728 23.5535 80.3873Z" fill="url(#paint4_radial_640_4234)"/>
<g style="mix-blend-mode:screen">
<path d="M95.1467 138.094C118.29 156.886 164.836 142.798 164.836 97.104C146.044 125.588 122.111 145.235 95.1467 138.094Z" fill="url(#paint5_linear_640_4234)"/>
</g>
<g style="mix-blend-mode:screen">
<path d="M49.4759 91.386C49.9645 90.8628 50.5876 90.6831 51.1765 90.7648C34.1152 111.572 47.8756 148.119 57.3203 157.096C57.848 158.591 48.3615 150.817 47.0533 148.996C39.8699 142.902 29.574 112.697 49.4759 91.386Z" fill="url(#paint6_linear_640_4234)"/>
</g>
<path d="M104.159 139.815C127.31 139.815 146.077 124.502 146.077 105.613C146.077 86.723 127.31 71.4099 104.159 71.4099C84.4095 71.4099 62.2344 84.2587 62.2416 106.112C62.2528 139.883 97.9283 159.31 128.339 156.369C126.055 156.104 111.805 155.347 102.173 144.451C101.304 143.469 99.7963 141.756 100.48 140.642C101.164 139.528 103.043 139.815 104.159 139.815Z" fill="url(#paint7_linear_640_4234)"/>
<path opacity="0.6" d="M141.51 90.0739L108.383 121.771C105.443 123.86 102.313 124.013 99.2237 122.116L66.7354 90.188C67.6505 88.7128 68.6928 87.2989 69.8505 85.9561C71.0211 87.0508 72.1546 88.1125 73.2605 89.1484C81.7956 97.1427 88.6943 103.604 98.4172 111.903C102.807 115.649 104.171 115.575 108.474 111.903C119.6 102.407 127.734 95.2203 138.311 85.7776C139.501 87.1389 140.572 88.5744 141.51 90.0739Z" fill="white"/>
<mask id="mask0_640_4234" style="mask-type:luminance" maskUnits="userSpaceOnUse" x="62" y="89" width="85" height="68">
<path d="M146.077 105.613C146.077 124.502 127.309 139.815 104.159 139.815C103.043 139.815 101.164 139.528 100.48 140.642C99.796 141.756 101.304 143.469 102.173 144.451C111.223 154.689 124.35 155.976 127.797 156.314C128.019 156.335 128.2 156.353 128.338 156.369C97.928 159.31 62.2525 139.883 62.2413 106.112C62.2393 100.102 63.9149 94.7736 66.7562 90.2058L99.4071 119.861C101.73 121.971 105.644 121.971 107.967 119.861L141.237 89.6438C144.327 94.4106 146.077 99.8449 146.077 105.613Z" fill="white"/>
</mask>
<g mask="url(#mask0_640_4234)">
<rect opacity="0.7" x="52.5337" y="66.1652" width="105.95" height="96.0624" fill="url(#paint8_linear_640_4234)"/>
<g filter="url(#filter0_f_640_4234)">
<path fill-rule="evenodd" clip-rule="evenodd" d="M94.4292 120.062C88.2559 113.637 69.7663 92.2938 69.7663 92.2938L71.1975 92.3553L100.141 113.974C102.31 115.549 105.401 115.533 107.549 113.936L135.931 92.3831L137.438 92.2661C137.438 92.2661 119.553 113.103 112.703 119.968C105.853 126.833 100.603 126.487 94.4292 120.062Z" fill="#458FCD"/>
</g>
</g>
<path d="M110.04 54.302C114.526 52.8894 114.133 48.4484 114.133 48.4484C114.133 48.4484 111.889 45.808 107.445 47.2715C103.284 48.6415 102.64 51.6035 102.64 51.6035C102.64 51.6035 104.912 55.9167 110.04 54.302Z" fill="white"/>
</g>
<defs>
<filter id="filter0_f_640_4234" x="61.9736" y="84.4734" width="83.257" height="48.3187" filterUnits="userSpaceOnUse" color-interpolation-filters="sRGB">
<feFlood flood-opacity="0" result="BackgroundImageFix"/>
<feBlend mode="normal" in="SourceGraphic" in2="BackgroundImageFix" result="shape"/>
<feGaussianBlur stdDeviation="3.89635" result="effect1_foregroundBlur_640_4234"/>
</filter>
<linearGradient id="paint0_linear_640_4234" x1="48.5102" y1="55.1257" x2="168.663" y2="167.201" gradientUnits="userSpaceOnUse">
<stop stop-color="#1B91F3"/>
<stop offset="1" stop-color="#0B68CB"/>
</linearGradient>
<radialGradient id="paint1_radial_640_4234" cx="0" cy="0" r="1" gradientUnits="userSpaceOnUse" gradientTransform="translate(48.289 93.689) rotate(66.5179) scale(72.0721 69.0432)">
<stop offset="0.525579" stop-color="#0B4186" stop-opacity="0"/>
<stop offset="1" stop-color="#0B4186" stop-opacity="0.45"/>
</radialGradient>
<radialGradient id="paint2_radial_640_4234" cx="0" cy="0" r="1" gradientUnits="userSpaceOnUse" gradientTransform="translate(106.351 64.0883) rotate(-127.994) scale(15.4079 25.4963)">
<stop stop-color="#EF3ACC" stop-opacity="0"/>
<stop offset="1" stop-color="#EF3ACC" stop-opacity="0.64"/>
</radialGradient>
<linearGradient id="paint3_linear_640_4234" x1="81.9426" y1="83.8162" x2="125.178" y2="35.6863" gradientUnits="userSpaceOnUse">
<stop stop-color="#0F5DB0"/>
<stop offset="1" stop-color="#0F5DB0" stop-opacity="0"/>
</linearGradient>
<radialGradient id="paint4_radial_640_4234" cx="0" cy="0" r="1" gradientUnits="userSpaceOnUse" gradientTransform="translate(72.0145 151.439) rotate(-64.2627) scale(112.439 138.894)">
<stop offset="0.0160882" stop-color="#094188"/>
<stop offset="0.967387" stop-color="#0B4186" stop-opacity="0"/>
</radialGradient>
<linearGradient id="paint5_linear_640_4234" x1="157.714" y1="118.665" x2="137.613" y2="168.024" gradientUnits="userSpaceOnUse">
<stop stop-color="#E247C4" stop-opacity="0"/>
<stop offset="1" stop-color="#E247C4" stop-opacity="0.64"/>
</linearGradient>
<linearGradient id="paint6_linear_640_4234" x1="33.0531" y1="74.3982" x2="50.7635" y2="145.682" gradientUnits="userSpaceOnUse">
<stop offset="0.104632" stop-color="#EF3ACC"/>
<stop offset="1" stop-color="#EF3ACC" stop-opacity="0"/>
</linearGradient>
<linearGradient id="paint7_linear_640_4234" x1="104.161" y1="83.9355" x2="104.161" y2="156.018" gradientUnits="userSpaceOnUse">
<stop stop-color="white"/>
<stop offset="0.90535" stop-color="#BEE1FE"/>
<stop offset="1" stop-color="#96CEFD"/>
</linearGradient>
<linearGradient id="paint8_linear_640_4234" x1="105.508" y1="124.725" x2="105.508" y2="154.922" gradientUnits="userSpaceOnUse">
<stop stop-color="#BCE0FD"/>
<stop offset="1" stop-color="#88CCFC"/>
</linearGradient>
<clipPath id="clip0_640_4234">
<rect width="210" height="210" fill="white" transform="translate(0.800003)"/>
</clipPath>
</defs>
</svg>
