<!-- This Source Code Form is subject to the terms of the Mozilla Public
   - License, v. 2.0. If a copy of the MPL was not distributed with this
   - file, You can obtain one at http://mozilla.org/MPL/2.0/. -->
<svg width="261" height="50" viewBox="0 0 261 50" xmlns="http://www.w3.org/2000/svg">
  <path d="M205.285 8.70312C204.461 8.70312 203.75 9.0013 203.154 9.59766C202.586 10.1656 202.303 10.8475 202.303 11.6426C202.303 12.4378 202.586 13.1341 203.154 13.7305C203.75 14.3268 204.461 14.625 205.285 14.625C206.08 14.625 206.76 14.3268 207.328 13.7305C207.896 13.1341 208.182 12.4378 208.182 11.6426C208.182 10.8475 207.896 10.1656 207.328 9.59766C206.76 9.0013 206.08 8.70312 205.285 8.70312ZM32.5176 10.1934V39.9688H37.7129V26.6367C37.7129 25.302 38.2257 24.1802 39.248 23.2715C40.2987 22.3344 41.575 21.8652 43.0801 21.8652C44.4432 21.8652 45.5524 22.349 46.4043 23.3145C47.2562 24.2516 47.6816 25.4715 47.6816 26.9766V39.9688H52.75V25.9551C52.75 24.308 52.3955 22.8463 51.6855 21.5684C51.004 20.2621 50.0386 19.253 48.7891 18.543C47.568 17.8047 46.1626 17.4355 44.5723 17.4355C43.124 17.4355 41.7895 17.7629 40.5684 18.416C39.3473 19.0408 38.3945 19.8769 37.7129 20.9277V10.1934H32.5176ZM123.854 10.1934V21.3965C123.002 20.147 121.907 19.1816 120.572 18.5C119.266 17.7901 117.819 17.4355 116.229 17.4355C114.298 17.4355 112.565 17.9319 111.031 18.9258C109.498 19.8913 108.291 21.2549 107.41 23.0156C106.53 24.7479 106.09 26.7224 106.09 28.9375C106.09 31.1525 106.53 33.1397 107.41 34.9004C108.291 36.661 109.498 38.0373 111.031 39.0312C112.565 39.9967 114.298 40.4805 116.229 40.4805C117.819 40.4805 119.266 40.1406 120.572 39.459C121.907 38.7491 123.002 37.769 123.854 36.5195V39.9688H129.051V10.1934H123.854ZM175.812 10.1934V39.9688H181.01V36.5195C181.862 37.769 182.939 38.7491 184.246 39.459C185.58 40.1406 187.045 40.4805 188.635 40.4805C190.566 40.4805 192.297 39.9967 193.83 39.0312C195.364 38.0373 196.57 36.661 197.451 34.9004C198.331 33.1397 198.771 31.1525 198.771 28.9375C198.771 26.7224 198.331 24.7479 197.451 23.0156C196.57 21.2549 195.364 19.8913 193.83 18.9258C192.297 17.9319 190.566 17.4355 188.635 17.4355C187.045 17.4355 185.58 17.7901 184.246 18.5C182.939 19.1816 181.862 20.147 181.01 21.3965V10.1934H175.812ZM245.393 10.1934V21.3965C244.541 20.147 243.446 19.1816 242.111 18.5C240.805 17.7901 239.358 17.4355 237.768 17.4355C235.836 17.4355 234.103 17.9319 232.57 18.9258C231.036 19.8913 229.829 21.2549 228.949 23.0156C228.069 24.7479 227.629 26.7224 227.629 28.9375C227.629 31.1525 228.069 33.1397 228.949 34.9004C229.829 36.661 231.036 38.0373 232.57 39.0312C234.103 39.9967 235.836 40.4805 237.768 40.4805C239.358 40.4805 240.805 40.1406 242.111 39.459C243.446 38.7491 244.541 37.769 245.393 36.5195V39.9688H250.59V10.1934H245.393ZM4.07617 10.7051V15.5605H13.4473V39.9688H18.7715V15.5605H28.1016V10.7051H4.07617ZM255.482 15C254.385 15 253.5 15.9214 253.5 17.0566C253.5 18.196 254.385 19.0977 255.482 19.0977C256.664 19.0977 257.551 18.196 257.551 17.0566C257.551 15.9214 256.664 15 255.482 15ZM255.482 15.3926C256.453 15.3926 257.088 16.0987 257.088 17.0566C257.088 18.0188 256.453 18.7051 255.482 18.7051C254.596 18.7051 253.922 18.0188 253.922 17.0566C253.922 16.0987 254.596 15.3926 255.482 15.3926ZM254.766 15.9199V18.127H255.23V17.2793H255.441L255.904 18.127H256.453L255.863 17.207C256.159 17.1184 256.369 16.9125 256.369 16.5918C256.369 16.1445 256.073 15.9199 255.398 15.9199H254.766ZM255.23 16.2715H255.441C255.779 16.2715 255.904 16.3681 255.904 16.5918C255.904 16.8323 255.736 16.9297 255.482 16.9297H255.23V16.2715ZM94.3281 17.4355C92.8798 17.4355 91.5453 17.7483 90.3242 18.373C89.1314 18.9694 88.1952 19.793 87.5137 20.8438V17.9473H82.3164V39.9688H87.5137V26.6367C87.5137 25.302 88.0246 24.1802 89.0469 23.2715C90.0693 22.3344 91.3328 21.8652 92.8379 21.8652C94.201 21.8652 95.3083 22.349 96.1602 23.3145C97.0406 24.2516 97.4805 25.4715 97.4805 26.9766V39.9688H102.551V25.9551C102.551 24.308 102.194 22.8463 101.484 21.5684C100.803 20.2621 99.8374 19.253 98.5879 18.543C97.3384 17.8047 95.9184 17.4355 94.3281 17.4355ZM144.379 17.4355C142.306 17.4355 140.404 17.9319 138.672 18.9258C136.968 19.9197 135.617 21.2833 134.623 23.0156C133.629 24.7479 133.133 26.7079 133.133 28.8945C133.133 31.1095 133.645 33.0967 134.668 34.8574C135.718 36.6181 137.124 37.9963 138.885 38.9902C140.645 39.9841 142.576 40.4805 144.678 40.4805C146.297 40.4805 147.956 40.1678 149.66 39.543C151.364 38.8899 152.684 38.0662 153.621 37.0723L150.641 34.0059C149.931 34.6875 149.007 35.242 147.871 35.668C146.763 36.094 145.642 36.3066 144.506 36.3066C142.831 36.3066 141.425 35.7812 140.289 34.7305C139.153 33.6514 138.443 32.2314 138.16 30.4707H155.197C155.197 26.4382 154.234 23.2563 152.303 20.9277C150.4 18.599 147.758 17.4355 144.379 17.4355ZM171.992 17.4355C170.231 17.4355 168.655 17.861 167.264 18.7129C165.872 19.5365 164.821 20.6728 164.111 22.1211V17.9473H158.914V39.9688H164.111V28.8516C164.111 26.7501 164.835 25.0611 166.283 23.7832C167.731 22.5052 169.635 21.8652 171.992 21.8652V17.4355ZM226.002 17.4355C224.241 17.4355 222.664 17.861 221.273 18.7129C219.881 19.5365 218.831 20.6728 218.121 22.1211V17.9473H212.926V39.9688H218.121V28.8516C218.121 26.7501 218.847 25.0611 220.295 23.7832C221.743 22.5052 223.645 21.8652 226.002 21.8652V17.4355ZM57.0527 17.9473V31.9609C57.0527 33.608 57.3927 35.0843 58.0742 36.3906C58.7842 37.6685 59.7496 38.6776 60.9707 39.416C62.2202 40.1259 63.6402 40.4805 65.2305 40.4805C66.6788 40.4805 67.9987 40.1823 69.1914 39.5859C70.4125 38.9612 71.3654 38.123 72.0469 37.0723V39.9688H77.2852V17.9473H72.0469V31.2793C72.0469 32.614 71.5361 33.7504 70.5137 34.6875C69.4914 35.5962 68.2278 36.0508 66.7227 36.0508C65.3596 36.0508 64.2378 35.5816 63.3574 34.6445C62.5055 33.679 62.0781 32.4445 62.0781 30.9395V17.9473H57.0527ZM202.686 17.9473V39.9688H207.883V17.9473H202.686ZM144.465 21.6094C146.055 21.6094 147.333 22.1077 148.299 23.1016C149.293 24.0955 149.916 25.4008 150.172 27.0195H138.201C138.542 25.3724 139.282 24.0671 140.418 23.1016C141.554 22.1077 142.903 21.6094 144.465 21.6094ZM117.635 21.8652C119.452 21.8652 120.941 22.5324 122.105 23.8672C123.27 25.1735 123.854 26.8644 123.854 28.9375C123.854 30.3006 123.584 31.5205 123.045 32.5996C122.533 33.6788 121.793 34.5315 120.828 35.1562C119.89 35.7525 118.827 36.0508 117.635 36.0508C115.76 36.0508 114.226 35.3835 113.033 34.0488C111.841 32.7141 111.244 31.0105 111.244 28.9375C111.244 26.8644 111.841 25.1735 113.033 23.8672C114.226 22.5324 115.76 21.8652 117.635 21.8652ZM187.229 21.8652C189.103 21.8652 190.635 22.5324 191.828 23.8672C193.021 25.1735 193.617 26.8644 193.617 28.9375C193.617 31.0105 193.021 32.7141 191.828 34.0488C190.635 35.3835 189.103 36.0508 187.229 36.0508C186.036 36.0508 184.956 35.7525 183.99 35.1562C183.053 34.5315 182.315 33.6788 181.775 32.5996C181.264 31.5205 181.01 30.3006 181.01 28.9375C181.01 26.8644 181.592 25.1735 182.756 23.8672C183.92 22.5324 185.411 21.8652 187.229 21.8652ZM239.174 21.8652C240.992 21.8652 242.482 22.5324 243.646 23.8672C244.81 25.1735 245.393 26.8644 245.393 28.9375C245.393 30.3006 245.122 31.5205 244.582 32.5996C244.071 33.6788 243.333 34.5315 242.367 35.1562C241.43 35.7525 240.367 36.0508 239.174 36.0508C237.3 36.0508 235.765 35.3835 234.572 34.0488C233.379 32.7141 232.783 31.0105 232.783 28.9375C232.783 26.8644 233.379 25.1735 234.572 23.8672C235.765 22.5324 237.3 21.8652 239.174 21.8652Z" fill="context-fill"/>
</svg>
