<!-- This Source Code Form is subject to the terms of the Mozilla Public
   - License, v. 2.0. If a copy of the MPL was not distributed with this
   - file, You can obtain one at http://mozilla.org/MPL/2.0/. -->
<svg xmlns="http://www.w3.org/2000/svg" viewBox="0 0 616.103 94.561" width="260" height="50" fill="context-fill">
  <path d="M0 21.53h22.54v71.62h12.39V21.53h21.93l1.28-10.81H0zm94.51 6.86c-6.59 0-12.49 2.95-17.26 8.78V3.696L65.21 5.012V93.15h12.04V48.53c2.11-3.3 4.39-5.89 6.74-7.69 2.38-1.79 5.03-2.7 7.81-2.7 3.01 0 5.27.85 8.3 2.51 1.5 1.68 2.3 4.66 2.3 8.87v43.63h12.1V47.99c0-6.03-1.6-10.86-4.9-14.34-3.3-3.49-7.9-5.27-15.09-5.26zm68.29 46.16c-4.1 6.8-9.1 10.25-14.9 10.25-3.1 0-5.4-.81-6.8-2.42-1.4-1.64-2.1-4.53-2.1-8.6V29.8h-11.5v45.16c0 6.19 1 11.05 4.2 14.45 3.2 3.42 7.6 5.15 13.2 5.15 4.5 0 8.3-.92 11.5-2.73 2.7-1.57 5.1-3.94 7.3-7.07l.7 8.39H175V29.8h-12.2zm58.8-46.16c-4 0-7.7.98-10.9 2.91a23.74 23.74 0 0 0-7.4 6.57l-.9-8.07h-10.5v63.35H204V48.64c2.1-3.37 4.4-6 6.8-7.8 2.3-1.79 5.1-2.7 8.3-2.7 3 0 5.3.84 6.8 2.5 1.5 1.68 2.3 4.67 2.3 8.88v43.63h12.1V47.99c0-6.03-1.7-10.85-4.9-14.34-3.3-3.49-7.9-5.26-13.8-5.26zm72.9 6.74c-4.7-4.48-10.1-6.75-16.1-6.75-5.1 0-9.6 1.45-13.3 4.32-3.8 2.84-6.7 6.84-8.7 11.87-2 5-3 10.79-3 17.2 0 9.9 2.1 17.91 6.3 23.81 4.2 5.96 10.2 8.98 17.8 8.98 3.8 0 7.4-.92 10.5-2.73 2.7-1.54 5-3.62 6.9-6.19l.9 7.51h10.7V4.901l-12-1.449zm0 10.84v29.96c-2.1 2.9-4.3 5.11-6.6 6.56-2.2 1.46-4.9 2.2-8.1 2.2-4.3 0-7.6-1.83-9.9-5.59-2.4-3.8-3.6-9.71-3.6-17.57 0-7.77 1.3-13.67 3.9-17.55 2.5-3.85 6-5.72 10.6-5.72 2.7 0 5.2.66 7.5 1.97 2.1 1.3 4.2 3.23 6.2 5.74zm50.9-17.58c-5.4 0-10.1 1.46-14.1 4.36-4 2.89-7 6.92-9.2 11.99-2.1 5.04-3.1 10.89-3.1 17.38 0 10.01 2.5 17.99 7.4 23.74 4.9 5.77 11.9 8.7 20.6 8.7 8 0 15.4-2.66 22.1-7.91l.5-.38-5.4-7.48-.6.36c-2.6 1.84-5.3 3.2-7.7 4.04-2.4.84-5.1 1.26-8 1.26-4.5 0-8.3-1.55-11.1-4.62-2.8-2.99-4.4-7.7-5-14.01h39.5v-.58c.2-1.9.3-3.78.3-5.59 0-9.68-2.3-17.39-6.7-22.9-4.6-5.55-11.1-8.36-19.5-8.36zm-13.6 28.14c.9-12.29 5.4-18.27 13.8-18.27 4.7 0 8.2 1.54 10.5 4.58 2.3 3.09 3.5 7.68 3.5 13.63v.1h-27.8zm75.9-28.14c-3.9 0-7.4 1.23-10.3 3.68-2.4 1.96-4.3 4.72-5.9 8.22l-.9-10.49h-8.5v63.35h10.1V57.13c1.3-5.81 3.1-10.13 5.4-12.86 2.2-2.7 5.1-4.01 8.8-4.01 1.7 0 3.4.23 5.3.69l.6.17 2.2-11.86-.5-.15c-2-.48-4.1-.73-6.3-.72zm42.7 0c-6.2 0-11.9 2.68-16.3 7.97V3.452L422 4.901V93.15h10.7l.9-6c4.5 4.92 9.9 7.41 15.5 7.41 5.1 0 9.6-1.41 13.3-4.19 3.8-2.76 6.6-6.7 8.6-11.7 2-4.96 3-10.77 3-17.25 0-10.3-2.1-18.45-6.3-24.23-4.2-5.84-10-8.8-17.3-8.8zm-3.1 9.87c4.5 0 7.8 1.74 10.2 5.31 2.5 3.61 3.7 9.61 3.7 17.84 0 8-1.3 13.96-4 17.72-2.6 3.74-6.1 5.56-10.7 5.56-1.9 0-4.4-.72-6.6-2.15-2.3-1.39-4.2-3.34-5.8-5.76V47.47c4-6.11 8.7-9.21 13.2-9.21zm40.4-8.46h12.1v63.35h-12.1zM493.6 0c-2.3 0-4.3.776-5.8 2.306-1.6 1.532-2.3 3.468-2.3 5.752 0 2.292.7 4.212 2.3 5.702 1.5 1.49 3.5 2.24 5.8 2.24 2.5 0 4.5-.75 6-2.24 1.6-1.49 2.3-3.41 2.3-5.702 0-2.284-.7-4.22-2.3-5.752C498.1.776 496.1 0 493.6 0zM545 28.39c-3.9 0-7.4 1.23-10.3 3.68-2.4 1.96-4.4 4.72-5.9 8.22l-.9-10.49h-10.5v63.35h12.1V57.13c1.3-5.81 3.1-10.13 5.4-12.86 2.2-2.7 5.1-4.01 8.8-4.01 1.6 0 3.4.23 5.2.69l.7.17 2.2-11.86-.6-.15c-1.9-.48-4-.73-6.2-.72zm47.3-24.938V35.13c-4.7-4.48-10.1-6.75-16.1-6.75-4.5 0-9 1.45-12.8 4.32-3.7 2.84-6.7 6.84-8.6 11.87-2 5-2.9 10.79-2.9 17.2 0 9.9 2 17.91 6.2 23.81 4.2 5.96 10.2 8.98 17.1 8.98 3.9 0 7.5-.92 10.6-2.73 2.7-1.54 5-3.62 6.9-6.19l.9 7.51h10.8V4.901zm0 42.518v29.96c-2.2 2.9-4.3 5.11-6.6 6.56-2.2 1.46-5 2.2-8.1 2.2-4 0-7-1.83-9.3-5.59-2.4-3.8-3.6-9.71-3.6-17.57 0-7.77 1.3-13.67 3.8-17.55 2.6-3.85 5.4-5.72 10-5.72 2.8 0 5.3.66 7.5 1.97 2.2 1.3 4.3 3.23 6.3 5.74z"/>
  <path d="M611.2 16.7c-2.6 0-4.7 2.18-4.7 4.87 0 2.7 2.1 4.84 4.7 4.84 2.8 0 4.9-2.14 4.9-4.84 0-2.69-2.1-4.87-4.9-4.87zm0 8.78c-2.1 0-3.7-1.63-3.7-3.91 0-2.27 1.6-3.94 3.7-3.94 2.3 0 3.8 1.67 3.8 3.94 0 2.28-1.5 3.91-3.8 3.91zm2.1-5.01c0-1.06-.7-1.59-2.3-1.59h-1.5v5.23h1.1V22.1h.5l1.1 2.01h1.3l-1.4-2.18c.7-.21 1.2-.7 1.2-1.46zm-2.7-.76h.5c.8 0 1.1.23 1.1.76 0 .57-.4.8-1 .8h-.6z"/>
</svg>
