<!-- This Source Code Form is subject to the terms of the Mozilla Public
   - License, v. 2.0. If a copy of the MPL was not distributed with this
   - file, You can obtain one at http://mozilla.org/MPL/2.0/. -->
<svg fill="none" version="1.1" viewBox="0 0 526 526" xmlns="http://www.w3.org/2000/svg">
  <path d="m399.24 84.613c-30.266-19.646-68.973-26.005-90.336-28.226-22.863-2.3748-42.72-1.9558-60.186 0.5912-1.48-0.0187-2.951-0.0768-4.439-0.0768-1.136 0-2.255 0.0477-3.396 0.0602 0.469-0.5704 0.795-0.923 0.795-0.923s-0.918 0.1431-2.722 0.9541c-5.671 0.0912-11.314 0.2862-16.875 0.6637 7.746-8.4374 14.091-12.859 14.091-12.859s-7.531 1.0951-21.273 13.473c-6.537 0.5973-12.984 1.3896-19.323 2.3748 14.439-19.418 29.544-27.594 29.544-27.594s-18.309-3.7043-46.976 24.922c-2.399 2.3956-4.624 4.8865-6.775 7.4086-83.553 20.092-143.35 73.708-143.35 136.72 0 12.357-3.8175 25.948 0.2984 39.519-1.6447 21.68 1.8576 80.837 1.8576 80.837s22.619 121.64 109.6 142.79c1.381 0.325-18.174-30.325-26.823-67.289 16.842 17.024 36.912 30.486 59.439 32.82 2.766 0.284-12.867-17.92-26.559-39.893l197.65 66.175c103.38-44.123 91.342-40.147 113.54-64.037 48.899-52.598 55.745-82.444 43.427-170.56-8.335-59.483-52.514-118.4-101.21-137.86z" clip-rule="evenodd" fill="url(#paint0_linear_1643_13650)" fill-rule="evenodd"/>
  <path d="m52.352 140.17-29.515 166.76 16.366 50.388 326.7 107.94 60.588-255.99-374.13-69.097z" clip-rule="evenodd" fill="url(#paint1_linear_1643_13650)" fill-rule="evenodd"/>
  <g filter="url(#filter0_f_1643_13650)" opacity=".4">
    <path d="m58.092 143.78s1.5863 8.841 8.9353 18.627c7.3052 9.875 105.42 169.92 110.35 168.51 64.275-18.384 297.48-116.19 297.48-116.19l-416.76-70.949z" clip-rule="evenodd" fill="#000" fill-rule="evenodd"/>
  </g>
  <path d="m56.36 141.92s1.5863 8.155 8.9353 17.182c7.3052 9.109 105.42 156.74 110.35 155.44 64.275-16.957 297.48-107.18 297.48-107.18l-416.76-65.445z" clip-rule="evenodd" fill="url(#paint2_linear_1643_13650)" fill-rule="evenodd"/>
  <g filter="url(#filter1_f_1643_13650)" opacity=".22349">
    <path d="m95.235 143.33c-40.836 46.707-48.379 96.958-22.629 150.75-13.529 0-23.867-5.213-31.014-15.641-0.6033 40.753 3.8877 73.349 13.473 97.79-11.108-11.701-18.136-22.191-21.084-31.472-11.726-36.913-11.677-90.268 0-131.37 10.227-35.997 44.096-82.656 61.254-88.432 6.5474-2.204 6.5474 3.92 0 18.371z" clip-rule="evenodd" fill="#000" fill-rule="evenodd"/>
  </g>
  <g clip-rule="evenodd" fill-rule="evenodd">
    <path d="m125.44 135.02s-112.96 32.874-61.13 147.33c0 0-23.767-21.625-37.918-49.274-0.6366-1.238 23.587-86.757 23.587-86.757l75.461-11.297z" fill="url(#paint3_linear_1643_13650)"/>
    <path d="m64.31 282.7c-9.8244-0.168-25.608-8.222-30.728-17.972-6.3994 105.98 37.114 167.87 106.2 200.88-22.573-2.571-134.78-61.411-134.78-203 0-120.39 96.136-228.01 246.59-232.94 0.922 6.7491-74.588 23.674-77.003 31.632-3.749 12.386-12.365 25.87-19.632 36.678-9.848 14.645 13.685 27.168-3.609 31.113-26.023 5.934-60.734 2.649-86.329 35.713-38.475 49.706-12.801 106.56-0.7034 117.9z" fill="url(#paint4_radial_1643_13650)"/>
    <path d="m291.05 33.191c-97.434-7.4294-147.58 31.312-179.77 76.361-11.724 16.398-10.44 31.456-6.404 49.647 1.735 7.766 3.488 11.487 1.376 19.403-1.165 4.368-0.971 8.446-2.417 11.022-2.002 3.561-4.5502 7.454-5.4038 13.849-2.1332 15.968 3.5548 21.054 7.1088 26.425 5.064-4.996 14.955-16.756 32.79-23.781s29.569-17.582 51.921-28.915c30.54-15.478 66.336 8.004 134.21-14.095 20.885-6.801 68.882-77.454 80.276-80.167-31.732-34.869-85.715-47.619-113.68-49.749z" fill="url(#paint5_linear_1643_13650)"/>
    <path d="m226.68 11.067s-17.397 8.3502-24.973 23.439c17.493-8.763 27.647-13.55 32.447-14.12 0 0-4.598 2.213-10.3 14.249 10.081-3.2086 13.552-5.2309 16.32-5.262 0 0-0.804 1.2652-1.538 13.278-15.481-4.9861-45.278 0.8234-61.128 10.688-5.377-28.487 49.172-42.272 49.172-42.272z" fill="#3F6499"/>
    <path d="m295.91 28.9c-29.865-3.8453-54.83-3.0883-76.055 0.9748 6.675-6.357 14.398-9.4888 14.398-9.4888-10.009 0.8794-22.502 7.3712-33.222 14.245-5.402 1.7132-10.549 3.6462-15.425 5.8053 2.985-3.9096 6.458-8.0868 9.852-11.293 12.604-11.911 31.32-18.076 31.32-18.076-15.975-1.1656-69.437 12.434-101.61 77.183-5.273 6.3819-10.192 12.932-14.88 19.492-12.102 16.932-10.774 32.475-6.6 51.26 1.778 8.021 2.106 20.824 0.351 29.098-0.351 1.657-4.9322 5.938-6.1073 17.48-1.2565 12.247 3.1413 18.26 7.4763 23.236 15.404-22.384 30.6-26.82 30.6-26.82 21.561-8.778 30.536-18.152 53.616-29.852 31.534-15.989 141.8 36.192 211.88 13.373 21.565-7.018-8.301-98.226 3.471-101.03-32.767-36.006-80.345-51.893-109.06-55.591z" fill="url(#paint6_linear_1643_13650)"/>
    <path d="m514.64 225.23c-17.274-89.677-100.39-171.26-167.22-175.78-29.662-2.0077-20.553 13.106-39.112 18.862-79.982 24.804-81.205 39.285-81.205 39.285 169.59 7.921 172.16 174.36 126.74 216.46 12.78-2.962 26.637-18.488 39.363-42.863-1.528 10.228-2.839 22.774-4.747 36.772-5.819 42.715 1.718 131.94-121.8 191.65 0 0 67.567-5.488 101.07-42.968-13.625 31.136-51.013 47.955-51.013 47.955 27.514-3.999 99.789-25.192 145.83-82.408 52.109-64.763 67.78-125.52 52.091-206.97z" fill="url(#paint7_linear_1643_13650)"/>
    <path d="m349.37 388.94s55.094-15.306 72.849-44.868c-2.154 34.469-33.618 69.818-33.618 69.818s45.998-9.251 65.613-41.416c-2.555 29.025-37.968 68.252-37.968 68.252 36.204-6.457 127.17-63.56 98.397-215.5-16.994-89.729-100.39-171.26-167.22-175.78-29.661-2.0077-20.553 13.106-39.112 18.862-79.982 24.804-81.205 39.285-81.205 39.285 169.59 7.921 214.66 96.121 126.74 214.11 12.78-2.964 17.904-9.943 27.505-21.365-4e-3 0 4.35 45.173-31.984 88.604z" fill="url(#paint8_linear_1643_13650)"/>
    <path d="m131.5 188.47s-9.85 6.846-16.981 5.102c-8.443-2.06-9.873-10.19-9.873-10.19-0.186 1.665-0.401 3.273-0.712 4.714-0.35 1.658-4.9317 5.938-6.1068 17.481-1.2565 12.247 3.3708 19.34 7.7058 24.316 15.406-22.383 30.373-27.9 30.373-27.9-5.863-2.037-4.406-13.523-4.406-13.523z" fill="url(#paint9_linear_1643_13650)"/>
  </g>
  <g opacity=".6">
    <g opacity=".2">
      <path d="m346.28 49.234c2.308-0.5953 11.732 0.4231 17.916 3.1795 6.187 2.7565 16.85 7.6305 8.32 9.7502-8.532 2.1197-13.437-1.2714-17.704-4.8761-4.266-3.6047-14.291-6.5707-8.532-8.0536z" clip-rule="evenodd" fill="url(#paint10_linear_1643_13650)" fill-rule="evenodd" opacity=".2"/>
    </g>
  </g>
  <g clip-rule="evenodd" fill-rule="evenodd">
    <path d="m132.42 187.13s54.034-88.484 102.88-112.36c4.535-2.267-67.636 19.063-96.679 50.918-17.264 18.935-8.122 56.005-6.204 61.445z" fill="url(#paint11_linear_1643_13650)"/>
    <path d="m132.43 187.13c0.05-0.031 0.104-0.062 0.156-0.093 13.972-8.579 37.916-13.519 45.635-29.069 29.715-59.876 57.093-83.201 57.093-83.201-48.851 23.879-102.88 112.36-102.88 112.36z" fill="#F2F2F2" opacity=".1"/>
    <path d="m137.56 170.95s-9.739-14.848 4.285-28.388c7.401-7.135 18.616-3.171 19.912-1.887 5.519 5.438 2.05 16.916-2.918 23.412-2.807 3.659-10.976 9.354-21.279 6.863z" fill="#2F4282"/>
    <path d="m143.14 170.03s-6.729-10.265 2.968-19.619c5.106-4.928 12.86-2.19 13.759-1.306 3.811 3.758 1.411 11.691-2.02 16.177-1.939 2.537-7.587 6.47-14.707 4.748z" fill="url(#paint12_linear_1643_13650)"/>
    <path d="m156.58 159.08c-0.151 4.102-3.645 7.305-7.802 7.164-4.166-0.143-7.427-3.58-7.278-7.683 0.148-4.1 3.64-7.302 7.808-7.161 4.157 0.143 7.416 3.582 7.272 7.68z" fill="#000"/>
  </g>
  <path d="m144.64 158.97c1.25 0 2.264-1.009 2.264-2.254 0-1.244-1.014-2.253-2.264-2.253-1.251 0-2.265 1.009-2.265 2.253 0 1.245 1.014 2.254 2.265 2.254z" fill="#fff"/>
  <path d="m481.79 145.76c-37.049-55.95-66.402-70.167-66.402-70.167s1.349 40.755 21.919 60.412c2.35 2.247-24.616-17.488-24.616-17.488s-5.766 18.824 7.447 40.465c-3.838-5.059-6.378-6.975-6.378-6.975s-24.896 11.388-32.245 27.188c-3.794-7.105-6.64-11.291-6.64-11.291s-17.218 34.091-15.054 73.618c3.52 64.271-12.133 87.948-12.133 87.948s41.933-15.959 62.043-67.34c8.308 21.846-0.253 44.839-0.253 44.839s33.881-25.115 41.167-70.891c8.076 12.921 5.701 38.71 5.701 38.71s21.626-29.87 22.153-62.4c10.023 6.934 10.945 34.013 10.945 34.013s32.062-40.664-7.654-100.64z" clip-rule="evenodd" fill="url(#paint13_linear_1643_13650)" fill-rule="evenodd"/>
  <path d="m446.44 106.58c-9.673-17.891-26.742-29.293-41.745-38.522-37.407-23.022-61.465-26.256-61.465-26.256s-34.523 6.3728-28.593 15.905c0.305 0.4893 1.018 1.1092 2.022 1.8182-30.282-13.844-47.46 17.988-47.46 17.988-17.303-1.0428-38.372 7.4115-44.515 30.058-0.637 2.351 7.751 1.029 12.067 1.959 25.23 5.444 48.98 17.249 59.894 23.083 25.386 13.575 40.448 36.178 49.144 53.132 10.521 20.511 14.817 56.605 14.817 56.605s27.682-37.742 21.067-57.119c10.964 6.758 13.128 30.871 13.128 30.871s18.454-28.688 12.998-53.676c14.235 8.61 14.709 26.124 14.709 26.124s14.493-19.966 7.943-52.714c14.325 11.305 17.322 25.95 17.322 25.95s11.709-31.083-1.333-55.206z" clip-rule="evenodd" fill="url(#paint14_linear_1643_13650)" fill-rule="evenodd"/>
  <defs>
    <filter id="filter0_f_1643_13650" x="28.092" y="113.78" width="476.76" height="247.15" color-interpolation-filters="sRGB" filterUnits="userSpaceOnUse">
      <feFlood flood-opacity="0" result="BackgroundImageFix"/>
      <feBlend in="SourceGraphic" in2="BackgroundImageFix" result="shape"/>
      <feGaussianBlur result="effect1_foregroundBlur_1643_13650" stdDeviation="15"/>
    </filter>
    <filter id="filter1_f_1643_13650" x="15.204" y="114.52" width="94.941" height="271.71" color-interpolation-filters="sRGB" filterUnits="userSpaceOnUse">
      <feFlood flood-opacity="0" result="BackgroundImageFix"/>
      <feBlend in="SourceGraphic" in2="BackgroundImageFix" result="shape"/>
      <feGaussianBlur result="effect1_foregroundBlur_1643_13650" stdDeviation="5"/>
    </filter>
    <linearGradient id="paint0_linear_1643_13650" x1="421.46" x2="119.05" y1="397.51" y2="94.033" gradientUnits="userSpaceOnUse">
      <stop stop-color="#130036" offset="0"/>
      <stop stop-color="#18023B" offset=".2297"/>
      <stop stop-color="#26094A" offset=".5122"/>
      <stop stop-color="#3D1563" offset=".8211"/>
      <stop stop-color="#4E1D75" offset="1"/>
    </linearGradient>
    <linearGradient id="paint1_linear_1643_13650" x1="35.806" x2="401.54" y1="260.61" y2="410.81" gradientUnits="userSpaceOnUse">
      <stop stop-color="#FCFCFC" offset="0"/>
      <stop stop-color="#EBE9E9" offset="1"/>
    </linearGradient>
    <linearGradient id="paint2_linear_1643_13650" x1="79.867" x2="288.57" y1="215.51" y2="310.43" gradientUnits="userSpaceOnUse">
      <stop stop-color="#FBFBFB" offset="0"/>
      <stop stop-color="#F9F9F9" offset="1"/>
    </linearGradient>
    <linearGradient id="paint3_linear_1643_13650" x1="26.379" x2="125.44" y1="208.68" y2="208.68" gradientUnits="userSpaceOnUse">
      <stop stop-color="#3156A8" offset="0"/>
      <stop stop-color="#3351A4" offset=".2474"/>
      <stop stop-color="#3B4397" offset=".5365"/>
      <stop stop-color="#472C82" offset=".8453"/>
      <stop stop-color="#4E1D75" offset="1"/>
    </linearGradient>
    <radialGradient id="paint4_radial_1643_13650" cx="0" cy="0" r="1" gradientTransform="translate(157.73 144.36) scale(205.04 204.03)" gradientUnits="userSpaceOnUse">
      <stop stop-color="#14CDDA" offset="0"/>
      <stop stop-color="#2061BD" offset=".5478"/>
      <stop stop-color="#2658AC" offset=".6546"/>
      <stop stop-color="#373F81" offset=".864"/>
      <stop stop-color="#432D62" offset="1"/>
    </radialGradient>
    <linearGradient id="paint5_linear_1643_13650" x1="97.961" x2="404.73" y1="131.08" y2="131.08" gradientUnits="userSpaceOnUse">
      <stop stop-color="#2061BD" offset="0"/>
      <stop stop-color="#2B51AC" offset=".1846"/>
      <stop stop-color="#442C84" offset=".6826"/>
      <stop stop-color="#4E1D75" offset=".9409"/>
    </linearGradient>
    <linearGradient id="paint6_linear_1643_13650" x1="143.12" x2="307.42" y1="89.965" y2="233.29" gradientUnits="userSpaceOnUse">
      <stop stop-color="#48A8E0" offset=".0202"/>
      <stop stop-color="#2061BD" offset=".3883"/>
      <stop stop-color="#2B51AC" offset=".4968"/>
      <stop stop-color="#442C84" offset=".7892"/>
      <stop stop-color="#4E1D75" offset=".9409"/>
    </linearGradient>
    <linearGradient id="paint7_linear_1643_13650" x1="244.82" x2="577.58" y1="710.82" y2="215.76" gradientUnits="userSpaceOnUse">
      <stop stop-color="#3156A8" offset=".3787"/>
      <stop stop-color="#4E1D75" offset="1"/>
    </linearGradient>
    <linearGradient id="paint8_linear_1643_13650" x1="281.11" x2="491.21" y1="588.93" y2="115.39" gradientUnits="userSpaceOnUse">
      <stop stop-color="#29ABE2" offset="0"/>
      <stop stop-color="#385AA6" offset=".7733"/>
      <stop stop-color="#414293" offset=".8575"/>
      <stop stop-color="#4E1D75" offset="1"/>
    </linearGradient>
    <linearGradient id="paint9_linear_1643_13650" x1="109.37" x2="118.73" y1="201.88" y2="207.29" gradientUnits="userSpaceOnUse">
      <stop stop-color="#B0DCD6" offset="0"/>
      <stop stop-color="#53ACE0" offset="1"/>
    </linearGradient>
    <linearGradient id="paint10_linear_1643_13650" x1="372.79" x2="348.67" y1="56.522" y2="51.407" gradientUnits="userSpaceOnUse">
      <stop stop-color="#3092B9" offset="0"/>
      <stop stop-color="#258DB6" offset=".2199"/>
      <stop stop-color="#1685B1" offset=".6564"/>
      <stop stop-color="#1082AF" offset="1"/>
    </linearGradient>
    <linearGradient id="paint11_linear_1643_13650" x1="174.45" x2="194.7" y1="89.868" y2="171.39" gradientUnits="userSpaceOnUse">
      <stop stop-color="#1398D1" stop-opacity="0" offset=".0074"/>
      <stop stop-color="#1187C2" stop-opacity=".6197" offset=".2482"/>
      <stop stop-color="#3F6499" stop-opacity=".71" offset=".6422"/>
      <stop stop-color="#2F4282" stop-opacity=".5" offset="1"/>
    </linearGradient>
    <linearGradient id="paint12_linear_1643_13650" x1="155.98" x2="146.11" y1="162.79" y2="156.84" gradientUnits="userSpaceOnUse">
      <stop stop-color="#F9C21B" offset="0"/>
      <stop stop-color="#F3BA1B" offset=".1479"/>
      <stop stop-color="#E3A41B" offset=".3787"/>
      <stop stop-color="#C9801C" offset=".6634"/>
      <stop stop-color="#A44E1C" offset=".9884"/>
      <stop stop-color="#A34C1C" offset="1"/>
    </linearGradient>
    <linearGradient id="paint13_linear_1643_13650" x1="428.5" x2="360.29" y1="280.84" y2="127.36" gradientUnits="userSpaceOnUse">
      <stop stop-color="#409EC3" offset="0"/>
      <stop stop-color="#2061BD" offset=".62"/>
    </linearGradient>
    <linearGradient id="paint14_linear_1643_13650" x1="374.34" x2="330.55" y1="206.53" y2="71.455" gradientUnits="userSpaceOnUse">
      <stop stop-color="#14B2DA" offset="0"/>
      <stop stop-color="#297CCC" offset=".4028"/>
      <stop stop-color="#256FC5" offset=".5077"/>
      <stop stop-color="#2164BF" offset=".6492"/>
      <stop stop-color="#2061BD" offset=".8162"/>
      <stop stop-color="#2061BD" offset=".9835"/>
    </linearGradient>
  </defs>
</svg>
