<!-- This Source Code Form is subject to the terms of the Mozilla Public
   - License, v. 2.0. If a copy of the MPL was not distributed with this
   - file, You can obtain one at http://mozilla.org/MPL/2.0/. -->
<svg
   xmlns:osb="http://www.openswatchbook.org/uri/2009/osb"
   xmlns:dc="http://purl.org/dc/elements/1.1/"
   xmlns:cc="http://creativecommons.org/ns#"
   xmlns:rdf="http://www.w3.org/1999/02/22-rdf-syntax-ns#"
   xmlns:svg="http://www.w3.org/2000/svg"
   xmlns="http://www.w3.org/2000/svg"
   xmlns:xlink="http://www.w3.org/1999/xlink"
   xmlns:sodipodi="http://sodipodi.sourceforge.net/DTD/sodipodi-0.dtd"
   xmlns:inkscape="http://www.inkscape.org/namespaces/inkscape"
   width="18"
   height="18"
   viewBox="0 0 16.874999 16.875"
   id="svg3423"
   version="1.1"
   inkscape:version="0.92.2 5c3e80d, 2017-08-06"
   sodipodi:docname="encrypt-active.svg"
   inkscape:export-filename="/Users/pbr/enigmail/Logo/Enigmail Icon V3 16x16.png"
   inkscape:export-xdpi="2.6199999"
   inkscape:export-ydpi="2.6199999">
  <defs
     id="defs3425">
    <linearGradient
       id="linearGradient4972"
       osb:paint="solid">
      <stop
         style="stop-color:#d5d211;stop-opacity:1;"
         offset="0"
         id="stop4974" />
    </linearGradient>
    <linearGradient
       id="linearGradient4964"
       osb:paint="solid">
      <stop
         style="stop-color:#000000;stop-opacity:1;"
         offset="0"
         id="stop4966" />
    </linearGradient>
    <linearGradient
       id="linearGradient4983"
       y2="11.711"
       xlink:href="#linearGradient2780"
       gradientUnits="userSpaceOnUse"
       x2="35.995998"
       gradientTransform="matrix(7.1505593,0,0,8.534094,228.71232,184.93067)"
       y1="1.6246001"
       x1="35.995998"
       inkscape:collect="always" />
    <linearGradient
       id="linearGradient2780">
      <stop
         id="stop2782"
         style="stop-color:#ffffff"
         offset="0" />
      <stop
         id="stop2784"
         style="stop-color:#ffffff;stop-opacity:0"
         offset="1" />
    </linearGradient>
    <linearGradient
       id="linearGradient4980"
       y2="6.0918002"
       xlink:href="#linearGradient2780"
       gradientUnits="userSpaceOnUse"
       x2="39.723999"
       gradientTransform="matrix(7.1746573,0,0,8.6675651,228.71232,177.84541)"
       y1="11.17"
       x1="38.362999"
       inkscape:collect="always" />
    <linearGradient
       id="linearGradient2834">
      <stop
         id="stop2836"
         style="stop-color:#e59a00"
         offset="0" />
      <stop
         id="stop2838"
         style="stop-color:#faff7d;stop-opacity:.18367"
         offset="1" />
    </linearGradient>
    <linearGradient
       id="linearGradient4971"
       y2="7.5862999"
       xlink:href="#linearGradient2780"
       gradientUnits="userSpaceOnUse"
       x2="38.782001"
       gradientTransform="matrix(7.1505593,0,0,8.6966416,228.71232,177.84541)"
       y1="9.5746002"
       x1="38.782001"
       inkscape:collect="always" />
    <linearGradient
       id="linearGradient4968"
       y2="-13.17"
       xlink:href="#linearGradient2780"
       gradientUnits="userSpaceOnUse"
       x2="33.183998"
       gradientTransform="matrix(9.6839253,0,0,6.8812942,222.29523,170.28389)"
       y1="24.385"
       x1="33.183998"
       inkscape:collect="always" />
    <linearGradient
       id="linearGradient4965"
       y2="-13.17"
       xlink:href="#linearGradient2780"
       gradientUnits="userSpaceOnUse"
       x2="33.183998"
       gradientTransform="matrix(9.4687954,0,0,5.4755733,228.71232,182.51659)"
       y1="-4.6247249"
       x1="33.003456"
       inkscape:collect="always" />
    <linearGradient
       id="linearGradient3057">
      <stop
         id="stop3059"
         style="stop-color:#282828"
         offset="0" />
      <stop
         id="stop3061"
         style="stop-color:#282828;stop-opacity:0"
         offset="1" />
    </linearGradient>
    <linearGradient
       id="linearGradient3151"
       y2="52.609001"
       spreadMethod="reflect"
       gradientUnits="userSpaceOnUse"
       x2="44.723999"
       gradientTransform="matrix(9.9301464,0,0,6.770848,212.4891,154.91826)"
       y1="52.609001"
       x1="29.614"
       inkscape:collect="always">
      <stop
         id="stop2703"
         style="stop-color:#db9300"
         offset="0" />
      <stop
         id="stop2770"
         style="stop-color:#fac700"
         offset=".75" />
      <stop
         id="stop2705"
         style="stop-color:#fff363"
         offset="1" />
    </linearGradient>
    <linearGradient
       id="linearGradient2713">
      <stop
         id="stop2715"
         style="stop-color:#000000"
         offset="0" />
      <stop
         id="stop2717"
         style="stop-color:#ffffff"
         offset="1" />
    </linearGradient>
  </defs>
  <sodipodi:namedview
     id="base"
     pagecolor="#ffffff"
     bordercolor="#666666"
     borderopacity="1.0"
     inkscape:pageopacity="0.0"
     inkscape:pageshadow="2"
     inkscape:zoom="25"
     inkscape:cx="6.7707505"
     inkscape:cy="8.9438348"
     inkscape:document-units="px"
     inkscape:current-layer="layer1"
     showgrid="false"
     showguides="true"
     inkscape:guide-bbox="true"
     inkscape:window-width="1239"
     inkscape:window-height="755"
     inkscape:window-x="45"
     inkscape:window-y="0"
     inkscape:window-maximized="0"
     fit-margin-top="0"
     fit-margin-left="0"
     fit-margin-right="0"
     fit-margin-bottom="0"
     units="px">
    <inkscape:grid
       type="xygrid"
       id="grid4919"
       originx="-284.74604"
       originy="-71.484602" />
  </sodipodi:namedview>
  <metadata
     id="metadata3428">
    <rdf:RDF>
      <cc:Work
         rdf:about="">
        <dc:format>image/svg+xml</dc:format>
        <dc:type
           rdf:resource="http://purl.org/dc/dcmitype/StillImage" />
        <dc:title></dc:title>
      </cc:Work>
    </rdf:RDF>
  </metadata>
  <g
     inkscape:groupmode="layer"
     id="layer2"
     inkscape:label="Layer 2"
     style="display:inline"
     transform="translate(-284.74607,-655.73485)"
     sodipodi:insensitive="true">
    <g
       transform="matrix(0.03532479,0,0,0.03960741,274.23987,648.41157)"
       inkscape:label="Layer 2"
       id="layer2-4">
      <path
         inkscape:connector-curvature="0"
         d="m 510.92415,184.8967 c -87.94487,0 -158.74505,56.60787 -158.74505,126.92368 v 141.02397 h 44.09513 V 311.82038 c 0,-50.7856 51.13613,-91.66768 114.64992,-91.66768 63.51378,0 114.64993,40.88208 114.64993,91.66768 V 452.84435 H 669.6692 V 311.82038 c 0,-70.31581 -70.80018,-126.92368 -158.74505,-126.92368 z"
         style="fill:#282828;fill-rule:evenodd;stroke-width:3.01772833"
         id="rect2723" />
      <path
         inkscape:connector-curvature="0"
         d="m 510.92415,194.10762 c -83.05952,0 -149.92515,57.12633 -149.92515,122.29246 v 131.4673 c 0,49.3598 38.45179,91.27181 93.15445,108.75267 C 414.96119,542.36212 387.4587,511.79338 387.4587,475.54598 V 309.48131 c 0,-49.83274 51.13176,-93.25814 114.64554,-93.25814 h 17.6398 c 63.51379,0 114.64994,43.4254 114.64994,93.25814 v 166.06467 c 0,36.2474 -27.5025,66.81614 -66.69476,81.07407 54.69829,-17.48086 93.15007,-59.39287 93.15007,-108.75267 v -131.4673 c 0,-65.16613 -66.86561,-122.29246 -149.92514,-122.29246 z"
         style="opacity:0.65;fill:url(#linearGradient4983);fill-rule:evenodd;stroke-width:3.01772833"
         id="path3082" />
      <path
         inkscape:connector-curvature="0"
         d="m 510.92415,187.88807 c -85.48249,0 -154.30223,54.6531 -154.30223,122.5412 v 136.95677 c 0,51.41616 39.57782,95.07978 95.87093,113.29631 -40.33581,-14.85349 -68.6401,-46.70438 -68.6401,-84.46164 v -173.001 c 0,-51.91359 52.62584,-101.87944 117.99736,-101.87944 l 18.15245,-3.4e-4 c 65.36715,0 117.99298,49.96583 117.99298,101.87944 v 173.00099 c 0,37.75727 -28.3043,69.60817 -68.64012,84.46163 56.29315,-18.21653 95.87096,-61.88014 95.87096,-113.2963 V 310.4289 c 0,-67.8881 -68.81976,-122.54118 -154.30223,-122.54118 z"
         style="opacity:0.5;fill:url(#linearGradient4980);fill-rule:evenodd;stroke-width:3.01772833"
         id="path2931" />
      <path
         inkscape:connector-curvature="0"
         d="m 510.92415,199.88821 c -83.05952,0 -149.92515,45.52381 -149.92515,111.93356 v 133.97558 c 0,50.29514 38.45179,92.99187 93.15445,110.82307 C 414.96119,542.08221 387.4587,510.93897 387.4587,474.00145 V 304.76987 c 0,-50.78207 51.13176,-91.72024 114.64554,-91.72024 h 17.6398 c 63.51379,0 114.64994,40.93817 114.64994,91.72024 v 169.23158 c 0,36.93752 -27.5025,68.08076 -66.69476,82.61897 54.69829,-17.8312 93.15007,-60.52793 93.15007,-110.82307 V 311.82177 c 0,-66.40975 -66.86561,-111.93356 -149.92514,-111.93356 z"
         style="opacity:0.5;fill:url(#linearGradient4971);fill-rule:evenodd;stroke-width:3.01772833"
         id="rect2875" />
      <path
         inkscape:connector-curvature="0"
         d="m 510.92415,192.03933 c -117.25692,0 -144.31249,81.67662 -144.31249,118.61765 0,110.81954 9.01707,110.81954 9.01707,0 0,-81.27025 72.13215,-113.34537 135.29542,-113.34537 63.16326,7e-4 135.2954,35.39264 135.2954,113.34537 0,110.81954 9.02146,110.81954 9.02146,0 0,-36.94103 -27.05996,-118.61765 -144.31686,-118.61765 z"
         style="opacity:0.8;fill:url(#linearGradient4968);fill-rule:evenodd;stroke-width:3.01772833"
         id="path2933" />
      <rect
         x="323.9566"
         y="357.59714"
         width="371.55212"
         height="253.34859"
         ry="1.9118049"
         rx="2.3074045"
         style="fill:url(#linearGradient3151);fill-rule:evenodd;stroke-width:3.01772833"
         id="rect1941" />
      <path
         inkscape:connector-curvature="0"
         d="m 331.08188,610.95331 c 8.3528,-8.10605 83.73569,-14.49145 178.38542,-14.49145 93.35299,0 167.50834,6.30892 177.61479,14.26203 -0.18461,0 -0.13845,0.22942 -0.27689,0.22942 z"
         style="opacity:0.5;fill:#000000;fill-rule:evenodd;stroke-width:3.01772833"
         id="path2768" />
      <path
         inkscape:connector-curvature="0"
         d="m 510.92415,197.15513 c -114.64992,0 -141.10525,67.66709 -141.10525,97.06436 0,88.18571 8.81991,88.18571 8.81991,0 0,-64.66912 70.52414,-92.86779 132.28534,-92.86779 61.76122,6.1e-4 132.28972,30.83556 132.28972,92.86779 0,88.18571 8.81553,88.18571 8.81553,0 0,-29.39727 -26.45532,-97.06436 -141.10525,-97.06436 z"
         style="opacity:1;fill:url(#linearGradient4965);fill-opacity:1;fill-rule:evenodd;stroke-width:3.01772833"
         id="path2885" />
      <path
         inkscape:connector-curvature="0"
         d="m 345.56746,357.59712 c 7.93046,8.11368 79.50178,14.47618 169.36574,14.47618 88.63275,0 159.02983,-6.29748 168.62525,-14.2506 -0.13145,-0.0122 -0.13145,-0.22558 -0.26289,-0.22558 z"
         style="opacity:0.5;fill:#ffffff;fill-rule:evenodd;stroke-width:3.01772833"
         id="path2727" />
    </g>
  </g>
  <g
     inkscape:groupmode="layer"
     id="layer1"
     inkscape:label="Layer 3"
     sodipodi:insensitive="true">
    <g
       id="g5151"
       transform="translate(-1.0275364)">
      <path
         inkscape:connector-curvature="0"
         id="path5137"
         d="M 9.8625001,9.3749997 7.1249998,9.4124997 7.1624998,14.1 9.8250001,14.0625"
         style="color:#000000;clip-rule:nonzero;display:inline;overflow:visible;visibility:visible;opacity:1;isolation:auto;mix-blend-mode:normal;color-interpolation:sRGB;color-interpolation-filters:linearRGB;solid-color:#000000;solid-opacity:1;fill:none;fill-opacity:1;fill-rule:evenodd;stroke:#0000ff;stroke-width:0.93749994;stroke-linecap:square;stroke-linejoin:miter;stroke-miterlimit:4;stroke-dasharray:none;stroke-dashoffset:0;stroke-opacity:1;color-rendering:auto;image-rendering:auto;shape-rendering:auto;text-rendering:auto;enable-background:accumulate" />
      <path
         inkscape:connector-curvature="0"
         id="path5139"
         d="M 9.9750001,11.6438 7.4249998,11.6813"
         style="color:#000000;clip-rule:nonzero;display:inline;overflow:visible;visibility:visible;opacity:1;isolation:auto;mix-blend-mode:normal;color-interpolation:sRGB;color-interpolation-filters:linearRGB;solid-color:#000000;solid-opacity:1;fill:#0000ff;fill-opacity:1;fill-rule:evenodd;stroke:#0000ff;stroke-width:0.93749994;stroke-linecap:butt;stroke-linejoin:miter;stroke-miterlimit:4;stroke-dasharray:none;stroke-dashoffset:0;stroke-opacity:1;color-rendering:auto;image-rendering:auto;shape-rendering:auto;text-rendering:auto;enable-background:accumulate" />
    </g>
  </g>
  <g
     inkscape:groupmode="layer"
     id="layer3"
     inkscape:label="Layer 4"
     sodipodi:insensitive="true">
    <path
       style="color:#000000;clip-rule:nonzero;display:inline;overflow:visible;visibility:visible;opacity:1;isolation:auto;mix-blend-mode:normal;color-interpolation:sRGB;color-interpolation-filters:linearRGB;solid-color:#000000;solid-opacity:1;fill:none;fill-opacity:1;fill-rule:evenodd;stroke:#008000;stroke-width:1.74388254;stroke-linecap:round;stroke-linejoin:miter;stroke-miterlimit:4;stroke-dasharray:none;stroke-dashoffset:0;stroke-opacity:1;color-rendering:auto;image-rendering:auto;shape-rendering:auto;text-rendering:auto;enable-background:accumulate"
       d="m 11.90849,12.21419 c 0,0 1.39836,1.035106 2.568841,2.4924 0.454732,-3.871985 1.725652,-6.1303502 1.725652,-6.1303502"
       id="path4586"
       inkscape:connector-curvature="0"
       sodipodi:nodetypes="ccc" />
  </g>
</svg>
