<!-- This Source Code Form is subject to the terms of the Mozilla Public
   - License, v. 2.0. If a copy of the MPL was not distributed with this
   - file, You can obtain one at http://mozilla.org/MPL/2.0/. -->
<svg xmlns="http://www.w3.org/2000/svg" width="16" height="16" viewBox="0 0 16 16">
  <path fill="context-fill" d="M12,7 L13,7 C13.5522847,7 14,7.44771525 14,8 L14,14 C14,14.5522847 13.5522847,15 13,15 L3,15 C2.44771525,15 2,14.5522847 2,14 L2,8 C2,7.44771525 2.44771525,7 3,7 L4,7 L4,5.00032973 C4,2.79202307 5.79321704,1 8,1 C10.2075938,1 12,2.79481161 12,5.00032973 L12,7 Z M10,7 L10,5.00032973 C10,3.89878113 9.10242341,3 8,3 C6.89748845,3 6,3.89689088 6,5.00032973 L6,7 L10,7 Z"/>
  <path style="fill:#00b22c;fill-opacity:1;stroke-width:0.99999988" d="M 9.0226853,15.999039 A 0.8763328,0.8763328 0 0 1 8.403118,15.742273 L 5.7741199,13.113275 A 0.8763328,0.8763328 0 0 1 7.0132545,11.87414 l 1.8902496,1.89025 5.5349179,-7.9071509 a 0.8763328,0.8763328 0 0 1 1.436309,1.0042774 L 9.7404016,15.624844 a 0.8763328,0.8763328 0 0 1 -0.6414753,0.374195 0.75627521,0.75627521 0 0 1 -0.076241,0 z"/>
</svg>
