<!-- This Source Code Form is subject to the terms of the Mozilla Public
   - License, v. 2.0. If a copy of the MPL was not distributed with this
   - file, You can obtain one at http://mozilla.org/MPL/2.0/. -->
<svg xmlns="http://www.w3.org/2000/svg" version="1.1" viewBox="0 0 24 24" fill="context-fill" fill-opacity="context-fill-opacity">
  <path d="M9.95 5.08a2.86 2.86 0 0 0-1.82 3.5v.02A6.86 6.86 0 0 1 12 7.4c3.26 0 5.9 2.15 5.9 4.81 0 2.66-2.64 4.82-5.9 4.82h-.08c-.15 0-.35-.01-.44.11-.1.16.12.4.24.54 1.28 1.44 3.13 1.62 3.61 1.67h.08c-4.28.42-9.3-2.32-9.3-7.07 0-1.13.4-2.08 1.07-2.84h-.01c.14-2.42-.8-5.33-2.54-5.9-.12-.05-.25.05-.26.18a5.72 5.72 0 0 1-1.27 3.3 6.05 6.05 0 0 0-1.36 3.7c-.3-.6-.53-1.25-.7-1.9C1 8.71.85 8.44.7 8.53c-.13.08-.23.28-.3.49-.26 1-.4 2.06-.4 3.1 0 6.53 5.47 12 12 12a12 12 0 0 0 9.88-18.81h.17c.52 0 1.03.04 1.51.13a7.27 7.27 0 0 0-2.88-1.9 8.57 8.57 0 0 1 2.5-.5 9.27 9.27 0 0 0-5.83-1.9c-3.35 0-6.65 1.29-7.4 3.93zm.68 9.17c-.87-.9-3.47-3.91-3.47-3.91h.2l4.07 3.04a.9.9 0 0 0 1.05 0l4-3.03.2-.02s-2.51 2.93-3.48 3.9c-.96.96-1.7.91-2.57 0zM13.4 4.16s.06.63-.57.83c-.72.22-1.04-.38-1.04-.38s.09-.42.67-.61c.63-.2.94.16.94.16z"/>
</svg>
