<!-- This Source Code Form is subject to the terms of the Mozilla Public
   - License, v. 2.0. If a copy of the MPL was not distributed with this
   - file, You can obtain one at http://mozilla.org/MPL/2.0/. -->
<svg xmlns="http://www.w3.org/2000/svg" version="1.1" viewBox="0 0 24 24" fill="context-fill" fill-opacity="context-fill-opacity">
  <path d="M22.75 10.2a9.42 9.42 0 00-1.22-3.13c-.05-.09-.1-.2-.17-.28-.12-.19-.26-.38-.4-.56a8 8 0 00-2.4-2.43 8.99 8.99 0 00-.52-.34c-1.6-1-2.62-1.13-2.62-1.13a8.99 8.99 0 00-4.95-.57c.13-.24.25-.33.29-.34h.02-.02c-.41.03-.91.3-1.36.58.31-.6.96-.95 1.05-1h.02c-.52-.03-1.98.3-3.23 1.69A9.86 9.86 0 001 11.79a9.45 9.45 0 002.39 6.46l.02.04a8 8 0 003.1 2.16c.1.04.18.05.25.05l-.04-.01c.02-.05-.79-1.34-1.15-2.89.72.74 1.58 1.3 2.54 1.4.1.03-.34-.52-.82-1.25l.65.23 7.17 2.39c-.7.72-1.65 1.42-2.94 2.04 0 0 2.88-.24 4.31-1.84-.58 1.34-2.18 2.06-2.18 2.06a10.63 10.63 0 006.22-3.54c2.23-2.78 2.9-5.39 2.23-8.9zm-5.7 6.5a6.14 6.14 0 01-1.5 3.3L2.7 15.6a9.2 9.2 0 01-.48-3.72c.22.41.9.75 1.3.77-.96-2.15-.68-3.41.04-4.4.26.39.62.86.98 1.39l.07-.3c.02-.14.03-.24.07-.35-.33-.48-.6-.9-.81-1.18.4-.45.84-.78 1.24-1 .01.19.05.36.1.57.07.29.09.72.05 1.06v-.01l-.03.2c-.02.07-.2.26-.26.76-.05.53.14.82.33 1.05.22-.21.63-.73 1.39-1.02.75-.3 1.25-.75 2.21-1.24.57-.29 1.17-.25 1.93-.22 1.36.24 3.14.72 4.81.8.38.9.53 2.2.53 2.23l.02.32a112.47 112.47 0 01-7.89 2.77c-.12.03-1.39-1.8-2.57-3.56-.02.04-.06.05-.07.07a.46.46 0 00-.09.1l-.25.15c1.27 1.87 2.78 3.95 2.92 3.95 1.29-.46 5.17-1.83 7.97-2.79-.02 2.11-.57 2.66-.57 2.66s.7-.27 1.43-1c0 .59-.16 2.1-1.38 3.56 0 0 .64-.17 1.36-.51z"/>
</svg>
