<!-- This Source Code Form is subject to the terms of the Mozilla Public
   - License, v. 2.0. If a copy of the MPL was not distributed with this
   - file, You can obtain one at http://mozilla.org/MPL/2.0/. -->
<svg xmlns="http://www.w3.org/2000/svg" viewBox="0 0 28 28" width="28" height="28">
  <path fill="url(#a)" d="M25.179 5.495A13.814 13.814 0 0 0 14.554.003C11.304-.062 9.058.915 7.787 1.7c1.7-.986 4.16-1.545 6.314-1.517 5.54.07 11.492 3.843 12.375 10.644 1.015 7.807-4.423 14.323-12.072 14.343-8.416.022-13.535-7.43-12.197-14.123.025-.328.073-.654.145-.975a13.235 13.235 0 0 1 1.467-4.907c-.969.502-2.203 2.088-2.812 3.557a14.474 14.474 0 0 0-.91 7.063c.022.181.04.362.065.542A14.022 14.022 0 1 0 25.179 5.495Z"/>
  <path fill="url(#b)" d="M25.179 5.495A13.814 13.814 0 0 0 14.554.003C11.304-.062 9.058.915 7.787 1.7c1.7-.986 4.16-1.545 6.314-1.517 5.54.07 11.492 3.843 12.375 10.644 1.015 7.807-4.423 14.323-12.072 14.343-8.416.022-13.535-7.43-12.197-14.123.025-.328.073-.654.145-.975a13.235 13.235 0 0 1 1.467-4.907c-.969.502-2.203 2.088-2.812 3.557a14.474 14.474 0 0 0-.91 7.063c.022.181.04.362.065.542A14.022 14.022 0 1 0 25.179 5.495Z" opacity=".67"/>
  <path fill="url(#c)" d="M25.179 5.495A13.814 13.814 0 0 0 14.554.003C11.304-.062 9.058.915 7.787 1.7c1.7-.986 4.16-1.545 6.314-1.517 5.54.07 11.492 3.843 12.375 10.644 1.015 7.807-4.423 14.323-12.072 14.343-8.416.022-13.535-7.43-12.197-14.123.025-.328.073-.654.145-.975a13.235 13.235 0 0 1 1.467-4.907c-.969.502-2.203 2.088-2.812 3.557a14.474 14.474 0 0 0-.91 7.063c.022.181.04.362.065.542A14.022 14.022 0 1 0 25.179 5.495Z"/>
  <path fill="url(#d)" d="M25.179 5.495A13.814 13.814 0 0 0 14.554.003C11.304-.062 9.058.915 7.787 1.7c1.7-.986 4.16-1.545 6.314-1.517 5.54.07 11.492 3.843 12.375 10.644 1.015 7.807-4.423 14.323-12.072 14.343-8.416.022-13.535-7.43-12.197-14.123.025-.328.073-.654.145-.975a13.235 13.235 0 0 1 1.467-4.907c-.969.502-2.203 2.088-2.812 3.557a14.474 14.474 0 0 0-.91 7.063c.022.181.04.362.065.542A14.022 14.022 0 1 0 25.179 5.495Z"/>
  <path fill="url(#e)" d="M25.179 5.495A13.814 13.814 0 0 0 14.554.003C11.304-.062 9.058.915 7.787 1.7c1.7-.986 4.16-1.545 6.314-1.517 5.54.07 11.492 3.843 12.375 10.644 1.015 7.807-4.423 14.323-12.072 14.343-8.416.022-13.535-7.43-12.197-14.123.025-.328.073-.654.145-.975a13.235 13.235 0 0 1 1.467-4.907c-.969.502-2.203 2.088-2.812 3.557a14.474 14.474 0 0 0-.91 7.063c.022.181.04.362.065.542A14.022 14.022 0 1 0 25.179 5.495Z"/>
  <path fill="url(#f)" d="M26.478 10.827c.11.841.145 1.69.105 2.537.464-.07.93-.132 1.395-.186a14.004 14.004 0 0 0-2.798-7.683A13.814 13.814 0 0 0 14.556.003C11.305-.062 9.059.915 7.789 1.7c1.7-.986 4.16-1.545 6.314-1.517 5.54.07 11.491 3.842 12.375 10.644z"/>
  <path fill="url(#g)" d="M26.819 10.44C26.03 3.33 19.692.136 14.103.182 11.949.2 9.489.714 7.789 1.7c-.45.267-.868.584-1.246.945.045-.037.18-.148.403-.301l.022-.015.02-.014a9.33 9.33 0 0 1 2.692-1.25 15.225 15.225 0 0 1 4.614-.54 11.639 11.639 0 0 1 10.938 11.198c.128 4.622-3.655 8.307-8.016 8.521-3.172.155-6.16-1.38-7.62-4.45a7.587 7.587 0 0 1-.687-2.216c-.692-4.673 2.446-8.657 5.323-9.644C12.68 2.578 8.791 2.67 5.896 4.8 3.81 6.334 2.459 8.667 2.01 11.45a11.53 11.53 0 0 0 .819 6.3 12.354 12.354 0 0 0 10.53 7.505c.348.027.697.04 1.045.04 9.262 0 13.28-7.03 12.414-14.856z"/>
  <path fill="url(#h)" d="M26.819 10.44C26.03 3.33 19.692.136 14.103.182 11.949.2 9.489.714 7.789 1.7c-.45.267-.868.584-1.246.945.045-.037.18-.148.403-.301l.022-.015.02-.014a9.33 9.33 0 0 1 2.692-1.25 15.225 15.225 0 0 1 4.614-.54 11.639 11.639 0 0 1 10.938 11.198c.128 4.622-3.655 8.307-8.016 8.521-3.172.155-6.16-1.38-7.62-4.45a7.587 7.587 0 0 1-.687-2.216c-.692-4.673 2.446-8.657 5.323-9.644C12.68 2.578 8.791 2.67 5.896 4.8 3.81 6.334 2.459 8.667 2.01 11.45a11.53 11.53 0 0 0 .819 6.3 12.354 12.354 0 0 0 10.53 7.505c.348.027.697.04 1.045.04 9.262 0 13.28-7.03 12.414-14.856z"/>
  <path fill="url(#i)" d="M26.819 10.44C26.03 3.33 19.692.136 14.103.182 11.949.2 9.489.714 7.789 1.7c-.45.267-.868.584-1.246.945.045-.037.18-.148.403-.301l.022-.015.02-.014a9.33 9.33 0 0 1 2.692-1.25 15.225 15.225 0 0 1 4.614-.54 11.639 11.639 0 0 1 10.938 11.198c.128 4.622-3.655 8.307-8.016 8.521-3.172.155-6.16-1.38-7.62-4.45a7.587 7.587 0 0 1-.687-2.216c-.692-4.673 2.446-8.657 5.323-9.644C12.68 2.578 8.791 2.67 5.896 4.8 3.81 6.334 2.459 8.667 2.01 11.45a11.53 11.53 0 0 0 .819 6.3 12.354 12.354 0 0 0 10.53 7.505c.348.027.697.04 1.045.04 9.262 0 13.28-7.03 12.414-14.856z" opacity=".53"/>
  <path fill="url(#j)" d="M26.819 10.44C26.03 3.33 19.692.136 14.103.182 11.949.2 9.489.714 7.789 1.7c-.45.267-.868.584-1.246.945.045-.037.18-.148.403-.301l.022-.015.02-.014a9.33 9.33 0 0 1 2.692-1.25 15.225 15.225 0 0 1 4.614-.54 11.639 11.639 0 0 1 10.938 11.198c.128 4.622-3.655 8.307-8.016 8.521-3.172.155-6.16-1.38-7.62-4.45a7.587 7.587 0 0 1-.687-2.216c-.692-4.673 2.446-8.657 5.323-9.644C12.68 2.578 8.791 2.67 5.896 4.8 3.81 6.334 2.459 8.667 2.01 11.45a11.53 11.53 0 0 0 .819 6.3 12.354 12.354 0 0 0 10.53 7.505c.348.027.697.04 1.045.04 9.262 0 13.28-7.03 12.414-14.856z" opacity=".53"/>
  <path fill="url(#k)" d="M17.216 20.244c5.985-.364 8.547-5.32 8.707-8.836C26.174 5.915 22.915-.007 14.294.525a15.225 15.225 0 0 0-4.614.541 10.1 10.1 0 0 0-2.692 1.25l-.02.014-.022.015a7.092 7.092 0 0 0-.393.294 11.719 11.719 0 0 1 7.342-1.377c4.95.65 9.475 4.5 9.475 9.58 0 3.91-3.02 6.895-6.558 6.68-5.255-.314-6.58-5.704-3.846-8.033-.737-.159-2.123.152-3.087 1.594-.866 1.295-.817 3.294-.283 4.711a7.742 7.742 0 0 0 7.62 4.45z"/>
  <path fill="url(#l)" d="M25.18 5.495a13.98 13.98 0 0 0-1.218-1.394 10.97 10.97 0 0 0-1.112-1.024c.226.197.442.407.647.627a7.864 7.864 0 0 1 1.709 2.85c.73 2.215.683 4.988-.713 7.165a8.239 8.239 0 0 1-7.3 3.813c-.126 0-.253 0-.381-.01-5.255-.314-6.58-5.704-3.846-8.033-.737-.159-2.123.152-3.087 1.594-.866 1.295-.817 3.294-.283 4.711a7.587 7.587 0 0 1-.687-2.216c-.692-4.673 2.446-8.657 5.323-9.644C12.68 2.578 8.791 2.67 5.896 4.8a9.746 9.746 0 0 0-3.53 5.11A13.475 13.475 0 0 1 3.82 5.166c-.97.502-2.203 2.088-2.812 3.557a14.474 14.474 0 0 0-.91 7.062c.021.181.04.362.064.542A14.022 14.022 0 1 0 25.18 5.495Z"/>
  <path fill="url(#m)" d="M25.206 6.554a7.86 7.86 0 0 0-1.71-2.85 10.564 10.564 0 0 0-3.182-2.273A14.182 14.182 0 0 0 17.185.322a13.942 13.942 0 0 0-5.798-.035c-1.989.42-3.738 1.28-4.844 2.357a11.235 11.235 0 0 1 2.81-1.12 11.748 11.748 0 0 1 10.911 2.835 9.453 9.453 0 0 1 1.515 1.855c1.714 2.785 1.552 6.287.216 8.353-.992 1.534-3.118 2.975-5.1 2.958a8.27 8.27 0 0 0 7.598-3.805c1.396-2.178 1.444-4.95.713-7.166z"/>
  <path fill="url(#n)" d="M25.206 6.554a7.86 7.86 0 0 0-1.71-2.85 10.564 10.564 0 0 0-3.182-2.273A14.182 14.182 0 0 0 17.185.322a13.942 13.942 0 0 0-5.798-.035c-1.989.42-3.738 1.28-4.844 2.357a11.235 11.235 0 0 1 2.81-1.12 11.748 11.748 0 0 1 10.911 2.835 9.453 9.453 0 0 1 1.515 1.855c1.714 2.785 1.552 6.287.216 8.353-.992 1.534-3.118 2.975-5.1 2.958a8.27 8.27 0 0 0 7.598-3.805c1.396-2.178 1.444-4.95.713-7.166z"/>
  <defs>
    <radialGradient id="a" cx="0" cy="0" r="1" gradientTransform="translate(25.034 5.735) scale(31.773)" gradientUnits="userSpaceOnUse">
      <stop stop-color="#FFF36E"/>
      <stop offset=".5" stop-color="#FC4055"/>
      <stop offset="1" stop-color="#E31587"/>
    </radialGradient>
    <radialGradient id="b" cx="0" cy="0" r="1" gradientTransform="translate(2.319 7.049) scale(18.8041)" gradientUnits="userSpaceOnUse">
      <stop offset=".001" stop-color="#C60084"/>
      <stop offset="1" stop-color="#FC4055" stop-opacity="0"/>
    </radialGradient>
    <radialGradient id="c" cx="0" cy="0" r="1" gradientTransform="matrix(37.3096 0 0 37.3097 27.75 3.927)" gradientUnits="userSpaceOnUse">
      <stop stop-color="#FFDE67" stop-opacity=".6"/>
      <stop offset=".093" stop-color="#FFD966" stop-opacity=".581"/>
      <stop offset=".203" stop-color="#FFCA65" stop-opacity=".525"/>
      <stop offset=".321" stop-color="#FEB262" stop-opacity=".432"/>
      <stop offset=".446" stop-color="#FE8F5E" stop-opacity=".302"/>
      <stop offset=".573" stop-color="#FD6459" stop-opacity=".137"/>
      <stop offset=".664" stop-color="#FC4055" stop-opacity="0"/>
    </radialGradient>
    <radialGradient id="d" cx="0" cy="0" r="1" gradientTransform="matrix(48.1323 0 0 48.1324 14.798 15.541)" gradientUnits="userSpaceOnUse">
      <stop offset=".153" stop-color="#810220"/>
      <stop offset=".167" stop-color="#920B27" stop-opacity=".861"/>
      <stop offset=".216" stop-color="#CB2740" stop-opacity=".398"/>
      <stop offset=".253" stop-color="#EF394F" stop-opacity=".11"/>
      <stop offset=".272" stop-color="#FC4055" stop-opacity="0"/>
    </radialGradient>
    <radialGradient id="e" cx="0" cy="0" r="1" gradientTransform="matrix(48.1323 0 0 48.1324 11.156 14.936)" gradientUnits="userSpaceOnUse">
      <stop offset=".113" stop-color="#810220"/>
      <stop offset=".133" stop-color="#920B27" stop-opacity=".861"/>
      <stop offset=".204" stop-color="#CB2740" stop-opacity=".398"/>
      <stop offset=".257" stop-color="#EF394F" stop-opacity=".11"/>
      <stop offset=".284" stop-color="#FC4055" stop-opacity="0"/>
    </radialGradient>
    <radialGradient id="g" cx="0" cy="0" r="1" gradientTransform="matrix(29.8269 0 0 29.8891 24.31 4.232)" gradientUnits="userSpaceOnUse">
      <stop stop-color="#FF9640"/>
      <stop offset=".8" stop-color="#FC4055"/>
    </radialGradient>
    <radialGradient id="h" cx="0" cy="0" r="1" gradientTransform="matrix(29.8269 0 0 29.8891 24.31 4.232)" gradientUnits="userSpaceOnUse">
      <stop offset=".084" stop-color="#FFDE67"/>
      <stop offset=".147" stop-color="#FFDC66" stop-opacity=".968"/>
      <stop offset=".246" stop-color="#FFD562" stop-opacity=".879"/>
      <stop offset=".369" stop-color="#FFCB5D" stop-opacity=".734"/>
      <stop offset=".511" stop-color="#FFBC55" stop-opacity=".533"/>
      <stop offset=".667" stop-color="#FFAA4B" stop-opacity=".28"/>
      <stop offset=".822" stop-color="#FF9640" stop-opacity="0"/>
    </radialGradient>
    <radialGradient id="i" cx="0" cy="0" r="1" gradientTransform="matrix(3.61273 14.2023 -14.79377 3.76319 17.478 13.529)" gradientUnits="userSpaceOnUse">
      <stop offset=".363" stop-color="#FC4055"/>
      <stop offset=".443" stop-color="#FD604D" stop-opacity=".633"/>
      <stop offset=".545" stop-color="#FE8644" stop-opacity=".181"/>
      <stop offset=".59" stop-color="#FF9640" stop-opacity="0"/>
    </radialGradient>
    <radialGradient id="j" cx="0" cy="0" r="1" gradientTransform="translate(14.958 14.734) scale(14.6265)" gradientUnits="userSpaceOnUse">
      <stop offset=".216" stop-color="#FC4055" stop-opacity=".8"/>
      <stop offset=".267" stop-color="#FD5251" stop-opacity=".633"/>
      <stop offset=".41" stop-color="#FE8345" stop-opacity=".181"/>
      <stop offset=".474" stop-color="#FF9640" stop-opacity="0"/>
    </radialGradient>
    <radialGradient id="k" cx="0" cy="0" r="1" gradientTransform="matrix(50.413 0 0 50.5181 30.262 .856)" gradientUnits="userSpaceOnUse">
      <stop offset=".054" stop-color="#FFF36E"/>
      <stop offset=".457" stop-color="#FF9640"/>
      <stop offset=".639" stop-color="#FF9640"/>
    </radialGradient>
    <linearGradient id="f" x1="16.041" x2="24.286" y1="2.725" y2="17.007" gradientUnits="userSpaceOnUse">
      <stop stop-color="#FFBD4F"/>
      <stop offset=".508" stop-color="#FF9640" stop-opacity="0"/>
    </linearGradient>
    <linearGradient id="l" x1="20.668" x2="6.354" y1="2.479" y2="27.272" gradientUnits="userSpaceOnUse">
      <stop stop-color="#FFF36E" stop-opacity=".8"/>
      <stop offset=".094" stop-color="#FFF36E" stop-opacity=".699"/>
      <stop offset=".752" stop-color="#FFF36E" stop-opacity="0"/>
    </linearGradient>
    <linearGradient id="m" x1="14.205" x2="21.805" y1="-.234" y2="21.771" gradientUnits="userSpaceOnUse">
      <stop stop-color="#B833E1"/>
      <stop offset=".371" stop-color="#9059FF"/>
      <stop offset=".614" stop-color="#5B6DF8"/>
      <stop offset="1" stop-color="#0090ED"/>
    </linearGradient>
    <linearGradient id="n" x1="9.699" x2="23.825" y1=".113" y2="14.24" gradientUnits="userSpaceOnUse">
      <stop offset=".805" stop-color="#722291" stop-opacity="0"/>
      <stop offset="1" stop-color="#592ACB" stop-opacity=".5"/>
    </linearGradient>
  </defs>
</svg>
