<!-- This Source Code Form is subject to the terms of the Mozilla Public
   - License, v. 2.0. If a copy of the MPL was not distributed with this
   - file, You can obtain one at http://mozilla.org/MPL/2.0/. -->
<svg xmlns="http://www.w3.org/2000/svg" width="16" height="16" fill="context-fill" fill-opacity="context-fill-opacity" viewBox="0 0 16 16">
  <path d="M8 7a2 2 0 1 0 0-4 2 2 0 0 0 0 4zm.027 6c.082.734.34 1.416.73 2H1a7.003 7.003 0 0 1 4.812-6.651 4 4 0 1 1 4.377 0c.107.035.214.074.32.114a4.52 4.52 0 0 0-1.785 1.589A5.001 5.001 0 0 0 3.417 13h4.61z"/>
  <path d="M12.5 16a3.5 3.5 0 1 1 0-7 3.5 3.5 0 0 1 0 7zm.5-4v-1.5a.5.5 0 1 0-1 0V12h-1.5a.5.5 0 1 0 0 1H12v1.5a.5.5 0 1 0 1 0V13h1.5a.5.5 0 1 0 0-1H13z"/>
</svg>
