<!-- This Source Code Form is subject to the terms of the Mozilla Public
   - License, v. 2.0. If a copy of the MPL was not distributed with this
   - file, You can obtain one at http://mozilla.org/MPL/2.0/. -->
<svg xmlns="http://www.w3.org/2000/svg" width="16" height="16">
  <path fill="context-fill" fill-opacity="context-fill-opacity" d="m 3.3,6.5 c -0.2,0.3 -0.5,0.6 -0.5,1 0,0.3 0.4,0.6 0.5,1 0.2,1.5 1,2.5 3.2,3 V 12 C 4,12 1,11.5 1,15 h 14 c 0,-3.5 -3,-3 -5.5,-3 v -0.5 c 2,-0.5 2.9,-1.6 3.2,-3 0,-0.3 0.5,-0.6 0.5,-1 0,-0.4 -0.4,-0.7 -0.5,-1 0,-6 -9.4,-6 -9.4,0 z M 7,4 h 2 v 2 h 2 V 8 H 9 v 2 H 7 V 8 H 5 V 6 h 2 z"/>
</svg>
