<!-- This Source Code Form is subject to the terms of the Mozilla Public
   - License, v. 2.0. If a copy of the MPL was not distributed with this
   - file, You can obtain one at http://mozilla.org/MPL/2.0/. -->
<svg xmlns="http://www.w3.org/2000/svg" width="16" height="16" fill="context-fill" fill-opacity="context-fill-opacity" viewBox="0 0 16 16">
  <path d="M16 16h-.671H16zm-3.535-8a4.502 4.502 0 0 0-4.229 3.058A5.006 5.006 0 0 0 4.416 14h3.84a4.51 4.51 0 0 0 1.415 2H2a7.003 7.003 0 0 1 4.812-6.651A4 4 0 1 1 12.465 8zM9 8a2 2 0 1 0 0-4 2 2 0 0 0 0 4z"/>
  <path d="M4.049 6.7A4 4 0 0 1 9.7 1.049 5 5 0 0 0 4.049 6.7zM1.252 14H0a7 7 0 0 1 4.249-6.439c.178.543.447 1.045.788 1.488A8.016 8.016 0 0 0 1.252 14z"/>
  <path d="M12.5 16a3.5 3.5 0 1 1 0-7 3.5 3.5 0 0 1 0 7zm.5-4v-1.5a.5.5 0 1 0-1 0V12h-1.5a.5.5 0 1 0 0 1H12v1.5a.5.5 0 1 0 1 0V13h1.5a.5.5 0 1 0 0-1H13z"/>
</svg>
