<!-- This Source Code Form is subject to the terms of the Mozilla Public
   - License, v. 2.0. If a copy of the MPL was not distributed with this
   - file, You can obtain one at http://mozilla.org/MPL/2.0/. -->
<svg xmlns="http://www.w3.org/2000/svg" width="16" height="16">
  <path fill="context-fill" fill-opacity="context-fill-opacity" d="m 2,14 h 12 c 0,-3 -1.2,-3 -4,-3 V 10 C 12,8.9 11.7,8.4 12,7 12,6.7 12.5,6.4 12.5,6 12.5,5.6 12.1,5.3 12,5 11.8,4.6 11.9,2.7 11,2 9.4,0.8 6.56,0.8 5,2 4,2.7 4.1,4.6 4,5 3.8,5.3 3.5,5.6 3.5,6 3.5,6.3 3.9,6.6 4,7 4.2,8.5 4,8.8 6,10 v 1 c -2.5,0 -4,0 -4,3 z"/>
</svg>
