<!-- This Source Code Form is subject to the terms of the Mozilla Public
   - License, v. 2.0. If a copy of the MPL was not distributed with this
   - file, You can obtain one at http://mozilla.org/MPL/2.0/. -->
<svg width="16" height="16" xmlns="http://www.w3.org/2000/svg">
  <path fill="context-fill" fill-opacity="context-fill-opacity" d="M3 0a2 2 0 00-2 2v1.02c-1.32.11-1.32 1.84 0 1.96v2.04c-1.32.12-1.32 1.85 0 1.96v2.04c-1.32.12-1.32 1.84 0 1.96V14c0 1.1.9 2 2 2h11a2 2 0 002-2V2a2 2 0 00-2-2zm1 2h9a1 1 0 011 1v10a1 1 0 01-1 1H4a1 1 0 01-1-1c1.5 0 1.5-2 0-2V9c1.5 0 1.5-2 0-2V5c1.5 0 1.5-2 0-2a1 1 0 011-1zm9 10c0-3.1-.68-3.36-2.74-3.84C12.51 6.89 11.58 3.46 9 3.5c-2.53.02-3.44 3.36-1.26 4.65C5.68 8.67 5 9.02 5 12z"/>
</svg>
