<svg xmlns="http://www.w3.org/2000/svg"
     xmlns:xlink="http://www.w3.org/1999/xlink"
     viewBox="0 0 18 18">
  <style>
    path {
      display: none;
    }
    path:target {
      display: block;
      stroke-width: 1;
    }
    .normal {
      fill: #505050;
      fill-opacity: 0.8;
      stroke: #404040;
    }
    @media (-moz-windows-default-theme) and (-moz-os-version: windows-win8) {
      .normal {
        fill: #797c80;
        fill-opacity: 1;
        stroke: none;
      }
    }
    @media (-moz-windows-default-theme) and (-moz-os-version: windows-win10) {
      .normal {
        fill: #4c4c4c;
        fill-opacity: 1;
        stroke: none;
      }
    }
    @media (-moz-windows-default-theme) and (-moz-os-version: windows-vista),
       (-moz-windows-default-theme) and (-moz-os-version: windows-win7) {
      .normal {
        fill: url(#win1);
        fill-opacity: 1;
        stroke: url(#win2);
      }
    }
    @media (-moz-mac-lion-theme) {
      .normal {
        fill: url(#osx1);
        fill-opacity: 1;
        stroke: url(#osx2);
      }
    }
    @media (-moz-mac-yosemite-theme) {
      .normal {
        fill: #4d4d4d;
        fill-opacity: 1;
        stroke: none;
      }
    }
    .inverted {
      fill: #fff;
      fill-opacity: 1;
      stroke: #111922;
    }
    .unread {
      fill: #3971c3;
      fill-opacity: 1;
      stroke: #115174;
    }
  </style>
  <defs>
    <linearGradient
       id="win1"
       x1="8"
       y1="1"
       x2="8"
       y2="15"
       gradientUnits="userSpaceOnUse">
       <stop stop-color="#3f4f5a" offset="0"/>
       <stop stop-color="#7e8c97" offset="1"/>
    </linearGradient>
    <linearGradient
       id="win2"
       x1="8"
       y1="1"
       x2="8"
       y2="15"
       gradientUnits="userSpaceOnUse">
      <stop stop-color="#0c1b25" offset="0"/>
      <stop stop-color="#4f585f" stop-opacity="0.9" offset="1"/>
    </linearGradient>
    <linearGradient
       id="osx1"
       x1="8"
       y1="1"
       x2="8"
       y2="15"
       gradientUnits="userSpaceOnUse">
       <stop stop-color="#4f4f4f" stop-opacity="0.76" offset="0"/>
       <stop stop-color="#717171" stop-opacity="0.6" offset="1"/>
    </linearGradient>
    <linearGradient
       id="osx2"
       x1="8"
       y1="1"
       x2="8"
       y2="15"
       gradientUnits="userSpaceOnUse">
      <stop stop-color="#252525" stop-opacity="0.88" offset="0"/>
      <stop stop-color="#505050" stop-opacity="0.68" offset="1"/>
    </linearGradient>
  </defs>
  <path id="newcard" class="normal" d="M 4.5,6.5 C 4.3,6.8 4,7.1 4,7.5 c 0,0.3 0.4,0.6 0.5,1 0.2,1.5 0.8,2.5 3,3 l 0,1 c -2.4,0.1 -6,-0.5 -6,3 l 15,0 c 0,-3.5 -3.6,-3 -6,-3 l 0,-1 c 2,-0.5 2.7,-1.6 3,-3 0,-0.3 0.5,-0.6 0.5,-1 0,-0.4 -0.4,-0.7 -0.5,-1 0,-6 -9,-6 -9,0 z m 3,-3 3,0 0,2 2,0 0,3 -2,0 0,2 -3,0 0,-2 -2,0 0,-3 2,0 z"/>
  <path id="newcard-flat" class="normal" d="m 4.3,6.5 c -0.2,0.3 -0.5,0.6 -0.5,1 0,0.3 0.4,0.6 0.5,1 0.2,1.5 1,2.5 3.2,3 l 0,0.5 C 5,12 2,11.5 2,15 l 14,0 c 0,-3.5 -3,-3 -5.5,-3 l 0,-0.5 c 2,-0.5 2.9,-1.6 3.2,-3 0,-0.3 0.5,-0.6 0.5,-1 0,-0.4 -0.4,-0.7 -0.5,-1 0,-6 -9.4,-6 -9.4,0 z M 8,4 l 2,0 0,2 2,0 0,2 -2,0 0,2 L 8,10 8,8 6,8 6,6 8,6 Z"/>
  <path id="newcard-inverted" class="inverted" d="M 9,2 C 7.8,2 6.28,2.4 5.5,3 4.5,3.7 4.6,6.1 4.5,6.5 4.3,6.8 4,7.1 4,7.5 c 0,0.3 0.4,0.6 0.5,1 0.2,1.5 1,1.8 3,3 l 0,1 c -2.4,0.1 -5.7,-0.6 -6,3 l 15,0 c -0.3,-3.5 -3.6,-3 -6,-3 l 0,-1 c 2,-1.1 2.7,-1.6 3,-3 C 13.5,8.2 14,7.9 14,7.5 14,7.1 13.6,6.8 13.5,6.5 13.3,6.1 13.4,3.7 12.5,3 11.7,2.4 10,2 9,2 Z m -0.5,2.5 1,0 0,2 2,0 0,1 -2,0 0,2 -1,0 0,-2 -2,0 0,-1 2,0 z"/>
  <path id="newlist" class="normal" d="M 6.5,7.5 C 6.3,7.8 6,8.1 6,8.5 c 0,0.3 0.4,0.6 0.5,1 0.2,1.5 0.8,2.3 3,3 l 0,1 c -2.3,0 -4,-0.2 -4,2 l 11,0 c 0,-2.1 -1.7,-2 -4,-2 l 0,-1 c 2.3,-0.7 2.8,-1.5 3,-3 0,-0.3 0.5,-0.6 0.5,-1 0,-0.4 -0.4,-0.7 -0.5,-1 0,-6 -9,-6 -9,0 z m 3,-3 3,0 0,2 2,0 0,3 -2,0 0,2 -3,0 0,-2 -2,0 0,-3 2,0 z M 7,2 C 4.4,2.2 2.5,2.8 2.5,5.5 2.3,5.8 2,6.1 2,6.5 2,6.8 2.3,7.1 2.5,7.5 3,9.6 2.8,11 5,11.4 2.4,11.4 1.5,11.3 1.5,13.5 l 2.5,0 C 4.5,12.5 4.5,12.2 5.2,12 4,11 4.5,9.2 4,8.5 4,8 4.6,7 4.5,6.5 4.7,4.6 5.3,3 7,2 Z"/>
  <path id="newlist-flat" class="normal" d="M 6.5,7.5 C 6.3,7.8 6,8.1 6,8.5 c 0,0.3 0.4,0.6 0.5,1 0,1.8 2,3.5 3.5,3.5 -2.3,0 -4,-0.2 -4,2 l 10,0 c 0,-2.1 -1.7,-2 -4,-2 1.7,0 3.5,-2 3.5,-3.5 0,-0.3 0.5,-0.6 0.5,-1 0,-0.4 -0.4,-0.7 -0.5,-1 0,-6 -9,-6 -9,0 z M 10,5 l 2,0 0,2 2,0 0,2 -2,0 0,2.1 -2,0 L 10,9 8,9 8,7 10,7 Z M 8.5,2.5 C 6,1 3,2.8 3,5.5 2.8,5.8 2.5,6.1 2.5,6.5 2.5,6.8 2.8,7.1 3,7.5 3,9 3.5,11 5,11 2.4,11 2,11 2,13 l 3,0 C 5.5,12 5.8,12.2 6.5,12 4.5,11 5.2,9.2 4.7,8.5 4.5,7 5.2,7 5.2,6.5 5.2,5 6,3 8.5,2.5 Z"/>
  <path id="newlist-inverted" class="inverted" d="M 11,3 C 9.8,3 8.2,3.4 7.5,4 6.5,4.7 6.6,7.1 6.5,7.5 6.3,7.8 6,8.1 6,8.5 c 0,0.3 0.4,0.6 0.5,1 0.2,1.5 1,1.8 3,3 l 0,1 c -2.3,0 -4,-0.2 -4,2 l 11,0 c 0,-2.1 -1.7,-2 -4,-2 l 0,-1 c 2,-1.1 2.7,-1.6 3,-3 C 15.5,9.2 16,8.9 16,8.5 16,8.1 15.6,7.8 15.5,7.5 15.3,7.1 15.4,4.7 14.5,4 13.7,3.4 12,3 11,3 Z m -0.5,2.5 1,0 0,2 2,0 0,1 -2,0 0,2 -1,0 0,-2 -2,0 0,-1 2,0 z
    M 7,2 C 5.8,2 4.3,2.4 3.5,3 2.5,3.7 2.6,5.1 2.5,5.5 2.3,5.8 2,6.1 2,6.5 c 0,0.3 0.5,0.6 0.5,1 0,2.2 1,3.4 3,4 -2.5,0 -4,-0.2 -4,2 l 8,0 0,-1 C 7.8,11.5 6.8,11.4 6.5,9.5 6.5,9 6,9 6,8.5 6,8 6.6,8 6.5,7.5 6.5,4.1 7.6,3.5 9.6,3 9,2.4 8.2,2 7,2 Z"/>
  <path id="editcard" class="normal" d="M 9,1.5 C 4.8,1.5 1.5,4.8 1.5,9 c 0,4.1 3.3,7.5 7.5,7.5 4.1,0 7.5,-3.3 7.5,-7.5 C 16.5,4.8 13.1,1.5 9,1.5 Z m 0,2 C 9.8,3.5 10.5,4.1 10.5,5 10.5,5.8 9.8,6.5 9,6.5 8.1,6.5 7.5,5.8 7.5,5 7.5,4.1 8.1,3.5 9,3.5 Z M 10.5,13 C 10.5,13.8 9.8,14.5 9,14.5 8.1,14.5 7.5,13.8 7.5,13 l 0,-4 C 7.5,8.1 8.1,7.5 9,7.5 c 0.8,0 1.5,0.6 1.5,1.5 z"/>
  <path id="editcard-flat" class="normal" d="m 9.5,2 c -3.8,0 -7,3.1 -7,7 0,3.8 3.1,7 7,7 3.8,0 7,-3.1 7,-7 0,-3.8 -3.1,-7 -7,-7 z m 0,1.5 C 10.3,3.5 11,4.1 11,5 11,5.8 10.3,6.5 9.5,6.5 8.6,6.5 8,5.8 8,5 8,4.1 8.6,3.5 9.5,3.5 Z M 11,13 c 0,0.8 -0.6,1.5 -1.5,1.5 C 8.6,14.5 8,13.8 8,13 L 8,9 C 8,8.1 8.6,7.5 9.5,7.5 10.3,7.5 11,8.1 11,9 Z"/>
  <path id="editcard-inverted" class="inverted" d="M 9,1.5 C 4.8,1.5 1.5,4.8 1.5,9 c 0,4.1 3.3,7.5 7.5,7.5 4.1,0 7.5,-3.3 7.5,-7.5 C 16.5,4.8 13.1,1.5 9,1.5 Z m 0,2 C 9.8,3.5 10.5,4.1 10.5,5 10.5,5.8 9.8,6.5 9,6.5 8.1,6.5 7.5,5.8 7.5,5 7.5,4.1 8.1,3.5 9,3.5 Z M 10.5,13 C 10.5,13.8 9.8,14.5 9,14.5 8.1,14.5 7.5,13.8 7.5,13 l 0,-4 C 7.5,8.1 8.1,7.5 9,7.5 c 0.8,0 1.5,0.6 1.5,1.5 z"/>
  <path id="newmessage" class="normal" d="m 1.5,2.5 10,0 0,0.5 -7,6.5 0,5 5,0 2,-2 0,3 -10,0 z m 5,10 2,0 8,-7.5 -2,-2 -8,7.5 z"/>
  <path id="newmessage-flat" class="normal" d="m 2,3 9,0 0,1.5 -5,5 0,3.5 3.5,0 1.5,-1.5 0,3.5 -9,0 z m 5,9 2,0 7,-7 -2,-2 -7,7 z"/>
  <path id="newmessage-inverted" class="inverted" d="m 1.5,2.5 10,0 0,4.3 -5,4.7 0,2 2,0 3,-2.8 0,4.8 -10,0 z m 5,11 2,0 8,-7.5 -2,-2 -8,7.5 z"/>
  <path id="newim" class="normal" d="M 16.5,5 C 16.5,3.8 15.2,2.5 14,2.5 L 4,2.5 C 2.8,2.5 1.5,3.8 1.5,5 l 0,5 c 0,1.2 1.3,2.5 2.5,2.5 l 1.5,0 0,3 3.5,-3 5,0 c 1.2,0 2.5,-1.3 2.5,-2.5 z"/>
  <path id="newim-flat" class="normal" d="M 16,5 C 16,3.8 15.2,3 14,3 L 4,3 C 2.8,3 2,3.8 2,5 l 0,5 c 0,1.2 0.8,2.1 2,2.1 l 2,0 0,3.9 3.5,-3.9 4.5,0 c 1.2,0 2,-0.9 2,-2.1 z"/>
  <path id="newim-inverted" class="inverted" d="M 16.5,5 C 16.5,3.8 15.2,2.5 14,2.5 L 4,2.5 C 2.8,2.5 1.5,3.8 1.5,5 l 0,5 c 0,1.2 1.3,2.5 2.5,2.5 l 1.5,0 0,3 3.5,-3 5,0 c 1.2,0 2.5,-1.3 2.5,-2.5 z"/>
  <path id="abdelete" class="normal" d="m 9,1.5 c 4.2,0 7.5,3.3 7.5,7.5 0,4.1 -3.3,7.5 -7.5,7.5 C 4.9,16.5 1.5,13.2 1.5,9 1.5,4.8 4.9,1.5 9,1.5 Z m -3,3 7.5,7.5 C 16.3,7.1 11,1.7 6,4.5 Z M 4.5,6 c -3.1,5.4 2.9,10 7.5,7.5 z"/>
  <path id="abdelete-inverted" class="inverted" d="m 9,1.5 c 4.2,0 7.5,3.3 7.5,7.5 0,4.1 -3.3,7.5 -7.5,7.5 C 4.9,16.5 1.5,13.2 1.5,9 1.5,4.8 4.9,1.5 9,1.5 Z M 7,5 13,11 C 14.5,6.6 11.2,3.6 7,5 Z M 5,7 c -1.6,4.3 1.5,7.7 6,6 z"/>
</svg>
