<!-- This Source Code Form is subject to the terms of the Mozilla Public
   - License, v. 2.0. If a copy of the MPL was not distributed with this
   - file, You can obtain one at http://mozilla.org/MPL/2.0/. -->
<svg width="16" height="16" xmlns="http://www.w3.org/2000/svg" fill="context-fill" fill-opacity="context-fill-opacity" viewBox="0 0 16 16">
  <path d="M3.5 5a.5.5 0 0 1 0-1h9a.5.5 0 1 1 0 1h-9zm1-2a.5.5 0 0 1 0-1h7a.5.5 0 1 1 0 1h-7zM3 6h3a2 2 0 1 0 4 0h3a2 2 0 0 1 2 2v5a2 2 0 0 1-2 2H3a2 2 0 0 1-2-2V8a2 2 0 0 1 2-2zm1.535 2H3v5h10V8h-1.535A3.998 3.998 0 0 1 8 10a3.998 3.998 0 0 1-3.465-2z"/>
</svg>
