<!-- This Source Code Form is subject to the terms of the Mozilla Public
   - License, v. 2.0. If a copy of the MPL was not distributed with this
   - file, You can obtain one at http://mozilla.org/MPL/2.0/. -->

<svg xmlns="http://www.w3.org/2000/svg" width="14" height="14" viewBox="0 0 14 14">
  <path fill="context-fill" d="M11 10V4c0-.28-.22-.5-.5-.5s-.5.22-.5.5v6zM6 5v4H5V5c0-.28.22-.5.5-.5s.5.22.5.5zM3 3c0-1.66 1.34-3 3-3s3 1.34 3 3v6H8V4H4v6H3zm3 6c0 .55.45 1 1 1s1-.45 1-1h1c0 1.1-.9 2-2 2s-2-.9-2-2zm-2 1c0 1.66 1.34 3 3 3s3-1.34 3-3h1c0 2.2-1.8 4-4 4s-4-1.8-4-4zm0-7v1h4V3zm4 0c0-1.1-.9-2-2-2s-2 .9-2 2z"/>
</svg>
