<!-- This Source Code Form is subject to the terms of the Mozilla Public
   - License, v. 2.0. If a copy of the MPL was not distributed with this
   - file, You can obtain one at http://mozilla.org/MPL/2.0/. -->
<svg xmlns="http://www.w3.org/2000/svg" width="16" height="16" viewBox="0 0 16 16">
  <path fill="context-fill" fill-opacity="context-fill-opacity" d="M12 12V3.5c0-.28-.22-.5-.5-.5s-.5.22-.5.5V12zM7 4.5V11H6V4.5c0-.28.22-.5.5-.5s.5.22.5.5zM4 3c0-1.66 1.34-3 3-3s3 1.34 3 3v8H9V4H5v8H4zm3 8c0 .55.45 1 1 1s1-.45 1-1h1c0 1.1-.9 2-2 2s-2-.9-2-2zm-2 1c0 1.66 1.34 3 3 3s3-1.34 3-3h1c0 2.2-1.8 4-4 4s-4-1.8-4-4zm0-9v1h4V3zm4 0c0-1.1-.9-2-2-2s-2 .9-2 2z"/>
</svg>
