<svg xmlns="http://www.w3.org/2000/svg"
     xmlns:xlink="http://www.w3.org/1999/xlink"
     viewBox="0 0 18 18">
  <style>
    path {
      display: none;
    }
    path:target {
      display: block;
      stroke-width: 1;
    }
    @media (-moz-mac-lion-theme) {
      .normal {
        fill: url(#osx1);
        fill-opacity: 1;
        stroke: url(#osx2);
      }
    }
    .normal {
      fill: #4d4d4d;
      fill-opacity: 1;
      stroke: none;
    }
  </style>
  <defs>
    <linearGradient
       id="osx1"
       x1="8"
       y1="1"
       x2="8"
       y2="15"
       gradientUnits="userSpaceOnUse">
       <stop stop-color="#4f4f4f" stop-opacity="0.76" offset="0"/>
       <stop stop-color="#717171" stop-opacity="0.6" offset="1"/>
    </linearGradient>
    <linearGradient
       id="osx2"
       x1="8"
       y1="1"
       x2="8"
       y2="15"
       gradientUnits="userSpaceOnUse">
      <stop stop-color="#252525" stop-opacity="0.88" offset="0"/>
      <stop stop-color="#505050" stop-opacity="0.68" offset="1"/>
    </linearGradient>
  </defs>
  <path id="add" class="normal" d="M 4.5,6.5 C 4.3,6.8 4,7.1 4,7.5 c 0,0.3 0.4,0.6 0.5,1 0.2,1.5 0.8,2.5 3,3 l 0,1 c -2.4,0.1 -6,-0.5 -6,3 l 15,0 c 0,-3.5 -3.6,-3 -6,-3 l 0,-1 c 2,-0.5 2.7,-1.6 3,-3 0,-0.3 0.5,-0.6 0.5,-1 0,-0.4 -0.4,-0.7 -0.5,-1 0,-6 -9,-6 -9,0 z m 3,-3 3,0 0,2 2,0 0,3 -2,0 0,2 -3,0 0,-2 -2,0 0,-3 2,0 z"/>
  <path id="join" class="normal" d="m 7.5,6.5 8,0 c 0.5,0 1,0.5 1,1 l 0,4 c 0,0.5 -0.5,1 -1,1 l -5,0 -2,4 0,-4 -1,0 c -0.5,0 -1,-0.5 -1,-1 l 0,-4 c 0,-0.5 0.5,-1 1,-1 z m -5,-4 9,0 c 0.5,0 1,0.5 1,1 l 0,1 -6,0 c -1,0 -2,1 -2,2 l 0,3.5 -1,2.5 0,-4 -1,0 c -0.5,0 -1,-0.5 -1,-1 l 0,-4 c 0,-0.5 0.5,-1 1,-1 z"/>
  <path id="accounts" class="normal" d="M 9,1.5 C 4.8,1.5 1.5,4.8 1.5,9 c 0,4.1 3.3,7.5 7.5,7.5 4.1,0 7.5,-3.3 7.5,-7.5 C 16.5,4.8 13.1,1.5 9,1.5 Z m 0,2 C 9.8,3.5 10.5,4.1 10.5,5 10.5,5.8 9.8,6.5 9,6.5 8.1,6.5 7.5,5.8 7.5,5 7.5,4.1 8.1,3.5 9,3.5 Z M 10.5,13 C 10.5,13.8 9.8,14.5 9,14.5 8.1,14.5 7.5,13.8 7.5,13 l 0,-4 C 7.5,8.1 8.1,7.5 9,7.5 c 0.8,0 1.5,0.6 1.5,1.5 z"/>
</svg>
