<svg xmlns="http://www.w3.org/2000/svg"
     xmlns:xlink="http://www.w3.org/1999/xlink"
     viewBox="0 0 18 18">
  <style>
    path {
      display: none;
    }
    path:target {
      display: block;
      stroke-width: 1;
    }
    .normal {
      fill: #505050;
      fill-opacity: 0.8;
      stroke: #404040;
    }
    @media (-moz-windows-default-theme) and (-moz-os-version: windows-win8) {
      .normal {
        fill: #797c80;
      fill-opacity: 1;
        stroke: #797c80;
      }
    }
    @media (-moz-windows-default-theme) and (-moz-os-version: windows-win10) {
      .normal {
        fill: #4c4c4c;
      fill-opacity: 1;
        stroke: #4c4c4c;
      }
    }
    @media (-moz-windows-default-theme) and (-moz-os-version: windows-vista),
       (-moz-windows-default-theme) and (-moz-os-version: windows-win7) {
      .normal {
        fill: url(#win1);
      fill-opacity: 1;
        stroke: url(#win2);
      }
    }
    @media (-moz-mac-lion-theme) {
      .normal {
        fill: url(#osx1);
      fill-opacity: 1;
        stroke: url(#osx2);
      }
    }
    @media (-moz-mac-yosemite-theme) {
      .normal {
        fill: #4d4d4d;
      fill-opacity: 1;
        stroke: #4d4d4d;
      }
    }
    .inverted {
      fill: #fff;
      fill-opacity: 1;
      stroke: #111922;
    }
  </style>
  <defs>
    <linearGradient
       id="win1"
       x1="8"
       y1="1"
       x2="8"
       y2="15"
       gradientUnits="userSpaceOnUse">
       <stop stop-color="#3f4f5a" offset="0"/>
       <stop stop-color="#7e8c97" offset="1"/>
    </linearGradient>
    <linearGradient
       id="win2"
       x1="8"
       y1="1"
       x2="8"
       y2="15"
       gradientUnits="userSpaceOnUse">
      <stop stop-color="#0c1b25" offset="0"/>
      <stop stop-color="#4f585f" stop-opacity="0.9" offset="1"/>
    </linearGradient>
    <linearGradient
       id="osx1"
       x1="8"
       y1="1"
       x2="8"
       y2="15"
       gradientUnits="userSpaceOnUse">
       <stop stop-color="#4f4f4f" stop-opacity="0.76" offset="0"/>
       <stop stop-color="#717171" stop-opacity="0.6" offset="1"/>
    </linearGradient>
    <linearGradient
       id="osx2"
       x1="8"
       y1="1"
       x2="8"
       y2="15"
       gradientUnits="userSpaceOnUse">
      <stop stop-color="#252525" stop-opacity="0.88" offset="0"/>
      <stop stop-color="#505050" stop-opacity="0.68" offset="1"/>
    </linearGradient>
  </defs>
  <path id="add" class="normal" d="M 9,2 C 7.8,2 6.28,2.4 5.5,3 4.5,3.7 4.6,6.1 4.5,6.5 4.3,6.8 4,7.1 4,7.5 c 0,0.3 0.4,0.6 0.5,1 0.2,1.5 1,1.8 3,3 l 0,1 c -2.4,0.1 -5.7,-0.6 -6,3 l 15,0 c -0.3,-3.5 -3.6,-3 -6,-3 l 0,-1 c 2,-1.1 2.7,-1.6 3,-3 C 13.5,8.2 14,7.9 14,7.5 14,7.1 13.6,6.8 13.5,6.5 13.3,6.1 13.4,3.7 12.5,3 11.7,2.4 10,2 9,2 Z m -1.5,1.5 3,0 0,2 2,0 0,3 -2,0 0,2 -3,0 0,-2 -2,0 0,-3 2,0 z"/>
  <path id="add-inverted" class="inverted" d="M 9,2 C 7.8,2 6.28,2.4 5.5,3 4.5,3.7 4.6,6.1 4.5,6.5 4.3,6.8 4,7.1 4,7.5 c 0,0.3 0.4,0.6 0.5,1 0.2,1.5 1,1.8 3,3 l 0,1 c -2.4,0.1 -5.7,-0.6 -6,3 l 15,0 c -0.3,-3.5 -3.6,-3 -6,-3 l 0,-1 c 2,-1.1 2.7,-1.6 3,-3 C 13.5,8.2 14,7.9 14,7.5 14,7.1 13.6,6.8 13.5,6.5 13.3,6.1 13.4,3.7 12.5,3 11.7,2.4 10,2 9,2 Z m -0.5,2.5 1,0 0,2 2,0 0,1 -2,0 0,2 -1,0 0,-2 -2,0 0,-1 2,0 z"/>
  <path id="join" class="normal" d="m 7.5,6.5 8,0 c 0.5,0 1,0.5 1,1 l 0,4 c 0,0.5 -0.5,1 -1,1 l -5,0 -2,4 0,-4 -1,0 c -0.5,0 -1,-0.5 -1,-1 l 0,-4 c 0,-0.5 0.5,-1 1,-1 z m -5,-4 9,0 c 0.5,0 1,0.5 1,1 l 0,1 -6,0 c -1,0 -2,1 -2,2 l 0,3.5 -1,2.5 0,-4 -1,0 c -0.5,0 -1,-0.5 -1,-1 l 0,-4 c 0,-0.5 0.5,-1 1,-1 z"/>
  <path id="join-inverted" class="inverted" d="m 7.5,6.5 8,0 c 0.5,0 1,0.5 1,1 l 0,4 c 0,0.5 -0.5,1 -1,1 l -4,0 -2,4 -1,0 0,-4 -1,0 c -0.5,0 -1,-0.5 -1,-1 l 0,-4 c 0,-0.5 0.5,-1 1,-1 z m 4,-4 c 0.5,0 1,0.5 1,1 l 0,3 -5,0 c -0.5,0 -1,0.5 -1,1 l 0,1 -2,4 -1,0 0,-4 -1,0 C 2.1,8.5 1.6,8 1.6,7.5 l 0,-4 c 0,-0.5 0.5,-1 1,-1 z"/>
  <path id="accounts" class="normal" d="M 9,1.5 C 4.8,1.5 1.5,4.8 1.5,9 c 0,4.1 3.3,7.5 7.5,7.5 4.1,0 7.5,-3.3 7.5,-7.5 C 16.5,4.8 13.1,1.5 9,1.5 Z m -1.5,2 3,0 0,3 -3,0 z m 0,5 3,0 0,6 -3,0 z"/>
  <path id="accounts-inverted" class="inverted" d="M 9,1.5 C 4.8,1.5 1.5,4.8 1.5,9 c 0,4.1 3.3,7.5 7.5,7.5 4.1,0 7.5,-3.3 7.5,-7.5 C 16.5,4.8 13.1,1.5 9,1.5 Z m -1.5,2 3,0 0,3 -3,0 z m 0,5 3,0 0,6 -3,0 z"/>
</svg>
