<svg xmlns="http://www.w3.org/2000/svg"
     xmlns:xlink="http://www.w3.org/1999/xlink"
     viewBox="0 0 18 18">
  <style>
    path {
      display: none;
    }
    path:target {
      display: block;
      stroke-width: 1;
    }
    .normal {
      fill: #505050;
      fill-opacity: 0.8;
      stroke: #404040;
    }
    @media (-moz-windows-default-theme) and (-moz-os-version: windows-win8) {
      .normal {
        fill: #797c80;
        fill-opacity: 1;
        stroke: #797c80;
        stroke-width: 0;
      }
    }
    @media (-moz-windows-default-theme) and (-moz-os-version: windows-win10) {
      .normal {
        fill: #4c4c4c;
        fill-opacity: 1;
        stroke: #4c4c4c;
        stroke-opacity: 0;
      }
    }
    @media (-moz-windows-default-theme) and (-moz-os-version: windows-vista),
       (-moz-windows-default-theme) and (-moz-os-version: windows-win7) {
      .normal {
        fill: url(#win1);
        fill-opacity: 1;
        stroke: url(#win2);
      }
    }
    @media (-moz-mac-lion-theme) {
      .normal {
        fill: url(#osx1);
        fill-opacity: 1;
        stroke: url(#osx2);
      }
    }
    @media (-moz-mac-yosemite-theme) {
      .normal {
        fill: #4d4d4d;
        fill-opacity: 1;
        stroke: none;
      }
    }
    .inverted {
      fill: #fff;
      fill-opacity: 1;
      stroke: #111922;
    }
    .unread {
      fill: #3971c3;
      fill-opacity: 1;
      stroke: #115174;
    }
  </style>
  <defs>
    <linearGradient
       id="win1"
       x1="8"
       y1="1"
       x2="8"
       y2="15"
       gradientUnits="userSpaceOnUse">
       <stop stop-color="#3f4f5a" offset="0"/>
       <stop stop-color="#7e8c97" offset="1"/>
    </linearGradient>
    <linearGradient
       id="win2"
       x1="8"
       y1="1"
       x2="8"
       y2="15"
       gradientUnits="userSpaceOnUse">
      <stop stop-color="#0c1b25" offset="0"/>
      <stop stop-color="#4f585f" stop-opacity="0.9" offset="1"/>
    </linearGradient>
    <linearGradient
       id="osx1"
       x1="8"
       y1="1"
       x2="8"
       y2="15"
       gradientUnits="userSpaceOnUse">
       <stop stop-color="#4f4f4f" stop-opacity="0.76" offset="0"/>
       <stop stop-color="#717171" stop-opacity="0.6" offset="1"/>
    </linearGradient>
    <linearGradient
       id="osx2"
       x1="8"
       y1="1"
       x2="8"
       y2="15"
       gradientUnits="userSpaceOnUse">
      <stop stop-color="#252525" stop-opacity="0.88" offset="0"/>
      <stop stop-color="#505050" stop-opacity="0.68" offset="1"/>
    </linearGradient>
  </defs>
  <path id="send" class="normal" d="m 1.5,1.5 0,3 2,0 0,3 -2,0 0,3 2,0 0,3 -2,0 0,3 3,0 0,-2 3,0 0,2 3,0 0,-2 3,0 0,2 3,0 0,-3 -2,0 0,-3 2,0 0,-3 -2,0 0,-3 2,0 0,-3 -3,0 0,2 -3,0 0,-2 -3,0 0,2 -3,0 0,-2 z m 4,4 7,0 0,7 -7,0 z m 2,2 3,0 0,3 -3,0 z"/>
  <path id="send-flat" class="normal" d="m 2,2 0,3 2,0 0,3 -2,0 0,2 2,0 0,3 -2,0 0,3 3,0 0,-2 3,0 0,2 2,0 0,-2 3,0 0,2 3,0 0,-3 -2,0 0,-3 2,0 0,-2 -2,0 0,-3 2,0 0,-3 -3,0 0,2 L 10,4 10,2 8,2 8,4 5,4 5,2 Z m 4,4 6,0 0,6 -6,0 z m 2,2 2,0 0,2 -2,0 z"/>
  <path id="send-inverted" class="inverted" d="m 1.5,1.5 0,3 1,0 0,3 -1,0 0,3 1,0 0,3 -1,0 0,3 3,0 0,-1 3,0 0,1 3,0 0,-1 3,0 0,1 3,0 0,-3 -1,0 0,-3 1,0 0,-3 -1,0 0,-3 1,0 0,-3 -3,0 0,1 -3,0 0,-1 -3,0 0,1 -3,0 0,-1 z m 4,4 7,0 0,7 -7,0 z m 1,1 5,0 0,5 -5,0 z"/>
  <path id="contacts" class="normal" d="m 2.5,15.5 13,0 c 0,-3.4 -2.2,-3 -5,-3 l 0,-1 C 12.5,10.4 12.7,9.4 13,8 13,7.7 13.5,7.4 13.5,7 13.5,6.6 13.1,6.3 13,6 12.8,5.6 12.9,3.7 12,3 10.4,1.8 7.56,1.8 6,3 5,3.7 5.1,5.6 5,6 4.8,6.3 4.5,6.6 4.5,7 c 0,0.3 0.4,0.6 0.5,1 0.2,1.5 0.5,2.3 2.5,3.5 l 0,1 c -2.5,0 -5,-0.5 -5,3 z"/>
  <path id="contacts-flat" class="normal" d="m 3,15 12,0 c 0,-3 -1.2,-3 -4,-3 l 0,-1 C 13,9.9 12.7,9.4 13,8 13,7.7 13.5,7.4 13.5,7 13.5,6.6 13.1,6.3 13,6 12.8,5.6 12.9,3.7 12,3 10.4,1.8 7.56,1.8 6,3 5,3.7 5.1,5.6 5,6 4.8,6.3 4.5,6.6 4.5,7 4.5,7.3 4.9,7.6 5,8 5.2,9.5 5,9.8 7,11 l 0,1 c -2.5,0 -4,0 -4,3 z"/>
  <path id="contacts-inverted" class="inverted" d="m 2.5,15.5 13,0 c 0,-3.4 -2.2,-3 -5,-3 l 0,-1 C 12.5,10.4 12.7,9.4 13,8 13,7.7 13.5,7.4 13.5,7 13.5,6.6 13.1,6.3 13,6 12.8,5.6 12.9,3.7 12,3 10.4,1.8 7.56,1.8 6,3 5,3.7 5.1,5.6 5,6 4.8,6.3 4.5,6.6 4.5,7 c 0,0.3 0.4,0.6 0.5,1 0.2,1.5 0.5,2.3 2.5,3.5 l 0,1 c -2.5,0 -5,-0.5 -5,3 z"/>
  <path id="spelling" class="normal" d="M 1.5,10.5 3,8.5 6.7,11.7 C 9,7.8 12.6,5.6 16.5,3.5 l 0,1 c -4,3.1 -7,6.7 -9,11.2 z"/>
  <path id="spelling-flat" class="normal" d="m 2,10.5 1.5,-2 3.7,3 C 9.5,7.6 12.1,5.6 16,3.5 l 0,1 c -4,3.1 -8.5,11 -8.5,11 z"/>
  <path id="spelling-inverted" class="inverted" d="M 1.5,10.5 3,7.5 6.7,10.7 C 9,6.8 12.6,4.6 16.5,2.5 l 0,2 c -4,3.1 -7,6.7 -9,11.2 z"/>
  <path id="attach" class="normal" d="m 13.5,2.5 0,10.5 -4,3.5 -4,-3.5 0,-11.5 6,0 0,10 -2,2 -2,-2 0,-8 2,0 0,6.5" style="fill:none"/>
  <path id="attach-flat" class="normal" d="m 13.5,2.5 0,10.5 -4,3.5 -4,-3.5 0,-11.5 6,0 0,10 -2,2 -2,-2 0,-8 2,0 0,6.5" style="fill:none; stroke-opacity:1"/>
  <path id="attach-inverted" class="inverted" d="m 11.5,3 2,0 0,10 L 9,16.5 4.5,13 l 0,-11.5 7,0 z m 0,0.5 0,8.5 -2.5,2 -2.5,-2 0,-8.5 3,0 0,7.5 L 9,11.4 8.5,11 8.5,4"/>
  <path id="security" class="normal" d="m 9,2.5 c -3,0 -5,1 -5.5,5 l 0,1 -1,0 0,7 13,0 0,-7 -1,0 0,-1 c 0,-4 -3,-5 -5,-5 z m 0,2 c 3,0 3.5,1 3.5,4 l -7,0 c 0,-3 1,-4 3.5,-4 z"/>
  <path id="security-flat" class="normal" d="M 9,3 C 6.25,3 4,4 4,7.5 L 4,9 3,9 3,15 15,15 15,9 14,9 14,7.5 C 14,4 11.5,3 9,3 Z m 0,2 c 3,0 3,1 3,4 L 6,9 C 6,6 6,5 9,5 Z"/>
  <path id="security-inverted" class="inverted" d="m 9,2.5 c -2.75,0 -5.5,0.75 -5.5,5 l 0,1 -1,0 0,7 13,0 0,-7 -1,0 0,-1 c 0,-4 -3,-5 -5.5,-5 z m 0,3 c 2.5,0 2.5,1 2.5,3 l -5,0 c 0,-2 0,-3 2.5,-3 z"/>
  <path id="save" class="normal" d="m 9,15 6.5,-6.5 -4,0 0,-5.5 C 11.5,2.75 11.25,2.5 11,2.5 l -4,0 C 6.75,2.5 6.5,2.75 6.5,3 l 0,5.5 -4,0 z"/>
  <path id="save-flat" class="normal" d="M 9,15 15,9 11,9 11,3.5 C 11,3.25 10.75,3 10.5,3 l -3,0 C 7.25,3 7,3.25 7,3.5 L 7,9 3,9 Z"/>
  <path id="save-inverted" class="inverted" d="m 9,15 6.5,-6.5 -4,0 0,-5.5 C 11.5,2.75 11.25,2.5 11,2.5 l -4,0 C 6.75,2.5 6.5,2.75 6.5,3 l 0,5.5 -4,0 z"/>
  <path id="quote" class="normal" d="M 4.5,8 C -7.25,4 16.5,-5 4.5,14.5 Z M 13.5,8 c -11.75,-4 11.5,-13 0,6.5 Z"/>
  <path id="quote-flat" class="normal" d="M 5,9 C -6,5 16,-5 5,15 Z m 8,0 C 2,5 24,-5 13,15 Z"/>
  <path id="quote-inverted" class="inverted" d="M 4.5,8 C -7.25,4 16.5,-5 4.5,14.5 Z M 13.5,8 c -11.75,-4 11.5,-13 0,6.5 Z"/>
  <path id="cut" class="normal" d="M 2.8,2 C 2,2.6 2,3.6 2.8,4.5 L 7.5,10.1 6.7,11 C 6.3,10.6 5.6,10 4.5,10 c -1.5,0 -3,1.3 -3,3 0,1.7 1.6,3 3,3 2,0 3.1,-2.5 4.5,-4 1.5,1.7 2.6,4 4.5,4 1.4,0 3,-1.5 3,-3 0,-1.7 -1.2,-3 -3,-3 -1.2,0 -1.8,0.6 -2.2,1 L 10.5,10.1 15.2,4.5 C 15.8,3.6 15.7,2.6 15,2 L 9,8.5 Z m 10.7,9 c 1.3,0 2,1 2,2 0,1 -1,2 -2,2 -1,0 -2,-1 -2,-2 0,-1 0.7,-2 2,-2 z m -9,0 C 5.6,11 6.5,12 6.5,13 6.5,14 5.6,15 4.5,15 3.4,15 2.5,14 2.5,13 2.5,12 3.4,11 4.5,11 Z"/>
  <path id="cut-flat" class="normal" d="M 3.301,2 C 2.7,2.6 2.5,3.6 3.3,4.5 l 4.5,6.1 -0.3,0.5 C 7,10.6 6.1,10 5,10 c -1.5,0 -3,1.3 -3,3 0,1.7 1.6,3 3,3 2.4,0 2.6,-2 4,-3.5 1.5,1.7 1.7,3.5 4,3.5 1.4,0 3,-1.5 3,-3 0,-1.7 -1,-3 -3,-3 -1,0 -2,0.7 -2.5,1.1 L 10.2,10.6 14.7,4.5 C 15.3,3.6 15.2,2.6 14.6,2 L 9,9 Z M 5,11 c 1,0 2,1 2,2 0,1 -1,2 -2,2 -1,0 -2,-1 -2,-2 0,-1 1,-2 2,-2 z m 8,0 c 1,0 2,1 2,2 0,1 -1,2 -2,2 -1,0 -2,-1 -2,-2 0,-1 0.7,-2 2,-2 z"/>
  <path id="cut-inverted" class="inverted" d="M 1.8,2.5 C 0.5,4 4.8,7.8 6.9,10.1 L 6.3,10.7 C 5.6,10.1 5.4,10 4,10 c -1.8,0 -3,1.2 -3,3 0,1.8 1.3,3 3,3 2,0 3.4,-2 4.9,-3.7 1.4,1.5 3,3.7 5.1,3.7 1.7,0 3,-1.2 3,-3 0,-2.1 -1.4,-3 -3,-3 -1.1,0 -1.8,0.2 -2.2,0.5 L 11.1,9.9
    C 13.8,6.7 17,3.8 15.8,2.5 14.3,1.7 11,5.8 9,8 6.8,5.8 3.1,1.6 1.8,2.5 Z M 4,12.5 c 0.3,0 0.5,0.2 0.5,0.5 0,0.3 -0.2,0.5 -0.5,0.5 -0.3,0 -0.5,-0.2 -0.5,-0.5 0,-0.3 0.2,-0.5 0.5,-0.5 z m 10,0 c 0.3,0 0.5,0.2 0.5,0.5 0,0.3 -0.2,0.5 -0.5,0.5 -0.3,0 -0.5,-0.2 -0.5,-0.5 0,-0.3 0.2,-0.5 0.5,-0.5 z"/>
  <path id="copy" class="normal" d="m 8.5,6.5 0,9 7,0 0,-5 -4,0 0,-4 z m 3.5,0 0.5,0 3,3 0,0.5 m -13,-7.5 0,9 4,0 0,-6 0,-3 z m 4.5,0 0.5,0 3,3 0,0.5"/>
  <path id="copy-flat" class="normal" d="m 8,7 0,9 7,0 0,-6 -3,-3 z m 4,1 2,2 -2,0 z M 3,2 3,11 7,11 7,6 10,6 10,5 7,2 Z m 4,1 L 9,5 7,5 Z"/>
  <path id="copy-inverted" class="inverted" d="m 7.5,6.5 0,9 8,0 0,-5 -4,0 0,-4 z m 4,0 1,0 3,3 0,1 -4,0 z m -9,-4 0,9 5,0 0,-9 z m 5,0 0.5,0 3,3 0,1 -3.5,0 z"/>
  <path id="paste" class="normal" d="m 6.5,2.5 -1,1 0,1 -2,0 0,11 11,0 0,-11 -2,0 0,-1 -1,-1 z M 6,5 l 6,0 0,1.5 -0.5,0 2,3.5 -7,3.5 L 4,9 8.7,6.5 6,6.5 Z m 2.7,1.5 2.7,0 -0.5,-1 z"/>
  <path id="paste-flat" class="normal" d="M 7,3 6,4 6,5 4,5 4,15 14,15 14,5 12,5 12,4 11,3 Z m -1,2 6,0 0,2 -1,0 1.5,3 -6,3 L 4.5,9 8.7,7 6,7 Z M 8.7,7 11,7 10.5,6 Z"/>
  <path id="paste-inverted" class="inverted" d="m 6.5,2.5 -1,1 0,1 -2,0 0,11 11,0 0,-11 -2,0 0,-1 -1,-1 z M 6,5 12,5 12,6.5 10.5,6.5 12.6,10 7.5,13.2 5,9 9.1,6.5 6,6.5 Z m 3.1,1.5 1.4,0 -0.4,-0.7 z"/>
  <path id="print" class="normal" d="m 4.5,2.5 0,4 -1.5,0 c -0.8,0 -1.5,1.1 -1.5,2 l 0,3 c 0,1 1.4,2 2.5,2 l 1.5,0 0,-1 7,0 0,1 1.5,0 c 1,0 2.5,-1 2.5,-2 l 0,-3 c 0,-0.8 -0.6,-2 -1.5,-2 l -1.5,0 0,-4 z m 0,0 9,0 0,6 -9,0 z m 0,6 2,0 0,2 -2,0 z m 0,5.4 0,1.6 m -2.5,0 14,0 m -2.5,0 0,-1.6"/>
  <path id="print-flat" class="normal" d="M 5,3 5,7 4,7 C 3.2,7 2,7.6 2,8.5 l 0,3 c 0,1 0.9,1.5 2,1.5 l 1,0 0,1 -1,0 0,1 10,0 0,-1 -1,0 0,-1 1,0 c 1,0 2,-0.5 2,-1.5 l 0,-3 C 16,7.7 14.8,7 14,7 l -1,0 0,-4 z m 1,1 6,0 0,4 -6,0 z m -1,5 1,0 0,1 -1,0 z m 1,3 6,0 0,2 -6,0 z"/>
  <path id="print-inverted" class="inverted" d="m 3.5,2.5 0,5 -0.5,0 c -0.8,0 -1.5,1.1 -1.5,2 l 0,2 c 0,0.8 0.4,2 2.5,2 l -1.5,0 0,2 13,0 0,-2 -1.5,0 c 2,0 2.5,-1.1 2.5,-2 l 0,-2 c 0,-0.8 -0.6,-2 -1.5,-2 l -0.5,0 0,-5 z m 2,2 7,0 0,3 -7,0 z m -1,5 2,0 0,1 -2,0 z m 1,3 7,0 0,1 -7,0 z"/>
</svg>
