<!-- This Source Code Form is subject to the terms of the Mozilla Public
   - License, v. 2.0. If a copy of the MPL was not distributed with this
   - file, You can obtain one at http://mozilla.org/MPL/2.0/. -->
<svg xmlns="http://www.w3.org/2000/svg" xmlns:xlink="http://www.w3.org/1999/xlink" width="150" height="150" viewBox="0 0 150 150">
  <defs>
    <linearGradient gradientUnits="userSpaceOnUse" y2="33" x2="1" y1="53" x1="62" id="lg1" xlink:href="#lg2"/>
    <linearGradient id="lg2">
      <stop offset="0" stop-color="#a7a7a7" stop-opacity="1"/>
      <stop offset="1" stop-color="#a7a7a7" stop-opacity="0.15"/>
    </linearGradient>
  </defs>
    <rect fill="#ffffff" y="0" x="0" height="150" width="150"/>
    <rect fill="url(#lg1)" y="8" x="8" height="134" width="134"/>
    <path fill="#000000" d="M8 142v-11L53 111.8c1.7-4.8 2.2-9.7-.4-16.3C49 92.1 47.3 86 46.3 80a40.3 40.3 0 01-6.9-22.5c.2-1.9 3.1-3.3 4.6 0-1-8.5-.6-17 1.2-25.2l2.7 2.3 13.9-17.7-.6 6.6 17.3-4.3L95 23.9l-2.5 2.8 17.8 6.4-8.5 2.6 6.7 9.7-5 .3c1 4.2.8 8 .3 12 1.3-1.3 3.7-2.3 3.9 1.2-.1 8-2.8 20.1-6 20.3a25 25 0 01-7.2 16.2 40.5 40.5 0 00-.5 16.8l48 20v10z"/>
</svg>
