<!-- This Source Code Form is subject to the terms of the Mozilla Public
   - License, v. 2.0. If a copy of the MPL was not distributed with this
   - file, You can obtain one at http://mozilla.org/MPL/2.0/. -->
<svg xmlns="http://www.w3.org/2000/svg" width="12" height="12" viewBox="0 0 12 12" fill="context-fill" fill-opacity="context-fill-opacity">
  <path d="M6.5 2.01c-.67 0-1.34.31-1.5.99H3C1.67 3 1.67 5 3 5v5c0 1 1 2 2 2h3c1 0 2-1 2-2V5c1.33 0 1.33-2 0-2H8c-.16-.64-.83-.98-1.5-.99zM5.5 5c.25 0 .5.17.5.5v4a.5.5 0 01-1 0v-4c0-.33.25-.5.5-.5zm1.98 0c.25 0 .5.17.5.5v4a.5.5 0 01-1 0v-4c0-.33.25-.5.5-.5z"/>
</svg>