<!-- This Source Code Form is subject to the terms of the Mozilla Public
   - License, v. 2.0. If a copy of the MPL was not distributed with this
   - file, You can obtain one at http://mozilla.org/MPL/2.0/. -->
<svg xmlns="http://www.w3.org/2000/svg" width="16" height="16" fill="context-fill" fill-opacity="context-fill-opacity" viewBox="0 0 16 16">
  <path d="M10.35 9.017c-1.263.006-2.315.004-3.156-.003-1.092-.01-1.922.314-2.657.905a6.041 6.041 0 0 0-.45.404c-.09.088-.362.367-.38.384a1 1 0 1 1-1.414-1.414c.004-.004.286-.292.393-.397.199-.196.39-.368.598-.535 1.076-.866 2.344-1.362 3.929-1.347.839.008 1.894.009 3.166.003L9.232 5.64a1 1 0 1 1 1.536-1.28L13.802 8l-3.034 3.64a1 1 0 0 1-1.536-1.28l1.119-1.343z"/>
</svg>
