<!-- This Source Code Form is subject to the terms of the Mozilla Public
   - License, v. 2.0. If a copy of the MPL was not distributed with this
   - file, You can obtain one at http://mozilla.org/MPL/2.0/. -->
<svg xmlns="http://www.w3.org/2000/svg" width="16" height="16" fill="context-fill" fill-opacity="context-fill-opacity" viewBox="0 0 16 16">
  <path d="M10.3 11.3L9 12.58V8a1 1 0 00-2 0v4.59l-1.3-1.3a1 1 0 00-1.4 1.42l3 3a1 1 0 001.4 0l3-3a1 1 0 00-1.4-1.42zM2.5 10H5c1.33 0 1.33-2 0-2H2.5a.5.5 0 01-.5-.5v-5c0-.28.23-.5.5-.5h11c.28 0 .5.22.5.5v5a.5.5 0 01-.5.5H11c-1.33 0-1.33 2 0 2h2.5A2.5 2.5 0 0016 7.5v-5A2.5 2.5 0 0013.5 0h-11A2.5 2.5 0 000 2.5v5A2.5 2.5 0 002.5 10z"/>
</svg>
