<!-- This Source Code Form is subject to the terms of the Mozilla Public
   - License, v. 2.0. If a copy of the MPL was not distributed with this
   - file, You can obtain one at http://mozilla.org/MPL/2.0/. -->

<svg xmlns="http://www.w3.org/2000/svg" width="16" height="16" fill="context-fill"  fill-opacity="context-fill-opacity">
  <path d="M8 0A8 8 0 00-.03 8.86a8.06 8.06 0 008.96 7.11A5.1 5.1 0 017.68 14c-1.48-.75-1.88-1.81-2.24-2.96h2.41c.07-.37.18-.74.32-1.08H5.17c-.23-1.3-.23-2.62 0-3.92h5.65c.1.49.14.88.16 1.37.32-.12.65-.2.98-.22 0-.42-.1-.74-.12-1.15h1.82c.19.55.29.9.32 1.49.77.4 1.42 1.3 1.84 2.15A8 8 0 008 0zm0 2c1.07 0 2.04 1.2 2.57 2.96H5.43C5.96 3.2 6.93 2 8 2zm-2.56.58a7.7 7.7 0 00-1.05 2.38H2.84a6.03 6.03 0 012.6-2.38zm5.12 0a6.05 6.05 0 012.6 2.38h-1.55a7.7 7.7 0 00-1.05-2.38zM2.34 6.04h1.82c-.2 1.3-.2 2.62 0 3.92H2.34a5.98 5.98 0 010-3.92zm.5 5h1.55c.21.85.57 1.65 1.05 2.38a6.08 6.08 0 01-2.6-2.38z"/>
  <path d="M14 11h.56c.24 0 .44.2.44.44v3.12c0 .24-.2.44-.44.44H9.44a.44.44 0 01-.44-.44v-3.12c0-.24.2-.44.44-.44H10v-.84c0-2.6 4-2.63 4 0zm-1 0v-.84c0-1.17-2-1.17-2 0V11z"/>
</svg>
