<!-- This Source Code Form is subject to the terms of the Mozilla Public
   - License, v. 2.0. If a copy of the MPL was not distributed with this
   - file, You can obtain one at http://mozilla.org/MPL/2.0/. -->
<svg width="16px" height="12px" viewBox="0 0 16 12" xmlns="http://www.w3.org/2000/svg" fill="context-fill" fill-opacity="context-fill-opacity">
  <path d="M 4.9553418,9.3482143 5.6517704,8.0892857 C 4.6160561,7.3392856 3.9999846,6.1339284 3.9999846,4.8571427 c 0,-0.7053572 0.1875,-1.4017858 0.5446429,-2.0089286 -1.3928571,0.7142857 -2.5535715,1.8392858 -3.4017858,3.1517858 0.9285714,1.4375 2.2410714,2.6428572 3.8125001,3.3482144 z m 3.4732143,-6.776786 c 0,-0.2321428 -0.1964286,-0.4285714 -0.4285714,-0.4285714 -1.4910714,0 -2.7142857,1.2232143 -2.7142857,2.7142858 0,0.2321429 0.1964285,0.4285715 0.4285714,0.4285715 0.2321429,0 0.4285715,-0.1964286 0.4285715,-0.4285715 0,-1.0267857 0.8392856,-1.8571429 1.8571428,-1.8571429 0.2321428,0 0.4285714,-0.1964286 0.4285714,-0.4285715 z M 11.669628,0.8660711 c 0,0.017857 0,0.0625 -0.0089,0.080357 C 9.7767705,4.3124998 7.910699,7.6964285 6.0267704,11.0625 l -0.4375,0.794643 C 5.5356984,11.946429 5.4374846,12 5.3392704,12 5.1785561,12 4.3303418,11.482143 4.1428417,11.375 4.053556,11.321429 3.9999846,11.232143 3.9999846,11.125 c 0,-0.142857 0.3035715,-0.625 0.3928572,-0.776786 C 2.6606988,9.5625 1.2053417,8.2232143 0.17855593,6.6160713 0.0624845,6.4374999 -1.5497209e-5,6.2232141 -1.5497209e-5,5.9999999 -1.5497209e-5,5.7857142 0.0624845,5.5624998 0.17855593,5.3839285 1.9464131,2.6696426 4.7053417,0.8571426 7.9999847,0.8571426 c 0.5357143,0 1.0803572,0.053571 1.607143,0.1517857 L 10.08927,0.1428569 C 10.14284,0.0535709 10.232128,-3e-7 10.339271,-3e-7 c 0.160714,0 1,0.5178572 1.1875,0.625 0.08929,0.053571 0.142857,0.1428572 0.142857,0.2410714 z m 0.330357,3.9910716 c 0,1.6607143 -1.026786,3.1428572 -2.5714288,3.732143 l 2.4999998,-4.482143 c 0.04464,0.25 0.07143,0.5 0.07143,0.75 z m 4,1.1428572 c 0,0.2321428 -0.0625,0.4196428 -0.178571,0.6160714 -0.276786,0.4553572 -0.625001,0.8928571 -0.973215,1.2946429 -1.75,2.0089286 -4.160714,3.2321428 -6.8482143,3.2321428 L 8.6606991,9.9642857 C 11.258913,9.7410715 13.464271,8.1607143 14.857128,5.9999999 14.196413,4.9732141 13.3482,4.0714284 12.33927,3.3749998 l 0.562501,-1 c 1.107143,0.7410715 2.223214,1.8571429 2.919643,3.0089287 0.116071,0.1964285 0.178571,0.3839285 0.178571,0.6160714 z"/>
</svg>
