<!-- This Source Code Form is subject to the terms of the Mozilla Public
   - License, v. 2.0. If a copy of the MPL was not distributed with this
   - file, You can obtain one at http://mozilla.org/MPL/2.0/. -->
<svg xmlns="http://www.w3.org/2000/svg" width="16" height="16" viewBox="0 0 16 16" fill="context-fill">
  <path d="M13 1a1 1 0 010 2h-.01l.01.5c0 1.75-2.01 2.51-2.01 4.5 0 2 2.01 2.75 2.01 4.5l-.01.5H13a1 1 0 010 2H3a1 1 0 010-2h.01a8.56 8.56 0 01-.01-.5C3 10.75 4.99 10 5 8c.01-1.99-2-2.75-2-4.5l.01-.5H3a1 1 0 110-2h10zm-2.01 2H5v.25L5 3.5C5 5.36 7 6.02 7 8c0 1.99-2 2.64-2 4.5v.25l.01.25h.6l.43-.7C7.02 10.77 7.68 10 8 10c.37 0 1.17 1 2.4 3h.59l.01-.5c0-1.86-2.01-2.49-2.01-4.5S11 5.36 11 3.5v-.25L10.99 3z"/>
  <path d="M6 4h4C8.95 6 8.28 7 8 7s-.95-1-2-3z"/>
</svg>
