<!-- This Source Code Form is subject to the terms of the Mozilla Public
   - License, v. 2.0. If a copy of the MPL was not distributed with this
   - file, You can obtain one at http://mozilla.org/MPL/2.0/. -->
<svg width="16" height="16" xmlns="http://www.w3.org/2000/svg" fill="context-fill" fill-opacity="context-fill-opacity">
  <path d="M2 1C.667 1 .667 3 2 3h12c1.33 0 1.33-2 0-2H2zm2.045 2.965c-.763-.032-1.487.905-.813 1.676L4.35 7H2C.759 7 .742 9 2 9h2.35l-1.118 1.36c-.809 1.02.679 2.26 1.538 1.28L7.801 8 4.77 4.359c-.213-.267-.471-.384-.725-.394zM10 5c-1.333 0-1.333 2 0 2h4c1.33 0 1.33-2 0-2h-4zm0 4c-1.333 0-1.333 2 0 2h4c1.33 0 1.33-2 0-2h-4zm-8 4c-1.333 0-1.333 2 0 2h12c1.33 0 1.33-2 0-2H2z"/>
</svg>
