<!-- This Source Code Form is subject to the terms of the Mozilla Public
   - License, v. 2.0. If a copy of the MPL was not distributed with this
   - file, You can obtain one at http://mozilla.org/MPL/2.0/. -->
<svg xmlns="http://www.w3.org/2000/svg" width="16" height="16">
  <path fill="context-fill" fill-opacity="context-fill-opacity" d="m 7,6 h 7 c 0.5,0 1,0.5 1,1 v 4.1 c 0,0.5 -0.5,1 -1,1 H 10 L 8,15 V 12.1 H 7 c -0.5,0 -1,-0.5 -1,-1 V 7 C 6,6.5 6.5,6 7,6 Z M 2,2 h 8 c 0.5,0 1,0.5 1,1 V 5 H 7 C 6,5 5,6 5,7 V 8 L 3,11 V 8 H 2 C 1.5,8 1,7.5 1,7 V 3 C 1,2.5 1.5,2 2,2 Z"/>
</svg>
