<!-- This Source Code Form is subject to the terms of the Mozilla Public
   - License, v. 2.0. If a copy of the MPL was not distributed with this
   - file, You can obtain one at http://mozilla.org/MPL/2.0/. -->
<svg xmlns="http://www.w3.org/2000/svg" width="16" height="16" viewBox="0 0 16 16">
  <path fill="context-stroke" fill-opacity="context-stroke-opacity" d="M8.25 3.84c2.48 1.42 4.64 6.11 3.7 8.05-1.16 2.02-2.75 2.44-5.07 1.92-1.76-1.1-2.3-3.48-1.87-5.54.73.3 1.47.88 1.97 1.56 1.9-1.53 1.76-4.01 1.27-6z"/>
  <path fill="context-fill" fill-opacity="context-fill-opacity" d="M13.94 11.73C13.45 14.32 11.12 16 8.38 16a4.9 4.9 0 01-4.93-3.5c-.62-1.8-.46-4.35-.2-5.54.6-1.72 2.38-.7 3.21 0 .34-1.25.1-2.84-.71-3.92C4.96 2 6.03.6 7.23 1.09c4.39 1.73 7.46 6.7 6.71 10.64zM7 10S6 8.55 5.07 8.4c0 0-.33 2.2.3 3.6s1.5 2 3.01 2c1.83 0 3.3-1.06 3.6-2.64.45-2.4-1.11-5.52-3.6-7.35C8.86 5.8 8.76 8.34 7 10z"/>
</svg>
