<!-- This Source Code Form is subject to the terms of the Mozilla Public
   - License, v. 2.0. If a copy of the MPL was not distributed with this
   - file, You can obtain one at http://mozilla.org/MPL/2.0/. -->
<svg width="16" height="16" xmlns="http://www.w3.org/2000/svg" fill="context-fill" fill-opacity="context-fill-opacity" viewBox="0 0 16 16">
  <path d="M13.943 11.73c-.49 2.59-2.828 4.27-5.56 4.27-2.375 0-4.396-1.47-5.121-3.726-.307-.953-.348-2.278-.212-3.788.05-.546.073-1.104.2-1.524.16-.535.785-.95 1.135-.95s1.366.337 2.076.955c.342-1.256.102-2.85-.715-3.928a1.27 1.27 0 0 1 1.48-1.95c4.393 1.728 7.464 6.705 6.717 10.641zM7.566 9.222l-.817 1.098-.798-1.112c-.045-.063-.411-.4-.883-.803-.01.086-.018.174-.026.261-.114 1.262-.08 2.364.124 2.996C5.624 13.09 6.876 14 8.383 14c1.823 0 3.296-1.058 3.595-2.642.454-2.39-1.108-5.514-3.598-7.353.479 1.81.219 3.829-.814 5.217z"/>
  <path d="M8.36 12.87c.61 0 1.105-.493 1.124-1.131.007-.231-.035-.737-.101-1.224-.242.458-.536.786-.93.948l-.242.097c-.016.007-.842.333-1.022.409l-.04.017c.243.46.79.884 1.21.884zm-2.312-1.028c-.046-.264.055-.4.216-.524.048-.036.1-.068.165-.102.091-.048.212-.102.375-.17.19-.08 1.027-.41 1.035-.414l.234-.095c.17-.07.359-.316.53-.708.084-.192.146-.368.239-.66.052-.163.063-.197.085-.255a.939.939 0 0 1 .06-.135c.095-.169.2-.279.46-.279.751 0 1.074 2.002 1.037 3.268-.035 1.174-.968 2.102-2.125 2.102-1.02 0-2.127-1.004-2.31-2.028z"/>
</svg>
