<!-- This Source Code Form is subject to the terms of the Mozilla Public
   - License, v. 2.0. If a copy of the MPL was not distributed with this
   - file, You can obtain one at http://mozilla.org/MPL/2.0/. -->
<svg width="16" height="16" xmlns="http://www.w3.org/2000/svg" fill="context-fill" fill-opacity="context-fill-opacity">
  <path d="M2 1c-1.333 0-1.333 2 0 2h12c1.33 0 1.33-2 0-2zm0 4c-1.333 0-1.333 2 0 2h12c1.33 0 1.33-2 0-2zm0 4C.667 9 .667 11 2 11h12c1.33 0 1.33-2 0-2zM2 13c-1.333 0-1.333 2 0 2h12c1.33 0 1.33-2 0-2z"/>
</svg>
