<svg xmlns="http://www.w3.org/2000/svg"
     xmlns:xlink="http://www.w3.org/1999/xlink"
     viewBox="0 0 18 18">
  <style>
    path {
      display: none;
    }
    path:target {
      display: block;
      stroke-width: 1;
    }
    .normal {
      fill: #505050;
      fill-opacity: 0.8;
      stroke: #404040;
    }
    @media (-moz-windows-default-theme) and (-moz-os-version: windows-win8) {
      .normal {
        fill: #797c80;
        fill-opacity: 1;
        stroke: none;
      }
    }
    @media (-moz-windows-default-theme) and (-moz-os-version: windows-win10) {
      .normal {
        fill: #4c4c4c;
        fill-opacity: 1;
        stroke: none;
      }
    }
    @media (-moz-windows-default-theme) and (-moz-os-version: windows-vista),
       (-moz-windows-default-theme) and (-moz-os-version: windows-win7) {
      .normal {
        fill: url(#win1);
        fill-opacity: 1;
        stroke: url(#win2);
      }
    }
    @media (-moz-mac-lion-theme) {
      .normal {
        fill: url(#osx1);
        fill-opacity: 1;
        stroke: url(#osx2);
      }
    }
    @media (-moz-mac-yosemite-theme) {
      .normal {
        fill: #4d4d4d;
        fill-opacity: 1;
        stroke: none;
      }
    }
    .inverted {
      fill: #fff;
      fill-opacity: 1;
      stroke: #111922;
    }
    .unread {
      fill: #3971c3;
      fill-opacity: 1;
      stroke: #115174;
    }
  </style>
  <defs>
    <linearGradient
       id="win1"
       x1="8"
       y1="1"
       x2="8"
       y2="15"
       gradientUnits="userSpaceOnUse">
       <stop stop-color="#3f4f5a" offset="0"/>
       <stop stop-color="#7e8c97" offset="1"/>
    </linearGradient>
    <linearGradient
       id="win2"
       x1="8"
       y1="1"
       x2="8"
       y2="15"
       gradientUnits="userSpaceOnUse">
      <stop stop-color="#0c1b25" offset="0"/>
      <stop stop-color="#4f585f" stop-opacity="0.9" offset="1"/>
    </linearGradient>
    <linearGradient
       id="osx1"
       x1="8"
       y1="1"
       x2="8"
       y2="15"
       gradientUnits="userSpaceOnUse">
       <stop stop-color="#4f4f4f" stop-opacity="0.76" offset="0"/>
       <stop stop-color="#717171" stop-opacity="0.6" offset="1"/>
    </linearGradient>
    <linearGradient
       id="osx2"
       x1="8"
       y1="1"
       x2="8"
       y2="15"
       gradientUnits="userSpaceOnUse">
      <stop stop-color="#252525" stop-opacity="0.88" offset="0"/>
      <stop stop-color="#505050" stop-opacity="0.68" offset="1"/>
    </linearGradient>
  </defs>
  <path id="getmsg" class="normal" d="m 1.5,10.5 2,0 0,3 11,0 0,-3 2,0 0,5 -15,0 z m 6,-8 3,0 0,4 3,0 -4.5,4 -4.5,-4 3,0 z"/>
  <path id="getmsg-flat" class="normal" d="m 2,10 2,0 0,3 10,0 0,-3 2,0 0,5 -14,0 z M 7,2 11,2 11,6 13.5,6 9,10.5 4.5,6 7,6 Z"/>
  <path id="getmsg-inverted" class="inverted" d="m 1.5,10.5 3,0 0,2 9,0 0,-2 3,0 0,5 -15,0 z m 5,-8 5,0 0,4 3.5,0 -6,5.5 -6,-5.5 3.5,0 z"/>
  <path id="newmsg" class="normal" d="m 1.5,2.5 10,0 0,0.5 -7,6.5 0,5 5,0 2,-2 0,3 -10,0 z m 5,10 2,0 8,-7.5 -2,-2 -8,7.5 z"/>
  <path id="newmsg-flat" class="normal" d="m 2,3 9,0 0,1.5 -5,5 0,3.5 3.5,0 1.5,-1.5 0,3.5 -9,0 z m 5,9 2,0 7,-7 -2,-2 -7,7 z"/>
  <path id="newmsg-inverted" class="inverted" d="m 1.5,2.5 10,0 0,4.3 -5,4.7 0,2 2,0 3,-2.8 0,4.8 -10,0 z m 5,11 2,0 8,-7.5 -2,-2 -8,7.5 z"/>
  <path id="address" class="normal" d="m 2.5,15.5 13,0 c 0,-3.4 -2.2,-3 -5,-3 l 0,-1 C 12.5,10.4 12.7,9.4 13,8 13,7.7 13.5,7.4 13.5,7 13.5,6.6 13.1,6.3 13,6 12.8,5.6 12.9,3.7 12,3 10.4,1.8 7.56,1.8 6,3 5,3.7 5.1,5.6 5,6 4.8,6.3 4.5,6.6 4.5,7 c 0,0.3 0.4,0.6 0.5,1 0.2,1.5 0.5,2.3 2.5,3.5 l 0,1 c -2.5,0 -5,-0.5 -5,3 z"/>
  <path id="address-flat" class="normal" d="m 3,15 12,0 c 0,-3 -1.2,-3 -4,-3 l 0,-1 C 13,9.9 12.7,9.4 13,8 13,7.7 13.5,7.4 13.5,7 13.5,6.6 13.1,6.3 13,6 12.8,5.6 12.9,3.7 12,3 10.4,1.8 7.56,1.8 6,3 5,3.7 5.1,5.6 5,6 4.8,6.3 4.5,6.6 4.5,7 4.5,7.3 4.9,7.6 5,8 5.2,9.5 5,9.8 7,11 l 0,1 c -2.5,0 -4,0 -4,3 z"/>
  <path id="address-inverted" class="inverted" d="m 2.5,15.5 13,0 c 0,-3.4 -2.2,-3 -5,-3 l 0,-1 C 12.5,10.4 12.7,9.4 13,8 13,7.7 13.5,7.4 13.5,7 13.5,6.6 13.1,6.3 13,6 12.8,5.6 12.9,3.7 12,3 10.4,1.8 7.56,1.8 6,3 5,3.7 5.1,5.6 5,6 4.8,6.3 4.5,6.6 4.5,7 c 0,0.3 0.4,0.6 0.5,1 0.2,1.5 0.5,2.3 2.5,3.5 l 0,1 c -2.5,0 -5,-0.5 -5,3 z"/>
  <path id="reply" class="normal" d="m 11,16.5 c 0,0 5.4,-2 5.5,-6 0,-2.4 -2,-4 -5.5,-4 L 7.5,6.5 7.5,3 2,8.5 7.5,14 l 0,-3.5 3.5,0 c 2.8,0 0.9,4.2 0,6 z"/>
  <path id="reply-flat" class="normal" d="m 10,16 c 0,0 4.9,-2.2 5,-6 0,-1.7 -1.5,-3 -5,-3 l -2,0 0,-3.5 -5.5,5 5.5,5 0,-3.5 2,0 c 3.7,0 0.9,4.2 0,6 z"/>
  <path id="reply-inverted" class="inverted" d="m 11,16.5 c 0,0 5.4,-2 5.5,-6 0,-2.4 -2,-4 -5.5,-4 L 7.5,6.5 7.5,3 2,8.5 7.5,14 l 0,-3.5 3.5,0 c 2.8,0 0.9,4.2 0,6 z"/>
  <path id="replyall" class="normal" d="m 12,16.5 c 0,0 5.4,-2 5.5,-6 0,-2.4 -2,-4 -5.5,-4 l -1.5,0 0,-3.5 -5.5,5.5 5.5,5.5 0,-3.5 1.5,0 c 2.8,0 0.9,4.2 0,6 z M 6,5 6,3 0.5,8.5 6,14 6,12 2.5,8.5 Z"/>
  <path id="replyall-flat" class="normal" d="m 11.5,16 c 0,0 4.9,-1.5 5,-5.5 C 16.5,8.4 15,7 11.5,7 l -1.5,0 0,-3.5 -5,5 5,5 0,-3.5 1.5,0 c 4.1,0 0.9,4.2 0,6 z m -5,-10.5 0,-2 -5,5 5,5 0,-2 -3,-3 z"/>
  <path id="replyall-inverted" class="inverted" d="m 12,16.5 c 0,0 5.4,-2 5.5,-6 0,-2.4 -2,-4 -5.5,-4 l -1.5,0 0,-3.5 -5.5,5.5 5.5,5.5 0,-3.5 1.5,0 c 2.8,0 0.9,4.2 0,6 z M 6,7 6,3 0.5,8.5 6,14 6,10 4.5,8.5 Z"/>
  <path id="replylist" class="normal" d="m 1.5,2.5 0,11 5.7,0 -0.6,-2 -0.1,-1 -3,0 0,-2 3.4,0 C 8.1,6.6 11.5,5 13.5,6 l 0,-3.5 z m 2,2 8,0 0,0.8 -3.2,1.2 -4.8,0 z m 8,1 c -2.7,0 -5,2.2 -5,5 0,2.7 2.2,5 5,5 2.7,0 5,-2.2 5,-5 0,-2.7 -2.2,-5 -5,-5 z m 0,1 0,3 3,0 0,2 -3,0 0,3 -4,-4 z"/>
  <path id="replylist-flat" class="normal" d="M 2,3 2,13 7.4,13 6.6,11 4,11 4,9 6.9,9 11,6 13,6 13,3 Z M 4,5 11,5 11,6 8.3,7 4,7 Z m 7.5,0.5 c -2.7,0 -5,1.8 -5,4.6 0,2.7 2.2,5.4 5,5.4 2.7,0 5,-2.2 5,-5 0,-2.7 -2.2,-5 -5,-5 z M 11,7 l 0,2 1.5,0 c 0.9,0 2.1,0.6 2.3,1.5 0.3,1.3 -0.3,2.6 -2.3,3.5 1.1,-1.5 0.6,-2 0,-2 l -1.5,0 0,2 -3.5,-3.5 z"/>
  <path id="replylist-inverted" class="inverted" d="m 1.5,2.5 0,11 5.7,0 -0.6,-2 -0.1,-2 -3.5,0 3.5,0 C 7.4,5.8 11.5,5 13.5,6 l 0,-3.5 z m 6.8,4 -5.3,0 z m 3.2,-1 c -2.7,0 -5,2.2 -5,5 0,2.7 2.2,5 5,5 2.7,0 5,-2.2 5,-5 0,-2.7 -2.2,-5 -5,-5 z m 0,2 0,2 3,0 0,2 -3,0 0,2 -3.5,-3 z"/>
  <path id="forward" class="normal" d="m 2.5,6.5 7,0 0,-3.5 5.5,5.5 -5.5,5.5 0,-3.5 -7,0 z"/>
  <path id="forward-flat" class="normal" d="M 3,7 9,7 9,3.5 14.5,8.5 9,13.5 9,10 3,10 Z"/>
  <path id="forward-inverted" class="inverted" d="m 2.5,5.5 7,0 0,-3.5 6.5,6.5 -6.5,6.5 0,-3.5 -7,0 z"/>
  <path id="delete" class="normal" d="m 9,1.5 c 4.2,0 7.5,3.3 7.5,7.5 0,4.1 -3.3,7.5 -7.5,7.5 C 4.9,16.5 1.5,13.2 1.5,9 1.5,4.8 4.9,1.5 9,1.5 Z m -3,3 7.5,7.5 C 16.3,7.1 11,1.7 6,4.5 Z M 4.5,6 c -3.1,5.4 2.9,10 7.5,7.5 z"/>
  <path id="delete-inverted" class="inverted" d="m 9,1.5 c 4.2,0 7.5,3.3 7.5,7.5 0,4.1 -3.3,7.5 -7.5,7.5 C 4.9,16.5 1.5,13.2 1.5,9 1.5,4.8 4.9,1.5 9,1.5 Z M 7,5 13,11 C 14.5,6.6 11.2,3.6 7,5 Z M 5,7 c -1.6,4.3 1.5,7.7 6,6 z"/>
  <path id="junk" class="normal" d="M 9,2.5 C 5,6.6 1.8,8.8 4.4,13.3 c 2.5,4.5 8.3,2.7 9.5,0.3 1.1,-2.4 0.5,-3.8 -1.5,-7.6 -1.2,-1.6 1.8,2.7 -0.7,4.3 -1.5,1 -3,0.8 -4,-0.2 C 5.3,7.5 9.4,2 9,2.5 Z"/>
  <path id="junk-flat" class="normal" d="M 9,2.5 C 5,5 2.4,8.6 4.4,13.3 c 2.5,4.5 8.3,2.7 9.5,0.3 0.9,-2.4 0.9,-3 -0.8,-7 -1.2,-1.6 0.1,2.4 -1.3,3.6 -1.5,1 -3,0.8 -4,-0.2 C 5.3,7.5 11,2.4 9,2.5 Z"/>
  <path id="junk-inverted" class="inverted" d="M 9,2.5 C 4.5,5.7 1.8,8.8 4.4,13.3 c 2.5,4.5 8.4,2.5 9.5,0.3 C 15,11.3 15,9.1 12.4,6 11.2,4.4 13,9 10.8,10.3 9.7,11.1 8.7,11.1 7.7,10.1 5.3,7.5 10.2,3.1 9,2.5 Z"/>
  <path id="print" class="normal" d="m 4.5,2.5 0,4 -1.5,0 c -0.8,0 -1.5,1.1 -1.5,2 l 0,3 c 0,1 1.4,2 2.5,2 l 1.5,0 0,-1 7,0 0,1 1.5,0 c 1,0 2.5,-1 2.5,-2 l 0,-3 c 0,-0.8 -0.6,-2 -1.5,-2 l -1.5,0 0,-4 z m 0,0 9,0 0,6 -9,0 z m 0,6 2,0 0,2 -2,0 z m 0,5.4 0,1.6 m -2.5,0 14,0 m -2.5,0 0,-1.6"/>
  <path id="print-flat" class="normal" d="M 5,3 5,7 4,7 C 3.2,7 2,7.6 2,8.5 l 0,3 c 0,1 0.9,1.5 2,1.5 l 1,0 0,1 -1,0 0,1 10,0 0,-1 -1,0 0,-1 1,0 c 1,0 2,-0.5 2,-1.5 l 0,-3 C 16,7.7 14.8,7 14,7 l -1,0 0,-4 z m 1,1 6,0 0,4 -6,0 z m -1,5 1,0 0,1 -1,0 z m 1,3 6,0 0,2 -6,0 z"/>
  <path id="print-inverted" class="inverted" d="m 3.5,2.5 0,5 -0.5,0 c -0.8,0 -1.5,1.1 -1.5,2 l 0,2 c 0,0.8 0.4,2 2.5,2 l -1.5,0 0,2 13,0 0,-2 -1.5,0 c 2,0 2.5,-1.1 2.5,-2 l 0,-2 c 0,-0.8 -0.6,-2 -1.5,-2 l -0.5,0 0,-5 z m 2,2 7,0 0,3 -7,0 z m -1,5 2,0 0,1 -2,0 z m 1,3 7,0 0,1 -7,0 z"/>
  <path id="stop" class="normal" d="m 5.5,1.5 -4,4 0,7 4,4 7,0 4,-4 0,-7 -4,-4 z M 6.5,4 9,6.5 11.5,4 14,6.5 11.5,9 14,11.5 11.5,14 9,11.5 6.5,14 4,11.5 6.5,9 4,6.5 Z"/>
  <path id="stop-flat" class="normal" d="m 6,2 -4,4 0,6 4,4 6,0 4,-4 0,-6 -4,-4 z M 6.5,4.5 9,7 l 2.5,-2.5 2,2 -2.5,2.5 2.5,2.5 -2,2 L 9,11 6.5,13.5 4.5,11.5 7,9 4.5,6.5 Z"/>
  <path id="stop-inverted" class="inverted" d="m 5.5,1.5 -4,4 0,7 4,4 7,0 4,-4 0,-7 -4,-4 z m 1.5,4 2,2 2,-2 1.5,1.5 -2,2 2,2 -1.5,1.5 -2,-2 -2,2 -1.5,-1.5 2,-2 -2,-2 z"/>
  <path id="file" class="normal" d="m 9,15 6.5,-6.5 -4,0 0,-5.5 C 11.5,2.75 11.25,2.5 11,2.5 l -4,0 C 6.75,2.5 6.5,2.75 6.5,3 l 0,5.5 -4,0 z"/>
  <path id="file-flat" class="normal" d="M 9,15 15,9 11,9 11,3.5 C 11,3.25 10.75,3 10.5,3 l -3,0 C 7.25,3 7,3.25 7,3.5 L 7,9 3,9 Z"/>
  <path id="file-inverted" class="inverted" d="m 9,15 6.5,-6.5 -4,0 0,-5.5 C 11.5,2.75 11.25,2.5 11,2.5 l -4,0 C 6.75,2.5 6.5,2.75 6.5,3 l 0,5.5 -4,0 z"/>
  <path id="nextUnread" class="normal" d="m 3.5,2.5 11,0 L 9,9 Z m 5.5,13 5.5,-6 -11,0 z"/>
  <path id="nextUnread-flat" class="normal" d="M 3.5,3 14.5,3 9,8 Z M 9,14 14.5,9 3.5,9 Z"/>
  <path id="nextUnread-inverted" class="inverted" d="m 3.5,2.5 11,0 L 9,9 Z m 5.5,13 5.5,-6 -11,0 z"/>
  <path id="previousUnread" class="normal" d="m 3.5,15.5 11,0 L 9,9 Z m 0,-7 11,0 -5.5,-6 z"/>
  <path id="previousUnread-flat" class="normal" d="m 3.5,14 11,0 L 9,9 Z M 9,3 14.5,8 3.5,8 Z"/>
  <path id="previousUnread-inverted" class="inverted" d="m 3.5,15.5 11,0 L 9,9 Z m 0,-7 11,0 -5.5,-6 z"/>
  <path id="mark" class="normal" d="M 8,9 C 8,10.9 6.4,12.5 4.5,12.5 2.5,12.5 1,10.9 1,9 1,7 2.5,5.5 4.5,5.5 6.4,5.5 8,7 8,9 Z m 9,0 c 0,1.9 -1.5,3.5 -3.5,3.5 C 11.5,12.5 10,10.9 10,9 10,7 11.5,5.5 13.5,5.5 15.4,5.5 17,7 17,9 Z m -9,0 2,0"/>
  <path id="mark-flat" class="normal" d="M 8,9 C 8,10.9 6.4,12.5 4.5,12.5 2.5,12.5 1,10.9 1,9 1,7 2.5,5.5 4.5,5.5 6.4,5.5 8,7 8,9 Z m 9,0 c 0,1.9 -1.5,3.5 -3.5,3.5 C 11.5,12.5 10,10.9 10,9 10,7 11.5,5.5 13.5,5.5 15.4,5.5 17,7 17,9 Z M 7,8 l 4,0 0,2 -4,0 z"/>
  <path id="mark-inverted" class="inverted" d="M 8,9 C 8,10.9 6.4,12.5 4.5,12.5 2.5,12.5 1,10.9 1,9 1,7 2.5,5.5 4.5,5.5 6.4,5.5 8,7 8,9 Z m 9,0 c 0,1.9 -1.5,3.5 -3.5,3.5 C 11.5,12.5 10,10.9 10,9 10,7 11.5,5.5 13.5,5.5 15.4,5.5 17,7 17,9 Z m -9,0 2,0"/>
  <path id="tag" class="normal" d="M 4 2.5 C 3.3 2.5 2.5 3.3 2.5 4 L 2.5 8 L 10 15.5 L 15.5 10 L 8 2.5 L 4 2.5 z M 6 4 A 2 2 0 0 1 8 6 A 2 2 0 0 1 6 8 A 2 2 0 0 1 4 6 A 2 2 0 0 1 6 4 z"/>
  <path id="tag-flat" class="normal" d="M 4.5,3 C 3.8,3 3,3.8 3,4.5 L 3,8 10,15.5 15.5,10 8,3 Z m 2,1.5 c 1.1,0 2,0.9 2,2 0,1.1 -0.9,2 -2,2 -1.1,0 -2,-0.9 -2,-2 0,-1.1 0.9,-2 2,-2 z"/>
  <path id="tag-inverted" class="inverted" d="M 4 2.5 C 3.3 2.5 2.5 3.3 2.5 4 L 2.5 8 L 10 15.5 L 15.5 10 L 8 2.5 L 4 2.5 z M 6 4 A 2 2 0 0 1 8 6 A 2 2 0 0 1 6 8 A 2 2 0 0 1 4 6 A 2 2 0 0 1 6 4 z"/>
  <path id="goback" class="normal" d="m 3.5,9 10,-6.5 0,13 z"/>
  <path id="goback-flat" class="normal" d="m 4,9 9,-6.5 0,13 z"/>
  <path id="goback-inverted" class="inverted" d="m 3.5,9 10,-6.5 0,13 z"/>
  <path id="goforward" class="normal" d="m 13.5,9 -10,-6.5 0,13 z"/>
  <path id="goforward-flat" class="normal" d="M 14,9 5,2.5 5,15.5 Z"/>
  <path id="goforward-inverted" class="inverted" d="m 13.5,9 -10,-6.5 0,13 z"/>
  <path id="compact" class="normal" d="m 4.5,2.5 c 1.2,0.5 2.1,1.8 2.7,3 l 2.2,0 -4.7,4.3 0,-2 C 3.6,6.8 2.8,5.8 2.5,4.5 2.4,2.6 2.7,2.3 4.5,2.5 Z M 6,11 l 4.5,-4 1,0.6 4.2,2.2 -1,2.5 -3.2,-2 -0.7,0.8 L 13,14.2 l -1.6,1 -2.2,-3 -0.5,0.3 L 9.3,15.5 l -2.8,0 0,-3.4 z"/>
  <path id="compact-flat" class="normal" d="m 5,3 c 1.2,0.5 2.1,1.8 2.7,3 l 2.2,0 -4.7,4.3 0,-2 C 4.1,7.3 3.3,6.3 3,5 2.9,3.1 3.2,2.8 5,3 Z m 1,8 4.5,-4 1,0.6 3.7,2.2 -1,2.5 -2.7,-2 -0.7,0.8 2.2,2.6 -1.6,1 -2.2,-2.5 -0.5,0.3 0.6,2.5 -2.8,0 0,-2.9 z"/>
  <path id="compact-inverted" class="inverted" d="m 4.5,2.5 c 1.2,0.5 2.35,1.8 3,3 L 10.1,6 5.2,10.4 4.7,7.8 C 3.5,6.8 2.8,5.8 2.5,4.5 2.4,2.6 2.7,2.3 4.5,2.5 Z m 1,7.5 4,-3.4 6.2,3.2 -1.4,2.9 -3,-2.2 -0.2,0.2 2.3,3 -2,1.6 -2.2,-2.9 -0.2,0.1 0.5,3 -3,0 0,-3.4 z"/>
  <path id="archive" class="normal" d="m 1.5,6.5 0,9 15,0 0,-9 z m 4,1 3.5,3.5 3.5,-3.5 2,2 -5.5,5 -5.5,-5 z m -2.5,-3 12,0 m -10,-2 8,0"/>
  <path id="archive-flat" class="normal" d="m 2,6 0,9 14,0 0,-9 z M 5.5,7 9,10.5 12.5,7 14.5,9 9,14 3.5,9 Z M 3,4 15,4 15,5 3,5 Z M 4,2 14,2 14,3 4,3 Z"/>
  <path id="archive-inverted" class="inverted" d="m 1.5,6.5 0,9 15,0 0,-9 z M 5.5,9 9,12.5 12.5,9 13,9.5 l -4,4 -4,-4 z m -3,-4.5 13,0 0,2 -13,0 z m 2,-2 9,0 0,2 -9,0 z"/>
  <path id="chat" class="normal" d="M 16.5,5 C 16.5,3.8 15.2,2.5 14,2.5 L 4,2.5 C 2.8,2.5 1.5,3.8 1.5,5 l 0,5 c 0,1.2 1.3,2.5 2.5,2.5 l 1.5,0 0,3 3.5,-3 5,0 c 1.2,0 2.5,-1.3 2.5,-2.5 z"/>
  <path id="chat-flat" class="normal" d="M 16,5 C 16,3.8 15.2,3 14,3 L 4,3 C 2.8,3 2,3.8 2,5 l 0,5 c 0,1.2 0.8,2.1 2,2.1 l 2,0 0,3.9 3.5,-3.9 4.5,0 c 1.2,0 2,-0.9 2,-2.1 z"/>
  <path id="chat-inverted" class="inverted" d="M 16.5,5 C 16.5,3.8 15.2,2.5 14,2.5 L 4,2.5 C 2.8,2.5 1.5,3.8 1.5,5 l 0,5 c 0,1.2 1.3,2.5 2.5,2.5 l 1.5,0 0,3 3.5,-3 5,0 c 1.2,0 2.5,-1.3 2.5,-2.5 z"/>
  <path id="chat-unread" class="unread" d="M 16.5,5 C 16.5,3.8 15.2,2.5 14,2.5 L 4,2.5 C 2.8,2.5 1.5,3.8 1.5,5 l 0,5 c 0,1.2 1.3,2.5 2.5,2.5 l 1.5,0 0,3 3.5,-3 5,0 c 1.2,0 2.5,-1.3 2.5,-2.5 z"/>
  <path id="filter" class="normal" d="m 2.5,3.5 13,0 -5,5.5 0,5.5 -3,0 0,-5.5 z"/>
  <path id="filter-flat" class="normal" d="m 2.5,4 13,0 -4.5,5 0,5 -4,0 0,-5 z"/>
  <path id="filter-inverted" class="inverted" d="m 2.5,3.5 13,0 -5,5.5 0,5.5 -3,0 0,-5.5 z"/>
  <path id="nextMsg" class="normal" d="m 2.5,3.5 13,0 -6.5,11 z"/>
  <path id="nextMsg-flat" class="normal" d="M 2.5,4 15.5,4 9,14 Z"/>
  <path id="nextMsg-inverted" class="inverted" d="m 2.5,3.5 13,0 -6.5,11 z"/>
  <path id="previousMsg" class="normal" d="m 2.5,14.5 13,0 L 9,3.5 Z"/>
  <path id="previousMsg-flat" class="normal" d="m 2.5,14 13,0 L 9,4 Z"/>
  <path id="previousMsg-inverted" class="inverted" d="m 2.5,14.5 13,0 L 9,3.5 Z"/>
  <path id="appButton" class="normal" d="m 2.625,2.5 c -1.5,0 -1.5,2 0,2 l 12.75,0 c 1.5,0 1.5,-2 0,-2 z m 0,5 c -1.5,0 -1.5,2 0,2 l 12.75,0 c 1.5,0 1.5,-2 0,-2 z m 0,5 c -1.5,0 -1.5,2 0,2 l 12.75,0 c 1.5,0 1.5,-2 0,-2 z"/>
  <path id="appButton-flat" class="normal" d="m 2.5,2 c -2,0 -2,3 0,3 l 13,0 c 2,0 2,-3 0,-3 z m 0,5 c -2,0 -2,3 0,3 l 13,0 c 2,0 2,-3 0,-3 z m 0,5 c -2,0 -2,3 0,3 l 13,0 c 2,0 2,-3 0,-3 z"/>
  <path id="appButton-inverted" class="inverted" d="M 3,2.5 c -2,0 -2,3 0,3 l 12,0 c 2,0 2,-3 0,-3 Z M 3,7.5 c -2,0 -2,3 0,3 L 15,10.5 c 2,0 2,-3 0,-3 Z M 3,12.5 c -2,0 -2,3 0,3 l 12,0 c 2,0 2,-3 0,-3 Z"/>
</svg>
