<!-- This Source Code Form is subject to the terms of the Mozilla Public
   - License, v. 2.0. If a copy of the MPL was not distributed with this
   - file, You can obtain one at http://mozilla.org/MPL/2.0/. -->
<svg xmlns="http://www.w3.org/2000/svg" width="16" height="16" viewBox="0 0 16 16">
  <path fill="context-fill" d="M7.86 0c-.4 0-1.23 1.06-1.62 1.19-.38.12-1.7-.2-2.03.03-.32.24-.35 1.55-.58 1.88-.23.32-1.5.8-1.62 1.17-.12.38.67 1.46.68 1.85 0 .39-.73 1.5-.6 1.86.14.37 1.44.8 1.68 1.11.25.31.34 1.62.67 1.84.25.17 1.05 0 1.6-.06a5.5 5.5 0 01.72-2.15A3 3 0 015 6a3 3 0 012.95-3A3 3 0 018 3a3 3 0 013 3 3 3 0 010 .02 5.5 5.5 0 01.5-.02 5.5 5.5 0 011.98.37c-.1-.2-.17-.37-.17-.49 0-.39.73-1.5.6-1.86-.14-.37-1.44-.8-1.68-1.11-.25-.31-.34-1.62-.67-1.84-.33-.23-1.64.16-2.03.05C9.13 1 8.27-.01 7.86 0zM2.79 10.22L.53 14l2.23.13L4 16l2.09-3.52a5.5 5.5 0 01-.06-.44c-.43-.05-1.6.4-1.96.22-.35-.2-.6-1.5-.88-1.8a1.46 1.46 0 00-.4-.24z"/>
  <circle fill="#fff" r="3.5" cy="11.5" cx="11.5"/>
  <path fill="#0a84ff" d="M11.5 16c-6 0-6-9 0-9s6 9 0 9zm.52-2.25c0-.69-1.04-.69-1.04 0s1.04.69 1.04 0zm-1.2-3.38c0-.33.29-.67.68-.67s.68.34.68.68a.8.8 0 01-.18.43c-.08.1-.17.2-.26.27l-.12.1-.33.37a1.46 1.46 0 00-.24.85c0 .6.9.6.9 0 0-.2.05-.3.09-.34a.69.69 0 01.09-.11l.06-.06.08-.08.04-.03c.14-.12.27-.27.4-.41.17-.23.37-.57.37-1a1.58 1.57 0 00-3.16 0c0 .6.9.6.9 0z"/>
</svg>
