<!-- This Source Code Form is subject to the terms of the Mozilla Public
   - License, v. 2.0. If a copy of the MPL was not distributed with this
   - file, You can obtain one at http://mozilla.org/MPL/2.0/. -->
<svg xmlns="http://www.w3.org/2000/svg" width="16" height="16" viewBox="0 0 16 16">
 <path fill="context-fill" d="M7.86 0c-.4 0-1.23 1.06-1.62 1.19-.38.12-1.7-.2-2.03.03-.32.24-.35 1.55-.58 1.88-.23.32-1.5.8-1.62 1.17-.12.38.67 1.46.68 1.85 0 .39-.73 1.5-.6 1.86.14.37 1.44.8 1.68 1.11.25.31.34 1.62.67 1.84.12.09.4.08.7.05a1.83 1.83 0 012.97-.62l.97.96 4.59-6.55.1-.11c.1-.26.18-.5.13-.64-.13-.37-1.43-.8-1.67-1.11-.25-.31-.34-1.62-.67-1.84-.33-.23-1.64.16-2.03.05C9.14 1 8.27-.01 7.86 0zm.09 3A3 3 0 018 3a3 3 0 013 3 3 3 0 01-3 3 3 3 0 01-3-3 3 3 0 012.95-3zM2.78 10.22L.54 14l2.23.13L4 16l1.7-2.86-.18-.18v-.01c-.21-.22-.36-.48-.44-.76-.41.09-.82.17-1 .07-.36-.2-.6-1.51-.9-1.8a1.47 1.47 0 00-.4-.24zM13.78 11l-2.54 3.64L12 16l1.23-1.87 2.23-.13-1.68-3z"/>
 <path fill="#12bc00" d="M9.33 15a.83.83 0 01-.6-.25l-2.5-2.5a.83.83 0 011.18-1.18l1.8 1.8 5.28-7.52a.83.83 0 011.36.96l-5.84 8.33a.83.83 0 01-.68.36z"/>
</svg>
