<!-- This Source Code Form is subject to the terms of the Mozilla Public
   - License, v. 2.0. If a copy of the MPL was not distributed with this
   - file, You can obtain one at http://mozilla.org/MPL/2.0/. -->
<svg xmlns="http://www.w3.org/2000/svg" width="16" height="16" viewBox="0 0 16 16" fill="context-fill">
  <path d="M7.86 0c-.4 0-1.23 1.06-1.62 1.19-.38.12-1.7-.2-2.03.03-.32.24-.35 1.55-.58 1.88-.23.32-1.5.8-1.62 1.17-.12.38.67 1.46.68 1.85 0 .39-.73 1.5-.6 1.86.14.37 1.44.8 1.68 1.11.25.31.34 1.62.67 1.84.33.23 1.64-.16 2.03-.05.39.12 1.26 1.13 1.67 1.12.4 0 1.23-1.06 1.62-1.19.38-.12 1.7.2 2.03-.03.32-.24.35-1.55.58-1.88.23-.32 1.5-.8 1.62-1.17.11-.38-.67-1.46-.68-1.85 0-.39.73-1.5.6-1.86-.14-.37-1.44-.8-1.68-1.11-.25-.31-.34-1.62-.67-1.84-.33-.23-1.64.16-2.03.05C9.14 1 8.27-.01 7.86 0zm.09 3A3 3 0 018 3a3 3 0 013 3 3 3 0 01-3 3 3 3 0 01-3-3 3 3 0 012.95-3zM6.29 12.15c-.08-.04-.17-.1-.22-.11-.4-.08-1.64.41-2 .22-.35-.2-.6-1.51-.88-1.8a1.46 1.46 0 00-.4-.24L.53 14l2.23.13L4 16zM13.27 10.1c-.07.04-.16.08-.2.13-.27.3-.46 1.62-.8 1.83s-1.62-.23-2.01-.13c-.1.03-.25.12-.41.23L12 16l1.23-1.87 2.23-.13z"/>
</svg>
