<!-- This Source Code Form is subject to the terms of the Mozilla Public
   - License, v. 2.0. If a copy of the MPL was not distributed with this
   - file, You can obtain one at http://mozilla.org/MPL/2.0/. -->
<svg xmlns="http://www.w3.org/2000/svg" width="16" height="16" viewBox="0 0 16 16">
  <path fill="context-fill" d="M6.29 12.15c-.08-.04-.17-.1-.22-.11-.4-.08-1.64.41-2 .22-.35-.2-.6-1.51-.88-1.8a1.46 1.46 0 00-.4-.24L.53 14l2.23.13L4 16zM7.86 0c-.4 0-1.23 1.06-1.62 1.19-.38.12-1.7-.2-2.03.03-.32.24-.35 1.55-.58 1.88-.23.32-1.5.8-1.62 1.17-.12.38.67 1.46.68 1.85 0 .39-.73 1.5-.6 1.86.14.37 1.44.8 1.68 1.11.25.31.34 1.62.67 1.84.33.23 1.64-.16 2.03-.05.14.05.36.22.59.41.1-.82.4-1.61.88-2.3A3 3 0 015 6a3 3 0 012.95-3A3 3 0 018 3a3 3 0 013 3 3 3 0 01-.22 1.12 5.9 5.9 0 013.15.22c-.17-.48-.61-1.16-.62-1.46 0-.39.73-1.5.6-1.86-.14-.37-1.44-.8-1.68-1.11-.25-.31-.34-1.62-.67-1.84-.33-.23-1.64.16-2.03.05C9.14 1 8.27-.01 7.86 0z"/>
  <path fill="#0a84ff" d="M12 16c-5.33 0-5.33-8 0-8s5.33 8 0 8zm.46-2c0-.61-.92-.61-.92 0s.92.61.92 0zm-1.06-3c0-.3.25-.6.6-.6s.6.3.6.6c0 .12-.06.25-.16.39-.07.09-.15.17-.23.24l-.1.09-.3.32a1.3 1.3 0 00-.21.76c0 .53.8.53.8 0 0-.17.04-.26.08-.3a.61.61 0 01.08-.1l.05-.05.07-.07.04-.03c.12-.11.24-.24.35-.37.16-.2.33-.5.33-.88a1.4 1.4 0 00-2.8 0c0 .53.8.53.8 0z"/>
</svg>
