<!-- This Source Code Form is subject to the terms of the Mozilla Public
   - License, v. 2.0. If a copy of the MPL was not distributed with this
   - file, You can obtain one at http://mozilla.org/MPL/2.0/. -->
<svg xmlns="http://www.w3.org/2000/svg" width="16" height="16" viewBox="0 0 16 16">
  <path fill="context-fill" d="M7.86 0c-.4 0-1.23 1.06-1.62 1.19-.38.12-1.7-.2-2.03.03-.32.24-.35 1.55-.58 1.88-.23.32-1.5.8-1.62 1.17-.12.38.67 1.46.68 1.85 0 .39-.73 1.5-.6 1.86.14.37 1.44.8 1.68 1.11.25.31.34 1.62.67 1.84.33.23 1.64-.16 2.03-.05.21.07.57.39.91.67l1.33-2.64A3 3 0 018 9a3 3 0 01-3-3 3 3 0 012.95-3A3 3 0 018 3a3 3 0 013 2.83 1.9 1.9 0 012.2 1.04L13.76 8c.11-.09.2-.18.23-.26.12-.38-.67-1.46-.68-1.85 0-.39.73-1.5.6-1.86-.14-.37-1.44-.8-1.68-1.11-.25-.31-.34-1.62-.67-1.84-.33-.23-1.64.16-2.03.05C9.14 1 8.27-.01 7.86 0zM6.29 12.15c-.08-.04-.17-.1-.22-.11-.4-.08-1.64.41-2 .22-.35-.2-.6-1.51-.88-1.8a1.46 1.46 0 00-.4-.24L.53 14l2.23.13L4 16z"/>
  <path fill="#f00" d="M15.82 14.13l-3.2-6.41a1.28 1.28 0 00-2.3 0l-3.18 6.4A1.3 1.3 0 008.29 16h6.38a1.3 1.3 0 001.15-1.87z"/>
  <path fill="#690000" opacity=".35" d="M11.48 8a.27.27 0 01.25.16l3.2 6.41a.3.3 0 01-.02.3.28.28 0 01-.24.13H8.29a.28.28 0 01-.24-.14.29.29 0 01-.02-.29l3.2-6.4a.27.27 0 01.25-.17m0-1a1.27 1.27 0 00-1.15.72l-3.2 6.4A1.3 1.3 0 008.3 16h6.38a1.3 1.3 0 001.15-1.87l-3.2-6.41A1.27 1.27 0 0011.49 7z"/>
  <path fill="#fff" d="M11.5 12a.5.5 0 00.5-.5v-2a.5.5 0 00-1 0v2a.5.5 0 00.5.5zm0 .8a.7.7 0 10.7.7.7.7 0 00-.7-.7z"/>
</svg>
