<!-- This Source Code Form is subject to the terms of the Mozilla Public
   - License, v. 2.0. If a copy of the MPL was not distributed with this
   - file, You can obtain one at http://mozilla.org/MPL/2.0/. -->
<svg xmlns="http://www.w3.org/2000/svg" width="16" height="16" viewBox="0 0 16 16">
  <path fill="context-fill" fill-opacity="context-fill-opacity" d="M2 4h4c1.3-.04 1.3-1.96 0-2H2C.7 2.04.7 3.96 2 4zm4 3H2C.67 7 .67 9 2 9h4c1.33 0 1.33-2 0-2zm0 5H2c-1.33 0-1.33 2 0 2h4c1.33 0 1.33-2 0-2zM10 6h4c1.3-.04 1.3-1.96 0-2h-4c-1.3.04-1.3 1.96 0 2zm4 1h-4c-1.34 0-1.34 2 0 2h4c1.33 0 1.33-2 0-2zm0 3h-4c-1.33 0-1.33 2 0 2h4c1.33 0 1.33-2 0-2z"/>
</svg>
