<!-- This Source Code Form is subject to the terms of the Mozilla Public
   - License, v. 2.0. If a copy of the MPL was not distributed with this
   - file, You can obtain one at http://mozilla.org/MPL/2.0/. -->
<svg width="16" height="16" xmlns="http://www.w3.org/2000/svg" fill="context-fill" fill-opacity="context-fill-opacity" viewBox="0 0 16 16">
  <path d="M4.5 0a.5.5 0 00-.5.5v3a.5.5 0 001 0v-3a.5.5 0 00-.5-.5zm7 0a.5.5 0 00-.5.5v3a.5.5 0 001 0v-3a.5.5 0 00-.5-.5zM6 2v2h4V2H6zm-3 .17A3 3 0 001 5v7a3 3 0 003 3h4.76a4.5 4.5 0 01-.72-2H4a1 1 0 01-1-1V6h10v2.03a4.5 4.5 0 012 .73V5a3 3 0 00-2-2.83V5H3V2.17zM4 7v2h2V7H4zm3 0v2h2V7H7zm3 0v1.76a4.5 4.5 0 012-.72V7h-2zm2.5 2a3.5 3.5 0 000 7 3.5 3.5 0 000-7zM4 10v2h2v-2H4zm3 0v2h1.04a4.5 4.5 0 01.72-2H7zm5.5 0a.5.5 0 01.5.5V12h1.5a.5.5 0 010 1H13v1.5a.5.5 0 01-1 0V13h-1.5a.5.5 0 010-1H12v-1.5a.5.5 0 01.5-.5z"/>
</svg>
