<!-- This Source Code Form is subject to the terms of the Mozilla Public
   - License, v. 2.0. If a copy of the MPL was not distributed with this
   - file, You can obtain one at http://mozilla.org/MPL/2.0/. -->
<svg xmlns="http://www.w3.org/2000/svg" width="16" height="16" fill="context-fill" fill-opacity="context-fill-opacity"><path d="M3 16h10a3 3 0 003-3V3a3 3 0 00-3-3H7a3 3 0 00-3 3v10c0 1.08-1.03 1-1.03 1M3 16s3 0 3-3V3a1 1 0 011-1h6a1 1 0 011 1v10a1 1 0 01-1 1H3"/><path d="M11.75 4.88h-3.5c-.55 0-.55-1 0-1h3.5c.54 0 .54 1 0 1zm0 2h-3.5c-.55 0-.55-1 0-1h3.5c.54 0 .54 1 0 1zm0 2h-3.5c-.55 0-.55-1 0-1h3.5c.54 0 .54 1 0 1zm-2.02 2H8.24c-.55 0-.55-1 0-1h1.48c.54 0 .54 1 0 1zM5 4H3a3 3 0 00-3 3v6a3 3 0 003 3h2m0-2H3a1 1 0 01-1-1V7a1 1 0 011-1h2"/></svg>
