<!-- This Source Code Form is subject to the terms of the Mozilla Public
   - License, v. 2.0. If a copy of the MPL was not distributed with this
   - file, You can obtain one at http://mozilla.org/MPL/2.0/. -->
<svg width="16" height="16" xmlns="http://www.w3.org/2000/svg" fill="context-fill" fill-opacity="context-fill-opacity">
  <path d="M7 5h7c1.33 0 1.33-2 0-2H7C5.67 3 5.67 5 7 5zm7 6H7c-1.33 0-1.33 2 0 2h7c1.33 0 1.33-2 0-2zM2.25 6.37V2.8c-.38.28-.75.6-1.2.75C.72 3.66.4 3.3.51 3c.08-.23.35-.3.55-.4.54-.24 1-.63 1.33-1.13.12-.2.3-.42.56-.33.3.07.38.4.36.67v4.49c0 .27-.1.62-.41.68-.27.07-.58-.1-.63-.38a.96.96 0 0 1-.03-.24zm-.4 7.61h2.14c.27 0 .56.21.52.51-.01.27-.29.44-.54.41H1.05c-.33 0-.63-.33-.54-.66.08-.32.27-.6.52-.82.5-.49 1-.99 1.57-1.4.4-.32.78-.78.74-1.32-.04-.45-.48-.8-.92-.77-.4.01-.76.28-.86.67-.11.24-.19.58-.49.63-.3.08-.6-.2-.55-.5.02-.67.5-1.26 1.13-1.46a2.77 2.77 0 0 1 1.7 0 1.6 1.6 0 0 1 1.04 1.77c-.07.47-.35.87-.68 1.2-.55.52-1.2.94-1.7 1.51-.06.1-.11.15-.17.23z"/>
</svg>
