<!-- This Source Code Form is subject to the terms of the Mozilla Public
   - License, v. 2.0. If a copy of the MPL was not distributed with this
   - file, You can obtain one at http://mozilla.org/MPL/2.0/. -->
<svg xmlns="http://www.w3.org/2000/svg" fill="context-fill" fill-opacity="context-fill-opacity" width="16" height="16"><path d="M13.5 1H11c-1.33 0-1.33 2 0 2h2.5c.28 0 .5.23.5.5v9.12a.5.5 0 01-.5.5h-11a.5.5 0 01-.5-.5V3.5c0-.27.22-.5.5-.5H5c1.33 0 1.33-2 0-2H2.5A2.5 2.5 0 000 3.5v9.12a2.5 2.5 0 002.5 2.5h11a2.5 2.5 0 002.5-2.5V3.5A2.5 2.5 0 0013.5 1z"/><path d="M14.67 9.01L10.98 9c-.13 1.89-1.04 3-2.48 3h-1c-1.44 0-2.35-1.11-2.48-3l-3.64-.01v-.96L5.5 8c.27 0 .5.22.5.5 0 .75.14 2.5 1.5 2.5h1C9.85 11 10 9.25 10 8.5c0-.28.22-.5.5-.5l4.17.01"/><path d="M12.02 5.74a.97.97 0 00-.4-.72L8 2 4.38 5.02c-.98.85.25 2.33 1.27 1.53L7 5.43v2.64c0 1.25 2 1.23 2 0V5.43l1.35 1.12c.77.67 1.7-.05 1.67-.81z"/></svg>
