<!-- This Source Code Form is subject to the terms of the Mozilla Public
   - License, v. 2.0. If a copy of the MPL was not distributed with this
   - file, You can obtain one at http://mozilla.org/MPL/2.0/. -->
<svg xmlns="http://www.w3.org/2000/svg" width="16" height="16" viewBox="0 0 16 16" fill="context-fill" fill-opacity="context-fill-opacity">
  <path d="M8 .98l-4.47.77C2.64 1.91 2 2.68 2 3.57c0 1.03 0 2.87.08 3.71.04 1.9.67 3.75 1.8 5.29a6.31 6.31 0 004 2.44H8l.09-.02a6.2 6.2 0 004.01-2.42 8.99 8.99 0 001.8-5.29c.1-.84.1-2.68.1-3.7 0-.9-.64-1.67-1.53-1.83zm0 2.04l4 .68c0 1.62.05 2.76 0 3.3a7.6 7.6 0 01-1.49 4.38A4.2 4.2 0 018 12.99c-1-.21-1.9-.79-2.51-1.61A7.56 7.56 0 014 7c-.05-.54 0-1.68 0-3.3zM8 4a1 1 0 00-1 1v3c0 1.33 2 1.33 2 0V5a1 1 0 00-1-1zm1 7a1 1 0 01-1 1 1 1 0 01-1-1 1 1 0 011-1 1 1 0 011 1z"/>
</svg>
