<!-- This Source Code Form is subject to the terms of the Mozilla Public
   - License, v. 2.0. If a copy of the MPL was not distributed with this
   - file, You can obtain one at http://mozilla.org/MPL/2.0/. -->
<svg xmlns="http://www.w3.org/2000/svg" width="16" height="16" viewBox="0 0 16 16" fill="context-fill">
  <path d="M13 5c0 1.33 2 1.33 2 0V4c-.15-1.65-1.34-3-3-3H3C1.34 1 0 2.34 0 4v8c0 1.66 1.34 3 3 3h2c1.28 0 1.3-2 0-2H3c-.55 0-1.47-.73-1-1l3.5-2c.97-.4.36-1.14 0-1L2 11V8.5L5 6l2 1.6 2-2.1 1.6.5V5L9 4.5 7 6.6 5 5 2 7.5V4c0-.55.45-1 1-1h9c.55 0 1 .45 1 1z"/>
  <path d="M11.5 7a4.5 4.5 0 0 1 4.5 4.5 4.5 4.5 0 0 1-4.5 4.5A4.5 4.5 0 0 1 7 11.5 4.5 4.5 0 0 1 11.5 7zm0 1.28a3.22 3.22 0 0 0-1.74.53l4.4 4.5a3.22 3.22 0 0 0 .57-1.8 3.22 3.22 0 0 0-3.23-3.2zM8.83 9.7a3.22 3.22 0 0 0-.56 1.8 3.22 3.22 0 0 0 3.23 3.23 3.22 3.22 0 0 0 1.74-.53z"/>
</svg>
