<!-- This Source Code Form is subject to the terms of the Mozilla Public
   - License, v. 2.0. If a copy of the MPL was not distributed with this
   - file, You can obtain one at http://mozilla.org/MPL/2.0/. -->
<svg width="16" height="16" fill="context-fill" fill-opacity="context-fill-opacity" version="1.1" viewBox="0 0 16 16" xmlns="http://www.w3.org/2000/svg">
  <path d="M6.04 1a.8.8 0 00-.55.22c-.1.08-.17.2-.22.33l-.06.13L1.07 12c-.42.87 1.12 1.62 1.55.63l1.3-3h1.81L7.36 7.9H4.58l1.46-3.4 1.45 3.24 1.31-1.4-1.94-4.66-.05-.13a.86.86 0 00-.32-.41.8.8 0 00-.1-.06l-.12-.05a.78.78 0 00-.11-.02L6.04 1zM6.4 10.86a1.5 1.5 0 00.07 2.12l2.2 2.04c.6.57 1.55.53 2.11-.06l4.1-4.39c.56-.6.53-1.56-.07-2.12L12.6 6.4a1.5 1.5 0 00-2.11.07l-3.08 3.3zm.73.68l1.03-1.1 2.92 2.73-1.03 1.1c-.2.2-.5.22-.7.02l-2.2-2.04a.49.49 0 01-.02-.71zm1.7-1.83l2.4-2.55c.2-.21.5-.22.7-.03l2.2 2.05c.2.2.21.5.02.7l-2.4 2.56z"/>
</svg>
