<!-- This Source Code Form is subject to the terms of the Mozilla Public
   - License, v. 2.0. If a copy of the MPL was not distributed with this
   - file, You can obtain one at http://mozilla.org/MPL/2.0/. -->
<svg xmlns="http://www.w3.org/2000/svg" width="16" height="16">
  <path fill="context-fill" fill-opacity="context-fill-opacity" d="M 1,2 V 12 H 6.4 L 5.6,10 H 3 V 8 H 5.9 L 10,5 h 2 V 2 Z m 2,2 h 7 V 5 L 7.3,6 H 3 Z m 7.5,0.5 c -2.7,0 -5,1.8 -5,4.6 0,2.7 2.2,5.4 5,5.4 2.7,0 5,-2.2 5,-5 0,-2.7 -2.2,-5 -5,-5 z M 10,6 v 2 h 1.5 c 0.9,0 2.1,0.6 2.3,1.5 0.3,1.3 -0.3,2.6 -2.3,3.5 1.1,-1.5 0.6,-2 0,-2 H 10 v 2 L 6.5,9.5 Z"/>
</svg>
