<!-- This Source Code Form is subject to the terms of the Mozilla Public
   - License, v. 2.0. If a copy of the MPL was not distributed with this
   - file, You can obtain one at http://mozilla.org/MPL/2.0/. -->
<svg width="16" height="16" xmlns="http://www.w3.org/2000/svg" viewBox="0 0 16 16">
  <path fill="context-fill" fill-opacity="context-fill-opacity" d="M12.44.16c-.76-.03-1.48.91-.81 1.68L13.36 4l-1.73 2.16c-.8 1.02.68 2.26 1.53 1.28L16 4 13.16.56a.97.97 0 00-.72-.4zM8.25.2c-.74-.01-1.42.88-.82 1.64L8.35 3H6.19c-.96.03-1.9-.3-2.65-.92-.32-.25-.54-.5-.83-.8-.95-.96-2.4.48-1.42 1.43.3.33.7.66 1 .93 1.1.9 2.49 1.4 3.91 1.36h2.17l-.95 1.16c-.9 1.03.69 2.35 1.54 1.28L11.8 4 8.97.56A.97.97 0 008.25.2z"/>
  <path fill="context-stroke" fill-opacity="context-fill-opacity" d="M3.66 11.03l.9 1.13c.9 1.03-.68 2.35-1.53 1.28L.2 10l2.83-3.44c.86-.98 2.35.26 1.54 1.28L3.6 9.03c4.07 0 5.8.05 6.6 1.67.67 1.73.3 2.61-2.03 4.18-1.11.85-2.28-.68-1.3-1.56.95-.74 1.78-1.16 1.55-1.73-.3-.56-1.54-.56-4.77-.56z"/>
</svg>
