<!-- This Source Code Form is subject to the terms of the Mozilla Public
   - License, v. 2.0. If a copy of the MPL was not distributed with this
   - file, You can obtain one at http://mozilla.org/MPL/2.0/. -->
<svg width="16" height="16" xmlns="http://www.w3.org/2000/svg" viewBox="0 0 16 16">
  <path fill="context-fill" fill-opacity="context-fill-opacity" d="M12.21 6.02h-1.15c-1.1 0-1.92-.13-2.66.46-.32.25-.34.24-.63.53-.95.96-2.38-.48-1.41-1.42.3-.33.49-.4.79-.67 1.07-.86 2.34-.92 3.93-.9h1.16l-.94-1.18c-1-1.03.69-2.44 1.53-1.28L15.66 5l-2.83 3.44c-.86.9-2.26-.27-1.53-1.28z"/>
  <path fill="context-stroke" fill-opacity="context-fill-opacity" d="M3.66 11.03l.9 1.13c.9 1.03-.68 2.35-1.53 1.28L.2 10l2.83-3.44c.86-.98 2.35.26 1.54 1.28L3.6 9.03c4.07 0 5.8.05 6.6 1.67.67 1.73.3 2.61-2.03 4.18-1.11.85-2.28-.68-1.3-1.56.95-.74 1.78-1.16 1.55-1.73-.3-.56-1.54-.56-4.77-.56z"/>
</svg>
