<!-- This Source Code Form is subject to the terms of the Mozilla Public
   - License, v. 2.0. If a copy of the MPL was not distributed with this
   - file, You can obtain one at http://mozilla.org/MPL/2.0/. -->
<svg width="16" height="16" xmlns="http://www.w3.org/2000/svg" fill="context-fill" fill-opacity="context-fill-opacity" viewBox="0 0 16 16">
  <path d="M15 8.758a4.474 4.474 0 0 0-2-.73V3a1 1 0 0 0-1-1H4a1 1 0 0 0-1 1v10a1 1 0 0 0 1 1h4.256a4.51 4.51 0 0 0 1.415 2H4a3 3 0 0 1-3-3V3a3 3 0 0 1 3-3h8a3 3 0 0 1 3 3v5.758zM9.671 9H5.5a.5.5 0 0 1 0-1h5a.5.5 0 0 1 .447.275A4.494 4.494 0 0 0 9.67 9zm-1.415 2H5.5a.5.5 0 1 1 0-1h3.258a4.484 4.484 0 0 0-.502 1zM10.5 5h-5a.5.5 0 0 1 0-1h5a.5.5 0 1 1 0 1zm0 2h-5a.5.5 0 0 1 0-1h5a.5.5 0 1 1 0 1z"/>
  <path d="M12.5 16a3.5 3.5 0 1 1 0-7 3.5 3.5 0 0 1 0 7zm-.793-3H14.5a.5.5 0 1 0 0-1h-2.793l1.147-1.146a.5.5 0 0 0-.708-.708l-2 2a.5.5 0 0 0 0 .708l2 2a.5.5 0 0 0 .708-.708L11.707 13z"/>
</svg>
