<!-- This Source Code Form is subject to the terms of the Mozilla Public
   - License, v. 2.0. If a copy of the MPL was not distributed with this
   - file, You can obtain one at http://mozilla.org/MPL/2.0/. -->
<svg width="16" height="16" xmlns="http://www.w3.org/2000/svg" fill="context-fill" fill-opacity="context-fill-opacity">
  <path d="M2 1C.667 1 .667 3 2 3h12c1.33 0 1.33-2 0-2zm2 4C2.667 5 2.667 7 4 7h10c1.33 0 1.33-2 0-2zM2 9C.667 9 .667 11 2 11h12c1.33 0 1.33-2 0-2zm1 4c-1.333 0-1.333 2 0 2h11c1.33 0 1.33-2 0-2z"/>
</svg>
