<!-- This Source Code Form is subject to the terms of the Mozilla Public
   - License, v. 2.0. If a copy of the MPL was not distributed with this
   - file, You can obtain one at http://mozilla.org/MPL/2.0/. -->
<svg width="16" height="16" xmlns="http://www.w3.org/2000/svg" fill="context-fill" fill-opacity="context-fill-opacity" viewBox="0 0 16 16">
  <path d="M12 8a4 4 0 1 1 0 8 4 4 0 0 1 0-8zm-.095 6.793L14.9 10.8a.5.5 0 0 0-.8-.6l-2.654 3.539-1.592-1.593a.5.5 0 0 0-.708.708l1.994 1.993a.5.5 0 0 0 .765-.054zM6.93.64a1 1 0 0 0-1.86 0l-5 14a1 1 0 0 0 .61 1.28A1 1 0 0 0 1 16a1 1 0 0 0 .94-.66l1.58-4.43h3.6a5 5 0 0 1 2.34-3.19L6.93.64zM4.24 8.91L6 4l1.76 4.91H4.24z"/>
</svg>
