<!-- This Source Code Form is subject to the terms of the Mozilla Public
   - License, v. 2.0. If a copy of the MPL was not distributed with this
   - file, You can obtain one at http://mozilla.org/MPL/2.0/. -->
<svg width="16" height="16" xmlns="http://www.w3.org/2000/svg" fill="context-fill" fill-opacity="context-fill-opacity" viewBox="0 0 16 16">
  <path d="M11.5 8.994C9.75 8.994 8 10.16 8 12.5c0 4.67 7 4.67 7 0 0-2.34-1.75-3.5-3.5-3.5zm2.38 2.826l-2.5 3c-.16.2-.44.24-.66.1l-1.5-1c-.579-.37 0-1.23.558-.84l1.12.75 2.22-2.65c.47-.47 1.14.17.76.64zm-3.42-4L7.93 1.643c-.333-.844-1.527-.844-1.86 0L1 13.64c-.51 1 1.35 1.86 1.871.72l1.58-3.43H7c.177-.77.679-1.421 1.21-2H5.239l1.76-3.91L8.61 8.6a3.711 3.711 0 0 1 1.85-.879z"/>
</svg>
