<!-- This Source Code Form is subject to the terms of the Mozilla Public
   - License, v. 2.0. If a copy of the MPL was not distributed with this
   - file, You can obtain one at http://mozilla.org/MPL/2.0/. -->
<svg width="48" height="48" xmlns="http://www.w3.org/2000/svg" fill="context-fill" fill-opacity="context-fill-opacity">
  <path d="M0 43.57c0-7.53 1.87-10.19 8.27-13.29 9.12-3.55 11.08-3.55 7.94-10.19-2.98-3.1-2.1-13.3.33-16.4C17.73 1.92 20.29.6 22.98.15c3.73-.44 5 0 7.56 2.66 2.57 2.21 3.08 3.99 3.08 8.86 0 3.1-.33 6.2-.89 6.2-.54.45-1.32 2.22-1.61 3.55-2.09 4.87 1.76 6.64 8.31 8.86 5.51 1.77 7.35 3.99 8.16 11.52L48 48H0z"/>
</svg>
