<!-- This Source Code Form is subject to the terms of the Mozilla Public
   - License, v. 2.0. If a copy of the MPL was not distributed with this
   - file, You can obtain one at http://mozilla.org/MPL/2.0/. -->
<svg xmlns="http://www.w3.org/2000/svg" fill-opacity="context-fill-opacity" fill="context-fill" viewBox="0 0 16 11" height="11px" width="16px">
  <path d="M 14.857143,5.4571427 C 14.008929,4.1446427 12.848214,3.0196426 11.455357,2.3053569 11.8125,2.9124997 12,3.6089283 12,4.3142855 c 0,2.2053572 -1.794643,4.0000001 -3.9999998,4.0000001 -2.2053572,0 -4.0000001,-1.7946429 -4.0000001,-4.0000001 0,-0.7053572 0.1875,-1.4017858 0.5446429,-2.0089286 -1.3928571,0.7142857 -2.5535715,1.8392858 -3.4017858,3.1517858 1.5267857,2.357143 3.9910715,4.0000001 6.857143,4.0000001 2.8660708,0 5.3303578,-1.6428571 6.8571428,-4.0000001 z M 8.4285716,2.0285712 c 0,-0.2321429 -0.1964286,-0.4285715 -0.4285714,-0.4285715 -1.4910714,0 -2.7142857,1.2232144 -2.7142857,2.7142858 0,0.2321429 0.1964285,0.4285715 0.4285714,0.4285715 0.2321429,0 0.4285715,-0.1964286 0.4285715,-0.4285715 0,-1.0178571 0.8392856,-1.8571429 1.8571428,-1.8571429 0.2321428,0 0.4285714,-0.1964286 0.4285714,-0.4285714 z M 16,5.4571427 C 16,5.6803569 15.92857,5.8857141 15.821429,6.0732141 14.178572,8.7785713 11.169643,10.6 8.0000002,10.6 4.8303573,10.6 1.8214287,8.7696428 0.17857143,6.0732141 0.07142858,5.8857141 0,5.6803569 0,5.4571427 0,5.2339284 0.07142858,5.0285712 0.17857143,4.8410713 1.8214287,2.1446425 4.8303573,0.3142854 8.0000002,0.3142854 c 3.1696428,0 6.1785718,1.8303571 7.8214288,4.5267859 C 15.928571,5.0285712 16,5.2339284 16,5.4571427 Z"/>
</svg>
