<!-- This Source Code Form is subject to the terms of the Mozilla Public
   - License, v. 2.0. If a copy of the MPL was not distributed with this
   - file, You can obtain one at http://mozilla.org/MPL/2.0/. -->
<svg xmlns="http://www.w3.org/2000/svg" width="197" height="130" fill="none">
  <mask id="a" width="65" height="74" x="64" y="2" fill="#000" maskUnits="userSpaceOnUse">
    <path fill="#fff" d="M64 2h65v74H64z"/>
    <path d="M80 7.5h36c4.155 0 7.5 3.345 7.5 7.5v48c0 4.155-3.345 7.5-7.5 7.5H80a7.484 7.484 0 0 1-7.5-7.5V15c0-4.155 3.345-7.5 7.5-7.5Z"/>
    <path d="M80 6a8.951 8.951 0 0 0-6.357 2.643A8.982 8.982 0 0 0 71 15h-1.5c-.831 0-1.5.669-1.5 1.5s.669 1.5 1.5 1.5H71v6h-1.5c-.831 0-1.5.669-1.5 1.5s.669 1.5 1.5 1.5H71v6h-1.5c-.831 0-1.5.669-1.5 1.5s.669 1.5 1.5 1.5H71v6h-1.5c-.831 0-1.5.669-1.5 1.5s.669 1.5 1.5 1.5H71v6h-1.5c-.831 0-1.5.669-1.5 1.5s.669 1.5 1.5 1.5H71v6h-1.5c-.831 0-1.5.669-1.5 1.5s.669 1.5 1.5 1.5H71c0 4.96 4.04 9 9 9h36c4.96 0 9-4.04 9-9V15a8.979 8.979 0 0 0-2.643-6.357 8.985 8.985 0 0 0-.638-.586A8.953 8.953 0 0 0 116 6H80Zm0 3h36a6.014 6.014 0 0 1 2.35.469c2.158.901 3.65 3.019 3.65 5.531-.019 15.99 0 39 0 48 0 .252-.025.498-.064.738l.017-.017c-.349 3-2.848 5.279-5.953 5.279H80c-3.35 0-6-1.964-6-5.315.02.018.044.035.064.053A4.542 4.542 0 0 1 74 63h1.5c.831 0 1.5-.669 1.5-1.5s-.669-1.5-1.5-1.5H74v-6h1.5c.831 0 1.5-.669 1.5-1.5s-.669-1.5-1.5-1.5H74v-6h1.5c.831 0 1.5-.669 1.5-1.5s-.669-1.5-1.5-1.5H74v-6h1.5c.831 0 1.5-.669 1.5-1.5s-.669-1.5-1.5-1.5H74v-6h1.5c.831 0 1.5-.669 1.5-1.5s-.669-1.5-1.5-1.5H74v-6h1.5c.831 0 1.5-.669 1.5-1.5s-.669-1.5-1.5-1.5H74c0-.21.009-.418.03-.621a5.934 5.934 0 0 1 3.62-4.91A6.013 6.013 0 0 1 80 9Zm18 9c-6.61 0-12 5.39-12 12s5.39 12 12 12 12-5.39 12-12-5.39-12-12-12Zm0 3c4.988 0 9 4.012 9 9s-4.012 9-9 9-9-4.012-9-9 4.012-9 9-9Zm-7.5 21c-4.129 0-7.5 3.37-7.5 7.5v6a1.5 1.5 0 0 0 3 0v-6c0-2.52 1.981-4.5 4.5-4.5h3a1.5 1.5 0 0 0 0-3h-3Zm12 0a1.503 1.503 0 0 0-1.5 1.5 1.5 1.5 0 0 0 1.5 1.5h3c2.519 0 4.5 1.98 4.5 4.5v6a1.5 1.5 0 0 0 3 0v-6c0-4.13-3.371-7.5-7.5-7.5h-3Z"/>
  </mask>
  <path fill="#2A2C38" d="M80 7.5h36c4.155 0 7.5 3.345 7.5 7.5v48c0 4.155-3.345 7.5-7.5 7.5H80a7.484 7.484 0 0 1-7.5-7.5V15c0-4.155 3.345-7.5 7.5-7.5Z"/>
  <path fill="#2A2C38" d="M80 6a8.951 8.951 0 0 0-6.357 2.643A8.982 8.982 0 0 0 71 15h-1.5c-.831 0-1.5.669-1.5 1.5s.669 1.5 1.5 1.5H71v6h-1.5c-.831 0-1.5.669-1.5 1.5s.669 1.5 1.5 1.5H71v6h-1.5c-.831 0-1.5.669-1.5 1.5s.669 1.5 1.5 1.5H71v6h-1.5c-.831 0-1.5.669-1.5 1.5s.669 1.5 1.5 1.5H71v6h-1.5c-.831 0-1.5.669-1.5 1.5s.669 1.5 1.5 1.5H71v6h-1.5c-.831 0-1.5.669-1.5 1.5s.669 1.5 1.5 1.5H71c0 4.96 4.04 9 9 9h36c4.96 0 9-4.04 9-9V15a8.979 8.979 0 0 0-2.643-6.357 8.985 8.985 0 0 0-.638-.586A8.953 8.953 0 0 0 116 6H80Zm0 3h36a6.014 6.014 0 0 1 2.35.469c2.158.901 3.65 3.019 3.65 5.531-.019 15.99 0 39 0 48 0 .252-.025.498-.064.738l.017-.017c-.349 3-2.848 5.279-5.953 5.279H80c-3.35 0-6-1.964-6-5.315.02.018.044.035.064.053A4.542 4.542 0 0 1 74 63h1.5c.831 0 1.5-.669 1.5-1.5s-.669-1.5-1.5-1.5H74v-6h1.5c.831 0 1.5-.669 1.5-1.5s-.669-1.5-1.5-1.5H74v-6h1.5c.831 0 1.5-.669 1.5-1.5s-.669-1.5-1.5-1.5H74v-6h1.5c.831 0 1.5-.669 1.5-1.5s-.669-1.5-1.5-1.5H74v-6h1.5c.831 0 1.5-.669 1.5-1.5s-.669-1.5-1.5-1.5H74v-6h1.5c.831 0 1.5-.669 1.5-1.5s-.669-1.5-1.5-1.5H74c0-.21.009-.418.03-.621a5.934 5.934 0 0 1 3.62-4.91A6.013 6.013 0 0 1 80 9Zm18 9c-6.61 0-12 5.39-12 12s5.39 12 12 12 12-5.39 12-12-5.39-12-12-12Zm0 3c4.988 0 9 4.012 9 9s-4.012 9-9 9-9-4.012-9-9 4.012-9 9-9Zm-7.5 21c-4.129 0-7.5 3.37-7.5 7.5v6a1.5 1.5 0 0 0 3 0v-6c0-2.52 1.981-4.5 4.5-4.5h3a1.5 1.5 0 0 0 0-3h-3Zm12 0a1.503 1.503 0 0 0-1.5 1.5 1.5 1.5 0 0 0 1.5 1.5h3c2.519 0 4.5 1.98 4.5 4.5v6a1.5 1.5 0 0 0 3 0v-6c0-4.13-3.371-7.5-7.5-7.5h-3Z"/>
  <path stroke="#2A2C38" stroke-width="8" d="M80 7.5h36c4.155 0 7.5 3.345 7.5 7.5v48c0 4.155-3.345 7.5-7.5 7.5H80a7.484 7.484 0 0 1-7.5-7.5V15c0-4.155 3.345-7.5 7.5-7.5Z" mask="url(#a)"/>
  <path stroke="#2A2C38" stroke-width="8" d="M80 6a8.951 8.951 0 0 0-6.357 2.643A8.982 8.982 0 0 0 71 15h-1.5c-.831 0-1.5.669-1.5 1.5s.669 1.5 1.5 1.5H71v6h-1.5c-.831 0-1.5.669-1.5 1.5s.669 1.5 1.5 1.5H71v6h-1.5c-.831 0-1.5.669-1.5 1.5s.669 1.5 1.5 1.5H71v6h-1.5c-.831 0-1.5.669-1.5 1.5s.669 1.5 1.5 1.5H71v6h-1.5c-.831 0-1.5.669-1.5 1.5s.669 1.5 1.5 1.5H71v6h-1.5c-.831 0-1.5.669-1.5 1.5s.669 1.5 1.5 1.5H71c0 4.96 4.04 9 9 9h36c4.96 0 9-4.04 9-9V15a8.979 8.979 0 0 0-2.643-6.357 8.985 8.985 0 0 0-.638-.586A8.953 8.953 0 0 0 116 6H80Zm0 3h36a6.014 6.014 0 0 1 2.35.469c2.158.901 3.65 3.019 3.65 5.531-.019 15.99 0 39 0 48 0 .252-.025.498-.064.738l.017-.017c-.349 3-2.848 5.279-5.953 5.279H80c-3.35 0-6-1.964-6-5.315.02.018.044.035.064.053A4.542 4.542 0 0 1 74 63h1.5c.831 0 1.5-.669 1.5-1.5s-.669-1.5-1.5-1.5H74v-6h1.5c.831 0 1.5-.669 1.5-1.5s-.669-1.5-1.5-1.5H74v-6h1.5c.831 0 1.5-.669 1.5-1.5s-.669-1.5-1.5-1.5H74v-6h1.5c.831 0 1.5-.669 1.5-1.5s-.669-1.5-1.5-1.5H74v-6h1.5c.831 0 1.5-.669 1.5-1.5s-.669-1.5-1.5-1.5H74v-6h1.5c.831 0 1.5-.669 1.5-1.5s-.669-1.5-1.5-1.5H74c0-.21.009-.418.03-.621a5.934 5.934 0 0 1 3.62-4.91A6.013 6.013 0 0 1 80 9Zm18 9c-6.61 0-12 5.39-12 12s5.39 12 12 12 12-5.39 12-12-5.39-12-12-12Zm0 3c4.988 0 9 4.012 9 9s-4.012 9-9 9-9-4.012-9-9 4.012-9 9-9Zm-7.5 21c-4.129 0-7.5 3.37-7.5 7.5v6a1.5 1.5 0 0 0 3 0v-6c0-2.52 1.981-4.5 4.5-4.5h3a1.5 1.5 0 0 0 0-3h-3Zm12 0a1.503 1.503 0 0 0-1.5 1.5 1.5 1.5 0 0 0 1.5 1.5h3c2.519 0 4.5 1.98 4.5 4.5v6a1.5 1.5 0 0 0 3 0v-6c0-4.13-3.371-7.5-7.5-7.5h-3Z" mask="url(#a)"/>
  <path fill="url(#b)" d="M80 7.5h36c4.155 0 7.5 3.345 7.5 7.5v48c0 4.155-3.345 7.5-7.5 7.5H80a7.484 7.484 0 0 1-7.5-7.5V15c0-4.155 3.345-7.5 7.5-7.5Z" opacity=".2"/>
  <path fill="url(#c)" d="M80 6a8.951 8.951 0 0 0-6.357 2.643A8.982 8.982 0 0 0 71 15h-1.5c-.831 0-1.5.669-1.5 1.5s.669 1.5 1.5 1.5H71v6h-1.5c-.831 0-1.5.669-1.5 1.5s.669 1.5 1.5 1.5H71v6h-1.5c-.831 0-1.5.669-1.5 1.5s.669 1.5 1.5 1.5H71v6h-1.5c-.831 0-1.5.669-1.5 1.5s.669 1.5 1.5 1.5H71v6h-1.5c-.831 0-1.5.669-1.5 1.5s.669 1.5 1.5 1.5H71v6h-1.5c-.831 0-1.5.669-1.5 1.5s.669 1.5 1.5 1.5H71c0 4.96 4.04 9 9 9h36c4.96 0 9-4.04 9-9V15a8.979 8.979 0 0 0-2.643-6.357 8.985 8.985 0 0 0-.638-.586A8.953 8.953 0 0 0 116 6H80Zm0 3h36a6.014 6.014 0 0 1 2.35.469c2.158.901 3.65 3.019 3.65 5.531-.019 15.99 0 39 0 48 0 .252-.025.498-.064.738l.017-.017c-.349 3-2.848 5.279-5.953 5.279H80c-3.35 0-6-1.964-6-5.315.02.018.044.035.064.053A4.542 4.542 0 0 1 74 63h1.5c.831 0 1.5-.669 1.5-1.5s-.669-1.5-1.5-1.5H74v-6h1.5c.831 0 1.5-.669 1.5-1.5s-.669-1.5-1.5-1.5H74v-6h1.5c.831 0 1.5-.669 1.5-1.5s-.669-1.5-1.5-1.5H74v-6h1.5c.831 0 1.5-.669 1.5-1.5s-.669-1.5-1.5-1.5H74v-6h1.5c.831 0 1.5-.669 1.5-1.5s-.669-1.5-1.5-1.5H74v-6h1.5c.831 0 1.5-.669 1.5-1.5s-.669-1.5-1.5-1.5H74c0-.21.009-.418.03-.621a5.934 5.934 0 0 1 3.62-4.91A6.013 6.013 0 0 1 80 9Zm18 9c-6.61 0-12 5.39-12 12s5.39 12 12 12 12-5.39 12-12-5.39-12-12-12Zm0 3c4.988 0 9 4.012 9 9s-4.012 9-9 9-9-4.012-9-9 4.012-9 9-9Zm-7.5 21c-4.129 0-7.5 3.37-7.5 7.5v6a1.5 1.5 0 0 0 3 0v-6c0-2.52 1.981-4.5 4.5-4.5h3a1.5 1.5 0 0 0 0-3h-3Zm12 0a1.503 1.503 0 0 0-1.5 1.5 1.5 1.5 0 0 0 1.5 1.5h3c2.519 0 4.5 1.98 4.5 4.5v6a1.5 1.5 0 0 0 3 0v-6c0-4.13-3.371-7.5-7.5-7.5h-3Z"/>
  <path fill="#2A2C38" stroke="#2A2C38" stroke-width="4" d="M68 33H19.625c-2.812 0-5.452 1.348-7.357 3.246C10.364 38.144 9 40.786 9 43.625V80c0 2.822 1.348 5.543 3.229 7.526C14.107 89.506 16.756 91 19.625 91h49.518C74.62 91 79 86.543 79 81.059V43.25c0-2.916-1.528-5.486-3.54-7.271C73.445 34.194 70.737 33 68 33Z"/>
  <path fill="url(#d)" d="M20 36.5h48c4.155 0 7.5 3.345 7.5 7.5v36c0 4.155-3.345 7.5-7.5 7.5H20a7.484 7.484 0 0 1-7.5-7.5V44c0-4.155 3.345-7.5 7.5-7.5Z" opacity=".2"/>
  <path fill="url(#e)" d="M20 35c-4.96 0-9 4.04-9 9v36c0 4.96 4.04 9 9 9h48c4.96 0 9-4.04 9-9V44c0-4.96-4.04-9-9-9H20Zm0 3h48c3.35 0 6 2.65 6 6v36c0 3.35-2.65 6-6 6H20c-3.35 0-6-2.65-6-6V44c0-3.35 2.65-6 6-6Zm4.441 9a1.502 1.502 0 0 0-.96 2.602l12.896 11.9-12.938 12.937a1.5 1.5 0 1 0 2.122 2.122l13.02-13.02 4.4 4.06a1.5 1.5 0 0 0 2.038 0l4.4-4.06 13.02 13.02a1.5 1.5 0 1 0 2.122-2.122L51.623 61.502l12.896-11.9a1.502 1.502 0 1 0-2.039-2.204L44 64.461 25.52 47.398A1.501 1.501 0 0 0 24.44 47Z"/>
  <path fill="#2A2C38" stroke="#2A2C38" stroke-width="4" d="M131 30c-7.727 0-14 6.273-14 14v36c0 7.727 6.273 14 14 14h36c7.727 0 14-6.273 14-14V44c0-7.727-6.273-14-14-14h-36Z"/>
  <path fill="url(#f)" d="M131 33.5c-5.817 0-10.5 4.683-10.5 10.5v4.5h57V44c0-5.817-4.683-10.5-10.5-10.5h-36Z" opacity=".2"/>
  <path fill="url(#g)" d="M131 32c-6.622 0-12 5.378-12 12v36c0 6.622 5.378 12 12 12h36c6.622 0 12-5.378 12-12V44c0-6.622-5.378-12-12-12h-36Zm0 3h36c5.012 0 9 3.988 9 9v3h-9v-1.5a1.501 1.501 0 0 0-3 0V47h-30v-1.5a1.501 1.501 0 0 0-3 0V47h-9v-3c0-5.012 3.988-9 9-9Zm-9 15h9v1.5a1.501 1.501 0 0 0 3 0V50h30v1.5a1.501 1.501 0 0 0 3 0V50h9v30c0 5.012-3.988 9-9 9h-36c-5.012 0-9-3.988-9-9V50Zm7.5 9a1.502 1.502 0 0 0-1.061 2.56c.282.282.663.44 1.061.44h3a1.502 1.502 0 0 0 1.061-2.56A1.502 1.502 0 0 0 132.5 59h-3Zm12 0a1.502 1.502 0 0 0-1.061 2.56c.282.282.663.44 1.061.44h3a1.502 1.502 0 0 0 1.061-2.56A1.502 1.502 0 0 0 144.5 59h-3Zm12 0a1.502 1.502 0 0 0-1.061 2.56c.282.282.663.44 1.061.44h3a1.502 1.502 0 0 0 1.061-2.56A1.502 1.502 0 0 0 156.5 59h-3Zm12 0a1.502 1.502 0 0 0-1.061 2.56c.282.282.663.44 1.061.44h3a1.502 1.502 0 0 0 1.061-2.56A1.502 1.502 0 0 0 168.5 59h-3Zm-36 6a1.502 1.502 0 0 0-1.061 2.56c.282.282.663.44 1.061.44h3a1.502 1.502 0 0 0 1.061-2.56A1.502 1.502 0 0 0 132.5 65h-3Zm12 0a1.502 1.502 0 0 0-1.061 2.56c.282.282.663.44 1.061.44h3a1.502 1.502 0 0 0 1.061-2.56A1.502 1.502 0 0 0 144.5 65h-3Zm12 0a1.502 1.502 0 0 0-1.061 2.56c.282.282.663.44 1.061.44h3a1.502 1.502 0 0 0 1.061-2.56A1.502 1.502 0 0 0 156.5 65h-3Zm12 0a1.502 1.502 0 0 0-1.061 2.56c.282.282.663.44 1.061.44h3a1.502 1.502 0 0 0 1.061-2.56A1.502 1.502 0 0 0 168.5 65h-3Zm-36 6a1.502 1.502 0 0 0-1.061 2.56c.282.282.663.44 1.061.44h3a1.502 1.502 0 0 0 1.061-2.56A1.502 1.502 0 0 0 132.5 71h-3Zm12 0a1.502 1.502 0 0 0-1.061 2.56c.282.282.663.44 1.061.44h3a1.502 1.502 0 0 0 1.061-2.56A1.502 1.502 0 0 0 144.5 71h-3Zm12 0a1.502 1.502 0 0 0-1.061 2.56c.282.282.663.44 1.061.44h3a1.502 1.502 0 0 0 1.061-2.56A1.502 1.502 0 0 0 156.5 71h-3Zm12 0a1.502 1.502 0 0 0-1.061 2.56c.282.282.663.44 1.061.44h3a1.502 1.502 0 0 0 1.061-2.56A1.502 1.502 0 0 0 168.5 71h-3Zm-36 6a1.502 1.502 0 0 0-1.061 2.56c.282.282.663.44 1.061.44h3a1.502 1.502 0 0 0 1.061-2.56A1.502 1.502 0 0 0 132.5 77h-3Zm12 0a1.502 1.502 0 0 0-1.061 2.56c.282.282.663.44 1.061.44h3a1.502 1.502 0 0 0 1.061-2.56A1.502 1.502 0 0 0 144.5 77h-3Zm12 0a1.502 1.502 0 0 0-1.061 2.56c.282.282.663.44 1.061.44h3a1.502 1.502 0 0 0 1.061-2.56A1.502 1.502 0 0 0 156.5 77h-3Zm12 0a1.502 1.502 0 0 0-1.061 2.56c.282.282.663.44 1.061.44h3a1.502 1.502 0 0 0 1.061-2.56A1.502 1.502 0 0 0 168.5 77h-3Z"/>
  <path fill="#2A2C38" stroke="#2A2C38" stroke-width="4" d="m116.447 116.401.002-.001C124.662 110.296 130 100.516 130 89.5 130 71.016 114.984 56 96.5 56S63 71.016 63 89.5c0 10.963 5.287 20.702 13.432 26.811l.007.007.117.087c.034.025.067.049.101.071A33.332 33.332 0 0 0 96.5 123a33.334 33.334 0 0 0 19.947-6.599Zm-39.885.004.002.001-.002-.001Zm39.454.24-.025.011.002-.001.006-.003.017-.007Z"/>
  <path fill="url(#h)" d="M96.5 59.5a30 30 0 0 0-30 30 29.997 29.997 0 0 0 12 23.9V112c0-4.155 3.345-7.5 7.5-7.5h4.5v-4.271a15.004 15.004 0 0 1-9-13.729 15 15 0 0 1 30 0 15.005 15.005 0 0 1-9 13.729v4.271h4.5c4.155 0 7.5 3.345 7.5 7.5v1.4a30.004 30.004 0 0 0 12-23.9 30 30 0 0 0-30-30Z" opacity=".2"/>
  <path fill="url(#i)" d="M96.5 58C79.121 58 65 72.121 65 89.5c0 10.355 5.016 19.551 12.744 25.295l.006.006h.006A31.338 31.338 0 0 0 96.5 121a31.34 31.34 0 0 0 18.744-6.199l.012-.006C122.984 109.051 128 99.855 128 89.5 128 72.121 113.879 58 96.5 58Zm0 3c15.759 0 28.5 12.741 28.5 28.5 0 8.28-3.521 15.726-9.146 20.93-.747-4.214-4.43-7.43-8.854-7.43h-4.5a1.503 1.503 0 0 0-1.5 1.5 1.503 1.503 0 0 0 1.5 1.5h4.5c3.35 0 6 2.65 6 6v.744A28.387 28.387 0 0 1 96.5 118a28.337 28.337 0 0 1-16.5-5.256V112c0-3.35 2.65-6 6-6h4.5a1.501 1.501 0 0 0 0-3H86c-4.424 0-8.107 3.216-8.853 7.43-5.63-5.207-9.154-12.656-9.147-20.93C68 73.741 80.741 61 96.5 61Zm0 9C87.405 70 80 77.405 80 86.5c0 9.095 7.405 16.5 16.5 16.5 9.095 0 16.5-7.405 16.5-16.5 0-9.095-7.405-16.5-16.5-16.5Zm0 3c7.474 0 13.5 6.026 13.5 13.5S103.974 100 96.5 100 83 93.974 83 86.5 89.026 73 96.5 73Z"/>
  <defs>
    <linearGradient id="b" x1="98" x2="98" y1="7.5" y2="70.5" gradientUnits="userSpaceOnUse">
      <stop stop-color="#236AC5"/>
      <stop offset="1" stop-color="#7841A1"/>
    </linearGradient>
    <linearGradient id="c" x1="96.5" x2="96.5" y1="6" y2="72" gradientUnits="userSpaceOnUse">
      <stop stop-color="#236AC5"/>
      <stop offset="1" stop-color="#7841A1"/>
    </linearGradient>
    <linearGradient id="d" x1="44" x2="44" y1="36.5" y2="87.5" gradientUnits="userSpaceOnUse">
      <stop stop-color="#236AC5"/>
      <stop offset="1" stop-color="#7841A1"/>
    </linearGradient>
    <linearGradient id="e" x1="44" x2="44" y1="35" y2="89" gradientUnits="userSpaceOnUse">
      <stop stop-color="#236AC5"/>
      <stop offset="1" stop-color="#7841A1"/>
    </linearGradient>
    <linearGradient id="f" x1="149" x2="149" y1="33.5" y2="48.5" gradientUnits="userSpaceOnUse">
      <stop stop-color="#236AC5"/>
      <stop offset="1" stop-color="#7841A1"/>
    </linearGradient>
    <linearGradient id="g" x1="149" x2="149" y1="32" y2="92" gradientUnits="userSpaceOnUse">
      <stop stop-color="#236AC5"/>
      <stop offset="1" stop-color="#7841A1"/>
    </linearGradient>
    <linearGradient id="h" x1="96.5" x2="96.5" y1="59.5" y2="113.4" gradientUnits="userSpaceOnUse">
      <stop stop-color="#236AC5"/>
      <stop offset="1" stop-color="#7841A1"/>
    </linearGradient>
    <linearGradient id="i" x1="96.5" x2="96.5" y1="58" y2="121" gradientUnits="userSpaceOnUse">
      <stop stop-color="#236AC5"/>
      <stop offset="1" stop-color="#7841A1"/>
    </linearGradient>
  </defs>
</svg>
