<!-- This Source Code Form is subject to the terms of the Mozilla Public
   - License, v. 2.0. If a copy of the MPL was not distributed with this
   - file, You can obtain one at http://mozilla.org/MPL/2.0/. -->
<svg width="243" height="167" viewBox="0 0 243 167" xmlns="http://www.w3.org/2000/svg">
  <path opacity="0.2" d="M98 15C92.46 15 88 19.46 88 25V45.8477H88.0215C92.637 45.8477 96.9397 47.7881 100.178 50.6582H100.18C103.421 53.5319 106.021 57.7935 106.021 62.8477V66.082C110.446 64.7342 115.138 64.0039 120 64.0039C127.538 64.0039 134.67 65.7509 141.021 68.8555V63.8477C141.021 54.1936 147.315 45.9678 156 43.0215V25C156 19.46 151.54 15 146 15H98ZM163 50C155.244 50 149 56.244 149 64V70H225V64C225 56.244 218.756 50 211 50H163ZM24 54C18.46 54 14 58.46 14 64V112C14 117.54 18.46 122 24 122H73.0703C72.3826 118.771 72 115.43 72 112C72 93.4714 82.5769 77.3615 98 69.3652V64C98 58.46 93.54 54 88 54H24ZM120 72C109.391 72 99.2163 76.2134 91.7148 83.7148C84.2134 91.2163 80 101.391 80 112C80.0206 118.187 81.4757 124.285 84.252 129.814C87.0283 135.344 91.0501 140.155 96 143.867V142C96 136.46 100.46 132 106 132H112V126.305C108.438 124.75 105.404 122.19 103.273 118.939C101.142 115.689 100.005 111.887 100 108C100 102.696 102.106 97.6081 105.857 93.8574C109.608 90.1066 114.696 88 120 88C125.304 88 130.392 90.1066 134.143 93.8574C137.894 97.6081 140 102.696 140 108C139.995 111.887 138.858 115.688 136.727 118.939C134.596 122.19 131.562 124.75 128 126.305V132H134C139.54 132 144 136.46 144 142V143.867C148.95 140.155 152.972 135.344 155.748 129.814C158.524 124.285 159.98 118.187 160 112C160 106.747 158.965 101.546 156.955 96.6934C154.945 91.8402 151.999 87.4292 148.285 83.7148C144.57 80.0004 140.162 77.055 135.309 75.0449C130.456 73.0348 125.253 71.9997 120 72Z" fill="url(#paint0_linear_504_1630)"/>
  <path d="M98 13C95.107 13 92.45 14.0282 90.375 15.7422C90.077 15.9882 89.7964 16.2504 89.5234 16.5234C88.4075 17.6353 87.5226 18.9556 86.918 20.4102C86.3135 21.8649 86.0009 23.4248 86 25H84C82.892 25 82 25.892 82 27C82 28.108 82.892 29 84 29H86V37H84C82.892 37 82 37.892 82 39C82 40.108 82.892 41 84 41H86V45.8477H88.0215C88.6892 45.8477 89.3476 45.9003 90 45.9785V41H92C93.108 41 94 40.108 94 39C94 37.892 93.108 37 92 37H90V29H92C93.108 29 94 28.108 94 27C94 25.892 93.108 25 92 25H90C90 24.72 90.0111 24.4429 90.0391 24.1719C90.1756 22.7459 90.6968 21.3835 91.5469 20.2305C92.3971 19.0775 93.5453 18.1771 94.8672 17.625C95.859 17.2085 96.9243 16.996 98 17H146C147.076 16.9962 148.141 17.2088 149.133 17.625C152.011 18.827 154 21.65 154 25C153.993 31.2672 154.001 36.6402 154 43.8125C155.274 43.2348 156.612 42.7784 158 42.4512V25C157.999 23.4248 157.687 21.8648 157.082 20.4102C156.478 18.9556 155.593 17.6355 154.477 16.5234C153.367 15.4057 152.047 14.5188 150.592 13.9141C149.137 13.3094 147.576 12.9986 146 13H98ZM122 29C113.187 29 106 36.187 106 45C106 53.813 113.187 61 122 61C130.813 61 138 53.813 138 45C138 36.187 130.813 29 122 29ZM122 33C128.651 33 134 38.349 134 45C134 51.651 128.651 57 122 57C115.349 57 110 51.651 110 45C110 38.349 115.349 33 122 33ZM163 48C154.171 48 147 55.17 147 64V72.3457C148.389 73.2946 149.721 74.3188 151 75.4043V72H163V74C163 74.5304 163.211 75.039 163.586 75.4141C163.961 75.7892 164.47 76 165 76C165.53 76 166.039 75.7892 166.414 75.4141C166.789 75.039 167 74.5304 167 74V72H207V74C207 74.5304 207.211 75.039 207.586 75.4141C207.961 75.7892 208.47 76 209 76C209.53 76 210.039 75.7892 210.414 75.4141C210.789 75.039 211 74.5304 211 74V72H223V112C223 118.683 217.683 124 211 124H166.482C166.131 125.359 165.713 126.691 165.248 128H211C219.829 128 227 120.829 227 112V64C227 55.17 219.829 48 211 48H163ZM24 52C17.387 52 12 57.387 12 64V112C12 118.613 17.387 124 24 124H73.5352C73.1958 122.687 72.9099 121.354 72.6816 120H24C19.533 120 16 116.467 16 112V64C16 59.533 19.533 56 24 56H88C92.467 56 96 59.533 96 64V70.4648C97.2965 69.7124 98.6308 69.0176 100 68.3867V64C100 57.387 94.613 52 88 52H24ZM163 52H211C217.683 52 223 57.317 223 64V68H211V66C211 65.4696 210.789 64.961 210.414 64.5859C210.039 64.2108 209.53 64 209 64C208.47 64 207.961 64.2108 207.586 64.5859C207.211 64.961 207 65.4696 207 66V68H167V66C167 65.4696 166.789 64.961 166.414 64.5859C166.039 64.2108 165.53 64 165 64C164.47 64 163.961 64.2108 163.586 64.5859C163.211 64.961 163 65.4696 163 66V68H151V64C151 57.317 156.317 52 163 52ZM112 61C109.759 61 107.693 61.7536 106.021 63.0078V66.084C109.742 64.9479 113.652 64.2512 117.691 64.0586C117.889 63.7431 117.999 63.3781 118 63C118 62.4696 117.789 61.961 117.414 61.5859C117.039 61.2108 116.53 61 116 61H112ZM128 61C127.47 61.0005 126.961 61.2109 126.586 61.5859C126.211 61.9608 126.001 62.4697 126 63C126 63.5304 126.211 64.039 126.586 64.4141C126.608 64.4362 126.635 64.4517 126.658 64.4727C127.702 64.6184 128.738 64.7879 129.76 65H132C133.747 65 135.289 65.7244 136.377 66.8828C137.967 67.4621 139.515 68.1255 141.021 68.8633V66.7227C139.411 63.3482 135.974 61 132 61H128ZM29.9219 68C29.5261 68.0148 29.143 68.1464 28.8223 68.3789C28.5016 68.6113 28.2584 68.935 28.1211 69.3066C27.9839 69.6782 27.96 70.0817 28.0527 70.4668C28.1454 70.852 28.3494 71.2003 28.6406 71.4688L45.8359 87.3359L28.5859 104.586C28.2216 104.963 28.0208 105.467 28.0254 105.992C28.0299 106.516 28.2404 107.02 28.6113 107.391C28.9821 107.761 29.4834 107.971 30.0078 107.975C30.5322 107.98 31.0369 107.778 31.4141 107.414L48.7734 90.0547L54.6406 95.4688C55.0103 95.8112 55.4961 96.002 56 96.002C56.5039 96.002 56.9897 95.8112 57.3594 95.4688L63.2266 90.0547L73.4531 100.281C73.8247 98.8077 74.2687 97.3616 74.7734 95.9453L66.1641 87.3359L83.3594 71.4688C83.6013 71.2455 83.7847 70.9653 83.8926 70.6543C84.0005 70.3432 84.0301 70.0108 83.9785 69.6856C83.9268 69.3604 83.7967 69.0533 83.5977 68.791C83.3988 68.5287 83.1371 68.319 82.8379 68.1816C82.4783 68.0161 82.0784 67.9611 81.6875 68.0234C81.2966 68.0857 80.9329 68.2622 80.6426 68.5313L56 91.2813L31.3594 68.5313C31.1663 68.3524 30.9403 68.2122 30.6934 68.1211C30.4464 68.03 30.1849 67.9894 29.9219 68ZM120 70C96.828 70 78 88.828 78 112C78 125.806 84.6882 138.068 94.9922 145.727L95 145.735C95.002 145.737 95.0058 145.734 95.0078 145.735C102.23 151.11 110.996 154.01 120 154C129.004 154.01 137.77 151.11 144.992 145.734L145.008 145.726C155.312 138.068 162 125.806 162 112C162 88.828 143.172 70 120 70ZM120 74C141.012 74 158 90.988 158 112C158 123.041 153.305 132.968 145.805 139.906C144.809 134.288 139.898 130 134 130H128C127.47 130 126.961 130.211 126.586 130.586C126.211 130.961 126 131.47 126 132C126 132.53 126.211 133.039 126.586 133.414C126.961 133.789 127.47 134 128 134H134C138.467 134 142 137.533 142 142V142.992C135.576 147.563 127.884 150.013 120 150C112.115 150.017 104.422 147.567 98 142.992V142C98 137.533 101.533 134 106 134H112C112.53 134 113.039 133.789 113.414 133.414C113.789 133.039 114 132.53 114 132C114 131.47 113.789 130.961 113.414 130.586C113.039 130.211 112.53 130 112 130H106C100.102 130 95.1913 134.288 94.1953 139.906C86.6903 132.964 81.991 123.032 82 112C82 90.988 98.988 74 120 74ZM161 84C160.47 84 159.961 84.2108 159.586 84.5859C159.54 84.6315 159.505 84.6851 159.465 84.7344C160.198 85.7926 160.887 86.8827 161.535 88H165C165.53 88 166.039 87.7892 166.414 87.4141C166.789 87.039 167 86.5304 167 86C167 85.4696 166.789 84.961 166.414 84.5859C166.039 84.2108 165.53 84 165 84H161ZM177 84C176.47 84 175.961 84.2108 175.586 84.5859C175.211 84.961 175 85.4696 175 86C175 86.5304 175.211 87.039 175.586 87.4141C175.961 87.7892 176.47 88 177 88H181C181.53 88 182.039 87.7892 182.414 87.4141C182.789 87.039 183 86.5304 183 86C183 85.4696 182.789 84.961 182.414 84.5859C182.039 84.2108 181.53 84 181 84H177ZM193 84C192.47 84 191.961 84.2108 191.586 84.5859C191.211 84.961 191 85.4696 191 86C191 86.5304 191.211 87.039 191.586 87.4141C191.961 87.7892 192.47 88 193 88H197C197.53 88 198.039 87.7892 198.414 87.4141C198.789 87.039 199 86.5304 199 86C199 85.4696 198.789 84.961 198.414 84.5859C198.039 84.2108 197.53 84 197 84H193ZM209 84C208.47 84 207.961 84.2108 207.586 84.5859C207.211 84.961 207 85.4696 207 86C207 86.5304 207.211 87.039 207.586 87.4141C207.961 87.7892 208.47 88 209 88H213C213.53 88 214.039 87.7892 214.414 87.4141C214.789 87.039 215 86.5304 215 86C215 85.4696 214.789 84.961 214.414 84.5859C214.039 84.2108 213.53 84 213 84H209ZM120 86C107.873 86 98 95.874 98 108C98 120.127 107.873 130 120 130C132.127 130 142 120.127 142 108C142 95.874 132.127 86 120 86ZM120 90C129.965 90 138 98.035 138 108C138 117.965 129.965 126 120 126C110.035 126 102 117.965 102 108C102 98.035 110.035 90 120 90ZM163.613 92C164.211 93.2969 164.756 94.6209 165.238 95.9766C165.68 95.9232 166.096 95.7323 166.414 95.4141C166.789 95.039 167 94.5304 167 94C167 93.4696 166.789 92.961 166.414 92.5859C166.039 92.2108 165.53 92 165 92H163.613ZM177 92C176.47 92 175.961 92.2108 175.586 92.5859C175.211 92.961 175 93.4696 175 94C175 94.5304 175.211 95.039 175.586 95.4141C175.961 95.7892 176.47 96 177 96H181C181.53 96 182.039 95.7892 182.414 95.4141C182.789 95.039 183 94.5304 183 94C183 93.4696 182.789 92.961 182.414 92.5859C182.039 92.2108 181.53 92 181 92H177ZM193 92C192.47 92 191.961 92.2108 191.586 92.5859C191.211 92.961 191 93.4696 191 94C191 94.5304 191.211 95.039 191.586 95.4141C191.961 95.7892 192.47 96 193 96H197C197.53 96 198.039 95.7892 198.414 95.4141C198.789 95.039 199 94.5304 199 94C199 93.4696 198.789 92.961 198.414 92.5859C198.039 92.2108 197.53 92 197 92H193ZM209 92C208.47 92 207.961 92.2108 207.586 92.5859C207.211 92.961 207 93.4696 207 94C207 94.5304 207.211 95.039 207.586 95.4141C207.961 95.7892 208.47 96 209 96H213C213.53 96 214.039 95.7892 214.414 95.4141C214.789 95.039 215 94.5304 215 94C215 93.4696 214.789 92.961 214.414 92.5859C214.039 92.2108 213.53 92 213 92H209ZM177 100C176.47 100 175.961 100.211 175.586 100.586C175.211 100.961 175 101.47 175 102C175 102.53 175.211 103.039 175.586 103.414C175.961 103.789 176.47 104 177 104H181C181.53 104 182.039 103.789 182.414 103.414C182.789 103.039 183 102.53 183 102C183 101.47 182.789 100.961 182.414 100.586C182.039 100.211 181.53 100 181 100H177ZM193 100C192.47 100 191.961 100.211 191.586 100.586C191.211 100.961 191 101.47 191 102C191 102.53 191.211 103.039 191.586 103.414C191.961 103.789 192.47 104 193 104H197C197.53 104 198.039 103.789 198.414 103.414C198.789 103.039 199 102.53 199 102C199 101.47 198.789 100.961 198.414 100.586C198.039 100.211 197.53 100 197 100H193ZM209 100C208.47 100 207.961 100.211 207.586 100.586C207.211 100.961 207 101.47 207 102C207 102.53 207.211 103.039 207.586 103.414C207.961 103.789 208.47 104 209 104H213C213.53 104 214.039 103.789 214.414 103.414C214.789 103.039 215 102.53 215 102C215 101.47 214.789 100.961 214.414 100.586C214.039 100.211 213.53 100 213 100H209ZM166.705 100.967C166.8 101.367 166.898 101.764 166.982 102.168C166.987 102.112 167 102.057 167 102C167 101.632 166.893 101.277 166.705 100.967ZM177 108C176.47 108 175.961 108.211 175.586 108.586C175.211 108.961 175 109.47 175 110C175 110.53 175.211 111.039 175.586 111.414C175.961 111.789 176.47 112 177 112H181C181.53 112 182.039 111.789 182.414 111.414C182.789 111.039 183 110.53 183 110C183 109.47 182.789 108.961 182.414 108.586C182.039 108.211 181.53 108 181 108H177ZM193 108C192.47 108 191.961 108.211 191.586 108.586C191.211 108.961 191 109.47 191 110C191 110.53 191.211 111.039 191.586 111.414C191.961 111.789 192.47 112 193 112H197C197.53 112 198.039 111.789 198.414 111.414C198.789 111.039 199 110.53 199 110C199 109.47 198.789 108.961 198.414 108.586C198.039 108.211 197.53 108 197 108H193ZM209 108C208.47 108 207.961 108.211 207.586 108.586C207.211 108.961 207 109.47 207 110C207 110.53 207.211 111.039 207.586 111.414C207.961 111.789 208.47 112 209 112H213C213.53 112 214.039 111.789 214.414 111.414C214.789 111.039 215 110.53 215 110C215 109.47 214.789 108.961 214.414 108.586C214.039 108.211 213.53 108 213 108H209Z" fill="url(#paint1_linear_504_1630)"/>
  <defs>
    <linearGradient id="paint0_linear_504_1630" x1="119.5" y1="15" x2="119.5" y2="143.867" gradientUnits="userSpaceOnUse">
      <stop stop-color="#236AC5"/>
      <stop offset="1" stop-color="#7841A1"/>
    </linearGradient>
    <linearGradient id="paint1_linear_504_1630" x1="119.5" y1="13" x2="119.5" y2="154" gradientUnits="userSpaceOnUse">
      <stop stop-color="#236AC5"/>
      <stop offset="1" stop-color="#7841A1"/>
    </linearGradient>
  </defs>
</svg>
