<!-- This Source Code Form is subject to the terms of the Mozilla Public
   - License, v. 2.0. If a copy of the MPL was not distributed with this
   - file, You can obtain one at http://mozilla.org/MPL/2.0/. -->
<svg version="1.1" viewBox="0 0 300 300" xmlns="http://www.w3.org/2000/svg">
  <defs>
    <linearGradient id="a" x1="-300.02" x2="547.14" y1="-272.74" y2="574.42" gradientUnits="userSpaceOnUse">
      <stop stop-color="#ccfbff" offset="0"/>
      <stop stop-color="#c9e4ff" offset="1"/>
    </linearGradient>
    <linearGradient id="b" x1="-18.672" x2="279.8" y1="23.78" y2="322.26" gradientUnits="userSpaceOnUse">
      <stop stop-color="#00c8d7" offset="0"/>
      <stop stop-color="#0a84ff" offset="1"/>
    </linearGradient>
  </defs>
  <path d="m267.46 87.073h-27.583c-2.347-4.377-8.617-14.64-16.509-16.145-10.217-1.948-12.254 8.237-12.254 8.237s-6.79-17.654-23.97-15.315c-19.262 2.623-10.189 22.9-10.189 22.9h-29l16.568 0.323h-16.569a1 1 0 0 0 0 2h119.51a1 1 0 0 0 0-2z" fill="#fff" fill-opacity=".70196"/>
  <path d="M100.384 63.259H84.836c-1.212-2.3-4.758-8.29-9.271-9.15-5.682-1.083-6.814 4.58-6.814 4.58s-3.776-9.817-13.33-8.517c-10.712 1.458-5.666 12.735-5.666 12.735H33.629l18.049.352H33.924a1 1 0 1 0 0 2h66.46a1 1 0 0 0 0-2z" fill="#fff" fill-opacity=".70196"/>
  <g fill="#eaeaee" fill-opacity=".4">
    <path d="M122.246 134H26.93a1 1 0 1 1 0-2h95.316a1 1 0 1 1 0 2z"/>
    <path d="M106.678 127.455H60.912a.5.5 0 1 1 0-1h45.766a.5.5 0 0 1 0 1z"/>
    <path d="m245.16 186.75h-90.336a1 1 0 0 1 0-2h90.336a1 1 0 0 1 0 2z"/>
  </g>
  <g fill="none" stroke="#eaeaee" stroke-dasharray="12 8 3 4 1 9" stroke-linecap="round" stroke-linejoin="round">
    <path d="m132.52 192.78h135.95" stroke-opacity=".4"/>
    <path d="m148.46 82.782h29s-9.074-20.277 10.189-22.9c17.18-2.339 23.97 15.315 23.97 15.315s2.037-10.185 12.254-8.237c10.074 1.921 17.511 16.634 17.511 16.634h25.25" stroke-opacity=".43529"/>
    <path d="M34.125 60.429H50.25s-5.05-11.276 5.667-12.735c9.554-1.3 13.33 8.517 13.33 8.517s1.133-5.664 6.814-4.58c5.6 1.068 9.738 8.589 9.738 8.589h14.042" stroke-opacity=".43529"/>
  </g>
  <ellipse cx="149.78" cy="243.18" rx="77.947" ry="6.445" fill="#fefeff" fill-opacity=".47843"/>
  <path d="m221.88 77.056h-143.87a10.312 10.312 0 0 0-10.3 10.3v134.03a9.824 9.824 0 0 0 9.95 9.669h144.57a9.824 9.824 0 0 0 9.95-9.669v-134.03a10.313 10.313 0 0 0-10.3-10.3z" fill="#fff" fill-opacity=".80392"/>
  <path d="M221.876 81.89H78.01a5.306 5.306 0 0 0-5.3 5.3v134.027a4.821 4.821 0 0 0 4.95 4.669h144.566a4.821 4.821 0 0 0 4.95-4.669V87.19a5.307 5.307 0 0 0-5.3-5.3z" fill="#f9f9fa"/>
  <g fill="url(#a)">
    <path d="M76.368 105.543V219c0 2.28.84 3.13 3.12 3.13H220.4c2.28 0 3.12-.85 3.12-3.13V105.543zM185 200.6a3.693 3.693 0 0 1-3.693 3.693h-60.762a3.693 3.693 0 0 1-3.693-3.693v-78.762a3.693 3.693 0 0 1 3.693-3.693h44.971L185 137.421z"/>
    <path d="M187.187 193.93h-16.773a2.625 2.625 0 0 1-1.924-.89l-5.326-5.759a2.924 2.924 0 0 1 0-3.894l5.326-5.759a2.625 2.625 0 0 1 1.924-.89h16.773c1.6 0 2.9 1.582 2.9 3.534V190.4c-.001 1.948-1.299 3.53-2.9 3.53z"/>
    <path d="m187.19 166.02h-16.773a2.625 2.625 0 0 1-1.924-0.89l-5.326-5.759a2.924 2.924 0 0 1 0-3.894l5.326-5.759a2.625 2.625 0 0 1 1.924-0.89h16.773c1.6 0 2.9 1.582 2.9 3.534v10.126c-1e-3 1.949-1.299 3.532-2.9 3.532z"/>
  </g>
  <g fill="url(#b)">
    <path d="M221.876 81.891a5.307 5.307 0 0 1 5.3 5.3v134.026a4.821 4.821 0 0 1-4.95 4.669H77.66a4.821 4.821 0 0 1-4.95-4.669V87.19a5.306 5.306 0 0 1 5.3-5.3h143.866m0-2H78.01a7.308 7.308 0 0 0-7.3 7.3v134.027a6.822 6.822 0 0 0 6.95 6.669h144.566a6.822 6.822 0 0 0 6.95-6.669V87.19a7.309 7.309 0 0 0-7.3-7.3z"/>
    <circle cx="85.771" cy="93.32" r="3.241"/>
    <circle cx="96.226" cy="93.32" r="3.241"/>
    <path d="M186.093 96.986h-72.3a3.509 3.509 0 0 1-3.509-3.509v-.313a3.509 3.509 0 0 1 3.509-3.509h72.3a3.509 3.509 0 0 1 3.509 3.509v.313a3.509 3.509 0 0 1-3.509 3.509z"/>
    <circle cx="203.66" cy="93.32" r="3.241"/>
    <circle cx="214.12" cy="93.32" r="3.241"/>
    <path d="m157.13 131.14h-31.754a1.351 1.351 0 1 1 0-2.7h31.755a1.351 1.351 0 1 1 0 2.7z"/>
    <path d="m153.61 139.09a1.351 1.351 0 0 0-1.351-1.351h-26.882a1.351 1.351 0 0 0 0 2.7h26.882a1.351 1.351 0 0 0 1.351-1.349z"/>
    <path d="m164.68 148.39a1.351 1.351 0 0 0-1.351-1.351h-37.949a1.351 1.351 0 0 0 0 2.7h37.949a1.351 1.351 0 0 0 1.351-1.349z"/>
    <path d="m159.66 157.69a1.351 1.351 0 0 0-1.351-1.351h-32.938a1.351 1.351 0 0 0 0 2.7h32.938a1.351 1.351 0 0 0 1.351-1.349z"/>
    <path d="m153.61 166.99a1.351 1.351 0 0 0-1.351-1.351h-26.882a1.351 1.351 0 1 0 0 2.7h26.882a1.351 1.351 0 0 0 1.351-1.349z"/>
    <path d="m164.68 176.29a1.351 1.351 0 0 0-1.351-1.351h-37.949a1.351 1.351 0 1 0 0 2.7h37.949a1.351 1.351 0 0 0 1.351-1.349z"/>
    <path d="m159.67 185.59a1.351 1.351 0 0 0-1.351-1.351h-32.945a1.351 1.351 0 1 0 0 2.7h32.944a1.351 1.351 0 0 0 1.352-1.349z"/>
    <path d="m164.68 194.89a1.351 1.351 0 0 0-1.351-1.351h-37.949a1.351 1.351 0 1 0 0 2.7h37.949a1.351 1.351 0 0 0 1.351-1.349z"/>
    <path d="M165.517 118.145l19.276 19.276h-15.179a4.1 4.1 0 0 1-4.1-4.1v-15.176m0-1a1 1 0 0 0-1 1v15.179a5.1 5.1 0 0 0 5.1 5.1h15.179a1 1 0 0 0 .707-1.707l-19.276-19.276a1 1 0 0 0-.707-.293z"/>
    <path d="M187.187 178.737c.367 0 .9.6.9 1.534V190.4c0 .936-.532 1.534-.9 1.534h-16.773a.689.689 0 0 1-.455-.248l-5.326-5.759a.932.932 0 0 1 0-1.178l5.326-5.759a.688.688 0 0 1 .455-.248h16.773m0-2h-16.773a2.625 2.625 0 0 0-1.924.89l-5.326 5.759a2.924 2.924 0 0 0 0 3.894l5.326 5.759a2.626 2.626 0 0 0 1.924.89h16.773c1.6 0 2.9-1.582 2.9-3.534v-10.129c0-1.952-1.3-3.534-2.9-3.534z"/>
    <path d="M187.187 150.827c.367 0 .9.6.9 1.534v10.126c0 .936-.532 1.534-.9 1.534h-16.773a.689.689 0 0 1-.455-.248l-5.326-5.759a.932.932 0 0 1 0-1.178l5.326-5.76a.687.687 0 0 1 .455-.248h16.773m0-2h-16.773a2.624 2.624 0 0 0-1.924.89l-5.326 5.759a2.924 2.924 0 0 0 0 3.894l5.326 5.759a2.626 2.626 0 0 0 1.924.89h16.773c1.6 0 2.9-1.582 2.9-3.534v-10.125c0-1.952-1.3-3.534-2.9-3.534z"/>
    <path d="M186.408 136l-19.485-19.276a2 2 0 0 0-1.407-.578h-44.971a5.7 5.7 0 0 0-5.693 5.693V200.6a5.7 5.7 0 0 0 5.693 5.693h60.763A5.693 5.693 0 0 0 187 200.6v-8.67h-2v8.67a3.693 3.693 0 0 1-3.693 3.693h-60.762a3.693 3.693 0 0 1-3.693-3.693v-78.762a3.693 3.693 0 0 1 3.693-3.693h44.971L185 137.421v13.406h2v-13.406a2 2 0 0 0-.592-1.421zM185 178.737h2v-14.716h-2z"/>
    <path d="m180.31 205.81h-58.763a5.7 5.7 0 0 1-5.693-5.693v4.667a5.7 5.7 0 0 0 5.693 5.693h58.763a5.693 5.693 0 0 0 5.692-5.694v-4.667a5.693 5.693 0 0 1-5.693 5.693z"/>
  </g>
</svg>
