<!-- This Source Code Form is subject to the terms of the Mozilla Public
   - License, v. 2.0. If a copy of the MPL was not distributed with this
   - file, You can obtain one at http://mozilla.org/MPL/2.0/. -->
<svg width="86" height="75" viewBox="0 0 86 75" xmlns="http://www.w3.org/2000/svg">
   <g clip-path="url(#clip0_2596_370)">
      <path opacity="0.15" d="M-32.2509 3.89178C-39.3164 3.89178 -36.978 38.4248 -30.431 36.67L5.28804 16.0426C3.88421 12.6649 4.02642 11.124 5.01895 7.7137L-32.2509 3.89178ZM74.5878 3.89178L37.3178 7.7137C38.5601 11.1173 38.2117 12.7597 37.0487 16.0426L72.7678 36.67C81.5915 39.0349 81.1921 3.89178 74.5878 3.89178ZM8.61551 20.2996L-25.8037 62.8118C-33.8243 76.7073 -8.13945 92.6985 0.0177116 78.5664L14.1449 25.8303L8.61551 20.2996ZM33.7215 20.2996L28.1919 25.8303L42.319 78.5664C52.6162 96.406 80.9781 85.0527 68.1405 62.8118L33.7215 20.2996Z" fill="url(#paint0_radial_2596_370)"/>
      <path d="M32.8999 16.639C34.2195 15.3202 34.8865 13.7959 34.8865 11.9504C34.8865 10.1048 34.2195 8.196 32.8999 6.87728C31.5803 5.55856 29.8582 4.89917 28.1361 4.89917C26.414 4.89917 24.6918 6.02275 23.3722 7.34147L21.7842 8.92844L20.1962 7.34147C18.8766 6.02275 17.1545 4.89917 15.4324 4.89917C13.7102 4.89917 11.9881 5.55856 10.6685 6.87728C9.34887 8.196 8.69629 10.1048 8.69629 11.9504C8.69629 13.7959 9.34887 15.3202 10.6685 16.639C13.9348 19.8238 16.9546 22.8282 20.0391 26.188C20.4754 26.624 21.1298 27.0601 21.7842 27.0601C22.4386 27.0601 23.093 26.624 23.5292 26.188C26.5508 22.7716 29.6759 19.861 32.8999 16.639Z" fill-opacity="context-fill-opacity" fill="context-fill"/>
      <path d="M15.4336 3.89258C13.4543 3.89258 11.4658 4.65623 9.95508 6.16602C8.40914 7.71091 7.68945 9.86819 7.68945 11.9512C7.68945 14.0342 8.47841 15.8777 9.95508 17.3535L9.96289 17.3613C13.2247 20.5417 16.2316 23.5283 19.2969 26.8672C19.3072 26.8779 19.3174 26.8881 19.3281 26.8984C19.883 27.4529 20.6812 28.0684 21.7832 28.0684C22.8852 28.0684 23.6873 27.4529 24.2422 26.8984C24.2557 26.8843 24.2686 26.8703 24.2812 26.8555C26.4782 24.3714 28.7453 22.1461 31.082 19.8516C31.9162 19.0324 32.759 18.2052 33.6113 17.3535C35.0854 15.8803 35.8945 14.0395 35.8945 11.9512C35.8945 9.86293 35.1546 7.7083 33.6113 6.16602C32.1005 4.65623 30.1141 3.89258 28.1348 3.89258C25.9746 3.89258 24.0874 5.2046 22.6602 6.63086L21.7832 7.50391L20.9102 6.63086C19.483 5.20462 17.5939 3.89258 15.4336 3.89258ZM15.4336 5.90625C16.7176 5.90625 18.2743 6.84349 19.4863 8.05469L21.0723 9.64062C21.2612 9.82946 21.5161 9.93555 21.7832 9.93555C22.0503 9.93555 22.3072 9.82946 22.4961 9.64062L24.0859 8.05469C25.2979 6.84351 26.8509 5.90625 28.1348 5.90625C29.5998 5.90625 31.0591 6.46219 32.1875 7.58984C33.2834 8.68498 33.8789 10.3484 33.8789 11.9512C33.8789 13.5541 33.3526 14.7594 32.1875 15.9238C31.3642 16.7466 30.5448 17.5515 29.7305 18.3516C27.3864 20.6548 25.0805 22.9213 22.8184 25.4746C22.5008 25.792 21.99 26.0527 21.7832 26.0527C21.5764 26.0527 21.0696 25.7921 20.752 25.4746C17.661 22.1095 14.6365 19.1002 11.3789 15.9238C10.2164 14.762 9.70312 13.5593 9.70312 11.9512C9.70312 10.3431 10.2857 8.68237 11.3789 7.58984C12.5073 6.4622 13.9686 5.90625 15.4336 5.90625ZM15.1777 7.92188C15.0645 7.92743 14.9545 7.98976 14.8906 8.09766C14.8063 8.24019 14.8595 8.3294 14.9512 8.48438C14.9672 8.51141 14.9842 8.54065 15.002 8.57227C15.6181 9.66614 15.6791 9.246 15.4727 8.44141C15.4495 8.35112 15.4491 8.27303 15.4492 8.20508C15.4493 8.09885 15.4501 8.01935 15.3613 7.9668C15.3112 7.93712 15.2561 7.92292 15.2012 7.92188C15.1936 7.92173 15.1853 7.9215 15.1777 7.92188ZM13.9766 8.38672C13.85 8.39679 13.7996 8.59909 13.9355 8.96875C14.1506 9.5302 14.7806 9.59492 14.4434 8.88086C14.3275 8.63541 14.2001 8.48524 14.0938 8.42188C14.0556 8.3992 14.0195 8.38727 13.9883 8.38672C13.984 8.38664 13.9806 8.38639 13.9766 8.38672ZM28.3027 8.53516C28.2477 8.5362 28.1928 8.5504 28.1426 8.58008C28.0538 8.63263 28.0546 8.71214 28.0547 8.81836C28.0548 8.88632 28.0543 8.96634 28.0312 9.05664C27.8248 9.86123 27.8859 10.2814 28.502 9.1875C28.5198 9.15588 28.5367 9.12664 28.5527 9.09961C28.6443 8.94463 28.6976 8.85542 28.6133 8.71289C28.5453 8.59781 28.4236 8.53287 28.3027 8.53516ZM12.6855 8.82812C12.5611 8.82955 12.4245 8.91381 12.3574 9.02734C12.2551 9.20032 12.3152 9.4238 12.4902 9.52734C12.6651 9.63088 13.2566 9.90402 13.4355 9.8125C13.5854 9.73578 13.1303 9.19762 12.8594 8.90039C12.8423 8.88159 12.8232 8.86865 12.8027 8.85742C12.7668 8.83777 12.727 8.82765 12.6855 8.82812ZM29.502 9.00195C29.4737 9.00482 29.4435 9.01531 29.4102 9.03516C29.3037 9.09853 29.1764 9.25063 29.0605 9.49609C28.7233 10.2102 29.3514 10.1435 29.5664 9.58203C29.7067 9.20044 29.6492 8.99957 29.5137 9.00195C29.5098 9.00202 29.506 9.00154 29.502 9.00195ZM30.8027 9.44336C30.7667 9.44496 30.7306 9.45351 30.6992 9.4707C30.6787 9.48194 30.6597 9.49684 30.6426 9.51562C30.3717 9.81285 29.9184 10.351 30.0684 10.4277C30.2473 10.5192 30.8387 10.2461 31.0137 10.1426C31.1887 10.039 31.2468 9.8136 31.1445 9.64062C31.0773 9.5271 30.9408 9.44479 30.8164 9.44336C30.8112 9.4433 30.8079 9.44313 30.8027 9.44336ZM12.1504 10.2285C12.0323 10.2338 11.8944 10.3197 11.834 10.4219C11.7385 10.5833 11.7992 10.795 11.9707 10.8965C12.1421 10.9979 12.9 11.0415 12.9785 10.8711C13.0188 10.7837 12.8755 10.7055 12.709 10.6133C12.5572 10.5294 12.3863 10.4342 12.3164 10.3125C12.3009 10.2855 12.2811 10.2657 12.2578 10.252C12.2264 10.2336 12.1898 10.2267 12.1504 10.2285ZM31.3242 10.8418C31.2957 10.8439 31.2696 10.8514 31.2461 10.8652C31.2228 10.8789 31.201 10.8988 31.1855 10.9258C31.1156 11.0476 30.9448 11.1427 30.793 11.2266C30.6265 11.3186 30.4831 11.399 30.5234 11.4863C30.6019 11.6567 31.3618 11.6131 31.5332 11.5117C31.7046 11.4102 31.7654 11.1967 31.6699 11.0352C31.6095 10.9331 31.4716 10.8471 31.3535 10.8418C31.3437 10.8413 31.3337 10.8411 31.3242 10.8418ZM12.4043 11.6895C12.3242 11.6942 12.253 11.7151 12.1895 11.7832C12.0526 11.9302 12.0764 12.0928 12.2773 12.1328C12.4141 12.16 12.516 12.1317 12.625 12.041C12.799 11.896 12.8115 11.7878 12.7207 11.7324C12.6795 11.7072 12.6174 11.6936 12.5391 11.6914C12.5336 11.6913 12.5269 11.6896 12.5215 11.6895C12.4926 11.6886 12.4662 11.6892 12.4395 11.6895C12.4276 11.6896 12.4157 11.6888 12.4043 11.6895ZM31.0234 12.3027C31.0095 12.303 30.9949 12.3042 30.9805 12.3047C30.9751 12.3048 30.9703 12.3046 30.9648 12.3047C30.8866 12.3069 30.8244 12.3225 30.7832 12.3477C30.6924 12.4031 30.7049 12.5093 30.8789 12.6543C30.9879 12.745 31.0898 12.7733 31.2266 12.7461C31.4275 12.7061 31.4494 12.5434 31.3125 12.3965C31.24 12.3186 31.1594 12.3038 31.0645 12.3027C31.0511 12.3026 31.0373 12.3025 31.0234 12.3027ZM25.1465 20.6152C24.9935 20.6233 24.9036 20.7882 24.7891 20.998C24.7045 21.1529 24.6055 21.3335 24.459 21.4922C24.4261 21.5279 24.3941 21.5624 24.3613 21.5977C23.9211 22.0712 23.5184 22.5034 23.9395 22.7188C24.6634 23.0712 25.5834 20.7796 25.2207 20.625C25.2149 20.6226 25.2076 20.6204 25.2012 20.6191C25.1817 20.6156 25.1642 20.6143 25.1465 20.6152Z" fill-opacity="context-stroke-opacity" fill="context-stroke"/>
   </g>
   <defs>
      <radialGradient id="paint0_radial_2596_370" cx="0" cy="0" r="1" gradientUnits="userSpaceOnUse" gradientTransform="translate(21.1358 16.6519) rotate(90) scale(66.7535 51.6701)">
         <stop stop-color="#EF4444"/>
         <stop offset="1" stop-color="#EF4444" stop-opacity="0"/>
      </radialGradient>
      <clipPath id="clip0_2596_370">
         <rect width="86" height="75" fill="white"/>
      </clipPath>
   </defs>
</svg>
