<!-- This Source Code Form is subject to the terms of the Mozilla Public
   - License, v. 2.0. If a copy of the MPL was not distributed with this
   - file, You can obtain one at http://mozilla.org/MPL/2.0/. -->
<svg width="283" height="127" viewBox="0 0 283 127" fill="none" xmlns="http://www.w3.org/2000/svg">
<g clip-path="url(#clip0_2565_357)">
<rect width="283" height="127" fill="url(#paint0_linear_2565_357)"/>
<path opacity="0.5" d="M82.1735 83.035C83.9483 83.035 85.6873 83.1879 87.3782 83.4811C89.8265 71.4499 100.466 62.396 113.22 62.396C117.82 62.396 122.145 63.5737 125.91 65.644C131.662 58.0951 140.747 53.2231 150.97 53.2231C153.248 53.2231 155.469 53.465 157.61 53.9244C161.538 35.6766 177.765 22 197.187 22C212.073 22 225.083 30.0341 232.116 42.0027C233.504 41.8404 234.917 41.757 236.349 41.757C253.171 41.757 267.304 53.2714 271.296 68.8488C272.953 68.4365 274.69 68.2173 276.48 68.2173C287.976 68.2173 297.296 77.2602 297.296 88.4153C297.296 88.8001 297.284 89.1824 297.263 89.5619H297.296L297.296 157.829C297.296 157.869 297.296 157.909 297.296 157.948V173H-1V144.776H-0.999397C-0.904564 130.925 10.3526 119.727 24.2255 119.727H48.5499C48.1002 117.652 47.8633 115.498 47.8633 113.288C47.8633 96.5797 61.408 83.035 78.1162 83.035H82.1735Z" fill="#E3E5F2"/>
<path opacity="0.7" d="M-0.907665 144.07C-0.968863 143.285 -1 142.49 -1 141.689C-1 124.981 12.5447 111.436 29.2529 111.436H39.4205C40.0208 97.403 51.5874 86.2105 65.7681 86.2105C70.368 86.2105 74.6928 87.3881 78.4575 89.4584C84.2097 81.9096 93.2949 77.0376 103.518 77.0376C105.796 77.0376 108.017 77.2794 110.158 77.7389C114.086 59.4911 130.313 45.8145 149.735 45.8145C164.621 45.8145 177.631 53.8485 184.664 65.8171C186.052 65.6549 187.465 65.5715 188.897 65.5715C205.719 65.5715 219.852 77.0859 223.844 92.6632C225.501 92.251 227.238 92.0317 229.028 92.0317C240.25 92.0317 249.398 100.649 249.828 111.436H267.043C283.751 111.436 297.296 124.981 297.296 141.689C297.296 142.49 297.264 143.285 297.203 144.07H297.296V173H-1V144.07H-0.907665Z" fill="#FAFAFA"/>
<path opacity="0.5" d="M175.217 113.376C175.225 113.113 175.229 112.848 175.229 112.583C175.229 98.0177 163.422 86.2105 148.857 86.2105C144.257 86.2105 139.932 87.3881 136.168 89.4584C130.415 81.9096 121.33 77.0376 111.107 77.0376C108.829 77.0376 106.608 77.2794 104.467 77.7389C100.539 59.4911 84.3117 45.8145 64.8897 45.8145C50.0039 45.8145 36.9945 53.8485 29.9611 65.8171C28.5728 65.6549 27.1603 65.5715 25.7285 65.5715C8.90632 65.5715 -0.90824 77.0376 -0.908297 92.0317C-0.908281 96.2654 -0.908202 102.88 -0.908366 107.202C-0.908366 111.524 -0.908261 109.807 -0.908261 120.962C-0.908261 123.696 -0.930118 127.462 -0.90824 127.841V136.926V172.912H263.022L263.077 168.502C263.077 168.092 263.059 167.686 263.022 167.285C263.059 166.784 263.077 166.278 263.077 165.768C263.077 154.369 253.837 145.129 242.438 145.129H217.045C213.259 131.986 201.144 122.373 186.783 122.373C182.704 122.373 178.806 123.148 175.229 124.56V113.376H175.217Z" fill="white"/>
<path d="M69.0918 153.739C68.9538 153.782 68.7997 153.773 68.6616 153.701C68.5924 153.666 68.523 153.63 68.4535 153.594C67.7049 153.21 66.9428 152.819 66.2905 152.264C66.1011 152.103 65.9245 151.923 65.7605 151.728C65.5691 152.383 65.2698 153.007 64.8661 153.557C64.5916 153.931 64.0093 153.836 63.8672 153.395C63.7941 153.168 63.7223 152.95 63.6517 152.737C63.5919 152.555 63.5329 152.377 63.4748 152.197C63.4502 152.158 63.4355 152.113 63.4321 152.067C63.4112 152.001 63.3862 151.931 63.366 151.865C63.1384 152.131 62.8717 152.383 62.4947 152.696C62.0882 153.033 61.4816 152.682 61.5718 152.161C61.7446 151.168 61.8142 149.894 61.6032 148.787C61.3945 147.693 60.9362 146.81 60.1042 146.351C54.5287 144.894 50.6323 141.854 48.0553 137.815C45.6148 133.991 44.348 129.289 43.8028 124.179C42.0129 125.414 40.5869 126.078 38.0184 126.407C37.5949 126.461 37.2651 126.046 37.4132 125.646C37.7324 124.782 38.0005 123.892 38.2612 122.993C36.1375 123.616 34.5061 123.779 32.0611 122.782C31.5748 122.584 31.5946 121.889 32.0913 121.718C33.6127 121.197 35.0427 120.429 36.4245 119.547C34.7409 119.831 33.0412 119.734 31.414 119.308C28.3162 118.498 25.4686 116.558 23.3591 113.992C23.1703 113.762 23.1905 113.425 23.4055 113.22C24.2794 112.384 24.8803 111.891 25.5274 111.554C24.4522 111.42 23.4382 111.197 22.479 110.825C20.5212 110.065 18.8187 108.682 17.3488 106.354C17.1354 106.016 17.3285 105.569 17.7209 105.493C18.9404 105.255 20.1129 104.915 21.2809 104.575C22.4611 104.232 23.6366 103.891 24.8512 103.659C21.6778 102.869 18.6807 101.808 16.0846 100.199C12.2208 97.8047 9.25989 94.1751 8.01451 88.6134C7.90521 88.1247 8.43537 87.7436 8.86362 88.0031C11.7195 89.7351 13.7827 90.6854 16.3929 91.2785C13.8948 89.6608 12.0677 87.3872 10.8418 84.7752C9.07955 81.0203 8.49152 76.5993 8.67077 72.4133C8.69643 71.8254 9.48875 71.6591 9.74852 72.1871C11.2579 75.2593 14.9327 77.7568 18.4629 79.7518C16.0158 77.1488 14.0969 74.4247 12.8949 71.431C11.2488 67.3312 10.9603 62.7412 12.4199 57.3977C12.5733 56.8383 13.3673 56.841 13.517 57.4013C15.2028 63.7417 17.5006 67.6288 21.8815 71.4813C15.7129 61.3851 16.4713 49.6321 20.8146 38.364C20.9114 38.1132 21.1706 37.9646 21.4359 38.0076C21.7012 38.0507 21.9001 38.2737 21.9126 38.5422C22.5169 51.4734 28.8364 64.0017 35.4503 75.1225C37.4048 69.7225 39.3816 66.6594 44.9588 63.5938C45.3734 63.3661 45.8684 63.7151 45.7935 64.1822C45.1682 68.0641 43.5249 72.8441 41.8056 77.8448C40.0101 83.0674 38.1318 88.5307 37.2439 93.4634C36.3749 98.2913 36.4716 102.551 38.3625 105.539C39.8981 107.965 42.6719 109.648 47.2991 110.203C47.2001 110.158 47.101 110.114 47.0019 110.07C46.577 109.88 46.1523 109.69 45.7413 109.493C45.7343 109.49 45.7274 109.486 45.7205 109.483C42.9788 108.03 40.7807 106.014 39.6089 103.385C38.6325 101.195 38.8111 98.9101 39.3045 96.743C39.5446 95.6884 39.8585 94.6527 40.1613 93.6539C40.4806 92.6003 40.7875 91.5877 40.9822 90.6374C41.9269 86.0252 45.895 80.0168 53.7398 77.8555C53.3282 76.5243 53.1777 75.0964 53.2625 73.4608C53.2879 72.974 53.8738 72.7428 54.2246 73.0811C55.0693 73.8963 55.7313 74.871 56.3775 75.8223C56.4862 75.9823 56.5945 76.1417 56.7031 76.2996C56.5278 75.3799 56.5763 74.5651 56.7955 73.7886C57.0823 72.7726 57.6109 71.8532 58.224 70.7871C58.5458 70.2277 58.8908 69.6277 59.2362 68.9522C59.3255 68.7779 59.4982 68.6618 59.6933 68.645C59.8883 68.6281 60.0782 68.7128 60.1961 68.8692C61.6528 70.8052 62.5643 72.067 62.8219 73.5304C62.9494 74.2548 62.9016 74.988 62.6992 75.8205C63.6423 74.9769 64.5111 74.5804 65.7385 74.07C66.081 73.9276 66.4658 74.1462 66.5191 74.5132C66.7393 76.0283 66.6306 77.2314 66.2535 78.278C73.392 80.7305 77.4401 87.7736 78.6277 94.2342C78.6559 94.3875 78.6858 94.5465 78.7166 94.7106C79.0446 96.456 79.4832 98.7897 79.1879 101.246C78.8649 103.934 77.6194 106.781 74.4618 109.044L74.4499 109.046C74.4434 109.053 74.4367 109.059 74.4299 109.065C74.4158 109.074 74.399 109.083 74.3822 109.093C74.3657 109.102 74.3491 109.111 74.335 109.12C74.039 109.319 73.7032 109.514 73.3333 109.704C73.2143 109.774 73.0982 109.843 72.9827 109.912C72.7066 110.077 72.4335 110.241 72.1307 110.405C77.4633 110.347 94 124 91.5 128.5C91.2874 134.833 83.2661 132.687 82 138.5C81.2707 138.146 80.577 137.706 79.8052 137.161C79.8391 138.044 79.8253 138.906 79.788 139.76C80.2014 139.532 80.6639 139.365 81.2417 139.288C81.4532 139.26 81.6542 139.352 81.7737 139.513C79.6371 148.841 74.9158 144.191 70.5274 151.458C70.4271 151.363 70.3335 151.263 70.246 151.157C70.1457 151.635 70.0167 152.111 69.8356 152.581C69.5905 152.971 69.3426 153.357 69.0918 153.739Z" fill="#DEE8F8"/>
<path d="M76.3733 139.594C75.8108 141.015 75.2162 142.407 74.5907 143.767C73.8951 143.202 73.1699 142.687 72.3643 142.263C70.3274 144.464 69.3103 145.517 66.2516 145.187C66.2516 145.187 65.8695 145.084 65.8095 144.923C65.7371 144.682 66.0277 144.425 66.2435 144.308C75.6149 137.339 76.3398 126.974 76.3151 116.054C77.358 119.683 77.9685 123.532 77.7713 127.278L79.9302 126.585C80.1675 127.356 79.9878 127.854 79.7319 128.562L79.706 128.634C79.7843 128.591 79.8631 128.549 79.9423 128.509C79.3003 131.041 78.5635 133.509 77.7381 135.904C77.136 137.01 76.4589 138.048 75.7873 138.893C75.9801 139.089 76.178 139.327 76.3733 139.594Z" fill="#C0D3EE"/>
<path d="M73.8103 145.416C73.7546 145.53 73.6986 145.644 73.6425 145.758C73.6143 145.525 73.5976 145.318 73.6027 145.155C73.6734 145.232 73.7427 145.319 73.8103 145.416Z" fill="#C0D3EE"/>
<path d="M72.7 147.608C72.0931 148.76 71.4631 149.887 70.8108 150.986C70.5616 150.693 70.3486 150.324 70.1139 149.782L70.1104 149.795C69.793 150.956 69.4804 152.099 68.926 153.178L66.4813 151.784C68.2193 150.783 68.9013 149.467 69.4609 147.808C69.5676 147.41 70.2756 147.886 70.2756 147.886L70.9732 150.396C71.0061 150.321 71.0402 150.243 71.0751 150.163C71.5047 149.183 72.0589 147.918 72.1084 146.846L72.7 147.608Z" fill="#C0D3EE"/>
<path d="M26.0848 75.3986C17.1734 66.2072 16.1719 52.3747 20.9616 40.8872C19.9388 52.0289 20.2958 64.0541 25.4577 74.2118L26.0848 75.3986Z" fill="#C0D3EE"/>
<path d="M12.9573 58.8129C10.7517 68.2864 14.5096 77.8509 23.2742 82.6602C17.2663 76.6499 13.357 67.936 12.9573 58.8129Z" fill="#C0D3EE"/>
<path d="M21.7902 92.2296C11.937 90.5403 9.45338 81.3495 9.51788 73.834C9.73672 74.454 9.94805 75.0667 10.1568 75.6721C12.3655 82.0757 14.2893 87.6532 21.7902 92.2296Z" fill="#C0D3EE"/>
<path d="M35.8116 81.3177C35.8149 81.3176 35.8182 81.3176 35.8215 81.3177C35.9747 81.3202 36.0451 81.426 36.1379 81.5655C36.2005 81.6596 36.2733 81.769 36.3887 81.8725C36.9666 82.3912 37.3156 82.8193 37.1792 82.9269C37.0732 83.0106 36.6733 82.9004 35.8592 82.4873C35.8055 82.46 35.7551 82.4358 35.7082 82.4132C35.4384 82.2834 35.2822 82.2082 35.2673 81.9333C35.2553 81.7114 35.3652 81.5152 35.5323 81.4034C35.6083 81.3526 35.6992 81.3235 35.796 81.3182C35.8013 81.3179 35.8065 81.3177 35.8116 81.3177Z" fill="#C0D3EE"/>
<path d="M34.5634 82.7718C34.6005 82.7567 34.6347 82.7496 34.6669 82.749C34.7916 82.7467 34.8862 82.8432 35.0049 82.9642C35.1005 83.0617 35.2116 83.175 35.3667 83.2655C36.1435 83.719 36.6476 84.1392 36.5338 84.3252C36.4453 84.4699 35.9828 84.473 34.9846 84.2389C34.9188 84.2235 34.8574 84.2107 34.8002 84.1987C34.4715 84.1302 34.2812 84.0905 34.1821 83.7454C34.1021 83.4669 34.1608 83.1774 34.3064 82.9749C34.3726 82.8829 34.4612 82.8132 34.5634 82.7718Z" fill="#C0D3EE"/>
<path d="M34.3758 84.9167C34.3985 84.9063 34.4194 84.9012 34.4393 84.9006C34.4971 84.8987 34.5467 84.9333 34.608 84.9758C34.6607 85.0125 34.722 85.0552 34.8045 85.0857C35.2179 85.2389 35.4917 85.3918 35.4422 85.4771C35.4036 85.5434 35.1693 85.5687 34.6533 85.5206C34.6191 85.5175 34.5874 85.5152 34.5578 85.5131C34.3884 85.5009 34.2903 85.4939 34.2251 85.3519C34.1724 85.2372 34.1896 85.1105 34.2545 85.0166C34.2841 84.974 34.3258 84.9397 34.3758 84.9167Z" fill="#C0D3EE"/>
<path d="M33.6169 86.1335C33.6682 86.108 33.7163 86.0972 33.7642 86.0966C33.8499 86.0955 33.935 86.1268 34.0367 86.1643C34.1382 86.2017 34.2562 86.2452 34.408 86.2687C35.1686 86.3864 35.686 86.5324 35.6225 86.6542C35.5731 86.7489 35.1721 86.8292 34.2609 86.8698C34.2008 86.8725 34.1451 86.8759 34.0931 86.879C33.7948 86.8971 33.6221 86.9075 33.4706 86.7344C33.3484 86.5946 33.3443 86.4251 33.4323 86.2889C33.4723 86.227 33.536 86.1736 33.6169 86.1335Z" fill="#C0D3EE"/>
<path d="M33.6743 87.6983C33.697 87.6879 33.7177 87.6829 33.7376 87.6822C33.7954 87.6804 33.845 87.7148 33.9063 87.7574C33.959 87.794 34.0203 87.8365 34.1027 87.8671C34.5162 88.0202 34.7899 88.1734 34.7404 88.2587C34.7019 88.325 34.4675 88.3504 33.9515 88.3023C33.9174 88.2991 33.8856 88.2968 33.8561 88.2947C33.6867 88.2825 33.5889 88.2755 33.5236 88.1335C33.471 88.0189 33.4878 87.8922 33.5528 87.7982C33.5823 87.7556 33.6243 87.7213 33.6743 87.6983Z" fill="#C0D3EE"/>
<path d="M32.7039 88.9803C32.7706 88.9391 32.8336 88.9218 32.8968 88.9212C33.0097 88.9202 33.123 88.9723 33.2585 89.0346C33.3938 89.0967 33.551 89.1689 33.752 89.2088C34.7591 89.4084 35.4469 89.6519 35.3681 89.8505C35.3068 90.0049 34.7815 90.1324 33.5822 90.1905C33.5032 90.1943 33.43 90.1993 33.3618 90.2039C32.9691 90.2307 32.7419 90.2462 32.5352 89.9615C32.3685 89.7318 32.3564 89.4549 32.467 89.2329C32.5172 89.132 32.5989 89.0453 32.7039 88.9803Z" fill="#C0D3EE"/>
<path d="M9.01758 88.9595C10.881 95.9398 17.4154 103.086 30.7197 103.641C21.3661 100.785 13.4679 94.9114 9.01758 88.9595Z" fill="#C0D3EE"/>
<path d="M32.9709 91.1908C32.9998 91.1712 33.0269 91.1627 33.0541 91.1619C33.1028 91.1604 33.1514 91.1834 33.2096 91.2109C33.2676 91.2383 33.3351 91.2702 33.4215 91.2868C33.8545 91.3698 34.1495 91.4757 34.1147 91.568C34.0876 91.6397 33.8607 91.7033 33.3438 91.7409C33.3097 91.7434 33.278 91.7463 33.2486 91.7491C33.0794 91.765 32.9815 91.7742 32.8937 91.6448C32.8229 91.5404 32.8191 91.4126 32.8677 91.3093C32.8898 91.2624 32.9254 91.2216 32.9709 91.1908Z" fill="#C0D3EE"/>
<path d="M32.086 92.4495C32.1447 92.3986 32.1999 92.3765 32.2552 92.3742C32.3542 92.3702 32.4532 92.4294 32.5716 92.5002C32.6897 92.5708 32.8272 92.653 33.0031 92.6954C33.8846 92.9076 34.4859 93.1801 34.4155 93.419C34.3607 93.6047 33.8992 93.7703 32.8474 93.8703C32.7779 93.8769 32.7136 93.8847 32.6536 93.892C32.3094 93.9341 32.1102 93.9584 31.9311 93.6243C31.7865 93.3546 31.778 93.0245 31.8765 92.757C31.9212 92.6354 31.9935 92.5296 32.086 92.4495Z" fill="#C0D3EE"/>
<path d="M32.5533 95.0027C32.5863 94.9722 32.6192 94.9604 32.6546 94.9594C32.6959 94.9581 32.7405 94.9716 32.7922 94.9871C32.8537 95.0057 32.9252 95.0272 33.0131 95.0307C33.4536 95.0483 33.761 95.1091 33.7403 95.2056C33.7243 95.2806 33.5095 95.3771 33.0039 95.4912C32.9706 95.4987 32.9397 95.5063 32.911 95.5134C32.7461 95.5543 32.6507 95.578 32.5447 95.4631C32.4591 95.3704 32.4362 95.2447 32.4689 95.1353C32.4838 95.0856 32.5128 95.04 32.5533 95.0027Z" fill="#C0D3EE"/>
<path d="M63.3086 108.214C63.5358 108.119 63.7314 108.038 63.8943 108.032C64.0101 108.028 64.1095 108.062 64.1921 108.156C64.1986 108.164 64.2043 108.173 64.209 108.181C64.5022 108.731 61.1043 110.64 60.5623 109.49C60.2574 108.808 61.1792 108.674 62.1891 108.528C62.2644 108.517 62.3403 108.506 62.4162 108.494C62.7534 108.444 63.0513 108.32 63.3086 108.214Z" fill="#C0D3EE"/>
<path d="M47.6393 111.093L47.7686 109.772C49.9183 110.682 53.8207 110.919 56.2585 111.066C57.5455 111.144 58.4242 111.198 58.4212 111.312C58.4212 111.772 52.9432 112.058 47.6393 111.093Z" fill="#C0D3EE"/>
<path d="M27.0367 111.919C28.6906 111.479 30.7032 110.943 32.6931 109.794C31.8724 114.426 24.9131 115.982 23.4301 113.634C23.9131 112.75 25.2703 112.389 27.0367 111.919Z" fill="#C0D3EE"/>
<path d="M68.3361 111.494C70.7191 111.246 70.6905 111.472 72.5002 111L74.5002 111.494C70.0122 114.015 64.9436 112.781 64.9529 111.994C64.9491 111.846 66.4178 111.693 68.3361 111.494Z" fill="#C0D3EE"/>
<path d="M33.7407 121.926C35.9842 120.932 39.0051 119.593 42.1667 116.187C42.7824 119.972 33.6368 123.335 33.4002 122.078C33.5115 122.028 33.6251 121.978 33.7407 121.926Z" fill="#C0D3EE"/>
<path d="M38.9497 124.828C40.5916 124.161 41.7997 123.67 44.5708 120.685C45.1866 124.469 38.1348 126.528 37.8982 125.271C38.2766 125.102 38.6218 124.962 38.9497 124.828Z" fill="#C0D3EE"/>
<path d="M48.6044 133.464C48.6645 133.443 48.7201 133.432 48.7739 133.432C48.8636 133.431 48.9481 133.459 49.04 133.515C49.2749 133.66 49.308 133.787 49.2082 133.87C49.1628 133.907 49.0899 133.936 48.9959 133.952C48.9809 133.955 48.9659 133.956 48.9512 133.958C48.925 133.961 48.8996 133.963 48.8763 133.972C48.7673 134.01 48.6611 133.982 48.5602 133.901C48.3698 133.747 48.3691 133.547 48.6044 133.464Z" fill="#C0D3EE"/>
<path d="M49.0883 134.917C49.2183 134.812 49.6874 134.693 50.0082 134.691C50.154 134.69 50.2691 134.713 50.3078 134.773C50.3715 134.871 50.2129 134.991 50.0282 135.131C49.8597 135.258 49.6696 135.402 49.6064 135.561C49.5924 135.596 49.5719 135.624 49.5462 135.644C49.5115 135.672 49.4628 135.713 49.4199 135.692C49.3725 135.668 49.3161 135.653 49.2592 135.638C49.1614 135.612 49.0623 135.585 49.0051 135.514C48.862 135.336 48.8992 135.069 49.0883 134.917Z" fill="#C0D3EE"/>
<path d="M50.1397 136.059C50.1998 136.038 50.2554 136.027 50.3092 136.026C50.3989 136.025 50.4834 136.053 50.5753 136.11C50.8103 136.254 50.8433 136.382 50.7435 136.464C50.6982 136.502 50.6252 136.53 50.5312 136.546C50.5162 136.549 50.5012 136.551 50.4865 136.552C50.4603 136.555 50.4349 136.558 50.4116 136.566C50.3027 136.604 50.1965 136.577 50.0956 136.495C49.9051 136.342 49.9044 136.142 50.1397 136.059Z" fill="#C0D3EE"/>
<path d="M50.6236 137.511C50.7536 137.407 51.2227 137.287 51.5435 137.285C51.6893 137.284 51.8044 137.307 51.8432 137.367C51.9069 137.465 51.7482 137.586 51.5635 137.725C51.395 137.853 51.2049 137.997 51.1417 138.156C51.1277 138.191 51.1072 138.218 51.0815 138.239L51.0773 138.242C51.043 138.27 50.9967 138.307 50.9555 138.286C50.9081 138.262 50.8515 138.247 50.7945 138.232C50.6968 138.206 50.5976 138.18 50.5404 138.108C50.3973 137.93 50.4346 137.663 50.6236 137.511Z" fill="#C0D3EE"/>
<path d="M51.6795 138.974C51.8604 138.828 52.4563 138.439 52.7208 138.457C52.7385 138.458 52.7547 138.461 52.7691 138.466C52.9632 138.532 52.5095 139.259 52.2344 139.664C52.217 139.69 52.1967 139.711 52.1739 139.728C52.1341 139.758 52.087 139.776 52.0368 139.782C51.8865 139.801 51.7082 139.725 51.6076 139.6C51.4543 139.409 51.4864 139.129 51.6795 138.974Z" fill="#C0D3EE"/>
<path d="M53.2805 139.762C53.3666 139.382 53.6179 139.152 53.7922 139.156C53.946 139.161 54.0399 139.348 53.9074 139.779C53.8102 140.095 53.6829 140.299 53.5655 140.394C53.5235 140.428 53.4827 140.448 53.4451 140.454C53.2821 140.48 53.1775 140.246 53.2805 139.762Z" fill="#C0D3EE"/>
<path d="M54.4066 140.911C54.6486 140.288 54.8128 140.032 54.9116 140.026C55.0386 140.018 55.0575 140.422 54.9959 140.988C54.9837 141.101 54.9975 141.196 55.0093 141.278C55.0279 141.406 55.0417 141.501 54.9438 141.58C54.8885 141.625 54.8247 141.653 54.7584 141.663C54.6126 141.683 54.4566 141.63 54.3547 141.503C54.2283 141.346 54.2768 141.229 54.3604 141.026C54.375 140.99 54.3906 140.953 54.4066 140.911Z" fill="#C0D3EE"/>
<path d="M50.2531 86.8696C47.528 86.8696 45.3188 89.1884 45.3188 92.0487C45.3188 94.909 47.5085 94.2072 50.2337 94.2072C52.9588 94.2072 55.1873 94.909 55.1873 92.0487C55.1873 89.1884 52.9782 86.8696 50.2531 86.8696ZM69.7009 86.8696C66.9758 86.8696 64.7666 89.1884 64.7666 92.0487C64.7666 94.909 66.9952 94.2072 69.7203 94.2072C72.4454 94.2072 74.6351 94.909 74.6351 92.0487C74.6351 89.1884 72.426 86.8696 69.7009 86.8696Z" fill="white"/>
<path d="M60.7829 91.4081C60.4347 91.4081 60.0953 91.5905 59.6632 91.8483C59.2312 92.1062 58.7339 92.4573 58.2162 92.8514C57.1806 93.6396 56.0663 94.5985 55.2884 95.3053C54.5962 95.9341 53.7748 96.3696 53.0999 96.7899C52.7624 97 52.4602 97.2056 52.2266 97.4505C51.9931 97.6953 51.8257 97.9995 51.8257 98.3497C51.8257 98.6773 52.0102 98.9421 52.2461 99.2457C52.4819 99.5492 52.7931 99.8762 53.1288 100.208C53.8001 100.873 54.5745 101.564 54.9826 102.027C55.6614 102.797 56.5099 104.037 57.4722 105.088C58.3592 106.057 59.3589 106.888 60.486 106.999V107.014L60.7618 107.022C60.7962 107.023 60.8 107.022 60.7734 107.021L60.7812 107.022H60.7893C60.7661 107.022 60.7713 107.023 60.8051 107.022L61.0798 107.012V106.994C62.2449 106.857 63.2945 105.827 64.2462 104.67C65.2762 103.418 66.1998 101.972 66.869 101.214C67.3027 100.722 67.7639 100.187 68.124 99.6692C68.4841 99.1509 68.7614 98.6582 68.7614 98.164C68.7614 97.8139 68.594 97.5096 68.3604 97.2648C68.1268 97.02 67.8246 96.8143 67.4872 96.6042C66.8123 96.184 65.9909 95.7485 65.2987 95.1196C64.5383 94.4287 63.6724 93.5199 62.8829 92.7776C62.4881 92.4064 62.1129 92.0766 61.7688 91.8317C61.4247 91.5867 61.1208 91.4081 60.7829 91.4081H60.7829ZM64.3494 98.1873C64.3941 98.1894 64.4903 98.2176 64.6274 98.2892C64.7707 98.364 64.9473 98.4708 65.1563 98.5618C65.3674 98.6536 65.6217 98.7212 65.9022 98.7183C65.2705 99.6043 64.543 100.8 63.7731 101.881C63.2768 102.578 62.7665 103.219 62.2796 103.674C61.7928 104.128 61.3372 104.376 60.9807 104.376C60.5831 104.376 60.1082 104.148 59.5894 103.73C59.0706 103.311 58.5161 102.714 57.947 102.048C57.1503 101.114 56.3254 100.051 55.484 99.1235C55.6533 99.157 55.8289 99.1749 56.016 99.1732C56.3897 99.1698 56.6487 98.9376 56.9181 98.7563C57.1874 98.5751 57.4518 98.4388 57.5624 98.4388C57.6509 98.4388 57.8645 98.5108 58.1152 98.667C58.3658 98.8231 58.6583 99.0514 58.9612 99.3139C59.5671 99.8389 60.2163 100.5 60.7316 101.015C60.833 101.116 60.9942 101.126 61.1073 101.038C61.7354 100.548 62.2157 99.8636 62.7197 99.2928C63.2165 98.7303 63.7164 98.2965 64.3494 98.1873V98.1873Z" fill="#FDE68A"/>
<path d="M64.2922 97.9089C63.6221 98.0247 63.0762 98.479 62.6309 98.9677C62.0641 99.5813 61.5938 100.295 60.9321 100.813C60.1672 100.056 59.4203 99.2708 58.5562 98.6237C58.2641 98.4169 57.9506 98.1997 57.5867 98.1557C57.3088 98.1604 57.0702 98.332 56.8393 98.4682C56.5692 98.6309 56.3214 98.8979 55.983 98.8883C55.8273 98.8934 55.6715 98.8619 55.5191 98.8471C55.4452 98.883 55.3244 98.8611 55.2863 98.941C55.2553 99.0246 55.1656 99.1047 55.2294 99.1937C55.2686 99.363 55.4248 99.4618 55.5244 99.5954C56.5706 100.781 57.5111 102.058 58.6048 103.201C59.1189 103.722 59.6668 104.246 60.3533 104.529C60.7104 104.679 61.1268 104.713 61.487 104.553C62.1194 104.288 62.6063 103.779 63.0524 103.274C64.2177 101.91 65.1048 100.343 66.1355 98.8809C66.1374 98.798 66.1964 98.7008 66.1606 98.6272C66.0932 98.5532 66.0508 98.4406 65.9355 98.4409C65.6769 98.4324 65.4162 98.3813 65.1837 98.2619C64.9165 98.1431 64.6757 97.9441 64.379 97.9068C64.35 97.9075 64.3211 97.9082 64.2922 97.9089V97.9089Z" fill="#F87171"/>
<path d="M69.3199 86.9629C68.457 86.9629 67.6294 87.3058 67.0192 87.9162C66.409 88.5265 66.0662 89.3543 66.0662 90.2175C66.0661 90.6449 66.1503 91.0681 66.3138 91.463C66.4773 91.8579 66.7169 92.2167 67.0191 92.519C67.3212 92.8212 67.6799 93.061 68.0747 93.2245C68.4695 93.3881 68.8926 93.4723 69.3199 93.4723C69.7473 93.4723 70.1704 93.3881 70.5652 93.2245C70.9599 93.061 71.3186 92.8212 71.6208 92.519C71.9229 92.2167 72.1626 91.8579 72.3261 91.463C72.4896 91.0681 72.5738 90.6449 72.5737 90.2175C72.5737 89.3543 72.2309 88.5265 71.6207 87.9162C71.0105 87.3058 70.1829 86.9629 69.3199 86.9629ZM50.6283 86.9654C49.7653 86.9654 48.9377 87.3083 48.3275 87.9187C47.7173 88.529 47.3745 89.3568 47.3745 90.22C47.3745 90.6474 47.4586 91.0706 47.6221 91.4655C47.7856 91.8604 48.0253 92.2192 48.3274 92.5215C48.6296 92.8237 48.9883 93.0635 49.3831 93.227C49.7779 93.3906 50.201 93.4748 50.6283 93.4748C51.0556 93.4748 51.4787 93.3906 51.8735 93.227C52.2683 93.0635 52.627 92.8237 52.9291 92.5215C53.2313 92.2192 53.471 91.8604 53.6345 91.4655C53.798 91.0706 53.8821 90.6474 53.8821 90.22C53.8821 89.3568 53.5392 88.529 52.929 87.9187C52.3188 87.3083 51.4912 86.9654 50.6283 86.9654Z" fill="#FCD34D"/>
<path d="M60.7828 91.4081C60.3171 92.6374 60.1151 97.0086 60.8683 100.75C60.8895 100.771 60.9106 100.792 60.9318 100.813C61.5936 100.295 62.0637 99.5814 62.6306 98.9678C63.0759 98.4791 63.6218 98.0247 64.2919 97.909C64.3208 97.9083 64.3498 97.9075 64.3787 97.9067C64.6754 97.9441 64.9162 98.1433 65.1834 98.262C65.4159 98.3814 65.6765 98.4326 65.9351 98.441C66.0504 98.4408 66.0928 98.5533 66.1602 98.6273C66.196 98.7008 66.1371 98.798 66.1352 98.881C65.1046 100.343 64.2174 101.91 63.0521 103.274C62.6061 103.779 62.1192 104.288 61.4868 104.553C60.8625 105.098 57.5858 102.569 57.491 102.393C57.0252 103.765 59.7545 107.005 60.7617 107.022C60.7961 107.023 60.7999 107.022 60.7734 107.021L60.7811 107.022H60.7892C60.7661 107.022 60.7713 107.023 60.805 107.022L61.0797 107.012V106.994C62.2448 106.857 63.2944 105.827 64.2461 104.67C65.2761 103.418 66.1997 101.972 66.8689 101.214C67.3026 100.722 67.7639 100.187 68.1239 99.6692C68.484 99.151 68.7613 98.6582 68.7613 98.164C68.7613 97.8139 68.594 97.5096 68.3604 97.2648C68.1268 97.02 67.8246 96.8143 67.4871 96.6042C66.8122 96.184 65.9908 95.7485 65.2986 95.1196C64.5382 94.4287 63.6724 93.5199 62.8828 92.7776C62.488 92.4064 62.1128 92.0766 61.7687 91.8317C61.4246 91.5867 61.1207 91.4081 60.7828 91.4081ZM61.9668 94.3666C62.0377 94.3663 62.1096 94.3834 62.1761 94.4196C62.3887 94.5355 62.5239 94.8477 62.3487 95.0191C62.0022 95.358 61.3738 95.9273 61.2751 95.7499C61.1573 95.5382 61.4614 94.8144 61.5786 94.5992C61.6593 94.4512 61.8109 94.3671 61.9668 94.3666ZM63.2139 97.1451C63.272 97.1452 63.3277 97.1658 63.3688 97.2024C63.4099 97.2391 63.433 97.2887 63.4331 97.3405C63.4331 97.3924 63.41 97.4421 63.3689 97.4788C63.3278 97.5155 63.272 97.5362 63.2139 97.5362C63.185 97.5362 63.1565 97.5312 63.1298 97.5213C63.1032 97.5115 63.079 97.4971 63.0586 97.4789C63.0382 97.4608 63.022 97.4392 63.011 97.4154C63 97.3917 62.9943 97.3662 62.9944 97.3405C62.9944 97.2887 63.0175 97.239 63.0587 97.2023C63.0999 97.1657 63.1557 97.1451 63.2139 97.1451ZM62.6583 97.6198C62.7114 97.6198 62.7623 97.6371 62.7998 97.6678C62.8373 97.6986 62.8584 97.7403 62.8584 97.7838C62.8584 97.8273 62.8373 97.869 62.7998 97.8997C62.7623 97.9305 62.7114 97.9478 62.6583 97.9478C62.632 97.9478 62.606 97.9436 62.5817 97.9354C62.5574 97.9271 62.5353 97.9151 62.5167 97.8998C62.4981 97.8846 62.4833 97.8665 62.4733 97.8466C62.4632 97.8267 62.458 97.8053 62.458 97.7838C62.458 97.7622 62.4632 97.7409 62.4733 97.721C62.4833 97.7011 62.4981 97.683 62.5167 97.6678C62.5353 97.6525 62.5574 97.6404 62.5817 97.6322C62.606 97.624 62.632 97.6197 62.6583 97.6198ZM62.0185 97.8693C62.0402 97.8693 62.0618 97.8755 62.0819 97.8875C62.102 97.8996 62.1203 97.9172 62.1356 97.9395C62.151 97.9617 62.1632 97.9881 62.1715 98.0172C62.1799 98.0462 62.1841 98.0774 62.1841 98.1088C62.1841 98.1723 62.1666 98.2331 62.1356 98.278C62.1045 98.3228 62.0624 98.348 62.0185 98.3481C61.9745 98.348 61.9324 98.3228 61.9013 98.278C61.8703 98.2331 61.8528 98.1723 61.8528 98.1088C61.8528 98.0774 61.8571 98.0462 61.8654 98.0172C61.8737 97.9881 61.8859 97.9617 61.9013 97.9395C61.9167 97.9172 61.9349 97.8996 61.955 97.8875C61.9751 97.8755 61.9967 97.8693 62.0185 97.8693V97.8693ZM61.5351 98.5163C61.5975 98.5163 61.6575 98.5345 61.7016 98.567C61.7458 98.5995 61.7706 98.6435 61.7707 98.6894C61.7707 98.7122 61.7646 98.7348 61.7528 98.7558C61.741 98.7769 61.7236 98.796 61.7018 98.8121C61.6799 98.8282 61.6539 98.841 61.6253 98.8497C61.5967 98.8584 61.566 98.8629 61.5351 98.8629C61.5041 98.8629 61.4735 98.8584 61.4448 98.8497C61.4162 98.841 61.3903 98.8282 61.3684 98.8121C61.3465 98.796 61.3292 98.7769 61.3173 98.7558C61.3055 98.7348 61.2995 98.7122 61.2995 98.6894C61.2995 98.6435 61.3243 98.5995 61.3685 98.567C61.4127 98.5345 61.4726 98.5163 61.5351 98.5163V98.5163ZM60.7479 100.544C60.7437 100.536 60.7408 100.574 60.7381 100.62C60.7458 100.628 60.7535 100.636 60.7612 100.643C60.7563 100.596 60.7516 100.552 60.7479 100.544Z" fill="#FCD34D"/>
<path d="M74.0686 123.221C74.474 132.826 69.1337 140.851 62.1407 141.146C55.1477 141.442 49.1501 133.895 48.7447 124.291C48.3393 114.687 53.846 116.115 60.839 115.82C67.832 115.525 73.6632 113.617 74.0686 123.221Z" fill="white"/>
<path d="M62.7987 113.051C60.3405 114.567 59.8093 117.075 59.4424 119.752L63.0562 121.011C66.4533 118.799 67.3961 117.107 67.4362 113.128C65.5189 113.982 64.1537 115.499 62.8509 117.09C63.0732 115.72 63.2874 114.367 62.7987 113.051Z" fill="white"/>
<path d="M69.0918 153.739C68.9538 153.782 68.7997 153.773 68.6616 153.701C68.5923 153.666 68.5229 153.63 68.4533 153.594C67.7048 153.21 66.9427 152.819 66.2905 152.264C66.1011 152.103 65.9245 151.923 65.7605 151.728C65.5691 152.383 65.2698 153.007 64.8661 153.557C64.5916 153.931 64.0093 153.836 63.8672 153.395C63.794 153.168 63.7222 152.95 63.6516 152.736C63.5918 152.555 63.5329 152.376 63.4748 152.197C63.4502 152.158 63.4355 152.113 63.4321 152.067C63.4229 152.038 63.413 152.008 63.403 151.979C63.3902 151.941 63.3774 151.902 63.366 151.865C63.1384 152.131 62.8717 152.383 62.4947 152.696C62.0882 153.033 61.4816 152.682 61.5718 152.161C61.7447 151.168 61.8142 149.894 61.6032 148.787C61.3945 147.693 60.9362 146.81 60.1042 146.351C54.5287 144.894 50.6323 141.854 48.0553 137.815C45.6148 133.991 44.348 129.289 43.8028 124.179C42.0129 125.414 40.5869 126.078 38.0184 126.407C37.5949 126.461 37.2651 126.046 37.4132 125.646C37.7324 124.782 38.0005 123.892 38.2612 122.993C36.1375 123.616 34.5061 123.779 32.0611 122.782C31.5748 122.584 31.5946 121.889 32.0913 121.718C33.6128 121.197 35.0427 120.429 36.4245 119.547C34.7409 119.831 33.0412 119.734 31.414 119.309C28.3162 118.498 25.4686 116.558 23.3591 113.992C23.1703 113.762 23.1905 113.425 23.4055 113.22C24.2794 112.384 24.8804 111.891 25.5274 111.554C24.4522 111.42 23.4382 111.197 22.479 110.825C20.5212 110.065 18.8187 108.682 17.3488 106.354C17.1354 106.016 17.3285 105.569 17.7209 105.493C18.9404 105.255 20.1129 104.915 21.2809 104.575C22.4611 104.232 23.6366 103.891 24.8512 103.659C21.6778 102.869 18.6807 101.808 16.0846 100.199C12.2208 97.8047 9.25989 94.1751 8.01451 88.6135C7.90521 88.1247 8.43537 87.7436 8.86362 88.0031C11.7195 89.7351 13.7827 90.6854 16.3929 91.2785C13.8948 89.6608 12.0677 87.3872 10.8418 84.7752C9.07955 81.0203 8.49152 76.5993 8.67077 72.4133C8.69643 71.8254 9.48876 71.6591 9.74852 72.1871C11.2579 75.2593 14.9327 77.7568 18.4629 79.7518C16.0158 77.1489 14.0969 74.4247 12.8949 71.431C11.2488 67.3312 10.9603 62.7412 12.4199 57.3977C12.5733 56.8383 13.3673 56.841 13.517 57.4013C15.2028 63.7417 17.5006 67.6288 21.8815 71.4813C15.7129 61.3851 16.4713 49.6321 20.8146 38.364C20.9114 38.1132 21.1706 37.9646 21.4359 38.0076C21.7012 38.0507 21.9001 38.2737 21.9126 38.5422C22.5169 51.4734 28.8364 64.0017 35.4503 75.1225C37.4048 69.7225 39.3816 66.6594 44.9588 63.5938C45.3734 63.3661 45.8684 63.7151 45.7935 64.1822C45.1682 68.0641 43.5249 72.8441 41.8056 77.8448C40.0101 83.0674 38.1318 88.5307 37.2439 93.4634C36.3749 98.2913 36.4716 102.551 38.3625 105.539C39.8981 107.965 42.6719 109.648 47.2991 110.203C47.2002 110.158 47.101 110.114 47.0019 110.07C46.577 109.88 46.1523 109.69 45.7413 109.493C45.7343 109.49 45.7274 109.486 45.7205 109.483C42.9788 108.03 40.7807 106.014 39.6089 103.385C38.6325 101.195 38.8111 98.9101 39.3045 96.743C39.5446 95.6884 39.8585 94.6527 40.1613 93.6539C40.4806 92.6003 40.7875 91.5878 40.9822 90.6374C41.9269 86.0252 45.895 80.0168 53.7398 77.8555C53.3282 76.5243 53.1777 75.0964 53.2626 73.4608C53.2879 72.974 53.8738 72.7428 54.2246 73.0811C55.0693 73.8963 55.7313 74.8709 56.3775 75.8223C56.4862 75.9823 56.5945 76.1417 56.7031 76.2996C56.5278 75.3799 56.5763 74.5651 56.7955 73.7886C57.0823 72.7726 57.6109 71.8532 58.224 70.7871C58.5458 70.2277 58.8908 69.6277 59.2362 68.9522C59.3255 68.7779 59.4982 68.6618 59.6933 68.645C59.8883 68.6281 60.0783 68.7128 60.1961 68.8692C61.6528 70.8052 62.5643 72.067 62.8219 73.5304C62.9494 74.2548 62.9017 74.988 62.6992 75.8205C63.6423 74.9769 64.5111 74.5804 65.7385 74.07C66.081 73.9276 66.4658 74.1462 66.5191 74.5132C66.7393 76.0284 66.6306 77.2314 66.2535 78.278C73.392 80.7305 77.4401 87.7736 78.6277 94.2342C78.6559 94.3875 78.6858 94.5465 78.7166 94.7106C79.0446 96.456 79.4832 98.7897 79.1879 101.246C78.8649 103.934 77.6194 106.781 74.4618 109.044L74.4499 109.046C74.4475 109.049 74.4451 109.051 74.4427 109.053C74.4385 109.057 74.4342 109.061 74.4299 109.065C74.4018 109.082 74.3635 109.103 74.335 109.12C74.039 109.319 73.7033 109.514 73.3333 109.704C73.2143 109.774 73.0983 109.843 72.9827 109.912C72.7066 110.077 72.4335 110.241 72.1307 110.405C77.4633 110.347 91.5 120.5 92.5 126.604C92.4827 127.12 91.5248 127.486 91.5 128C91 123 77.0431 111.477 72.1904 111.539C71.7859 111.579 71.4326 111.616 71.1099 111.65C69.3483 111.832 68.501 111.92 65.2361 112.088C65.1978 112.09 65.1596 112.084 65.1237 112.07C65.1191 112.068 65.1146 112.065 65.1101 112.062C65.0741 112.046 65.0418 112.023 65.0152 111.994C65.0067 111.984 64.9989 111.973 64.9919 111.962C64.9733 111.935 64.9596 111.905 64.9514 111.873C64.9492 111.869 64.9471 111.864 64.9451 111.86C64.9437 111.856 64.9424 111.853 64.9411 111.85L64.9425 111.837C64.9418 111.835 64.9411 111.832 64.9404 111.829C64.9395 111.826 64.9386 111.822 64.9378 111.819C64.936 111.78 64.942 111.742 64.9556 111.706L64.9614 111.696C64.9775 111.659 65.0015 111.625 65.0316 111.598C65.0417 111.589 65.0523 111.581 65.0635 111.574C65.0907 111.556 65.1208 111.542 65.1526 111.534C65.1601 111.53 65.1678 111.527 65.1756 111.524C65.2691 111.508 65.3612 111.492 65.4533 111.476C65.4934 111.469 65.5336 111.462 65.5738 111.455C67.5107 111.101 69.2358 110.513 70.6787 109.868C71.7627 109.331 72.8929 108.678 73.8126 108.109C76.7134 106.025 77.7661 103.554 78.0598 101.11C78.2213 99.7664 78.1341 98.4453 77.9729 97.2169C77.3283 95.384 76.6376 93.6089 75.3171 92.216C75.2091 92.102 75.214 91.922 75.328 91.8141C75.3826 91.7621 75.4557 91.7341 75.5311 91.7361C75.6063 91.7381 75.6777 91.77 75.7295 91.8246C76.5061 92.6439 77.0706 93.5732 77.5301 94.5493L77.5101 94.4397C76.3721 88.2493 72.4752 81.5556 65.7669 79.3112C65.3592 80.0052 62.7278 83.0392 62.32 82.6312C62.1146 82.4341 62.8096 81.5171 63.5408 80.5524C64.1167 79.7924 64.7151 79.0029 64.9134 78.5124C65.3597 77.6537 65.5548 76.7256 65.4614 75.4288C63.9995 76.0581 63.249 76.55 61.5492 78.884C61.1471 79.433 60.2954 78.94 60.5711 78.3178C61.5682 76.0815 61.898 74.8362 61.7029 73.7276C61.5343 72.7698 60.904 71.7542 59.8105 70.2638C59.6189 70.614 59.4317 70.9463 59.2532 71.2633C58.6363 72.3586 58.1229 73.2702 57.8894 74.0974C57.5343 75.3553 57.6674 76.6192 58.935 78.8646C59.2371 79.4012 58.5896 79.9681 58.0978 79.5976C56.8408 78.6487 55.9834 77.3708 55.1817 76.1759C54.9186 75.7837 54.6614 75.4005 54.3981 75.0408C54.5191 77.6299 55.3863 79.5278 57.3486 81.7661C57.6063 82.0599 58.1313 82.7867 57.98 82.9381C57.7385 83.1519 56.8297 82.8983 56.4942 82.5158C55.4428 81.3165 54.6662 80.1506 54.1348 78.9237C46.6492 80.9467 42.9574 86.6577 42.0956 90.8654C41.9282 91.6825 41.6888 92.5166 41.4382 93.3559C41.7683 92.8165 42.1487 92.3019 42.6011 91.8246C42.653 91.7699 42.7245 91.7381 42.7998 91.7361C42.8752 91.7341 42.9483 91.7621 43.0029 91.8141C43.1168 91.9221 43.1216 92.1021 43.0135 92.216C41.7129 93.5879 41.024 95.3308 40.3876 97.1342C39.9452 99.1416 39.8303 101.09 40.6471 102.922C41.6905 105.263 43.6692 107.107 46.2451 108.473C47.7436 109.19 49.2966 109.881 50.8732 110.411C51.1732 110.477 51.4848 110.581 51.8066 110.688C52.1506 110.803 52.5062 110.921 52.8718 111.002C52.8788 111.003 52.8857 111.004 52.8926 111.006C52.9106 111.007 52.9285 111.01 52.9459 111.015C52.964 111.02 52.9817 111.026 52.9986 111.033C53.0145 111.041 53.0295 111.051 53.0436 111.062C53.0591 111.073 53.0735 111.086 53.0866 111.1C53.0978 111.114 53.1077 111.128 53.1163 111.143C53.1262 111.159 53.1346 111.176 53.1412 111.194C53.1445 111.2 53.1476 111.206 53.1504 111.212C53.1562 111.234 53.1594 111.257 53.1598 111.28L53.1601 111.282V111.284C53.1598 111.29 53.1595 111.295 53.159 111.301C53.1587 111.308 53.1583 111.315 53.1575 111.322C53.1572 111.324 53.1568 111.326 53.1564 111.329C53.156 111.331 53.1555 111.333 53.155 111.335C53.1544 111.34 53.1537 111.344 53.1529 111.348C53.1522 111.351 53.1514 111.355 53.1506 111.358L53.1503 111.36C53.1472 111.371 53.1435 111.382 53.1389 111.393L53.1384 111.395L53.1364 111.4C53.1326 111.408 53.1285 111.416 53.124 111.425C53.1209 111.43 53.1176 111.435 53.1142 111.44C53.1102 111.446 53.1057 111.453 53.1012 111.459C53.0938 111.469 53.0854 111.478 53.0768 111.487C53.0683 111.495 53.0593 111.503 53.0499 111.511L53.0487 111.511C53.04 111.518 53.0309 111.524 53.0215 111.53C53.0145 111.534 53.0074 111.538 53.0002 111.541C52.9957 111.543 52.9911 111.545 52.9866 111.548C52.981 111.55 52.9753 111.552 52.9696 111.554C52.9635 111.556 52.9573 111.558 52.951 111.56L52.9494 111.561C52.5319 111.623 52.1265 111.591 51.7268 111.56C51.4275 111.537 51.1314 111.514 50.8357 111.531C50.8277 111.535 50.8139 111.534 50.8002 111.534C50.7875 111.533 50.775 111.532 50.7673 111.536C50.7086 111.536 50.6582 111.537 50.6086 111.539C50.5513 111.54 50.495 111.542 50.4283 111.541C50.29 111.541 50.1509 111.536 50.0107 111.526C43.4601 111.375 39.4581 109.395 37.4024 106.147C35.2637 102.768 35.2336 98.2164 36.1254 93.2619C37.0522 88.1131 38.991 82.467 40.8116 77.1652C42.3124 72.7945 43.733 68.6577 44.4399 65.2263C39.5552 68.1601 38.0553 70.9648 36.1107 76.639C35.9539 77.096 35.3347 77.1614 35.0859 76.7473C28.6746 66.0745 22.3072 53.9652 20.9819 41.2608C17.1533 52.6734 17.3046 64.1994 24.9075 73.8687C25.3944 74.3512 25.9389 74.7731 26.5724 75.1888L26.5757 75.1912C26.5849 75.1974 26.5937 75.2041 26.6021 75.2112C26.611 75.219 26.6195 75.2274 26.6273 75.2362L26.6285 75.2374C26.6357 75.2455 26.6425 75.254 26.6487 75.2629C26.6541 75.2708 26.6591 75.2789 26.6637 75.2873L26.6668 75.2923C26.6705 75.2995 26.6739 75.3068 26.677 75.3142C26.6789 75.3185 26.6807 75.3229 26.6823 75.3273C26.6836 75.3309 26.6849 75.3346 26.686 75.3382C26.6869 75.3409 26.6877 75.3435 26.6884 75.3461C26.6899 75.3511 26.6913 75.3561 26.6926 75.3611C26.6941 75.3677 26.6955 75.3744 26.6965 75.3811C26.6974 75.3865 26.6981 75.3918 26.6987 75.3972C26.6993 75.4027 26.6997 75.4081 26.6998 75.4136C26.7002 75.4207 26.7003 75.4278 26.7001 75.435C26.7 75.4402 26.6997 75.4455 26.6993 75.4508C26.6987 75.4564 26.6979 75.4621 26.697 75.4677C26.6962 75.474 26.6953 75.4803 26.694 75.4866L26.6929 75.4921L26.6914 75.4958C26.6847 75.5223 26.6741 75.5477 26.6601 75.5712L26.6576 75.576L26.654 75.5823C26.6497 75.587 26.6453 75.5916 26.6407 75.5959C26.6251 75.617 26.6067 75.6357 26.586 75.6517C26.5764 75.6585 26.5664 75.6646 26.556 75.67C26.5363 75.6813 26.5154 75.6902 26.4936 75.6964C26.4823 75.7 26.4708 75.7029 26.4592 75.705C26.4346 75.7085 26.4097 75.7087 26.3851 75.7056C26.376 75.7054 26.3669 75.7048 26.3579 75.7037L26.351 75.7031C25.6274 75.5316 24.9516 75.3019 24.3073 74.8779C24.2938 74.8763 24.2804 74.8741 24.2671 74.8715C18.2684 70.447 15.1308 66.3463 13.0389 59.7619C12.2181 64.0095 12.6077 67.6649 13.9496 71.0072C15.4837 74.8279 18.2872 78.2549 21.9964 81.6119C22.3596 81.9379 22.7377 82.2483 23.1763 82.5578C23.181 82.5613 23.1856 82.5651 23.1902 82.5689C23.196 82.5734 23.2022 82.5787 23.2076 82.5836C23.2147 82.5902 23.2214 82.5972 23.2277 82.6045C23.2292 82.6062 23.2306 82.608 23.2321 82.6097L23.2329 82.6108C23.24 82.6196 23.2466 82.6288 23.2526 82.6383C23.2564 82.6446 23.2599 82.651 23.2632 82.6575C23.2661 82.6627 23.2692 82.6688 23.2718 82.6741C23.2732 82.6772 23.2745 82.6803 23.2758 82.6835C23.2787 82.6907 23.2814 82.698 23.2837 82.7055C23.2859 82.713 23.2877 82.7206 23.2893 82.7283C23.2906 82.7333 23.2919 82.7384 23.2929 82.7435C23.2934 82.7486 23.294 82.7537 23.2943 82.7588C23.2954 82.7663 23.2961 82.7746 23.2965 82.7821C23.2967 82.7939 23.2962 82.8057 23.2951 82.8174V82.8193L23.2945 82.821C23.2906 82.8573 23.2795 82.8931 23.2623 82.9254C23.257 82.9352 23.251 82.9448 23.2446 82.954C23.2357 82.9635 23.2263 82.9724 23.2163 82.9806C23.2042 82.9945 23.1908 83.0073 23.1763 83.0186C23.1669 83.0248 23.1571 83.0305 23.147 83.0356C23.1409 83.0387 23.1346 83.0415 23.1283 83.0442C23.1118 83.0525 23.0945 83.0592 23.0767 83.0641C23.0585 83.0676 23.04 83.0693 23.0215 83.0691C23.0088 83.0712 22.996 83.0725 22.9832 83.0728C21.4582 82.9151 20.465 82.3088 18.7762 81.2779C18.6771 81.2173 18.5755 81.1553 18.4713 81.0919C18.4558 81.0803 18.4416 81.0672 18.4288 81.0527C15.2941 79.3423 11.8773 77.205 9.78961 74.4065C9.85267 77.8433 10.4772 81.3232 11.8705 84.2918C13.0549 86.8156 14.7847 88.9574 17.1896 90.4506C17.2253 90.4631 17.2583 90.4825 17.2864 90.5078L17.3133 90.532C18.2399 91.0927 19.2577 91.5654 20.394 91.9161C20.4042 91.9258 20.4141 91.9359 20.4236 91.9464C20.486 91.9561 20.5495 91.966 20.6143 91.976C20.917 92.0229 21.2481 92.0741 21.6268 92.1437C21.6401 92.1462 21.6532 92.1496 21.666 92.154L21.669 92.1554C21.6958 92.1648 21.7211 92.1782 21.7439 92.1951L21.7467 92.197C21.7694 92.2142 21.7894 92.2347 21.8061 92.2578L21.8083 92.2606C21.8246 92.2842 21.8372 92.3101 21.8458 92.3375L21.8469 92.3394L21.8497 92.3511C21.8513 92.357 21.8528 92.3631 21.8541 92.3691C21.8546 92.3724 21.8552 92.3757 21.8557 92.3791L21.8563 92.3836C21.8569 92.3872 21.8574 92.3909 21.8578 92.3946C21.8582 92.3981 21.8585 92.4017 21.8588 92.4052L21.8591 92.4146C21.8598 92.4347 21.8581 92.4554 21.8546 92.4752C21.848 92.5107 21.8346 92.5446 21.8152 92.5751L21.8116 92.5801C21.7923 92.6092 21.7677 92.6345 21.7392 92.6547L21.7334 92.6586C21.7106 92.6742 21.6856 92.6863 21.6593 92.6947C21.1721 92.8453 20.6974 92.9846 20.1789 93.0203L20.1681 93.0247C20.1647 93.0244 20.1618 93.0239 20.1588 93.0234C20.156 93.023 20.1531 93.0226 20.1498 93.0222C20.0037 93.0311 19.8542 93.0321 19.6997 93.0222C19.3814 93.0019 19.0466 92.9364 18.6847 92.814C15.1065 92.3124 12.5947 91.4539 9.4816 89.6805C10.8035 94.2066 13.3481 97.1658 16.6832 99.2327C20.1792 101.399 24.5586 102.564 29.1847 103.413C29.5082 103.47 29.8479 103.534 30.2378 103.607C30.4926 103.655 30.7688 103.706 31.076 103.763C31.085 103.765 31.0939 103.767 31.1027 103.769C31.1092 103.771 31.1157 103.774 31.1221 103.776L31.1298 103.779C31.1504 103.787 31.17 103.798 31.1881 103.811L31.1934 103.814C31.2118 103.828 31.2285 103.843 31.2431 103.861L31.2453 103.863L31.2469 103.866C31.2499 103.87 31.2528 103.874 31.2555 103.878C31.2594 103.883 31.2631 103.888 31.2666 103.894C31.27 103.9 31.2731 103.905 31.2761 103.911L31.2816 103.921C31.2855 103.93 31.2889 103.938 31.2919 103.947L31.2944 103.953C31.2965 103.96 31.2984 103.967 31.2999 103.974C31.3008 103.977 31.3015 103.98 31.3022 103.983C31.3028 103.985 31.3033 103.987 31.3038 103.99L31.3053 104.001C31.3065 104.009 31.3075 104.016 31.308 104.024C31.3082 104.028 31.3083 104.033 31.3083 104.038C31.3086 104.044 31.3086 104.051 31.3083 104.057C31.3079 104.063 31.3074 104.068 31.3066 104.073C31.3062 104.078 31.3057 104.083 31.305 104.088L31.3044 104.092L31.3041 104.094L31.3036 104.095C31.2983 104.123 31.2889 104.15 31.2758 104.174L31.2733 104.18C31.2597 104.204 31.2425 104.227 31.2223 104.246L31.2178 104.25C31.2133 104.255 31.2086 104.259 31.2037 104.263C30.5491 104.794 29.6916 104.719 28.8437 104.613C28.7767 104.605 28.7094 104.596 28.6421 104.588C28.4433 104.562 28.2435 104.537 28.0443 104.516C25.8391 104.46 23.8155 105.038 21.674 105.649C20.7445 105.915 19.7928 106.186 18.7943 106.415C20.0287 108.137 21.3531 109.168 22.89 109.764C24.6275 110.439 26.6636 110.598 29.0993 110.598L29.1087 110.603L29.1767 110.597C29.6313 110.559 30.1246 110.518 30.7356 110.502C30.7675 110.502 30.7993 110.507 30.8296 110.517C30.8366 110.52 30.8435 110.523 30.8502 110.527C30.8744 110.536 30.8972 110.55 30.9179 110.566C30.9269 110.573 30.9354 110.581 30.9434 110.59C30.9592 110.606 30.973 110.624 30.9845 110.643C30.9891 110.649 30.9936 110.655 30.9978 110.661C31.0023 110.67 31.0063 110.68 31.0097 110.69L31.0111 110.693C31.0206 110.72 31.0258 110.749 31.0267 110.778L31.027 110.779L31.0267 110.788C31.0267 110.795 31.0264 110.803 31.0258 110.81C31.0255 110.814 31.025 110.818 31.0245 110.822C31.0241 110.825 31.0237 110.827 31.0233 110.83C31.0227 110.835 31.022 110.839 31.0211 110.844C31.0197 110.851 31.018 110.857 31.0161 110.863C31.0146 110.869 31.013 110.875 31.0111 110.881C30.9969 110.921 30.9738 110.957 30.9437 110.987C30.942 110.989 30.9403 110.99 30.9385 110.992C30.9369 110.994 30.9353 110.995 30.9337 110.997C30.931 110.999 30.9281 111.002 30.9253 111.004L30.9215 111.007C30.9164 111.011 30.9111 111.015 30.9057 111.019C30.9004 111.023 30.8949 111.026 30.8893 111.03C30.8853 111.032 30.8812 111.035 30.8771 111.037L30.8688 111.041C30.282 111.331 29.7581 111.551 29.2291 111.711C29.2245 111.715 29.2198 111.719 29.215 111.723C29.1982 111.726 29.1861 111.729 29.1744 111.731C29.1609 111.734 29.148 111.737 29.1292 111.741C28.7733 111.843 28.4133 111.919 28.0282 111.971C27.2986 112.124 26.7139 112.257 26.3078 112.43C25.8033 112.643 25.3054 113.033 24.5999 113.679C26.5279 115.866 29.0369 117.512 31.7015 118.208C34.5329 118.949 37.5176 118.648 40.255 116.832C40.2719 116.83 40.289 116.829 40.306 116.828C40.3403 116.79 40.3843 116.761 40.4334 116.746C40.5775 116.703 40.7245 116.688 40.8756 116.672C40.9432 116.665 41.0117 116.658 41.0811 116.648C41.3055 116.617 41.5269 116.565 41.701 116.462C41.7094 116.457 41.718 116.454 41.7268 116.45C41.7325 116.447 41.7383 116.445 41.7442 116.442C41.774 116.431 41.8054 116.424 41.8372 116.423L41.8447 116.422C41.848 116.423 41.8514 116.423 41.8547 116.424C41.8877 116.425 41.9204 116.431 41.9512 116.443L41.9579 116.446C41.9884 116.46 42.0163 116.478 42.0403 116.501L42.0459 116.505L42.0492 116.508L42.0564 116.517C42.0674 116.529 42.0774 116.542 42.0861 116.556L42.0903 116.562C42.103 116.584 42.1131 116.608 42.1197 116.632C42.1212 116.637 42.1225 116.643 42.1236 116.648C42.125 116.655 42.1262 116.662 42.1272 116.669C42.1288 116.68 42.1296 116.692 42.1297 116.704V116.706C42.1297 116.73 42.1266 116.755 42.1202 116.779C42.117 116.791 42.113 116.803 42.1083 116.814C42.0929 116.852 42.0695 116.886 42.0398 116.914C41.2227 117.735 40.5197 118.286 39.5915 118.739C37.822 120.038 35.97 121.293 33.9281 122.205C35.6377 122.635 36.8047 122.308 38.9197 121.615C39.3524 121.474 39.7678 121.873 39.6434 122.311C39.3786 123.243 39.0979 124.181 38.7879 125.115C40.8855 124.739 42.003 124.12 43.8856 122.742C43.9804 120.554 44.94 118.266 46.1749 116.017C46.2505 115.88 46.4231 115.83 46.5606 115.905C46.6981 115.981 46.7484 116.154 46.6729 116.291C45.4381 118.539 44.8062 121.055 44.8438 123.233C45.3251 128.556 46.5764 133.384 49.0132 137.204C51.212 140.65 54.3711 143.285 58.8745 144.792C58.9184 144.788 58.9626 144.794 59.0038 144.809C59.0794 144.84 59.153 144.869 59.2269 144.899C59.306 144.924 59.3849 144.949 59.4637 144.974C59.7988 145.082 60.1339 145.189 60.4886 145.28C60.5327 145.292 60.5753 145.308 60.6154 145.33C60.6482 145.347 60.6698 145.375 60.7017 145.393C61.702 145.654 62.6297 145.72 63.748 145.598C63.904 145.58 64.0444 145.693 64.0615 145.849C64.0785 146.005 63.9658 146.145 63.8098 146.162C63.0204 146.249 62.3064 146.243 61.6005 146.147C62.1925 146.825 62.5502 147.685 62.7196 148.574C62.8328 149.168 62.8702 149.775 62.8664 150.367C62.9032 150.206 62.9386 150.04 62.9772 149.789C62.9895 149.695 63.0577 149.287 63.2596 148.846C63.2606 148.842 63.2612 148.839 63.2617 148.836C63.2624 148.832 63.263 148.829 63.264 148.825L63.2665 148.826C63.2743 148.81 63.2789 148.795 63.2835 148.78C63.2888 148.762 63.294 148.745 63.3043 148.726C63.3141 148.718 63.3242 148.712 63.3345 148.705C63.5097 148.36 63.7922 147.987 64.2216 147.565L64.2252 147.561L64.2311 147.557C64.3055 147.484 64.4139 147.458 64.5135 147.488C64.6633 147.535 64.7466 147.695 64.6997 147.844C64.4636 148.598 64.4079 148.805 64.3745 149.014C64.369 149.045 64.3584 149.075 64.3432 149.102C64.3472 149.118 64.3505 149.134 64.3531 149.15C64.1411 149.862 64.1627 150.402 64.2949 150.998C64.3498 151.245 64.4366 151.51 64.5269 151.783C64.7866 151.106 64.9131 150.374 64.841 149.663C64.7695 148.928 65.8589 148.793 65.9687 149.524C66.0944 150.384 66.4648 150.919 67.0273 151.398C67.4625 151.769 68.038 152.086 68.6506 152.408C69.1933 151.174 69.3365 149.811 69.4669 148.343C69.5319 147.637 70.5711 147.663 70.6007 148.371C70.643 149.471 70.7712 149.971 71.0366 150.342C71.0626 150.378 71.092 150.414 71.1249 150.451C70.9278 150.789 70.7287 151.125 70.5274 151.458C70.4271 151.363 70.3335 151.263 70.246 151.157C70.1457 151.635 70.0167 152.111 69.8357 152.581C69.5906 152.971 69.3426 153.357 69.0918 153.739Z" fill="#2493EF"/>
<path d="M81.8396 131.491C81.1104 131.137 80.4167 130.697 79.6448 130.152C79.6787 131.034 79.6649 131.897 79.6276 132.75C80.0411 132.523 80.5036 132.356 81.0813 132.279C81.2928 132.25 81.4938 132.343 81.6133 132.504C81.362 133.601 81.0932 134.686 80.8072 135.76C80.3771 135.907 79.9107 135.474 80.1046 135.002C80.1435 134.907 80.1812 134.817 80.2174 134.73C80.4052 134.281 80.5518 133.931 80.6038 133.568C80.2998 133.674 80.029 133.812 79.7266 134.035C79.6709 134.068 79.6098 134.092 79.546 134.105C79.1739 138.097 76.7611 135.646 74.2057 139.172C74.8843 139.729 75.407 140.281 75.8428 140.902C75.667 141.326 75.4883 141.747 75.3067 142.165C74.8109 141.233 74.2118 140.561 73.1388 139.752C71.5816 142.087 70.0489 143.28 68.6847 144.133C68.5516 144.216 68.3763 144.176 68.2931 144.042C68.2099 143.909 68.2503 143.734 68.3833 143.651C69.8087 142.76 71.3747 141.535 73.007 138.908C73.0126 138.901 73.0184 138.895 73.0245 138.889C76.8514 133.823 77.8005 128.531 77.2467 122.215C77.0729 120.285 76.8179 118.342 75.9992 116.147C75.9444 116 76.019 115.837 76.1659 115.782C76.313 115.727 76.4767 115.801 76.5316 115.949C76.5918 116.11 76.6516 116.269 76.7108 116.428C77.436 118.365 79.5 124 79.5 128L79.8949 128.946C80.7152 129.544 81.3945 129.998 82.0811 130.349C82.0027 130.731 81.9222 131.112 81.8396 131.491Z" fill="#2493EF"/>
<path d="M75.1003 142.636C75.0147 142.605 74.9371 142.585 74.8598 142.565C74.6251 142.504 74.393 142.443 73.9472 142.093L73.9408 142.09C73.9211 142.075 73.8997 142.063 73.8769 142.054L73.8689 142.05C73.856 142.045 73.8428 142.041 73.8294 142.039C73.8186 142.036 73.8076 142.035 73.7965 142.034L73.7896 142.034C73.7796 142.034 73.7697 142.034 73.7599 142.035C73.7422 142.036 73.7247 142.038 73.7074 142.042C73.7022 142.043 73.6969 142.045 73.6918 142.046C73.6868 142.048 73.6818 142.05 73.6769 142.052C73.6604 142.057 73.6446 142.065 73.6294 142.074C73.6207 142.079 73.6121 142.084 73.6039 142.09C73.5988 142.093 73.5938 142.096 73.5889 142.099C73.5796 142.108 73.5709 142.118 73.5629 142.128C73.5613 142.129 73.5597 142.131 73.5582 142.132C73.5548 142.135 73.5514 142.138 73.5481 142.142L73.5445 142.148C73.5292 142.168 73.5167 142.191 73.5073 142.215L73.5049 142.22C73.4959 142.245 73.4904 142.272 73.489 142.299C73.4889 142.309 73.4893 142.318 73.4902 142.327C73.4906 142.346 73.4929 142.365 73.4971 142.383C73.4995 142.392 73.5024 142.402 73.5057 142.411C73.5083 142.418 73.5112 142.425 73.5144 142.432C73.5187 142.442 73.5234 142.451 73.5287 142.46C73.5336 142.469 73.5389 142.477 73.5446 142.485C73.546 142.487 73.5474 142.49 73.5489 142.492C73.5507 142.495 73.5524 142.497 73.5543 142.5C73.7719 142.759 73.9025 142.9 74.0145 143.02C74.1794 143.198 74.3037 143.332 74.6052 143.735C74.7725 143.371 74.9375 143.005 75.1003 142.636Z" fill="#2493EF"/>
<path d="M74.2478 144.503C74.0915 144.347 73.9061 144.185 73.68 144.008C73.657 143.99 73.6309 143.975 73.6037 143.965L73.6006 143.964C73.5726 143.954 73.5432 143.948 73.5135 143.947C73.4862 143.947 73.459 143.95 73.4327 143.957C73.4249 143.96 73.4172 143.963 73.4097 143.966C73.3913 143.972 73.3737 143.98 73.357 143.99C73.3488 143.996 73.3409 144.001 73.3334 144.007C73.3272 144.012 73.3212 144.017 73.3154 144.022C73.3078 144.029 73.3005 144.036 73.2937 144.044C73.2894 144.048 73.2853 144.052 73.2812 144.056C73.279 144.06 73.2769 144.063 73.2748 144.067C73.2678 144.078 73.2614 144.088 73.2557 144.099C73.2527 144.105 73.25 144.111 73.2474 144.117C73.2434 144.124 73.2398 144.132 73.2365 144.14C73.2336 144.149 73.231 144.158 73.229 144.167C73.2255 144.182 73.2234 144.198 73.2224 144.213L73.2207 144.221C73.2078 144.636 73.2945 144.968 73.4152 145.24C73.4158 145.248 73.4164 145.255 73.4172 145.263C73.4315 145.284 73.4367 145.296 73.4508 145.317C73.5198 145.459 73.5969 145.586 73.6715 145.699C73.8663 145.303 74.0584 144.905 74.2478 144.503Z" fill="#2493EF"/>
<path d="M72.9829 147.065C72.9379 147.026 72.8917 146.986 72.8447 146.946C72.754 146.869 72.6605 146.79 72.5673 146.706C72.5325 146.676 72.4907 146.654 72.4457 146.643C72.373 146.615 72.2918 146.618 72.2212 146.651C72.0804 146.721 72.0227 146.891 72.0922 147.032C72.284 147.421 72.3934 147.737 72.4507 148.03C72.4515 148.045 72.4522 148.059 72.4529 148.073C72.6315 147.739 72.8082 147.403 72.9829 147.065Z" fill="#2493EF"/>
<path fill-rule="evenodd" clip-rule="evenodd" d="M45.0346 92.0487C45.0346 89.042 47.3667 86.5854 50.253 86.5854C50.3025 86.5854 50.3515 86.5872 50.4006 86.5891C50.4121 86.5895 50.4235 86.59 50.435 86.5904C50.4959 86.5872 50.557 86.5854 50.6187 86.5854C51.228 86.5854 51.8013 86.7442 52.3013 87.0234C54.1667 87.859 55.4713 89.7999 55.4713 92.0487C55.4713 92.8007 55.325 93.3602 55.024 93.7629C54.723 94.1655 54.2799 94.3796 53.7887 94.4792C53.1396 94.6109 52.3805 94.5739 51.5541 94.5337C51.1297 94.513 50.6876 94.4915 50.2335 94.4915C49.7789 94.4915 49.3374 94.5131 48.9144 94.5338C48.0924 94.574 47.3402 94.6108 46.6973 94.479C46.2104 94.3791 45.7715 94.1641 45.4747 93.7612C45.1779 93.3584 45.0346 92.8001 45.0346 92.0487ZM50.7743 87.1852C50.6669 87.1726 50.5584 87.1639 50.4489 87.1591C48.8938 87.2492 47.659 88.5691 47.659 90.1994C47.659 91.8886 48.9847 93.2447 50.6187 93.2447C52.2527 93.2447 53.5786 91.8886 53.5786 90.1994C53.5786 89.8658 53.526 89.5455 53.4304 89.2457C53.4442 89.3509 53.4521 89.458 53.4521 89.5668C53.4521 90.8881 52.4011 91.9727 51.1029 91.9727C49.8046 91.9727 48.7534 90.8881 48.7534 89.5668C48.7534 88.3592 49.6319 87.3498 50.7743 87.1852ZM47.0907 90.1994C47.0907 89.255 47.4473 88.3929 48.03 87.7475C46.5852 88.5754 45.6029 90.1865 45.6029 92.0487C45.6029 92.7275 45.733 93.1539 45.932 93.424C46.1309 93.694 46.4101 93.8399 46.8113 93.9222C47.3288 94.0283 48.0252 93.9979 48.8266 93.963C49.2679 93.9437 49.741 93.923 50.2335 93.923C50.7248 93.923 51.1979 93.9436 51.6403 93.9628C52.4467 93.9978 53.1507 94.0284 53.6757 93.9219C54.0822 93.8395 54.367 93.6925 54.5689 93.4223C54.7709 93.1521 54.903 92.7269 54.903 92.0487C54.903 90.9542 54.5633 89.9466 53.9901 89.1336C54.092 89.4708 54.1469 89.8287 54.1469 90.1994C54.1469 92.188 52.5678 93.8131 50.6187 93.8131C48.6695 93.8131 47.0907 92.188 47.0907 90.1994Z" fill="#2493EF"/>
<path fill-rule="evenodd" clip-rule="evenodd" d="M67.6524 87.0234C68.1524 86.7442 68.7257 86.5854 69.335 86.5854C69.3967 86.5854 69.4578 86.5872 69.5187 86.5904C69.5297 86.59 69.5407 86.5896 69.5517 86.5891C69.6012 86.5873 69.6508 86.5854 69.7007 86.5854C72.587 86.5854 74.9191 89.042 74.9191 92.0487C74.9191 92.8001 74.7758 93.3584 74.479 93.7612C74.1822 94.164 73.7433 94.3791 73.2564 94.479C72.6135 94.6108 71.8613 94.574 71.0393 94.5337C70.6163 94.5131 70.1748 94.4914 69.7202 94.4914C69.2661 94.4914 68.824 94.513 68.3996 94.5337C67.5732 94.5739 66.8141 94.6109 66.165 94.4792C65.6738 94.3796 65.2307 94.1655 64.9297 93.7629C64.6287 93.3602 64.4824 92.8007 64.4824 92.0487C64.4824 89.7999 65.787 87.859 67.6524 87.0234ZM72.2947 90.1994C72.2947 88.5691 71.0599 87.2492 69.5048 87.1591C69.3953 87.1639 69.2868 87.1726 69.1793 87.1852C70.3218 87.3498 71.2003 88.3592 71.2003 89.5668C71.2003 90.8881 70.1491 91.9727 68.8508 91.9727C67.5526 91.9727 66.5016 90.8881 66.5016 89.5668C66.5016 89.458 66.5094 89.3509 66.5233 89.2457C66.4277 89.5455 66.3751 89.8658 66.3751 90.1994C66.3751 91.8886 67.701 93.2447 69.335 93.2447C70.969 93.2447 72.2947 91.8886 72.2947 90.1994ZM74.3508 92.0487C74.3508 90.1865 73.3685 88.5754 71.9237 87.7475C72.5064 88.3929 72.863 89.255 72.863 90.1994C72.863 92.188 71.2842 93.8131 69.335 93.8131C67.3859 93.8131 65.8068 92.188 65.8068 90.1994C65.8068 89.8287 65.8617 89.4708 65.9636 89.1336C65.3904 89.9466 65.0507 90.9542 65.0507 92.0487C65.0507 92.7269 65.1828 93.1521 65.3847 93.4223C65.5867 93.6925 65.8715 93.8395 66.278 93.9219C66.803 94.0284 67.507 93.9979 68.3135 93.9628C68.7558 93.9436 69.2289 93.923 69.7202 93.923C70.2127 93.923 70.6858 93.9437 71.1271 93.9629C71.9285 93.9979 72.6249 94.0283 73.1424 93.9222C73.5436 93.8399 73.8225 93.694 74.0215 93.424C74.2204 93.1539 74.3508 92.7275 74.3508 92.0487Z" fill="#2493EF"/>
<path d="M56.664 87.7616C56.6717 87.7597 56.6794 87.7587 56.687 87.7583C57.1666 87.7359 57.3717 90.7359 56.3912 90.7328C55.8155 90.7196 56.0273 90.0332 56.2595 89.281C56.2768 89.2247 56.2943 89.1681 56.3116 89.1114C56.3882 88.8596 56.4006 88.611 56.4113 88.3963C56.4276 88.0719 56.4399 87.8249 56.664 87.7616Z" fill="#2493EF"/>
<path d="M57.9362 94.9536C58.0552 94.8286 58.2383 94.7512 58.408 94.749C58.5576 94.7471 58.6968 94.8038 58.7723 94.938C59.0908 95.5044 59.6098 96.5159 59.3458 96.5823C59.031 96.6614 58.1997 96.0161 57.9618 95.7896C57.7238 95.563 57.7124 95.1888 57.9362 94.9536Z" fill="#2493EF"/>
<path d="M61.5788 95.1945C61.6594 95.0465 61.811 94.9625 61.967 94.9619C62.0379 94.9617 62.1097 94.9787 62.1762 95.0149C62.3888 95.1309 62.524 95.4431 62.3488 95.6144C62.0023 95.9534 61.3739 96.5227 61.2752 96.3452C61.1574 96.1336 61.4615 95.4097 61.5788 95.1945Z" fill="#2493EF"/>
<path fill-rule="evenodd" clip-rule="evenodd" d="M64.2884 97.6178C64.3014 97.6157 64.3146 97.6146 64.3278 97.6145C64.5488 97.6109 64.7241 97.6986 64.8905 97.7854C64.9434 97.813 64.9957 97.8415 65.0477 97.87C65.1597 97.931 65.2705 97.9915 65.3831 98.0405C65.7129 98.184 66.0201 98.2561 66.4969 97.9714C66.7737 97.8057 67.0687 98.1563 66.8582 98.4008C66.4766 98.8453 65.9955 99.579 65.4603 100.395C65.0746 100.983 64.6608 101.614 64.236 102.211C63.7289 102.923 63.2034 103.589 62.6673 104.089C62.1313 104.59 61.577 104.945 60.9808 104.945C60.378 104.945 59.8017 104.631 59.2326 104.172C58.6635 103.713 58.0932 103.095 57.5147 102.417C57.1984 102.046 56.8793 101.657 56.5593 101.267C55.7088 100.23 54.8513 99.1846 54.0184 98.4493C53.758 98.2179 54.0624 97.8111 54.3578 97.9958C55.0001 98.4002 55.4199 98.6105 56.0108 98.6051C56.0598 98.6046 56.3262 98.4697 56.601 98.2848C56.6253 98.2684 56.6499 98.2516 56.6746 98.2347C56.9294 98.0609 57.2088 97.8704 57.5625 97.8704C57.8541 97.8704 58.1237 98.0026 58.4157 98.1846C58.7077 98.3665 59.0173 98.6104 59.3334 98.8843C59.8437 99.3264 60.3491 99.8342 60.7984 100.286C60.8428 100.33 60.8867 100.374 60.93 100.418C61.2635 100.119 61.5802 99.748 61.9083 99.3633C62.0346 99.2152 62.1626 99.0651 62.2938 98.9165C62.8258 98.3142 63.4393 97.7505 64.2884 97.6178ZM64.6275 98.2892C64.4904 98.2176 64.3941 98.1894 64.3494 98.1873C63.7165 98.2965 63.2166 98.7303 62.7198 99.2928C62.5805 99.4505 62.4431 99.6169 62.3038 99.7855C61.9391 100.227 61.5619 100.684 61.1073 101.038C60.9942 101.126 60.8331 101.116 60.7316 101.015C60.6765 100.96 60.6198 100.903 60.5618 100.845C60.0779 100.36 59.5023 99.7827 58.9613 99.3139C58.6583 99.0514 58.3658 98.8231 58.1152 98.6669C57.8646 98.5108 57.6509 98.4388 57.5625 98.4388C57.4518 98.4388 57.1875 98.575 56.9181 98.7563C56.8756 98.785 56.8332 98.8149 56.7907 98.845C56.564 99.0053 56.3307 99.1703 56.016 99.1732C55.8289 99.1749 55.6533 99.157 55.4841 99.1235C56.0063 99.6994 56.5222 100.327 57.0289 100.944C57.3386 101.321 57.6449 101.693 57.947 102.048C58.5161 102.714 59.0707 103.311 59.5895 103.73C60.1083 104.148 60.5831 104.376 60.9808 104.376C61.3372 104.376 61.7929 104.128 62.2797 103.674C62.7665 103.219 63.2768 102.578 63.7731 101.881C64.1761 101.315 64.5675 100.718 64.9395 100.15C65.2783 99.6332 65.6012 99.1406 65.9023 98.7183C65.6218 98.7211 65.3675 98.6536 65.1564 98.5618C65.0078 98.4971 64.8757 98.4245 64.7602 98.361C64.7132 98.3352 64.6689 98.3108 64.6275 98.2892Z" fill="#2493EF"/>
<path fill-rule="evenodd" clip-rule="evenodd" d="M59.6633 91.8483C60.0954 91.5904 60.4348 91.4081 60.7829 91.4081C61.1209 91.4081 61.4247 91.5867 61.7688 91.8317C62.1129 92.0766 62.4882 92.4064 62.8829 92.7776C63.2341 93.1077 63.6003 93.4708 63.9657 93.833C64.4218 94.2852 64.8765 94.736 65.2987 95.1196C65.8446 95.6155 66.4708 95.9911 67.0421 96.3339C67.1953 96.4258 67.3445 96.5153 67.4872 96.6042C67.8247 96.8143 68.1269 97.0199 68.3605 97.2648C68.5941 97.5096 68.7615 97.8139 68.7615 98.164C68.7615 98.6582 68.4842 99.1509 68.1241 99.6692C67.764 100.187 67.3027 100.722 66.869 101.214C66.5369 101.59 66.1422 102.136 65.703 102.743C65.257 103.359 64.7651 104.039 64.2462 104.67C63.2945 105.827 62.2449 106.857 61.0798 106.994V107.012L60.8051 107.022C60.7977 107.022 60.7916 107.022 60.787 107.022C60.7781 107.022 60.7754 107.022 60.7754 107.022C60.7716 107.022 60.7671 107.022 60.7619 107.022L60.486 107.013V106.999C59.3589 106.888 58.3593 106.057 57.4723 105.088C56.9216 104.486 56.4083 103.823 55.9426 103.221C55.5945 102.772 55.2731 102.356 54.9827 102.027C54.727 101.737 54.3277 101.358 53.9 100.951C53.6449 100.709 53.3797 100.457 53.1288 100.208C52.7931 99.8761 52.482 99.5492 52.2461 99.2456C52.0103 98.9421 51.8257 98.6772 51.8257 98.3497C51.8257 97.9995 51.9931 97.6952 52.2267 97.4504C52.4603 97.2056 52.7625 97 53.0999 96.7899C53.2426 96.701 53.3918 96.6115 53.545 96.5196C54.1164 96.1769 54.7426 95.8012 55.2885 95.3052C56.0663 94.5985 57.1806 93.6396 58.2162 92.8514C58.734 92.4573 59.2312 92.1062 59.6633 91.8483ZM60.7844 107.022L60.7893 107.022H60.7813L60.7844 107.022ZM61.4392 92.2949C61.1332 92.0771 60.8747 91.9766 60.7829 91.9766C60.7014 91.9766 60.3562 92.0966 59.9547 92.3363C59.5531 92.5759 59.0678 92.9175 58.5603 93.3038C57.5452 94.0764 56.4375 95.029 55.6703 95.726C55.0687 96.2726 54.4025 96.6704 53.8302 97.0123C53.6794 97.1023 53.5351 97.1885 53.4002 97.2725C53.0768 97.4739 52.8089 97.6634 52.6377 97.8429C52.4664 98.0224 52.394 98.1714 52.394 98.3497C52.394 98.3946 52.4871 98.6296 52.6948 98.897C52.9026 99.1645 53.2009 99.4799 53.5287 99.8044C53.7664 100.04 54.0191 100.279 54.2663 100.514C54.7007 100.926 55.1183 101.321 55.4089 101.651C55.7269 102.011 56.0672 102.451 56.4272 102.916C56.8848 103.507 57.3744 104.139 57.8913 104.704C58.814 105.712 59.8068 106.465 60.763 106.452L60.7829 106.452L60.8051 106.452C61.7261 106.462 62.8105 105.521 63.8075 104.309C64.2962 103.715 64.7622 103.07 65.1966 102.469C65.6501 101.841 66.069 101.262 66.4428 100.838C66.8732 100.35 67.3228 99.8262 67.6573 99.3447C67.9919 98.8633 68.1932 98.4147 68.1932 98.164C68.1932 97.9858 68.1208 97.8367 67.9495 97.6572C67.7783 97.4777 67.5104 97.2882 67.187 97.0868C67.052 97.0028 66.9075 96.9165 66.7565 96.8263C66.1842 96.4845 65.518 96.0867 64.9166 95.5403C64.4757 95.1397 64.0089 94.677 63.5477 94.2196C63.188 93.8631 62.8317 93.5098 62.4936 93.192C62.1078 92.8292 61.7451 92.5127 61.4392 92.2949Z" fill="#2493EF"/>
<path d="M46.0296 97.7005C46.0296 97.4637 46.2137 97.2717 46.4409 97.2717C46.5665 97.2717 46.6155 97.3546 46.6812 97.466C46.7232 97.5373 46.7721 97.6202 46.8524 97.7005C47.5675 98.4159 47.7647 98.8938 46.4409 98.1293C46.4027 98.1073 46.3667 98.0875 46.3333 98.0691C46.141 97.9635 46.0296 97.9022 46.0296 97.7005Z" fill="#2493EF"/>
<path d="M45.5685 99.2057C45.0964 98.8205 45.1067 98.5338 45.3948 98.5346C45.5456 98.5349 45.7726 98.6142 46.0463 98.7996C46.8424 99.339 46.1419 99.6608 45.5685 99.2057Z" fill="#2493EF"/>
<path d="M43.9513 100.246C43.9513 100.031 44.1132 99.7974 44.3123 99.7908C44.3407 99.7898 44.3698 99.7933 44.3994 99.8024C44.8676 99.946 45.6767 100.229 45.5671 100.402C45.4363 100.609 44.647 100.689 44.3994 100.689C44.1518 100.689 43.9513 100.49 43.9513 100.246Z" fill="#2493EF"/>
<path d="M44.2654 102.032C44.2654 101.839 44.4278 101.592 44.6053 101.592C44.6382 101.591 44.6714 101.6 44.7044 101.618C44.8531 101.703 45.0914 101.696 45.3026 101.69C45.5341 101.683 45.733 101.677 45.7449 101.794C45.7682 102.021 44.9469 102.446 44.7044 102.446C44.4618 102.446 44.2654 102.26 44.2654 102.032Z" fill="#2493EF"/>
<path d="M45.791 102.926C45.8744 102.879 45.9489 102.856 46.0077 102.857C46.1372 102.858 46.1913 102.979 46.0987 103.239C46.0408 103.401 45.9513 103.495 45.791 103.551C45.5556 103.634 45.4309 103.477 45.4833 103.239C45.5189 103.076 45.6333 103.013 45.7743 102.935L45.791 102.926Z" fill="#2493EF"/>
<path d="M62.9871 107.825C63.3174 107.731 63.6407 107.639 63.8677 107.645C63.9829 107.648 64.0732 107.676 64.1272 107.741C64.4389 108.146 60.7448 109.823 60.3454 108.911C60.1085 108.339 61.3713 108.108 62.2173 108.005C62.4467 107.978 62.7192 107.901 62.9871 107.825Z" fill="#2493EF"/>
<path d="M62.7276 112.661C62.7652 112.635 62.8085 112.618 62.8538 112.613C62.8991 112.607 62.9451 112.613 62.9878 112.629C63.0746 112.661 63.1401 112.734 63.1635 112.823C63.4948 114.093 63.4361 115.134 63.2731 116.145C64.3324 114.747 65.7171 113.598 67.3643 112.805C67.5432 112.719 67.7529 112.838 67.7706 113.036C68.126 117.01 65.7417 120.354 62.192 121.737C62.0458 121.794 61.8811 121.722 61.8241 121.576C61.7671 121.43 61.8395 121.265 61.9858 121.208C65.1873 119.96 67.3226 117.061 67.2075 113.549C65.4214 114.502 63.9624 115.87 62.9917 117.566C62.8308 117.846 62.4017 117.683 62.467 117.367C62.7448 116.023 62.9783 114.878 62.689 113.402C60.515 115.022 59.5574 116.948 59.754 120.738C59.7622 120.895 59.6417 121.029 59.4849 121.037C59.3281 121.045 59.1944 120.924 59.1863 120.768C58.9727 116.65 60.1757 114.415 62.7276 112.661Z" fill="#2493EF"/>
<path d="M51.6894 88.0114C51.6632 88.0118 51.6362 88.0141 51.6087 88.0183C51.3574 88.057 51.1982 88.2294 51.1483 88.4788C51.0706 88.8672 51.2967 89.0389 51.6087 88.9393C51.8509 88.8619 52.0201 88.7284 52.069 88.4788C52.1274 88.1816 51.9431 88.0077 51.6894 88.0114V88.0114ZM68.2642 88.0114C68.0105 88.0077 67.8259 88.1816 67.8843 88.4788C67.9332 88.7284 68.1027 88.8619 68.3449 88.9393C68.6569 89.0389 68.883 88.8672 68.8052 88.4788C68.7554 88.2294 68.5962 88.057 68.3449 88.0184C68.3174 88.0141 68.2904 88.0118 68.2642 88.0114V88.0114ZM50.4438 88.9309C50.1766 88.9309 50.0047 89.1067 49.8949 89.3317C49.7476 89.6945 49.9653 90.273 50.4438 90.2835C50.8172 90.2835 51.12 89.9805 51.12 89.6071C51.12 89.2336 50.8172 88.9309 50.4438 88.9309ZM69.5098 88.9309C69.1364 88.9309 68.8336 89.2336 68.8336 89.6071C68.8336 89.9805 69.1364 90.2835 69.5098 90.2835C69.9883 90.273 70.206 89.6945 70.0586 89.3317C69.9489 89.1067 69.777 88.9309 69.5098 88.9309ZM49.5481 90.3065C49.4838 90.3104 49.4147 90.3341 49.3478 90.3751C49.2809 90.4162 49.2185 90.4731 49.1668 90.5402C49.0888 90.6416 49.0406 90.7593 49.0328 90.8675C49.0251 90.9758 49.0584 91.0656 49.1255 91.1172C49.1587 91.1428 49.1992 91.1583 49.2446 91.1627C49.2901 91.1672 49.3397 91.1605 49.3905 91.1431C49.4413 91.1257 49.4924 91.0979 49.5408 91.0613C49.5892 91.0248 49.634 90.9801 49.6727 90.9299C49.7507 90.8285 49.7989 90.7107 49.8067 90.6025C49.8144 90.4943 49.7811 90.4045 49.714 90.3528C49.6696 90.3186 49.6124 90.3026 49.5481 90.3065V90.3065ZM70.4055 90.3065C70.3412 90.3026 70.284 90.3186 70.2396 90.3528C70.1725 90.4045 70.1392 90.4943 70.1469 90.6025C70.1547 90.7107 70.2029 90.8285 70.2809 90.9299C70.3196 90.9801 70.3644 91.0248 70.4128 91.0613C70.4612 91.0979 70.5123 91.1257 70.5631 91.1431C70.6139 91.1605 70.6635 91.1672 70.709 91.1627C70.7544 91.1583 70.7949 91.1428 70.8281 91.1172C70.8952 91.0656 70.9285 90.9758 70.9207 90.8675C70.913 90.7593 70.8648 90.6416 70.7868 90.5402C70.7351 90.4731 70.6727 90.4162 70.6058 90.3751C70.5388 90.3341 70.4698 90.3104 70.4055 90.3065V90.3065Z" fill="white"/>
</g>
<defs>
<linearGradient id="paint0_linear_2565_357" x1="141.5" y1="0" x2="141.5" y2="127" gradientUnits="userSpaceOnUse">
<stop stop-color="#FFFCEF" stop-opacity="0"/>
<stop offset="0.21" stop-color="#FFFCEF"/>
<stop offset="0.635" stop-color="#DEE0F6"/>
<stop offset="1" stop-color="#BCE0FD"/>
</linearGradient>
<clipPath id="clip0_2565_357">
<rect width="283" height="127" fill="white"/>
</clipPath>
</defs>
</svg>
