<!-- This Source Code Form is subject to the terms of the Mozilla Public
   - License, v. 2.0. If a copy of the MPL was not distributed with this
   - file, You can obtain one at http://mozilla.org/MPL/2.0/. -->
<svg width="300" height="300" version="1.1" viewBox="0 0 79.375 79.375" xmlns="http://www.w3.org/2000/svg">
  <ellipse cx="35.963" cy="60.548" rx="15.196" ry="2.3841" fill="#fefeff" fill-opacity=".48001" stroke-width=".29234"/>
  <path d="m36.047 19.41c-4.4982-1.7e-5 -8.1447 3.4697-8.1447 7.7499 1.51e-4 0.24727 0.01274 0.4944 0.03772 0.74052-0.99194 0.81304-1.558 1.9688-1.558 3.1812 4.7e-5 1.5603 0.93476 2.9976 2.4407 3.7527 0.02085 0.13742 0.30639 2.0565 0.30282 3.5404-0.18418 0.41388-0.89123 1.6677-2.7032 1.5239-2.1625-0.17163-3.3905-2.7554-3.3905-2.7554s-0.60994-1.9455-1.6434-2.0236c-0.96743-0.07306-0.67426 1.7409-0.67426 1.7409s0.18192 4.9179 4.1186 6.2797c0.42378 0.1466 0.83195 0.25504 1.2278 0.3421-0.9343 0.97235-2.1668 2.2657-2.8763 3.0882-1.0793 1.2511-1.3811 1.6822-2.0304 1.7978-0.64927 0.11561-3.5976-1.027-4.2478-1.0811-4.0779-0.33944-1.9858 1.4504-1.9858 1.4504s2.6731 2.4946 4.2048 2.8935c1.5317 0.39887 1.697 0.3256 2.2608 0.26975 0.56382-0.05585 1.7077-0.06807 3.1946-1.0227 1.0458-0.6714 3.1716-2.2181 4.6245-3.1807 0.0816 0.72176 0.02405 1.4594 0.0863 2.7549 0.10088 2.099 0.17194 3.9611-1.1746 5.4131-1.1433 1.2328-1.8636 1.5117-2.0655 1.572-0.52537 0.0845-0.90908 0.50858-0.90899 1.0046 3.26e-4 0.55464 0.47727 1.0072 1.0733 1.0185l5.3e-4 0.0036s2.5185 0.42481 4.1672-0.71107c1.6487-1.1359 3.5453-3.7658 3.9656-5.656 0.4204-1.8901 0.95442-5.2651 1.5756-5.5904 0.46896-0.24551 1.3174 4.6147 1.7012 5.7914 0.38379 1.1766 1.5944 3.8405 3.0634 4.8044 1.4485 0.95039 3.4636 1.3532 4.5837 1.2795 0.01722 6.09e-4 0.03445 9.76e-4 0.05168 0.0011 0.79347 6e-5 1.4367-0.50366 1.4366-1.125-7e-6 -0.36954-0.23181-0.71551-0.62012-0.92552-0.05145-0.0382-0.34598-0.25401-1.1694-0.75344-0.90125-0.54662-2.4485-1.8997-2.5321-4.1858-0.06164-1.6837 0.04596-3.4773 0.15555-5.2503 0.36244-0.04441 0.87024-0.0055 1.5694 0.23978 1.8317 0.64258 2.44 1.6458 3.1414 2.4169 0.7014 0.77113 2.2625 1.8248 4.0013 1.9771 1.7388 0.15239 2.282-0.64379 3.0954-1.064 0.81343-0.42023 0.50544-0.99596 0.82682-2.0479 0.32139-1.052-0.67861-0.26114-2.2252-0.45579-1.5466-0.19464-2.059-0.83252-2.7471-1.3586-0.68809-0.52605-1.2902-1.8953-2.3167-2.975-0.20753-0.21828-0.43582-0.39526-0.66766-0.54105 0.44637-0.02011 0.86425-0.06243 1.1839-0.14263 1.3367-0.33539 2.3263-1.6463 3.2432-2.8122 0.91694-1.1659 1.2291-2.805 1.1152-4.9036-0.11394-2.0986 0.06614-3.4129 0.6258-4.4111 0.55966-0.99821 1.9466-1.9845 2.434-2.4856 0.4874-0.50118-0.16216-2.7965-1.525-2.1983-1.3628 0.59816-2.2172 1.2577-4.1501 3.0019-1.9329 1.7442-1.697 3.678-1.8118 4.6555-0.11475 0.97749 0.48506 2.8561-1.2501 4.2034-1.7351 1.3472-2.8484 0.22178-3.6758-0.852-0.82744-1.0738-0.62366-2.5437-0.62366-2.5437 1.7322-0.63297 2.8537-2.076 2.8536-3.6716-1.5e-5 -1.1369-0.57221-2.22-1.5735-2.9786 0.04878-0.34342 0.07329-0.68957 0.07338-1.0361 1.2e-5 -4.2802-3.6465-7.7499-8.1447-7.7499z" fill="none" stroke="#05a7eb" stroke-linecap="round" stroke-linejoin="bevel" stroke-width="1.0583"/>
  <path d="m36.047 19.41c-4.4982-1.7e-5 -8.1447 3.4697-8.1447 7.7499 1.51e-4 0.24727 0.01274 0.4944 0.03772 0.74052-0.99194 0.81304-1.558 1.9688-1.558 3.1812 4.7e-5 1.5603 0.93476 2.9976 2.4407 3.7527 0.02085 0.13742 0.30639 2.0565 0.30282 3.5404-0.18418 0.41388-0.89123 1.6677-2.7032 1.5239-2.1625-0.17163-3.3905-2.7554-3.3905-2.7554s-0.51096-1.1628-1.3544-1.2263c-0.84348-0.06347-0.96325 0.94361-0.96325 0.94361s0.18192 4.9179 4.1186 6.2797c0.42378 0.1466 0.83195 0.25504 1.2278 0.3421-0.9343 0.97235-2.1668 2.2657-2.8763 3.0882-1.0793 1.2511-1.3811 1.6822-2.0304 1.7978-0.64927 0.11561-3.6093-0.94673-4.2478-1.0811-0.63847-0.13434-0.28009 3.1037-0.28009 3.1037s0.96735 0.84136 2.4991 1.2402c1.5317 0.39887 1.697 0.3256 2.2608 0.26975 0.56382-0.05585 1.7077-0.06807 3.1946-1.0227 1.0458-0.6714 3.1716-2.2181 4.6245-3.1807-3e-3 0.79829 0.02405 1.4594 0.0863 2.7549 0.10088 2.099 0.17194 3.9611-1.1746 5.4131-1.1433 1.2328-1.8636 1.5117-2.0655 1.572-0.52537 0.0845-0.90908 0.50858-0.90899 1.0046 3.26e-4 0.55464 0.47727 1.0072 1.0733 1.0185l5.3e-4 0.0036s2.5185 0.42481 4.1672-0.71107c1.6487-1.1359 3.5453-3.7658 3.9656-5.656 0.4204-1.8901 0.95442-5.2651 1.5756-5.5904 0.46896-0.24551 1.3174 4.6147 1.7012 5.7914 0.38379 1.1766 1.5944 3.8405 3.0634 4.8044 1.4485 0.95039 3.4636 1.3532 4.5837 1.2795 0.01722 6.09e-4 0.03445 9.76e-4 0.05168 0.0011 0.79347 6e-5 1.4367-0.50366 1.4366-1.125-7e-6 -0.36954-0.23181-0.71551-0.62012-0.92552-0.05145-0.0382-0.34598-0.25401-1.1694-0.75344-0.90125-0.54662-2.4485-1.8997-2.5321-4.1858-0.06164-1.6837 0.04596-3.4773 0.15555-5.2503 0.36244-0.04441 0.87024-0.0055 1.5694 0.23978 1.8317 0.64258 2.44 1.6458 3.1414 2.4169 0.7014 0.77113 2.2625 1.8248 4.0013 1.9771 1.7388 0.15239 2.282-0.64379 3.0954-1.064 0.81343-0.42023 0.50544-0.99596 0.82682-2.0479 0.32139-1.052-0.67861-0.26114-2.2252-0.45579-1.5466-0.19464-2.059-0.83252-2.7471-1.3586-0.68809-0.52605-1.2902-1.8953-2.3167-2.975-0.20753-0.21828-0.43582-0.39526-0.66766-0.54105 0.44637-0.02011 0.86425-0.06243 1.1839-0.14263 1.3367-0.33539 2.3263-1.6463 3.2432-2.8122 0.91694-1.1659 1.2291-2.805 1.1152-4.9036-0.11394-2.0986 0.06614-3.4129 0.6258-4.4111 0.55966-0.99821 1.9466-1.9845 2.434-2.4856 0.4874-0.50118-0.16216-2.7965-1.525-2.1983-1.3628 0.59816-2.2172 1.2577-4.1501 3.0019-1.9329 1.7442-1.697 3.678-1.8118 4.6555-0.11475 0.97749 0.48506 2.8561-1.2501 4.2034-1.7351 1.3472-2.6707 0.3177-3.5832-0.66921s-0.71624-2.7264-0.71624-2.7264c1.7322-0.63297 2.8537-2.076 2.8536-3.6716-1.5e-5 -1.1369-0.57221-2.22-1.5735-2.9786 0.04878-0.34342 0.07329-0.68957 0.07338-1.0361 1.2e-5 -4.2802-3.6465-7.7499-8.1447-7.7499z" fill="#cde7f8"/>
  <path d="m27.463 31.113c0.10843 2.0072 1.4842 3.2036 2.9901 3.9588 0.02085 0.13742-0.34457 2.0939-1.3445 3.8164-0.18418 0.41388-0.87356 1.1549-2.6855 1.0111-2.1625-0.17163-3.3905-2.7554-3.3905-2.7554s-0.51096-1.1628-1.3544-1.2263c-0.84348-0.06347-0.96325 0.94361-0.96325 0.94361s0.84366 4.3044 4.7769 5.6761c1.1707 0.40829 2.7731 0.64002 4.9686 0.10294 1.4589-0.35689 2.4778-1.6704 2.5176-1.5153 0 0-0.39255 1.9048-4.04 2.4379-1.6072 0.23488-2.3208-0.05807-2.8767-0.07974-0.97615 1.0359-1.8544 1.902-2.564 2.7245-1.0793 1.2511-1.6934 2.0459-2.3427 2.1615-0.64927 0.11561-3.6093-0.94673-4.2478-1.0811-0.63847-0.13434-0.3114 1.4571-0.3114 1.4571s0.7516 0.31849 2.2833 0.71736c1.5317 0.39887 2.0294 0.35416 2.6493 0.27466 0.53243-0.06829 1.7323-0.23885 3.0515-1.1704 0.92331-0.65194 3.6615-3.4164 3.8602-4.8147 0.89061-0.12684 1.4681-0.26323 2.018-0.3301-0.72619 0.84958-1.2278 5.7358-1.1655 7.0313 0.10088 2.099 0.17194 3.9611-1.1746 5.4131-1.1433 1.2328-1.8636 1.5117-2.0655 1.572-0.52537 0.0845-0.90908 0.50858-0.90899 1.0046 0.01078 0.44749 0.8264 0.53037 1.1244 0.53602 0 0 2.1315 0.09148 3.6604-0.91215 1.6737-1.0986 2.829-3.3513 3.2494-5.2414 0.4204-1.8901 0.18272-8.4143 2.7135-8.401 1.9578 0.01032 2.6608 6.7452 3.0446 7.9218 0.38379 1.1766 1.0058 3.8896 2.4748 4.8534 1.4485 0.95039 2.924 1.6184 3.9066 1.5821 0.98262-0.03629 1.4451 0.0986 1.445-0.52274-7e-6 -0.36954-0.23181-0.71551-0.62012-0.92552-0.05145-0.0382-0.34598-0.25401-1.1694-0.75344-0.90125-0.54662-2.4485-1.8997-2.5321-4.1858-0.06164-1.6837 0.11458-5.3871 0.05743-6.8071-0.05715-1.42 0.03417-2.0048-0.15563-2.861-0.18979-0.85626-1.5052-1.0956-1.6393-1.4892-0.10859-0.31884 0.40471-0.26233 0.6135-0.14178 3.0132 1.9435 5.7632 1.0343 6.4306 0.67316s1.5964-0.71236 2.5134-1.8782c0.91694-1.1659 1.7272-2.7075 1.6132-4.8061-0.11394-2.0986 0.11275-3.6508 0.75828-4.5958 0.6556-0.95968 2.2193-1.9506 2.7067-2.4517 0.4874-0.50118 0.37496-2.2527-0.98786-1.6546-1.3628 0.59816-2.2172 1.2577-4.1501 3.0019-1.9329 1.7442-1.697 3.678-1.8118 4.6555-0.11475 0.97749 0.48506 2.8561-1.2501 4.2034-1.7351 1.3472-3.3851 0.47519-4.1637-0.31079-0.77782-0.67288-1.3536-2.8358-1.3536-2.8358 2.2479-0.53373 4.7541-4.5353 1.7042-7.571 0.35888-3.7899-2.7156-7.7632-7.2138-7.7632-4.4982-1e-6 -7.7969 3.4128-7.3356 8.1071-0.97102 0.90875-1.4369 1.9453-1.3133 3.2442z" fill="#fefefe"/>
  <g fill="#05a7eb">
    <ellipse cx="32.002" cy="30.363" rx=".44608" ry=".83815"/>
    <ellipse cx="40.609" cy="30.362" rx=".428" ry=".79574"/>
    <path d="m31.985 28.01c-0.45481-0.0087-0.76903 0.16497-0.94797 0.3547s-0.23559 0.40761-0.23559 0.40761a0.25329 0.26547 0 0 0 0.18324 0.32334 0.25329 0.26547 0 0 0 0.30851-0.19009s0.01465-0.07304 0.10471-0.16853c0.09006-0.09549 0.24296-0.20239 0.57963-0.19597 0.3364 0.0064 0.4816 0.11898 0.56654 0.21752 0.08494 0.09854 0.09536 0.17049 0.09536 0.17049a0.25329 0.26547 0 0 0 0.29916 0.20772 0.25329 0.26547 0 0 0 0.19819-0.31355s-0.04621-0.22136-0.21689-0.41937-0.4798-0.3852-0.93488-0.39389z" color="#000000" color-rendering="auto" dominant-baseline="auto" image-rendering="auto" shape-rendering="auto" solid-color="#000000" stop-color="#000000" style="font-feature-settings:normal;font-variant-alternates:normal;font-variant-caps:normal;font-variant-east-asian:normal;font-variant-ligatures:normal;font-variant-numeric:normal;font-variant-position:normal;font-variation-settings:normal;inline-size:0;isolation:auto;mix-blend-mode:normal;shape-margin:0;shape-padding:0;text-decoration-color:#000000;text-decoration-line:none;text-decoration-style:solid;text-indent:0;text-orientation:mixed;text-transform:none;white-space:normal"/>
    <path d="m40.618 26.395c-0.45481-0.0087-0.76903 0.16497-0.94797 0.3547s-0.23559 0.40761-0.23559 0.40761a0.25329 0.26547 0 0 0 0.18324 0.32334 0.25329 0.26547 0 0 0 0.30851-0.19009s0.01465-0.07304 0.10471-0.16853c0.09006-0.09549 0.24296-0.20239 0.57963-0.19597 0.3364 0.0064 0.4816 0.11898 0.56654 0.21752 0.08494 0.09854 0.09536 0.17049 0.09536 0.17049a0.25329 0.26547 0 0 0 0.29916 0.20772 0.25329 0.26547 0 0 0 0.19819-0.31355s-0.04621-0.22136-0.21689-0.41937-0.4798-0.3852-0.93488-0.39389z" color="#000000" color-rendering="auto" dominant-baseline="auto" image-rendering="auto" shape-rendering="auto" solid-color="#000000" stop-color="#000000" style="font-feature-settings:normal;font-variant-alternates:normal;font-variant-caps:normal;font-variant-east-asian:normal;font-variant-ligatures:normal;font-variant-numeric:normal;font-variant-position:normal;font-variation-settings:normal;inline-size:0;isolation:auto;mix-blend-mode:normal;shape-margin:0;shape-padding:0;text-decoration-color:#000000;text-decoration-line:none;text-decoration-style:solid;text-indent:0;text-orientation:mixed;text-transform:none;white-space:normal"/>
    <ellipse transform="matrix(.72124 -.69268 .8781 .47847 0 0)" cx="-32.027" cy="56.393" rx="1.1306" ry=".77014"/>
    <ellipse transform="matrix(.92091 -.38978 .58448 .81141 0 0)" cx="-11.852" cy="57.528" rx="1.1243" ry=".74805"/>
    <ellipse transform="matrix(.97875 .20507 -.074049 .99725 0 0)" cx="22.546" cy="46.529" rx="1.1193" ry=".75073"/>
    <ellipse transform="matrix(.097116 -.99527 .99187 -.12723 0 0)" cx="-57.41" cy="40.148" rx="1.1354" ry=".69786"/>
    <ellipse transform="matrix(-.80948 -.58714 .43784 -.89905 0 0)" cx="-64.145" cy="-12.145" rx="1.0832" ry=".68138"/>
    <ellipse transform="matrix(-.99443 -.10544 -.10859 -.99409 0 0)" cx="-44.986" cy="-46.612" rx="1.1357" ry=".78417"/>
    <ellipse transform="matrix(-.80167 .59777 -.74752 -.66424 0 0)" cx="2.4445" cy="-74.384" rx=".93657" ry=".66803"/>
    <ellipse transform="matrix(-.046119 .99894 -.99355 .11338 0 0)" cx="43.498" cy="-54.915" rx=".99775" ry=".62706"/>
    <ellipse transform="matrix(-.40189 .91569 -.9924 -.12306 0 0)" cx="36.781" cy="-65.363" rx="1.0533" ry=".85796"/>
    <ellipse transform="matrix(.61614 .78764 -.70808 .70613 0 0)" cx="44.88" cy="7.5031" rx="1.0451" ry=".8136"/>
    <ellipse transform="matrix(.50005 -.86599 .97794 .20887 0 0)" cx="-51.788" cy="58.762" rx="1.1631" ry=".7855"/>
  </g>
  <g fill="none" stroke="#05a7eb" stroke-linecap="round" stroke-linejoin="bevel" stroke-width=".26458">
    <path d="m42.696 47.621s0.09037-1.2769 0.06182-2.3845"/>
    <path d="m29.066 48.629s-0.05091-1.5364 0.26637-2.7173"/>
    <path d="m44.235 34.449c-1.2853 0.65114-2.0591 0.69564-3.0024 0.54304"/>
    <path d="m27.801 34.453c0.59055 0.49319 1.7085 0.77054 2.6518 0.61794"/>
    <path d="m25.214 43.425c2.2061 0.59323 6.357 0.24288 7.466-1.5559"/>
    <path d="m44.428 43.116c1.2929 0.54053 3.7053 0.3924 4.4862 0.07204"/>
  </g>
  <path transform="scale(.26458)" d="m66.607 93.844c-3.9581-0.02916-9.1155 5.2526-12.557 12.859-4.1829 9.2465-4.433 18.744-0.55859 21.213 1.0906 0.69539 2.4408 0.7743 3.9434 0.23046 22.916-2.7796 37.433 5.0142 37.433 5.0142l6.2701 1.482s2.8639-1.0364 4.6749-4.6337c1.7916-3.5589 0.55753-7.6261 0.55753-7.6261s-5.4819-3.3939-13.766-7.5508c-7.4173-3.7221-19.747-15.961-22.365-18.598-0.42787-0.79282-0.96596-1.3992-1.5996-1.8027-0.6021-0.38426-1.2855-0.58185-2.0332-0.58789z" fill="#fcfdfe" stroke="#04afe6" stroke-linecap="round" stroke-linejoin="round" stroke-width="2"/>
  <ellipse transform="matrix(.83974 .54299 -.40726 .91331 0 0)" cx="27.223" cy="15.972" rx="1.8106" ry="4.0309" fill="#04aee6"/>
  <path transform="scale(.26458)" d="m68.852 106.29a3.4758 7.251 22.642 0 0-5.2207 5.2676 3.4758 7.251 22.642 0 0 0.2207 8.2012 3.4758 7.251 22.642 0 0 0.77734 0.17969 6.7418 15.28 21.86 0 0 2.9336-5.2188 6.7418 15.28 21.86 0 0 2.4277-8.0176 3.4758 7.251 22.642 0 0-0.34961-0.23242 3.4758 7.251 22.642 0 0-0.78906-0.17969z" fill="#fff" fill-opacity=".55006"/>
  <path transform="scale(.26458)" d="m93.077 113.9c-1e-6 0 0.17995 5.9905-2.1042 9.9634-1.1977 2.0832-3.3816 4.2923-4.2522 5.2334 0 0-0.45584 0.87601-1.1199 1.8435l-7.7609 11.344c-1.2546 1.8296-0.79249 4.3118 1.0371 5.5664s4.3137 0.79249 5.5684-1.0371l9.0395-12.793c1.1512 0.25212 2.8681 0.66637 2.8681 0.66637s3.5241-2.32 5.5319-6.4635c1.915-3.9521 1.8197-8.561 1.8197-8.561l-4.8138-2.8256z" fill="#05a3ed"/>
  <g fill="#cde7f8">
    <path transform="scale(.26458)" d="m63.938 154.93 0.35352 8.2656c0.036374 0.85103-0.61968 1.5652-1.4707 1.6016l-3.7031 0.1582c-0.85103 0.03638-1.5652-0.61967-1.6016-1.4707l-0.35156-8.2383a10.144 10.24 0 0 0-6.3145 9.4824 10.144 10.24 0 0 0 8.0059 10.01l0.50391 16.9a10.144 10.24 0 0 0-5.0723 8.8672 10.144 10.24 0 0 0 7.8613 9.9785l-0.19531-8.1523c-0.0205-0.85156 0.64844-1.5537 1.5-1.5742l3.7051-0.08984c0.85156-0.0205 1.5537 0.65039 1.5742 1.502l0.17969 7.5215a10.144 10.24 0 0 0 5.6621-9.1855 10.144 10.24 0 0 0-8.2832-10.066l-0.49609-16.689a10.144 10.24 0 0 0 5.3438-9.0215 10.144 10.24 0 0 0-7.2012-9.7988z" stroke="#04afe6" stroke-linecap="round" stroke-linejoin="round" stroke-width="3" style="paint-order:stroke fill markers"/>
    <path transform="scale(.26458)" d="m63.938 154.93 0.35352 8.2656c0.036374 0.85103-0.61968 1.5652-1.4707 1.6016l-3.7031 0.1582c-0.85103 0.03638-1.5652-0.61967-1.6016-1.4707l-0.35156-8.2383a10.144 10.24 0 0 0-6.3145 9.4824 10.144 10.24 0 0 0 8.0059 10.01l0.50391 16.9a10.144 10.24 0 0 0-5.0723 8.8672 10.144 10.24 0 0 0 7.8613 9.9785l-0.19531-8.1523c-0.0205-0.85156 0.64844-1.5537 1.5-1.5742l3.7051-0.08984c0.85156-0.0205 1.5537 0.65039 1.5742 1.502l0.17969 7.5215a10.144 10.24 0 0 0 5.6621-9.1855 10.144 10.24 0 0 0-8.2832-10.066l-0.49609-16.689a10.144 10.24 0 0 0 5.3438-9.0215 10.144 10.24 0 0 0-7.2012-9.7988z" style="paint-order:stroke fill markers"/>
  </g>
  <g>
    <path d="m24.31 36.014a1.9191 1.4973 0 0 1-1.9191 1.4973 1.9191 1.4973 0 0 1-1.9191-1.4973 1.9191 1.4973 0 0 1 1.9191-1.4973 1.9191 1.4973 0 0 1 1.9191 1.4973z" fill="#cde7f8" style="paint-order:stroke fill markers"/>
    <path d="m23.378 35.659a1.324 1.0843 0 0 1-1.323 1.0843 1.324 1.0843 0 0 1-1.3251-1.0825 1.324 1.0843 0 0 1 1.3208-1.0861 1.324 1.0843 0 0 1 1.3273 1.0807l-1.324 0.0035z" fill="#fefefe" style="paint-order:stroke fill markers"/>
    <path d="m18.107 47.617a1.9191 1.4973 0 0 1-1.9191 1.4973 1.9191 1.4973 0 0 1-1.9191-1.4973 1.9191 1.4973 0 0 1 1.9191-1.4973 1.9191 1.4973 0 0 1 1.9191 1.4973z" fill="#cde7f8" style="paint-order:stroke fill markers"/>
    <path d="m17.24 47.295a1.4041 1.0572 0 0 1-1.403 1.0572 1.4041 1.0572 0 0 1-1.4053-1.0555 1.4041 1.0572 0 0 1 1.4006-1.059 1.4041 1.0572 0 0 1 1.4076 1.0538l-1.4041 0.0034z" fill="#fefefe" style="paint-order:stroke fill markers"/>
    <path transform="rotate(-4.8837)" d="m56.653 44.587 0.947-0.90064c0.13528-0.12866 0.33286 0.15034 0.33699 0.33699l0.19304 8.7247c0.0041 0.18665-0.15032 0.3339-0.33699 0.33699l-0.88448 0.01464c-0.18667 0.0031-0.33439-0.15032-0.33699-0.33699l-0.1068-7.6597c-0.0026-0.18667 0.05296-0.38737 0.18824-0.51603z" fill="#e5e5ec" style="paint-order:stroke fill markers"/>
  </g>
  <g>
    <path d="m65.46 41.311-0.07279-1.3049c-0.01044-0.1864-0.34547-0.11853-0.47635 0.01462l-6.118 6.2232c-0.13086 0.13315-0.11926 0.34621 0.01462 0.47635l0.63426 0.61664c0.13385 0.13014 0.34656 0.1196 0.47635-0.01462l5.3255-5.5064c0.12978-0.1342 0.22682-0.31846 0.21642-0.50486z" fill="#dedede" style="paint-order:stroke fill markers"/>
    <path transform="scale(.26458)" d="m235.26 178.56c-0.10056-0.00499-0.20368-6.6e-4 -0.30859 0.01562l-4.0254 0.625c-0.83929 0.13026-1.4543 0.91784-1.3809 1.7656l1.0644 12.311c0.02158 0.2492 0.10679 0.47071 0.22851 0.66211a8.1676 9.1168 0 0 0 8.1289 8.2266 8.1676 9.1168 0 0 0 8.166-9.1172 8.1676 9.1168 0 0 0-8.166-9.1172 8.1676 9.1168 0 0 0-1.9922 0.27734l-0.37695-4.3379c-0.06425-0.74181-0.63399-1.2756-1.3379-1.3105zm3.9102 8.9297a4.5123 5.6293 0 0 1 0.0332 0 4.5123 5.6293 0 0 1 4.5117 5.6289 4.5123 5.6293 0 0 1-4.5117 5.6289 4.5123 5.6293 0 0 1-4.5137-5.6289 4.5123 5.6293 0 0 1 4.4805-5.6289z" fill="#05a7eb" style="paint-order:stroke fill markers"/>
    <path transform="scale(.26458)" d="m222.1 174.17c-0.38555 0.01465-0.76502 0.18278-1.0488 0.5l-2.5078 2.8027a8.1676 9.1168 51.609 0 0-11.713-0.16797 8.1676 9.1168 51.609 0 0-2.0723 12.064 8.1676 9.1168 51.609 0 0 12.217 0.73829 8.1676 9.1168 51.609 0 0 1.4512-1.4062c0.16943-0.08289 0.3274-0.19817 0.46289-0.34961l7.584-8.4766c0.56761-0.63443 0.53013-1.6195-0.08399-2.209l-3.2051-3.0781c-0.30706-0.29476-0.69843-0.43262-1.084-0.41796zm-8.9844 4.793a4.5123 5.6293 51.609 0 1 3.2715 1.4531 4.5123 5.6293 51.609 0 1 0.01953 0.02539 4.5123 5.6293 51.609 0 1-1.6094 7.0312 4.5123 5.6293 51.609 0 1-7.2129-0.04102 4.5123 5.6293 51.609 0 1 1.6074-7.0332 4.5123 5.6293 51.609 0 1 3.9238-1.4356z" fill="#05a7eb" style="paint-order:stroke fill markers"/>
    <path d="m61.67 44.8a0.36193 0.38909 0 0 1-0.36193 0.38909 0.36193 0.38909 0 0 1-0.36193-0.38909 0.36193 0.38909 0 0 1 0.36193-0.38909 0.36193 0.38909 0 0 1 0.36193 0.38909z" fill="#a8a8a8" style="paint-order:stroke fill markers"/>
  </g>
  <path d="m56.881 48.495a1.5865 1.323 0 0 1-1.5865 1.323 1.5865 1.323 0 0 1-1.5865-1.323 1.5865 1.323 0 0 1 1.5865-1.323 1.5865 1.323 0 0 1 1.5865 1.323z" fill="#cde7f8" style="paint-order:stroke fill markers"/>
  <g>
    <path transform="rotate(72.564)" d="m41.039-44.44v2.2149c0 0.31879-0.25664 0.57543-0.57543 0.57543h-1.7258c-0.31879 0-0.57543-0.25664-0.57543-0.57543v-2.1754z" fill="#05a7eb" style="paint-order:stroke fill markers"/>
    <path transform="rotate(72.564)" d="m36.214-44.333v2.1763c0 0.31879-0.25664 0.57543-0.57543 0.57543h-1.7258c-0.31879 0-0.57543-0.25664-0.57543-0.57543v-2.149z" fill="#05a7eb" style="paint-order:stroke fill markers"/>
    <path transform="rotate(-17.849)" d="m43.149 33.577h2.1349c0.32407 0 0.58496 0.26089 0.58496 0.58496v11.035c0 0.32407-0.26089 0.58496-0.58496 0.58496h-2.1349c-0.32407 0-0.58496-0.26089-0.58496-0.58496v-11.035c0-0.32407 0.26089-0.58496 0.58496-0.58496z" fill="#cde7f8" stroke="#05a7eb" stroke-linecap="round" stroke-linejoin="round" stroke-width=".52917" style="paint-order:stroke fill markers"/>
    <g fill="#05a7eb">
      <path transform="matrix(.65811 -.75292 0 1 0 0)" d="m82.18 90.865 3.8351-0.02109 0.4358 1.251-3.8898-0.12535z" style="paint-order:stroke fill markers"/>
      <path d="m53.527 27.31 2.5239-2.9086 0.28681 0.92283-2.5599 2.8033z" style="paint-order:stroke fill markers"/>
      <path d="m52.93 25.495 2.5239-2.9086 0.28681 0.92283-2.5599 2.8033z" style="paint-order:stroke fill markers"/>
      <path d="m52.295 23.339 2.5239-2.9086 0.28681 0.92283-2.5599 2.8033z" style="paint-order:stroke fill markers"/>
      <path d="m51.57 21.294 2.5239-2.9086 0.28681 0.92283-2.5599 2.8033z" style="paint-order:stroke fill markers"/>
    </g>
    <path transform="rotate(72.564)" d="m38.737-47.529h1.7258c0.31879 0 0.57543 0.25664 0.57543 0.57543v4.1004l-2.8767 0.06131v-4.1617c0-0.31879 0.25664-0.57543 0.57543-0.57543z" fill="#fefefe" stroke="#05a7eb" stroke-linecap="round" stroke-linejoin="round" stroke-width=".52917" style="paint-order:stroke fill markers"/>
    <path transform="rotate(72.564)" d="m33.913-47.46h1.7258c0.31879 0 0.57543 0.25664 0.57543 0.57543v4.0481l-2.8767 0.04595v-4.094c0-0.31879 0.25664-0.57543 0.57543-0.57543z" fill="#fefefe" stroke="#05a7eb" stroke-linecap="round" stroke-linejoin="round" stroke-width=".52917" style="paint-order:stroke fill markers"/>
  </g>
  <g>
    <path d="m58.887 27.243a1.5865 1.323 0 0 1-1.5865 1.323 1.5865 1.323 0 0 1-1.5865-1.323 1.5865 1.323 0 0 1 1.5865-1.323 1.5865 1.323 0 0 1 1.5865 1.323z" fill="#cde7f8" style="paint-order:stroke fill markers"/>
    <path d="m58.243 27.035a1.2343 0.96157 0 0 1-1.2343 0.96157 1.2343 0.96157 0 0 1-1.2343-0.96157 1.2343 0.96157 0 0 1 1.2343-0.96157 1.2343 0.96157 0 0 1 1.2343 0.96157z" fill="#fefefe" style="paint-order:stroke fill markers"/>
    <path d="m56.264 48.179a1.1964 0.93291 0 0 1-1.1964 0.93291 1.1964 0.93291 0 0 1-1.1964-0.93291 1.1964 0.93291 0 0 1 1.1964-0.93291 1.1964 0.93291 0 0 1 1.1964 0.93291z" fill="#fefefe" style="paint-order:stroke fill markers"/>
  </g>
</svg>
