<!-- This Source Code Form is subject to the terms of the Mozilla Public
   - License, v. 2.0. If a copy of the MPL was not distributed with this
   - file, You can obtain one at http://mozilla.org/MPL/2.0/. -->
<svg width="127" height="89" viewBox="0 0 127 89" xmlns="http://www.w3.org/2000/svg">
  <path fill="context-fill" d="M78 14a1 1 0 0 1 1-1h14a1 1 0 0 1 1 1v2a1 1 0 0 1-1 1H79a1 1 0 0 1-1-1zm0 6a1 1 0 0 1 1-1h44a1 1 0 0 1 1 1v2a1 1 0 0 1-1 1H79a1 1 0 0 1-1-1zm1 13a1 1 0 0 0-1 1v2a1 1 0 0 0 1 1h44a1 1 0 0 0 1-1v-2a1 1 0 0 0-1-1zm-1 7a1 1 0 0 1 1-1h38a1 1 0 0 1 1 1v2a1 1 0 0 1-1 1H79a1 1 0 0 1-1-1zm1 5a1 1 0 0 0-1 1v2a1 1 0 0 0 1 1h21a1 1 0 0 0 1-1v-2a1 1 0 0 0-1-1zm-1 7a1 1 0 0 1 1-1h26a1 1 0 0 1 1 1v2a1 1 0 0 1-1 1H79a1 1 0 0 1-1-1zm1 5a1 1 0 0 0-1 1v2a1 1 0 0 0 1 1h42a1 1 0 0 0 1-1v-2a1 1 0 0 0-1-1zm-1 15a1 1 0 0 1 1-1h9a1 1 0 0 1 1 1v2a1 1 0 0 1-1 1h-9a1 1 0 0 1-1-1zm.5-44a.5.5 0 0 0 0 1h45a.5.5 0 0 0 0-1z" opacity=".08"/>
  <path fill="context-fill" fill-rule="evenodd" d="M32 13a3 3 0 0 0-3 3v65a3 3 0 0 0 3 3h37a3 3 0 0 0 3-3V16a3 3 0 0 0-3-3zm1 6a2 2 0 0 1 2-2h31a2 2 0 0 1 2 2v4a2 2 0 0 1-2 2H35a2 2 0 0 1-2-2zm9 9a2 2 0 0 0-2 2v4a2 2 0 0 0 2 2h24a2 2 0 0 0 2-2v-4a2 2 0 0 0-2-2zm0 11a2 2 0 0 0-2 2v4a2 2 0 0 0 2 2h24a2 2 0 0 0 2-2v-4a2 2 0 0 0-2-2zm-7 12a2 2 0 0 0-2 2v4a2 2 0 0 0 2 2h31a2 2 0 0 0 2-2v-4a2 2 0 0 0-2-2zm7 11a2 2 0 0 0-2 2v4a2 2 0 0 0 2 2h24a2 2 0 0 0 2-2v-4a2 2 0 0 0-2-2zm-2 13a2 2 0 0 1 2-2h24a2 2 0 0 1 2 2v4a2 2 0 0 1-2 2H42a2 2 0 0 1-2-2z" clip-rule="evenodd" opacity=".1"/>
  <path fill="context-stroke" fill-rule="evenodd" d="M35 16a3 3 0 0 0-3 3v4a3 3 0 0 0 3 3h31a3 3 0 0 0 3-3v-4a3 3 0 0 0-3-3zm0 1a2 2 0 0 0-2 2v4a2 2 0 0 0 2 2h31a2 2 0 0 0 2-2v-4a2 2 0 0 0-2-2zm4 13a3 3 0 0 1 3-3h24a3 3 0 0 1 3 3v4a3 3 0 0 1-3 3H42a3 3 0 0 1-3-3zm1 0a2 2 0 0 1 2-2h24a2 2 0 0 1 2 2v4a2 2 0 0 1-2 2H42a2 2 0 0 1-2-2zm-1 11a3 3 0 0 1 3-3h24a3 3 0 0 1 3 3v4a3 3 0 0 1-3 3H42a3 3 0 0 1-3-3zm1 0a2 2 0 0 1 2-2h24a2 2 0 0 1 2 2v4a2 2 0 0 1-2 2H42a2 2 0 0 1-2-2zm-8 12a3 3 0 0 1 3-3h31a3 3 0 0 1 3 3v4a3 3 0 0 1-3 3H35a3 3 0 0 1-3-3zm1 0a2 2 0 0 1 2-2h31a2 2 0 0 1 2 2v4a2 2 0 0 1-2 2H35a2 2 0 0 1-2-2zm6 11a3 3 0 0 1 3-3h24a3 3 0 0 1 3 3v4a3 3 0 0 1-3 3H42a3 3 0 0 1-3-3zm1 0a2 2 0 0 1 2-2h24a2 2 0 0 1 2 2v4a2 2 0 0 1-2 2H42a2 2 0 0 1-2-2zm2 8a3 3 0 0 0-3 3v4a3 3 0 0 0 3 3h24a3 3 0 0 0 3-3v-4a3 3 0 0 0-3-3zm0 1a2 2 0 0 0-2 2v4a2 2 0 0 0 2 2h24a2 2 0 0 0 2-2v-4a2 2 0 0 0-2-2z" clip-rule="evenodd"/>
  <path fill="context-stroke" fill-rule="evenodd" d="M32 12h37a4 4 0 0 1 4 4v65a4 4 0 0 1-4 4H32a4 4 0 0 1-4-4V16a4 4 0 0 1 4-4zm0 1a3 3 0 0 0-3 3v65a3 3 0 0 0 3 3h37a3 3 0 0 0 3-3V16a3 3 0 0 0-3-3z" clip-rule="evenodd"/>
  <path fill="context-stroke" fill-rule="evenodd" d="M0 6a6 6 0 0 1 6-6h115a6 6 0 0 1 6 6v77a6 6 0 0 1-6 6H6a6 6 0 0 1-6-6Zm6-5h115a5 5 0 0 1 5 5v77a5 5 0 0 1-5 5H6a5 5 0 0 1-5-5V6a5 5 0 0 1 5-5Z" clip-rule="evenodd"/>
  <path fill="context-stroke" d="M35.5 25a.5.5 0 0 0-.5.5v2a.5.5 0 0 0 1 0v-2a.5.5 0 0 0-.5-.5Zm-.012 4a.5.5 0 0 0-.1.012.5.5 0 0 0-.388.488v.586a1.5 1.5 0 0 0-1 1.414 1.5 1.5 0 0 0 1 1.414v.586a.5.5 0 0 0 1 0v-.586a1.5 1.5 0 0 0 0-2.828V29.5a.5.5 0 0 0-.512-.5Zm.012 2a.5.5 0 0 1 .5.5.5.5 0 0 1-.5.5.5.5 0 0 1-.5-.5.5.5 0 0 1 .5-.5Zm-.154 4.025A.5.5 0 0 0 35 35.5v1a.5.5 0 0 0 1 0v-1a.5.5 0 0 0-.654-.475ZM35.5 38a.5.5 0 0 0-.5.5v1a.5.5 0 0 0 1 0v-1a.5.5 0 0 0-.5-.5Zm-.213 3.016A1.5 1.5 0 0 0 34 42.5a1.5 1.5 0 0 0 3 0 1.5 1.5 0 0 0-1.713-1.484zM35.5 42a.5.5 0 0 1 .5.5.5.5 0 0 1-.5.5.5.5 0 0 1-.5-.5.5.5 0 0 1 .5-.5Zm-.154 17.025A.5.5 0 0 0 35 59.5v2a.5.5 0 0 0 1 0v-2a.5.5 0 0 0-.654-.475zm.22 3.979a.5.5 0 0 0-.177.008.5.5 0 0 0-.389.488v.586a1.5 1.5 0 0 0-1 1.414 1.5 1.5 0 0 0 1 1.414v.586a.5.5 0 0 0 1 0v-.586a1.5 1.5 0 0 0 0-2.828V63.5a.5.5 0 0 0-.434-.496ZM35.5 65a.5.5 0 0 1 .5.5.5.5 0 0 1-.5.5.5.5 0 0 1-.5-.5.5.5 0 0 1 .5-.5Zm-.07 4.006a.5.5 0 0 0-.43.494v1a.5.5 0 0 0 1 0v-1a.5.5 0 0 0-.57-.494ZM35.5 72a.5.5 0 0 0-.5.5v1a.5.5 0 0 0 1 0v-1a.5.5 0 0 0-.5-.5Zm-.213 3.016A1.5 1.5 0 0 0 34 76.5a1.5 1.5 0 0 0 3 0 1.5 1.5 0 0 0-1.713-1.484zM35.5 76a.5.5 0 0 1 .5.5.5.5 0 0 1-.5.5.5.5 0 0 1-.5-.5.5.5 0 0 1 .5-.5Z"/>
  <path fill="context-fill" d="M1 6a5 5 0 0 1 5-5h115a5 5 0 0 1 5 5v3H1Z" opacity=".1"/>
  <path fill="context-fill" d="M1 9h25v79H6a5 5 0 0 1-5-5Z" opacity=".05"/>
  <path fill="context-fill" d="M3 14a1 1 0 0 1 1-1h18a1 1 0 0 1 1 1v2a1 1 0 0 1-1 1H4a1 1 0 0 1-1-1Zm0 6a1 1 0 0 1 1-1h18a1 1 0 0 1 1 1v2a1 1 0 0 1-1 1H4a1 1 0 0 1-1-1Zm1 5a1 1 0 0 0-1 1v2a1 1 0 0 0 1 1h18a1 1 0 0 0 1-1v-2a1 1 0 0 0-1-1zm-1 7a1 1 0 0 1 1-1h18a1 1 0 0 1 1 1v2a1 1 0 0 1-1 1H4a1 1 0 0 1-1-1Zm1 5a1 1 0 0 0-1 1v2a1 1 0 0 0 1 1h18a1 1 0 0 0 1-1v-2a1 1 0 0 0-1-1zm-1 7a1 1 0 0 1 1-1h18a1 1 0 0 1 1 1v2a1 1 0 0 1-1 1H4a1 1 0 0 1-1-1Zm1 5a1 1 0 0 0-1 1v2a1 1 0 0 0 1 1h18a1 1 0 0 0 1-1v-2a1 1 0 0 0-1-1zm-1 7a1 1 0 0 1 1-1h18a1 1 0 0 1 1 1v2a1 1 0 0 1-1 1H4a1 1 0 0 1-1-1Zm1 5a1 1 0 0 0-1 1v2a1 1 0 0 0 1 1h18a1 1 0 0 0 1-1v-2a1 1 0 0 0-1-1z" opacity=".05"/>
</svg>
