<!-- This Source Code Form is subject to the terms of the Mozilla Public
   - License, v. 2.0. If a copy of the MPL was not distributed with this
   - file, You can obtain one at http://mozilla.org/MPL/2.0/. -->
<svg width="127" height="89" viewBox="0 0 127 89" xmlns="http://www.w3.org/2000/svg">
  <path fill="context-fill" d="M79 13a1 1 0 0 0-1 1v2a1 1 0 0 0 1 1h14a1 1 0 0 0 1-1v-2a1 1 0 0 0-1-1zm0 6a1 1 0 0 0-1 1v2a1 1 0 0 0 1 1h44a1 1 0 0 0 1-1v-2a1 1 0 0 0-1-1zm-.5 9a.5.5 0 0 0 0 1h45a.5.5 0 0 0 0-1zm.5 5a1 1 0 0 0-1 1v2a1 1 0 0 0 1 1h44a1 1 0 0 0 1-1v-2a1 1 0 0 0-1-1zm0 6a1 1 0 0 0-1 1v2a1 1 0 0 0 1 1h38a1 1 0 0 0 1-1v-2a1 1 0 0 0-1-1zm0 6a1 1 0 0 0-1 1v2a1 1 0 0 0 1 1h21a1 1 0 0 0 1-1v-2a1 1 0 0 0-1-1zm0 6a1 1 0 0 0-1 1v2a1 1 0 0 0 1 1h26a1 1 0 0 0 1-1v-2a1 1 0 0 0-1-1zm0 6a1 1 0 0 0-1 1v2a1 1 0 0 0 1 1h42a1 1 0 0 0 1-1v-2a1 1 0 0 0-1-1zm0 14a1 1 0 0 0-1 1v2a1 1 0 0 0 1 1h9a1 1 0 0 0 1-1v-2a1 1 0 0 0-1-1z" style="opacity:.08;"/>
  <path fill="context-fill" fill-rule="evenodd" d="M32 13a3 3 0 0 0-3 3v65a3 3 0 0 0 3 3h37a3 3 0 0 0 3-3V16a3 3 0 0 0-3-3zm1 6a2 2 0 0 1 2-2h31a2 2 0 0 1 2 2v4a2 2 0 0 1-2 2H35a2 2 0 0 1-2-2zm2 9a2 2 0 0 0-2 2v4a2 2 0 0 0 2 2h31a2 2 0 0 0 2-2v-4a2 2 0 0 0-2-2zm0 11a2 2 0 0 0-2 2v4a2 2 0 0 0 2 2h31a2 2 0 0 0 2-2v-4a2 2 0 0 0-2-2zm0 11a2 2 0 0 0-2 2v4a2 2 0 0 0 2 2h31a2 2 0 0 0 2-2v-4a2 2 0 0 0-2-2zm0 11a2 2 0 0 0-2 2v4a2 2 0 0 0 2 2h31a2 2 0 0 0 2-2v-4a2 2 0 0 0-2-2zm-2 13a2 2 0 0 1 2-2h31a2 2 0 0 1 2 2v4a2 2 0 0 1-2 2H35a2 2 0 0 1-2-2z" clip-rule="evenodd" opacity=".1"/>
  <path fill="context-stroke" d="M35 16a3 3 0 0 0-3 3v4a3 3 0 0 0 3 3h31a3 3 0 0 0 3-3v-4a3 3 0 0 0-3-3zm0 1h31a2 2 0 0 1 2 2v4a2 2 0 0 1-2 2H35a2 2 0 0 1-2-2v-4a2 2 0 0 1 2-2zM35 27a3 3 0 0 0-3 3v4a3 3 0 0 0 3 3h31a3 3 0 0 0 3-3v-4a3 3 0 0 0-3-3zm0 1h31a2 2 0 0 1 2 2v4a2 2 0 0 1-2 2H35a2 2 0 0 1-2-2v-4a2 2 0 0 1 2-2zM35 38a3 3 0 0 0-3 3v4a3 3 0 0 0 3 3h31a3 3 0 0 0 3-3v-4a3 3 0 0 0-3-3zm0 1h31a2 2 0 0 1 2 2v4a2 2 0 0 1-2 2H35a2 2 0 0 1-2-2v-4a2 2 0 0 1 2-2zM35 49a3 3 0 0 0-3 3v4a3 3 0 0 0 3 3h31a3 3 0 0 0 3-3v-4a3 3 0 0 0-3-3zm0 1h31a2 2 0 0 1 2 2v4a2 2 0 0 1-2 2H35a2 2 0 0 1-2-2v-4a2 2 0 0 1 2-2zM35 60a3 3 0 0 0-3 3v4a3 3 0 0 0 3 3h31a3 3 0 0 0 3-3v-4a3 3 0 0 0-3-3zm0 1h31a2 2 0 0 1 2 2v4a2 2 0 0 1-2 2H35a2 2 0 0 1-2-2v-4a2 2 0 0 1 2-2zM35 71a3 3 0 0 0-3 3v4a3 3 0 0 0 3 3h31a3 3 0 0 0 3-3v-4a3 3 0 0 0-3-3zm0 1h31a2 2 0 0 1 2 2v4a2 2 0 0 1-2 2H35a2 2 0 0 1-2-2v-4a2 2 0 0 1 2-2z" style="baseline-shift:baseline;clip-rule:evenodd;display:inline;overflow:visible;vector-effect:none;fill-rule:evenodd;enable-background:accumulate;stop-color:#000;stop-opacity:1"/>
  <path fill="context-stroke" fill-rule="evenodd" d="M32 12h37a4 4 0 0 1 4 4v65a4 4 0 0 1-4 4H32a4 4 0 0 1-4-4V16a4 4 0 0 1 4-4zm0 1a3 3 0 0 0-3 3v65a3 3 0 0 0 3 3h37a3 3 0 0 0 3-3V16a3 3 0 0 0-3-3z" clip-rule="evenodd"/>
  <path fill="context-stroke" fill-rule="evenodd" d="M0 6a6 6 0 0 1 6-6h115a6 6 0 0 1 6 6v77a6 6 0 0 1-6 6H6a6 6 0 0 1-6-6Zm6-5h115a5 5 0 0 1 5 5v77a5 5 0 0 1-5 5H6a5 5 0 0 1-5-5V6a5 5 0 0 1 5-5Z" clip-rule="evenodd"/>
  <path fill="context-fill" d="M1 6a5 5 0 0 1 5-5h115a5 5 0 0 1 5 5v3H1Z" opacity=".1"/>
  <path fill="context-fill" d="M1 9h25v79H6a5 5 0 0 1-5-5Z" opacity=".05"/>
  <path fill="context-fill" d="M4 13a1 1 0 0 0-1 1v2a1 1 0 0 0 1 1h18a1 1 0 0 0 1-1v-2a1 1 0 0 0-1-1zm0 6a1 1 0 0 0-1 1v2a1 1 0 0 0 1 1h18a1 1 0 0 0 1-1v-2a1 1 0 0 0-1-1zm0 6a1 1 0 0 0-1 1v2a1 1 0 0 0 1 1h18a1 1 0 0 0 1-1v-2a1 1 0 0 0-1-1zm0 6a1 1 0 0 0-1 1v2a1 1 0 0 0 1 1h18a1 1 0 0 0 1-1v-2a1 1 0 0 0-1-1zm0 6a1 1 0 0 0-1 1v2a1 1 0 0 0 1 1h18a1 1 0 0 0 1-1v-2a1 1 0 0 0-1-1zm0 6a1 1 0 0 0-1 1v2a1 1 0 0 0 1 1h18a1 1 0 0 0 1-1v-2a1 1 0 0 0-1-1zm0 6a1 1 0 0 0-1 1v2a1 1 0 0 0 1 1h18a1 1 0 0 0 1-1v-2a1 1 0 0 0-1-1zm0 6a1 1 0 0 0-1 1v2a1 1 0 0 0 1 1h18a1 1 0 0 0 1-1v-2a1 1 0 0 0-1-1zm0 6a1 1 0 0 0-1 1v2a1 1 0 0 0 1 1h18a1 1 0 0 0 1-1v-2a1 1 0 0 0-1-1z" style="opacity:.05;"/>
</svg>
