<!-- This Source Code Form is subject to the terms of the Mozilla Public
   - License, v. 2.0. If a copy of the MPL was not distributed with this
   - file, You can obtain one at http://mozilla.org/MPL/2.0/. -->
<svg xmlns="http://www.w3.org/2000/svg" width="127" height="83">
  <path fill="context-fill" fill-rule="evenodd" d="M1 6a5 5 0 0 1 5-5h115a5 5 0 0 1 5 5v71a5 5 0 0 1-5 5H6a5 5 0 0 1-5-5Zm121 12H5v8h117ZM5 31h117v8H5Zm117 13H5v8h117ZM5 57h117v8H5Zm117 13H5v8h117z" clip-rule="evenodd" opacity=".1"/>
  <path fill="context-stroke" d="M6 0a6 6 0 0 0-6 6v71a6 6 0 0 0 6 6h115a6 6 0 0 0 6-6V6a6 6 0 0 0-6-6zm0 1h115a5 5 0 0 1 5 5v71a5 5 0 0 1-5 5H6a5 5 0 0 1-5-5V6a5 5 0 0 1 5-5Zm1 16a3 3 0 0 0-3 3v4a3 3 0 0 0 3 3h113a3 3 0 0 0 3-3v-4a3 3 0 0 0-3-3zm0 1h113a2 2 0 0 1 2 2v4a2 2 0 0 1-2 2H7a2 2 0 0 1-2-2v-4a2 2 0 0 1 2-2zm0 12a3 3 0 0 0-3 3v4a3 3 0 0 0 3 3h113a3 3 0 0 0 3-3v-4a3 3 0 0 0-3-3zm0 1h113a2 2 0 0 1 2 2v4a2 2 0 0 1-2 2H7a2 2 0 0 1-2-2v-4a2 2 0 0 1 2-2zm0 12a3 3 0 0 0-3 3v4a3 3 0 0 0 3 3h113a3 3 0 0 0 3-3v-4a3 3 0 0 0-3-3zm0 1h113a2 2 0 0 1 2 2v4a2 2 0 0 1-2 2H7a2 2 0 0 1-2-2v-4a2 2 0 0 1 2-2zm0 12a3 3 0 0 0-3 3v4a3 3 0 0 0 3 3h113a3 3 0 0 0 3-3v-4a3 3 0 0 0-3-3zm0 1h113a2 2 0 0 1 2 2v4a2 2 0 0 1-2 2H7a2 2 0 0 1-2-2v-4a2 2 0 0 1 2-2zm0 12a3 3 0 0 0-3 3v4a3 3 0 0 0 3 3h113a3 3 0 0 0 3-3v-4a3 3 0 0 0-3-3zm0 1h113a2 2 0 0 1 2 2v4a2 2 0 0 1-2 2H7a2 2 0 0 1-2-2v-4a2 2 0 0 1 2-2z"/>
  <path fill="context-fill" d="M38.5 71a1.5 1.5 0 0 0-1.5 1.5v3a1.5 1.5 0 0 0 1.5 1.5h46a1.5 1.5 0 0 0 1.5-1.5v-3a1.5 1.5 0 0 0-1.5-1.5Zm51 0a1.5 1.5 0 0 0-1.5 1.5v3a1.5 1.5 0 0 0 1.5 1.5h3a1.5 1.5 0 0 0 1.5-1.5v-3a1.5 1.5 0 0 0-1.5-1.5Zm8 0a1.5 1.5 0 0 0-1.5 1.5v3a1.5 1.5 0 0 0 1.5 1.5h3a1.5 1.5 0 0 0 1.5-1.5v-3a1.5 1.5 0 0 0-1.5-1.5zm8 0a1.5 1.5 0 0 0-1.5 1.5v3a1.5 1.5 0 0 0 1.5 1.5h14a1.5 1.5 0 0 0 1.5-1.5v-3a1.5 1.5 0 0 0-1.5-1.5zm-98 0A1.5 1.5 0 0 0 6 72.5v3A1.5 1.5 0 0 0 7.5 77h26a1.5 1.5 0 0 0 1.5-1.5v-3a1.5 1.5 0 0 0-1.5-1.5Zm31-13a1.5 1.5 0 0 0-1.5 1.5v3a1.5 1.5 0 0 0 1.5 1.5h46a1.5 1.5 0 0 0 1.5-1.5v-3a1.5 1.5 0 0 0-1.5-1.5Zm51 0a1.5 1.5 0 0 0-1.5 1.5v3a1.5 1.5 0 0 0 1.5 1.5h3a1.5 1.5 0 0 0 1.5-1.5v-3a1.5 1.5 0 0 0-1.5-1.5Zm8 0a1.5 1.5 0 0 0-1.5 1.5v3a1.5 1.5 0 0 0 1.5 1.5h3a1.5 1.5 0 0 0 1.5-1.5v-3a1.5 1.5 0 0 0-1.5-1.5zm8 0a1.5 1.5 0 0 0-1.5 1.5v3a1.5 1.5 0 0 0 1.5 1.5h14a1.5 1.5 0 0 0 1.5-1.5v-3a1.5 1.5 0 0 0-1.5-1.5zm-98 0A1.5 1.5 0 0 0 6 59.5v3A1.5 1.5 0 0 0 7.5 64h26a1.5 1.5 0 0 0 1.5-1.5v-3a1.5 1.5 0 0 0-1.5-1.5Zm31-13a1.5 1.5 0 0 0-1.5 1.5v3a1.5 1.5 0 0 0 1.5 1.5h46a1.5 1.5 0 0 0 1.5-1.5v-3a1.5 1.5 0 0 0-1.5-1.5Zm51 0a1.5 1.5 0 0 0-1.5 1.5v3a1.5 1.5 0 0 0 1.5 1.5h3a1.5 1.5 0 0 0 1.5-1.5v-3a1.5 1.5 0 0 0-1.5-1.5Zm8 0a1.5 1.5 0 0 0-1.5 1.5v3a1.5 1.5 0 0 0 1.5 1.5h3a1.5 1.5 0 0 0 1.5-1.5v-3a1.5 1.5 0 0 0-1.5-1.5zm8 0a1.5 1.5 0 0 0-1.5 1.5v3a1.5 1.5 0 0 0 1.5 1.5h14a1.5 1.5 0 0 0 1.5-1.5v-3a1.5 1.5 0 0 0-1.5-1.5zm-98 0A1.5 1.5 0 0 0 6 46.5v3A1.5 1.5 0 0 0 7.5 51h26a1.5 1.5 0 0 0 1.5-1.5v-3a1.5 1.5 0 0 0-1.5-1.5Zm31-13a1.5 1.5 0 0 0-1.5 1.5v3a1.5 1.5 0 0 0 1.5 1.5h46a1.5 1.5 0 0 0 1.5-1.5v-3a1.5 1.5 0 0 0-1.5-1.5Zm51 0a1.5 1.5 0 0 0-1.5 1.5v3a1.5 1.5 0 0 0 1.5 1.5h3a1.5 1.5 0 0 0 1.5-1.5v-3a1.5 1.5 0 0 0-1.5-1.5Zm8 0a1.5 1.5 0 0 0-1.5 1.5v3a1.5 1.5 0 0 0 1.5 1.5h3a1.5 1.5 0 0 0 1.5-1.5v-3a1.5 1.5 0 0 0-1.5-1.5zm8 0a1.5 1.5 0 0 0-1.5 1.5v3a1.5 1.5 0 0 0 1.5 1.5h14a1.5 1.5 0 0 0 1.5-1.5v-3a1.5 1.5 0 0 0-1.5-1.5zm-98 0A1.5 1.5 0 0 0 6 33.5v3A1.5 1.5 0 0 0 7.5 38h26a1.5 1.5 0 0 0 1.5-1.5v-3a1.5 1.5 0 0 0-1.5-1.5Zm31-13a1.5 1.5 0 0 0-1.5 1.5v3a1.5 1.5 0 0 0 1.5 1.5h46a1.5 1.5 0 0 0 1.5-1.5v-3a1.5 1.5 0 0 0-1.5-1.5Zm51 0a1.5 1.5 0 0 0-1.5 1.5v3a1.5 1.5 0 0 0 1.5 1.5h3a1.5 1.5 0 0 0 1.5-1.5v-3a1.5 1.5 0 0 0-1.5-1.5Zm8 0a1.5 1.5 0 0 0-1.5 1.5v3a1.5 1.5 0 0 0 1.5 1.5h3a1.5 1.5 0 0 0 1.5-1.5v-3a1.5 1.5 0 0 0-1.5-1.5zm8 0a1.5 1.5 0 0 0-1.5 1.5v3a1.5 1.5 0 0 0 1.5 1.5h14a1.5 1.5 0 0 0 1.5-1.5v-3a1.5 1.5 0 0 0-1.5-1.5zm-98 0A1.5 1.5 0 0 0 6 20.5v3A1.5 1.5 0 0 0 7.5 25h26a1.5 1.5 0 0 0 1.5-1.5v-3a1.5 1.5 0 0 0-1.5-1.5Z" style="opacity:.08;"/>
  <path fill="context-fill" d="M102 5h-6v8h6zM88 5h6v8h-6Zm-2 0H37v8h49zm37 3a3 3 0 0 0-3-3h-16v8h19zM4 8a3 3 0 0 1 3-3h28v8H4Z" style="opacity:.15;"/>
</svg>
