<!-- This Source Code Form is subject to the terms of the Mozilla Public
   - License, v. 2.0. If a copy of the MPL was not distributed with this
   - file, You can obtain one at http://mozilla.org/MPL/2.0/. -->
<svg width="127" height="89" viewBox="0 0 127 89" xmlns="http://www.w3.org/2000/svg">
  <path fill="context-fill" d="M79 13a1 1 0 0 0-1 1v2a1 1 0 0 0 1 1h14a1 1 0 0 0 1-1v-2a1 1 0 0 0-1-1zm0 6a1 1 0 0 0-1 1v2a1 1 0 0 0 1 1h44a1 1 0 0 0 1-1v-2a1 1 0 0 0-1-1zm-.5 9a.5.5 0 0 0 0 1h45a.5.5 0 0 0 0-1zm.5 5a1 1 0 0 0-1 1v2a1 1 0 0 0 1 1h44a1 1 0 0 0 1-1v-2a1 1 0 0 0-1-1zm0 6a1 1 0 0 0-1 1v2a1 1 0 0 0 1 1h38a1 1 0 0 0 1-1v-2a1 1 0 0 0-1-1zm0 6a1 1 0 0 0-1 1v2a1 1 0 0 0 1 1h21a1 1 0 0 0 1-1v-2a1 1 0 0 0-1-1zm0 6a1 1 0 0 0-1 1v2a1 1 0 0 0 1 1h26a1 1 0 0 0 1-1v-2a1 1 0 0 0-1-1zm0 6a1 1 0 0 0-1 1v2a1 1 0 0 0 1 1h42a1 1 0 0 0 1-1v-2a1 1 0 0 0-1-1zm0 14a1 1 0 0 0-1 1v2a1 1 0 0 0 1 1h9a1 1 0 0 0 1-1v-2a1 1 0 0 0-1-1z" style="opacity:.08;"/>
  <path fill="context-stroke" fill-rule="evenodd" d="M38 20a3 3 0 0 0-3 3v4a3 3 0 0 0 3 3h28a3 3 0 0 0 3-3v-4a3 3 0 0 0-3-3zm0 1a2 2 0 0 0-2 2v4a2 2 0 0 0 2 2h28a2 2 0 0 0 2-2v-4a2 2 0 0 0-2-2zM35 34a3 3 0 0 1 3-3h28a3 3 0 0 1 3 3v4a3 3 0 0 1-3 3H38a3 3 0 0 1-3-3zm1 0a2 2 0 0 1 2-2h28a2 2 0 0 1 2 2v4a2 2 0 0 1-2 2H38a2 2 0 0 1-2-2zM38 50a3 3 0 0 0-3 3v4a3 3 0 0 0 3 3h28a3 3 0 0 0 3-3v-4a3 3 0 0 0-3-3zm0 1a2 2 0 0 0-2 2v4a2 2 0 0 0 2 2h28a2 2 0 0 0 2-2v-4a2 2 0 0 0-2-2zM35 64a3 3 0 0 1 3-3h28a3 3 0 0 1 3 3v4a3 3 0 0 1-3 3H38a3 3 0 0 1-3-3zm1 0a2 2 0 0 1 2-2h28a2 2 0 0 1 2 2v4a2 2 0 0 1-2 2H38a2 2 0 0 1-2-2zM38 72a3 3 0 0 0-3 3v4a3 3 0 0 0 3 3h28a3 3 0 0 0 3-3v-4a3 3 0 0 0-3-3zm0 1a2 2 0 0 0-2 2v4a2 2 0 0 0 2 2h28a2 2 0 0 0 2-2v-4a2 2 0 0 0-2-2z" clip-rule="evenodd"/>
  <path fill="context-stroke" d="M32 15.5a.5.5 0 0 1 .5-.5h23a.5.5 0 0 1 .5.5v2a.5.5 0 0 1-.5.5h-23a.5.5 0 0 1-.5-.5ZM32 44.5a.5.5 0 0 1 .5-.5h23a.5.5 0 0 1 .5.5v2a.5.5 0 0 1-.5.5h-23a.5.5 0 0 1-.5-.5Z"/>
  <path fill="context-stroke" fill-rule="evenodd" d="M32 12h37a4 4 0 0 1 4 4v65a4 4 0 0 1-4 4H32a4 4 0 0 1-4-4V16a4 4 0 0 1 4-4zm0 1a3 3 0 0 0-3 3v65a3 3 0 0 0 3 3h37a3 3 0 0 0 3-3V16a3 3 0 0 0-3-3z" clip-rule="evenodd"/>
  <path fill="context-stroke" fill-rule="evenodd" d="M6 0a6 6 0 0 0-6 6v77a6 6 0 0 0 6 6h115a6 6 0 0 0 6-6V6a6 6 0 0 0-6-6zm115 1H6a5 5 0 0 0-5 5v77a5 5 0 0 0 5 5h115a5 5 0 0 0 5-5V6a5 5 0 0 0-5-5z" clip-rule="evenodd"/>
  <path fill="context-fill" d="M6 1a5 5 0 0 0-5 5v3h125V6a5 5 0 0 0-5-5z" style="opacity:.1"/>
  <path fill="context-fill" fill-rule="evenodd" d="M29 16a3 3 0 0 1 3-3h37a3 3 0 0 1 3 3v65a3 3 0 0 1-3 3H32a3 3 0 0 1-3-3zm9 5a2 2 0 0 0-2 2v4a2 2 0 0 0 2 2h28a2 2 0 0 0 2-2v-4a2 2 0 0 0-2-2zm-2 13a2 2 0 0 1 2-2h28a2 2 0 0 1 2 2v4a2 2 0 0 1-2 2H38a2 2 0 0 1-2-2zm0 19a2 2 0 0 1 2-2h28a2 2 0 0 1 2 2v4a2 2 0 0 1-2 2H38a2 2 0 0 1-2-2zm0 11a2 2 0 0 1 2-2h28a2 2 0 0 1 2 2v4a2 2 0 0 1-2 2H38a2 2 0 0 1-2-2zm0 11a2 2 0 0 1 2-2h28a2 2 0 0 1 2 2v4a2 2 0 0 1-2 2H38a2 2 0 0 1-2-2z" clip-rule="evenodd" style="opacity:.1"/>
  <path fill="context-fill" d="M1 9h25v79H6a5 5 0 0 1-5-5Z" opacity=".05"/>
  <path fill="context-fill" d="M4 13a1 1 0 0 0-1 1v2a1 1 0 0 0 1 1h18a1 1 0 0 0 1-1v-2a1 1 0 0 0-1-1zm0 6a1 1 0 0 0-1 1v2a1 1 0 0 0 1 1h18a1 1 0 0 0 1-1v-2a1 1 0 0 0-1-1zm0 6a1 1 0 0 0-1 1v2a1 1 0 0 0 1 1h18a1 1 0 0 0 1-1v-2a1 1 0 0 0-1-1zm0 6a1 1 0 0 0-1 1v2a1 1 0 0 0 1 1h18a1 1 0 0 0 1-1v-2a1 1 0 0 0-1-1zm0 6a1 1 0 0 0-1 1v2a1 1 0 0 0 1 1h18a1 1 0 0 0 1-1v-2a1 1 0 0 0-1-1zm0 6a1 1 0 0 0-1 1v2a1 1 0 0 0 1 1h18a1 1 0 0 0 1-1v-2a1 1 0 0 0-1-1zm0 6a1 1 0 0 0-1 1v2a1 1 0 0 0 1 1h18a1 1 0 0 0 1-1v-2a1 1 0 0 0-1-1zm0 6a1 1 0 0 0-1 1v2a1 1 0 0 0 1 1h18a1 1 0 0 0 1-1v-2a1 1 0 0 0-1-1zm0 6a1 1 0 0 0-1 1v2a1 1 0 0 0 1 1h18a1 1 0 0 0 1-1v-2a1 1 0 0 0-1-1z" style="opacity:.05;"/>
</svg>
