<!-- This Source Code Form is subject to the terms of the Mozilla Public
   - License, v. 2.0. If a copy of the MPL was not distributed with this
   - file, You can obtain one at http://mozilla.org/MPL/2.0/. -->
<svg xmlns="http://www.w3.org/2000/svg" width="127" height="83">
  <path fill="context-fill" fill-rule="evenodd" d="M6 1a5 5 0 0 0-5 5v71a5 5 0 0 0 5 5h115a5 5 0 0 0 5-5V6a5 5 0 0 0-5-5zm5 4a2 2 0 0 0-2 2v17a2 2 0 0 0 2 2h109a2 2 0 0 0 2-2V7a2 2 0 0 0-2-2zM9 33a2 2 0 0 1 2-2h109a2 2 0 0 1 2 2v17a2 2 0 0 1-2 2H11a2 2 0 0 1-2-2Zm2 24a2 2 0 0 0-2 2v17a2 2 0 0 0 2 2h109a2 2 0 0 0 2-2V59a2 2 0 0 0-2-2z" clip-rule="evenodd" opacity=".1"/>
  <path fill="context-stroke" d="M6 0a6 6 0 0 0-6 6v71a6 6 0 0 0 6 6h115a6 6 0 0 0 6-6V6a6 6 0 0 0-6-6zm0 1h115a5 5 0 0 1 5 5v71a5 5 0 0 1-5 5H6a5 5 0 0 1-5-5V6a5 5 0 0 1 5-5Zm5 55a3 3 0 0 0-3 3v17a3 3 0 0 0 3 3h109a3 3 0 0 0 3-3V59a3 3 0 0 0-3-3zm0 1h109a2 2 0 0 1 2 2v17a2 2 0 0 1-2 2H11a2 2 0 0 1-2-2V59a2 2 0 0 1 2-2zm0-27a3 3 0 0 0-3 3v17a3 3 0 0 0 3 3h109a3 3 0 0 0 3-3V33a3 3 0 0 0-3-3zm0 1h109a2 2 0 0 1 2 2v17a2 2 0 0 1-2 2H11a2 2 0 0 1-2-2V33a2 2 0 0 1 2-2zm0-27a3 3 0 0 0-3 3v17a3 3 0 0 0 3 3h109a3 3 0 0 0 3-3V7a3 3 0 0 0-3-3zm0 1h109a2 2 0 0 1 2 2v17a2 2 0 0 1-2 2H11a2 2 0 0 1-2-2V7a2 2 0 0 1 2-2Z" />
  <path fill="context-fill" d="M13.5 8A1.5 1.5 0 0 0 12 9.5v3a1.5 1.5 0 0 0 1.5 1.5h51a1.5 1.5 0 0 0 1.5-1.5v-3A1.5 1.5 0 0 0 64.5 8Zm85 0A1.5 1.5 0 0 0 97 9.5v3a1.5 1.5 0 0 0 1.5 1.5h3a1.5 1.5 0 0 0 1.5-1.5v-3a1.5 1.5 0 0 0-1.5-1.5Zm8 0a1.5 1.5 0 0 0-1.5 1.5v3a1.5 1.5 0 0 0 1.5 1.5h3a1.5 1.5 0 0 0 1.5-1.5v-3a1.5 1.5 0 0 0-1.5-1.5Zm8 0a1.5 1.5 0 0 0-1.5 1.5v3a1.5 1.5 0 0 0 1.5 1.5h3a1.5 1.5 0 0 0 1.5-1.5v-3a1.5 1.5 0 0 0-1.5-1.5Zm-101 9a1.5 1.5 0 0 0-1.5 1.5v3a1.5 1.5 0 0 0 1.5 1.5h104a1.5 1.5 0 0 0 1.5-1.5v-3a1.5 1.5 0 0 0-1.5-1.5zm0 17a1.5 1.5 0 0 0-1.5 1.5v3a1.5 1.5 0 0 0 1.5 1.5h51a1.5 1.5 0 0 0 1.5-1.5v-3a1.5 1.5 0 0 0-1.5-1.5Zm85 0a1.5 1.5 0 0 0-1.5 1.5v3a1.5 1.5 0 0 0 1.5 1.5h3a1.5 1.5 0 0 0 1.5-1.5v-3a1.5 1.5 0 0 0-1.5-1.5zm8 0a1.5 1.5 0 0 0-1.5 1.5v3a1.5 1.5 0 0 0 1.5 1.5h3a1.5 1.5 0 0 0 1.5-1.5v-3a1.5 1.5 0 0 0-1.5-1.5zm8 0a1.5 1.5 0 0 0-1.5 1.5v3a1.5 1.5 0 0 0 1.5 1.5h3a1.5 1.5 0 0 0 1.5-1.5v-3a1.5 1.5 0 0 0-1.5-1.5zm-101 9a1.5 1.5 0 0 0-1.5 1.5v3a1.5 1.5 0 0 0 1.5 1.5h104a1.5 1.5 0 0 0 1.5-1.5v-3a1.5 1.5 0 0 0-1.5-1.5zm0 17a1.5 1.5 0 0 0-1.5 1.5v3a1.5 1.5 0 0 0 1.5 1.5h51a1.5 1.5 0 0 0 1.5-1.5v-3a1.5 1.5 0 0 0-1.5-1.5Zm85 0a1.5 1.5 0 0 0-1.5 1.5v3a1.5 1.5 0 0 0 1.5 1.5h3a1.5 1.5 0 0 0 1.5-1.5v-3a1.5 1.5 0 0 0-1.5-1.5zm8 0a1.5 1.5 0 0 0-1.5 1.5v3a1.5 1.5 0 0 0 1.5 1.5h3a1.5 1.5 0 0 0 1.5-1.5v-3a1.5 1.5 0 0 0-1.5-1.5zm8 0a1.5 1.5 0 0 0-1.5 1.5v3a1.5 1.5 0 0 0 1.5 1.5h3a1.5 1.5 0 0 0 1.5-1.5v-3a1.5 1.5 0 0 0-1.5-1.5zm-101 9a1.5 1.5 0 0 0-1.5 1.5v3a1.5 1.5 0 0 0 1.5 1.5h104a1.5 1.5 0 0 0 1.5-1.5v-3a1.5 1.5 0 0 0-1.5-1.5z" style="opacity:.08;"/>
  <path fill="context-fill" d="M4 59a1 1 0 1 1 2 0v17a1 1 0 1 1-2 0Zm0-26a1 1 0 1 1 2 0v17a1 1 0 1 1-2 0ZM4 7a1 1 0 1 1 2 0v17a1 1 0 1 1-2 0Z" style="opacity:.15;"/>
</svg>
