<!-- This Source Code Form is subject to the terms of the Mozilla Public
   - License, v. 2.0. If a copy of the MPL was not distributed with this
   - file, You can obtain one at http://mozilla.org/MPL/2.0/. -->
<svg xmlns="http://www.w3.org/2000/svg" viewBox="0 0 24 24" fill-opacity="context-fill-opacity" height="24" width="24">
  <path fill-opacity="1.0" d="M11.5 1A10.5 10.5 0 0 0 1 11.5 10.5 10.5 0 0 0 11.5 22 10.5 10.5 0 0 0 22 11.5 10.5 10.5 0 0 0 11.5 1z" fill="context-fill"/>
  <path d="M11.5 5a.5.5 0 0 0-.5.5V11H5.5a.5.5 0 0 0 0 1H11v5.5a.5.5 0 0 0 1 0V12h5.5a.5.5 0 0 0 0-1H12V5.5a.5.5 0 0 0-.5-.5Z" fill="context-stroke"/>
</svg>
