<!-- This Source Code Form is subject to the terms of the Mozilla Public
   - License, v. 2.0. If a copy of the MPL was not distributed with this
   - file, You can obtain one at http://mozilla.org/MPL/2.0/. -->
<svg xmlns="http://www.w3.org/2000/svg" width="24" height="24" viewBox="0 0 24 24">
	<path  fill="context-fill" fill-opacity="context-fill-opacity" d="M6 1.5A2.495 2.495 0 0 0 3.5 4v16c0 1.385 1.115 2.5 2.5 2.5h12V20h-2.5c-.831 0-1.5-.669-1.5-1.5s.669-1.5 1.5-1.5H18v-2.5c0-.831.669-1.5 1.5-1.5.385 0 .735.144 1 .38V4c0-1.385-1.115-2.5-2.5-2.5H6Z"/>
	<path fill="context-stroke" fill-opacity="context-stroke-opacity" d="M6 1a2.984 2.984 0 0 0-2.12.88A2.994 2.994 0 0 0 3 4h-.5a.499.499 0 1 0 0 1H3v2h-.5a.499.499 0 1 0 0 1H3v2h-.5a.499.499 0 1 0 0 1H3v2h-.5a.499.499 0 1 0 0 1H3v2h-.5a.499.499 0 1 0 0 1H3v2h-.5a.499.499 0 1 0 0 1H3c0 1.653 1.347 3 3 3h12c.028 0 .056-.003.084-.004A1.501 1.501 0 0 1 18 22.5V22H6c-1.117 0-2-.655-2-1.771l.021.017A1.516 1.516 0 0 1 4 20h.5a.499.499 0 1 0 0-1H4v-2h.5a.499.499 0 1 0 0-1H4v-2h.5a.499.499 0 1 0 0-1H4v-2h.5a.499.499 0 1 0 0-1H4V8h.5a.499.499 0 1 0 0-1H4V5h.5a.499.499 0 1 0 0-1H4a1.978 1.978 0 0 1 1.217-1.844A2.004 2.004 0 0 1 6 2h12a2.021 2.021 0 0 1 .783.156C19.503 2.456 20 3.163 20 4c-.003 3.027-.001 5.834 0 9.086.583.205 1 .759 1 1.414V4a2.994 2.994 0 0 0-1.094-2.314A2.983 2.983 0 0 0 18 1H6Zm6 4C9.797 5 8 6.797 8 9c0 2.203 1.797 4 4 4 2.203 0 4-1.797 4-4 0-2.203-1.797-4-4-4Zm0 1c1.663 0 3 1.337 3 3s-1.337 3-3 3-3-1.337-3-3 1.337-3 3-3Zm-2.5 7A2.506 2.506 0 0 0 7 15.5v2a.5.5 0 0 0 1 0v-2c0-.84.66-1.5 1.5-1.5h1a.5.5 0 0 0 0-1h-1Zm4 0a.5.5 0 0 0 0 1h1c.84 0 1.5.66 1.5 1.5V17h1v-1.5c0-1.376-1.124-2.5-2.5-2.5h-1Zm6 1a.5.5 0 0 0-.5.5V18h-3.5a.5.5 0 0 0 0 1H19v3.5a.5.5 0 0 0 1 0V19h3.5a.5.5 0 0 0 0-1H20v-3.5a.5.5 0 0 0-.5-.5Z"/>
</svg>
