<!-- This Source Code Form is subject to the terms of the Mozilla Public
   - License, v. 2.0. If a copy of the MPL was not distributed with this
   - file, You can obtain one at http://mozilla.org/MPL/2.0/. -->
<svg xmlns="http://www.w3.org/2000/svg" fill-opacity="context-fill-opacity" viewBox="0 0 24 24">
  <path d="M6 1C4.347 1 3 2.347 3 4v1h-.5a.5.5 0 1 0 0 1H3v2h-.5a.5.5 0 1 0 0 1H3v2h-.5a.5.5 0 1 0 0 1H3v2h-.5a.5.5 0 1 0 0 1H3v2h-.5a.5.5 0 1 0 0 1H3v2c0 1.653 1.347 3 3 3h12c1.653 0 3-1.347 3-3V4c0-1.653-1.347-3-3-3Zm0 1h12c1.117 0 2 .883 2 2v16c0 1.117-.883 2-2 2H6c-1.117 0-2-.883-2-2v-2h.5a.5.5 0 1 0 0-1H4v-2h.5a.5.5 0 1 0 0-1H4v-2h.5a.5.5 0 1 0 0-1H4V9h.5a.5.5 0 1 0 0-1H4V6h.5a.5.5 0 1 0 0-1H4V4c0-1.117.883-2 2-2Zm6 3C9.797 5 8 6.797 8 9c0 .827.128 1.682.488 2.418.3.613.836 1.088 1.512 1.371V13H8.5c-.822 0-1.5.678-1.5 1.5v3a.5.5 0 0 0 .5.5.5.5 0 0 0 .5-.5v-3c0-.286.214-.5.5-.5h2a.5.5 0 0 0 .5-.5v-1a.5.5 0 0 0-.387-.486c-.597-.14-.962-.496-1.226-1.035C9.123 10.439 9 9.719 9 9c0-1.663 1.337-3 3-3s3 1.337 3 3c0 .695-.123 1.416-.389 1.963-.265.547-.631.912-1.224 1.05A.5.5 0 0 0 13 12.5v1a.5.5 0 0 0 .5.5h2c.286 0 .5.214.5.5v3a.5.5 0 0 0 .5.5.5.5 0 0 0 .5-.5v-3c0-.822-.678-1.5-1.5-1.5H14v-.213c.678-.287 1.212-.772 1.512-1.389.36-.74.487-1.593.488-2.398 0-2.203-1.797-4-4-4Z" fill="context-stroke"/>
  <path d="M6 2h12c1.108 0 2 .892 2 2v16c0 1.108-.892 2-2 2H6c-1.108 0-2-.892-2-2V4c0-1.108.892-2 2-2Z" fill="context-fill"/>
</svg>
