<!-- This Source Code Form is subject to the terms of the Mozilla Public
   - License, v. 2.0. If a copy of the MPL was not distributed with this
   - file, You can obtain one at http://mozilla.org/MPL/2.0/. -->
<svg xmlns="http://www.w3.org/2000/svg" fill-opacity="context-fill-opacity" viewBox="0 0 24 24">
  <path d="M5 2C2.793 2 1 3.793 1 6v6c0 2.207 1.793 4 4 4h1v3.5a.5.5 0 0 0 .854.354L8.707 18h4.586l3.853 3.854A.5.5 0 0 0 18 21.5V18h1c2.207 0 4-1.793 4-4V8c0-2.207-1.793-4-4-4h-.5a.5.5 0 0 0-.033.01A3.998 3.998 0 0 0 15 2Zm0 1h10c1.67 0 3 1.33 3 3v6c0 1.67-1.33 3-3 3h-4.5a.5.5 0 0 0-.354.146L7 18.293V15.5a.5.5 0 0 0-.5-.5H5c-1.67 0-3-1.33-3-3V6c0-1.67 1.33-3 3-3Zm13.87 2H19c1.67 0 3 1.33 3 3v6c0 1.67-1.33 3-3 3h-1.5a.5.5 0 0 0-.5.5v2.793l-3.146-3.147A.5.5 0 0 0 13.5 17H9.707l1-1H15c2.207 0 4-1.793 4-4V6c0-.346-.048-.68-.13-1ZM5.5 8a.5.5 0 0 0-.5.5.5.5 0 0 0 .5.5.5.5 0 0 0 .5-.5.5.5 0 0 0-.5-.5Zm3 0a.5.5 0 1 0 0 1h3a.5.5 0 1 0 0-1zm6 0a.5.5 0 0 0-.5.5.5.5 0 0 0 .5.5.5.5 0 0 0 .5-.5.5.5 0 0 0-.5-.5Z" fill="context-stroke"/>
  <path d="M18.87 5H19c1.67 0 3 1.33 3 3v6c0 1.67-1.33 3-3 3h-1.5a.5.5 0 0 0-.5.5v2.793l-3.146-3.147A.5.5 0 0 0 13.5 17H9.707l1-1H15c2.207 0 4-1.793 4-4V6c0-.346-.048-.68-.13-1Z" fill="context-fill"/>
</svg>

