<!-- This Source Code Form is subject to the terms of the Mozilla Public
   - License, v. 2.0. If a copy of the MPL was not distributed with this
   - file, You can obtain one at http://mozilla.org/MPL/2.0/. -->
<svg xmlns="http://www.w3.org/2000/svg" fill-opacity="context-fill-opacity" viewBox="0 0 24 24" height="24" width="24">
  <path d="M6 1.5A2.495 2.495 0 0 0 3.5 4v16c0 1.385 1.115 2.5 2.5 2.5h1.5v-2H7c-.831 0-1.5-.67-1.5-1.5 0-.831.669-1.5 1.5-1.5h.5v-16z" fill="context-fill"/>
  <path d="M6 1C4.347 1 3 2.346 3 4v16c0 1.653 1.347 3 3 3h12c1.653 0 3-1.347 3-3V4c0-1.654-1.347-3-3-3Zm0 1h1v15c-1.1 0-2 .9-2 2 0 1.099.9 2 2 2v1H6c-1.117 0-2-.884-2-2V4c0-1.117.883-2 2-2Zm2 0h10c1.117 0 2 .883 2 2v13H8Zm6 3a.5.5 0 0 0-.459.298l-3.5 8a.5.5 0 0 0 .258.66.5.5 0 0 0 .66-.257L12.141 11h3.718l1.182 2.7a.5.5 0 0 0 .66.259.5.5 0 0 0 .258-.66l-3.5-8a.5.5 0 0 0-.459-.3Zm0 1.75L15.422 10h-2.844ZM7 18h13v2H7c-.563 0-1-.438-1-1 0-.563.437-1 1-1Zm1 3h11.736c-.342.6-.986 1-1.736 1H8Z" fill="context-stroke"/>
</svg>
