<!-- This Source Code Form is subject to the terms of the Mozilla Public
   - License, v. 2.0. If a copy of the MPL was not distributed with this
   - file, You can obtain one at http://mozilla.org/MPL/2.0/. -->
<svg xmlns="http://www.w3.org/2000/svg" fill-opacity="context-fill-opacity" viewBox="0 0 24 24" height="24" width="24">
  <path d="M17.5 5.5V16c0 1.385-1.115 2.5-2.5 2.5H6.5v.5c0 1.385 1.115 2.5 2.5 2.5h9c1.385 0 2.5-1.115 2.5-2.5V8c0-1.385-1.115-2.5-2.5-2.5Z" fill="context-fill"/>
  <path d="M6 2C4.347 2 3 3.346 3 5v11c0 1.653 1.347 3 3 3 0 1.653 1.347 3 3 3h9c1.653 0 3-1.347 3-3V8c0-1.654-1.347-3-3-3 0-1.654-1.347-3-3-3H6zm0 1h9c1.117 0 2 .883 2 2v11c0 1.116-.883 2-2 2H6c-1.117 0-2-.884-2-2V5c0-1.117.883-2 2-2zm4.5 2a.522.522 0 0 0-.035.006.495.495 0 0 0-.283.115.476.476 0 0 0-.036.025l-3 3a.5.5 0 0 0 .708.708L10 6.707V12.5a.5.5 0 0 0 1 0V6.707l2.146 2.147a.499.499 0 1 0 .708-.708l-3-3a.467.467 0 0 0-.036-.025.515.515 0 0 0-.132-.08.494.494 0 0 0-.15-.035A.522.522 0 0 0 10.5 5zM18 6c1.117 0 2 .883 2 2v11c0 1.116-.883 2-2 2H9c-1.117 0-2-.884-2-2h8c1.653 0 3-1.347 3-3V6zM6.5 13a.5.5 0 0 0-.5.5v.5c0 1.099.9 2 2 2h5c1.1 0 2-.901 2-2v-.5a.5.5 0 0 0-1 0v.5c0 .562-.437 1-1 1H8c-.563 0-1-.438-1-1v-.5a.5.5 0 0 0-.5-.5z" fill="context-stroke"/>
</svg>
