<!-- This Source Code Form is subject to the terms of the Mozilla Public
   - License, v. 2.0. If a copy of the MPL was not distributed with this
   - file, You can obtain one at http://mozilla.org/MPL/2.0/. -->
<svg xmlns="http://www.w3.org/2000/svg" fill-opacity="context-fill-opacity" viewBox="0 0 24 24" height="24" width="24">
  <path fill-opacity="1" d="M11.6.5c-1.54 0-3.1.896-3.1 2.1 0 1.358 1 1.4 1 2.45 0 .952-.476 1.435-1.05 1.45H3.9a1.4 1.4 0 0 0-1.4 1.4V9.45a1.077 1.077 0 0 0 1.05 1.05c1.05 0 .592-.998 1.95-.998 1.218 0 2 1.458 2 2.998 0 1.54-.796 3-2 3-1.358 0-.899-.999-1.949-.999A1.079 1.079 0 0 0 2.5 15.55v4.55a1.4 1.4 0 0 0 1.4 1.4h4.55a1.077 1.077 0 0 0 1.05-1.05c0-1.05-1-1.092-1-2.45 0-1.204 1.56-2.5 3.1-2.5.43 0 .844.103 1.22.275A5 5 0 0 1 17.5 12.5a5 5 0 0 1 4.531 2.89c.9-.378 1.469-1.688 1.469-2.989 0-1.54-.797-2.9-2-2.9-1.359 0-1.899 1-2.949 1-.574-.014-1.036-.676-1.05-1.25V7.9A1.4 1.4 0 0 0 16.1 6.5h-1.35c-.574-.014-1.225-.5-1.25-1.449 0-1.05 1-1.093 1-2.451 0-1.204-1.36-2.1-2.9-2.1zm2.184 20.336a1.075 1.075 0 0 0 .66.608 5 5 0 0 1-.661-.608z" fill="context-fill"/>
  <path d="M11.6 0c-.868 0-1.722.244-2.398.678-.676.434-1.204 1.103-1.204 1.922 0 .8.35 1.327.613 1.653.263.328.39.432.39.798 0 .392-.099.633-.204.765a.428.428 0 0 1-.361.182H3.9c-1.043 0-1.9.857-1.9 1.901v1.564A1.585 1.585 0 0 0 3.54 11h.011c.342 0 .644-.097.854-.253.213-.159.322-.335.406-.446.083-.112.13-.168.206-.211.077-.043.205-.09.483-.09.409 0 .748.23 1.033.686.286.46.467 1.13.467 1.816 0 .683-.185 1.35-.472 1.809-.289.458-.629.689-1.028.689-.278 0-.406-.046-.483-.09a.657.657 0 0 1-.207-.207c-.084-.112-.192-.291-.403-.448A1.44 1.44 0 0 0 3.55 14h-.014A1.585 1.585 0 0 0 2 15.536V20.1c0 1.043.857 1.9 1.9 1.9h4.564a1.585 1.585 0 0 0 1.537-1.537v-.014c0-.684-.372-1.126-.609-1.421C9.154 18.732 9 18.556 9 18c0-.386.289-.904.788-1.313.502-.406 1.183-.686 1.813-.686.2 0 .397.03.588.08a5.485 5.485 0 0 0 1.176 5.037c.17.341.46.616.814.763A5.472 5.472 0 0 0 17.5 23a5.508 5.508 0 0 0 5.5-5.502c0-.67-.121-1.31-.341-1.904.287-.214.532-.494.721-.81.406-.678.62-1.528.62-2.385 0-.855-.214-1.669-.63-2.303-.417-.633-1.078-1.095-1.867-1.095-.803 0-1.395.308-1.843.564-.445.255-.739.429-1.103.43-.098-.004-.23-.068-.35-.221a1.012 1.012 0 0 1-.204-.539V7.899a1.908 1.908 0 0 0-1.902-1.901h-1.338c-.3-.007-.735-.242-.759-.956.003-.357.123-.465.384-.789a2.548 2.548 0 0 0 .609-1.653c0-.791-.451-1.467-1.082-1.911C13.286.248 12.468 0 11.6 0zm0 1c.672 0 1.305.2 1.74.505.434.307.66.68.66 1.095 0 .556-.154.734-.391 1.029-.238.295-.609.738-.609 1.421v.014c.03 1.175.89 1.914 1.736 1.936h1.366c.503 0 .898.395.898.899v1.365c.011.416.168.81.424 1.133.255.322.637.59 1.113.603h.014c.683 0 1.182-.322 1.607-.567.426-.244.787-.434 1.344-.434.413 0 .75.216 1.033.647.283.432.465 1.07.465 1.754 0 .685-.185 1.383-.476 1.869a2.034 2.034 0 0 1-.31.4A5.505 5.505 0 0 0 17.5 12a5.508 5.508 0 0 0-4.966 3.142 3.32 3.32 0 0 0-.934-.14c-.91 0-1.778.368-2.444.91-.664.54-1.158 1.271-1.158 2.089 0 .802.35 1.327.613 1.655.26.322.38.43.384.787a.571.571 0 0 1-.56.558H3.9a.893.893 0 0 1-.9-.9v-4.536a.571.571 0 0 1 .56-.56c.164.003.208.027.246.055a1.382 1.382 0 0 1 .203.24c.104.138.262.335.514.478.252.144.577.224.977.224.804 0 1.463-.504 1.876-1.16.41-.656.622-1.483.622-2.339 0-.854-.207-1.687-.616-2.343C6.972 9.5 6.309 9.002 5.5 9.002c-.4 0-.724.077-.977.22-.252.144-.41.342-.514.479a1.382 1.382 0 0 1-.203.24c-.038.029-.08.054-.248.055A.566.566 0 0 1 3 9.44v-1.54C3 7.395 3.397 7 3.9 7h4.564a1.484 1.484 0 0 0 1.12-.564c.276-.351.417-.826.417-1.386 0-.683-.372-1.126-.609-1.421C9.154 3.334 9 3.156 9 2.6c0-.386.256-.766.745-1.08.49-.314 1.183-.519 1.856-.519zm5.9 12a4.493 4.493 0 0 1 4.5 4.5 4.493 4.493 0 0 1-4.5 4.5 4.493 4.493 0 0 1-4.5-4.5 4.493 4.493 0 0 1 4.5-4.5zm0 2a.5.5 0 0 0-.5.5v2.793l-1.147-1.147a.5.5 0 0 0-.707 0 .5.5 0 0 0 0 .707l2 2a.5.5 0 0 0 .354.148.5.5 0 0 0 .128-.019.5.5 0 0 0 .009-.001.5.5 0 0 0 .108-.045.5.5 0 0 0 .007-.004.5.5 0 0 0 .093-.073.5.5 0 0 0 .024-.024l1.984-1.982a.5.5 0 0 0 0-.707.5.5 0 0 0-.707 0l-1.147 1.148V15.5a.5.5 0 0 0-.5-.5z" fill="context-stroke"/>
</svg>
