<!-- This Source Code Form is subject to the terms of the Mozilla Public
   - License, v. 2.0. If a copy of the MPL was not distributed with this
   - file, You can obtain one at http://mozilla.org/MPL/2.0/. -->
<svg xmlns="http://www.w3.org/2000/svg" fill-opacity="context-fill-opacity" viewBox="0 0 24 24" height="24" width="24">
  <path fill-opacity="1" d="M21.5 9.5c-1.358 0-1.9 1-2.95 1-.574-.015-1.035-.676-1.05-1.25V7.9a1.4 1.4 0 0 0-1.4-1.4h-1.35c-.574-.015-1.226-.5-1.25-1.45 0-1.05 1-1.092 1-2.45 0-1.204-1.36-2.1-2.9-2.1-1.54 0-3.1.896-3.1 2.1 0 1.358 1 1.4 1 2.45 0 .95-.476 1.435-1.05 1.45H3.9a1.4 1.4 0 0 0-1.4 1.4v1.55a1.077 1.077 0 0 0 1.05 1.05c1.05 0 .592-1 1.95-1 1.218 0 2 1.46 2 3s-.796 3-2 3c-1.358 0-.9-1-1.95-1a1.078 1.078 0 0 0-1.05 1.05v4.55a1.4 1.4 0 0 0 1.4 1.4h4.55a1.078 1.078 0 0 0 1.05-1.05c0-1.05-1-1.092-1-2.45 0-1.204 1.56-2.5 3.1-2.5s2.9 1.296 2.9 2.5c0 1.358-.8 1.4-.8 2.45a1.077 1.077 0 0 0 1.05 1.05h1.35a1.4 1.4 0 0 0 1.4-1.4v-4.55a1.078 1.078 0 0 1 1.05-1.05c1.05 0 1.592 1 2.95 1 1.204 0 2-1.56 2-3.1s-.796-2.9-2-2.9z" fill="context-fill"/>
  <path d="M11.6 0c-.867 0-1.723.243-2.4.678C8.525 1.112 8 1.782 8 2.6c0 .801.347 1.327.61 1.654.262.327.39.43.39.797 0 .391-.099.633-.203.765a.427.427 0 0 1-.36.184H3.9C2.857 6 2 6.857 2 7.9v1.563c.02.835.702 1.517 1.537 1.537h.014c.342 0 .642-.098.853-.256.212-.157.323-.333.407-.445.083-.112.13-.166.207-.21.076-.043.204-.089.482-.089.41 0 .747.23 1.033.688.286.458.467 1.127.467 1.812 0 .684-.185 1.354-.473 1.813C6.24 14.77 5.9 15 5.5 15c-.278 0-.406-.046-.482-.09-.077-.043-.124-.097-.207-.209-.084-.112-.195-.288-.407-.445A1.435 1.435 0 0 0 3.551 14h-.014A1.585 1.585 0 0 0 2 15.537V20.1c0 1.043.857 1.9 1.9 1.9h4.563A1.585 1.585 0 0 0 10 20.463v-.014c0-.684-.372-1.126-.61-1.422C9.154 18.732 9 18.557 9 18c0-.386.289-.907.79-1.314.5-.408 1.18-.686 1.81-.686.63 0 1.246.272 1.695.672.449.4.705.914.705 1.328 0 .58-.13.775-.32 1.07-.19.296-.48.727-.48 1.38v.012c.02.835.703 1.517 1.538 1.537H16.1c1.043 0 1.9-.857 1.9-1.9v-4.538a.57.57 0 0 1 .559-.558c.362.003.657.175 1.101.43.448.256 1.038.566 1.84.566.818 0 1.474-.536 1.88-1.215.408-.678.62-1.528.62-2.385 0-.856-.215-1.669-.63-2.302C22.952 9.464 22.29 9 21.5 9c-.802 0-1.392.31-1.84.566-.444.255-.739.43-1.101.432-.098-.004-.23-.07-.352-.223A1.015 1.015 0 0 1 18 9.236V7.9c0-1.043-.857-1.9-1.9-1.9h-1.336c-.3-.008-.74-.238-.762-.955.002-.36.128-.466.389-.791C14.653 3.927 15 3.4 15 2.6c0-.79-.454-1.467-1.084-1.91C13.286.245 12.466 0 11.6 0Zm0 1c.673 0 1.305.202 1.74.508.434.305.66.678.66 1.092 0 .556-.153.731-.39 1.027-.238.296-.61.74-.61 1.424v.012c.03 1.174.89 1.915 1.736 1.937H16.1c.503 0 .9.397.9.9v1.364c.01.416.168.807.424 1.13.255.324.638.594 1.113.606h.014c.684 0 1.182-.323 1.607-.566.426-.244.786-.434 1.342-.434.414 0 .75.215 1.033.646.283.432.467 1.07.467 1.754 0 .684-.185 1.383-.477 1.87-.291.486-.637.73-1.023.73-.556 0-.916-.19-1.342-.434-.425-.243-.923-.566-1.607-.566h-.014A1.585 1.585 0 0 0 17 15.537V20.1c0 .503-.397.9-.9.9h-1.338a.569.569 0 0 1-.559-.559c.002-.388.11-.506.318-.83.21-.327.479-.834.479-1.611 0-.79-.423-1.525-1.04-2.074-.615-.55-1.45-.926-2.36-.926-.91 0-1.78.369-2.444.91C8.492 16.451 8 17.182 8 18c0 .802.347 1.327.61 1.654.26.324.384.43.386.787a.57.57 0 0 1-.559.559H3.9a.893.893 0 0 1-.9-.9v-4.538a.57.57 0 0 1 .56-.56c.166.002.21.026.249.055.04.03.096.104.199.242.103.138.26.334.513.478.253.144.578.223.979.223.804 0 1.464-.5 1.875-1.156.411-.656.625-1.488.625-2.344 0-.855-.21-1.685-.62-2.342C6.972 9.501 6.31 9 5.5 9c-.4 0-.726.079-.979.223a1.68 1.68 0 0 0-.513.478c-.103.138-.16.212-.2.242-.038.03-.082.053-.247.055A.57.57 0 0 1 3 9.438V7.9c0-.503.397-.9.9-.9h4.563c.424-.01.842-.213 1.119-.564.277-.352.418-.827.418-1.385 0-.684-.372-1.128-.61-1.424C9.154 3.331 9 3.156 9 2.6c0-.386.253-.766.742-1.08.49-.315 1.185-.52 1.858-.52Z" fill="context-stroke"/>
</svg>
