<!-- This Source Code Form is subject to the terms of the Mozilla Public
   - License, v. 2.0. If a copy of the MPL was not distributed with this
   - file, You can obtain one at http://mozilla.org/MPL/2.0/. -->
<svg xmlns="http://www.w3.org/2000/svg" fill-opacity="context-fill-opacity" viewBox="0 0 24 24" height="24" width="24">
  <path d="M6.003 2.25c-.506 0-.858 2.176-1.216 2.534-.358.358-2.536.71-2.536 1.216s2.178.858 2.536 1.215c.358.358.71 2.535 1.216 2.535s.858-2.177 1.216-2.535c.358-.357 2.536-.71 2.536-1.215 0-.506-2.178-.858-2.536-1.216-.358-.358-.71-2.534-1.216-2.534Zm9.004 1.464c-1.14 0-1.644 5.031-2.45 5.836-.806.806-5.839 1.31-5.839 2.45 0 1.139 5.033 1.643 5.839 2.449.806.805 1.31 5.836 2.45 5.836 1.14 0 1.645-5.03 2.45-5.836.807-.806 5.84-1.31 5.84-2.45 0-1.138-5.033-1.643-5.84-2.449-.805-.805-1.31-5.836-2.45-5.836zM6.003 14.25c-.506 0-.858 2.176-1.216 2.534-.358.358-2.536.71-2.536 1.216s2.178.858 2.536 1.215c.358.358.71 2.535 1.216 2.535s.858-2.177 1.216-2.535c.358-.357 2.536-.71 2.536-1.215 0-.506-2.178-.858-2.536-1.216-.358-.358-.71-2.534-1.216-2.534Z" fill="context-fill"/>
  <path d="M6.002 2c-.222 0-.4.106-.518.212-.116.106-.195.22-.265.34-.141.239-.246.51-.348.782-.101.272-.195.544-.28.757-.084.214-.198.378-.157.338.04-.04-.127.076-.34.16-.214.085-.487.176-.76.278a4.93 4.93 0 0 0-.781.35c-.12.07-.234.146-.34.263A.782.782 0 0 0 2 6c0 .222.107.402.213.52.106.116.22.192.34.263.239.14.508.248.781.35.273.1.546.194.76.279.213.084.38.198.34.158-.04-.04.073.124.158.338.084.213.178.485.28.758.1.272.206.542.347.78.07.12.149.235.265.34a.778.778 0 0 0 .518.214.784.784 0 0 0 .52-.213c.116-.106.195-.22.265-.34.14-.239.246-.51.348-.781.101-.273.195-.545.28-.758.083-.214.197-.378.157-.338-.04.04.125-.076.338-.16.213-.085.486-.176.758-.278.272-.101.54-.208.78-.35a1.41 1.41 0 0 0 .34-.263.785.785 0 0 0 .212-.52.785.785 0 0 0-.213-.519 1.375 1.375 0 0 0-.338-.264 4.93 4.93 0 0 0-.781-.35c-.272-.1-.545-.192-.758-.277-.213-.084-.378-.2-.338-.16.04.04-.074-.124-.158-.338-.084-.213-.178-.485-.28-.757a4.922 4.922 0 0 0-.347-.782 1.393 1.393 0 0 0-.266-.34A.784.784 0 0 0 6.002 2Zm9.006 1c-.334 0-.601.194-.78.402a2.842 2.842 0 0 0-.43.73c-.242.557-.438 1.252-.624 1.965-.187.713-.36 1.443-.533 2.028-.173.584-.41 1.044-.438 1.072-.028.028-.489.263-1.074.435-.586.173-1.315.347-2.03.534-.713.186-1.41.382-1.966.625a2.842 2.842 0 0 0-.73.43C6.195 11.398 6 11.665 6 12c0 .334.195.6.402.779.208.178.452.308.73.43.558.242 1.254.438 1.968.625.714.186 1.443.36 2.029.533.585.172 1.046.407 1.074.435.028.028.265.49.438 1.074.172.585.346 1.315.533 2.028.186.713.382 1.406.625 1.963.121.278.251.525.43.732.178.208.445.4.779.4s.601-.192.78-.4c.177-.207.307-.454.429-.732.243-.557.438-1.25.625-1.963.186-.713.36-1.443.533-2.028.173-.584.408-1.046.436-1.074.028-.028.488-.263 1.072-.435.584-.173 1.313-.347 2.025-.533.712-.187 1.406-.383 1.961-.625.278-.122.523-.252.73-.43.208-.178.401-.446.401-.78 0-.333-.193-.6-.4-.779a2.844 2.844 0 0 0-.73-.43c-.556-.242-1.25-.438-1.962-.624-.712-.187-1.441-.361-2.025-.534-.584-.172-1.044-.407-1.072-.435-.028-.028-.263-.488-.436-1.072-.173-.585-.347-1.315-.533-2.028-.187-.713-.382-1.408-.625-1.965a2.842 2.842 0 0 0-.43-.73c-.178-.208-.445-.402-.78-.402Zm-9.004.236c.063.132.125.263.193.445.095.254.19.531.287.78.099.248.162.458.381.677.219.219.43.283.678.381.248.098.522.19.775.285.181.068.312.132.444.196-.132.063-.263.127-.444.195-.253.094-.527.187-.775.285-.248.098-.459.162-.678.38-.219.22-.282.43-.38.679-.099.248-.193.525-.288.779-.068.182-.13.313-.193.445-.063-.132-.128-.263-.195-.445-.095-.254-.19-.531-.288-.78-.098-.248-.161-.458-.38-.677-.22-.22-.431-.283-.68-.381-.249-.098-.523-.19-.777-.285-.182-.068-.314-.132-.446-.195.132-.064.264-.128.446-.196.254-.094.528-.187.777-.285.249-.098.46-.162.68-.38.219-.22.282-.43.38-.679.099-.248.193-.525.288-.779.067-.182.132-.313.195-.445ZM15.008 4c-.05 0-.051-.03.02.052.07.083.172.254.27.48.198.453.392 1.118.575 1.817.183.699.359 1.432.543 2.057.184.625.313 1.123.688 1.498.374.374.871.503 1.496.687.624.185 1.357.36 2.054.543.698.183 1.363.377 1.815.574.226.1.396.201.478.272.083.07.053.069.053.02 0-.05.03-.052-.053.019-.082.07-.252.173-.478.271-.452.198-1.117.392-1.815.575-.697.182-1.43.358-2.054.543-.625.184-1.122.313-1.496.687-.375.375-.504.873-.688 1.498-.184.625-.36 1.358-.543 2.057-.183.699-.377 1.366-.574 1.818a2.08 2.08 0 0 1-.272.479c-.07.082-.068.052-.02.052.05 0 .05.03-.02-.052a2.096 2.096 0 0 1-.272-.479c-.198-.452-.392-1.12-.574-1.818-.183-.699-.357-1.432-.541-2.057-.185-.625-.315-1.123-.69-1.498-.375-.375-.872-.503-1.498-.687-.626-.185-1.359-.36-2.058-.543-.7-.183-1.368-.377-1.82-.574a2.116 2.116 0 0 1-.481-.272c-.083-.07-.053-.07-.053-.02s-.03.052.053-.019c.082-.07.254-.173.48-.271.453-.198 1.121-.392 1.82-.575.7-.182 1.433-.356 2.06-.54.625-.185 1.122-.315 1.497-.69.375-.375.505-.873.69-1.498.184-.625.358-1.358.54-2.057.183-.699.377-1.364.575-1.816.099-.226.2-.398.271-.48.071-.083.071-.053.022-.053ZM6.002 14c-.222 0-.4.106-.518.212-.116.106-.195.22-.265.34-.141.239-.246.51-.348.782-.101.272-.195.544-.28.757-.084.214-.198.378-.157.338.04-.04-.127.076-.34.16-.214.085-.487.176-.76.278a4.93 4.93 0 0 0-.781.35c-.12.07-.234.146-.34.263A.782.782 0 0 0 2 18c0 .222.107.402.213.52.106.116.22.192.34.263.239.14.508.248.781.35.273.1.546.194.76.279.213.084.38.198.34.158-.04-.04.073.124.158.338.084.213.178.485.28.758.1.272.206.542.347.78.07.12.149.235.265.34a.778.778 0 0 0 .518.214.784.784 0 0 0 .52-.213c.116-.106.195-.22.265-.34.14-.239.246-.51.348-.781.101-.273.195-.545.28-.758.083-.214.197-.378.157-.338-.04.04.125-.076.338-.16.213-.085.486-.176.758-.278.272-.101.54-.208.78-.35a1.41 1.41 0 0 0 .34-.263.785.785 0 0 0 .212-.52.785.785 0 0 0-.213-.519 1.375 1.375 0 0 0-.338-.264 4.93 4.93 0 0 0-.781-.35c-.272-.1-.545-.192-.758-.277-.213-.084-.378-.2-.338-.16.04.04-.074-.124-.158-.338-.084-.213-.178-.485-.28-.757a4.922 4.922 0 0 0-.347-.782 1.393 1.393 0 0 0-.266-.34.784.784 0 0 0-.519-.212Zm.002 1.236c.063.132.125.263.193.445.095.254.19.531.287.78.099.248.162.458.381.677.219.219.43.283.678.381.248.098.522.19.775.285.181.068.312.132.444.196-.132.063-.263.127-.444.195-.253.094-.527.187-.775.285-.248.098-.459.162-.678.38-.219.22-.282.43-.38.679-.099.248-.193.525-.288.779-.068.182-.13.313-.193.445-.063-.132-.128-.263-.195-.445-.095-.254-.19-.531-.288-.78-.098-.248-.161-.458-.38-.677-.22-.22-.431-.283-.68-.381-.249-.098-.523-.19-.777-.285-.182-.068-.314-.132-.446-.195.132-.064.264-.128.446-.196.254-.094.528-.187.777-.285.249-.098.46-.162.68-.38.219-.22.282-.43.38-.679.099-.248.193-.525.288-.779.067-.182.132-.313.195-.445z" fill="context-stroke"/>
</svg>
