<!-- This Source Code Form is subject to the terms of the Mozilla Public
   - License, v. 2.0. If a copy of the MPL was not distributed with this
   - file, You can obtain one at http://mozilla.org/MPL/2.0/. -->
<svg xmlns="http://www.w3.org/2000/svg" fill-opacity="context-fill-opacity" viewBox="0 0 24 24" height="24" width="24">
  <path d="M21.5 11.5a10 10 0 0 1-10 10 10 10 0 0 1-10-10 10 10 0 0 1 10-10 10 10 0 0 1 10 10z" fill="context-fill"/>
  <path d="M11.5 1C5.707 1 1 5.707 1 11.5S5.707 22 11.5 22 22 17.293 22 11.5 17.293 1 11.5 1zm0 1c.283 0 .563.015.84.04.47.464 1.818 1.937 2.74 4.358a15.348 15.348 0 0 0-3.605-.423c-1.301 0-2.484.158-3.55.412.923-2.414 2.265-3.884 2.735-4.348.277-.024.557-.039.84-.039zm-2.393.303A14.59 14.59 0 0 0 6.76 6.715 14.376 14.376 0 0 0 2.309 9.09a9.5 9.5 0 0 1 6.798-6.787zm4.786 0a9.5 9.5 0 0 1 6.802 6.8 14.588 14.588 0 0 0-4.45-2.373 14.596 14.596 0 0 0-2.352-4.427zm-2.418 4.672c1.496 0 2.822.217 3.978.546A14.44 14.44 0 0 1 16 11.5a14.38 14.38 0 0 1-.533 3.924c-1.16.332-2.49.55-3.992.55-1.482 0-2.794-.212-3.938-.537A14.375 14.375 0 0 1 7 11.5c0-1.502.219-2.833.55-3.992a14.378 14.378 0 0 1 3.925-.533zm-5.047.9A15.354 15.354 0 0 0 6 11.5c0 1.309.16 2.498.416 3.568-2.513-.954-3.978-2.357-4.38-2.779A9.647 9.647 0 0 1 2 11.5c0-.284.015-.566.04-.844.412-.431 1.881-1.832 4.388-2.781zm10.148.02c2.494.949 3.967 2.335 4.385 2.765.024.277.039.557.039.84 0 .265-.014.527-.035.787-.408.42-1.878 1.808-4.377 2.762C16.84 13.984 17 12.8 17 11.5c0-1.322-.164-2.524-.424-3.605zm4.135 5.94a9.5 9.5 0 0 1-6.857 6.872 14.382 14.382 0 0 0 2.406-4.492 14.588 14.588 0 0 0 4.45-2.38zm-18.418.013a14.374 14.374 0 0 0 4.451 2.382 14.377 14.377 0 0 0 2.402 4.477 9.5 9.5 0 0 1-6.853-6.86zM15.1 16.547c-.989 2.611-2.451 4.08-2.813 4.418-.26.021-.522.035-.787.035s-.527-.014-.787-.035c-.36-.337-1.818-1.803-2.807-4.406 1.07.256 2.26.416 3.569.416 1.33 0 2.538-.165 3.625-.428z" fill="context-stroke"/>
</svg>
