<!-- This Source Code Form is subject to the terms of the Mozilla Public
   - License, v. 2.0. If a copy of the MPL was not distributed with this
   - file, You can obtain one at http://mozilla.org/MPL/2.0/. -->
<svg xmlns="http://www.w3.org/2000/svg" fill-opacity="context-fill-opacity" viewBox="0 0 24 24" height="24" width="24">
  <path d="M11.5 1.5a10 10 0 0 0-10 10 10 10 0 0 0 10 10 10 10 0 0 0 3.893-.807A.497.497 0 0 0 15 20.5h-.5c-.5 0-2-1.383-2-2.5v-3c0-1.117 1.383-2.5 2.5-2.5h6c.138 0 .28.023.424.063A10 10 0 0 0 21.5 11.5a10 10 0 0 0-10-10z" fill="context-fill"/>
  <path d="M11.5 1C5.707 1 1 5.707 1 11.5S5.707 22 11.5 22c1.228 0 2.405-.215 3.5-.604V23.5a.5.5 0 0 0 .854.354l.853-.854 1-1 1-1H21c1.653 0 3-1.347 3-3v-2.736c0-.264-.095-.936-.129-1.135a3.017 3.017 0 0 0-1.894-1.965c.014-.22.023-.44.023-.664C22 5.707 17.293 1 11.5 1zm0 1c.283 0 .563.015.84.04.472.466 1.826 1.946 2.748 4.38A15.356 15.356 0 0 0 11.5 6c-1.315 0-2.511.162-3.588.42.922-2.434 2.276-3.914 2.748-4.38.277-.025.557-.04.84-.04zm-2.393.303A14.6 14.6 0 0 0 6.75 6.75a14.6 14.6 0 0 0-4.447 2.357 9.5 9.5 0 0 1 6.804-6.804zm4.786 0a9.5 9.5 0 0 1 6.804 6.804A14.6 14.6 0 0 0 16.25 6.75a14.6 14.6 0 0 0-2.357-4.447zM11.5 7c1.487 0 2.808.214 3.959.541A14.444 14.444 0 0 1 15.99 12H15c-1.653 0-3 1.347-3 3v.99a14.444 14.444 0 0 1-4.459-.531A14.444 14.444 0 0 1 7 11.5c0-1.487.214-2.808.541-3.959A14.444 14.444 0 0 1 11.5 7zm-5.08.912A15.356 15.356 0 0 0 6 11.5c0 1.315.162 2.511.42 3.588-2.434-.922-3.914-2.276-4.38-2.748A9.575 9.575 0 0 1 2 11.5c0-.283.015-.563.04-.84.466-.472 1.946-1.826 4.38-2.748zm10.16 0c2.434.922 3.914 2.276 4.38 2.748a8.295 8.295 0 0 1 .024 1.34H16.99a15.356 15.356 0 0 0-.41-4.088zM15 13h6c1.117 0 2 .883 2 2v3c0 1.117-.883 2-2 2h-2.5a.5.5 0 0 0-.354.146L16 22.293V20.5a.5.5 0 0 0-.5-.5H15c-1.117 0-2-.883-2-2v-3c0-1.117.883-2 2-2zm-12.7.89c.942.74 2.436 1.7 4.45 2.36a14.598 14.598 0 0 0 2.36 4.45 9.511 9.511 0 0 1-6.81-6.81zM15.5 16a.5.5 0 0 0-.5.5.5.5 0 0 0 .5.5.5.5 0 0 0 .5-.5.5.5 0 0 0-.5-.5zm1.975 0a.5.5 0 0 0 .025 1h1a.499.499 0 1 0 0-1h-1.025zm3.025 0a.5.5 0 0 0-.5.5.5.5 0 0 0 .5.5.5.5 0 0 0 .5-.5.5.5 0 0 0-.5-.5zm-12.588.58a15.356 15.356 0 0 0 4.088.41V18c0 .884.388 1.677.998 2.227-.276.339-.512.59-.658.734a9.723 9.723 0 0 1-.84.039 9.32 9.32 0 0 1-.84-.04c-.472-.466-1.826-1.946-2.748-4.38z" fill="context-stroke"/>
</svg>
