<!-- This Source Code Form is subject to the terms of the Mozilla Public
   - License, v. 2.0. If a copy of the MPL was not distributed with this
   - file, You can obtain one at http://mozilla.org/MPL/2.0/. -->
<svg xmlns="http://www.w3.org/2000/svg" fill-opacity="context-fill-opacity" viewBox="0 0 24 24" height="24" width="24">
  <path d="M6 8.5h12c1.385 0 2.5 1.115 2.5 2.5v8c0 1.385-1.115 2.5-2.5 2.5H6A2.495 2.495 0 0 1 3.5 19v-8c0-1.385 1.115-2.5 2.5-2.5Z" fill="context-fill"/>
  <path d="M12 0C9.828 0 8.054.621 6.838 1.838 5.622 3.054 5 4.828 5 7v1.175A3.004 3.004 0 0 0 3 11v8c0 1.653 1.347 3 3 3h12c1.653 0 3-1.347 3-3v-8a3.004 3.004 0 0 0-2-2.825V7c0-2.172-.622-3.946-1.838-5.162C15.946.621 14.172 0 12 0Zm0 1c1.983 0 3.46.55 4.455 1.545C17.45 3.539 18 5.016 18 7v1H6V7c0-1.984.55-3.46 1.545-4.455C8.54 1.55 10.017 1 12 1ZM6 9h12c1.117 0 2 .883 2 2v8c0 1.116-.883 2-2 2H6c-1.117 0-2-.884-2-2v-8c0-1.117.883-2 2-2Zm6 4a1 1 0 0 0-1 1 1 1 0 0 0 .684.947L11 17h2l-.684-2.053A1 1 0 0 0 13 14a1 1 0 0 0-1-1Z" fill="context-stroke"/>
</svg>
