<!-- This Source Code Form is subject to the terms of the Mozilla Public
   - License, v. 2.0. If a copy of the MPL was not distributed with this
   - file, You can obtain one at http://mozilla.org/MPL/2.0/. -->
<svg xmlns="http://www.w3.org/2000/svg" viewBox="0 0 24 24" width="24" height="24">
   <path fill="context-fill" fill-opacity="context-fill-opacity" d="M4 3.5A2.495 2.495 0 0 0 1.5 6v12c0 1.385 1.115 2.5 2.5 2.5h10V18c0-.745.404-1.392 1.006-1.736A4.49 4.49 0 0 1 19.5 12c1.155 0 2.205.43 3 1.14V6c0-1.385-1.115-2.5-2.5-2.5H4Zm12.5 14c-.554 0-1 .446-1 1v3c0 .554.446 1 1 1h6c.554 0 1-.446 1-1v-3c0-.554-.446-1-1-1h-6Z"/>
   <path fill="context-stroke" fill-opacity="context-stroke-opacity" d="M4 3C2.347 3 1 4.347 1 6v12c0 1.653 1.347 3 3 3h10v-1H4c-1.117 0-2-.883-2-2V6c0-1.117.883-2 2-2h16c1.117 0 2 .883 2 2v6.754c.378.252.715.56 1 .912V6c0-1.653-1.347-3-3-3H4Zm1.48 4a.5.5 0 0 0-.32.867l4.299 3.967-4.313 4.313a.5.5 0 1 0 .708.707l4.34-4.34 1.466 1.353a.5.5 0 0 0 .68 0l1.467-1.353 1.771 1.771c.167-.296.369-.569.596-.818l-1.633-1.633 4.299-3.967a.5.5 0 1 0-.68-.734L12 12.82 5.84 7.133A.5.5 0 0 0 5.48 7Zm14.02 6c-1.93 0-3.5 1.57-3.5 3.5v.59c-.58.208-1 .763-1 1.41v3c0 .822.678 1.5 1.5 1.5h6c.822 0 1.5-.678 1.5-1.5v-3c0-.647-.42-1.202-1-1.41v-.59c0-1.93-1.57-3.5-3.5-3.5Zm0 1c1.394 0 2.5 1.106 2.5 2.5v.5h-5v-.5c0-1.394 1.106-2.5 2.5-2.5Zm-3 4h6c.286 0 .5.214.5.5v3c0 .286-.214.5-.5.5h-6a.488.488 0 0 1-.5-.5v-3c0-.286.214-.5.5-.5Z"/>
</svg>
