<!-- This Source Code Form is subject to the terms of the Mozilla Public
   - License, v. 2.0. If a copy of the MPL was not distributed with this
   - file, You can obtain one at http://mozilla.org/MPL/2.0/. -->
<svg xmlns="http://www.w3.org/2000/svg" fill-opacity="context-fill-opacity" viewBox="0 0 24 24" height="24" width="24">
  <path d="M21.094 2.556C20.474 2.526 20 3 20 3c-7.5 7.5-10.5 7-10.5 10.5 0 0 1 0 1.5.5s.5 1.5.5 1.5c3.5 0 3-3 10.5-10.5 0 0 1-1 0-2-.313-.313-.624-.43-.906-.444ZM7 16c-.914 0-1.71.621-1.855 1.06L2.5 21.5c3.807 0 6.253-1.36 6.48-3.215A2 2 0 0 0 7 16Z" fill="context-fill"/>
  <path d="M21.033 1.923a1.73 1.73 0 0 0-.42.08c-.501.168-.82.497-.82.497-3.723 3.722-6.816 5.954-8.398 7.093-.792.57-1.388 1.035-1.801 1.641-.382.56-.564 1.222-.59 2.055l-2.219 2.218a2.84 2.84 0 0 0-1.27.436c-.377.24-.67.515-.818.889L2.07 21.244A.5.5 0 0 0 2.5 22c1.963 0 3.598-.346 4.81-.967 1.213-.622 2.028-1.56 2.167-2.688a3.67 3.67 0 0 0 .013-.129l2.22-2.22c.833-.026 1.496-.209 2.056-.59.606-.413 1.07-1.01 1.64-1.8 1.14-1.583 3.372-4.677 7.094-8.4 0 0 .329-.318.496-.82.167-.501.122-1.268-.496-1.886a1.934 1.934 0 0 0-.986-.543 1.828 1.828 0 0 0-.48-.033Zm.178.973c.162 0 .343.072.582.31.382.383.337.615.254.864-.083.248-.254.43-.254.43a66.178 66.178 0 0 0-7.2 8.52c-.555.77-.965 1.27-1.39 1.56-.317.216-.78.261-1.27.312-.004-.028 0-.023-.005-.052-.073-.363-.207-.826-.575-1.194-.367-.368-.83-.501-1.193-.574-.029-.006-.025 0-.053-.006.051-.49.099-.953.315-1.27.29-.425.787-.835 1.558-1.39a66.18 66.18 0 0 0 8.52-7.2s.181-.17.43-.253a.882.882 0 0 1 .28-.057ZM9.695 14.011c.077.008.166.02.27.041.262.053.55.169.681.301.133.132.249.42.301.682.021.104.034.193.041.27l-1.697 1.697a2.525 2.525 0 0 0-1.293-1.293ZM7 16.5a1.492 1.492 0 0 1 1.484 1.724c-.089.728-.61 1.396-1.629 1.918-.827.424-2.035.672-3.423.77l2.142-3.596a.502.502 0 0 0 .045-.1c.009-.026.17-.261.432-.427.261-.166.605-.289.949-.29Z" fill="context-stroke"/>
</svg>
