<!-- This Source Code Form is subject to the terms of the Mozilla Public
   - License, v. 2.0. If a copy of the MPL was not distributed with this
   - file, You can obtain one at http://mozilla.org/MPL/2.0/. -->
<svg width="24" height="24" viewBox="0 0 24 24" xmlns="http://www.w3.org/2000/svg">
  <path d="M11.722 3C10.116 2.986 7.89 4.11 6.57 5.428 4.323 7.475 2.177 13.796 5.514 17.19c.906.9 1.297 1.563 2.576 1.948l.878-1.535a2.2 2.2 0 0 1 .622-.82c.104-.085.2-.144.248-.174l.007-.006c.132-.112.269-.18.332-.211.106-.052.22-.1.33-.139.11-.039.233-.078.364-.111l1.271-1.272c.26-1.386 1.394-2.18 2.112-2.681l.05-.036.233-.162c1.913-1.464 2.953-2.393 3.543-2.95-.125.003-.188.017-.246.03-.084.019-.158.034-.395.016-.842-.064-1.863-.312-2.736-1.186-.94-.94-1.102-2.064-1.041-2.976-.031-1.375-.84-1.916-1.94-1.926Zm-1.636 3.041a1 1 0 1 1 0 2 1 1 0 0 1 0-2zm11.502 2.502c-.426-.02-.975.305-.975.305-5.154 5.145-7.025 4.695-7.025 6.695.666.667 1.332 1.334 2 2 2 0 1.81-2.544 6.963-7.691 0 0 .024-.38-.008-.75-.044-.507-.568-.473-.955-.559zm-10 9c-.628 0-1.177.426-1.276.727l-1.724 3.273c2.616 0 4.499 0 4.986-1.805.016-.062.014-.13.014-.195 0-2-1.24-2.007-2-2z" fill-opacity="context-fill-opacity" fill="context-fill"/>
  <path d="M12.008 2c-1.952-.07-4.498 1.25-6.14 2.818C2.535 8 1.941 15.253 5 18c1.052.945 1.712 1.6 2.59 2.139l.5-1C7.315 19 6.226 17.934 5.514 17.19 3.396 15 3.354 9 6.574 5.525c2.139-2.138 7.092-3.887 7.092-.502-.06.912.102 2.037 1.041 2.977.874.874 1.894 1.121 2.737 1.186.404.03.336-.04.646-.047l1-.95c-.313.009-1.223.027-1.57 0-.706-.053-1.461-.252-2.106-.896-.666-.666-.8-1.464-.75-2.203 0-2.167-1.138-3.036-2.656-3.09ZM10.09 5.139a2 2 0 1 0 0 4 2 2 0 0 0 0-4zm0 1a1 1 0 1 1 0 2 1 1 0 0 1 0-2zm11.397 2c-.293.01-.538.104-.733.185-.225.093-.39.192-.39.192a.51.51 0 0 0-.102.076c-2.55 2.547-4.255 3.684-5.377 4.472-.56.393-.99.7-1.31 1.098a2.248 2.248 0 0 0-.477 1.266l-1.73 1.73c-.313.036-.613.14-.88.309-.278.178-.502.377-.622.683l-1.717 3.256a.5.5 0 0 0 .443.735c1.308 0 2.455.01 3.418-.243.963-.252 1.764-.873 2.049-1.931.012-.043.014-.072.02-.108l1.728-1.728a2.245 2.245 0 0 0 1.33-.602c.413-.382.746-.887 1.17-1.529.85-1.284 2.056-3.155 4.601-5.697a.503.503 0 0 0 .147-.324s.027-.402-.01-.823a1.017 1.017 0 0 0-.236-.576 1.049 1.049 0 0 0-.443-.289c-.287-.102-.532-.107-.665-.137a.5.5 0 0 0-.085-.013 1.552 1.552 0 0 0-.13-.002zm.072 1.004c.208.04.403.066.473.091l.017.008c.021.247.01.41.006.52-2.483 2.512-3.76 4.444-4.582 5.687-.422.638-.738 1.092-1.014 1.348-.228.212-.441.258-.718.285l-1.6-1.6c.023-.283.058-.499.215-.695.192-.24.552-.52 1.103-.906 1.091-.766 2.886-1.975 5.446-4.52.022-.012.094-.056.232-.113.153-.063.342-.107.422-.105zm-14.469.996a1 1 0 1 0 0 2 1 1 0 0 0 0-2zm1 4a1 1 0 1 0 0 2 1 1 0 0 0 0-2zm5.502 2.209 1.293 1.293-.94.94c-.161-.525-.448-.896-.804-1.116a1.993 1.993 0 0 0-.457-.211zm-2 1.793h.004c.377-.003.77.018 1.018.172.248.153.478.43.478 1.328 0 .083-.007.106.004.066-.201.746-.585 1.027-1.34 1.225-.55.144-1.44.138-2.305.152L10.76 18.6a.5.5 0 0 0 .031-.077c-.014.042.075-.11.233-.21.157-.1.367-.172.568-.172z" fill-opacity="context-stroke-opacity" fill="context-stroke"/>
</svg>
