<!-- This Source Code Form is subject to the terms of the Mozilla Public
   - License, v. 2.0. If a copy of the MPL was not distributed with this
   - file, You can obtain one at http://mozilla.org/MPL/2.0/. -->
<svg width="24" height="24" viewBox="0 0 24 24" xmlns="http://www.w3.org/2000/svg">
  <path d="M12.7073 22.5201C19.0193 22.5201 25.3314 10.5973 21.1233 4.28527C19.8582 2.47794 17.6166 1.47992 14.8113 1.47992C4.29119 1.47992 2.18709 10.5973 2.18709 10.5973C1.48584 12.7011 1.48584 14.6296 1.48584 15.5064C1.48584 16.383 1.48584 17.6107 2.88843 18.312C3.73004 18.7328 4.57165 18.8962 5.41325 18.5596C5.97432 18.3351 6.43893 18 7 18C8.40268 18 7.99914 18.838 7.99914 19.7147C7.99914 20.5914 8.79866 21.2987 9.5 22C10.2013 22.7013 11.3046 22.5201 12.7073 22.5201ZM13.5 17.5C14.6046 17.5 15.5 16.6046 15.5 15.5C15.5 14.3954 14.6046 13.5 13.5 13.5C12.3954 13.5 11.5 14.3954 11.5 15.5C11.5 16.6046 12.3954 17.5 13.5 17.5Z" fill-opacity="context-fill-opacity" fill="context-fill"/>
  <path d="M14.6797 0.966797C9.32383 0.966797 6.04031 3.30701 4.11916 5.68555C3.16949 6.86132 2.5615 8.03473 2.18947 8.91406C2.003 9.35479 1.87396 9.72544 1.79103 9.99023C1.74953 10.1227 1.71969 10.2287 1.69924 10.3047C1.69047 10.3373 1.68307 10.3637 1.67775 10.3848C0.970602 12.5299 0.970708 14.4809 0.970722 15.332V15.3848C0.970455 15.7855 0.969969 16.4317 1.19338 17.0742C1.44316 17.7925 1.95104 18.4589 2.86135 18.9141C4.07371 19.5202 5.26572 19.0397 5.9883 18.748L6.08791 18.707C6.66577 18.4759 7.01549 18.3516 7.32228 18.3516C7.47177 18.3516 7.53308 18.3758 7.54689 18.3828C7.55125 18.3884 7.56103 18.403 7.57228 18.4297C7.60053 18.4968 7.62846 18.6082 7.64455 18.7832C7.66057 18.9575 7.66018 19.1415 7.66018 19.3574V19.4121C7.65989 19.7864 7.65925 20.2388 7.77736 20.6816C7.91477 21.1968 8.18962 21.6389 8.62307 22.0723C9.18824 22.6375 9.95306 22.8458 10.6094 22.9395C11.2656 23.0333 11.9936 23.0332 12.6348 23.0332H12.6738C14.496 23.0332 16.2232 22.1766 17.6836 20.9199C19.1509 19.6574 20.4202 17.9323 21.3477 16.0332C23.1736 12.2945 23.8258 7.52679 21.5332 4.08789L21.5196 4.06836C20.0759 2.00595 17.5835 0.966797 14.6797 0.966797ZM14.6797 1.9668C17.3553 1.9668 19.4945 2.91885 20.7012 4.64258C24.7145 10.6626 18.6939 22.0332 12.6738 22.0332C11.336 22.0332 9.999 22.0341 9.3301 21.3652C8.66121 20.6963 8.66018 20.1935 8.66018 19.3574C8.66018 18.5213 8.66007 17.3516 7.32228 17.3516C6.78717 17.3516 6.25193 17.5653 5.71682 17.7793C4.91414 18.1004 4.11128 18.4209 3.30861 18.0195C1.9709 17.3507 1.97072 16.1798 1.97072 15.3438C1.97072 14.5074 1.97182 12.6685 2.64064 10.6621C2.64064 10.6621 4.64632 1.9668 14.6797 1.9668ZM15.5 4C14.6716 4 14 4.67157 14 5.5C14 6.32843 14.6716 7 15.5 7C16.3284 7 17 6.32843 17 5.5C17 4.67157 16.3284 4 15.5 4ZM10.5 6C9.67159 6 9.00002 6.67157 9.00002 7.5C9.00002 8.32843 9.67159 9 10.5 9C11.3284 9 12 8.32843 12 7.5C12 6.67157 11.3284 6 10.5 6ZM18.5 8C17.6716 8 17 8.67157 17 9.5C17 10.3284 17.6716 11 18.5 11C19.3284 11 20 10.3284 20 9.5C20 8.67157 19.3284 8 18.5 8ZM6.50002 9C5.67159 9 5.00002 9.67157 5.00002 10.5C5.00002 11.3284 5.67159 12 6.50002 12C7.32845 12 8.00002 11.3284 8.00002 10.5C8.00002 9.67157 7.32845 9 6.50002 9ZM13.5 13C12.1193 13 11 14.1193 11 15.5C11 16.8807 12.1193 18 13.5 18C14.8807 18 16 16.8807 16 15.5C16 14.1193 14.8807 13 13.5 13ZM13.5 14C14.3284 14 15 14.6716 15 15.5C15 16.3284 14.3284 17 13.5 17C12.6716 17 12 16.3284 12 15.5C12 14.6716 12.6716 14 13.5 14Z" fill-opacity="context-stroke-opacity" fill="context-stroke"/>
</svg>
