<!-- This Source Code Form is subject to the terms of the Mozilla Public
   - License, v. 2.0. If a copy of the MPL was not distributed with this
   - file, You can obtain one at http://mozilla.org/MPL/2.0/. -->
<svg xmlns="http://www.w3.org/2000/svg" fill-opacity="context-fill-opacity" viewBox="0 0 24 24" height="24" width="24">
  <path d="m14.5 5.5-11 11s1.5-.5 3 1 1 3 1 3l11-11s.5-1.5-1-3-3-1-3-1" fill="context-fill"/>
  <path d="M18.018 1.923c-.42.014-.7.102-.7.102a.5.5 0 0 0-.197.121l-13.5 13.5a.5.5 0 0 0-.13.225l-1.473 5.5a.5.5 0 0 0 .613.611l5.5-1.5a.5.5 0 0 0 .223-.129l13.5-13.5a.5.5 0 0 0 .12-.195s.158-.491.085-1.15c-.074-.66-.377-1.533-1.205-2.362-.83-.83-1.71-1.132-2.375-1.205a3.27 3.27 0 0 0-.461-.018Zm.078.997c.077 0 .168.004.273.015.473.052 1.107.248 1.777.918.672.672.869 1.298.92 1.764.047.415-.022.597-.037.646l-2.006 2.006c-.115-.624-.437-1.39-1.17-2.123-.74-.74-1.517-1.062-2.144-1.174l2.002-2.002c.039-.011.153-.05.385-.05Zm-3.024 2.998c.09-.001.194.003.31.015.466.052 1.093.249 1.764.92.672.672.869 1.298.92 1.764.034.298.008.51-.015.625L7.938 19.355c-.102-.596-.37-1.494-1.084-2.209-.724-.723-1.635-.99-2.231-1.088L14.725 5.957c.067-.016.182-.037.347-.04zm-10.853 11.1c.41.046 1.31.218 1.927.835.609.609.784 1.488.834 1.906l-1.865.51a1.603 1.603 0 0 0-.449-.935 1.597 1.597 0 0 0-.861-.438l-.086-.012Z" fill="context-stroke"/>
</svg>
