<!-- This Source Code Form is subject to the terms of the Mozilla Public
   - License, v. 2.0. If a copy of the MPL was not distributed with this
   - file, You can obtain one at http://mozilla.org/MPL/2.0/. -->
<svg xmlns="http://www.w3.org/2000/svg" fill-opacity="context-fill-opacity" viewBox="0 0 24 24">
  <path d="M11 1c-1.1 0-2 .9-2 2v1.668c-.67.272-1.3.63-1.873 1.072l-1.438-.83a2.007 2.007 0 0 0-2.732.733l-1 1.732c-.55.952-.22 2.183.732 2.732l1.42.82c-.052.357-.105.714-.109 1.075a.5.5 0 0 0 0 .012c.005.366.06.73.115 1.091l-1.426.823a2.007 2.007 0 0 0-.732 2.732l1 1.733a2.007 2.007 0 0 0 2.732.732l1.461-.844A7.975 7.975 0 0 0 9 19.334v1.701c0 1.1.9 2 2 2h2c1.1 0 2-.9 2-2v-1.703c.66-.268 1.28-.62 1.848-1.053l1.463.846c.952.55 2.182.22 2.732-.732l1-1.733c.55-.952.22-2.183-.732-2.732l-1.424-.824c.054-.365.109-.73.113-1.098A.5.5 0 0 0 20 12v-.016a.5.5 0 0 0 0-.006c-.005-.352-.058-.702-.11-1.05l1.42-.82a2.007 2.007 0 0 0 .733-2.733l-1-1.732a2.007 2.007 0 0 0-2.732-.733l-1.436.828A7.977 7.977 0 0 0 15 4.666V3c0-1.1-.9-2-2-2Zm0 1h2c.563 0 1 .437 1 1v1.947a.5.5 0 0 0 .336.473 6.992 6.992 0 0 1 2.224 1.27.5.5 0 0 0 .574.053l1.676-.967a.986.986 0 0 1 1.365.366l1 1.732a.986.986 0 0 1-.365 1.365l-1.698.98a.5.5 0 0 0-.24.53c.08.41.121.823.127 1.24v.004a6.996 6.996 0 0 1-.133 1.285.5.5 0 0 0 .24.532l1.704.984a.986.986 0 0 1 .365 1.365l-1 1.733a.986.986 0 0 1-1.365.365l-1.704-.985a.5.5 0 0 0-.572.051 6.994 6.994 0 0 1-2.2 1.254.5.5 0 0 0-.335.473v1.984c0 .563-.437 1-1 1h-2c-.563 0-1-.437-1-1v-1.982a.5.5 0 0 0-.336-.473 6.995 6.995 0 0 1-2.201-1.254.5.5 0 0 0-.572-.05l-1.702.982a.986.986 0 0 1-1.365-.365l-1-1.733a.986.986 0 0 1 .365-1.365l1.706-.984a.5.5 0 0 0 .24-.532A6.994 6.994 0 0 1 5 12.008a7.08 7.08 0 0 1 .127-1.258.5.5 0 0 0-.24-.53l-1.698-.98a.986.986 0 0 1-.365-1.365l1-1.732a.986.986 0 0 1 1.365-.366l1.678.97a.5.5 0 0 0 .574-.054A6.992 6.992 0 0 1 9.664 5.42.5.5 0 0 0 10 4.947V3c0-.563.437-1 1-1zm1 7c-1.65 0-3 1.35-3 3s1.35 3 3 3 3-1.35 3-3-1.35-3-3-3zm0 1c1.11 0 2 .89 2 2 0 1.11-.89 2-2 2-1.11 0-2-.89-2-2 0-1.11.89-2 2-2z" fill="context-stroke"/>
  <path fill-opacity=".997" d="M11 1.5c-.831 0-1.5.669-1.5 1.5v1.947a7.5 7.5 0 0 0-2.383 1.365L5.44 5.345a1.496 1.496 0 0 0-2.048.549l-1 1.732a1.497 1.497 0 0 0 .548 2.049l1.698.98a7.5 7.5 0 0 0-.137 1.354 7.5 7.5 0 0 0 .145 1.369l-1.706.984a1.496 1.496 0 0 0-.548 2.05l1 1.732c.415.72 1.329.964 2.048.548l1.702-.982A7.5 7.5 0 0 0 9.5 19.053v1.982c0 .831.669 1.5 1.5 1.5h2c.831 0 1.5-.669 1.5-1.5v-1.984a7.5 7.5 0 0 0 2.357-1.344l1.704.984c.72.416 1.633.171 2.048-.548l1-1.733a1.497 1.497 0 0 0-.548-2.049l-1.704-.984A7.5 7.5 0 0 0 19.5 12v-.016a7.502 7.502 0 0 0-.137-1.33l1.698-.98c.72-.416.964-1.33.548-2.049l-1-1.732a1.496 1.496 0 0 0-2.048-.55l-1.676.968A7.5 7.5 0 0 0 14.5 4.947V3c0-.831-.669-1.5-1.5-1.5Zm1 8a2.5 2.5 0 0 1 2.5 2.5 2.5 2.5 0 0 1-2.5 2.5A2.5 2.5 0 0 1 9.5 12 2.5 2.5 0 0 1 12 9.5Z" fill="context-fill"/>
</svg>
