<!-- This Source Code Form is subject to the terms of the Mozilla Public
   - License, v. 2.0. If a copy of the MPL was not distributed with this
   - file, You can obtain one at http://mozilla.org/MPL/2.0/. -->
<svg xmlns="http://www.w3.org/2000/svg" fill-opacity="context-fill-opacity" viewBox="0 0 24 24">
  <path d="M6 2c-1.108 0-2 .892-2 2v16c0 1.108.892 2 2 2h12c1.108 0 2-.892 2-2V4c0-1.108-.892-2-2-2h-1c0 1.108-.892 2-2 2H9c-1.108 0-2-.892-2-2Z" fill="context-fill"/>
  <path d="M9 0c-.736 0-1.381.404-1.729 1H6C4.347 1 3 2.347 3 4v16c0 1.653 1.347 3 3 3h12c1.653 0 3-1.347 3-3V4c0-1.653-1.347-3-3-3h-1.271C16.38.404 15.736 0 15 0Zm0 1h6c.563 0 1 .437 1 1s-.437 1-1 1H9c-.563 0-1-.437-1-1s.437-1 1-1ZM6 2h1c0 1.1.9 2 2 2h6c1.1 0 2-.9 2-2h1c1.117 0 2 .883 2 2v16c0 1.117-.883 2-2 2H6c-1.117 0-2-.883-2-2V4c0-1.117.883-2 2-2Zm9.563 6.004a.5.5 0 0 0-.497.248l-3.675 6.432-2.537-2.538a.5.5 0 0 0-.708 0 .5.5 0 0 0 0 .708l3 3a.5.5 0 0 0 .788-.106l4-7a.5.5 0 0 0-.186-.682.5.5 0 0 0-.185-.062Z" fill="context-stroke"/>
</svg>
