<!-- This Source Code Form is subject to the terms of the Mozilla Public
   - License, v. 2.0. If a copy of the MPL was not distributed with this
   - file, You can obtain one at http://mozilla.org/MPL/2.0/. -->
<svg width="16" height="16" xmlns="http://www.w3.org/2000/svg" fill="context-fill" fill-opacity="context-fill-opacity" viewBox="0 0 16 16">
  <path d="M5 3v9a3 3 0 0 0 6 0V3.5a.5.5 0 1 1 1 0V12a4 4 0 1 1-8 0V3a3 3 0 1 1 6 0v8a2 2 0 1 1-4 0V5.5a.5.5 0 0 1 1 0V11a1 1 0 0 0 2 0V3a2 2 0 1 0-4 0z"/>
</svg>
