<!-- This Source Code Form is subject to the terms of the Mozilla Public
   - License, v. 2.0. If a copy of the MPL was not distributed with this
   - file, You can obtain one at http://mozilla.org/MPL/2.0/. -->
<svg width="16" height="16" xmlns="http://www.w3.org/2000/svg" fill="context-fill" fill-opacity="context-fill-opacity" viewBox="0 0 16 16">
  <path d="M14.35 2.35l-.7-.7a2 2 0 00-2.83 0l-.38.38a.5.5 0 000 .7l2.83 2.83a.5.5 0 00.7 0l.38-.38a2 2 0 000-2.83zM9.73 3.44a.5.5 0 00-.7 0L3.24 9.22a1.99 1.99 0 00-.46.71l-1.75 4.39a.5.5 0 00.46.68.5.5 0 00.19-.04l4.38-1.75a1.97 1.97 0 00.72-.45l5.77-5.78a.5.5 0 000-.7zM5.16 12.5l-2.55 1.02a.1.1 0 01-.13-.13l1.02-2.56a.1.1 0 01.16-.03l1.54 1.53a.1.1 0 01-.04.17z"/>
</svg>
