<!-- This Source Code Form is subject to the terms of the Mozilla Public
   - License, v. 2.0. If a copy of the MPL was not distributed with this
   - file, You can obtain one at http://mozilla.org/MPL/2.0/. -->
<svg xmlns="http://www.w3.org/2000/svg" width="16" height="16">
  <path fill="context-fill" fill-opacity="context-fill-opacity" d="M 8,1 C 3.8,1 1,3.8 1,8 c 0,4.1 4,7 7,7 4,0 7,-2.8 7,-7 C 15,3.8 12.1,1 8,1 Z m 0,1 c 0.7,0 1,0 2,0.3 V 6 h 3 v 4 H 8 v 4 C 4,14 2,10 2,8 2,5 4,2 8,2 Z M 7,3 h 2 v 4 h 3 V 9 H 7 Z"/>
</svg>
