<!-- This Source Code Form is subject to the terms of the Mozilla Public
   - License, v. 2.0. If a copy of the MPL was not distributed with this
   - file, You can obtain one at http://mozilla.org/MPL/2.0/. -->
<svg width="32" height="32" xmlns="http://www.w3.org/2000/svg" fill="context-fill" fill-opacity="context-fill-opacity" viewBox="0 0 32 32">
  <path d="M3 1c-1.668.06-3 1.35-3 3v24c0 1.66 1.343 3 3 3h25c1.66 0 3-1.34 3-3V4c0-1.65-1.33-3.056-3-3zm1 3h23c.55 0 1 .45 1 1v1H3V5c0-.55.451-1 1-1zM3 9h25v18c0 .55-.45 1-1 1H4c-.552 0-1.029-.45-1-1zm7 1v5h5v-5zm6 0v5h5v-5zm6 0v5h5v-5zM4 16v5h5v-5zm6 0v5h5v-5zm6 0v5h5v-5zm6 0v5h5v-5zM4 22v5h5v-5zm6 0v5h5v-5zm6 0v5h5v-5z"/>
</svg>
