<!-- This Source Code Form is subject to the terms of the Mozilla Public
   - License, v. 2.0. If a copy of the MPL was not distributed with this
   - file, You can obtain one at http://mozilla.org/MPL/2.0/. -->
<svg width="16" height="16" xmlns="http://www.w3.org/2000/svg" fill="context-fill" fill-opacity="context-fill-opacity" viewBox="0 0 16 16">
  <path d="M6 2h4v2H6zm7 0c1.65 0 3 1.5 3 3v8c0 1.65-1.34 3-3 3H3c-1.65 0-3-1.34-3-3V5c0-1.65 1.35-3 3-3v2c-.55 0-1 .55-1 1v8c0 .55.45 1 1 1h10c.55 0 1.05-.45 1-1V5c0-.55-.45-1-1-1z"/>
  <rect x="4" width="1" height="4" rx=".5"/>
  <rect x="11" width="1" height="4" rx=".5"/>
</svg>
