<!-- This Source Code Form is subject to the terms of the Mozilla Public
   - License, v. 2.0. If a copy of the MPL was not distributed with this
   - file, You can obtain one at http://mozilla.org/MPL/2.0/. -->
<svg xmlns="http://www.w3.org/2000/svg" width="16" height="16" viewBox="0 0 16 16">
  <path fill="context-fill" fill-opacity="context-fill-opacity" d="M1.433 3.2l2.434 2.436a1.243 1.243 0 1 0 1.757-1.757L3.188 1.445A3.956 3.956 0 0 1 4.988 1a3.976 3.976 0 0 1 3.434 6l6.268 6.27a1 1 0 1 1-1.41 1.42L7 8.434A3.96 3.96 0 0 1 4.99 9a4 4 0 0 1-4-4 3.95 3.95 0 0 1 .445-1.8z"/>
</svg>
