<!-- This Source Code Form is subject to the terms of the Mozilla Public
   - License, v. 2.0. If a copy of the MPL was not distributed with this
   - file, You can obtain one at http://mozilla.org/MPL/2.0/. -->
<svg fill="context-fill" fill-opacity="context-fill-opacity" version="1.1" viewBox="0 0 16 16" xmlns="http://www.w3.org/2000/svg">
  <path d="M2.5 1A2.5 2.5 0 0 0 0 3.5v7A2.5 2.5 0 0 0 2.5 13H4c1.33 0 1.33-2 0-2H2.5a.5.5 0 0 1-.5-.5v-7c0-.28.23-.5.5-.5h11c.28 0 .5.22.5.5v7a.5.5 0 0 1-.5.5h-3.3l.8-1c.91-.94-.47-2.32-1.41-1.41l-2.3 2.7a1 1 0 0 0 0 1.42l2.3 2.7c.94.91 2.32-.47 1.41-1.41l-.8-1h3.3a2.5 2.5 0 0 0 2.5-2.5v-7C16 2.12 14.87.87 13.5 1h-11z"/>
</svg>
