<!-- This Source Code Form is subject to the terms of the Mozilla Public
   - License, v. 2.0. If a copy of the MPL was not distributed with this
   - file, You can obtain one at http://mozilla.org/MPL/2.0/. -->
<svg width="16" height="16" xmlns="http://www.w3.org/2000/svg" fill="context-fill" fill-opacity="context-fill-opacity">
  <path d="M6 2h4v2H6V2zm7 .17c1.165.413 2 1.524 2 2.83v7a3 3 0 0 1-3 3H4a3 3 0 0 1-3-3V5c0-1.306.835-2.417 2-2.83V12a1 1 0 0 0 1 1h8a1 1 0 0 0 1-1V2.17z"/>
  <rect x="4" width="1" height="4" rx=".5"/>
  <rect x="11" width="1" height="4" rx=".5"/>
  <path d="M3 5h10v1H3z"/>
  <path d="M10.1 7.2a.5.5 0 0 1 .8.6l-3 4a.5.5 0 0 1-.754.054l-2-2a.5.5 0 1 1 .708-.708l1.592 1.593L10.1 7.2z"/>
</svg>
