<!-- This Source Code Form is subject to the terms of the Mozilla Public
   - License, v. 2.0. If a copy of the MPL was not distributed with this
   - file, You can obtain one at http://mozilla.org/MPL/2.0/. -->
<svg width="16" height="16" xmlns="http://www.w3.org/2000/svg" fill="context-fill" fill-opacity="context-fill-opacity">
  <path d="M2 0h11a2 2 0 0 1 2 2v12a2 2 0 0 1-2 2H2a2 2 0 0 1-2-2V2a2 2 0 0 1 2-2zm0 2v12h11V2H2zm6.5 3h3a.5.5 0 1 1 0 1h-3a.5.5 0 0 1 0-1zm0 3h3a.5.5 0 1 1 0 1h-3a.5.5 0 0 1 0-1zm0 3h3a.5.5 0 1 1 0 1h-3a.5.5 0 1 1 0-1zM6.146 4.146a.5.5 0 1 1 .708.708l-2 2a.5.5 0 0 1-.708 0l-1-1a.5.5 0 1 1 .708-.708l.646.647 1.646-1.647zm0 3a.5.5 0 1 1 .708.708l-2 2a.5.5 0 0 1-.708 0l-1-1a.5.5 0 1 1 .708-.708l.646.647 1.646-1.647z"/>
</svg>
