<!-- This Source Code Form is subject to the terms of the Mozilla Public
   - License, v. 2.0. If a copy of the MPL was not distributed with this
   - file, You can obtain one at http://mozilla.org/MPL/2.0/. -->
<svg xmlns="http://www.w3.org/2000/svg" width="16" height="16">
  <path fill="context-fill" fill-opacity="context-fill-opacity" d="M 8,1 C 3.8,1 1,3.8 1,8 c 0,4.1 3,7 7,7 4,0 7,-2.8 7,-7 C 15,3.8 12.1,1 8,1 Z M 6,3.3 5.3,4.1 V 5.2 L 6.1,6.3 6.8,7 h 1.6 l 1,-1.4 -0.6,-2.3 1.4,-1 c 0,0 1,0 2.4,1.6 l -2.4,2.5 1.3,0.5 1.6,1.4 -0.3,1.8 -1,1.2 1,0.8 -2,1.4 -1.9,-1 L 10.5,10 7.3,8 4.9,10.8 5,12.1 6,13.5 C 5,13 3,12 2.9,11.2 L 3.7,9.5 2.9,7.4 3.8,6.5 3.2,5.6 V 4.4 L 3.3,3.8 C 4,3 5,2 7,2 Z"/>
</svg>
