<!-- This Source Code Form is subject to the terms of the Mozilla Public
   - License, v. 2.0. If a copy of the MPL was not distributed with this
   - file, You can obtain one at http://mozilla.org/MPL/2.0/. -->
<svg xmlns="http://www.w3.org/2000/svg" width="16" height="16" viewBox="0 0 16 16">
  <path fill="context-fill" d="M14.74 12.11L9.79 2.2a2 2 0 0 0-3.58 0l-4.95 9.91A2 2 0 0 0 3.05 15h9.9a2 2 0 0 0 1.79-2.89zM7 5a1 1 0 0 1 2 0v4a1 1 0 0 1-2 0zm1 8.25A1.25 1.25 0 1 1 9.25 12 1.25 1.25 0 0 1 8 13.25z"/>
</svg>
