<!-- This Source Code Form is subject to the terms of the Mozilla Public
   - License, v. 2.0. If a copy of the MPL was not distributed with this
   - file, You can obtain one at http://mozilla.org/MPL/2.0/. -->
<svg width="48" height="48" xmlns:xlink="http://www.w3.org/1999/xlink" xmlns="http://www.w3.org/2000/svg"><defs><linearGradient id="b"><stop style="stop-color:#a1a1aa;stop-opacity:1" offset="0"/><stop style="stop-color:#d4d4d8;stop-opacity:1" offset="1"/></linearGradient><linearGradient id="a"><stop style="stop-color:#d7bc96;stop-opacity:1" offset="0"/><stop style="stop-color:#efdfc4;stop-opacity:1" offset="1"/></linearGradient><linearGradient xlink:href="#a" id="c" x1="25" y1="652.52" x2="25" y2="624.52" gradientUnits="userSpaceOnUse"/><linearGradient xlink:href="#b" id="d" x1="24" y1="652.52" x2="24" y2="631.52" gradientUnits="userSpaceOnUse"/></defs><g transform="translate(0 -610.52)"><rect style="fill:#d7bc96;stroke:none;stroke-width:2;stroke-linecap:round;stroke-linejoin:round;stop-color:#000" width="40" height="40" x="4" y="614.52" rx="9" ry="9"/><rect style="fill:#96764b;stroke:none;stroke-width:2;stroke-linecap:round;stroke-linejoin:round;stop-color:#000" width="36" height="34" x="6" y="616.52" rx="7" ry="7"/><rect style="fill:#51412c;stroke:none;stroke-width:2;stroke-linecap:round;stroke-linejoin:round;stop-color:#000;opacity:.3" width="34" height="32" x="7" y="617.52" rx="6" ry="6"/><rect style="fill:#f1f3fa;stroke:none;stroke-width:2;stroke-linecap:round;stroke-linejoin:round;stop-color:#000" width="32" height="30" x="8" y="618.52" rx="5" ry="5"/><path style="fill:#51412c;fill-opacity:1;stroke-width:2;stroke-linecap:round;stroke-linejoin:round;stop-color:#000;opacity:.3" d="M4 623.52v22c0 4.986 4.014 9 9 9h22c4.986 0 9-4.014 9-9v-22H32a1 1 0 0 0-1 1c-.483 3.399-3.456 6-6.986 6h-.028c-3.53 0-6.503-2.601-6.986-6a1 1 0 0 0-1-1z"/><path style="fill:url(#c);stroke-width:2;stroke-linecap:round;stroke-linejoin:round;stop-color:#000;fill-opacity:1" d="M4 624.52v21c0 4.986 4.014 9 9 9h22c4.986 0 9-4.014 9-9v-21H32a1 1 0 0 0-1 1c-.483 3.399-3.456 6-6.986 6h-.028c-3.53 0-6.503-2.601-6.986-6a1 1 0 0 0-1-1H4z"/><path style="fill:#96764b;stroke:none;stroke-width:2;stroke-linecap:round;stroke-linejoin:round;stop-color:#000" d="M4 643.52v2c0 4.986 4.014 9 9 9h22c4.986 0 9-4.014 9-9v-2c0 4.986-4.014 9-9 9H13a8.98 8.98 0 0 1-9-9z"/><path style="fill:#f4e9d7;stroke-width:2;stroke-linecap:round;stroke-linejoin:round;stop-color:#000;fill-opacity:1" d="M4 624.52v1h12a1 1 0 0 1 1 1c.483 3.399 3.456 6 6.986 6h.028c3.53 0 6.503-2.601 6.986-6a1 1 0 0 1 1-1h12v-1H32a1 1 0 0 0-1 1c-.483 3.399-3.456 6-6.986 6h-.028c-3.53 0-6.503-2.601-6.986-6a1 1 0 0 0-1-1H4z"/><path style="opacity:.3;fill:#51412c;fill-opacity:1;stroke:none;stroke-width:2;stroke-linecap:round;stroke-linejoin:round;stop-color:#000" d="M25 632.52c-.554 0-1 .446-1 1v1c0 .554.446 1 1 1h1c.554 0 1-.446 1-1v-1c0-.554-.446-1-1-1zm-3 3c-.554 0-1 .446-1 1v1c0 .554.446 1 1 1h1c.554 0 1-.446 1-1v-1c0-.554-.446-1-1-1zm3 3c-.554 0-1 .446-1 1v1c0 .554.446 1 1 1h1c.554 0 1-.446 1-1v-1c0-.554-.446-1-1-1zm-3 3c-.554 0-1 .446-1 1v1c0 .554.446 1 1 1h1c.554 0 1-.446 1-1v-1c0-.554-.446-1-1-1zm3 3c-.554 0-1 .446-1 1v1c0 .554.446 1 1 1h1c.554 0 1-.446 1-1v-1c0-.554-.446-1-1-1zm-3 3c-.554 0-1 .446-1 1v1c0 .554.446 1 1 1h1c.554 0 1-.446 1-1v-1c0-.554-.446-1-1-1zm3 3c-.554 0-1 .446-1 1v1c0 .554.446 1 1 1h1c.554 0 1-.446 1-1v-1c0-.554-.446-1-1-1z"/><rect style="opacity:.3;fill:#51412c;fill-opacity:1;stroke:none;stroke-width:2;stroke-linecap:round;stroke-linejoin:round;stop-color:#000" width="2" height="21" x="23" y="631.52" rx=".5" ry=".5"/><path style="opacity:1;fill:url(#d);fill-opacity:1;stroke:none;stroke-width:2;stroke-linecap:round;stroke-linejoin:round;stop-color:#000" d="M25 631.52c-.554 0-1 .446-1 1v1c0 .554.446 1 1 1h1c.554 0 1-.446 1-1v-1c0-.554-.446-1-1-1h-1zm-3 3c-.554 0-1 .446-1 1v1c0 .554.446 1 1 1h1c.554 0 1-.446 1-1v-1c0-.554-.446-1-1-1h-1zm3 3c-.554 0-1 .446-1 1v1c0 .554.446 1 1 1h1c.554 0 1-.446 1-1v-1c0-.554-.446-1-1-1h-1zm-3 3c-.554 0-1 .446-1 1v1c0 .554.446 1 1 1h1c.554 0 1-.446 1-1v-1c0-.554-.446-1-1-1h-1zm3 3c-.554 0-1 .446-1 1v1c0 .554.446 1 1 1h1c.554 0 1-.446 1-1v-1c0-.554-.446-1-1-1h-1zm-3 3c-.554 0-1 .446-1 1v1c0 .554.446 1 1 1h1c.554 0 1-.446 1-1v-1c0-.554-.446-1-1-1h-1zm3 3c-.554 0-1 .446-1 1v1c0 .554.446 1 1 1h1c.554 0 1-.446 1-1v-1c0-.554-.446-1-1-1h-1z"/></g></svg>
