<!-- This Source Code Form is subject to the terms of the Mozilla Public
   - License, v. 2.0. If a copy of the MPL was not distributed with this
   - file, You can obtain one at http://mozilla.org/MPL/2.0/. -->
<svg xmlns="http://www.w3.org/2000/svg" xmlns:xlink="http://www.w3.org/1999/xlink" width="32" height="32">
  <defs>
    <linearGradient id="c">
      <stop offset="0" style="stop-color:#f9f9fa;stop-opacity:1"/>
      <stop offset="1" style="stop-color:#c0c2d6;stop-opacity:1"/>
    </linearGradient>
    <linearGradient id="b">
      <stop offset="0" style="stop-color:#b6986c;stop-opacity:1"/>
      <stop offset="1" style="stop-color:#d7bc96;stop-opacity:1"/>
    </linearGradient>
    <linearGradient id="a">
      <stop offset="0" style="stop-color:#efdfc4;stop-opacity:1"/>
      <stop offset="1" style="stop-color:#d7bc96;stop-opacity:1"/>
    </linearGradient>
    <linearGradient xlink:href="#a" id="e" x1="8" x2="8" y1="9" y2="19" gradientTransform="translate(0 606.52)" gradientUnits="userSpaceOnUse"/>
    <linearGradient xlink:href="#b" id="d" x1="8" x2="8" y1="612.52" y2="621.52" gradientUnits="userSpaceOnUse"/>
    <linearGradient xlink:href="#c" id="f" x1="8" x2="8" y1="7" y2="15" gradientUnits="userSpaceOnUse"/>
  </defs>
  <g style="stroke-width:.5" transform="matrix(2 0 0 2 0 -1221.04)">
    <rect width="14" height="14" x="1" y="611.52" rx="3" ry="3" style="fill:#d7bc96;fill-opacity:1;stroke:none;stroke-width:.5"/>
    <rect width="12" height="12" x="2" y="612.52" rx="2" ry="2" style="fill:url(#d);fill-opacity:1;stroke:none;stroke-width:.5"/>
    <rect width="12" height="7" x="2" y="612.52" rx="2" ry="2" style="opacity:.15;fill:#000;fill-opacity:1;stroke:none;stroke-width:.5;stroke-linecap:round;stroke-linejoin:round;stroke-opacity:1"/>
    <rect width="10" height="10" x="3" y="613.52" rx="1" ry="1" style="opacity:1;fill:#fdfdff;stroke-width:.5;stroke-linecap:round;stroke-linejoin:round;stop-color:#000"/>
    <path d="M15 615.52h-5c0 1-.5 2-2 2s-2-1-2-2c-1 0-3.689.008-5 0" style="opacity:.15;fill:none;stroke:#000;stroke-width:1;stroke-linecap:butt;stroke-linejoin:round;stroke-opacity:1"/>
    <path d="M1 615.52v.5l-.004.5H1v6c0 1.662 1.338 3 3 3h8c1.662 0 3-1.338 3-3v-7h-4.5a.5.5 0 0 0-.5.5c0 .666-.722 1.5-2 1.5s-2-.834-2-1.5a.5.5 0 0 0-.5-.5H1.004Z" style="fill:url(#e);fill-opacity:1;stroke:none;stroke-width:.5"/>
    <path d="M15 615.77h-4.75c0 1-.75 2-2.25 2s-2.25-1-2.25-2c-1 0-3.439.008-4.75 0" style="opacity:.15;fill:none;stroke:#fff;stroke-width:.5;stroke-linecap:butt;stroke-linejoin:round"/>
    <path d="M1 11v1c0 1.662 1.338 3 3 3h8c1.662 0 3-1.338 3-3v-1c0 1.662-1.338 3-3 3H4c-1.662 0-3-1.338-3-3Z" style="opacity:.15;fill:#000;fill-opacity:1;stroke:none;stroke-width:.25" transform="translate(0 610.52)"/>
    <path d="M7 7v1h1V7Zm1 1v1h1V8Zm0 1H7v1h1zm0 1v1h1v-1zm0 1H7v1h1zm0 1v1h1v-1zm0 1H7v1h1zm0 1v1h1v-1z" style="color:#000;fill:url(#f);fill-opacity:1;stroke-width:.5" transform="translate(0 610.52)"/>
    <path d="M7 618.52v1h1v-1zm1 1v1h1v-1zm0 1H7v1h1zm0 1v1h1v-1zm0 1H7v1h1zm0 1v1h1v-1zm0 1H7v1h1z" style="color:#000;opacity:.15;fill:#725534;stroke-width:.25"/>
  </g>
</svg>
