<!-- This Source Code Form is subject to the terms of the Mozilla Public
   - License, v. 2.0. If a copy of the MPL was not distributed with this
   - file, You can obtain one at http://mozilla.org/MPL/2.0/. -->
<svg xmlns="http://www.w3.org/2000/svg" xmlns:xlink="http://www.w3.org/1999/xlink" width="32" height="32">
  <defs>
    <linearGradient id="c">
      <stop offset="0" style="stop-color:#fff;stop-opacity:1"/>
      <stop offset="1" style="stop-color:#ededf0;stop-opacity:1"/>
    </linearGradient>
    <linearGradient id="b">
      <stop offset="0" style="stop-color:#fff;stop-opacity:1"/>
      <stop offset="1" style="stop-color:#ededf0;stop-opacity:1"/>
    </linearGradient>
    <linearGradient id="a">
      <stop offset="0" style="stop-color:#ededf0;stop-opacity:1"/>
      <stop offset="1" style="stop-color:#d7d7db;stop-opacity:1"/>
    </linearGradient>
    <linearGradient xlink:href="#a" id="g" x1="8.5" x2="8.5" y1="623.52" y2="613.52" gradientUnits="userSpaceOnUse"/>
    <linearGradient xlink:href="#b" id="i" x1="8" x2="8" y1="3" y2="9.5" gradientUnits="userSpaceOnUse"/>
    <linearGradient xlink:href="#c" id="h" x1="8" x2="8" y1="617.52" y2="624.52" gradientUnits="userSpaceOnUse"/>
    <linearGradient xlink:href="#a" id="d" x1="8.5" x2="8.5" y1="623.52" y2="613.52" gradientUnits="userSpaceOnUse"/>
    <linearGradient xlink:href="#c" id="e" x1="8" x2="8" y1="617.52" y2="624.52" gradientUnits="userSpaceOnUse"/>
    <linearGradient xlink:href="#b" id="f" x1="8" x2="8" y1="3" y2="9.5" gradientUnits="userSpaceOnUse"/>
  </defs>
  <g style="opacity:.5" transform="matrix(2 0 0 2 -2 -1227.04)">
    <rect width="14" height="11" x="1" y="613.52" rx="1.5" ry="1.5" style="opacity:1;fill:url(#d);fill-opacity:1;stroke:none;stroke-linecap:round;stroke-linejoin:round"/>
    <path d="M2.5 624.54c-.831 0-1.5-.67-1.5-1.5v-.52l5.975-5.577a1.514 1.514 0 0 1 2.05 0L15 622.52v.52c0 .83-.669 1.5-1.5 1.5z" style="color:#000;opacity:.15;fill:#000;stroke-linecap:round;stroke-linejoin:round"/>
    <path d="M2.5 624.52a1.496 1.496 0 0 1-1.332-.809l6.49-6.057a.5.5 0 0 1 .684 0l6.49 6.057c-.25.481-.75.809-1.332.809z" style="color:#000;fill:url(#e);fill-opacity:1;stroke-linecap:round;stroke-linejoin:round"/>
    <path d="M1 11.5v1c0 .831.669 1.5 1.5 1.5h11c.831 0 1.5-.669 1.5-1.5v-1c0 .831-.669 1.5-1.5 1.5h-11c-.831 0-1.5-.669-1.5-1.5Z" style="opacity:.15;fill:#000;fill-opacity:1;stroke:none;stroke-linecap:round;stroke-linejoin:round" transform="translate(0 610.52)"/>
    <path d="M2.5 613.52c-.831 0-1.5.669-1.5 1.5v.52l5.975 5.575c.57.534 1.48.534 2.05 0L15 615.54v-.52c0-.83-.669-1.5-1.5-1.5z" style="color:#000;opacity:.15;fill:#000;stroke-linecap:round;stroke-linejoin:round"/>
    <path d="M2.5 3c-.581 0-1.083.328-1.332.809l6.49 6.056a.5.5 0 0 0 .684 0l6.49-6.056A1.496 1.496 0 0 0 13.5 3Z" style="color:#000;fill:url(#f);fill-opacity:1;stroke-linecap:round;stroke-linejoin:round" transform="translate(0 610.52)"/>
  </g>
  <g transform="matrix(2 0 0 2 2 -1217.04)">
    <rect width="14" height="11" x="1" y="613.52" rx="1.5" ry="1.5" style="opacity:1;fill:url(#g);fill-opacity:1;stroke:none;stroke-linecap:round;stroke-linejoin:round"/>
    <path d="M2.5 624.54c-.831 0-1.5-.67-1.5-1.5v-.52l5.975-5.577a1.514 1.514 0 0 1 2.05 0L15 622.52v.52c0 .83-.669 1.5-1.5 1.5z" style="color:#000;opacity:.15;fill:#000;stroke-linecap:round;stroke-linejoin:round"/>
    <path d="M2.5 624.52a1.496 1.496 0 0 1-1.332-.809l6.49-6.057a.5.5 0 0 1 .684 0l6.49 6.057c-.25.481-.75.809-1.332.809z" style="color:#000;fill:url(#h);fill-opacity:1;stroke-linecap:round;stroke-linejoin:round"/>
    <path d="M1 622.02v1c0 .83.669 1.5 1.5 1.5h11c.831 0 1.5-.67 1.5-1.5v-1c0 .83-.669 1.5-1.5 1.5h-11c-.831 0-1.5-.67-1.5-1.5z" style="opacity:.15;fill:#000;fill-opacity:1;stroke:none;stroke-linecap:round;stroke-linejoin:round"/>
    <path d="M2.5 613.52c-.831 0-1.5.669-1.5 1.5v.52l5.975 5.575c.57.534 1.48.534 2.05 0L15 615.54v-.52c0-.83-.669-1.5-1.5-1.5z" style="color:#000;opacity:.15;fill:#000;stroke-linecap:round;stroke-linejoin:round"/>
    <path d="M2.5 3c-.581 0-1.083.328-1.332.809l6.49 6.056a.5.5 0 0 0 .684 0l6.49-6.056A1.496 1.496 0 0 0 13.5 3Z" style="color:#000;fill:url(#i);fill-opacity:1;stroke-linecap:round;stroke-linejoin:round" transform="translate(0 610.52)"/>
  </g>
</svg>
