<!-- This Source Code Form is subject to the terms of the Mozilla Public
   - License, v. 2.0. If a copy of the MPL was not distributed with this
   - file, You can obtain one at http://mozilla.org/MPL/2.0/. -->
<svg width="48" height="48" xmlns:xlink="http://www.w3.org/1999/xlink" xmlns="http://www.w3.org/2000/svg"><defs><linearGradient id="c"><stop offset="0" style="stop-color:#f1f3fa;stop-opacity:1"/><stop offset="1" style="stop-color:#e3e5f2;stop-opacity:1"/></linearGradient><linearGradient xlink:href="#a" id="g" x1="8.5" x2="8.5" y1="623.52" y2="613.52" gradientUnits="userSpaceOnUse"/><linearGradient id="a"><stop offset="0" style="stop-color:#f1f3fa;stop-opacity:1"/><stop offset="1" style="stop-color:#cdd0e5;stop-opacity:1"/></linearGradient><linearGradient xlink:href="#b" id="h" x1="8" x2="8" y1="617.52" y2="624.52" gradientUnits="userSpaceOnUse"/><linearGradient id="b"><stop offset="0" style="stop-color:#f1f3fa;stop-opacity:1"/><stop offset="1" style="stop-color:#e3e5f2;stop-opacity:1"/></linearGradient><linearGradient xlink:href="#c" id="i" x1="8" x2="8" y1="3" y2="10" gradientUnits="userSpaceOnUse"/><linearGradient xlink:href="#a" id="d" gradientUnits="userSpaceOnUse" x1="8.5" y1="623.52" x2="8.5" y2="613.52"/><linearGradient xlink:href="#b" id="e" gradientUnits="userSpaceOnUse" x1="8" y1="617.52" x2="8" y2="624.52"/><linearGradient xlink:href="#c" id="f" gradientUnits="userSpaceOnUse" x1="8" y1="3" x2="8" y2="10"/></defs><g transform="matrix(2 0 0 2 2 -1223.038)" style="opacity:1"><rect width="14" height="11" x="1" y="613.52" rx="1.5" ry="1.5" style="opacity:1;fill:url(#d);fill-opacity:1;stroke:none;stroke-linecap:round;stroke-linejoin:round"/><path style="color:#000;fill:#cdd0e5;fill-opacity:1;stroke-linecap:round;stroke-linejoin:round" d="M8 617.019a.498.498 0 0 0-.342.135l-6.638 6.098c.005.035.01.069.018.102.038.09.07.192.102.298.237.513.755.868 1.36.868h11c.752 0 1.369-.548 1.48-1.268l-6.638-6.098a.498.498 0 0 0-.342-.135Z"/><path d="M2.5 624.52a1.496 1.496 0 0 1-1.332-.809l6.49-6.057a.5.5 0 0 1 .684 0l6.49 6.057c-.25.481-.75.809-1.332.809z" style="color:#000;fill:url(#e);fill-opacity:1;stroke-linecap:round;stroke-linejoin:round"/><path style="color:#000;fill:#cdd0e5;fill-opacity:1;stroke-linecap:round;stroke-linejoin:round" d="M8 621.02a.498.498 0 0 1-.342-.135l-6.638-6.098c.005-.035.01-.069.018-.102.038-.09.07-.192.102-.298a1.496 1.496 0 0 1 1.36-.868h11c.752 0 1.369.548 1.48 1.268l-6.638 6.098a.498.498 0 0 1-.342.135Z"/><path d="M2.5 3c-.581 0-1.083.328-1.332.809l6.49 6.056a.5.5 0 0 0 .684 0l6.49-6.056A1.496 1.496 0 0 0 13.5 3Z" style="color:#000;fill:url(#f);fill-opacity:1;stroke-linecap:round;stroke-linejoin:round" transform="translate(0 610.52)"/><path style="opacity:1;fill:#cdd0e5;fill-opacity:1;stroke:none;stroke-linecap:round;stroke-linejoin:round" d="M1 622.025v.995c0 .831.669 1.5 1.5 1.5h11c.831 0 1.5-.669 1.5-1.5v-.995c0 .83-.669 1.5-1.5 1.5h-11c-.831 0-1.5-.67-1.5-1.5z"/><path style="opacity:1;fill:#cdd0e5;fill-opacity:1;stroke:none;stroke-linecap:round;stroke-linejoin:round" d="M8.5 622.019c-1.108 0-2 .892-2 2v.501h7c.831 0 1.5-.669 1.5-1.5v-1.001H8.5z"/></g><g transform="matrix(2 0 0 2 14 -1205.04)"><rect width="14" height="11" x="1" y="613.52" rx="1.5" ry="1.5" style="opacity:1;fill:url(#g);fill-opacity:1;stroke:none;stroke-linecap:round;stroke-linejoin:round"/><path style="color:#000;fill:#cdd0e5;fill-opacity:1;stroke-linecap:round;stroke-linejoin:round" d="M8 617.019a.498.498 0 0 0-.342.135l-6.638 6.098c.005.035.01.069.018.102.038.09.07.192.102.298.237.513.755.868 1.36.868h11c.752 0 1.369-.548 1.48-1.268l-6.638-6.098a.498.498 0 0 0-.342-.135z"/><path d="M2.5 624.52a1.496 1.496 0 0 1-1.332-.809l6.49-6.057a.5.5 0 0 1 .684 0l6.49 6.057c-.25.481-.75.809-1.332.809z" style="color:#000;fill:url(#h);fill-opacity:1;stroke-linecap:round;stroke-linejoin:round"/><path style="color:#000;fill:#cdd0e5;fill-opacity:1;stroke-linecap:round;stroke-linejoin:round" d="M8 621.02a.498.498 0 0 1-.342-.135l-6.638-6.098c.005-.035.01-.069.018-.102.038-.09.07-.192.102-.298a1.496 1.496 0 0 1 1.36-.868h11c.752 0 1.369.548 1.48 1.268l-6.638 6.098a.498.498 0 0 1-.342.135Z"/><path d="M2.5 3c-.581 0-1.083.328-1.332.809l6.49 6.056a.5.5 0 0 0 .684 0l6.49-6.056A1.496 1.496 0 0 0 13.5 3Z" style="color:#000;fill:url(#i);fill-opacity:1;stroke-linecap:round;stroke-linejoin:round" transform="translate(0 610.52)"/><path style="opacity:1;fill:#cdd0e5;fill-opacity:1;stroke:none;stroke-linecap:round;stroke-linejoin:round" d="M1 622.025v.995c0 .831.669 1.5 1.5 1.5h11c.831 0 1.5-.669 1.5-1.5v-.995c0 .83-.669 1.5-1.5 1.5h-11c-.831 0-1.5-.67-1.5-1.5z"/></g></svg>
