<!-- This Source Code Form is subject to the terms of the Mozilla Public
   - License, v. 2.0. If a copy of the MPL was not distributed with this
   - file, You can obtain one at http://mozilla.org/MPL/2.0/. -->
<svg xmlns="http://www.w3.org/2000/svg" xmlns:xlink="http://www.w3.org/1999/xlink" width="32" height="32">
  <defs>
    <linearGradient id="b">
      <stop offset="0" style="stop-color:#d7d7db;stop-opacity:1"/>
      <stop offset=".5" style="stop-color:#fff;stop-opacity:1"/>
      <stop offset="1" style="stop-color:#d7d7db;stop-opacity:1"/>
    </linearGradient>
    <linearGradient id="a">
      <stop offset="0" style="stop-color:#d70022;stop-opacity:1"/>
      <stop offset="1" style="stop-color:#ff555f;stop-opacity:1"/>
    </linearGradient>
    <linearGradient xlink:href="#a" id="c" x1="8.5" x2="8.5" y1="615.52" y2="611.52" gradientUnits="userSpaceOnUse"/>
    <linearGradient xlink:href="#b" id="d" x1="8" x2="8" y1="4" y2="6" gradientUnits="userSpaceOnUse"/>
  </defs>
  <g style="stroke-width:.5" transform="matrix(2 0 0 2 0 -1221.04)">
    <rect width="14" height="14" x="1" y="611.52" rx="3" ry="3" style="fill:#f9f9fa;fill-opacity:1;stroke:none;stroke-width:.5"/>
    <path d="M1 11v1c0 1.662 1.338 3 3 3h8c1.662 0 3-1.338 3-3v-1c0 1.662-1.338 3-3 3H4c-1.662 0-3-1.338-3-3Z" style="opacity:.15;fill:#000;fill-opacity:1;stroke:none;stroke-width:.25" transform="translate(0 610.52)"/>
    <path d="M4 611.52h8c1.662 0 3 1.338 3 3v1H1v-1c0-1.662 1.338-3 3-3z" style="fill:url(#c);fill-opacity:1;stroke-width:.5"/>
    <path d="M1 615.77h14" style="opacity:.15;fill:none;stroke:#000;stroke-width:.5px;stroke-linecap:butt;stroke-linejoin:miter;stroke-opacity:1"/>
    <path d="M4.5 3.5c-.545 0-1 .455-1 1v1c0 .545.455 1 1 1 .545 0 1-.455 1-1v-1c0-.545-.455-1-1-1zm7 0c-.545 0-1 .455-1 1v1c0 .545.455 1 1 1 .545 0 1-.455 1-1v-1c0-.545-.455-1-1-1z" style="color:#000;fill:#000;stroke-linecap:round;stroke-linejoin:round;-inkscape-stroke:none;opacity:.15" transform="translate(0 610.52)"/>
    <path d="M4.5 4c-.277 0-.5.223-.5.5v1a.499.499 0 1 0 1 0v-1c0-.277-.223-.5-.5-.5Zm7 0c-.277 0-.5.223-.5.5v1a.499.499 0 1 0 1 0v-1c0-.277-.223-.5-.5-.5Z" style="opacity:1;fill:url(#d);fill-opacity:1;stroke:none;stroke-width:.5;stroke-linecap:round;stroke-linejoin:round;stop-color:#000" transform="translate(0 610.52)"/>
    <path d="M3.475 618.02a.5.5 0 0 0 .025 1h1a.499.499 0 1 0 0-1H3.475zm4 0a.5.5 0 0 0 .025 1h1a.499.499 0 1 0 0-1H7.475zm4 0a.5.5 0 0 0 .025 1h1a.499.499 0 1 0 0-1h-1.025zm-8 2a.5.5 0 0 0 .025 1h1a.499.499 0 1 0 0-1H3.475zm4 0a.5.5 0 0 0 .025 1h1a.499.499 0 1 0 0-1H7.475zm4 0a.5.5 0 0 0 .025 1h1a.499.499 0 1 0 0-1h-1.025zm-8 2a.5.5 0 0 0 .025 1h1a.499.499 0 1 0 0-1H3.475zm4 0a.5.5 0 0 0 .025 1h1a.499.499 0 1 0 0-1H7.475zm4 0a.5.5 0 0 0 .025 1h1a.499.499 0 1 0 0-1h-1.025z" style="opacity:.15;fill:#0c0c0d;stroke:none;stroke-width:.5;stroke-linecap:round;stroke-linejoin:round;stop-color:#000"/>
  </g>
</svg>
