<!-- This Source Code Form is subject to the terms of the Mozilla Public
   - License, v. 2.0. If a copy of the MPL was not distributed with this
   - file, You can obtain one at http://mozilla.org/MPL/2.0/. -->
<svg width="48" height="48" xmlns:xlink="http://www.w3.org/1999/xlink" xmlns="http://www.w3.org/2000/svg"><defs><linearGradient id="a"><stop style="stop-color:#6e6f9b;stop-opacity:1" offset="0"/><stop style="stop-color:#9b9ec2;stop-opacity:1" offset="1"/></linearGradient><linearGradient xlink:href="#a" id="b" x1="24.025" y1="658.923" x2="24.025" y2="607.664" gradientUnits="userSpaceOnUse" gradientTransform="translate(4.34 114.617) scale(.81937)"/></defs><path style="opacity:1;fill:url(#b);stroke-width:4;stroke-linecap:round;stroke-linejoin:round;stop-color:#000" d="M22 612.52c-1.108 0-2 .892-2 2v2.502a18.026 18.026 0 0 0-4.785 1.85l-1.676-1.677a1.995 1.995 0 0 0-2.828 0l-3.535 3.536a1.995 1.995 0 0 0 0 2.828l1.53 1.529a18.026 18.026 0 0 0-2.097 4.932H4.5c-1.108 0-2 .892-2 2v5c0 1.108.892 2 2 2h2.1a18.026 18.026 0 0 0 2.086 4.95l-1.51 1.51a1.995 1.995 0 0 0 0 2.829l3.535 3.535a1.995 1.995 0 0 0 2.828 0l1.64-1.64A18.026 18.026 0 0 0 20 652.07v2.45c0 1.108.892 2 2 2h5c1.108 0 2-.892 2-2v-2.655a18.026 18.026 0 0 0 4.484-1.998l1.977 1.977a1.995 1.995 0 0 0 2.828 0l3.535-3.535a1.995 1.995 0 0 0 0-2.828l-2.123-2.123a18.026 18.026 0 0 0 1.752-4.338H44.5c1.108 0 2-.892 2-2v-5c0-1.108-.892-2-2-2h-3.03a18.026 18.026 0 0 0-1.76-4.348l2.114-2.113a1.995 1.995 0 0 0 0-2.828l-3.535-3.536a1.995 1.995 0 0 0-2.828 0l-1.996 1.997a18.026 18.026 0 0 0-4.465-1.97v-2.702c0-1.108-.892-2-2-2h-5zm2 13a8 8 0 0 1 8 8 8 8 0 0 1-8 8 8 8 0 0 1-8-8 8 8 0 0 1 8-8z" transform="translate(0 -610.52)"/><path style="opacity:1;fill:#52507c;stroke-width:4;stroke-linecap:round;stroke-linejoin:round;stop-color:#000" d="M6.865 621.145a1.99 1.99 0 0 0 .31 2.414l1.53 1.529c.21-.449.437-.888.682-1.318l-2.211-2.211a1.998 1.998 0 0 1-.31-.414zm35.27 0a1.998 1.998 0 0 1-.31.414l-2.764 2.763c.235.441.452.891.65 1.35l2.113-2.113a1.99 1.99 0 0 0 .31-2.414zM24 624.52a8 8 0 0 0-8 8 8 8 0 0 0 .035.5 8 8 0 0 1 7.965-7.5 8 8 0 0 1 7.973 7.623 8 8 0 0 0 .027-.623 8 8 0 0 0-8-8zm-21.5 10.5v2c0 1.108.892 2 2 2h2.1c.207 1.227 1.166 3.504 2.086 4.95l.677-.677c-.938-1.537-2.32-4.528-2.763-6.273H4.5c-1.108 0-2-.892-2-2zm44 0c0 1.108-.892 2-2 2h-3.047c-.393 1.516-1.632 4.323-2.402 5.687l.65.65c.818-1.513 1.329-2.732 1.752-4.337H44.5c1.108 0 2-.892 2-2v-2zM6.865 645.895a1.99 1.99 0 0 0 .31 2.414l3.536 3.535a1.995 1.995 0 0 0 2.828 0l1.64-1.64c1.51.85 3.133 1.479 4.821 1.866v-2a18.026 18.026 0 0 1-4.82-1.867l-1.64 1.64a1.995 1.995 0 0 1-2.83 0l-3.534-3.534a1.998 1.998 0 0 1-.31-.414zm35.27 0a1.998 1.998 0 0 1-.31.414l-3.536 3.535a1.995 1.995 0 0 1-2.828 0l-1.977-1.977A18.026 18.026 0 0 1 29 649.865v2a18.026 18.026 0 0 0 4.484-1.998l1.977 1.977a1.995 1.995 0 0 0 2.828 0l3.535-3.535a1.99 1.99 0 0 0 .31-2.414zM20 652.52v2c0 1.108.892 2 2 2h5c1.108 0 2-.892 2-2v-2c0 1.108-.892 2-2 2h-5c-1.108 0-2-.892-2-2z" transform="translate(0 -610.52)"/></svg>
