<!-- This Source Code Form is subject to the terms of the Mozilla Public
   - License, v. 2.0. If a copy of the MPL was not distributed with this
   - file, You can obtain one at http://mozilla.org/MPL/2.0/. -->
<svg xmlns="http://www.w3.org/2000/svg" xmlns:xlink="http://www.w3.org/1999/xlink" width="32" height="32">
  <defs>
    <linearGradient id="a">
      <stop offset="0" style="stop-color:#abacc0;stop-opacity:1"/>
      <stop offset="1" style="stop-color:#c0c2d6;stop-opacity:1"/>
    </linearGradient>
    <linearGradient xlink:href="#a" id="b" x1="8" x2="8" y1="16" y2="0" gradientUnits="userSpaceOnUse"/>
  </defs>
  <path d="M7.5 0C6.678 0 6 .678 6 1.5v.943A5.957 5.957 0 0 0 4.197 3.49l-.822-.474a1.51 1.51 0 0 0-2.05.548l-.5.868a1.508 1.508 0 0 0 .55 2.048l.766.442c-.068.355-.138.712-.141 1.074a.5.5 0 0 0 0 .008c.003.36.073.714.14 1.066l-.765.442a1.508 1.508 0 0 0-.55 2.049l.5.867a1.51 1.51 0 0 0 2.05.549l.816-.471A5.955 5.955 0 0 0 6 13.556v.936c0 .823.678 1.5 1.5 1.5h1c.822 0 1.5-.677 1.5-1.5v-.935a5.955 5.955 0 0 0 1.809-1.051l.816.47a1.51 1.51 0 0 0 2.05-.548l.5-.867a1.508 1.508 0 0 0-.55-2.05l-.766-.44c.068-.353.138-.708.141-1.067A.51.51 0 0 0 14 8c0-.365-.069-.724-.135-1.082l.76-.438c.712-.41.962-1.336.55-2.048l-.5-.868a1.51 1.51 0 0 0-2.05-.548l-.813.468A5.95 5.95 0 0 0 10 2.438V1.5C10 .678 9.322 0 8.5 0ZM8 6a2 2 0 0 1 2 2 2 2 0 0 1-2 2 2 2 0 0 1-2-2 2 2 0 0 1 2-2Z" style="color:#000;fill:url(#b);fill-opacity:1;stroke-linecap:round;stroke-linejoin:round;-inkscape-stroke:none" transform="scale(2)"/>
  <path d="M.713 4.676a1.51 1.51 0 0 0 .662 1.804l.633.366c.017-.311.074-.618.133-.924l-.766-.442a1.493 1.493 0 0 1-.662-.804Zm14.574 0c-.115.328-.34.619-.662.804l-.76.438c.057.307.114.614.13.926l.63-.364a1.51 1.51 0 0 0 .662-1.804ZM8 5a2 2 0 0 0-2 2 2 2 0 0 0 .066.5A2 2 0 0 1 8 6a2 2 0 0 1 1.934 1.5A2 2 0 0 0 10 7a2 2 0 0 0-2-2Zm5.96 2.482c-.026.197-.063.393-.1.588l.132.076c.003-.047.008-.095.008-.142a3.794 3.794 0 0 0-.04-.521zm-11.919.016A3.8 3.8 0 0 0 2 8.004c0 .047.005.095.008.142l.133-.076a11.97 11.97 0 0 1-.1-.572ZM.713 10.316c-.14.4-.114.854.111 1.245l.5.867a1.51 1.51 0 0 0 2.051.549l.816-.471A5.955 5.955 0 0 0 6 13.556v.936c0 .823.678 1.5 1.5 1.5h1c.822 0 1.5-.677 1.5-1.5v-.935a5.955 5.955 0 0 0 1.809-1.051l.816.47a1.51 1.51 0 0 0 2.05-.548l.5-.867c.226-.391.252-.846.112-1.245-.03.084-.066.166-.111.245l-.5.867a1.51 1.51 0 0 1-2.051.549l-.816-.471A5.955 5.955 0 0 1 10 12.556v.936c0 .823-.678 1.5-1.5 1.5h-1c-.822 0-1.5-.677-1.5-1.5v-.935a5.955 5.955 0 0 1-1.809-1.051l-.816.47a1.51 1.51 0 0 1-2.05-.548l-.5-.867a1.472 1.472 0 0 1-.112-.245z" style="color:#000;opacity:.15;fill:#000;fill-opacity:1;stroke-linecap:round;stroke-linejoin:round;-inkscape-stroke:none" transform="scale(2)"/>
</svg>
