<!-- This Source Code Form is subject to the terms of the Mozilla Public
   - License, v. 2.0. If a copy of the MPL was not distributed with this
   - file, You can obtain one at http://mozilla.org/MPL/2.0/. -->
<svg width="48" height="48" xmlns:xlink="http://www.w3.org/1999/xlink" xmlns="http://www.w3.org/2000/svg"><defs><linearGradient id="c"><stop style="stop-color:#a1a1aa;stop-opacity:1" offset="0"/><stop style="stop-color:#f4f4f5;stop-opacity:1" offset=".5"/><stop style="stop-color:#a1a1aa;stop-opacity:1" offset="1"/></linearGradient><linearGradient id="b"><stop style="stop-color:#e4e4e7;stop-opacity:1" offset="0"/><stop style="stop-color:#fafafa;stop-opacity:1" offset="1"/></linearGradient><linearGradient id="a"><stop style="stop-color:#b91c1c;stop-opacity:1" offset="0"/><stop style="stop-color:#f87171;stop-opacity:1" offset="1"/></linearGradient><linearGradient xlink:href="#a" id="e" x1="24" y1="625.52" x2="24" y2="614.52" gradientUnits="userSpaceOnUse"/><linearGradient xlink:href="#b" id="d" x1="24" y1="652.52" x2="24" y2="614.52" gradientUnits="userSpaceOnUse"/><linearGradient xlink:href="#c" id="f" x1="13.5" y1="620.52" x2="13.5" y2="629.52" gradientUnits="userSpaceOnUse"/></defs><g transform="translate(0 -610.52)"><rect style="fill:url(#d);stroke:none;stroke-width:2;stroke-linecap:round;stroke-linejoin:round;stop-color:#000;fill-opacity:1" width="40" height="40" x="4" y="614.52" rx="9" ry="9"/><path style="fill:#d4d4d8;stroke:none;stroke-width:2;stroke-linecap:round;stroke-linejoin:round;stop-color:#000" d="M4 643.52v2c0 4.986 4.014 9 9 9h22c4.986 0 9-4.014 9-9v-2c0 4.986-4.014 9-9 9H13a8.98 8.98 0 0 1-9-9z"/><path style="fill:url(#e);stroke-width:2;stroke-linecap:round;stroke-linejoin:round;stop-color:#000;fill-opacity:1" d="M13 614.52h22c4.986 0 9 4.014 9 9v2H4v-2c0-4.986 4.014-9 9-9z"/><rect style="opacity:1;fill:#991b1b;fill-opacity:1;stroke:none;stroke-width:2;stroke-linecap:round;stroke-linejoin:round;stop-color:#000" width="40" height="1" x="4" y="624.52" rx="0" ry="0"/><path style="opacity:1;fill:#991b1b;fill-opacity:1;stroke:none;stroke-width:2;stroke-linecap:round;stroke-linejoin:round;stop-color:#000" d="M13.5 619.52c-.831 0-1.5.669-1.5 1.5v6c0 .83.669 1.5 1.5 1.5s1.5-.67 1.5-1.5v-6c0-.831-.669-1.5-1.5-1.5zm21 0c-.831 0-1.5.669-1.5 1.5v6c0 .83.669 1.5 1.5 1.5s1.5-.67 1.5-1.5v-6c0-.831-.669-1.5-1.5-1.5z"/><path style="opacity:1;fill:#e4e4e7;fill-opacity:1;stroke:none;stroke-width:2;stroke-linecap:round;stroke-linejoin:round;stop-color:#000" d="M13.5 625.52a2.5 2.5 0 0 0-2.5 2.5 2.5 2.5 0 0 0 2.5 2.5 2.5 2.5 0 0 0 2.5-2.5 2.5 2.5 0 0 0-2.5-2.5zm21 0a2.5 2.5 0 0 0-2.5 2.5 2.5 2.5 0 0 0 2.5 2.5 2.5 2.5 0 0 0 2.5-2.5 2.5 2.5 0 0 0-2.5-2.5z"/><path style="opacity:1;fill:url(#f);fill-opacity:1;stroke:none;stroke-width:2;stroke-linecap:round;stroke-linejoin:round;stop-color:#000" d="M13.5 620.52c-.831 0-1.5.669-1.5 1.5v6c0 .83.669 1.5 1.5 1.5s1.5-.67 1.5-1.5v-6c0-.831-.669-1.5-1.5-1.5zm21 0c-.831 0-1.5.669-1.5 1.5v6c0 .83.669 1.5 1.5 1.5s1.5-.67 1.5-1.5v-6c0-.831-.669-1.5-1.5-1.5z"/><path style="opacity:.1;fill:#000;fill-opacity:1;stroke:none;stroke-width:2;stroke-linecap:round;stroke-linejoin:round;stop-color:#000" d="M9 631.52c-.554 0-1 .446-1 1v3c0 .554.446 1 1 1h7c.554 0 1-.446 1-1v-3c0-.554-.446-1-1-1H9zm23 0c-.554 0-1 .446-1 1v3c0 .554.446 1 1 1h7c.554 0 1-.446 1-1v-3c0-.554-.446-1-1-1h-7zm-12 6c-.554 0-1 .446-1 1v3c0 .554.446 1 1 1h8c.554 0 1-.446 1-1v-3c0-.554-.446-1-1-1h-8zm-11 6c-.554 0-1 .446-1 1v3c0 .554.446 1 1 1h7c.554 0 1-.446 1-1v-3c0-.554-.446-1-1-1H9zm23 0c-.554 0-1 .446-1 1v3c0 .554.446 1 1 1h7c.554 0 1-.446 1-1v-3c0-.554-.446-1-1-1h-7z"/><path style="opacity:.05;fill:#000;fill-opacity:1;stroke:none;stroke-width:2;stroke-linecap:round;stroke-linejoin:round;stop-color:#000" d="M20 631.52c-.554 0-1 .446-1 1v3c0 .554.446 1 1 1h8c.554 0 1-.446 1-1v-3c0-.554-.446-1-1-1h-8zm-11 6c-.554 0-1 .446-1 1v3c0 .554.446 1 1 1h7c.554 0 1-.446 1-1v-3c0-.554-.446-1-1-1H9zm23 0c-.554 0-1 .446-1 1v3c0 .554.446 1 1 1h7c.554 0 1-.446 1-1v-3c0-.554-.446-1-1-1h-7zm-12 6c-.554 0-1 .446-1 1v3c0 .554.446 1 1 1h8c.554 0 1-.446 1-1v-3c0-.554-.446-1-1-1h-8z"/></g></svg>
