<!-- This Source Code Form is subject to the terms of the Mozilla Public
   - License, v. 2.0. If a copy of the MPL was not distributed with this
   - file, You can obtain one at http://mozilla.org/MPL/2.0/. -->
<svg width="48" height="48" xmlns:xlink="http://www.w3.org/1999/xlink" xmlns="http://www.w3.org/2000/svg"><defs><linearGradient id="c"><stop style="stop-color:#fff;stop-opacity:1" offset="0"/><stop style="stop-color:#fff;stop-opacity:0" offset="1"/></linearGradient><linearGradient id="b"><stop style="stop-color:#cdd0e5;stop-opacity:1" offset="0"/><stop style="stop-color:#e3e5f2;stop-opacity:1" offset="1"/></linearGradient><linearGradient id="a"><stop style="stop-color:#96764b;stop-opacity:1" offset="0"/><stop style="stop-color:#b6986c;stop-opacity:1" offset="1"/></linearGradient><linearGradient xlink:href="#a" id="e" x1="42" y1="655.52" x2="42" y2="638.52" gradientUnits="userSpaceOnUse"/><linearGradient xlink:href="#b" id="d" x1="18" y1="642.52" x2="18" y2="612.52" gradientUnits="userSpaceOnUse"/><radialGradient xlink:href="#c" id="f" cx="14" cy="622.52" fx="14" fy="622.52" r="4" gradientUnits="userSpaceOnUse"/></defs><g transform="translate(0 -610.52)"><circle style="opacity:.5;fill:#ddeefe;stroke:none;stroke-width:4;stroke-linecap:round;stroke-linejoin:round;stop-color:#000" cx="18" cy="628.52" r="14"/><path style="color:#000;fill:url(#d);stroke-linecap:round;stroke-linejoin:round;fill-opacity:1" d="M18 612.52c-8.813 0-16 7.187-16 16 0 8.813 7.187 16 16 16 3.688 0 7.088-1.264 9.799-3.373l2.787 2.787a2 2 0 0 0 2.828 0 2 2 0 0 0 0-2.828l-2.787-2.788A15.907 15.907 0 0 0 34 628.52c0-8.813-7.187-16-16-16zm0 4c6.651 0 12 5.349 12 12 0 6.65-5.349 12-12 12s-12-5.35-12-12c0-6.651 5.349-12 12-12z"/><path style="color:#000;fill:#cdd0e5;stroke-linecap:round;stroke-linejoin:round" d="M18 614.52a11.97 11.97 0 0 0-11.955 13c.505-6.179 5.641-11 11.955-11s11.45 4.821 11.955 11a11.97 11.97 0 0 0-11.955-13z"/><path style="color:#000;fill:#9b9ec2;stroke-linecap:round;stroke-linejoin:round;opacity:.3" d="M33.965 627.516c-.206 3.302-2.248 7.51-4.166 9.974l.828.828C32.25 636.295 34 633.051 34 628.52c0-.338-.014-.672-.035-1.004zm-31.93.004c-.02.33-.035.663-.035 1 0 8.812 7.187 16 16 16 3.688 0 7.088-1.264 9.799-3.373l2.787 2.787a2 2 0 0 0 3.146-2.414 2 2 0 0 1-3.146.414l-2.787-2.787A15.907 15.907 0 0 1 18 642.52c-8.477 0-15.445-6.651-15.965-15z"/><path style="color:#000;fill:url(#e);stroke-linecap:round;stroke-linejoin:round;fill-opacity:1" d="M32 638.52a4 4 0 0 0-2.828 1.171 4 4 0 0 0 0 5.657l11 11a4 4 0 0 0 5.656 0 4 4 0 0 0 0-5.657l-11-11A4 4 0 0 0 32 638.52Z"/><path style="color:#000;fill:#755b38;stroke-linecap:round;stroke-linejoin:round" d="M28.152 641.52a4 4 0 0 0 1.02 3.828l11 11a4 4 0 0 0 5.656 0 4 4 0 0 0 1.043-3.828 4 4 0 0 1-1.043 1.828 4 4 0 0 1-5.656 0l-11-11a4 4 0 0 1-1.02-1.828z"/><circle style="opacity:.5;fill:url(#f);stroke:none;stroke-width:8;stroke-linecap:round;stroke-linejoin:round;stop-color:#000;fill-opacity:1" cx="14" cy="622.52" r="4"/></g></svg>
