<!-- This Source Code Form is subject to the terms of the Mozilla Public
   - License, v. 2.0. If a copy of the MPL was not distributed with this
   - file, You can obtain one at http://mozilla.org/MPL/2.0/. -->
<svg xmlns="http://www.w3.org/2000/svg" width="32" height="32">
  <g style="stroke-width:.5" transform="matrix(2 0 0 2 0 -1221.04)">
    <circle cx="6" cy="616.52" r="3.5" style="font-variation-settings:'wght' 700;opacity:.1;fill:#ededf0;stroke-width:1;stroke-linecap:round;stroke-linejoin:bevel;stroke-dasharray:none;stop-color:#000"/>
    <path d="M6 611.52c-2.77 0-5 2.23-5 5s2.23 5 5 5 5-2.23 5-5-2.23-5-5-5zm0 1.5a3.5 3.5 0 0 1 3.5 3.5 3.5 3.5 0 0 1-3.5 3.5 3.5 3.5 0 0 1-3.5-3.5 3.5 3.5 0 0 1 3.5-3.5z" style="font-variation-settings:'wght' 700;fill:#abacc0;stroke-width:1;stroke-linecap:round;stroke-linejoin:round;stop-color:#000"/>
    <path d="M1.025 616.02A4.99 4.99 0 0 0 6 621.52a4.99 4.99 0 0 0 4.975-5.5A4.988 4.988 0 0 1 6 620.52a4.988 4.988 0 0 1-4.975-4.5z" style="font-variation-settings:'wght' 700;opacity:.15;fill:#000;fill-opacity:1;stroke-width:1;stroke-linecap:round;stroke-linejoin:round;stop-color:#000"/>
    <path d="M6 612.52a3.5 3.5 0 0 0-3.5 3.5 3.5 3.5 0 0 0 .014.25A3.5 3.5 0 0 1 6 613.02a3.5 3.5 0 0 1 3.488 3.221 3.5 3.5 0 0 0 .012-.221 3.5 3.5 0 0 0-3.5-3.5z" style="font-variation-settings:'wght' 700;opacity:.15;fill:#000;stroke-width:1;stroke-linecap:round;stroke-linejoin:bevel;stroke-dasharray:none;stop-color:#000;fill-opacity:1"/>
    <path d="M9.25 619.77a1 1 0 0 0 0 1.414l4.043 4.043a1 1 0 0 0 1.414-1.414l-4.043-4.043a1 1 0 0 0-1.414 0z" style="color:#000;fill:#96764b;stroke-width:.5;stroke-linecap:round;stroke-linejoin:bevel"/>
    <path d="M9.092 619.975a1 1 0 0 0 .158 1.207l4.043 4.045a1 1 0 0 0 1.572-1.207 1 1 0 0 1-1.572.207l-4.043-4.045a1 1 0 0 1-.158-.207z" style="color:#000;opacity:.15;fill:#000;fill-opacity:1;stroke-width:.25;stroke-linecap:round;stroke-linejoin:bevel"/>
  </g>
</svg>
