<!-- This Source Code Form is subject to the terms of the Mozilla Public
   - License, v. 2.0. If a copy of the MPL was not distributed with this
   - file, You can obtain one at http://mozilla.org/MPL/2.0/. -->
<svg width="48" height="48" xmlns:xlink="http://www.w3.org/1999/xlink" xmlns="http://www.w3.org/2000/svg"><defs><linearGradient id="a"><stop style="stop-color:#2493ef;stop-opacity:1" offset="0"/><stop style="stop-color:#4cb1f9;stop-opacity:1" offset="1"/></linearGradient><linearGradient xlink:href="#a" id="b" x1="24.025" y1="654.52" x2="24.025" y2="612.546" gradientUnits="userSpaceOnUse"/></defs><path style="opacity:1;fill:url(#b);stroke-width:4;stroke-linecap:round;stroke-linejoin:round;stop-color:#000" d="M46.026 634.546a22 22 0 0 1-22 22 22 22 0 0 1-22-22 22 22 0 0 1 22-22 22 22 0 0 1 22 22z" transform="translate(0 -610.52)"/><path style="opacity:1;fill:#105bbc;stroke-width:4;stroke-linecap:round;stroke-linejoin:round;stop-color:#000" d="M24 616.52a18 18 0 0 0-18 18 18 18 0 0 0 18 18 18 18 0 0 0 18-18 18 18 0 0 0-18-18zm0 2a16 16 0 0 1 16 16 16 16 0 0 1-16 16 16 16 0 0 1-16-16 16 16 0 0 1 16-16zm0 6c-1.108 0-2 .892-2 2s.892 2 2 2 2-.892 2-2-.892-2-2-2zm0 6c-1.108 0-2 .892-2 2v9c0 1.108.892 2 2 2s2-.892 2-2v-9c0-1.108-.892-2-2-2zm21.979 2.658a22 22 0 0 1-21.954 21.342A22 22 0 0 1 2.098 633.53a22 22 0 0 0-.073 1.014 22 22 0 0 0 22 22 22 22 0 0 0 22-22 22 22 0 0 0-.046-1.367z" transform="translate(0 -610.52)"/><path style="opacity:1;fill:#f1f3fa;stroke-width:4;stroke-linecap:round;stroke-linejoin:round;stop-color:#000" d="M24 615.52a18 18 0 0 0-18 18 18 18 0 0 0 18 18 18 18 0 0 0 18-18 18 18 0 0 0-18-18zm0 2a16 16 0 0 1 16 16 16 16 0 0 1-16 16 16 16 0 0 1-16-16 16 16 0 0 1 16-16zm0 6c-1.108 0-2 .892-2 2s.892 2 2 2 2-.892 2-2-.892-2-2-2zm0 6c-1.108 0-2 .892-2 2v9c0 1.108.892 2 2 2s2-.892 2-2v-9c0-1.108-.892-2-2-2z" transform="translate(0 -610.52)"/></svg>
