<!-- This Source Code Form is subject to the terms of the Mozilla Public
   - License, v. 2.0. If a copy of the MPL was not distributed with this
   - file, You can obtain one at http://mozilla.org/MPL/2.0/. -->
<svg width="48" height="48" xmlns:xlink="http://www.w3.org/1999/xlink" xmlns="http://www.w3.org/2000/svg"><defs><linearGradient id="b"><stop style="stop-color:#e3e5f2;stop-opacity:1" offset="0"/><stop style="stop-color:#f1f3fa;stop-opacity:1" offset="1"/></linearGradient><linearGradient id="a"><stop style="stop-color:#1373d9;stop-opacity:1" offset="0"/><stop style="stop-color:#4cb1f9;stop-opacity:1" offset="1"/></linearGradient><linearGradient xlink:href="#a" id="d" x1="28.08" y1="646.515" x2="28.08" y2="619.52" gradientUnits="userSpaceOnUse"/><linearGradient xlink:href="#b" id="c" x1="28.163" y1="649.498" x2="27.742" y2="617.525" gradientUnits="userSpaceOnUse"/></defs><path style="color:#000;fill:url(#c);stroke-linecap:round;stroke-linejoin:round;-inkscape-stroke:none;fill-opacity:1" d="M27.742 617.525a6.004 6.004 0 0 0-4.164 1.938 3 3 0 0 0 0 .002c-2.215 2.416-2.048 6.261.367 8.476l.631.579H8c-3.278 0-6 2.721-6 6 0 3.278 2.722 6 6 6h16.576l-.63.578c-2.416 2.215-2.583 6.06-.368 8.476 2.216 2.416 6.06 2.582 8.477.367l12-11c2.558-2.346 2.558-6.497 0-8.843l-12-11a3 3 0 0 0 0-.002 6.004 6.004 0 0 0-4.313-1.57z" transform="translate(0 -610.52)"/><path style="color:#000;fill:url(#d);stroke-linecap:round;stroke-linejoin:round;-inkscape-stroke:none;fill-opacity:1" d="M27.871 619.522a3 3 0 0 0-2.082.97 3 3 0 0 0 .184 4.237l6.314 5.79H8a3 3 0 0 0-3 3 3 3 0 0 0 3 3h24.287l-6.314 5.789a3 3 0 0 0-.184 4.238 3 3 0 0 0 4.238.183l12-11a3 3 0 0 0 0-4.421l-12-11a3 3 0 0 0-2.156-.786z" transform="translate(0 -610.52)"/><path style="color:#000;fill:#124c9a;stroke-linecap:round;stroke-linejoin:round;-inkscape-stroke:none" d="M25.057 622.042a3 3 0 0 0 .916 2.687l6.314 5.79h1.094l-7.408-6.791a3 3 0 0 1-.916-1.686zM5.078 633.019a3 3 0 0 0-.078.5 3 3 0 0 0 3 3h24.287l1.094-1.002H8a3 3 0 0 1-2.922-2.498zm37.875 0a3 3 0 0 1-.926 1.709l-12 11a3 3 0 0 1-4.238-.184 3 3 0 0 1-.732-1.55 3 3 0 0 0 .732 2.552 3 3 0 0 0 4.238.183l12-11a3 3 0 0 0 .926-2.71z" transform="translate(0 -610.52)"/><path style="color:#000;fill:#cdd0e5;stroke-linecap:round;stroke-linejoin:round;-inkscape-stroke:none" d="M22.107 622.508c-.227 1.365-.195 3.836 2.47 6.012h1.763l-.631-.579c-2.397-2.099-3.391-4.153-3.602-5.433zM2.092 633.52c-.057.326-.092.659-.092 1 0 3.278 2.722 6 6 6h16.576c.296-.519.673-1 1.133-1.422l.63-.578H8c-2.937 0-5.422-2.188-5.908-5zm43.793 0a5.918 5.918 0 0 1-1.83 3.422l-12 11c-2.416 2.215-6.261 2.048-8.477-.368a5.92 5.92 0 0 1-1.47-3.043c-.29 1.765.187 3.643 1.47 5.043 2.216 2.416 6.06 2.583 8.477.368l12-11c1.543-1.416 2.148-3.486 1.83-5.422z" transform="translate(0 -610.52)"/></svg>
