<!-- This Source Code Form is subject to the terms of the Mozilla Public
   - License, v. 2.0. If a copy of the MPL was not distributed with this
   - file, You can obtain one at http://mozilla.org/MPL/2.0/. -->
<svg width="48" height="48" xmlns:xlink="http://www.w3.org/1999/xlink" xmlns="http://www.w3.org/2000/svg"><defs><linearGradient id="a"><stop style="stop-color:#2493ef;stop-opacity:1" offset="0"/><stop style="stop-color:#4cb1f9;stop-opacity:1" offset="1"/></linearGradient><linearGradient xlink:href="#a" id="b" x1="24.025" y1="654.52" x2="24.025" y2="612.546" gradientUnits="userSpaceOnUse"/></defs><path style="opacity:1;fill:url(#b);stroke-width:4;stroke-linecap:round;stroke-linejoin:round;stop-color:#000" d="M46.026 634.546a22 22 0 0 1-22 22 22 22 0 0 1-22-22 22 22 0 0 1 22-22 22 22 0 0 1 22 22z" transform="translate(0 -610.52)"/><path style="opacity:1;fill:#105bbc;stroke-width:4;stroke-linecap:round;stroke-linejoin:round;stop-color:#000" d="M24 616.52c-9.941 0-18 8.059-18 18 0 9.94 8.059 18 18 18s18-8.06 18-18c0-9.941-8.059-18-18-18zm0 2c8.837 0 16 7.163 16 16 0 8.836-7.163 16-16 16s-16-7.164-16-16c0-8.837 7.163-16 16-16zm0 6c-1.746 0-3.418.463-4.748 1.476-1.33 1.014-2.252 2.68-2.252 4.524a2 2 0 0 0 2 2 2 2 0 0 0 2-2c0-.642.196-.977.676-1.342.48-.365 1.309-.658 2.324-.658 1.789 0 3 1.215 3 2.5 0 1.284-1.211 2.5-3 2.5h-.082c-1.063 0-1.918.892-1.918 2v2c0 1.108.855 2 1.918 2h.164c1.063 0 1.918-.892 1.918-2v-.276c2.827-.792 5-3.218 5-6.224 0-3.687-3.266-6.5-7-6.5zm21.979 8.658c-.356 11.874-10.074 21.322-21.954 21.342-11.738-.026-21.388-9.263-21.927-20.989-.032.338-.056.676-.073 1.014 0 12.15 9.85 22 22 22s22-9.85 22-22a21.965 21.965 0 0 0-.046-1.367zM24 641.52a2 2 0 0 0-2 2 2 2 0 0 0 2 2 2 2 0 0 0 2-2 2 2 0 0 0-2-2z" transform="translate(0 -610.52)"/><path style="opacity:1;fill:#f1f3fa;stroke-width:4;stroke-linecap:round;stroke-linejoin:round;stop-color:#000" d="M24 615.52c-9.941 0-18 8.059-18 18 0 9.94 8.059 18 18 18s18-8.06 18-18c0-9.941-8.059-18-18-18zm0 2c8.837 0 16 7.163 16 16 0 8.836-7.163 16-16 16s-16-7.164-16-16c0-8.837 7.163-16 16-16zm0 6c-1.746 0-3.418.463-4.748 1.476-1.33 1.014-2.252 2.68-2.252 4.524a2 2 0 0 0 2 2 2 2 0 0 0 2-2c0-.642.196-.977.676-1.342.48-.365 1.309-.658 2.324-.658 1.789 0 3 1.215 3 2.5 0 1.284-1.211 2.5-3 2.5h-.082c-1.063 0-1.918.892-1.918 2v2c0 1.108.855 2 1.918 2h.164c1.063 0 1.918-.892 1.918-2v-.276c2.827-.792 5-3.218 5-6.224 0-3.687-3.266-6.5-7-6.5zm0 17a2 2 0 0 0-2 2 2 2 0 0 0 2 2 2 2 0 0 0 2-2 2 2 0 0 0-2-2z" transform="translate(0 -610.52)"/></svg>
