<!-- This Source Code Form is subject to the terms of the Mozilla Public
   - License, v. 2.0. If a copy of the MPL was not distributed with this
   - file, You can obtain one at http://mozilla.org/MPL/2.0/. -->
<svg xmlns="http://www.w3.org/2000/svg" width="32" height="32">
  <path d="M14.5 0c-.653 0-1.152.206-1.79.463L1.327 4.855l.051-.015C.623 5.042.006 5.687.006 6.506c0 .85.665 1.441 1.367 1.574l-.086-.025 4.824 1.832 1.81 4.818-.019-.062c.08.343.266.659.534.912A1.56 1.56 0 0 0 9.5 16c.813 0 1.359-.63 1.635-1.24a.473.473 0 0 0 .011-.028L15.56 3.088a.485.485 0 0 0 .007-.024c.152-.466.434-.87.434-1.564 0-.823-.677-1.5-1.5-1.5Z" style="color:#000;fill:#fdfdff;fill-rule:evenodd;stroke-linejoin:round;-inkscape-stroke:none" transform="scale(2)"/>
  <path d="m6.111 9.887 1.81 4.818-.019-.062c.08.343.266.659.534.912A1.56 1.56 0 0 0 9.5 16c.813 0 1.359-.63 1.635-1.24a.473.473 0 0 0 .011-.028L15.56 3.088a.485.485 0 0 0 .007-.024c.152-.466.434-.87.434-1.564 0-.411-.163-.78-.435-1.052C9.065 6.448 9 6.5 6.11 9.887Z" style="color:#000;fill:#f0f2f8;fill-rule:evenodd;stroke-linejoin:round;-inkscape-stroke:none" transform="scale(2)"/>
  <path d="M15.932 1.059c-.093.384-.26.68-.366 1.005a.643.643 0 0 1-.007.024l-4.413 11.644a.455.455 0 0 1-.011.028c-.276.61-.822 1.24-1.635 1.24a1.56 1.56 0 0 1-1.064-.445 1.835 1.835 0 0 1-.514-.85L6.589 9.316 1.307 7.062C.777 6.94.28 6.56.09 6.002a1.58 1.58 0 0 0-.084.504c0 .823.624 1.4 1.3 1.556l-.019-.007.086.025c-.022-.004-.044-.012-.066-.018L6.11 9.887l1.81 4.818c.088.32.263.612.515.85A1.56 1.56 0 0 0 9.5 16c.813 0 1.359-.63 1.635-1.24a.473.473 0 0 0 .011-.028L15.56 3.088a.486.486 0 0 0 .007-.024c.152-.466.434-.87.434-1.564 0-.154-.025-.301-.068-.441ZM1.307 7.063c.022.005.044.013.066.017l-.086-.025Z" style="color:#000;opacity:.3;fill:#6f7681;fill-opacity:1;fill-rule:evenodd;stroke-linejoin:round;-inkscape-stroke:none" transform="scale(2)"/>
  <path d="m5.42 619.327 1.169.509.425 1.416 8.55-10.285z" style="opacity:.5;fill:#cdd0d9;stroke:none;stroke-width:1px;stroke-linecap:butt;stroke-linejoin:miter;stroke-opacity:1" transform="matrix(2 0 0 2 0 -1221.04)"/>
</svg>
