<!-- This Source Code Form is subject to the terms of the Mozilla Public
   - License, v. 2.0. If a copy of the MPL was not distributed with this
   - file, You can obtain one at http://mozilla.org/MPL/2.0/. -->
<svg width="48" height="48" xmlns:xlink="http://www.w3.org/1999/xlink" xmlns="http://www.w3.org/2000/svg"><defs><linearGradient id="c"><stop style="stop-color:#e3e5f2;stop-opacity:1" offset="0"/><stop style="stop-color:#f1f3fa;stop-opacity:1" offset="1"/></linearGradient><linearGradient id="b"><stop style="stop-color:#cdd0e5;stop-opacity:1" offset="0"/><stop style="stop-color:#e3e5f2;stop-opacity:1" offset="1"/></linearGradient><linearGradient id="a"><stop offset="0" style="stop-color:#ffe900;stop-opacity:1"/><stop offset="1" style="stop-color:#fff376;stop-opacity:1"/></linearGradient><linearGradient xlink:href="#b" id="e" x1="18.915" y1="30.545" x2="18.915" y2="13.093" gradientUnits="userSpaceOnUse"/><linearGradient xlink:href="#c" id="d" x1="18.915" y1="32" x2="18.915" y2="0" gradientUnits="userSpaceOnUse"/></defs><g style="stroke-width:.72716"><path d="M29 0c-1.306 0-2.304.412-3.58.926L2.654 9.71l.102-.03c-1.51.404-2.744 1.694-2.744 3.332 0 1.7 1.33 2.882 2.734 3.148l-.172-.05 9.798 3.526 3.47 9.774-.038-.124c.16.686.532 1.318 1.068 1.824A3.12 3.12 0 0 0 19 32c1.626 0 2.718-1.26 3.27-2.48a.967.967 0 0 0 .022-.056L31.12 6.176a.998.998 0 0 0 .014-.048c.304-.932.868-1.74.868-3.128 0-1.646-1.354-3-3-3z" style="color:#000;fill:url(#d);fill-rule:evenodd;stroke-width:1.45431;stroke-linejoin:round;fill-opacity:1" transform="matrix(1.37543 0 0 1.375 1.983 2)"/><path d="m15.842 29.41-.038-.124c.16.686.532 1.318 1.068 1.824A3.12 3.12 0 0 0 19 32c1.626 0 2.718-1.26 3.27-2.48a.967.967 0 0 0 .022-.056L31.12 6.176a.998.998 0 0 0 .014-.048c.304-.932.868-1.74.868-3.128 0-.822-.326-1.56-.87-2.104-.22.195-18.76 18.74-18.76 18.74Z" style="color:#000;fill:url(#e);fill-rule:evenodd;stroke-width:1.45431;stroke-linejoin:round;fill-opacity:1" transform="matrix(1.37543 0 0 1.375 1.983 2)"/><path d="m10.122 17.705 2.977 1.204 1.139 3.76L31.132.896Z" style="opacity:.5;fill:#9b9ec2;stroke:none;stroke-width:1.45431px;stroke-linecap:butt;stroke-linejoin:miter;stroke-opacity:1" transform="matrix(1.37543 0 0 1.375 1.983 2)"/><path style="color:#000;fill:#9b9ec2;fill-rule:evenodd;stroke-width:1.45431;stroke-linejoin:round" d="M31.93 2.357c-.16.922-.556 1.583-.796 2.316a1.01 1.01 0 0 1-.014.049L22.292 28.01a.933.933 0 0 1-.021.055c-.552 1.22-1.645 2.48-3.27 2.48a3.12 3.12 0 0 1-2.13-.89 3.67 3.67 0 0 1-1.044-1.74l-2.728-9.006-10.45-4.226C1.49 14.428.405 13.553.1 12.281a3.165 3.165 0 0 0-.088.73c0 1.661 1.27 2.826 2.637 3.127l-.075-.029.172.052-.097-.023 9.723 3.498 3.455 9.733c-.008-.028-.017-.055-.023-.083l.038.125-.015-.042a3.67 3.67 0 0 0 1.045 1.74A3.12 3.12 0 0 0 19 32c1.626 0 2.719-1.26 3.27-2.48a.93.93 0 0 0 .022-.056L31.12 6.176a.906.906 0 0 0 .014-.048c.304-.932.868-1.74.868-3.128 0-.221-.026-.436-.072-.643zM2.649 14.683c.032.007.064.017.097.023l-.172-.051Zm13.178 13.232.015.041-.038-.125.023.084z" transform="matrix(1.37543 0 0 1.375 1.983 2)"/></g></svg>
