<!-- This Source Code Form is subject to the terms of the Mozilla Public
   - License, v. 2.0. If a copy of the MPL was not distributed with this
   - file, You can obtain one at http://mozilla.org/MPL/2.0/. -->
<svg xmlns="http://www.w3.org/2000/svg" xmlns:xlink="http://www.w3.org/1999/xlink" width="32" height="32">
  <defs>
    <linearGradient id="a">
      <stop offset="0" style="stop-color:#86e972;stop-opacity:1"/>
      <stop offset="1" style="stop-color:#12bc00;stop-opacity:1"/>
    </linearGradient>
    <linearGradient xlink:href="#a" id="b" x1="16" x2="16" y1="610.52" y2="642.52" gradientUnits="userSpaceOnUse"/>
  </defs>
  <g transform="translate(0 -610.52)">
    <circle cx="16" cy="626.52" r="16" style="font-variation-settings:'wght' 700;opacity:1;fill:url(#b);stroke-width:1.00323;stroke-linecap:round;stroke-linejoin:round;stop-color:#000;fill-opacity:1"/>
    <path d="M31.947 625.268A16 16 0 0 1 16 640.52a16 16 0 0 1-15.93-15 16 16 0 0 0-.07 1 16 16 0 0 0 16 16 16 16 0 0 0 16-16 16 16 0 0 0-.053-1.252z" style="font-variation-settings:'wght' 700;opacity:.15;fill:#000;stroke-width:1.00323;stroke-linecap:round;stroke-linejoin:round;stop-color:#000;fill-opacity:1"/>
    <g stroke="none" style="stroke:#000;stroke-opacity:1">
      <path d="M16 617.52a8.987 8.987 0 0 0-6.627 2.91 1 1 0 0 0 .059 1.414 1 1 0 0 0 1.414-.06A6.967 6.967 0 0 1 16 619.52a6.983 6.983 0 0 1 6.986 6.572l-1.279-1.28a1 1 0 0 0-1.414 0 1 1 0 0 0 0 1.415l3 3a1 1 0 0 0 1.414 0l3-3a1 1 0 0 0 0-1.414 1 1 0 0 0-1.414 0l-1.303 1.302c-.212-4.772-4.167-8.595-8.99-8.595Zm-8 6a1 1 0 0 0-.707.293l-3 3a1 1 0 0 0 0 1.414 1 1 0 0 0 1.414 0l1.303-1.303c.212 4.772 4.167 8.596 8.99 8.596a8.988 8.988 0 0 0 6.57-2.85 1 1 0 0 0-.047-1.412 1 1 0 0 0-1.412.045A6.97 6.97 0 0 1 16 633.52a6.983 6.983 0 0 1-6.986-6.573l1.279 1.28a1 1 0 0 0 1.414 0 1 1 0 0 0 0-1.414l-3-3A1 1 0 0 0 8 623.52Z" style="color:#000;opacity:.5;fill:#fff;stroke:none;stroke-linecap:round;stroke-linejoin:round;-inkscape-stroke:none"/>
      <path d="M16 616.52a8.987 8.987 0 0 0-6.627 2.91 1 1 0 0 0 .059 1.414 1 1 0 0 0 1.414-.06A6.967 6.967 0 0 1 16 618.52a6.983 6.983 0 0 1 6.986 6.572l-1.279-1.28a1 1 0 0 0-1.414 0 1 1 0 0 0 0 1.415l3 3a1 1 0 0 0 1.414 0l3-3a1 1 0 0 0 0-1.414 1 1 0 0 0-1.414 0l-1.303 1.302c-.212-4.772-4.167-8.595-8.99-8.595zm-8 6a1 1 0 0 0-.707.293l-3 3a1 1 0 0 0 0 1.414 1 1 0 0 0 1.414 0l1.303-1.303c.212 4.772 4.167 8.596 8.99 8.596a8.988 8.988 0 0 0 6.57-2.85 1 1 0 0 0-.047-1.412 1 1 0 0 0-1.412.045A6.97 6.97 0 0 1 16 632.52a6.983 6.983 0 0 1-6.986-6.573l1.279 1.28a1 1 0 0 0 1.414 0 1 1 0 0 0 0-1.414l-3-3A1 1 0 0 0 8 622.52z" style="color:#000;fill:#003706;stroke:none;stroke-linecap:round;stroke-linejoin:round;-inkscape-stroke:none"/>
    </g>
  </g>
</svg>
