<!-- This Source Code Form is subject to the terms of the Mozilla Public
   - License, v. 2.0. If a copy of the MPL was not distributed with this
   - file, You can obtain one at http://mozilla.org/MPL/2.0/. -->
<svg xmlns="http://www.w3.org/2000/svg" xmlns:xlink="http://www.w3.org/1999/xlink" width="32" height="32">
  <defs>
    <linearGradient id="a">
      <stop offset="0" style="stop-color:#ffbe64;stop-opacity:1"/>
      <stop offset="1" style="stop-color:#ff9400;stop-opacity:1"/>
    </linearGradient>
    <linearGradient xlink:href="#a" id="b" x1="6" x2="6" y1="612.52" y2="624.52" gradientUnits="userSpaceOnUse"/>
  </defs>
  <g style="stroke-width:.5">
    <path d="M6 612.52a1 1 0 0 0-.707.293l-4 4a1 1 0 0 0-.057.074 1 1 0 0 0-.066.086 1 1 0 0 0-.086.17 1 1 0 0 0-.04.093 1 1 0 0 0-.044.284 1 1 0 0 0 .045.279 1 1 0 0 0 .04.102 1 1 0 0 0 .085.166 1 1 0 0 0 .066.085 1 1 0 0 0 .057.075l4 4a1 1 0 0 0 1.414 0 1 1 0 0 0 0-1.414l-2.293-2.293H11c1.125 0 2 .874 2 2 0 1.125-.875 2-2 2h-1a1 1 0 0 0-1 1 1 1 0 0 0 1 1h1c2.199 0 4-1.802 4-4 0-2.2-1.801-4-4-4H4.414l2.293-2.293a1 1 0 0 0 0-1.414A1 1 0 0 0 6 612.52Z" style="color:#000;fill:url(#b);fill-opacity:1;stroke-width:.25;stroke-linecap:round;stroke-linejoin:round" transform="matrix(2 0 0 2 0 -1221.04)"/>
    <path d="M6.865 613.02a1 1 0 0 1-.158.207l-3.293 3.293h1l2.293-2.293a1 1 0 0 0 .158-1.207zm-5.719 4a.995.995 0 0 0-.062.123c-.015.03-.028.062-.04.093a1 1 0 0 0-.044.284 1 1 0 0 0 .045.279.996.996 0 0 0 .04.101c.024.058.052.114.085.166a1 1 0 0 0 .066.086c.018.026.037.05.057.075l4 4a1 1 0 0 0 1.572-1.207 1 1 0 0 1-1.572.207l-4-4a.992.992 0 0 1-.057-.075 1 1 0 0 1-.066-.086.959.959 0 0 1-.024-.046zm2.268.5 1 1H11a1.97 1.97 0 0 1 1.938 1.5 2.1 2.1 0 0 0 .062-.5c0-1.126-.875-2-2-2zm11.553 2.5a4.014 4.014 0 0 1-3.967 3.5h-1a1 1 0 0 1-.854-.5 1 1 0 0 0-.146.5 1 1 0 0 0 1 1h1c2.199 0 4-1.802 4-4 0-.17-.013-.337-.033-.5z" style="color:#000;opacity:.15;fill:#000;fill-opacity:1;stroke-width:.5;stroke-linecap:round;stroke-linejoin:round" transform="matrix(2 0 0 2 0 -1221.04)"/>
  </g>
</svg>
