<!-- This Source Code Form is subject to the terms of the Mozilla Public
   - License, v. 2.0. If a copy of the MPL was not distributed with this
   - file, You can obtain one at http://mozilla.org/MPL/2.0/. -->
<svg width="48" height="48" xmlns:xlink="http://www.w3.org/1999/xlink" xmlns="http://www.w3.org/2000/svg"><defs><linearGradient id="b"><stop style="stop-color:#e3e5f2;stop-opacity:1" offset="0"/><stop style="stop-color:#f1f3fa;stop-opacity:1" offset="1"/></linearGradient><linearGradient id="a"><stop style="stop-color:#f59e0b;stop-opacity:1" offset="0"/><stop style="stop-color:#fbbf24;stop-opacity:1" offset="1"/></linearGradient><linearGradient xlink:href="#a" id="d" x1="20.147" y1="646.514" x2="20.147" y2="619.524" gradientUnits="userSpaceOnUse"/><linearGradient xlink:href="#b" id="c" x1="19.248" y1="649.521" x2="19.248" y2="617.514" gradientUnits="userSpaceOnUse"/></defs><path style="color:#000;fill:url(#c);stroke-linecap:round;stroke-linejoin:round;-inkscape-stroke:none;fill-opacity:1" d="M20.262 617.52a6.004 6.004 0 0 0-4.317 1.57l-12 11c-2.558 2.347-2.558 6.497 0 8.844l12 11c2.416 2.215 6.261 2.048 8.477-.367 2.215-2.417 2.048-6.262-.367-8.477l-.631-.578H27.512c.09 0 .182-.003.273-.008 4.123-.196 6.294 1.238 6.3 1.246.216.249.155.079.15.328-.006.25-.167 1.073-.965 2.492-1.608 2.858-.57 6.565 2.289 8.172 2.857 1.608 6.565.57 8.171-2.289 3.075-5.466 3.333-12.047-.566-16.555-3.709-4.288-9.549-5.653-15.793-5.382l.129-.004h-4.076l.63-.578c2.416-2.216 2.583-6.06.368-8.477a6.004 6.004 0 0 0-4.16-1.937z" transform="translate(0 -610.52)"/><path style="color:#000;fill:url(#d);stroke-linecap:round;stroke-linejoin:round;-inkscape-stroke:none;fill-opacity:1" d="M20.13 619.524a3 3 0 0 0-2.157.785l-12 11a3 3 0 0 0 0 4.422l12 11a3 3 0 0 0 4.238-.184 3 3 0 0 0-.184-4.238l-6.314-5.79H27.5a3 3 0 0 0 .143-.003c4.705-.224 7.617 1.012 8.712 2.279 1.096 1.267 1.403 2.924-.47 6.254a3 3 0 0 0 1.144 4.086 3 3 0 0 0 4.086-1.145c2.627-4.67 2.684-9.763-.22-13.12-2.88-3.331-7.664-4.599-13.395-4.35H15.713l6.314-5.79a3 3 0 0 0 .184-4.238 3 3 0 0 0-2.08-.968z" transform="translate(0 -610.52)"/><path style="color:#000;fill:#cdd0e5;stroke-linecap:round;stroke-linejoin:round;-inkscape-stroke:none" d="M25.895 622.504c-.21 1.282-1.58 3.91-3.6 5.43l-.63.578h1.759c2.669-2.165 2.697-4.641 2.47-6.008zm-23.78 11.012c-.317 1.935.288 4.003 1.83 5.418l12 11c2.416 2.215 6.261 2.048 8.477-.367 1.282-1.4 1.761-3.276 1.473-5.04a5.922 5.922 0 0 1-1.473 3.047c-2.216 2.416-6.06 2.583-8.477.368l-12-11a5.917 5.917 0 0 1-1.83-3.426zm26.42 4.976c-.242 0-.492.007-.75.02a6.234 6.234 0 0 1-.285.008l-5.972.019.63.578c.458.42.874.93 1.266 1.395H27.512c.09 0 .182-.003.273-.008 3.34-.159 6.06.87 6.459 1.411 1.039-1.881-2.214-3.365-5.709-3.423zm17.488 2.569c-.176 2.504-.973 5.054-2.293 7.4-1.606 2.858-5.314 3.897-8.171 2.29-1.631-.918-2.667-2.518-2.96-4.255-.401 2.425.714 4.984 2.96 6.246 2.857 1.608 6.565.57 8.171-2.289 1.673-2.972 2.503-6.273 2.293-9.392z" transform="translate(0 -610.52)"/><path style="color:#000;fill:#d97706;stroke-linecap:round;stroke-linejoin:round;-inkscape-stroke:none" d="M22.955 622.016a3 3 0 0 1-.928 1.713l-7.408 6.79h1.094l6.314-5.788a3 3 0 0 0 .928-2.715zM5.043 633.02a3 3 0 0 0 .93 2.71l12 11a3 3 0 0 0 4.238-.183 3 3 0 0 0 .744-2.525 3 3 0 0 1-4.982 1.707l-12-11a3 3 0 0 1-.93-1.71Zm23.46 2.47c-.28.003-.566.01-.86.024a3.39 3.39 0 0 1-.143.004H14.62l1.093 1.002H27.5c.048 0 .095-.001.143-.004 4.705-.224 7.617 1.012 8.712 2.279.44.508.748 1.082.844 1.799.15-1.22-.217-2.076-.844-2.801-1.027-1.188-3.65-2.347-7.851-2.303zm14.558 5.077c-.096 2.093-.753 4.3-1.946 6.421a3 3 0 0 1-4.086 1.145 3 3 0 0 1-1.472-2.139 3 3 0 0 0 1.472 3.14 3 3 0 0 0 4.086-1.144c1.386-2.463 2.047-5.042 1.946-7.423z" transform="translate(0 -610.52)"/></svg>
