<!-- This Source Code Form is subject to the terms of the Mozilla Public
   - License, v. 2.0. If a copy of the MPL was not distributed with this
   - file, You can obtain one at http://mozilla.org/MPL/2.0/. -->
<svg width="48" height="48" xmlns:xlink="http://www.w3.org/1999/xlink" xmlns="http://www.w3.org/2000/svg"><defs><linearGradient id="b"><stop style="stop-color:#fbbf24;stop-opacity:1" offset="0"/><stop style="stop-color:#fcd34d;stop-opacity:1" offset="1"/></linearGradient><linearGradient id="a"><stop offset="0" style="stop-color:#ffe900;stop-opacity:1"/><stop offset="1" style="stop-color:#fff376;stop-opacity:1"/></linearGradient><linearGradient xlink:href="#b" id="c" x1="24" y1="652.52" x2="24" y2="614.52" gradientUnits="userSpaceOnUse"/></defs><path style="color:#000;fill:url(#c);stroke-linecap:round;stroke-linejoin:round;-inkscape-stroke:none;fill-opacity:1" d="M24 614.52a4 4 0 0 0-3.535 2.129l-18 30c-1.41 2.663.521 5.87 3.535 5.87h36c3.014 0 4.944-3.207 3.535-5.87l-18-30a4 4 0 0 0-3.535-2.13Z" transform="translate(0 -610.52)"/><path style="color:#000;fill:#a16207;stroke-linecap:round;stroke-linejoin:round" d="M24 627.52c-1.108 0-2 .892-2 2v9c0 1.108.892 2 2 2s2-.892 2-2v-9c0-1.108-.892-2-2-2zm0 15c-1.108 0-2 .892-2 2s.892 2 2 2 2-.892 2-2-.892-2-2-2zm-21.535 4.129zm-.461 2.095c-.006.255-.004.513-.004.776 0 2.5 1.308 4.999 4 5h36c2.692-.001 4-2.5 4-5.002 0-.263.002-.52-.004-.774-.117 2.003-1.756 3.775-3.996 3.776H6c-2.24 0-3.879-1.773-3.996-3.776z" transform="translate(0 -610.52)"/><path style="fill:#2a284b;stroke-width:4;stroke-linecap:round;stroke-linejoin:round;stop-color:#000" d="M24 616.52a2 2 0 0 0-1.766 1.062l-18 30c-.706 1.332.259 2.937 1.766 2.938h36c1.507-.001 2.472-1.606 1.766-2.938l-18-30A2 2 0 0 0 24 616.52zm0 3a1 1 0 0 1 .889.54l15.877 27a1 1 0 0 1-.889 1.46H8.123a1 1 0 0 1-.889-1.46l15.877-27a1 1 0 0 1 .889-.54zm0 7c-1.108 0-2 .892-2 2v9c0 1.108.892 2 2 2s2-.892 2-2v-9c0-1.108-.892-2-2-2zm0 15c-1.108 0-2 .892-2 2s.892 2 2 2 2-.892 2-2-.892-2-2-2z" transform="translate(0 -610.52)"/></svg>
