<!-- This Source Code Form is subject to the terms of the Mozilla Public
   - License, v. 2.0. If a copy of the MPL was not distributed with this
   - file, You can obtain one at http://mozilla.org/MPL/2.0/. -->
<svg xmlns="http://www.w3.org/2000/svg" xmlns:xlink="http://www.w3.org/1999/xlink" width="32" height="32">
  <defs>
    <linearGradient id="a">
      <stop offset="0" style="stop-color:#ffe900;stop-opacity:1"/>
      <stop offset="1" style="stop-color:#fff376;stop-opacity:1"/>
    </linearGradient>
    <linearGradient xlink:href="#a" id="b" x1="8" x2="8" y1="625.02" y2="611.52" gradientUnits="userSpaceOnUse"/>
  </defs>
  <path d="M8 611.52c-.883 0-1.593.58-1.945 1.273l.006-.014-5.166 9.444c-.34.565-.393.908-.395 1.295v.002c0 1.098.901 2 2 2h11c1.099 0 2-.902 2-2 0-.394-.058-.734-.404-1.311l.011.018-5.168-9.448.006.014c-.354-.695-1.062-1.273-1.945-1.273Z" style="color:#000;fill:url(#b);stroke:none;stroke-linecap:round;stroke-linejoin:round;-inkscape-stroke:none;fill-opacity:1" transform="matrix(2 0 0 2 0 -1221.04)"/>
  <path d="M8 613.008c-.512 0-.92.377-1.264.804-.344.428-.631.94-.834 1.33a370.786 370.786 0 0 0-3.75 7.126.25.25 0 0 0 0 .002c-.22.44-.19.896.034 1.222.224.327.62.516 1.064.516a.25.25 0 0 0 .002 0c1.71-.007 2.968.003 4.73.012h.032a.25.25 0 0 0 .004 0c1.762-.008 3.02-.019 4.73-.012a.25.25 0 0 0 .002 0c.444 0 .84-.19 1.065-.516.224-.326.253-.783.033-1.222a.25.25 0 0 0 0-.002 370.768 370.768 0 0 0-3.75-7.125l-.002-.004c-.203-.391-.489-.9-.832-1.327-.345-.427-.752-.804-1.264-.804Zm0 .5c.238 0 .569.237.875.617.306.38.582.869.777 1.246a.25.25 0 0 0 .002.004 370.212 370.212 0 0 1 3.748 7.121c.154.31.121.54.002.713-.119.174-.348.299-.654.299-1.712-.007-2.975.004-4.736.012h-.028c-1.76-.01-3.024-.02-4.736-.012h-.002c-.304 0-.533-.126-.652-.299-.12-.173-.152-.404.002-.713v-.002a370.194 370.194 0 0 1 3.748-7.119.25.25 0 0 0 .002-.004c.195-.377.47-.866.777-1.246.306-.38.637-.617.875-.617Z" style="color:#000;fill:#fff;stroke-linecap:round;stroke-linejoin:round;-inkscape-stroke:none;opacity:.5" transform="matrix(2 0 0 2 0 -1221.04)"/>
  <path d="M8 612.52c-.512 0-.92.377-1.264.804-.344.428-.631.94-.834 1.33a370.942 370.942 0 0 0-3.75 7.127.25.25 0 0 0 0 .002c-.22.44-.19.896.034 1.223.224.326.62.514 1.064.514a.25.25 0 0 0 .002 0c1.71-.007 2.968.005 4.73.013h.032a.25.25 0 0 0 .004 0c1.762-.008 3.02-.02 4.73-.013a.25.25 0 0 0 .002 0c.444 0 .84-.188 1.065-.514.224-.327.253-.783.033-1.223a.25.25 0 0 0 0-.002 370.927 370.927 0 0 0-3.75-7.127l-.002-.004c-.203-.39-.489-.9-.832-1.326-.345-.427-.752-.804-1.264-.804Zm0 .5c.238 0 .569.238.875.619.306.38.582.868.777 1.246a.25.25 0 0 0 .002.004 370.183 370.183 0 0 1 3.748 7.12c.153.309.12.541.002.714-.119.173-.348.297-.654.297-1.712-.007-2.975.006-4.736.013h-.028c-1.76-.008-3.024-.02-4.736-.013h-.002c-.304-.001-.533-.124-.652-.297s-.15-.405.002-.713a370.196 370.196 0 0 1 3.748-7.121.25.25 0 0 0 .002-.004c.195-.378.47-.866.777-1.246.306-.38.637-.62.875-.62Z" style="color:#000;fill:#a47f00;stroke-linecap:round;stroke-linejoin:round" transform="matrix(2 0 0 2 0 -1221.04)"/>
  <path d="M.559 622.988a2.204 2.204 0 0 0-.059.532c0 1.098.901 2 2 2h11c1.099 0 2-.902 2-2 0-.179-.013-.347-.059-.53a2.008 2.008 0 0 1-1.941 1.53h-11a2.008 2.008 0 0 1-1.941-1.532z" style="color:#000;fill:#000;fill-opacity:1;stroke:none;stroke-linecap:round;stroke-linejoin:round;-inkscape-stroke:none;opacity:.15" transform="matrix(2 0 0 2 0 -1221.04)"/>
  <g style="fill:#3e2800">
    <path d="M8 616.02a.5.5 0 0 0-.5.5v4a.5.5 0 0 0 1 0v-4a.5.5 0 0 0-.5-.5zm0 6a.5.5 0 1 0 0 1 .5.5 0 0 0 0-1z" style="color:#000;fill:#fff;stroke-linecap:round;fill-opacity:1;opacity:.5" transform="matrix(2 0 0 2 0 -1222.04)"/>
    <path d="M8 615.52a.5.5 0 0 0-.5.5v4a.5.5 0 0 0 1 0v-4a.5.5 0 0 0-.5-.5zm0 6a.5.5 0 1 0 0 1 .5.5 0 0 0 0-1z" style="color:#000;fill:#a47f00;stroke-linecap:round" transform="matrix(2 0 0 2 0 -1222.04)"/>
  </g>
</svg>
