<!-- This Source Code Form is subject to the terms of the Mozilla Public
   - License, v. 2.0. If a copy of the MPL was not distributed with this
   - file, You can obtain one at http://mozilla.org/MPL/2.0/. -->
<svg xmlns="http://www.w3.org/2000/svg" width="16px" height="16px" viewBox="0 0 128 128" fill="#000">
  <path d="M56.7 111.7c-26.15-7-41.75-25.53-42.1-50.3 0-6.86.6-11.73 1.8-15.5C28.5 9.36 62.8-5.783 90.9 12.99c5.86 5.18 11.7 10.09 17 20.53 6.6 13.13 7.5 26.59 5.5 40.46-6 19.14-19.05 33.22-37.4 37.42-4.7 1.1-17.8 1.2-19.3.3zM41 72.33c-2.4-8.18-4.67-18.28 1-19.9 1.5-1.38 1.55-.79 2.3-.17.4.88-.2 1.64-1.4 1.95-1.4.37-1.9 1.38-1.9 3.85 0 3.97.8 5.36 3.5 6.19 1.5.47 2.4-.11 3.7-2.37 2.2-3.78 3.9-3.75 8.3.15 4.4 3.86 5.5 3.24 1.9-1.04-3-3.58-7.3-6.09-10.4-6.09-1.3 0-1.8-.43-1.4-1.11.4-.61.1-1.47-.6-1.92-1.1-.63-1-1.37.5-3.56 2.7-4.15 6.6-7.41 8.8-7.41 3.5 0 11.76-3.56 13.36-6.31 1.9-3.25 8.74-7.69 13.24-7.69 3.6 0 9.9-4.37 8-5.54-4.4-.43-5.34 2.53-8.56 2.61-5.9 0-8.64 2.36-13.34 7.07-2.7 2.67-5.5 4.86-6.2 4.86-2.88.71-5.36 3.27-7.2 1.4-.9-.83-1.6-2.1-1.6-2.77 0-1.89-2.4-6.61-3.4-6.62-.72 2.18.79 5.31 1.1 7.59.5 3.5.2 4.29-1.3 4.82-1.1.35-3.1 2.21-4.5 4.14l-2.7 3.49c-3.13-4.56-5.55-10.19-9.4-14.05-.34 5.8 5.07 8.16 7.2 15.93 0 .54-1.8 1.53-4 2.18-4.6 1.39-7.9 4.42-6.3 5.94.6.66 1.6.32 2.8-1.03 3.3-3.63 3.34.2 3.92 4.55-.29 5.76 2.63 15.06 6.08 18.26.83-.62-.4-3.58-1.5-7.4z"/>
</svg>
