<!-- This Source Code Form is subject to the terms of the Mozilla Public
   - License, v. 2.0. If a copy of the MPL was not distributed with this
   - file, You can obtain one at http://mozilla.org/MPL/2.0/. -->
<svg xmlns="http://www.w3.org/2000/svg" viewBox="0 0 24 24">
  <path fill="context-fill" fill-opacity="context-fill-opacity" d="M18.97 3H5.03C3.9 3 3 3.9 3 5.03v13.94C3 20.1 3.9 21 5.03 21h13.94c1.12 0 2.03-.9 2.03-2.03V5.03C21 3.9 20.1 3 18.97 3zM18 17.5c0 .23-.27.5-.5.5h-1.16c-.06-1.2-.3-2.33-2.84-2.5v-1.7c.87-.38 1.52-1.34 1.5-2.9-.04-1.74-.82-3-3-3.1-1.93.07-2.93 1.44-3 3.1.02 1.45.6 2.56 1.5 2.9v1.7c-2.65.14-2.75 1.44-2.85 2.5H6.5c-.23 0-.5-.27-.5-.5v-11c0-.23.27-.5.5-.5h11c.23 0 .5.27.5.5z"/>
</svg>
