<!-- This Source Code Form is subject to the terms of the Mozilla Public
   - License, v. 2.0. If a copy of the MPL was not distributed with this
   - file, You can obtain one at http://mozilla.org/MPL/2.0/. -->
<svg xmlns="http://www.w3.org/2000/svg" viewBox="0 0 24 24" fill="context-fill" fill-opacity="context-fill-opacity">
  <path d="M19.17 16.16v.12c0 1.75-3.2 3.17-7.13 3.17-3.94 0-7.14-1.42-7.14-3.17v-.1c-1.8.4-2.9 1.06-2.9 2.16C2 20.36 6.48 22 12 22s10-1.64 10-3.66c0-1.12-1.08-1.8-2.83-2.18z"/>
  <path d="M18.22 15.98c0-.1 0-.3-.05-.4L17 12.2l-2.12-6.13c-.03-.1-.03-.28 0-.38l.5-1.3.18-.4.98-1.96c.05-.1 0-.13-.08-.08l-6.5 3.9c-.1.04-.2.2-.24.3l-.4 1.12-2.02 5.6-.78 2.17-.17.5c-.1.3-.05.6.03.9.24.78 1 1.2 1.7 1.45.62.2 1.26.33 1.9.4.9.1 1.8.14 2.7.1 1.36-.03 2.78-.25 4-.83.44-.2.87-.47 1.2-.83.1-.12.2-.28.28-.44.05-.12.06-.27.06-.27zm-4.16.15c.02.1-.04.16-.14.1l-1.47-.77c-.1-.05-.25-.05-.35 0l-1.47.78c-.1.05-.16 0-.14-.1l.2-1.64c0-.1-.07-.26-.1-.34L9.4 13c-.03-.08 0-.15.1-.17l1.64-.24c.1-.1.24-.2.3-.3l.72-1.5c.03-.1.1-.1.16 0l.73 1.46c.04.1.17.2.27.2l1.64.25c.1 0 .15.1.07.17l-1.2 1.15c-.07.1-.12.23-.1.34L14 16z"/>
</svg>
