<!-- This Source Code Form is subject to the terms of the Mozilla Public
   - License, v. 2.0. If a copy of the MPL was not distributed with this
   - file, You can obtain one at http://mozilla.org/MPL/2.0/. -->
<svg xmlns="http://www.w3.org/2000/svg" viewBox="0 0 24 24">
  <path fill="context-fill" fill-opacity="context-fill-opacity" d="M16 17.5c0 2.47-1.52 4.5-4 4.5-2.5 0-4-2.03-4-4.5V4.9c0-2 .85-2.9 2.5-2.9s2.5.9 2.5 2.9v11c0 .75-.3 1.1-1 1.1s-1-.35-1-1.1V6.75c0-1-2-1-2 0v9.15c0 1.65 1.35 3.1 3 3.1s3-1.45 3-3.1v-11C15 1.78 12.98 0 10.5 0 7.95 0 6 1.92 6 4.9v12.6c0 3.52 2.62 6.5 6 6.5 3.42 0 6-2.9 6-6.5V4.65c0-1-2-1-2 0"/>
</svg>
