<!-- This Source Code Form is subject to the terms of the Mozilla Public
   - License, v. 2.0. If a copy of the MPL was not distributed with this
   - file, You can obtain one at http://mozilla.org/MPL/2.0/. -->
<svg width="16" height="16" xmlns="http://www.w3.org/2000/svg" fill="context-fill" fill-opacity="context-fill-opacity" viewBox="0 0 16 16">
  <path d="M3 5h10V2.17c1.165.413 2 1.524 2 2.83v7a3 3 0 0 1-3 3H4a3 3 0 0 1-3-3V5c0-1.306.835-2.417 2-2.83V5zm0 1v6a1 1 0 0 0 1 1h8a1 1 0 0 0 1-1V6H3zm3-4h4v2H6V2zM4.5 0a.5.5 0 0 1 .5.5v3a.5.5 0 0 1-1 0v-3a.5.5 0 0 1 .5-.5zm7 0a.5.5 0 0 1 .5.5v3a.5.5 0 1 1-1 0v-3a.5.5 0 0 1 .5-.5zM4 7h2v2H4V7zm6 0h2v2h-2V7zm-6 3h2v2H4v-2zm3 0h2v2H7v-2zm0-3h2v2H7V7z"/>
</svg>
