<!-- This Source Code Form is subject to the terms of the Mozilla Public
   - License, v. 2.0. If a copy of the MPL was not distributed with this
   - file, You can obtain one at http://mozilla.org/MPL/2.0/. -->
<svg xmlns="http://www.w3.org/2000/svg" viewBox="0 0 24 24">
  <path fill="context-fill" fill-opacity="context-fill-opacity" d="M18.85 2H5.15C3.95 2 3 2.96 3 4.14v9.7c0 1.2.96 2.16 2.14 2.16H6.8L6 22l5.2-6h7.65c1.18 0 2.14-.96 2.14-2.14v-9.7c-.03-1-.78-2.15-2.16-2.16zM15 13.6c0 .22-.18.4-.4.4H5.4c-.22 0-.4-.18-.4-.4v-1.2c0-.22.18-.4.4-.4h9.2c.22 0 .4.18.4.4zm0-4c0 .22-.18.4-.4.4H5.4c-.22 0-.4-.18-.4-.4V8.4c0-.22.18-.4.4-.4h9.2c.22 0 .4.18.4.4zm4-4c0 .22-.18.4-.4.4H5.4c-.22 0-.4-.18-.4-.4V4.4c0-.22.18-.4.4-.4h13.2c.22 0 .4.18.4.4z"/>
</svg>
