<!-- This Source Code Form is subject to the terms of the Mozilla Public
   - License, v. 2.0. If a copy of the MPL was not distributed with this
   - file, You can obtain one at http://mozilla.org/MPL/2.0/. -->
<svg width="16" height="16" xmlns="http://www.w3.org/2000/svg" fill="context-fill" fill-opacity="context-fill-opacity" viewBox="0 0 16 16">
  <path d="M12 16a1 1 0 0 1-.77-.37L8.26 12H2.42A2.43 2.43 0 0 1 0 9.58V3.42A2.43 2.43 0 0 1 2.42 1h11.16A2.43 2.43 0 0 1 16 3.42v6.16A2.43 2.43 0 0 1 13.58 12H13v3a1 1 0 0 1-1 1zM2.42 3a.42.42 0 0 0-.42.42v6.16c0 .232.188.42.42.42h6.31a1 1 0 0 1 .77.37l1.5 1.82V11a1 1 0 0 1 1-1h1.58a.42.42 0 0 0 .42-.42V3.42a.42.42 0 0 0-.42-.42H2.42z"/>
</svg>
