<!-- This Source Code Form is subject to the terms of the Mozilla Public
   - License, v. 2.0. If a copy of the MPL was not distributed with this
   - file, You can obtain one at http://mozilla.org/MPL/2.0/. -->
<svg xmlns="http://www.w3.org/2000/svg" viewBox="0 0 24 24">
  <path fill="context-fill" fill-opacity="context-fill-opacity" d="M7 11.5a4.5 4.5 0 1 1 9 0 4.5 4.5 0 0 1-9 0M21.48 10h-2.65a7.45 7.45 0 0 0-1.1-2.64L19.6 5.5a1.5 1.5 0 1 0-2.1-2.13l-1.9 1.87c-.8-.52-1.7-.9-2.65-1.1V1.5a1.5 1.5 0 1 0-3 0V4l.03.14c-.96.2-1.86.58-2.65 1.1L5.5 3.37A1.5 1.5 0 1 0 3.38 5.5l1.87 1.86c-.52.8-.9 1.68-1.1 2.63H1.5a1.5 1.5 0 1 0 0 3h2.64c.2.9.58 1.8 1.1 2.6l-1.87 1.9a1.5 1.5 0 1 0 2.12 2.1l1.8-1.9c.8.52 1.7.9 2.62 1.1v2.64a1.5 1.5 0 1 0 3 0V18.8c.95-.2 1.84-.57 2.63-1.1l1.87 1.88a1.5 1.5 0 0 0 2.12 0 1.5 1.5 0 0 0 0-2.1L17.7 15.6c.52-.8.9-1.68 1.1-2.64h2.64a1.5 1.5 0 1 0 0-3"/>
</svg>
