<!-- This Source Code Form is subject to the terms of the Mozilla Public
   - License, v. 2.0. If a copy of the MPL was not distributed with this
   - file, You can obtain one at http://mozilla.org/MPL/2.0/. -->
<svg xmlns="http://www.w3.org/2000/svg" viewBox="0 0 24 24">
  <path fill="context-fill" fill-opacity="context-fill-opacity" d="M21.63 9.54c-.08 1.4.25 3.08-1.6 5.5-1.96 2.58-3.9 2.6-4.28 2.57-2.25-.1-2.5-1.82-3.8-1.82-1.12 0-2 1.74-3.7 1.84-.37 0-2.32.04-4.3-2.54-1.83-2.42-1.5-4.1-1.58-5.5C2.3 8.16 2 6.62 2 6.62s.9.9 2.03.97c1.15.03 1.36-.4 3.78-1.1 2.66-.8 4.2 2.3 4.2 2.3s1.8-3 4.2-2.3c2.4.7 2.5 1.14 3.68 1.1C21 7.5 22 6.6 22 6.6s-.3 1.52-.37 2.92zm-13.5.6c-1.44-.33-2.04.2-2.65.44-.54.2-1.02.26-1.02.26s.08.82 1.5 1.52c1.44.7 4.38.34 4.38.34s.3-2-2.22-2.57zm10.4.44c-.62-.23-1.22-.77-2.65-.45-2.53.56-2.22 2.57-2.22 2.57s2.94.37 4.37-.34c1.43-.7 1.5-1.52 1.5-1.52s-.47-.06-1-.26z"/>
</svg>
