<svg width="86" height="83" viewBox="0 0 86 83" fill="none" xmlns="http://www.w3.org/2000/svg">
<g filter="url(#filter0_d_4073_718)">
<path d="M36.0318 16.0748H36.0392C38.4821 7.53509 49.1269 3.36597 59.9745 3.36597C67.4691 3.36597 74.1986 5.73969 78.8109 9.50657C75.9538 9.64821 73.2355 10.2073 70.7475 11.1096C74.4747 12.4942 77.6763 14.6259 80.0494 17.263C78.4749 16.9909 76.8421 16.8477 75.168 16.8477C74.9872 16.8477 74.8071 16.8494 74.6271 16.8527C78.939 23.1041 81.4637 30.6827 81.4637 38.8512C81.4637 60.2754 64.096 77.6431 42.6717 77.6431C21.5777 77.6431 3.87964 59.9814 3.87964 38.8511C3.87964 35.514 4.32383 32.0672 5.18464 28.8367C5.40982 28.1581 5.72477 27.5073 6.14301 27.2693C6.66647 26.9714 7.14223 27.8597 7.21931 28.1489C7.78781 30.2834 8.55369 32.3477 9.4985 34.325C9.41601 29.8955 11.3078 25.8621 13.911 22.3721C15.6462 20.046 17.2546 17.8896 17.9975 11.6687C18.0474 11.2511 18.4434 10.9505 18.843 11.0814C24.4917 12.9307 27.5115 22.3358 27.0413 30.2006C30.1618 30.6467 30.1473 27.3872 30.1473 27.3872C29.1498 24.322 29.8149 18.624 36.0216 16.0748H36.0318Z" fill="url(#paint0_linear_4073_718)"/>
<path opacity="0.9" d="M80.1944 28.9727C81.1375 50.3086 63.5982 68.703 42.2098 68.703C22.1881 68.703 5.78086 53.2278 4.29683 33.5859C4.03535 35.4005 3.8938 37.2539 3.88049 39.1377C4.03244 60.1565 21.6876 77.6433 42.6716 77.6433C64.0957 77.6433 81.4635 60.2756 81.4635 38.8514C81.4635 35.4375 81.0222 32.1267 80.1944 28.9727Z" fill="url(#paint1_radial_4073_718)"/>
<path d="M41.7269 18.9024C41.3088 18.1626 39.3789 17.069 38.5357 16.8782C41.7269 6.6539 57.9893 3.51484 67.9425 5.32388C72.084 6.07659 77.243 8.33468 78.8118 9.50662C74.1994 5.73971 67.4698 3.36597 59.975 3.36597C49.1273 3.36597 38.4824 7.53513 36.0395 16.0749H36.032H36.0219C29.8151 18.6241 29.1508 24.324 30.1483 27.3893C31.1053 23.7329 35.6623 19.2397 41.7269 18.9024Z" fill="url(#paint2_linear_4073_718)"/>
<path d="M52.9996 11.8416C44.2858 13.5561 41.4381 14.1164 38.5215 16.8889C41.797 8.21746 50.1579 6.46055 60.12 10.4127C57.3782 10.98 55.0297 11.4421 52.9996 11.8416Z" fill="url(#paint3_linear_4073_718)"/>
<path d="M5.98536 27.6493C3.60484 37.3957 5.44431 48.8518 16.2596 58.4657C13.0397 54.9452 9.10916 41.9439 17.7838 32.6552C18.3681 32.0295 19.3735 32.49 19.4051 33.3456C20.1198 52.6484 35.6965 64.4379 53.6535 62.2332C48.0894 61.9206 29.6887 55.4761 43.3765 52.9262C50.5313 51.5933 61.7495 49.5034 61.7495 39.4387C61.7495 23.1205 49.1322 18.3497 41.4819 19.0595C36.2456 19.5454 31.5854 22.8678 30.1506 27.386C30.7012 29.1677 28.5063 30.4151 27.0414 30.2056C27.5117 22.3408 24.4919 12.9307 18.8432 11.0812C18.4435 10.9504 18.0475 11.251 17.9976 11.6686C17.2547 17.8896 15.6462 20.046 13.911 22.3722C11.3078 25.8621 9.41601 29.8956 9.49851 34.3252C8.55369 32.3478 7.78774 30.2835 7.21924 28.1491C7.15547 27.9095 6.80904 27.242 6.38969 27.2105C6.16269 27.1934 6.04254 27.4151 5.98536 27.6493Z" fill="url(#paint4_radial_4073_718)"/>
<path d="M38.5699 53.914C49.1033 62.4668 70.2879 56.0547 70.2879 35.2578C61.735 48.2221 50.8422 57.1639 38.5699 53.914Z" fill="url(#paint5_linear_4073_718)"/>
<path d="M17.7836 32.6553C18.006 32.4172 18.2896 32.3354 18.5576 32.3726C10.7924 41.8428 17.0552 58.4764 21.3539 62.5623C21.5941 63.2427 17.2764 59.7045 16.681 58.8758C13.4116 56.1019 8.72549 42.3545 17.7836 32.6553Z" fill="url(#paint6_linear_4073_718)"/>
<path d="M42.7268 54.6787C53.2633 54.6787 61.8049 47.7092 61.8049 39.1119C61.8049 30.5146 53.2633 23.5452 42.7268 23.5452C33.7381 23.5452 23.6455 29.3931 23.6488 39.3391C23.6539 54.7092 39.8909 63.5513 53.7316 62.2128C52.6921 62.0922 46.2065 61.7477 41.8228 56.7886C41.4275 56.3415 40.7411 55.5618 41.0524 55.0549C41.3637 54.5479 42.219 54.6787 42.7268 54.6787Z" fill="url(#paint7_linear_4073_718)"/>
<path opacity="0.7" d="M42.7267 54.6787C53.2632 54.6787 61.8047 47.7092 61.8047 39.1119C61.8047 36.4868 61.0084 34.0135 59.602 31.844L44.46 45.5968C43.4026 46.5572 41.6214 46.5572 40.564 45.5968L25.7036 32.0998C24.4104 34.1787 23.6478 36.604 23.6487 39.3392C23.6538 54.7093 39.8908 63.5513 53.7315 62.2128C53.6688 62.2055 53.5863 62.1974 53.4855 62.1876L53.4852 62.1875C51.9161 62.0337 45.9416 61.4481 41.8226 56.7887C41.4274 56.3415 40.741 55.5618 41.0523 55.0549C41.3137 54.6292 41.9587 54.6532 42.4594 54.6718C42.555 54.6753 42.6453 54.6787 42.7267 54.6787Z" fill="url(#paint8_linear_4073_718)"/>
<g filter="url(#filter1_f_4073_718)">
<path fill-rule="evenodd" clip-rule="evenodd" d="M38.2983 45.6883C35.4887 42.7639 27.0735 33.0502 27.0735 33.0502L27.7249 33.0782L40.898 42.9175C41.885 43.6344 43.2917 43.6272 44.2697 42.9002L57.1872 33.0909L57.873 33.0376C57.873 33.0376 49.733 42.5213 46.6152 45.6458C43.4975 48.7703 41.108 48.6127 38.2983 45.6883Z" fill="#458FCD"/>
</g>
<path d="M44.5996 46.4865L59.7109 32.0584C56.5115 27.1228 50.6099 23.5452 42.736 23.5452C36.2198 23.5452 29.1156 26.6191 25.7059 32.0989L40.3435 46.4865C41.4009 47.4469 43.5422 47.4469 44.5996 46.4865Z" fill="url(#paint9_linear_4073_718)"/>
<path opacity="0.6" d="M59.7267 32.0396L44.6493 46.4661C43.3112 47.4165 41.8869 47.4865 40.4807 46.6232L25.6942 32.0916C26.1107 31.4201 26.5851 30.7766 27.112 30.1655C27.6448 30.6637 28.1606 31.1469 28.664 31.6184C32.5486 35.2568 35.6884 38.1977 40.1136 41.9745C42.1113 43.6796 42.7322 43.646 44.6906 41.9745C49.7544 37.6526 53.4566 34.3819 58.2708 30.0842C58.8122 30.7038 59.2994 31.3571 59.7267 32.0396Z" fill="white"/>
<path opacity="0.2" d="M54.0323 51.6345C50.9844 53.4633 47.0497 54.6904 42.6718 54.6973C42.5905 54.6973 42.5003 54.694 42.4048 54.6904L42.4046 54.6904H42.4046C41.9038 54.6718 41.2588 54.6478 40.9974 55.0735C40.863 55.2925 40.9147 55.5623 41.0486 55.8342H41.0484C40.7321 55.4029 40.5101 54.583 41.8404 54.4608C45.11 54.1604 44.7776 54.5716 48.4905 53.6295C52.2035 52.6874 54.1935 50.384 54.1431 50.7478L54.0323 51.6345Z" fill="url(#paint10_linear_4073_718)"/>
<path d="M45.3475 15.7767C47.3892 15.1338 47.2105 13.1125 47.2105 13.1125C47.2105 13.1125 46.189 11.9108 44.1663 12.5769C42.2728 13.2004 41.9794 14.5486 41.9794 14.5486C41.9794 14.5486 43.0138 16.5116 45.3475 15.7767Z" fill="white"/>
<g filter="url(#filter2_d_4073_718)">
<path d="M31.7256 24.7508C32.594 25.0981 34.5912 25.5323 35.4073 27.0833L49.4102 46.9607C49.9625 47.7448 49.7747 48.8284 48.9906 49.3808C48.2064 49.9332 47.1229 49.7452 46.5706 48.9612L36.5685 34.7629C36.0161 33.9788 34.9326 33.7909 34.1485 34.3433C33.3643 34.8957 33.1765 35.9792 33.7288 36.7634L43.7309 50.9616C45.3881 53.3139 48.6386 53.8776 50.991 52.2204C53.3404 50.5654 53.9056 47.3213 52.2562 44.9694L52.2498 44.9603L38.2469 25.0828C37.7802 24.4203 36.0057 24.1975 35.4073 23.7087C34.2405 24.3 32.7991 24.0284 31.7256 24.7508Z" fill="#19518F"/>
</g>
<path d="M28.147 25.8244C30.4994 24.1672 33.7499 24.7308 35.4071 27.0833L49.41 46.9608C49.9623 47.7448 49.7745 48.8284 48.9903 49.3808C48.2062 49.9332 47.1226 49.7452 46.5703 48.9612L36.5683 34.763C36.0159 33.9788 34.9324 33.791 34.1482 34.3433C33.3641 34.8957 33.1762 35.9792 33.7286 36.7634L43.7307 50.9616C45.3878 53.3139 48.6383 53.8776 50.9908 52.2204C53.3401 50.5654 53.9054 47.3213 52.256 44.9694L52.2496 44.9603L38.2467 25.0829C35.4847 21.1621 30.0673 20.2228 26.1466 22.9848C22.2259 25.7468 21.2865 31.1642 24.0485 35.0849L24.1625 35.342C24.6058 34.012 25.2912 32.6092 26.0466 31.5182C25.1428 29.3188 26.1209 27.2518 28.147 25.8244Z" fill="#19518F"/>
<path d="M52.1848 45.0193L52.1849 45.0193C53.8068 47.332 53.251 50.522 50.9408 52.1494C48.6275 53.779 45.4312 53.2247 43.8017 50.9116L33.7996 36.7134C33.2748 35.9684 33.4533 34.9391 34.1982 34.4143C34.9432 33.8896 35.9725 34.068 36.4973 34.813L46.4993 49.0112C47.0793 49.8344 48.217 50.0318 49.0404 49.4518C49.8637 48.8718 50.0609 47.734 49.481 46.9107L35.4781 27.0333C33.7932 24.6416 30.4886 24.0686 28.097 25.7534C27.0737 26.4743 26.3098 27.3603 25.9174 28.3498C25.5293 29.328 25.5064 30.4025 25.9486 31.5075C25.2383 32.5423 24.5925 33.8465 24.152 35.1041L24.1279 35.0497L24.1244 35.0419L24.1195 35.0349C21.3851 31.1534 22.3151 25.7901 26.1966 23.0558C30.0781 20.3214 35.4413 21.2514 38.1757 25.1329L52.1785 45.0102L52.1786 45.0104L52.1848 45.0193Z" stroke="black" stroke-opacity="0.1" stroke-width="0.173675"/>
<g filter="url(#filter3_f_4073_718)">
<path d="M27.2095 25.0982C31.2908 21.7115 34.5834 24.3956 36.2406 26.7481L50.3088 46.2865C51.1772 48.4575 51.0035 49.239 49.7878 50.3679C49.0849 51.0206 47.2695 51.8441 45.7932 50.1074L35.7912 35.9092C35.2388 35.125 35.5333 34.7926 34.7491 35.345C33.965 35.8974 34.1967 35.6461 34.7491 36.4302L44.7512 50.6284C46.3143 52.7993 49.3536 52.0016 50.8298 50.9616C52.1324 50.044 52.9139 48.2838 51.3508 45.4181L37.1958 25.9665C34.4338 22.0458 30.8697 20.9467 26.9489 23.7087C23.9457 25.8245 22.26 30.7572 24.64 33.9005L24.952 34.3434C25.2127 33.7819 25.3864 33.5214 25.7338 32.9135C24.3797 31.0032 23.9455 28.4848 27.2095 25.0982Z" fill="#1373D9"/>
</g>
</g>
<defs>
<filter id="filter0_d_4073_718" x="0.083472" y="0.518838" width="85.1764" height="81.8697" filterUnits="userSpaceOnUse" color-interpolation-filters="sRGB">
<feFlood flood-opacity="0" result="BackgroundImageFix"/>
<feColorMatrix in="SourceAlpha" type="matrix" values="0 0 0 0 0 0 0 0 0 0 0 0 0 0 0 0 0 0 127 0" result="hardAlpha"/>
<feOffset dy="0.949038"/>
<feGaussianBlur stdDeviation="1.89808"/>
<feComposite in2="hardAlpha" operator="out"/>
<feColorMatrix type="matrix" values="0 0 0 0 0.000624525 0 0 0 0 0.276128 0 0 0 0 0.599544 0 0 0 0.39 0"/>
<feBlend mode="normal" in2="BackgroundImageFix" result="effect1_dropShadow_4073_718"/>
<feBlend mode="normal" in="SourceGraphic" in2="effect1_dropShadow_4073_718" result="shape"/>
</filter>
<filter id="filter1_f_4073_718" x="23.5268" y="29.4909" width="37.8928" height="21.9913" filterUnits="userSpaceOnUse" color-interpolation-filters="sRGB">
<feFlood flood-opacity="0" result="BackgroundImageFix"/>
<feBlend mode="normal" in="SourceGraphic" in2="BackgroundImageFix" result="shape"/>
<feGaussianBlur stdDeviation="1.77335" result="effect1_foregroundBlur_4073_718"/>
</filter>
<filter id="filter2_d_4073_718" x="30.3362" y="23.3614" width="24.2543" height="32.2417" filterUnits="userSpaceOnUse" color-interpolation-filters="sRGB">
<feFlood flood-opacity="0" result="BackgroundImageFix"/>
<feColorMatrix in="SourceAlpha" type="matrix" values="0 0 0 0 0 0 0 0 0 0 0 0 0 0 0 0 0 0 127 0" result="hardAlpha"/>
<feOffset dy="1.04205"/>
<feGaussianBlur stdDeviation="0.6947"/>
<feComposite in2="hardAlpha" operator="out"/>
<feColorMatrix type="matrix" values="0 0 0 0 0.0845064 0 0 0 0 0.199583 0 0 0 0 0.429736 0 0 0 0.3 0"/>
<feBlend mode="normal" in2="BackgroundImageFix" result="effect1_dropShadow_4073_718"/>
<feBlend mode="normal" in="SourceGraphic" in2="effect1_dropShadow_4073_718" result="shape"/>
</filter>
<filter id="filter3_f_4073_718" x="21.4292" y="20.0914" width="32.8729" height="33.998" filterUnits="userSpaceOnUse" color-interpolation-filters="sRGB">
<feFlood flood-opacity="0" result="BackgroundImageFix"/>
<feBlend mode="normal" in="SourceGraphic" in2="BackgroundImageFix" result="shape"/>
<feGaussianBlur stdDeviation="1.04205" result="effect1_foregroundBlur_4073_718"/>
</filter>
<linearGradient id="paint0_linear_4073_718" x1="35.6821" y1="-33.2183" x2="2.66405" y2="71.0758" gradientUnits="userSpaceOnUse">
<stop stop-color="#AA6000"/>
<stop offset="1" stop-color="#F09D38"/>
</linearGradient>
<radialGradient id="paint1_radial_4073_718" cx="0" cy="0" r="1" gradientUnits="userSpaceOnUse" gradientTransform="translate(17.2431 33.7035) rotate(66.5179) scale(32.8023 31.4237)">
<stop offset="0.525579" stop-color="#AA6000" stop-opacity="0"/>
<stop offset="1" stop-color="#AA6000" stop-opacity="0.45"/>
</radialGradient>
<linearGradient id="paint2_linear_4073_718" x1="33.6941" y1="3.36596" x2="75.8949" y2="24.3842" gradientUnits="userSpaceOnUse">
<stop stop-color="#FEF7EC"/>
<stop offset="0.51" stop-color="#F09D38"/>
</linearGradient>
<linearGradient id="paint3_linear_4073_718" x1="47.375" y1="4.23118" x2="45.7021" y2="17.1153" gradientUnits="userSpaceOnUse">
<stop stop-color="#AA6000"/>
<stop offset="1" stop-color="#F09D38"/>
</linearGradient>
<radialGradient id="paint4_radial_4073_718" cx="0" cy="0" r="1" gradientUnits="userSpaceOnUse" gradientTransform="translate(28.0417 59.9875) rotate(-64.2627) scale(51.1749 63.2159)">
<stop offset="0.0160882" stop-color="#AA6000"/>
<stop offset="0.967387" stop-color="#AA6000" stop-opacity="0.5"/>
</radialGradient>
<linearGradient id="paint5_linear_4073_718" x1="41.1074" y1="35.2578" x2="71.5211" y2="45.7949" gradientUnits="userSpaceOnUse">
<stop stop-color="#FEF7EC"/>
<stop offset="1" stop-color="#F09D38"/>
</linearGradient>
<linearGradient id="paint6_linear_4073_718" x1="5.98553" y1="32.4045" x2="22.6777" y2="33.0377" gradientUnits="userSpaceOnUse">
<stop stop-color="#FEF7EC"/>
<stop offset="1" stop-color="#F09D38"/>
</linearGradient>
<linearGradient id="paint7_linear_4073_718" x1="42.7275" y1="29.2459" x2="42.7275" y2="62.0529" gradientUnits="userSpaceOnUse">
<stop stop-color="white"/>
<stop offset="0.90535" stop-color="#BEE1FE"/>
<stop offset="1" stop-color="#96CEFD"/>
</linearGradient>
<linearGradient id="paint8_linear_4073_718" x1="43.3409" y1="47.8107" x2="43.3409" y2="61.5542" gradientUnits="userSpaceOnUse">
<stop stop-color="#BCE0FD"/>
<stop offset="1" stop-color="#88CCFC"/>
</linearGradient>
<linearGradient id="paint9_linear_4073_718" x1="42.6632" y1="26.8909" x2="42.7084" y2="62.8955" gradientUnits="userSpaceOnUse">
<stop stop-color="white"/>
<stop offset="0.90535" stop-color="#BEE1FE"/>
<stop offset="1" stop-color="#96CEFD"/>
</linearGradient>
<linearGradient id="paint10_linear_4073_718" x1="50.5963" y1="48.1432" x2="43.8354" y2="61.1662" gradientUnits="userSpaceOnUse">
<stop stop-color="#021022" stop-opacity="0"/>
<stop offset="1" stop-color="#094188"/>
</linearGradient>
</defs>
</svg>
