<!-- This Source Code Form is subject to the terms of the Mozilla Public
   - License, v. 2.0. If a copy of the MPL was not distributed with this
   - file, You can obtain one at http://mozilla.org/MPL/2.0/. -->
<svg width="8" height="24" xmlns="http://www.w3.org/2000/svg" fill="context-fill" viewBox="0 0 8 24">
  <path d="M 3,2 C 1.35,2 0,3.34 0,5 v 3 c 0,1.907 0.76,3 2,3 V 5 C 2,4.45 2.45,4 3,4 h 2 c 0.55,0 1.05,0.45 1,1 v 6 C 7.24,11 8,9.986 8,8 V 5 C 8,3.35 6.66,2 5,2 Z M 4,8 C 3.04,8 3,9 3,9 v 6 c 0,0 0,1 1,1 1,0 1,-1 1,-1 V 9 C 5,9 4.956,8 4,8 Z m -2,5 c -1.2397,0 -2,0.93 -2,3 v 3 c 0,1.66 1.35,3 3,3 h 2 c 1.66,0 3,-1.35 3,-3 V 16 C 8,13.99 7.24,13 6,13 v 6 c 0.05,0.55 -0.45,1 -1,1 H 3 C 2.45,20 2,19.55 2,19 Z"/>
</svg>
