<!-- This Source Code Form is subject to the terms of the Mozilla Public
   - License, v. 2.0. If a copy of the MPL was not distributed with this
   - file, You can obtain one at http://mozilla.org/MPL/2.0/. -->
<svg width="8" height="24" xmlns="http://www.w3.org/2000/svg" fill="context-fill" viewBox="0 0 8 24">
  <path d="M 3,0 C 1.35,0 0,1.34 0,3 V 6 C 0,7.91 0.76,9 2,9 V 3 C 2,2.45 2.45,2 3,2 H 5 C 5.55,2 6.05,2.45 6,3 V 9 C 7.24,9 8,7.99 8,6 V 3 C 8,1.35 6.66,0 5,0 Z m 0,14 v 3 c 0,0 0,1 1,1 1,0 1,-1 1,-1 V 14 Z M 5,10 V 7 C 5,7 4.96,6 4,6 3.04,6 3,7 3,7 v 3 z m -3,5 c -1.2397,0 -2,0.93 -2,3 v 3 c 0,1.66 1.35,3 3,3 h 2 c 1.66,0 3,-1.35 3,-3 V 18 C 8,15.99 7.24,15 6,15 v 6 c 0.05,0.55 -0.45,1 -1,1 H 3 C 2.45,22 2,21.55 2,21 Z"/>
</svg>
