<!-- This Source Code Form is subject to the terms of the Mozilla Public
   - License, v. 2.0. If a copy of the MPL was not distributed with this
   - file, You can obtain one at http://mozilla.org/MPL/2.0/. -->
<svg width="210" height="205" version="1.1" viewBox="0 0 205.5 202.05" xmlns="http://www.w3.org/2000/svg">
  <defs>
    <linearGradient id="SVGID_1_" x1="199.53" x2="39.679" y1="201.91" y2="42.053" gradientUnits="userSpaceOnUse">
      <stop stop-color="#130036" offset="0"/>
      <stop stop-color="#18023B" offset=".2297"/>
      <stop stop-color="#26094A" offset=".5122"/>
      <stop stop-color="#3D1563" offset=".8211"/>
      <stop stop-color="#4E1D75" offset="1"/>
    </linearGradient>
    <linearGradient id="SVGID_2_" x1="10.243" x2="57.704" y1="95.311" y2="95.311" gradientUnits="userSpaceOnUse">
      <stop stop-color="#3156A8" offset="0"/>
      <stop stop-color="#3351A4" offset=".2474"/>
      <stop stop-color="#3B4397" offset=".5365"/>
      <stop stop-color="#472C82" offset=".8453"/>
      <stop stop-color="#4E1D75" offset="1"/>
    </linearGradient>
    <radialGradient id="SVGID_3_" cx="59.073" cy="113.92" r="85.247" gradientTransform="matrix(1 0 0 1.45 0 -51.265)" gradientUnits="userSpaceOnUse">
      <stop stop-color="#14CDDA" offset=".1654"/>
      <stop stop-color="#2061BD" offset=".5478"/>
      <stop stop-color="#2658AC" offset=".6546"/>
      <stop stop-color="#373F81" offset=".864"/>
      <stop stop-color="#432D62" offset="1"/>
    </radialGradient>
    <linearGradient id="SVGID_4_" x1="44.539" x2="191.52" y1="57.897" y2="57.897" gradientUnits="userSpaceOnUse">
      <stop stop-color="#2061BD" offset="0"/>
      <stop stop-color="#2B51AC" offset=".1846"/>
      <stop stop-color="#442C84" offset=".6826"/>
      <stop stop-color="#4E1D75" offset=".9409"/>
    </linearGradient>
    <linearGradient id="SVGID_5_" x1="66.174" x2="167.26" y1="23.206" y2="111.08" gradientUnits="userSpaceOnUse">
      <stop stop-color="#48A8E0" offset=".0202"/>
      <stop stop-color="#2061BD" offset=".3883"/>
      <stop stop-color="#2B51AC" offset=".4968"/>
      <stop stop-color="#442C84" offset=".7892"/>
      <stop stop-color="#4E1D75" offset=".9409"/>
    </linearGradient>
    <linearGradient id="SVGID_6_" x1="19.676" x2="217.84" y1="337.41" y2="43.631" gradientUnits="userSpaceOnUse">
      <stop stop-color="#3156A8" offset=".3787"/>
      <stop stop-color="#4E1D75" offset="1"/>
    </linearGradient>
    <linearGradient id="SVGID_7_" x1="96.745" x2="206.32" y1="278.65" y2="32.542" gradientUnits="userSpaceOnUse">
      <stop stop-color="#29ABE2" offset="0"/>
      <stop stop-color="#385AA6" offset=".7733"/>
      <stop stop-color="#414293" offset=".8575"/>
      <stop stop-color="#4E1D75" offset="1"/>
    </linearGradient>
    <linearGradient id="SVGID_8_" x1="48.269" x2="54.241" y1="92.034" y2="95.468" gradientUnits="userSpaceOnUse">
      <stop stop-color="#B0DCD6" offset="0"/>
      <stop stop-color="#53ACE0" offset="1"/>
    </linearGradient>
    <mask id="SVGID_9_-9" x="162.68" y="18.355" width="14.927" height="6.629" maskUnits="userSpaceOnUse">
      <g class="st13" filter="url(#Adobe_OpacityMaskFilter-9)">
      <radialGradient id="SVGID_10_-3" cx="154.38" cy="67.998" r="51.967" gradientUnits="userSpaceOnUse">
        <stop stop-color="#fff" offset=".868"/>
        <stop offset="1"/>
      </radialGradient>
      <rect class="st14" x="91.295" y="-7.218" width="100.02" height="93.339" fill="url(#SVGID_10_-3)"/>
      </g>
    </mask>
    <filter id="Adobe_OpacityMaskFilter-9" x="162.68" y="18.355" width="14.927" height="6.629" filterUnits="userSpaceOnUse">
      <feColorMatrix values="1 0 0 0 0  0 1 0 0 0  0 0 1 0 0  0 0 0 1 0"/>
    </filter>
    <linearGradient id="SVGID_11_" x1="176.21" x2="164.24" y1="23.085" y2="20.555" gradientUnits="userSpaceOnUse">
      <stop stop-color="#3092B9" offset="0"/>
      <stop stop-color="#258DB6" offset=".2199"/>
      <stop stop-color="#1685B1" offset=".6564"/>
      <stop stop-color="#1082AF" offset="1"/>
    </linearGradient>
    <linearGradient id="SVGID_12_" x1="80.784" x2="90.637" y1="38.025" y2="77.544" gradientUnits="userSpaceOnUse">
      <stop stop-color="#1398D1" stop-opacity="0" offset=".0074"/>
      <stop stop-color="#1187C2" stop-opacity=".6197" offset=".2482"/>
      <stop stop-color="#3F6499" stop-opacity=".71" offset=".6422"/>
      <stop stop-color="#2F4282" stop-opacity=".5" offset="1"/>
    </linearGradient>
    <linearGradient id="SVGID_13_" x1="48.738" x2="43.199" y1="14.373" y2="11.303" gradientTransform="matrix(.9994 .0349 -.0349 .9994 24.591 57.12)" gradientUnits="userSpaceOnUse">
      <stop stop-color="#F9C21B" offset="0"/>
      <stop stop-color="#F3BA1B" offset=".1479"/>
      <stop stop-color="#E3A41B" offset=".3787"/>
      <stop stop-color="#C9801C" offset=".6634"/>
      <stop stop-color="#A44E1C" offset=".9884"/>
      <stop stop-color="#A34C1C" offset="1"/>
    </linearGradient>
    <linearGradient id="SVGID_14_" x1="206.21" x2="169.43" y1="130.14" y2="47.526" gradientUnits="userSpaceOnUse">
      <stop stop-color="#409EC3" offset="0"/>
      <stop stop-color="#2061BD" offset=".62"/>
    </linearGradient>
    <linearGradient id="SVGID_15_" x1="176.76" x2="150.41" y1="103.06" y2="21.954" gradientUnits="userSpaceOnUse">
      <stop stop-color="#14B2DA" offset="0"/>
      <stop stop-color="#297CCC" offset=".4028"/>
      <stop stop-color="#256FC5" offset=".5077"/>
      <stop stop-color="#2164BF" offset=".6492"/>
      <stop stop-color="#2061BD" offset=".8162"/>
      <stop stop-color="#2061BD" offset=".9835"/>
    </linearGradient>
    <linearGradient id="linearGradient-16" x2="81.394" y1="81.394" gradientTransform="matrix(1.5502 0 0 -.65115 2.7804 53.553)" gradientUnits="userSpaceOnUse">
      <stop stop-color="#ff0039" offset="0"/>
      <stop stop-color="#d70022" offset="1"/>
    </linearGradient>
  </defs>
  <g transform="translate(-143.81 -49.413)">
    <g transform="matrix(.83212 0 0 .83212 143.81 49.413)">
      <path class="st1" d="m188.89 35.492c-14.501-9.472-33.046-12.538-43.281-13.609-10.954-1.145-20.468-0.943-28.836 0.285-0.709-9e-3 -1.414-0.037-2.127-0.037-0.544 0-1.08 0.023-1.627 0.029 0.225-0.275 0.381-0.445 0.381-0.445s-0.44 0.069-1.304 0.46c-2.717 0.044-5.421 0.138-8.085 0.32 3.711-4.068 6.751-6.2 6.751-6.2s-3.608 0.528-10.192 6.496c-3.132 0.288-6.221 0.67-9.258 1.145 6.918-9.362 14.155-13.304 14.155-13.304s-8.772-1.786-22.507 12.016c-1.149 1.155-2.215 2.356-3.246 3.572-40.031 9.687-68.681 35.538-68.681 65.919 0 5.958-1.829 12.511 0.143 19.054-0.788 10.453 0.89 38.975 0.89 38.975s10.837 58.649 52.51 68.846c0.662 0.158-8.707-14.62-12.851-32.442 8.069 8.208 17.685 14.699 28.478 15.824 1.325 0.137-6.165-8.64-12.725-19.234l94.698 31.906c49.529-21.274 43.763-19.357 54.397-30.875 23.428-25.36 26.708-39.75 20.806-82.235-3.993-28.679-25.16-57.083-48.489-66.466z" fill="url(#SVGID_1_)"/>
      <polygon class="st2" points="172.91 219.02 201.94 95.591 22.687 62.276 8.546 142.68 16.387 166.97" fill="#fbfbfb"/>
      <path class="st3" d="m23.128 65.01c0.785 1.689 0.554 2.089 0.065 2.089-0.22 0-0.492-0.081-0.747-0.161-0.255-0.081-0.494-0.161-0.648-0.161-0.433 0-0.189 0.639 2.263 3.72 3.468 4.406 54.399 81.293 57.182 81.293 0.015 0 0.028-2e-3 0.04-6e-3 23.71-8.448 124.54-43.058 124.54-43.058l-10.316-15.029-172.38-28.687" fill="#999"/>
      <path class="st4" d="m24.607 63.121s0.76 3.932 4.281 8.284c3.5 4.392 50.51 75.571 52.869 74.944 30.795-8.176 142.52-51.674 142.52-51.674z" fill="#f8f8f8"/>
      <polygon class="st3" points="19.094 171.18 168.98 221.01 167.32 217.16 18.568 167.7" fill="#999"/>
      <path class="st5" d="m57.704 59.795s-54.122 15.85-29.288 71.033c0 0-11.387-10.426-18.167-23.757-0.305-0.597 11.301-41.829 11.301-41.829z" fill="url(#SVGID_2_)"/>
      <path class="st6" d="m28.416 130.83c-4.707-0.081-12.269-3.964-14.722-8.665-3.066 51.098 17.782 80.939 50.88 96.853-10.815-1.24-64.574-29.609-64.574-97.876 0-58.047 46.06-109.93 118.14-112.31 0.442 3.254-35.736 11.414-36.893 15.251-1.796 5.972-5.924 12.473-9.406 17.684-4.718 7.061 6.557 13.099-1.729 15.001-12.468 2.861-29.098 1.277-41.361 17.219-18.434 23.965-6.133 51.379-0.337 56.842z" fill="url(#SVGID_3_)"/>
      <path class="st7" d="m137.05 10.699c-46.682-3.582-70.707 15.097-86.13 36.817-5.617 7.906-5.002 15.166-3.068 23.937 0.831 3.744 1.671 5.538 0.659 9.355-0.558 2.106-0.465 4.072-1.158 5.314-0.959 1.717-2.18 3.594-2.589 6.677-1.022 7.699 1.703 10.151 3.406 12.741 2.426-2.409 7.165-8.079 15.71-11.466s14.167-8.477 24.876-13.941c14.632-7.463 31.782 3.859 64.3-6.796 10.006-3.279 33.002-37.344 38.461-38.652-15.203-16.812-41.067-22.959-54.467-23.986z" fill="url(#SVGID_4_)"/>
      <path class="st8" d="m106.21 0.032s-8.335 4.026-11.965 11.301c8.381-4.225 13.246-6.533 15.546-6.808 0 0-2.203 1.067-4.935 6.87 4.83-1.547 6.493-2.522 7.819-2.537 0 0-0.385 0.61-0.737 6.402-7.417-2.404-21.693 0.397-29.287 5.153-2.576-13.735 23.559-20.381 23.559-20.381z" fill="#3f6499"/>
      <path class="st9" d="m139.38 8.63c-14.309-1.854-26.27-1.489-36.439 0.47 3.198-3.065 6.898-4.575 6.898-4.575-4.795 0.424-10.781 3.554-15.917 6.868-2.588 0.826-5.054 1.758-7.39 2.799 1.43-1.885 3.094-3.899 4.72-5.445 6.039-5.743 15.006-8.715 15.006-8.715-7.654-0.562-33.268 5.995-48.681 37.213-2.526 3.077-4.883 6.235-7.129 9.398-5.798 8.164-5.162 15.658-3.162 24.715 0.852 3.867 1.009 10.04 0.168 14.029-0.168 0.799-2.363 2.863-2.926 8.428-0.602 5.905 1.505 8.804 3.582 11.203 7.38-10.792 14.661-12.931 14.661-12.931 10.33-4.232 14.63-8.752 25.688-14.393 15.108-7.709 67.939 17.45 101.51 6.448 10.332-3.384-3.977-47.359 1.663-48.709-15.699-17.36-38.494-25.02-52.254-26.803z" fill="url(#SVGID_5_)"/>
      <path class="st10" d="m244.18 103.29c-8.276-43.237-48.096-82.572-80.117-84.752-14.211-0.968-9.847 6.319-18.739 9.094-38.32 11.959-38.906 18.941-38.906 18.941 81.252 3.819 82.484 84.064 60.724 104.37 6.123-1.428 12.762-8.914 18.859-20.666-0.732 4.931-1.36 10.98-2.274 17.729-2.788 20.595 0.823 63.614-58.356 92.405 0 0 32.372-2.646 48.425-20.717-6.528 15.012-24.441 23.121-24.441 23.121 13.182-1.928 47.81-12.146 69.868-39.732 24.966-31.225 32.474-60.519 24.957-99.789z" fill="url(#SVGID_6_)"/>
      <path class="st11" d="m164.99 182.22s26.396-7.38 34.903-21.633c-1.032 16.619-16.107 33.662-16.107 33.662s22.038-4.46 31.436-19.968c-1.224 13.994-18.191 32.907-18.191 32.907 17.346-3.113 60.93-30.645 47.143-103.9-8.142-43.262-48.096-82.572-80.117-84.752-14.211-0.968-9.847 6.319-18.739 9.094-38.32 11.959-38.906 18.941-38.906 18.941 81.252 3.819 102.84 46.344 60.724 103.23 6.123-1.429 8.578-4.794 13.178-10.301-2e-3 0 2.084 21.78-15.324 42.72z" fill="url(#SVGID_7_)"/>
      <path class="st12" d="m60.609 85.567s-4.719 3.301-8.136 2.46c-4.045-0.993-4.73-4.913-4.73-4.913-0.089 0.803-0.192 1.578-0.341 2.273-0.168 0.799-2.363 2.863-2.926 8.428-0.602 5.905 1.615 9.325 3.692 11.724 7.381-10.792 14.552-13.452 14.552-13.452-2.809-0.982-2.111-6.52-2.111-6.52z" fill="url(#SVGID_8_)"/>
      <mask x="162.68" y="18.355" width="14.927" height="6.629" maskUnits="userSpaceOnUse">
        <g class="st13" filter="url(#Adobe_OpacityMaskFilter-9)">
          <rect class="st14" x="91.295" y="-7.218" width="100.02" height="93.339" fill="url(#SVGID_10_-3)"/>
        </g>
      </mask>
      <g class="st15" mask="url(#SVGID_9_-9)">
        <g class="st16" opacity=".6">
          <g class="st17" opacity=".2">
            <path class="st18" d="m163.51 18.434c1.106-0.287 5.621 0.204 8.584 1.533 2.964 1.329 8.073 3.679 3.986 4.701-4.088 1.022-6.438-0.613-8.482-2.351s-6.847-3.168-4.088-3.883z" fill="url(#SVGID_11_)"/>
          </g>
        </g>
      </g>
      <path class="st19" d="m61.051 84.921s25.888-42.662 49.292-54.175c2.173-1.093-32.405 9.191-46.32 24.55-8.271 9.129-3.891 27.002-2.972 29.625z" fill="url(#SVGID_12_)"/>
      <path class="st20" d="m61.051 84.921c0.024-0.015 0.05-0.03 0.075-0.045 6.694-4.136 18.166-6.518 21.864-14.015 14.237-28.869 27.354-40.115 27.354-40.115-23.405 11.513-49.293 54.175-49.293 54.175z" fill="#f2f2f2" opacity=".1"/>
      <path class="st21" d="m63.512 77.118s-4.666-7.159 2.053-13.687c3.546-3.44 8.919-1.529 9.54-0.91 2.644 2.622 0.982 8.156-1.398 11.288-1.345 1.764-5.259 4.51-10.195 3.309z" fill="#2f4282"/>
      <path class="st22" d="m66.187 76.674s-3.224-4.949 1.422-9.459c2.446-2.376 6.161-1.056 6.592-0.63 1.826 1.812 0.676 5.637-0.968 7.8-0.929 1.223-3.635 3.119-7.046 2.289z" fill="url(#SVGID_13_)"/>
      <path d="m72.623 71.393c-0.072 1.978-1.746 3.522-3.738 3.454-1.996-0.069-3.558-1.726-3.487-3.704 0.071-1.977 1.744-3.521 3.741-3.453 1.992 0.069 3.553 1.727 3.484 3.703z"/>
      <circle class="st24" cx="66.725" cy="70.287" r="1.136" fill="#fff"/>
      <path class="st23" d="m228.5 65.01c-17.721-26.976-31.761-33.831-31.761-33.831s0.645 19.65 10.484 29.128c1.124 1.083-11.774-8.432-11.774-8.432s-2.758 9.076 3.562 19.51c-1.836-2.439-3.051-3.363-3.051-3.363s-11.908 5.491-15.423 13.109c-1.815-3.426-3.176-5.444-3.176-5.444s-8.236 16.437-7.201 35.495c1.684 30.988-5.803 42.404-5.803 42.404s20.057-7.695 29.676-32.468c3.974 10.533-0.121 21.619-0.121 21.619s16.206-12.109 19.691-34.18c3.863 6.23 2.727 18.664 2.727 18.664s10.344-14.402 10.596-30.086c4.794 3.343 5.235 16.399 5.235 16.399s15.336-19.606-3.661-48.524z" fill="url(#SVGID_14_)"/>
      <path class="st25" d="m211.28 46.158c-4.631-8.63-12.803-14.13-19.986-18.582-17.909-11.105-29.427-12.665-29.427-12.665s-16.528 3.074-13.689 7.672c0.146 0.236 0.487 0.535 0.968 0.877-14.498-6.678-22.722 8.677-22.722 8.677-8.284-0.503-18.371 3.575-21.312 14.499-0.305 1.134 3.711 0.496 5.777 0.945 12.079 2.626 23.45 8.32 28.675 11.134 12.154 6.548 19.365 17.451 23.528 25.629 5.037 9.894 7.094 27.304 7.094 27.304s13.253-18.205 10.086-27.552c5.249 3.26 6.285 14.891 6.285 14.891s8.835-13.838 6.223-25.891c6.815 4.153 7.042 12.601 7.042 12.601s6.939-9.631 3.803-25.427c6.858 5.453 8.293 12.517 8.293 12.517s5.606-14.993-0.638-26.629z" fill="url(#SVGID_15_)"/>
    </g>
    <g transform="matrix(.9017 0 0 .89858 227.68 178)">
      <path d="m2.7804 53.553h112.04c7.8046 0 14.131-6.268 14.131-14v-39h-112.04c-7.8046 0-14.131 6.268-14.131 14z" fill="url(#linearGradient-16)" stroke-width="1.0047"/>
      <path d="m39.193 26.827c0 3.8776-1.0928 6.8475-3.2784 8.9099-2.1856 2.0623-5.3417 3.0935-9.4683 3.0935h-6.6047v-23.556h7.3226c3.8075 0 6.7642 1.015 8.87 3.0451 2.1058 2.0301 3.1587 4.8658 3.1587 8.5071zm-5.137 0.12889c0-5.0592-2.2122-7.5887-6.6366-7.5887h-2.6323v15.339h2.1218c4.7647 0 7.1471-2.5832 7.1471-7.7498zm24.248 11.874-1.691-5.6069h-8.5031l-1.691 5.6069h-5.3284l8.2319-23.652h6.0463l8.2638 23.652zm-2.8716-9.796c-1.5634-5.0806-2.4435-7.9539-2.6403-8.6199-0.19676-0.66596-0.33768-1.1923-0.42276-1.579-0.35097 1.3749-1.356 4.7745-3.0152 10.199zm11.789 9.796v-23.556h4.9455v23.556zm11.47 0v-23.556h4.9455v19.431h9.4603v4.1246zm25.397-13.856 4.8658-9.6993h5.3284l-7.7373 14.388v9.1677h-4.9136v-9.0065l-7.7373-14.549h5.3603z" fill="#fff" stroke-width="1.0261"/>
    </g>
  </g>
</svg>
