<!-- This Source Code Form is subject to the terms of the Mozilla Public
   - License, v. 2.0. If a copy of the MPL was not distributed with this
   - file, You can obtain one at http://mozilla.org/MPL/2.0/. -->
<svg xmlns="http://www.w3.org/2000/svg" viewBox="0 0 789.1 90.78" width="333" height="48" fill="context-fill">
  <path d="M584.208.18H569.31V78.17h16.998c15.469 0 33.517-7.58 33.517-39.388 0-32.374-17.475-38.6-35.618-38.6zm2.1 8.603c11.364 0 23.11 3.624 23.11 29.998 0 25.693-11.173 30.897-22.345 30.897h-7.926V8.783zM671.008 64.244V36.97c0-12.45-6.016-19.81-19.098-19.81-6.111 0-12.127 1.361-18.811 4.073l2.387 7.58c5.538-2.03 10.6-3.162 14.61-3.162 7.544 0 11.363 3.162 11.363 11.769v4.418h-8.307c-15.183 0-23.968 6.9-23.968 19.694 0 10.638 6.493 17.998 17.379 17.998 6.589 0 12.318-2.722 16.138-8.941 1.718 5.884 5.156 8.26 10.694 8.941l2.101-7.245c-2.769-1.13-4.488-2.827-4.488-8.041zm-22.344 7.475c-6.207 0-9.358-3.737-9.358-10.752 0-8.156 5.06-12.23 15.087-12.23h7.066v13.696c-3.055 6.23-7.162 9.286-12.795 9.286zM695.263-10.12c-3.915 0-6.59 3.057-6.59 7.132 0 3.961 2.675 7.017 6.59 7.017 4.01 0 6.684-3.056 6.684-7.017 0-4.075-2.674-7.131-6.684-7.131zm4.87 28.641h-9.55V78.17h9.55zM730.498 79.53c2.77 0 5.443-.796 7.544-2.042l-2.483-7.245c-1.05.45-2.196.68-3.533.68-2.482 0-3.437-1.58-3.437-4.753V-6.724l-9.454 1.245v71.88c0 8.48 4.393 13.13 11.363 13.13zM788.843 18.521h-9.836L764.78 70.59 750.17 18.52h-10.121l18.334 59.648h3.15c-3.055 9.276-6.206 13.925-17.187 15.956l1.05 8.156c14.992-1.81 21.39-11.098 25.21-23.777z"/>
  <path d="M545 16.7c-2.6 0-4.7 2.18-4.7 4.87 0 2.7 2.1 4.84 4.7 4.84 2.8 0 4.9-2.14 4.9-4.84 0-2.69-2.1-4.87-4.9-4.87zm0 8.78c-2.1 0-3.7-1.63-3.7-3.91 0-2.27 1.6-3.94 3.7-3.94 2.3 0 3.8 1.67 3.8 3.94 0 2.28-1.5 3.91-3.8 3.91zm2.1-5.01c0-1.06-.7-1.59-2.3-1.59h-1.5v5.23h1.1V22.1h.5l1.1 2.01h1.3l-1.4-2.18c.7-.21 1.2-.7 1.2-1.46zm-2.7-.76h.5c.8 0 1.1.23 1.1.76 0 .57-.4.8-1 .8h-.6z"/>
  <path d="M50.226 1.698H0v12.72h17.703v63.806h14.149V14.418h16.835zM85.557 17.849c-6.156 0-10.782 2.98-14.821 8.404V-5.379L57.072-3.721v81.945h13.664V37.638c2.789-5.081 5.97-8.072 9.812-8.072 3.367 0 5.587 1.876 5.587 8.63v40.028h13.664V35.537c0-11.063-5.41-17.688-14.242-17.688zM154.455 19.618h-13.617v41.025c-2.425 4.749-5.596 7.633-9.42 7.633-3.731 0-5.503-2.101-5.503-8.523V19.618h-13.711v42.13c0 11.277 4.85 18.245 14.27 18.245 6.809 0 11.845-3.098 15.483-9.616l.653 7.847h11.845zM196.427 17.849c-6.53 0-11.473 3.312-15.576 9.176l-1.026-7.407h-11.846v58.606h13.618V37.745c2.798-5.188 5.876-8.18 9.793-8.18 3.544 0 5.596 1.877 5.596 8.63v40.029h13.71V35.537c0-11.063-5.315-17.688-14.27-17.688zM254.067-5.49v29.192c-3.077-3.43-7.181-5.853-12.404-5.853-12.592 0-20.706 12.928-20.706 31.066 0 18.696 6.529 31.078 19.4 31.078 6.808 0 11.472-3.87 14.55-8.962l.84 7.193h12.031V-3.721zm-9.7 73.766c-5.503 0-9.14-4.653-9.14-19.36 0-13.712 4.01-19.457 9.98-19.457 3.73 0 6.342 2.1 8.86 5.52v26.21c-2.704 4.653-5.596 7.087-9.7 7.087zM324.393 47.597c0-18.696-8.58-29.748-23.038-29.748-14.923 0-23.13 13.71-23.13 31.399 0 18.363 8.487 30.745 24.902 30.745 7.928 0 14.27-3.313 19.307-7.965l-5.69-8.844c-4.383 3.537-8.02 5.092-12.404 5.092-6.529 0-11.1-3.324-12.125-14.601h31.898c.094-1.662.28-4.095.28-6.078zm-13.617-3.763h-18.561c.653-11.063 4.104-15.265 9.42-15.265 6.53 0 9.14 5.756 9.14 14.6zM360.582 17.956c-5.97 0-10.82 4.867-13.245 13.046l-1.212-11.384H334.28v58.606h13.617V47.918c1.865-9.39 4.757-14.707 11.006-14.707 1.679 0 2.985.332 4.477.782l2.332-15.158c-1.68-.547-3.265-.879-5.13-.879zM400.035 17.849c-5.783 0-10.82 3.087-13.99 8.072v-31.41l-13.618 1.768v81.945h12.125l.746-5.746c3.172 4.749 7.742 7.515 13.338 7.515 12.685 0 20.24-12.94 20.24-31.078 0-19.574-6.902-31.066-18.841-31.066zm-5.223 50.534c-3.638 0-6.622-2.326-8.767-6.303V36.973c2.331-4.416 5.502-7.514 9.42-7.514 5.41 0 9.14 4.202 9.14 19.456 0 14.269-4.01 19.468-9.793 19.468zM436.504-10.576c-4.944 0-8.301 3.98-8.301 9.178 0 5.197 3.357 9.179 8.3 9.179 4.85 0 8.302-3.982 8.302-9.179 0-5.198-3.451-9.178-8.301-9.178zm6.902 30.194h-13.711v58.606h13.71zM483.139 17.956c-5.97 0-10.82 4.867-13.245 13.046l-1.306-11.384h-11.845v58.606h13.71V47.918c1.866-9.39 4.664-14.707 11.007-14.707 1.679 0 2.984.332 4.477.782l2.331-15.158c-1.772-.547-3.264-.879-5.13-.879zM522.592-5.49v29.192c-3.078-3.43-7.182-5.853-12.405-5.853-12.592 0-20.706 12.928-20.706 31.066 0 18.696 6.622 31.078 19.4 31.078 6.809 0 11.566-3.87 14.644-8.962l.746 7.193h12.032V-3.721zm-9.7 73.766c-5.503 0-9.14-4.653-9.14-19.36 0-13.712 4.01-19.457 9.98-19.457 3.823 0 6.342 2.1 8.86 5.52v26.21c-2.705 4.653-5.596 7.087-9.7 7.087z"/>
</svg>
