<!-- This Source Code Form is subject to the terms of the Mozilla Public
   - License, v. 2.0. If a copy of the MPL was not distributed with this
   - file, You can obtain one at http://mozilla.org/MPL/2.0/. -->
<svg width="334" height="48" viewBox="0 0 334 48" xmlns="http://www.w3.org/2000/svg">
  <path d="M259.443 21.877V39H265.227C267.021 39 268.616 38.6334 270.012 37.9023C271.424 37.1712 272.52 36.1573 273.301 34.8613C274.098 33.5487 274.496 32.0707 274.496 30.4258C274.496 28.7808 274.098 27.3097 273.301 26.0137C272.52 24.7177 271.424 23.7037 270.012 22.9727C268.616 22.2416 267.021 21.877 265.227 21.877H259.443ZM283.336 21.877L275.783 39H277.902L279.621 35.1113H289.168L290.887 39H293.006L285.453 21.877H283.336ZM296.25 21.877V39H298.193V21.877H296.25ZM302.217 21.877V39H313.506V37.1543H304.16V21.877H302.217ZM313.25 21.877L320.152 32.0215V39H322.197V32.0215L329.076 21.877H326.732L321.176 30.1758L315.668 21.877H313.25ZM261.387 23.6465H265.227C266.639 23.6465 267.891 23.938 268.988 24.5195C270.101 25.101 270.965 25.9054 271.58 26.9355C272.211 27.9491 272.527 29.1132 272.527 30.4258C272.527 31.7384 272.211 32.9094 271.58 33.9395C270.965 34.9697 270.101 35.7758 268.988 36.3574C267.891 36.9389 266.639 37.2305 265.227 37.2305H261.387V23.6465ZM284.406 24.2695L288.369 33.2676H280.42L284.406 24.2695Z" fill="url(#paint0_linear_4440_21087)"/>
  <path d="M205.285 7.70312C204.461 7.70312 203.75 8.0013 203.154 8.59766C202.586 9.16562 202.303 9.84745 202.303 10.6426C202.303 11.4378 202.586 12.1341 203.154 12.7305C203.75 13.3268 204.461 13.625 205.285 13.625C206.08 13.625 206.76 13.3268 207.328 12.7305C207.896 12.1341 208.182 11.4378 208.182 10.6426C208.182 9.84745 207.896 9.16562 207.328 8.59766C206.76 8.0013 206.08 7.70312 205.285 7.70312ZM32.5176 9.19336V38.9688H37.7129V25.6367C37.7129 24.302 38.2257 23.1802 39.248 22.2715C40.2987 21.3344 41.575 20.8652 43.0801 20.8652C44.4432 20.8652 45.5524 21.349 46.4043 22.3145C47.2562 23.2516 47.6816 24.4715 47.6816 25.9766V38.9688H52.75V24.9551C52.75 23.308 52.3955 21.8463 51.6855 20.5684C51.004 19.2621 50.0386 18.253 48.7891 17.543C47.568 16.8047 46.1626 16.4355 44.5723 16.4355C43.124 16.4355 41.7895 16.7629 40.5684 17.416C39.3473 18.0408 38.3945 18.8769 37.7129 19.9277V9.19336H32.5176ZM123.854 9.19336V20.3965C123.002 19.147 121.907 18.1816 120.572 17.5C119.266 16.7901 117.819 16.4355 116.229 16.4355C114.298 16.4355 112.565 16.9319 111.031 17.9258C109.498 18.8913 108.291 20.2549 107.41 22.0156C106.53 23.7479 106.09 25.7224 106.09 27.9375C106.09 30.1525 106.53 32.1397 107.41 33.9004C108.291 35.661 109.498 37.0373 111.031 38.0312C112.565 38.9967 114.298 39.4805 116.229 39.4805C117.819 39.4805 119.266 39.1406 120.572 38.459C121.907 37.7491 123.002 36.769 123.854 35.5195V38.9688H129.051V9.19336H123.854ZM175.812 9.19336V38.9688H181.01V35.5195C181.862 36.769 182.939 37.7491 184.246 38.459C185.58 39.1406 187.045 39.4805 188.635 39.4805C190.566 39.4805 192.297 38.9967 193.83 38.0312C195.364 37.0373 196.57 35.661 197.451 33.9004C198.331 32.1397 198.771 30.1525 198.771 27.9375C198.771 25.7224 198.331 23.7479 197.451 22.0156C196.57 20.2549 195.364 18.8913 193.83 17.9258C192.297 16.9319 190.566 16.4355 188.635 16.4355C187.045 16.4355 185.58 16.7901 184.246 17.5C182.939 18.1816 181.862 19.147 181.01 20.3965V9.19336H175.812ZM245.393 9.19336V20.3965C244.541 19.147 243.446 18.1816 242.111 17.5C240.805 16.7901 239.358 16.4355 237.768 16.4355C235.836 16.4355 234.103 16.9319 232.57 17.9258C231.036 18.8913 229.829 20.2549 228.949 22.0156C228.069 23.7479 227.629 25.7224 227.629 27.9375C227.629 30.1525 228.069 32.1397 228.949 33.9004C229.829 35.661 231.036 37.0373 232.57 38.0312C234.103 38.9967 235.836 39.4805 237.768 39.4805C239.358 39.4805 240.805 39.1406 242.111 38.459C243.446 37.7491 244.541 36.769 245.393 35.5195V38.9688H250.59V9.19336H245.393ZM4.07617 9.70508V14.5605H13.4473V38.9688H18.7715V14.5605H28.1016V9.70508H4.07617ZM255.482 14C254.385 14 253.5 14.9214 253.5 16.0566C253.5 17.196 254.385 18.0977 255.482 18.0977C256.664 18.0977 257.551 17.196 257.551 16.0566C257.551 14.9214 256.664 14 255.482 14ZM255.482 14.3926C256.453 14.3926 257.088 15.0987 257.088 16.0566C257.088 17.0188 256.453 17.7051 255.482 17.7051C254.596 17.7051 253.922 17.0188 253.922 16.0566C253.922 15.0987 254.596 14.3926 255.482 14.3926ZM254.766 14.9199V17.127H255.23V16.2793H255.441L255.904 17.127H256.453L255.863 16.207C256.159 16.1184 256.369 15.9125 256.369 15.5918C256.369 15.1445 256.073 14.9199 255.398 14.9199H254.766ZM255.23 15.2715H255.441C255.779 15.2715 255.904 15.3681 255.904 15.5918C255.904 15.8323 255.736 15.9297 255.482 15.9297H255.23V15.2715ZM94.3281 16.4355C92.8798 16.4355 91.5453 16.7483 90.3242 17.373C89.1314 17.9694 88.1952 18.793 87.5137 19.8438V16.9473H82.3164V38.9688H87.5137V25.6367C87.5137 24.302 88.0246 23.1802 89.0469 22.2715C90.0693 21.3344 91.3328 20.8652 92.8379 20.8652C94.201 20.8652 95.3083 21.349 96.1602 22.3145C97.0406 23.2516 97.4805 24.4715 97.4805 25.9766V38.9688H102.551V24.9551C102.551 23.308 102.194 21.8463 101.484 20.5684C100.803 19.2621 99.8374 18.253 98.5879 17.543C97.3384 16.8047 95.9184 16.4355 94.3281 16.4355ZM144.379 16.4355C142.306 16.4355 140.404 16.9319 138.672 17.9258C136.968 18.9197 135.617 20.2833 134.623 22.0156C133.629 23.7479 133.133 25.7079 133.133 27.8945C133.133 30.1095 133.645 32.0967 134.668 33.8574C135.718 35.6181 137.124 36.9963 138.885 37.9902C140.645 38.9841 142.576 39.4805 144.678 39.4805C146.297 39.4805 147.956 39.1678 149.66 38.543C151.364 37.8899 152.684 37.0662 153.621 36.0723L150.641 33.0059C149.931 33.6875 149.007 34.242 147.871 34.668C146.763 35.094 145.642 35.3066 144.506 35.3066C142.831 35.3066 141.425 34.7812 140.289 33.7305C139.153 32.6514 138.443 31.2314 138.16 29.4707H155.197C155.197 25.4382 154.234 22.2563 152.303 19.9277C150.4 17.599 147.758 16.4355 144.379 16.4355ZM171.992 16.4355C170.231 16.4355 168.655 16.861 167.264 17.7129C165.872 18.5365 164.821 19.6728 164.111 21.1211V16.9473H158.914V38.9688H164.111V27.8516C164.111 25.7501 164.835 24.0611 166.283 22.7832C167.731 21.5052 169.635 20.8652 171.992 20.8652V16.4355ZM226.002 16.4355C224.241 16.4355 222.664 16.861 221.273 17.7129C219.881 18.5365 218.831 19.6728 218.121 21.1211V16.9473H212.926V38.9688H218.121V27.8516C218.121 25.7501 218.847 24.0611 220.295 22.7832C221.743 21.5052 223.645 20.8652 226.002 20.8652V16.4355ZM57.0527 16.9473V30.9609C57.0527 32.608 57.3927 34.0843 58.0742 35.3906C58.7842 36.6685 59.7496 37.6776 60.9707 38.416C62.2202 39.1259 63.6402 39.4805 65.2305 39.4805C66.6788 39.4805 67.9987 39.1823 69.1914 38.5859C70.4125 37.9612 71.3654 37.123 72.0469 36.0723V38.9688H77.2852V16.9473H72.0469V30.2793C72.0469 31.614 71.5361 32.7504 70.5137 33.6875C69.4914 34.5962 68.2278 35.0508 66.7227 35.0508C65.3596 35.0508 64.2378 34.5816 63.3574 33.6445C62.5055 32.679 62.0781 31.4445 62.0781 29.9395V16.9473H57.0527ZM202.686 16.9473V38.9688H207.883V16.9473H202.686ZM144.465 20.6094C146.055 20.6094 147.333 21.1077 148.299 22.1016C149.293 23.0955 149.916 24.4008 150.172 26.0195H138.201C138.542 24.3724 139.282 23.0671 140.418 22.1016C141.554 21.1077 142.903 20.6094 144.465 20.6094ZM117.635 20.8652C119.452 20.8652 120.941 21.5324 122.105 22.8672C123.27 24.1735 123.854 25.8644 123.854 27.9375C123.854 29.3006 123.584 30.5205 123.045 31.5996C122.533 32.6788 121.793 33.5315 120.828 34.1562C119.89 34.7525 118.827 35.0508 117.635 35.0508C115.76 35.0508 114.226 34.3835 113.033 33.0488C111.841 31.7141 111.244 30.0105 111.244 27.9375C111.244 25.8644 111.841 24.1735 113.033 22.8672C114.226 21.5324 115.76 20.8652 117.635 20.8652ZM187.229 20.8652C189.103 20.8652 190.635 21.5324 191.828 22.8672C193.021 24.1735 193.617 25.8644 193.617 27.9375C193.617 30.0105 193.021 31.7141 191.828 33.0488C190.635 34.3835 189.103 35.0508 187.229 35.0508C186.036 35.0508 184.956 34.7525 183.99 34.1562C183.053 33.5315 182.315 32.6788 181.775 31.5996C181.264 30.5205 181.01 29.3006 181.01 27.9375C181.01 25.8644 181.592 24.1735 182.756 22.8672C183.92 21.5324 185.411 20.8652 187.229 20.8652ZM239.174 20.8652C240.992 20.8652 242.482 21.5324 243.646 22.8672C244.81 24.1735 245.393 25.8644 245.393 27.9375C245.393 29.3006 245.122 30.5205 244.582 31.5996C244.071 32.6788 243.333 33.5315 242.367 34.1562C241.43 34.7525 240.367 35.0508 239.174 35.0508C237.3 35.0508 235.765 34.3835 234.572 33.0488C233.379 31.7141 232.783 30.0105 232.783 27.9375C232.783 25.8644 233.379 24.1735 234.572 22.8672C235.765 21.5324 237.3 20.8652 239.174 20.8652Z" fill="context-fill"/>
  <defs>
    <linearGradient id="paint0_linear_4440_21087" x1="257.5" y1="17.9998" x2="331.232" y2="44.9989" gradientUnits="userSpaceOnUse">
      <stop stop-color="#E247C4"/>
      <stop offset="1" stop-color="#A855F7"/>
    </linearGradient>
  </defs>
</svg>
