<!-- This Source Code Form is subject to the terms of the Mozilla Public
   - License, v. 2.0. If a copy of the MPL was not distributed with this
   - file, You can obtain one at http://mozilla.org/MPL/2.0/. -->
<svg width="210" height="210" viewBox="0 0 210 210" fill="none" xmlns="http://www.w3.org/2000/svg">
<g clip-path="url(#clip0_718_9932)">
<path d="M88.7704 54.9564L88.7869 54.9564C94.1542 36.1932 117.543 27.033 141.377 27.033C157.844 27.033 172.63 32.2484 182.764 40.5249C176.486 40.8361 170.514 42.0645 165.047 44.0471C173.236 47.0893 180.27 51.7729 185.485 57.5671C182.026 56.9693 178.438 56.6547 174.759 56.6547C174.362 56.6547 173.966 56.6584 173.571 56.6657C183.045 70.4008 188.592 87.0526 188.592 105C188.592 152.073 150.432 190.233 103.36 190.233C57.0123 190.233 18.1267 151.427 18.1267 105C18.1267 97.6676 19.1027 90.0945 20.994 82.9965C21.4888 81.5055 22.1808 80.0757 23.0997 79.5526C24.2498 78.898 25.2952 80.8498 25.4645 81.4854C26.7136 86.1751 28.3965 90.7107 30.4723 95.0553C30.291 85.3228 34.4476 76.4607 40.1673 68.7928C43.9797 63.6819 47.5138 58.944 49.1461 45.2754C49.2557 44.3579 50.1257 43.6974 51.0039 43.985C63.415 48.0483 70.0498 68.713 69.0166 85.9932C75.873 86.9733 75.8413 79.8118 75.8413 79.8118C73.6497 73.0769 75.1109 60.5574 88.7481 54.9564L88.7704 54.9564Z" fill="url(#paint0_linear_718_9932)"/>
<path opacity="0.9" d="M185.804 83.2947C187.877 130.174 149.339 170.589 102.345 170.589C58.3541 170.589 22.3046 136.587 19.0439 93.4308C18.4694 97.4177 18.1584 101.49 18.1292 105.629C18.463 151.811 57.2544 190.233 103.36 190.233C150.432 190.233 188.592 152.073 188.592 105C188.592 97.4991 187.623 90.2246 185.804 83.2947Z" fill="url(#paint1_radial_718_9932)"/>
<path d="M101.38 61.2088C100.462 59.5834 96.2213 57.1805 94.3689 56.7612C101.38 34.2971 137.111 27.4001 158.98 31.3748C168.079 33.0286 179.414 37.99 182.861 40.565C172.727 32.2885 157.941 27.073 141.474 27.073C117.64 27.073 94.2516 36.2333 88.8842 54.9965L88.8677 54.9964L88.8455 54.9964C75.2083 60.5974 73.7487 73.1207 75.9404 79.8556C78.0431 71.8221 88.0553 61.95 101.38 61.2088Z" fill="url(#paint2_linear_718_9932)"/>
<path d="M126.051 45.6547C106.906 49.4217 100.649 50.6528 94.2407 56.7443C101.437 37.6919 119.808 33.8318 141.696 42.5154C135.671 43.7618 130.512 44.7771 126.051 45.6547Z" fill="url(#paint3_linear_718_9932)"/>
<g style="mix-blend-mode:multiply">
<path d="M22.7534 80.3871C17.5231 101.801 21.5646 126.972 45.3273 148.095C38.2528 140.36 29.6169 111.795 48.6763 91.386C49.9602 90.0112 52.1691 91.0229 52.2387 92.9027C53.8089 135.314 88.0331 161.217 127.487 156.373C115.262 155.686 74.8329 141.527 104.907 135.924C120.627 132.996 145.275 128.404 145.275 106.29C145.275 70.4368 117.553 59.9547 100.745 61.5143C89.2396 62.5817 79.0005 69.8814 75.848 79.8087C77.0578 83.7233 72.2352 86.4639 69.0166 86.0039C70.0498 68.7237 63.415 48.0482 51.0039 43.9848C50.1257 43.6973 49.2556 44.3577 49.1461 45.2753C47.5138 58.9438 43.9796 63.6817 40.1673 68.7926C34.4476 76.4605 30.291 85.3227 30.4723 95.0551C28.3964 90.7105 26.7136 86.1749 25.4645 81.4853C25.3243 80.959 24.5631 79.4923 23.6418 79.423C23.143 79.3855 22.879 79.8727 22.7534 80.3871Z" fill="url(#paint4_radial_718_9932)"/>
</g>
<path d="M94.3467 138.094C117.49 156.886 164.036 142.798 164.036 97.104C145.244 125.588 121.311 145.235 94.3467 138.094Z" fill="url(#paint5_linear_718_9932)"/>
<path d="M48.6758 91.3861C49.1644 90.8629 49.7875 90.6832 50.3764 90.765C33.3152 111.572 47.0755 148.119 56.5202 157.096C57.048 158.591 47.5614 150.817 46.2532 148.996C39.0698 142.902 28.7739 112.697 48.6758 91.3861Z" fill="url(#paint6_linear_718_9932)"/>
<path d="M103.359 139.815C126.509 139.815 145.277 124.502 145.277 105.613C145.277 86.723 126.509 71.4099 103.359 71.4099C83.6093 71.4099 61.4342 84.2587 61.4414 106.112C61.4526 139.883 97.1281 159.31 127.538 156.369C125.254 156.104 111.004 155.347 101.373 144.451C100.504 143.469 98.9961 141.756 99.6801 140.642C100.364 139.528 102.243 139.815 103.359 139.815Z" fill="url(#paint7_linear_718_9932)"/>
<path opacity="0.6" d="M140.71 90.0739L107.583 121.771C104.643 123.86 101.513 124.013 98.4236 122.116L65.9353 90.188C66.8504 88.7128 67.8927 87.2989 69.0504 85.9561C70.221 87.0508 71.3545 88.1125 72.4604 89.1484C80.9955 97.1427 87.8943 103.604 97.6171 111.903C102.006 115.649 103.371 115.575 107.674 111.903C118.8 102.407 126.934 95.2203 137.511 85.7776C138.701 87.1389 139.772 88.5744 140.71 90.0739Z" fill="white"/>
<path opacity="0.7" fill-rule="evenodd" clip-rule="evenodd" d="M103.359 139.815C126.509 139.815 145.277 124.502 145.277 105.613C145.277 99.8449 143.527 94.4106 140.437 89.6438L107.167 119.861C104.844 121.971 100.93 121.971 98.6072 119.861L65.9563 90.2058C63.115 94.7736 61.4394 100.102 61.4414 106.112C61.4526 139.883 97.1281 159.31 127.538 156.369C127.401 156.353 127.219 156.335 126.998 156.314L126.997 156.314C123.55 155.976 110.423 154.689 101.373 144.451C100.504 143.469 98.9961 141.756 99.6801 140.642C100.254 139.707 101.672 139.759 102.772 139.8C102.982 139.808 103.18 139.815 103.359 139.815Z" fill="url(#paint8_linear_718_9932)"/>
<mask id="mask0_718_9932" style="mask-type:luminance" maskUnits="userSpaceOnUse" x="61" y="89" width="85" height="68">
<path opacity="0.7" fill-rule="evenodd" clip-rule="evenodd" d="M103.359 139.815C126.509 139.815 145.277 124.502 145.277 105.613C145.277 99.8449 143.527 94.4106 140.437 89.6438L107.167 119.861C104.844 121.971 100.93 121.971 98.6072 119.861L65.9563 90.2058C63.115 94.7736 61.4394 100.102 61.4414 106.112C61.4526 139.883 97.1281 159.31 127.538 156.369C127.401 156.353 127.219 156.335 126.998 156.314L126.997 156.314C123.55 155.976 110.423 154.689 101.373 144.451C100.504 143.469 98.9961 141.756 99.6801 140.642C100.254 139.707 101.672 139.759 102.772 139.8C102.982 139.808 103.18 139.815 103.359 139.815Z" fill="white"/>
</mask>
<g mask="url(#mask0_718_9932)">
<g filter="url(#filter0_f_718_9932)">
<path fill-rule="evenodd" clip-rule="evenodd" d="M93.6292 120.062C87.4559 113.637 68.9663 92.2938 68.9663 92.2938L70.3975 92.3553L99.3411 113.974C101.51 115.549 104.601 115.533 106.749 113.936L135.131 92.3831L136.638 92.2661C136.638 92.2661 118.753 113.103 111.903 119.968C105.053 126.833 99.8025 126.487 93.6292 120.062Z" fill="#458FCD"/>
</g>
</g>
<path d="M109.24 54.3018C113.726 52.8893 113.333 48.4483 113.333 48.4483C113.333 48.4483 111.089 45.8079 106.645 47.2714C102.484 48.6413 101.84 51.6034 101.84 51.6034C101.84 51.6034 104.112 55.9165 109.24 54.3018Z" fill="white"/>
</g>
<defs>
<filter id="filter0_f_718_9932" x="61.1736" y="84.4734" width="83.257" height="48.3188" filterUnits="userSpaceOnUse" color-interpolation-filters="sRGB">
<feFlood flood-opacity="0" result="BackgroundImageFix"/>
<feBlend mode="normal" in="SourceGraphic" in2="BackgroundImageFix" result="shape"/>
<feGaussianBlur stdDeviation="3.89635" result="effect1_foregroundBlur_718_9932"/>
</filter>
<linearGradient id="paint0_linear_718_9932" x1="80.135" y1="60.6301" x2="167.863" y2="167.201" gradientUnits="userSpaceOnUse">
<stop stop-color="#F53DB8"/>
<stop offset="1" stop-color="#590DF2"/>
</linearGradient>
<radialGradient id="paint1_radial_718_9932" cx="0" cy="0" r="1" gradientUnits="userSpaceOnUse" gradientTransform="translate(47.4891 93.6891) rotate(66.5179) scale(72.0721 69.0432)">
<stop offset="0.525579" stop-color="#0B4186" stop-opacity="0"/>
<stop offset="1" stop-color="#0B4186" stop-opacity="0.45"/>
</radialGradient>
<linearGradient id="paint2_linear_718_9932" x1="118.621" y1="69.5674" x2="89.3242" y2="49.074" gradientUnits="userSpaceOnUse">
<stop stop-color="#D13AEF" stop-opacity="0"/>
<stop offset="1" stop-color="#F9D286" stop-opacity="0.9"/>
</linearGradient>
<linearGradient id="paint3_linear_718_9932" x1="62.1398" y1="97.9243" x2="124.378" y2="35.6864" gradientUnits="userSpaceOnUse">
<stop stop-color="#450FB0"/>
<stop offset="1" stop-color="#450FB0" stop-opacity="0"/>
</linearGradient>
<radialGradient id="paint4_radial_718_9932" cx="0" cy="0" r="1" gradientUnits="userSpaceOnUse" gradientTransform="translate(71.2144 151.439) rotate(-64.2627) scale(112.439 138.894)">
<stop offset="0.0160882" stop-color="#650877"/>
<stop offset="0.967387" stop-color="#340B86" stop-opacity="0"/>
</radialGradient>
<linearGradient id="paint5_linear_718_9932" x1="156.914" y1="118.665" x2="127.12" y2="156.044" gradientUnits="userSpaceOnUse">
<stop stop-color="#D647E2" stop-opacity="0"/>
<stop offset="1" stop-color="#E7BB65" stop-opacity="0.64"/>
</linearGradient>
<linearGradient id="paint6_linear_718_9932" x1="35.1632" y1="88.9499" x2="48.8989" y2="145.979" gradientUnits="userSpaceOnUse">
<stop offset="0.104632" stop-color="#F9BF86"/>
<stop offset="1" stop-color="#D63AEF" stop-opacity="0"/>
</linearGradient>
<linearGradient id="paint7_linear_718_9932" x1="103.36" y1="83.9355" x2="103.36" y2="156.018" gradientUnits="userSpaceOnUse">
<stop stop-color="white"/>
<stop offset="0.90535" stop-color="#BEE1FE"/>
<stop offset="1" stop-color="#96CEFD"/>
</linearGradient>
<linearGradient id="paint8_linear_718_9932" x1="104.709" y1="124.725" x2="104.709" y2="154.922" gradientUnits="userSpaceOnUse">
<stop stop-color="#BCE0FD"/>
<stop offset="1" stop-color="#88CCFC"/>
</linearGradient>
<clipPath id="clip0_718_9932">
<rect width="210" height="210" fill="white"/>
</clipPath>
</defs>
</svg>
