<!-- This Source Code Form is subject to the terms of the Mozilla Public
   - License, v. 2.0. If a copy of the MPL was not distributed with this
   - file, You can obtain one at http://mozilla.org/MPL/2.0/. -->
<svg width="24" height="24" viewBox="0 0 24 24" xmlns="http://www.w3.org/2000/svg">
  <path d="M6 0.5C4.615 0.5 3.5 1.615 3.5 3V3.5H17.5V3C17.5 1.615 16.385 0.5 15 0.5H6ZM3.5 18.5V19C3.5 20.385 4.615 21.5 6 21.5H11V18.5H3.5Z" fill-opacity="context-fill-opacity" fill="context-fill"/>
  <path d="M6 0C4.34665 0 3 1.34665 3 3V19C3 20.6534 4.34665 22 6 22H11V21H6C4.88336 21 4 20.1166 4 19H11V18H4V4H17V12H18V3C18 1.34665 16.6533 0 15 0H6ZM6 1H15C16.1166 1 17 1.88336 17 3H4C4 1.88336 4.88336 1 6 1ZM15.0039 13C13.349 13 12 14.349 12 16.0039V20.9961C12 22.651 13.349 24 15.0039 24H19.9961C21.651 24 23 22.651 23 20.9961V16.0039C23 14.349 21.651 13 19.9961 13H15.0039ZM15.0039 14.0059H19.9961C21.1111 14.0059 21.9941 14.8889 21.9941 16.0039V20.9961C21.9941 22.1111 21.1111 22.9941 19.9961 22.9941H15.0039C13.8889 22.9941 13.0059 22.1111 13.0059 20.9961V16.0039C13.0059 14.8889 13.8889 14.0059 15.0039 14.0059ZM17.5 16C17.2239 16 17 16.2239 17 16.5V19.293L15.8535 18.1465C15.6582 17.9513 15.3418 17.9513 15.1465 18.1465C14.9513 18.3418 14.9513 18.6582 15.1465 18.8535L17.1465 20.8535C17.3418 21.0487 17.6582 21.0487 17.8535 20.8535L19.8535 18.8535C20.0487 18.6582 20.0487 18.3418 19.8535 18.1465C19.6582 17.9513 19.3418 17.9513 19.1465 18.1465L18 19.293V16.5C18 16.2239 17.7761 16 17.5 16Z" fill-opacity="context-stroke-opacity" fill="context-stroke"/>
</svg>
