<!-- This Source Code Form is subject to the terms of the Mozilla Public
   - License, v. 2.0. If a copy of the MPL was not distributed with this
   - file, You can obtain one at http://mozilla.org/MPL/2.0/. -->
<svg xmlns="http://www.w3.org/2000/svg" width="24" height="24" fill="none">
  <path stroke="#1373d9" stroke-width="2.25" d="m8.744 11.84 3.75-8.563" opacity=".2"/>
  <path fill="#1373d9" d="M15.488 1.875a2.015 2.015 0 0 1 1.884 2.729l-.052.125-1.453 3.165h.001l-4.048 8.83h-.002l-.632 1.382 6.588-5.731h-2.307l1.03-2.25h4.283a1.125 1.125 0 0 1 .739 1.974l-11.234 9.775c-1.274 1.11-3.162-.302-2.458-1.838l3.134-6.837 2.862-6.242 1.3-2.832H9.367a1.1 1.1 0 0 0-.943.535l-.074.148-2.175 5.317h4.548l-1.03 2.25H4.5a1.125 1.125 0 0 1-1.04-1.55l2.809-6.869.104-.23a3.35 3.35 0 0 1 2.995-1.851z"/>
</svg>
