<!-- This Source Code Form is subject to the terms of the Mozilla Public
   - License, v. 2.0. If a copy of the MPL was not distributed with this
   - file, You can obtain one at http://mozilla.org/MPL/2.0/. -->
<svg width="24" height="24" viewBox="0 0 24 24" xmlns="http://www.w3.org/2000/svg">
  <path d="M11.5 16C11.2239 16 11 15.7761 11 15.5V5.70711L6.85355 9.85355C6.65829 10.0488 6.34171 10.0488 6.14645 9.85355C5.95118 9.65829 5.95118 9.34171 6.14645 9.14645L11.1465 4.14645C11.3417 3.95118 11.6583 3.95118 11.8535 4.14645L16.8536 9.14645C17.0488 9.34171 17.0488 9.65829 16.8536 9.85355C16.6583 10.0488 16.3417 10.0488 16.1464 9.85355L12 5.70711V15.5C12 15.7761 11.7761 16 11.5 16ZM6 16.5C6 16.2239 5.77614 16 5.5 16C5.22386 16 5 16.2239 5 16.5V17.5C5 18.3301 5.66986 19 6.5 19H16.5C17.3301 19 18 18.3301 18 17.5V16.5C18 16.2239 17.7761 16 17.5 16C17.2239 16 17 16.2239 17 16.5V17.5C17 17.7779 16.7779 18 16.5 18H6.5C6.22214 18 6 17.7779 6 17.5V16.5Z" fill-opacity="context-stroke-opacity" fill="context-stroke"/>
</svg>
