<!-- This Source Code Form is subject to the terms of the Mozilla Public
   - License, v. 2.0. If a copy of the MPL was not distributed with this
   - file, You can obtain one at http://mozilla.org/MPL/2.0/. -->
<svg xmlns="http://www.w3.org/2000/svg" fill-opacity="context-fill-opacity" viewBox="0 0 16 16" height="16" width="16">
  <path d="M8 .498a1 1 0 0 0-.48.123l-5.5 3c-.32.176-.52.514-.52.879v7c0 .365.2.703.52.879l1.48.807V12c0-.831.669-1.5 1.5-1.5h1.5c-.741-.295-1.999-1.953-2-3.5a3.5 3.5 0 0 1 7 0c-.001 1.547-1.259 3.205-2 3.5H11c.831 0 1.5.669 1.5 1.5v1.186l1.48-.807c.32-.176.52-.514.52-.879v-7c0-.365-.2-.703-.52-.879l-5.5-3A1 1 0 0 0 8 .498ZM7.969 15.5h.062z" fill="context-fill"/>
  <path d="M8-.002c-.248 0-.496.06-.72.184l-5.5 3A1.5 1.5 0 0 0 1 4.5v7a1.502 1.502 0 0 0 .78 1.318l5.5 3c.448.246.992.246 1.44 0l5.5-3A1.5 1.5 0 0 0 15 11.5v-7a1.502 1.502 0 0 0-.78-1.318l-5.5-3A1.499 1.499 0 0 0 8-.002ZM8 1a.5.5 0 0 1 .24.06l5.5 3c.16.088.26.258.26.44v7c0 .182-.1.352-.26.44l-.74.404V12c0-1.1-.9-2-2-2h-.326c.167-.2.372-.269.527-.514C11.646 8.782 12 7.91 12 7c0-2.203-1.797-4-4-4-2.203 0-4 1.797-4 4 0 .909.354 1.782.799 2.486.155.245.36.314.527.514H5c-1.1 0-2 .9-2 2v.344l-.74-.405A.503.503 0 0 1 2 11.5v-7c0-.182.1-.352.26-.44l5.5-3A.5.5 0 0 1 8 1Zm0 3c1.663 0 3 1.337 3 3 0 .638-.275 1.368-.645 1.953-.369.585-.879 1.018-1.04 1.082A.5.5 0 0 0 9.5 11H11c.563 0 1 .437 1 1v.889l-3.76 2.05a.502.502 0 0 1-.48 0L4 12.89V12c0-.563.437-1 1-1h1.5a.5.5 0 0 0 .186-.965c-.162-.064-.672-.497-1.041-1.082C5.275 8.368 5 7.638 5 7c0-1.663 1.337-3 3-3Z" fill="context-stroke"/>
</svg>
