<!-- This Source Code Form is subject to the terms of the Mozilla Public
   - License, v. 2.0. If a copy of the MPL was not distributed with this
   - file, You can obtain one at http://mozilla.org/MPL/2.0/. -->
<svg xmlns="http://www.w3.org/2000/svg" viewBox="0 0 16 16" height="16" width="16">
  <path d="M7.5.47A7.03 7.03 0 0 0 .47 7.5a7.03 7.03 0 0 0 7.03 7.03 7.03 7.03 0 0 0 7.03-7.03A7.03 7.03 0 0 0 7.5.47Z" stroke-opacity="0.2" stroke="context-stroke" fill="context-fill"/>
  <path d="M7.5 4a.5.5 0 0 0-.5.5V7H4.5a.5.5 0 0 0 0 1H7v2.5a.5.5 0 0 0 1 0V8h2.5a.5.5 0 0 0 0-1H8V4.5a.5.5 0 0 0-.5-.5Z" fill="context-stroke"/>
</svg>
