<!-- This Source Code Form is subject to the terms of the Mozilla Public
   - License, v. 2.0. If a copy of the MPL was not distributed with this
   - file, You can obtain one at http://mozilla.org/MPL/2.0/. -->
<svg xmlns="http://www.w3.org/2000/svg" fill-opacity="context-fill-opacity" viewBox="0 0 16 16" height="16" width="16">
  <path fill-opacity="1" d="M7.5 0A7.5 7.5 0 0 0 0 7.5 7.5 7.5 0 0 0 7.5 15 7.5 7.5 0 0 0 15 7.5 7.5 7.5 0 0 0 7.5 0Z" fill="context-fill"/>
  <path fill-opacity="1" d="M7.5 4a.5.5 0 0 0-.5.5V7H4.5a.5.5 0 0 0 0 1H7v2.5a.5.5 0 0 0 1 0V8h2.5a.5.5 0 0 0 0-1H8V4.5a.5.5 0 0 0-.5-.5Z" fill="context-stroke"/>
</svg>
