<!-- This Source Code Form is subject to the terms of the Mozilla Public
   - License, v. 2.0. If a copy of the MPL was not distributed with this
   - file, You can obtain one at http://mozilla.org/MPL/2.0/. -->
<svg xmlns="http://www.w3.org/2000/svg" fill-opacity="context-fill-opacity" viewBox="0 0 16 16" width="16" height="16">
  <path d="M4 1c-1.1 0-2 .9-2 2h-.5a.5.5 0 0 0 0 1H2v2h-.5a.5.5 0 0 0-.492.5.5.5 0 0 0 .492.5H2v2h-.5a.5.5 0 0 0 0 1H2v2h-.5a.5.5 0 0 0-.492.5.5.5 0 0 0 .492.5H2c0 1.1.9 2 2 2h8c1.1 0 2-.9 2-2V3c0-1.1-.9-2-2-2Zm0 1h8c.563 0 1 .437 1 1v10c0 .563-.437 1-1 1H4c-.563 0-1-.437-1-1h.5a.5.5 0 0 0 .428-.748A.5.5 0 0 0 3.5 12H3v-2h.5a.5.5 0 0 0 .428-.252A.5.5 0 0 0 3.5 9H3V7h.5a.5.5 0 0 0 .428-.252.5.5 0 0 0 0-.496A.5.5 0 0 0 3.5 6H3V4h.5a.5.5 0 0 0 .428-.252A.5.5 0 0 0 3.5 3H3c0-.563.437-1 1-1Zm4.5 2c-.861 0-1.537.312-1.947.805C6.143 5.297 6 5.917 6 6.5c0 .861.298 1.486.61 1.875.181.227.258.243.39.334V9h-.5C5.678 9 5 9.678 5 10.5v1a.5.5 0 0 0 .5.5.5.5 0 0 0 .5-.5v-1c0-.286.214-.5.5-.5h1a.5.5 0 0 0 .5-.5v-1a.5.5 0 0 0-.277-.447s-.143-.067-.332-.303C7.2 7.514 7 7.139 7 6.5c0-.417.108-.797.322-1.055C7.537 5.188 7.862 5 8.5 5c.639 0 .963.188 1.178.445.214.258.322.638.322 1.055 0 .639-.202 1.014-.39 1.25-.19.236-.333.303-.333.303A.5.5 0 0 0 9 8.5v1a.5.5 0 0 0 .5.5h1c.286 0 .5.214.5.5v1a.5.5 0 0 0 .5.5.5.5 0 0 0 .5-.5v-1c0-.822-.678-1.5-1.5-1.5H10v-.291c.132-.091.209-.107.39-.334.312-.389.61-1.014.61-1.875 0-.583-.142-1.203-.553-1.695C10.037 4.312 9.361 4 8.5 4Z" fill="context-stroke"/>
  <path d="M4 2c-.554 0-1 .446-1 1v10c0 .554.446 1 1 1h8c.554 0 1-.446 1-1V3c0-.554-.446-1-1-1Z" fill="context-fill"/>
</svg>
