<!-- This Source Code Form is subject to the terms of the Mozilla Public
   - License, v. 2.0. If a copy of the MPL was not distributed with this
   - file, You can obtain one at http://mozilla.org/MPL/2.0/. -->
<svg xmlns="http://www.w3.org/2000/svg" width="24" height="24">
  <path fill="#D7BC96" d="M6 1C4.347 1 3 2.347 3 4v16c0 1.653 1.347 3 3 3h12c1.653 0 3-1.347 3-3V4c0-1.653-1.347-3-3-3H6Z"/>
  <path fill="#000" d="M3 19v1c0 1.653 1.347 3 3 3h12c1.653 0 3-1.347 3-3v-1c0 1.653-1.347 3-3 3H6c-1.653 0-3-1.347-3-3Z" opacity=".15"/>
  <path fill="#fff" d="M6 1C4.347 1 3 2.347 3 4v15c0 1.653 1.347 3 3 3h12c1.653 0 3-1.347 3-3V4c0-1.653-1.347-3-3-3H6Z"/>
  <path fill="url(#a)" d="M6 1C4.347 1 3 2.347 3 4v14c0 1.653 1.347 3 3 3h12c1.653 0 3-1.347 3-3V4c0-1.653-1.347-3-3-3H6Z"/>
  <path fill="#000" d="M4.5 3C3.678 3 3 3.678 3 4.5 3 5.323 3.678 6 4.5 6S6 5.323 6 4.5C6 3.678 5.322 3 4.5 3Zm0 3C3.678 6 3 6.678 3 7.5 3 8.323 3.678 9 4.5 9S6 8.323 6 7.5C6 6.678 5.322 6 4.5 6Zm0 3C3.678 9 3 9.678 3 10.5S3.678 12 4.5 12 6 11.322 6 10.5 5.322 9 4.5 9Zm0 3c-.822 0-1.5.678-1.5 1.5S3.678 15 4.5 15 6 14.322 6 13.5 5.322 12 4.5 12Zm0 3c-.822 0-1.5.678-1.5 1.5 0 .823.678 1.5 1.5 1.5S6 17.323 6 16.5c0-.822-.678-1.5-1.5-1.5Z" opacity=".15"/>
  <path fill="url(#b)" d="M2.5 4a.499.499 0 1 0 0 1h2a.499.499 0 1 0 0-1h-2Zm0 3a.499.499 0 1 0 0 1h2a.499.499 0 1 0 0-1h-2Zm0 3a.499.499 0 1 0 0 1h2a.499.499 0 1 0 0-1h-2Zm0 3a.499.499 0 1 0 0 1h2a.499.499 0 1 0 0-1h-2Zm0 3a.499.499 0 1 0 0 1h2a.499.499 0 1 0 0-1h-2Z"/>
  <path fill="#fff" d="M12 5C9.797 5 8 6.797 8 9c0 .827.128 1.682.488 2.418.3.613.836 1.088 1.512 1.371V13H8.5c-.822 0-1.5.678-1.5 1.5v3a.5.5 0 0 0 1 0v-3c0-.286.214-.5.5-.5h2a.5.5 0 0 0 .5-.5v-1a.5.5 0 0 0-.387-.486c-.598-.14-.962-.496-1.226-1.035C9.123 10.439 9 9.719 9 9c0-1.663 1.337-3 3-3s3 1.337 3 3c0 .695-.123 1.416-.389 1.963-.265.546-.631.912-1.224 1.05A.5.5 0 0 0 13 12.5v1a.5.5 0 0 0 .5.5h2c.286 0 .5.214.5.5v3a.5.5 0 0 0 1 0v-3c0-.822-.678-1.5-1.5-1.5H14v-.213c.678-.287 1.213-.772 1.512-1.389.36-.74.487-1.593.488-2.398 0-2.203-1.797-4-4-4Z" opacity=".3"/>
  <path fill="url(#c)" d="M12 4C9.797 4 8 5.797 8 8c0 .827.128 1.682.488 2.418.3.613.836 1.088 1.512 1.371V12H8.5c-.822 0-1.5.678-1.5 1.5v3a.5.5 0 0 0 1 0v-3c0-.286.214-.5.5-.5h2a.5.5 0 0 0 .5-.5v-1a.5.5 0 0 0-.387-.486c-.598-.14-.962-.496-1.226-1.035C9.123 9.439 9 8.719 9 8c0-1.663 1.337-3 3-3s3 1.337 3 3c0 .695-.123 1.416-.389 1.963-.265.546-.631.912-1.224 1.05A.5.5 0 0 0 13 11.5v1a.5.5 0 0 0 .5.5h2c.286 0 .5.214.5.5v3a.5.5 0 0 0 1 0v-3c0-.822-.678-1.5-1.5-1.5H14v-.213c.678-.287 1.213-.772 1.512-1.389.36-.74.487-1.593.488-2.398 0-2.203-1.797-4-4-4Z"/>
  <defs>
    <linearGradient id="a" x1="12" x2="12" y1="1" y2="22" gradientUnits="userSpaceOnUse">
      <stop stop-color="#F4E9D7"/>
      <stop offset="1" stop-color="#D7BC96"/>
    </linearGradient>
    <linearGradient id="b" x1="2" x2="5" y1="7.5" y2="7.5" gradientUnits="userSpaceOnUse">
      <stop stop-color="#D7D7DB"/>
      <stop offset=".5" stop-color="#fff"/>
      <stop offset="1" stop-color="#D7D7DB"/>
    </linearGradient>
    <linearGradient id="c" x1="12" x2="12" y1="4" y2="17" gradientUnits="userSpaceOnUse">
      <stop stop-color="#47341F"/>
      <stop offset="1" stop-color="#96764B"/>
    </linearGradient>
  </defs>
</svg>
