<!-- This Source Code Form is subject to the terms of the Mozilla Public
   - License, v. 2.0. If a copy of the MPL was not distributed with this
   - file, You can obtain one at http://mozilla.org/MPL/2.0/. -->
<svg xmlns="http://www.w3.org/2000/svg" fill-opacity="context-fill-opacity" viewBox="0 0 16 16" width="16" height="16">
  <path d="M4 2c-1.108 0-2 .892-2 2h12c0-1.108-.892-2-2-2Z" fill="context-fill"/>
  <path d="M4 1C2.347 1 1 2.347 1 4v8c0 1.653 1.347 3 3 3h8c1.653 0 3-1.347 3-3V4c0-1.653-1.347-3-3-3Zm0 1h8c1.117 0 2 .883 2 2h-2v-.5a.5.5 0 0 0-.5-.492.5.5 0 0 0-.5.492V4H5v-.5a.5.5 0 0 0-.5-.492.5.5 0 0 0-.5.492V4H2c0-1.117.883-2 2-2ZM2 5h2v.5a.5.5 0 0 0 1 0V5h6v.5a.5.5 0 0 0 1 0V5h2v7c0 1.117-.883 2-2 2H4c-1.117 0-2-.883-2-2Zm2.475 2A.5.5 0 0 0 4.5 8h1a.5.5 0 1 0 0-1zm3 0A.5.5 0 0 0 7.5 8h1a.5.5 0 1 0 0-1zm3 0a.5.5 0 0 0 .025 1h1a.5.5 0 1 0 0-1zm-6 2a.5.5 0 0 0 .025 1h1a.5.5 0 1 0 0-1zm3 0a.5.5 0 0 0 .025 1h1a.5.5 0 1 0 0-1zm3 0a.5.5 0 0 0 .025 1h1a.5.5 0 1 0 0-1zm-6 2a.5.5 0 0 0 .025 1h1a.5.5 0 1 0 0-1zm3 0a.5.5 0 0 0 .025 1h1a.5.5 0 1 0 0-1zm3 0a.5.5 0 0 0 .025 1h1a.5.5 0 1 0 0-1z" fill="context-stroke"/>
</svg>

