<!-- This Source Code Form is subject to the terms of the Mozilla Public
   - License, v. 2.0. If a copy of the MPL was not distributed with this
   - file, You can obtain one at http://mozilla.org/MPL/2.0/. -->
<svg xmlns="http://www.w3.org/2000/svg" fill-opacity="context-fill-opacity" viewBox="0 0 16 16" height="16" width="16">
  <path d="M4 2c-1.108 0-2 .892-2 2h12c0-1.108-.892-2-2-2Zm1 5.5c-.277 0-.5.223-.5.5v1c0 .277.223.5.5.5h1c.277 0 .5-.223.5-.5V8c0-.277-.223-.5-.5-.5Z" fill="context-fill"/>
  <path d="M4 1C2.347 1 1 2.346 1 4v8c0 1.653 1.347 3 3 3h8c1.653 0 3-1.347 3-3V4c0-1.654-1.347-3-3-3Zm0 1h8c1.117 0 2 .883 2 2h-2v-.5a.5.5 0 0 0-.5-.493.5.5 0 0 0-.5.493V4H5v-.5a.5.5 0 0 0-.5-.493.5.5 0 0 0-.5.493V4H2c0-1.117.883-2 2-2ZM2 5h2v.5a.5.5 0 0 0 1 0V5h6v.5a.5.5 0 0 0 1 0V5h2v7c0 1.116-.883 2-2 2H4c-1.117 0-2-.884-2-2Zm2.5 2a.5.5 0 0 0-.5.5v2a.5.5 0 0 0 .5.5h2a.5.5 0 0 0 .5-.5v-2a.5.5 0 0 0-.5-.5Zm3.975 0A.5.5 0 1 0 8.5 7ZM10.5 7a.5.5 0 0 0 0 1h1a.5.5 0 0 0 .428-.252A.5.5 0 0 0 11.5 7ZM5 8h1v1H5Zm3.475 1A.5.5 0 1 0 8.5 9ZM10.5 9a.5.5 0 0 0 0 1h1a.5.5 0 0 0 .428-.252A.5.5 0 0 0 11.5 9Zm-6 2a.5.5 0 0 0-.492.5.5.5 0 0 0 .492.5h1a.5.5 0 0 0 .428-.748A.5.5 0 0 0 5.5 11Zm3.016 0a.5.5 0 0 0-.493.5.5.5 0 0 0 .493.5h1a.5.5 0 0 0 .427-.748.5.5 0 0 0-.427-.252Zm2.984 0a.5.5 0 0 0-.492.5.5.5 0 0 0 .492.5h1a.5.5 0 0 0 .428-.748A.5.5 0 0 0 11.5 11Z" fill="context-stroke"/>
</svg>
