<!-- This Source Code Form is subject to the terms of the Mozilla Public
   - License, v. 2.0. If a copy of the MPL was not distributed with this
   - file, You can obtain one at http://mozilla.org/MPL/2.0/. -->
<svg xmlns="http://www.w3.org/2000/svg" fill-opacity="context-fill-opacity" viewBox="0 0 16 16" height="16" width="16">
  <path d="M4 2c-1.108 0-2 .892-2 2h12c0-1.108-.892-2-2-2Zm1 5.5c-.277 0-.5.223-.5.5v1c0 .277.223.5.5.5h1c.277 0 .5-.223.5-.5V8c0-.277-.223-.5-.5-.5Zm5 3c-.277 0-.5.223-.5.5v1c0 .277.223.5.5.5h1c.277 0 .5-.223.5-.5v-1c0-.277-.223-.5-.5-.5z" fill="context-fill"/>
  <path d="M4 1C2.347 1 1 2.346 1 4v8c0 1.653 1.347 3 3 3h8c1.653 0 3-1.347 3-3V4c0-1.654-1.347-3-3-3Zm0 1h8c1.117 0 2 .883 2 2h-2v-.5a.5.5 0 1 0-1 0V4H5v-.5c0-.277-.208-.5-.467-.5h-.066C4.208 3 4 3.223 4 3.5V4H2c0-1.117.883-2 2-2ZM2 5h2v.5c0 .277.208.5.467.5h.066C4.792 6 5 5.777 5 5.5V5h6v.5a.5.5 0 1 0 1 0V5h2v7c0 1.116-.883 2-2 2H4c-1.117 0-2-.884-2-2Zm2.5 2a.5.5 0 0 0-.5.5v2a.5.5 0 0 0 .5.5h2a.5.5 0 0 0 .5-.5v-2a.5.5 0 0 0-.5-.5ZM5 8h1v1H5Zm3.5 0a.5.5 0 0 0-.5.5.5.5 0 0 0 .5.5h3a.5.5 0 0 0 .5-.5.5.5 0 0 0-.5-.5Zm1 2a.5.5 0 0 0-.5.5v2a.5.5 0 0 0 .5.5h2a.5.5 0 0 0 .5-.5v-2a.5.5 0 0 0-.5-.5Zm-5 1a.5.5 0 0 0-.5.5.5.5 0 0 0 .5.5h3a.5.5 0 0 0 .5-.5.5.5 0 0 0-.5-.5Zm5.5 0h1v1h-1z" fill="context-stroke"/>
</svg>
