<!-- This Source Code Form is subject to the terms of the Mozilla Public
   - License, v. 2.0. If a copy of the MPL was not distributed with this
   - file, You can obtain one at http://mozilla.org/MPL/2.0/. -->
<svg xmlns="http://www.w3.org/2000/svg" viewBox="0 0 16 16" height="16" width="16">
  <path d="M4 1C2.347 1 1 2.346 1 4v8c0 1.653 1.347 3 3 3h8c1.653 0 3-1.347 3-3V4c0-1.654-1.347-3-3-3Zm0 1h8c1.117 0 2 .883 2 2v8c0 1.116-.883 2-2 2H4c-1.117 0-2-.884-2-2V4c0-1.117.883-2 2-2Z" fill="context-stroke"/>
  <path d="M11.402 4.01a.5.5 0 0 0-.318.212L7.422 9.714 4.854 7.146a.5.5 0 0 0-.708 0 .5.5 0 0 0 0 .707l3 3a.5.5 0 0 0 .77-.076l4-6a.5.5 0 0 0-.139-.693.5.5 0 0 0-.375-.075Z" fill-opacity="context-fill-opacity" fill="context-fill"/>
  <path d="M4.5 7a.5.5 0 0 0-.5.5.5.5 0 0 0 .5.5h7a.5.5 0 0 0 .5-.5.5.5 0 0 0-.5-.5Z" fill-opacity="context-stroke-opacity" fill="context-fill"/>
</svg>
