<!-- This Source Code Form is subject to the terms of the Mozilla Public
   - License, v. 2.0. If a copy of the MPL was not distributed with this
   - file, You can obtain one at http://mozilla.org/MPL/2.0/. -->
<svg width="16" height="16" viewBox="0 0 16 16" fill-opacity="context-fill-opacity" xmlns="http://www.w3.org/2000/svg">
  <path d="M15.7071 1.7071C16.0976 1.31658 16.0976 0.683415 15.7071 0.292892C15.3166 -0.0976313 14.6834 -0.0976307 14.2929 0.292894L7.99999 6.58581L1.7071 0.292969C1.31658 -0.0975537 0.683413 -0.0975515 0.29289 0.292973C-0.097632 0.683499 -0.0976299 1.31666 0.292895 1.70719L6.58578 8.00003L0.292898 14.2929C-0.0976251 14.6835 -0.0976235 15.3166 0.292901 15.7071C0.683425 16.0977 1.31659 16.0977 1.70711 15.7071L8 9.41423L14.2929 15.7071C14.6834 16.0976 15.3166 16.0976 15.7071 15.7071C16.0976 15.3166 16.0976 14.6834 15.7071 14.2929L9.41421 8.00002L15.7071 1.7071Z" fill="context-stroke"/>
</svg>
