<!-- This Source Code Form is subject to the terms of the Mozilla Public
   - License, v. 2.0. If a copy of the MPL was not distributed with this
   - file, You can obtain one at http://mozilla.org/MPL/2.0/. -->
<svg xmlns="http://www.w3.org/2000/svg" fill-opacity="context-fill-opacity" viewBox="0 0 16 16" width="16" height="16">
  <path d="M10.5 1.5a2.993 2.993 0 0 0-2.62 1.533A2.74 2.74 0 0 0 6.25 2.5c-1.276 0-2.343.86-2.656 2.035A2.492 2.492 0 0 0 1.5 7c0 1.385 1.115 2.5 2.5 2.5h3v-1C7 7.669 7.669 7 8.5 7s1.5.669 1.5 1.5v1h2c1.385 0 2.5-1.115 2.5-2.5 0-.82-.393-1.543-1-1.998V4.5c0-1.662-1.338-3-3-3z" fill="context-fill"/>
  <path d="M10.5 1c-1.158 0-2.125.618-2.762 1.486C7.28 2.24 6.805 2 6.25 2c-1.405 0-2.54.932-2.992 2.186C1.982 4.53 1 5.618 1 7c0 1.653 1.347 3 3 3h2.5a.5.5 0 0 0 .5-.5.5.5 0 0 0-.5-.5H4c-1.117 0-2-.883-2-2 0-1.005.72-1.816 1.674-1.97a.5.5 0 0 0 .402-.366A2.238 2.238 0 0 1 6.25 3c.504 0 .96.161 1.334.436a.5.5 0 0 0 .732-.159A2.489 2.489 0 0 1 10.5 2C11.894 2 13 3.106 13 4.5v.502a.5.5 0 0 0 .2.4c.486.366.8.937.8 1.598 0 1.117-.883 2-2 2h-1.5a.5.5 0 0 0-.5.5.5.5 0 0 0 .5.5H12c1.653 0 3-1.347 3-3 0-.868-.41-1.615-1-2.162V4.5C14 2.57 12.43 1 10.5 1zm-2 7.006a.5.5 0 0 0-.5.5v4.793l-2.146-2.147a.5.5 0 1 0-.708.707l3 3a.482.482 0 0 0 .036.026.495.495 0 0 0 .318.121.468.468 0 0 0 .035-.006.504.504 0 0 0 .15-.035.495.495 0 0 0 .133-.08.482.482 0 0 0 .036-.026l3-3a.5.5 0 1 0-.708-.707L9 13.3V8.506a.5.5 0 0 0-.5-.5z" fill="context-stroke"/>
</svg>
