<!-- This Source Code Form is subject to the terms of the Mozilla Public
   - License, v. 2.0. If a copy of the MPL was not distributed with this
   - file, You can obtain one at http://mozilla.org/MPL/2.0/. -->
<svg xmlns="http://www.w3.org/2000/svg" fill-opacity="context-fill-opacity" viewBox="0 0 16 16" width="16" height="16">
  <path d="M2.5 2a.5.5 0 0 0-.5.5v10a.5.5 0 0 0 .5.5.5.5 0 0 0 .5-.5v-10a.5.5 0 0 0-.5-.5Zm6 1a.5.5 0 0 0-.354.146l-4 4A.5.5 0 0 0 4 7.5a.5.5 0 0 0 .146.354l4 4a.5.5 0 0 0 .708 0 .5.5 0 0 0 0-.708L5.707 8H13.5a.5.5 0 0 0 .5-.5.5.5 0 0 0-.5-.5H5.707l3.147-3.146a.5.5 0 0 0 0-.708A.5.5 0 0 0 8.5 3Z" fill="context-stroke"/>
</svg>
