<!-- This Source Code Form is subject to the terms of the Mozilla Public
   - License, v. 2.0. If a copy of the MPL was not distributed with this
   - file, You can obtain one at http://mozilla.org/MPL/2.0/. -->
<svg xmlns="http://www.w3.org/2000/svg" fill-opacity="context-fill-opacity" viewBox="0 0 16 16" height="16" width="16">
  <path d="M6.5 5.5h3c.554 0 1 .446 1 1v3c0 .554-.446 1-1 1h-3c-.554 0-1-.446-1-1v-3c0-.554.446-1 1-1z" fill="context-fill"/>
  <path d="M1.5 1a.5.5 0 0 0-.354.146.5.5 0 0 0 0 .707L3.293 4H1.5a.5.5 0 0 0-.5.5.5.5 0 0 0 .5.5h3a.5.5 0 0 0 .354-.147.5.5 0 0 0 .076-.1.5.5 0 0 0 .004-.003.5.5 0 0 0 .002-.004.5.5 0 0 0 .046-.117.5.5 0 0 0 .018-.13v-3a.5.5 0 0 0-.5-.5.5.5 0 0 0-.5.5v1.794L1.854 1.146A.5.5 0 0 0 1.5 1Zm10 0a.5.5 0 0 0-.5.5v3a.5.5 0 0 0 .146.353.5.5 0 0 0 .1.076.5.5 0 0 0 .004.004.5.5 0 0 0 .004.002.5.5 0 0 0 .117.047A.5.5 0 0 0 11.5 5h3a.5.5 0 0 0 .5-.5.5.5 0 0 0-.5-.5h-1.793l2.147-2.147A.5.5 0 0 0 15 1.5a.5.5 0 0 0-.146-.354.5.5 0 0 0-.708 0L12 3.293V1.5a.5.5 0 0 0-.5-.5Zm-5 4C5.678 5 5 5.677 5 6.5v3c0 .822.678 1.5 1.5 1.5h3c.822 0 1.5-.678 1.5-1.5v-3c0-.823-.678-1.5-1.5-1.5Zm0 1h3c.286 0 .5.214.5.5v3c0 .285-.214.5-.5.5h-3a.488.488 0 0 1-.5-.5v-3c0-.286.214-.5.5-.5Zm-5 5a.5.5 0 0 0-.5.5.5.5 0 0 0 .5.5h1.793l-2.147 2.146A.5.5 0 0 0 1 14.5a.5.5 0 0 0 .146.353.5.5 0 0 0 .708 0L4 12.707V14.5a.5.5 0 0 0 .5.5.5.5 0 0 0 .5-.5v-3a.5.5 0 0 0-.146-.354.5.5 0 0 0-.1-.076.5.5 0 0 0-.004-.004.5.5 0 0 0-.004-.002.5.5 0 0 0-.117-.047A.5.5 0 0 0 4.5 11Zm10 0a.5.5 0 0 0-.354.146.5.5 0 0 0-.076.1.5.5 0 0 0-.004.004.5.5 0 0 0-.002.004.5.5 0 0 0-.046.117.5.5 0 0 0-.018.129v3a.5.5 0 0 0 .5.5.5.5 0 0 0 .5-.5v-1.793l2.146 2.146A.5.5 0 0 0 14.5 15a.5.5 0 0 0 .354-.147.5.5 0 0 0 0-.707L12.707 12H14.5a.5.5 0 0 0 .5-.5.5.5 0 0 0-.5-.5Z" fill="context-stroke"/>
</svg>
