<!-- This Source Code Form is subject to the terms of the Mozilla Public
   - License, v. 2.0. If a copy of the MPL was not distributed with this
   - file, You can obtain one at http://mozilla.org/MPL/2.0/. -->
<svg xmlns="http://www.w3.org/2000/svg" fill-opacity="context-fill-opacity" viewBox="0 0 16 16" height="16" width="16">
  <path d="M7.5.5a7 7 0 0 0-7 7 7 7 0 0 0 3 5.728V11.75c0-.693.558-1.25 1.25-1.25H6.5v-.446A2.75 2.75 0 0 1 4.75 7.5 2.75 2.75 0 0 1 7.5 4.75a2.75 2.75 0 0 1 2.75 2.75 2.75 2.75 0 0 1-1.75 2.554v.446h1.75c.692 0 1.25.557 1.25 1.25v1.478a7 7 0 0 0 3-5.728 7 7 0 0 0-7-7z" fill="context-fill"/>
  <path d="M7.5 0C3.364 0 0 3.363 0 7.5a7.493 7.493 0 0 0 3.143 6.1.5.5 0 0 0 .064.044A7.458 7.458 0 0 0 7.5 15a7.458 7.458 0 0 0 4.293-1.356.5.5 0 0 0 .064-.045A7.493 7.493 0 0 0 15 7.499c0-4.136-3.364-7.5-7.5-7.5zm0 1C11.096 1 14 3.904 14 7.5a6.479 6.479 0 0 1-2 4.691V12c0-1.1-.9-2-2-2h-.102c.083-.096.193-.101.272-.207.46-.616.829-1.417.83-2.293C11 5.573 9.427 4 7.5 4A3.508 3.508 0 0 0 4 7.5c.001.876.37 1.677.83 2.293.08.106.19.11.272.207H5c-1.1 0-2 .9-2 2v.191A6.477 6.477 0 0 1 1 7.5C1 3.904 3.904 1 7.5 1Zm0 4C8.887 5 10 6.113 10 7.5c-.001.585-.27 1.212-.63 1.695-.36.483-.857.792-.97.814a.5.5 0 0 0 .1.99H10c.563 0 1 .438 1 1v.98a6.475 6.475 0 0 1-3.5 1.02 6.48 6.48 0 0 1-3.5-1.02v-.98c0-.562.437-1 1-1h1.5a.5.5 0 0 0 .1-.99c-.113-.022-.61-.331-.97-.814-.36-.483-.629-1.11-.63-1.695C5 6.113 6.113 5 7.5 5Z" fill="context-stroke"/>
</svg>
