<!-- This Source Code Form is subject to the terms of the Mozilla Public
   - License, v. 2.0. If a copy of the MPL was not distributed with this
   - file, You can obtain one at http://mozilla.org/MPL/2.0/. -->
<svg xmlns="http://www.w3.org/2000/svg" fill-opacity="context-fill-opacity" viewBox="0 0 16 16" height="16" width="16">
  <path d="M5 1c-1.1 0-2 .901-2 2-1.1 0-2 .901-2 2v8c0 1.1.9 2 2 2h7c1.1 0 2-.9 2-2 1.1 0 2-.9 2-2V3c0-1.099-.9-2-2-2Zm0 1h7c.563 0 1 .438 1 1v8c0 .563-.437 1-1 1H5c-.563 0-1-.437-1-1V3c0-.562.437-1 1-1ZM3 4v7c0 1.1.9 2 2 2h6c0 .563-.437 1-1 1H3c-.563 0-1-.437-1-1V5c0-.562.437-1 1-1Zm3.5 0a.5.5 0 0 0-.5.5.5.5 0 0 0 .5.5h4a.5.5 0 0 0 .5-.5.5.5 0 0 0-.5-.5Zm0 2a.5.5 0 0 0-.5.5.5.5 0 0 0 .5.5h4a.5.5 0 0 0 .5-.5.5.5 0 0 0-.5-.5Zm0 2a.5.5 0 0 0-.5.5.5.5 0 0 0 .5.5h3a.5.5 0 0 0 .5-.5.5.5 0 0 0-.5-.5Z" fill="context-stroke"/>
  <path d="M3.268 4C3.098 4.294 3 4.634 3 5v6c0 1.108.892 2 2 2h5a1.99 1.99 0 0 0 1-.268V13c0 .554-.446 1-1 1H3c-.554 0-1-.446-1-1V5c0-.554.446-1 1-1Z" fill="context-fill"/>
</svg>
