<!-- This Source Code Form is subject to the terms of the Mozilla Public
   - License, v. 2.0. If a copy of the MPL was not distributed with this
   - file, You can obtain one at http://mozilla.org/MPL/2.0/. -->
<svg xmlns="http://www.w3.org/2000/svg" fill-opacity="context-fill-opacity" viewBox="0 0 16 16" height="16" width="16">
  <path d="M4.418 2.006a.5.5 0 0 0-.184.07.5.5 0 0 0-.158.69L7.41 8.099 6.34 9.812A2.492 2.492 0 0 0 4.5 9 2.508 2.508 0 0 0 2 11.5C2 12.874 3.125 14 4.5 14S7 12.874 7 11.5c0-.246-.037-.483-.104-.707a.5.5 0 0 0 .028-.028L8 9.043l1.076 1.722a.5.5 0 0 0 .028.028A2.482 2.482 0 0 0 9 11.5c0 1.374 1.125 2.5 2.5 2.5s2.5-1.126 2.5-2.5c0-1.375-1.125-2.5-2.5-2.5-.726 0-1.382.313-1.84.812L8.59 8.099l3.334-5.334a.5.5 0 0 0-.158-.69.5.5 0 0 0-.69.159L8 7.156l-3.076-4.92a.5.5 0 0 0-.506-.23ZM4.5 10c.834 0 1.5.665 1.5 1.5 0 .834-.666 1.5-1.5 1.5S3 12.334 3 11.5c0-.835.666-1.5 1.5-1.5zm7 0c.834 0 1.5.665 1.5 1.5 0 .834-.666 1.5-1.5 1.5s-1.5-.666-1.5-1.5c0-.835.666-1.5 1.5-1.5z" fill="context-stroke"/>
</svg>
