<!-- This Source Code Form is subject to the terms of the Mozilla Public
   - License, v. 2.0. If a copy of the MPL was not distributed with this
   - file, You can obtain one at http://mozilla.org/MPL/2.0/. -->
<svg xmlns="http://www.w3.org/2000/svg" fill-opacity="context-fill-opacity" viewBox="0 0 16 16" height="16" width="16">
  <path d="M6.5 5.5h3c.554 0 1 .446 1 1v3c0 .554-.446 1-1 1h-3c-.554 0-1-.446-1-1v-3c0-.554.446-1 1-1z" fill="context-fill"/>
  <path d="M4 1C2.347 1 1 2.346 1 4v1.488a.5.5 0 0 0 .5.5.5.5 0 0 0 .5-.5V4c0-1.117.883-2 2-2h1.5a.5.5 0 0 0 .5-.5.5.5 0 0 0-.5-.5Zm6.5 0a.5.5 0 0 0-.5.5.5.5 0 0 0 .5.5H12c1.117 0 2 .883 2 2v1.5a.5.5 0 0 0 .5.5.5.5 0 0 0 .5-.5V4c0-1.654-1.347-3-3-3Zm-4 4C5.678 5 5 5.677 5 6.5v3c0 .822.678 1.5 1.5 1.5h3c.822 0 1.5-.678 1.5-1.5v-3c0-.823-.678-1.5-1.5-1.5Zm0 1h3c.286 0 .5.214.5.5v3c0 .285-.214.5-.5.5h-3a.488.488 0 0 1-.5-.5v-3c0-.286.214-.5.5-.5Zm-5 4a.5.5 0 0 0-.5.5V12c0 1.653 1.347 3 3 3h1.5a.5.5 0 0 0 .5-.5.5.5 0 0 0-.5-.5H4c-1.117 0-2-.884-2-2v-1.5a.5.5 0 0 0-.5-.5Zm13 0a.5.5 0 0 0-.5.5V12c0 1.116-.883 2-2 2h-1.5a.5.5 0 0 0-.5.5.5.5 0 0 0 .5.5H12c1.653 0 3-1.347 3-3v-1.5a.5.5 0 0 0-.5-.5Z" fill="context-stroke"/>
</svg>
