<!-- This Source Code Form is subject to the terms of the Mozilla Public
   - License, v. 2.0. If a copy of the MPL was not distributed with this
   - file, You can obtain one at http://mozilla.org/MPL/2.0/. -->
<svg xmlns="http://www.w3.org/2000/svg" fill-opacity="context-fill-opacity" viewBox="0 0 16 16" width="16" height="16">
  <path d="M4 2h8c.554 0 1 .446 1 1v10c0 .554-.446 1-1 1H4c-.554 0-1-.446-1-1V3c0-.554.446-1 1-1Z" fill="context-fill"/>
  <path d="M4 1c-1.1 0-2 .9-2 2v10c0 1.1.9 2 2 2h8c1.1 0 2-.9 2-2V3c0-1.1-.9-2-2-2Zm0 1h8c.563 0 1 .437 1 1v10c0 .563-.437 1-1 1H4c-.563 0-1-.437-1-1V3c0-.563.437-1 1-1Zm1.5 2a.5.5 0 0 0 0 1h5a.5.5 0 0 0 .428-.252A.5.5 0 0 0 10.5 4Zm0 2a.5.5 0 0 0-.492.5.5.5 0 0 0 .492.5h5a.5.5 0 0 0 .428-.252.5.5 0 0 0 0-.496A.5.5 0 0 0 10.5 6Zm0 2a.5.5 0 0 0 0 1h3a.5.5 0 0 0 .428-.252A.5.5 0 0 0 8.5 8Zm2 3a.5.5 0 0 0-.492.5.5.5 0 0 0 .492.5h3a.5.5 0 0 0 .428-.748A.5.5 0 0 0 10.5 11Z" fill="context-stroke"/>
</svg>
