<!-- This Source Code Form is subject to the terms of the Mozilla Public
   - License, v. 2.0. If a copy of the MPL was not distributed with this
   - file, You can obtain one at http://mozilla.org/MPL/2.0/. -->
<svg xmlns="http://www.w3.org/2000/svg" viewBox="0 0 16 16" fill-opacity="context-fill-opacity" height="16" width="16">
  <path d="M7.5 14.5a7 7 0 1 0 0-14 7 7 0 0 0 0 14Z" fill="context-fill"/>
  <path d="M7.5 0a7.5 7.5 0 1 0 .02 15.02A7.5 7.5 0 0 0 7.5 0zm0 1a6.5 6.5 0 1 1 0 13A6.5 6.5 0 0 1 1 7.5C1 3.9 3.9 1 7.5 1zm0 3a.5.5 0 0 0-.5.5v4a.5.5 0 0 0 .5.5.5.5 0 0 0 .5-.5v-4a.5.5 0 0 0-.5-.5zm0 6a.5.5 0 0 0-.5.5.5.5 0 0 0 .5.5.5.5 0 0 0 .5-.5.5.5 0 0 0-.5-.5z" fill="context-stroke"/>
</svg>
