<!-- This Source Code Form is subject to the terms of the Mozilla Public
   - License, v. 2.0. If a copy of the MPL was not distributed with this
   - file, You can obtain one at http://mozilla.org/MPL/2.0/. -->
<svg xmlns="http://www.w3.org/2000/svg" fill-opacity="context-fill-opacity" viewBox="0 0 16 16" height="16" width="16">
  <path d="M11.732 4c.17.294.268.635.268 1v6c0 1.108-.892 2-2 2H5a1.99 1.99 0 0 1-1-.268V13c0 .554.446 1 1 1h7c.554 0 1-.446 1-1V5c0-.554-.446-1-1-1Z" fill="context-fill"/>
  <path d="M3 1c-1.1 0-2 .9-2 2v8c0 1.1.9 2 2 2 0 1.1.9 2 2 2h7c1.1 0 2-.9 2-2V5c0-1.1-.9-2-2-2 0-1.1-.9-2-2-2Zm0 1h7c.563 0 1 .437 1 1v8c0 .563-.437 1-1 1H3c-.563 0-1-.437-1-1V3c0-.563.437-1 1-1Zm3.5 1c-.14 0-.24.043-.354.146l-2 2a.5.5 0 0 0 .708.708L6 4.707V7.5a.5.5 0 1 0 1 0V4.707l1.146 1.147a.5.5 0 0 0 .708-.708l-2-2C6.763 3.033 6.65 3 6.5 3ZM12 4c.563 0 1 .437 1 1v8c0 .563-.437 1-1 1H5c-.563 0-1-.437-1-1h6c1.1 0 2-.9 2-2zM4.5 8a.5.5 0 0 0-.5.5v1c0 .822.678 1.5 1.5 1.5h2c.822 0 1.5-.678 1.5-1.5v-1a.5.5 0 0 0-.5-.5.5.5 0 0 0-.5.5v1c0 .286-.214.5-.5.5h-2a.488.488 0 0 1-.5-.5v-1a.5.5 0 0 0-.5-.5Z" fill="context-stroke"/>
</svg>
