<!-- This Source Code Form is subject to the terms of the Mozilla Public
   - License, v. 2.0. If a copy of the MPL was not distributed with this
   - file, You can obtain one at http://mozilla.org/MPL/2.0/. -->
<svg xmlns="http://www.w3.org/2000/svg" fill-opacity="context-fill-opacity" viewBox="0 0 16 16" height="16" width="16">
  <path d="M14 6.5c-.97 0-1 1-1.75 1a.77.77 0 0 1-.75-.75V5.5a1 1 0 0 0-1-1H9.25a.77.77 0 0 1-.75-.75c0-.75 1-.78 1-1.75C9.5 1.14 8.1.5 7 .5S4.5 1.14 4.5 2c0 .97 1 1 1 1.75a.77.77 0 0 1-.75.75H1.5a1 1 0 0 0-1 1v1.25c.01.41.34.74.75.75.75 0 .78-1 1.75-1 .87 0 1.5 1.4 1.5 2.5s-.64 2.5-1.5 2.5c-.97 0-1-1-1.75-1a.77.77 0 0 0-.75.75v3.25a1 1 0 0 0 1 1h3.25a.77.77 0 0 0 .75-.75c0-.75-1-.78-1-1.75 0-.86 1.4-1.5 2.5-1.5s2.5.64 2.5 1.5c0 .97-1 1-1 1.75.01.41.34.74.75.75h1.25a1 1 0 0 0 1-1v-3.25a.77.77 0 0 1 .75-.75c.75 0 .78 1 1.75 1 .86 0 1.5-1.4 1.5-2.5s-.64-2.5-1.5-2.5z" fill="context-fill"/>
  <path d="M7 0c-.647 0-1.33.175-1.902.488C4.526.802 4 1.298 4 2c0 .657.403 1.094.668 1.33.133.118.23.209.277.27.044.057.05.076.051.14a.263.263 0 0 1-.26.26H1.5C.677 4 0 4.677 0 5.5v1.262A1.277 1.277 0 0 0 1.238 8h.012c.299 0 .57-.117.756-.258.186-.14.306-.293.41-.41C2.625 7.097 2.686 7 3 7c.167 0 .417.176.637.578C3.857 7.981 4 8.545 4 9c0 .453-.144 1.019-.365 1.422S3.159 11 3 11c-.313 0-.375-.097-.584-.332-.104-.117-.224-.27-.41-.41A1.279 1.279 0 0 0 1.25 10h-.014c-.67.017-1.219.565-1.236 1.236V14.5c0 .823.677 1.5 1.5 1.5h3.264A1.276 1.276 0 0 0 6 14.764v-.014c0-.299-.117-.57-.258-.756-.14-.186-.293-.306-.41-.41C5.097 13.375 5 13.314 5 13c0-.159.175-.414.578-.635A3.211 3.211 0 0 1 7 12c.453 0 1.019.144 1.422.365S9 12.841 9 13c0 .313-.097.375-.332.584-.117.104-.27.224-.41.41A1.279 1.279 0 0 0 8 14.75v.012A1.277 1.277 0 0 0 9.238 16H10.5c.823 0 1.5-.677 1.5-1.5v-3.236a.263.263 0 0 1 .26-.26c.064.001.083.007.14.05.061.047.152.145.27.278.236.265.673.668 1.33.668.701 0 1.198-.526 1.512-1.098A4.046 4.046 0 0 0 16 9c0-.647-.175-1.33-.488-1.902C15.198 6.526 14.702 6 14 6c-.657 0-1.094.403-1.33.668a2.493 2.493 0 0 1-.27.277c-.057.044-.076.05-.14.051a.263.263 0 0 1-.26-.26V5.5c0-.823-.677-1.5-1.5-1.5H9.264a.263.263 0 0 1-.26-.26c.001-.064.007-.083.05-.14.047-.061.145-.152.278-.27C9.597 3.094 10 2.657 10 2 10 1.299 9.474.802 8.902.488A4.046 4.046 0 0 0 7 0Zm0 1c.453 0 1.019.144 1.422.365S9 1.841 9 2c0 .313-.097.375-.332.584-.117.104-.27.224-.41.41A1.279 1.279 0 0 0 8 3.75v.014c.017.67.565 1.219 1.236 1.236H10.5c.282 0 .5.218.5.5v1.264c.017.67.565 1.219 1.236 1.236h.014c.299 0 .57-.117.756-.258.186-.14.306-.293.41-.41.209-.235.27-.332.584-.332.159 0 .414.175.635.578.221.403.365.969.365 1.422 0 .453-.144 1.019-.365 1.422S14.159 11 14 11c-.313 0-.375-.097-.584-.332-.104-.117-.224-.27-.41-.41A1.279 1.279 0 0 0 12.25 10h-.014c-.67.017-1.219.565-1.236 1.236V14.5c0 .282-.218.5-.5.5H9.262a.26.26 0 0 1-.258-.258c0-.066.007-.085.05-.142.047-.061.145-.152.278-.27.265-.236.668-.673.668-1.33 0-.701-.526-1.198-1.098-1.512A4.046 4.046 0 0 0 7 11c-.647 0-1.33.175-1.902.488C4.526 11.802 4 12.298 4 13c0 .657.403 1.094.668 1.33.133.118.23.209.277.27.044.057.05.076.051.14a.263.263 0 0 1-.26.26H1.5a.493.493 0 0 1-.5-.5v-3.236a.263.263 0 0 1 .26-.26c.064.001.083.007.14.05.061.047.152.145.27.278.236.265.673.668 1.33.668.701 0 1.198-.526 1.512-1.098A4.046 4.046 0 0 0 5 9c0-.645-.172-1.33-.484-1.902C4.203 6.525 3.703 6 3 6c-.657 0-1.094.403-1.33.668a2.493 2.493 0 0 1-.27.277c-.057.044-.076.05-.142.051A.26.26 0 0 1 1 6.738V5.5c0-.282.218-.5.5-.5h3.264A1.276 1.276 0 0 0 6 3.764V3.75c0-.299-.117-.57-.258-.756-.14-.186-.293-.306-.41-.41C5.097 2.375 5 2.314 5 2c0-.159.175-.414.578-.635A3.211 3.211 0 0 1 7 1Z" fill="context-stroke"/>
</svg>
