<!-- This Source Code Form is subject to the terms of the Mozilla Public
   - License, v. 2.0. If a copy of the MPL was not distributed with this
   - file, You can obtain one at http://mozilla.org/MPL/2.0/. -->
<svg xmlns="http://www.w3.org/2000/svg" fill-opacity="context-fill-opacity" viewBox="0 0 16 16" height="16" width="16">
  <path d="M11.5 7A3.5 3.5 0 0 1 8 10.5 3.5 3.5 0 0 1 4.5 7 3.5 3.5 0 0 1 8 3.5 3.5 3.5 0 0 1 11.5 7Z" fill="context-fill"/>
  <path d="M8 3c-.069 0-.137.002-.205.006-3.657.114-5.73 3.244-6.711 4.716a.5.5 0 0 0 0 .555C2.084 9.777 4.214 13 8 13c3.786 0 5.916-3.223 6.916-4.723a.5.5 0 0 0 0-.555c-.982-1.472-3.054-4.602-6.71-4.716A4.018 4.018 0 0 0 8 3Zm0 1c.052 0 .103.002.154.004h.008A2.993 2.993 0 0 1 11 7c0 1.662-1.337 3-3 3S5 8.662 5 7a2.993 2.993 0 0 1 2.838-2.996h.008A3.06 3.06 0 0 1 8 4Zm0 1a2 2 0 0 0-2 2 2 2 0 0 0 2 2 2 2 0 0 0 2-2 2 2 0 0 0-2-2Zm-3.672.414A3.972 3.972 0 0 0 4 7c0 2.203 1.797 4 4 4 2.203 0 4-1.797 4-4 0-.563-.117-1.1-.328-1.586.96.81 1.666 1.814 2.185 2.586-1.034 1.537-2.808 4-5.857 4-3.05 0-4.823-2.463-5.857-4 .519-.772 1.225-1.777 2.185-2.586Z" fill="context-stroke"/>
</svg>
