<!-- This Source Code Form is subject to the terms of the Mozilla Public
   - License, v. 2.0. If a copy of the MPL was not distributed with this
   - file, You can obtain one at http://mozilla.org/MPL/2.0/. -->
<svg xmlns="http://www.w3.org/2000/svg" fill-opacity="context-fill-opacity" viewBox="0 0 16 16" height="16" width="16">
  <path d="M4 1.5c-.337 0-.572 1.45-.81 1.69-.24.238-1.69.473-1.69.81 0 .337 1.45.572 1.69.81.238.24.473 1.69.81 1.69.337 0 .572-1.45.81-1.69.24-.238 1.69-.473 1.69-.81 0-.337-1.45-.572-1.69-.81C4.573 2.95 4.338 1.5 4 1.5Zm6 .977c-.76 0-1.096 3.353-1.633 3.89-.537.537-3.89.874-3.89 1.633 0 .76 3.353 1.096 3.89 1.633.537.537.874 3.89 1.633 3.89.76 0 1.096-3.353 1.633-3.89.537-.537 3.89-.874 3.89-1.633 0-.76-3.353-1.096-3.89-1.633-.537-.537-.874-3.89-1.633-3.89ZM4 9.5c-.337 0-.572 1.45-.81 1.69-.24.238-1.69.473-1.69.81 0 .337 1.45.572 1.69.81.238.24.473 1.69.81 1.69.337 0 .572-1.45.81-1.69.24-.238 1.69-.473 1.69-.81 0-.337-1.45-.572-1.69-.81-.238-.24-.473-1.69-.81-1.69Z" fill="context-fill"/>
  <path d="M4 1a.678.678 0 0 0-.48.213c-.094.096-.148.19-.198.285-.1.19-.17.395-.238.6-.068.204-.131.406-.186.558-.054.152-.153.27-.062.18.09-.09-.028.008-.18.062-.152.055-.354.118-.558.186a4.05 4.05 0 0 0-.6.238c-.095.05-.189.104-.285.198A.678.678 0 0 0 1 4c0 .221.117.387.213.48.096.094.19.148.285.198.19.1.395.17.6.238.204.068.406.131.558.186.152.054.27.153.18.062-.09-.09.008.028.062.18.055.152.118.354.186.558.068.205.139.41.238.6.05.095.104.189.198.285A.677.677 0 0 0 4 7a.678.678 0 0 0 .48-.213c.094-.096.148-.19.198-.285.1-.19.17-.395.238-.6.068-.204.131-.406.186-.558.054-.152.153-.27.062-.18-.09.09.028-.008.18-.062.152-.055.354-.118.558-.186a4.05 4.05 0 0 0 .6-.238c.095-.05.189-.104.285-.198A.678.678 0 0 0 7 4a.678.678 0 0 0-.213-.48 1.127 1.127 0 0 0-.285-.198c-.19-.1-.395-.17-.6-.238-.204-.068-.406-.131-.558-.186-.152-.054-.27-.153-.18-.062.09.09-.008-.028-.062-.18-.055-.152-.118-.354-.186-.558a4.021 4.021 0 0 0-.238-.6 1.127 1.127 0 0 0-.198-.285A.678.678 0 0 0 4 1Zm6 .977c-.279 0-.5.158-.639.312a1.956 1.956 0 0 0-.316.514c-.17.376-.303.826-.428 1.287-.125.46-.24.927-.353 1.297-.113.37-.282.658-.25.627.031-.032-.258.137-.627.25-.37.112-.837.228-1.297.353-.46.125-.911.257-1.287.428a1.94 1.94 0 0 0-.514.316c-.154.138-.312.36-.312.639s.158.5.312.639c.155.138.326.23.514.316.376.17.826.303 1.287.428.46.125.927.24 1.297.353.37.113.658.282.627.25-.032-.031.137.258.25.627.112.37.228.837.353 1.297.125.46.257.911.428 1.287.085.188.178.36.316.514.138.154.36.312.639.312s.5-.158.639-.312c.138-.155.23-.326.316-.514.17-.376.303-.826.428-1.287.125-.46.24-.927.353-1.297.113-.37.282-.658.25-.627-.031.032.258-.137.627-.25.37-.112.837-.228 1.297-.353.46-.125.911-.257 1.287-.428a1.94 1.94 0 0 0 .514-.316c.154-.138.312-.36.312-.639s-.158-.5-.312-.639a1.956 1.956 0 0 0-.514-.316c-.376-.17-.826-.303-1.287-.428-.46-.125-.927-.24-1.297-.353-.37-.113-.658-.282-.627-.25.032.031-.137-.258-.25-.627-.112-.37-.228-.837-.353-1.297-.125-.46-.257-.911-.428-1.287a1.956 1.956 0 0 0-.316-.514c-.138-.154-.36-.312-.639-.312Zm-6 .53c.053.162.104.33.16.487.067.187.087.34.297.549.21.21.362.23.549.297.157.056.325.107.486.16-.161.053-.33.104-.486.16-.187.067-.34.087-.549.297-.21.21-.23.362-.297.549-.056.157-.107.325-.16.486-.053-.161-.104-.33-.16-.486-.067-.187-.087-.34-.297-.549-.21-.21-.362-.23-.549-.297-.157-.056-.325-.107-.486-.16.161-.053.33-.104.486-.16.187-.067.34-.087.549-.297.21-.21.23-.362.297-.549.056-.157.107-.325.16-.486Zm6 .632c.017.032.027.038.045.078.123.27.252.69.373 1.135.121.445.236.916.361 1.326.125.41.2.743.5 1.043.3.3.633.375 1.043.5.41.125.881.24 1.326.361.446.121.865.25 1.135.373.04.018.046.028.078.045-.032.017-.038.027-.078.045-.27.123-.69.252-1.135.373-.445.121-.916.236-1.326.361-.41.125-.743.2-1.043.5-.3.3-.375.633-.5 1.043-.125.41-.24.881-.361 1.326-.121.446-.25.866-.373 1.135-.018.04-.028.046-.045.078-.017-.032-.027-.038-.045-.078-.123-.27-.252-.69-.373-1.135-.121-.445-.236-.916-.361-1.326-.125-.41-.2-.743-.5-1.043-.3-.3-.633-.375-1.043-.5-.41-.125-.881-.24-1.326-.361-.446-.121-.866-.25-1.135-.373-.04-.018-.046-.028-.078-.045.032-.017.038-.027.078-.045.27-.123.69-.252 1.135-.373.445-.121.916-.236 1.326-.361.41-.125.743-.2 1.043-.5.3-.3.375-.633.5-1.043.125-.41.24-.881.361-1.326.121-.446.25-.866.373-1.135.018-.04.028-.046.045-.078ZM4 9a.678.678 0 0 0-.48.213c-.094.096-.148.19-.198.285-.1.19-.17.395-.238.6-.068.204-.131.406-.186.558-.054.152-.153.27-.062.18.09-.09-.028.008-.18.062-.152.055-.354.118-.558.186a4.02 4.02 0 0 0-.6.238c-.095.05-.189.104-.285.198A.678.678 0 0 0 1 12c0 .221.117.387.213.48.096.094.19.148.285.198.19.1.395.17.6.238.204.068.406.131.558.186.152.054.27.153.18.062-.09-.09.008.028.062.18.055.152.118.354.186.558.068.205.139.41.238.6.05.095.104.189.198.285A.677.677 0 0 0 4 15a.678.678 0 0 0 .48-.213c.094-.096.148-.19.198-.285.1-.19.17-.395.238-.6.068-.204.131-.406.186-.558.054-.152.153-.27.062-.18-.09.09.028-.008.18-.062.152-.055.354-.118.558-.186a4.02 4.02 0 0 0 .6-.238c.095-.05.189-.104.285-.198A.678.678 0 0 0 7 12a.678.678 0 0 0-.213-.48 1.127 1.127 0 0 0-.285-.198c-.19-.1-.395-.17-.6-.238-.204-.068-.406-.131-.558-.186-.152-.054-.27-.153-.18-.062.09.09-.008-.028-.062-.18-.055-.152-.118-.354-.186-.558a4.021 4.021 0 0 0-.238-.6 1.127 1.127 0 0 0-.198-.285A.678.678 0 0 0 4 9Zm0 1.508c.053.161.104.33.16.486.067.187.087.34.297.549.21.21.362.23.549.297.157.056.325.107.486.16-.161.053-.33.104-.486.16-.187.067-.34.087-.549.297-.21.21-.23.362-.297.549-.056.157-.107.325-.16.486-.053-.161-.104-.33-.16-.486-.067-.187-.087-.34-.297-.549-.21-.21-.362-.23-.549-.297-.157-.056-.325-.107-.486-.16.161-.053.33-.104.486-.16.187-.067.34-.087.549-.297.21-.21.23-.362.297-.549.056-.157.107-.325.16-.486Z" fill="context-stroke"/>
</svg>
