<!-- This Source Code Form is subject to the terms of the Mozilla Public
   - License, v. 2.0. If a copy of the MPL was not distributed with this
   - file, You can obtain one at http://mozilla.org/MPL/2.0/. -->
<svg width="16" height="16" viewBox="0 0 16 16" xmlns="http://www.w3.org/2000/svg">
  <path d="M4 1.5C3.169 1.5 2.5 2.169 2.5 3V13C2.5 13.831 3.169 14.5 4 14.5H12C12.831 14.5 13.5 13.831 13.5 13V5.5H10.5C9.946 5.5 9.5 5.054 9.5 4.5V1.5H4Z" fill-opacity="context-fill-opacity" fill="context-fill"/>
  <path d="M4 1C2.90065 1 2 1.90065 2 3V13C2 14.0993 2.90065 15 4 15H12C13.0993 15 14 14.0993 14 13V5.5H13.9961C13.9971 5.36796 13.9459 5.24088 13.8535 5.14648L9.85352 1.14648C9.75881 1.05486 9.63176 1.00432 9.5 1.00586V1H4ZM4 2H9V4.5C9 5.32235 9.67765 6 10.5 6H13V13C13 13.5626 12.5626 14 12 14H4C3.43736 14 3 13.5626 3 13V3C3 2.43736 3.43736 2 4 2ZM10 2.70703L12.293 5H10.5C10.2144 5 10 4.78565 10 4.5V2.70703ZM5.5 4C5.223 4 5 4.223 5 4.5C5 4.777 5.223 5 5.5 5H8V4H5.5ZM5.5 6C5.223 6 5 6.223 5 6.5C5 6.777 5.223 7 5.5 7H8V6H5.5ZM5.5 8C5.223 8 5 8.223 5 8.5C5 8.777 5.223 9 5.5 9H10.5C10.777 9 11 8.777 11 8.5C11 8.223 10.777 8 10.5 8H5.5ZM6.5 11C6.223 11 6 11.223 6 11.5C6 11.777 6.223 12 6.5 12H10.5C10.777 12 11 11.777 11 11.5C11 11.223 10.777 11 10.5 11H6.5Z" fill-opacity="context-stroke-opacity" fill="context-stroke"/>
</svg>
