<!-- This Source Code Form is subject to the terms of the Mozilla Public
   - License, v. 2.0. If a copy of the MPL was not distributed with this
   - file, You can obtain one at http://mozilla.org/MPL/2.0/. -->
<svg xmlns="http://www.w3.org/2000/svg" fill-opacity="context-fill-opacity" viewBox="0 0 16 16" height="16" width="16">
  <path d="M3.5 3a.5.5 0 0 0-.5.5v1a.5.5 0 0 0 .5.5.5.5 0 0 0 .5-.5v-1a.5.5 0 0 0-.5-.5Zm4 0a.5.5 0 0 0-.5.5v6.59a1.51 1.51 0 0 0-1 1.416 1.507 1.507 0 0 0 1.5 1.496c.823 0 1.5-.678 1.5-1.5V11.5a1.512 1.512 0 0 0-1-1.41V3.5a.5.5 0 0 0-.5-.5Zm4 0a.5.5 0 0 0-.5.5v2a.5.5 0 0 0 .5.5.5.5 0 0 0 .5-.5v-2a.5.5 0 0 0-.5-.5ZM3.496 6.002A1.508 1.508 0 0 0 2 7.506a1.506 1.506 0 0 0 1 1.406V12.5a.5.5 0 0 0 .5.5.5.5 0 0 0 .5-.5V8.912c.58-.208 1-.763 1-1.41V7.5a1.51 1.51 0 0 0-1.504-1.498Zm.002 1a.494.494 0 0 1 .502.5.491.491 0 0 1-.488.498.5.5 0 0 0-.012 0 .5.5 0 0 0-.006.002A.492.492 0 0 1 3 7.504c0-.283.216-.502.498-.502Zm7.998 0A1.508 1.508 0 0 0 10 8.506a1.506 1.506 0 0 0 1 1.406V12.5a.5.5 0 0 0 .5.5.5.5 0 0 0 .5-.5V9.912c.58-.208 1-.763 1-1.41V8.5a1.51 1.51 0 0 0-1.504-1.498Zm.002 1c.282-.001.5.216.502.498v.002a.491.491 0 0 1-.488.498.5.5 0 0 0-.012 0 .5.5 0 0 0-.006.002.492.492 0 0 1-.494-.498c0-.283.216-.502.498-.502zm-4 3a.494.494 0 0 1 .502.5c0 .282-.218.5-.5.5a.492.492 0 0 1-.5-.498c0-.283.216-.502.498-.502z" fill="context-stroke"/>
</svg>
