<!-- This Source Code Form is subject to the terms of the Mozilla Public
   - License, v. 2.0. If a copy of the MPL was not distributed with this
   - file, You can obtain one at http://mozilla.org/MPL/2.0/. -->
<svg xmlns="http://www.w3.org/2000/svg" xml:space="preserve" fill-opacity="context-fill-opacity" viewBox="0 0 16 16" height="16" width="16">
  <path d="M8 1c-1.958 0-3.606.883-4.855 2.148a.5.5 0 0 0 .003.707.5.5 0 0 0 .707-.003C4.963 2.73 6.34 2 8 2c1.19 0 2.296.345 3.229.941a.5.5 0 0 0 .69-.152.5.5 0 0 0-.151-.69A6.976 6.976 0 0 0 8 1Zm0 2C5.245 3 3 5.245 3 8a.5.5 0 0 0 .5.5A.5.5 0 0 0 4 8c0-2.215 1.785-4 4-4s3.982 1.784 4 4.004c.011 1.366-.064 3.941-.916 5.219a.5.5 0 0 0 .139.693.5.5 0 0 0 .693-.139c1.148-1.722 1.095-4.399 1.084-5.78C12.978 5.245 10.756 3 8 3Zm5.393 1.012a.5.5 0 0 0-.182.07.5.5 0 0 0-.152.691 5.962 5.962 0 0 1 .921 3.717.5.5 0 0 0 .457.54.5.5 0 0 0 .54-.46 6.972 6.972 0 0 0-1.074-4.336.5.5 0 0 0-.315-.218.5.5 0 0 0-.195-.004Zm-11.391.98a.5.5 0 0 0-.463.309 7.022 7.022 0 0 0-.354 4.303.5.5 0 0 0 .6.373.5.5 0 0 0 .373-.602 6.017 6.017 0 0 1 .305-3.69.5.5 0 0 0-.27-.654.5.5 0 0 0-.191-.039ZM8 5C6.35 5 5 6.35 5 8c0 .508.122 1.314.064 2.145-.057.83-.285 1.568-.841 1.939a.5.5 0 0 0-.139.693.5.5 0 0 0 .693.139c.944-.629 1.216-1.736 1.284-2.703C6.128 9.246 6 8.302 6 8c0-1.11.89-2 2-2 .63 0 1.158.124 1.484.35.327.225.516.524.516 1.15a.5.5 0 0 0 .5.5.5.5 0 0 0 .5-.5c0-.874-.369-1.575-.947-1.975C9.474 5.125 8.75 5 8 5Zm0 2.06a.624.624 0 0 0-.121.018c-.315.079-.515.294-.656.541A1.768 1.768 0 0 0 7 8.5v3.338c-.459.84-1.006 1.665-1.8 2.262a.5.5 0 0 0-.1.7.5.5 0 0 0 .7.1c.914-.685 1.524-1.605 2.044-2.543a.5.5 0 0 0 .015-.02C8.555 11.076 9 9.74 9 8.5c0-.43-.059-.763-.234-1.041A.908.908 0 0 0 8 7.061ZM3.5 9a.5.5 0 0 0-.5.5c0 .833-.354 1.146-.854 1.646a.5.5 0 0 0 0 .708.5.5 0 0 0 .708 0C3.354 11.354 4 10.667 4 9.5a.5.5 0 0 0-.5-.5Zm7.006 0a.5.5 0 0 0-.506.494c-.017 1.495-.547 3.032-1.889 4.692a.5.5 0 0 0 .075.703.5.5 0 0 0 .703-.075c1.452-1.797 2.092-3.58 2.111-5.308A.5.5 0 0 0 10.506 9Z" fill="context-stroke"/>
</svg>
