<!-- This Source Code Form is subject to the terms of the Mozilla Public
   - License, v. 2.0. If a copy of the MPL was not distributed with this
   - file, You can obtain one at http://mozilla.org/MPL/2.0/. -->
<svg xmlns="http://www.w3.org/2000/svg" fill-opacity="context-fill-opacity" viewBox="0 0 16 16" height="16" width="16">
  <path d="M2 3.5c-.277 0-.5.223-.5.5v8c0 .831.669 1.5 1.5 1.5h6.379l-.94-.94a1.515 1.515 0 0 1 0-2.12 1.515 1.515 0 0 1 2.122 0l.439.439V8.5c0-.817.683-1.5 1.5-1.5s1.5.683 1.5 1.5v2.379l.44-.44c.019-.019.04-.036.06-.054V8c0-1-.82-1.5-1.5-1.5H8.5l-2-3z" fill="context-fill"/>
  <path d="M2 3c-.545 0-1 .455-1 1v8c0 1.1.9 2 2 2h6.879l-1-1H3c-.563 0-1-.437-1-1V6h2.5a.5.5 0 0 0 .5-.5.5.5 0 0 0-.5-.5H2V4h4.232l1.852 2.777A.5.5 0 0 0 8.5 7H13c.218 0 .487.09.678.254.19.165.322.383.322.746v2.879l.44-.44c.161-.161.354-.278.56-.35V6c0-1.1-.9-2-2-2H7.5a.5.5 0 0 0-.059.012l-.525-.79A.5.5 0 0 0 6.5 3Zm6.102 2H13c.563 0 1 .437 1 1v.264A2.045 2.045 0 0 0 13 6H8.768ZM12.5 8a.5.5 0 0 0-.5.5v4.793l-2.146-2.147a.5.5 0 0 0-.708.708l3 3a.507.507 0 0 0 .036.025.5.5 0 0 0 .132.08.448.448 0 0 0 .15.035L12.5 15a.213.213 0 0 0 .035-.006.53.53 0 0 0 .15-.035.496.496 0 0 0 .133-.08.507.507 0 0 0 .036-.025l3-3a.5.5 0 0 0-.708-.708L13 13.293V8.5a.5.5 0 0 0-.5-.5Z" fill="context-stroke"/>
</svg>
