<!-- This Source Code Form is subject to the terms of the Mozilla Public
   - License, v. 2.0. If a copy of the MPL was not distributed with this
   - file, You can obtain one at http://mozilla.org/MPL/2.0/. -->
<svg xmlns="http://www.w3.org/2000/svg" fill-opacity="context-fill-opacity" viewBox="0 0 16 16" width="16" height="16">
  <path d="M2 3.5c-.277 0-.5.223-.5.5v8c0 .831.669 1.5 1.5 1.5h5.635a3.5 3.5 0 0 1-.635-2A3.5 3.5 0 0 1 11.5 8c1.229 0 2.4.5 3 1.5V8c0-1-.82-1.5-1.5-1.5H8.5l-2-3H3Z" fill="context-fill"/>
  <path d="M2 3c-.545 0-1 .455-1 1v8c0 1.1.9 2 2 2h5.5a.5.5 0 0 0 .5-.5.5.5 0 0 0-.5-.5H3c-.563 0-1-.437-1-1V6h2.5a.5.5 0 0 0 .5-.5.5.5 0 0 0-.5-.5H2V4h4.232l1.852 2.777A.5.5 0 0 0 8.5 7H13c.218 0 .487.09.678.254.19.165.322.383.322.746v1.5a.5.5 0 0 0 .5.5.5.5 0 0 0 .5-.5V6c0-1.1-.9-2-2-2H7.5a.5.5 0 0 0-.06.01l-.524-.787A.5.5 0 0 0 6.5 3Zm6.102 2H13c.563 0 1 .437 1 1v.264A2.045 2.045 0 0 0 13 6H8.768ZM11.5 9A2.508 2.508 0 0 0 9 11.5c0 1.375 1.125 2.5 2.5 2.5a2.48 2.48 0 0 0 1.377-.416l1.27 1.27a.5.5 0 0 0 .707 0 .5.5 0 0 0 0-.708l-1.27-1.269A2.48 2.48 0 0 0 14 11.5c0-1.375-1.125-2.5-2.5-2.5Zm0 1c.834 0 1.5.666 1.5 1.5s-.666 1.5-1.5 1.5-1.5-.666-1.5-1.5.666-1.5 1.5-1.5Z" fill="context-stroke"/>
</svg>
