<!-- This Source Code Form is subject to the terms of the Mozilla Public
   - License, v. 2.0. If a copy of the MPL was not distributed with this
   - file, You can obtain one at http://mozilla.org/MPL/2.0/. -->
<svg xmlns="http://www.w3.org/2000/svg" fill-opacity="context-fill-opacity" viewBox="0 0 16 16" width="16" height="16">
  <path d="M2 3.5c-.277 0-.5.223-.5.5v8c0 .831.669 1.5 1.5 1.5h5v-4C8 8.669 8.669 8 9.5 8h2.611c.725 0 1.383.046 1.889.5h.5V8c0-1-.82-1.5-1.5-1.5H8.5l-2-3H3Z" fill="context-fill"/>
  <path d="M2 3c-.545 0-1 .455-1 1v8c0 1.1.9 2 2 2h4.5a.5.5 0 0 0 .5-.5.5.5 0 0 0-.5-.5H3c-.563 0-1-.437-1-1V6h2.5a.5.5 0 0 0 .5-.5.5.5 0 0 0-.5-.5H2V4h4.232l1.852 2.777A.5.5 0 0 0 8.5 7H13c.218 0 .487.09.678.254.19.165.322.383.322.746v.5a.5.5 0 0 0 .059.219.5.5 0 0 0 .023.047.5.5 0 0 0 .152.152.5.5 0 0 0 .047.023A.5.5 0 0 0 14.5 9a.5.5 0 0 0 .219-.059.5.5 0 0 0 .047-.023.5.5 0 0 0 .152-.152.5.5 0 0 0 .023-.047A.5.5 0 0 0 15 8.5V6c0-1.1-.9-2-2-2H7.5a.5.5 0 0 0-.06.01l-.524-.787A.5.5 0 0 0 6.5 3Zm6.102 2H13c.563 0 1 .437 1 1v.264A2.045 2.045 0 0 0 13 6H8.768ZM9.5 9a.5.5 0 0 0-.5.5.5.5 0 0 0 .5.5h.5a4 4 0 0 1 4 4v.5a.5.5 0 0 0 .5.5.5.5 0 0 0 .5-.5.5.5 0 0 0 0-.002.5.5 0 0 0 0-.002.5.5 0 0 0 0-.002.5.5 0 0 0 0-.002.5.5 0 0 0 0-.002.5.5 0 0 0 0-.002.5.5 0 0 0 0-.002.5.5 0 0 0 0-.002.5.5 0 0 0 0-.002.5.5 0 0 0 0-.002.5.5 0 0 0 0-.001.5.5 0 0 0 0-.002.5.5 0 0 0 0-.002V14a5 5 0 0 0-5-5h-.475A.5.5 0 0 0 9.5 9Zm0 2a.5.5 0 0 0-.5.5.5.5 0 0 0 .5.5h.5a2 2 0 0 1 2 2v.5a.5.5 0 0 0 .5.5.5.5 0 0 0 .5-.5.5.5 0 0 0 0-.002.5.5 0 0 0 0-.002.5.5 0 0 0 0-.002.5.5 0 0 0 0-.002.5.5 0 0 0 0-.002.5.5 0 0 0 0-.002.5.5 0 0 0 0-.002.5.5 0 0 0 0-.002.5.5 0 0 0 0-.002.5.5 0 0 0 0-.002.5.5 0 0 0 0-.001.5.5 0 0 0 0-.002.5.5 0 0 0 0-.002V14a3 3 0 0 0-3-3h-.475a.5.5 0 0 0-.025 0Zm.5 2a1 1 0 0 0-1 1 1 1 0 0 0 1 1 1 1 0 0 0 1-1 1 1 0 0 0-1-1z" fill="context-stroke"/>
</svg>
