<!-- This Source Code Form is subject to the terms of the Mozilla Public
   - License, v. 2.0. If a copy of the MPL was not distributed with this
   - file, You can obtain one at http://mozilla.org/MPL/2.0/. -->
<svg xmlns="http://www.w3.org/2000/svg" fill-opacity="context-fill-opacity" viewBox="0 0 16 16" height="16" width="16">
  <path d="M8.5 3.5a1 1 0 0 1 .707.293l3 3a1 1 0 0 1 0 1.414l-3 3a1 1 0 0 1-1.414-1.414L9.086 8.5H5c-.294 0-.5.205-.5.5v1.5a1 1 0 0 1-2 0V9c0-1.368 1.132-2.5 2.5-2.5h4.086L7.793 5.207A1 1 0 0 1 8.5 3.5Z" fill="context-fill"/>
  <path d="M8.5 3a1.5 1.5 0 0 0-1.06.439 1.508 1.508 0 0 0 0 2.121l.439.44H5C3.356 6 2 7.356 2 9v1.5c0 .822.677 1.5 1.5 1.5S5 11.322 5 10.5V9h2.879l-.44.439a1.508 1.508 0 0 0 0 2.121c.582.582 1.54.582 2.122 0l3-3c.092-.093.173-.197.238-.31h-.002a1.494 1.494 0 0 0 0-1.5h.002a1.504 1.504 0 0 0-.238-.311l-3-3a1.5 1.5 0 0 0-1.061-.44Zm0 1a.5.5 0 0 1 .354.146l3 3c.03.03.056.066.078.104a.5.5 0 0 0 .002 0 .499.499 0 0 1 0 .5.5.5 0 0 0-.002 0 .498.498 0 0 1-.078.103l-3 3c-.2.2-.508.2-.708 0a.493.493 0 0 1 0-.707l1.293-1.293A.5.5 0 0 0 9.086 8H5c-.527 0-1 .472-1 1v1.5c0 .282-.218.5-.5.5a.493.493 0 0 1-.5-.5V9c0-1.092.908-2 2-2h4.086a.5.5 0 0 0 .353-.854L8.146 4.853a.493.493 0 0 1 0-.707A.5.5 0 0 1 8.5 4Z" fill="context-stroke"/>
</svg>
