<!-- This Source Code Form is subject to the terms of the Mozilla Public
   - License, v. 2.0. If a copy of the MPL was not distributed with this
   - file, You can obtain one at http://mozilla.org/MPL/2.0/. -->
<svg xmlns="http://www.w3.org/2000/svg" fill-opacity="context-fill-opacity" viewBox="0 0 16 16" height="16" width="16">
  <path fill="context-stroke" d="M2.5 9a.5.5 0 0 0-.5.5V11c0 1.099.9 2 2 2h4.293l-2.147 2.146a.5.5 0 0 0 0 .707.5.5 0 0 0 .708 0l3-3a.5.5 0 0 0 .05-.06.5.5 0 0 0 .07-.139A.5.5 0 0 0 10 12.5a.5.5 0 0 0-.004-.06.5.5 0 0 0-.008-.052.5.5 0 0 0-.002-.007.5.5 0 0 0-.002-.006.5.5 0 0 0-.017-.053.5.5 0 0 0-.016-.04.5.5 0 0 0-.008-.015.5.5 0 0 0-.02-.033.5.5 0 0 0-.01-.018.5.5 0 0 0-.022-.029.5.5 0 0 0-.004-.006.5.5 0 0 0-.033-.035l-.022-.021-2.978-2.979A.5.5 0 0 0 6.5 9a.5.5 0 0 0-.354.146.5.5 0 0 0 0 .707L8.293 12H4c-.563 0-1-.438-1-1V9.5a.5.5 0 0 0-.5-.5Zm6.922.006a.5.5 0 0 0-.276.14.5.5 0 0 0 0 .707l2.647 2.647-2.647 2.646a.5.5 0 0 0 0 .707.5.5 0 0 0 .708 0l3-3a.5.5 0 0 0 0-.707l-3-3a.5.5 0 0 0-.432-.14Z"/>
  <path fill="context-fill" d="M9.422 1.006a.5.5 0 0 0-.276.14.5.5 0 0 0 0 .707L11.293 4H6c-1.1 0-2 .9-2 2v1.5a.5.5 0 0 0 .5.5.5.5 0 0 0 .5-.5V6c0-.563.437-1 1-1h5.293L9.146 7.146a.5.5 0 0 0 0 .707.5.5 0 0 0 .708 0l3-3a.5.5 0 0 0 .105-.156.5.5 0 0 0 .004-.006.5.5 0 0 0 .002-.006A.5.5 0 0 0 13 4.5a.5.5 0 0 0-.004-.065.5.5 0 0 0-.004-.015.5.5 0 0 0-.01-.05.5.5 0 0 0-.017-.052.5.5 0 0 0-.002-.01.5.5 0 0 0-.012-.025.5.5 0 0 0-.017-.033.5.5 0 0 0-.01-.016.5.5 0 0 0-.028-.039.5.5 0 0 0-.005-.008.5.5 0 0 0-.037-.04l-3-3a.5.5 0 0 0-.432-.141Z"/>
</svg>
