<!-- This Source Code Form is subject to the terms of the Mozilla Public
   - License, v. 2.0. If a copy of the MPL was not distributed with this
   - file, You can obtain one at http://mozilla.org/MPL/2.0/. -->
<svg xmlns="http://www.w3.org/2000/svg" fill-opacity="context-fill-opacity" viewBox="0 0 16 16" height="16" width="16">
  <path d="M3 4c-.554 0-1 .446-1 1v7c0 .554.446 1 1 1h5.879l-.44-.44a1.515 1.515 0 0 1 0-2.12 1.515 1.515 0 0 1 2.122 0l.439.439V8.5c0-.817.683-1.5 1.5-1.5s1.5.683 1.5 1.5V5c0-.554-.446-1-1-1Z" fill="context-fill"/>
  <path d="M3 3c-1.1 0-2 .9-2 2v7c0 1.1.9 2 2 2h6.879l-1-1H3c-.563 0-1-.437-1-1V5c0-.563.437-1 1-1h10c.563 0 1 .437 1 1v5.879l.44-.44c.161-.161.354-.276.56-.347V5c0-1.1-.9-2-2-2Zm.47 2.002a.5.5 0 0 0-.343.166.5.5 0 0 0 .041.705l2.781 2.47-2.803 2.803a.5.5 0 0 0 0 .708.5.5 0 0 0 .708 0L6.697 9.01l.971.863a.5.5 0 0 0 .664 0l.97-.863L11 10.707V9.293l-.95-.95 2.782-2.47a.5.5 0 0 0 .041-.705.5.5 0 0 0-.705-.041L8 8.832 3.832 5.127a.5.5 0 0 0-.361-.125ZM12.5 8a.5.5 0 0 0-.5.5v4.793l-2.146-2.147a.5.5 0 0 0-.708 0 .5.5 0 0 0 0 .708l3 3a.5.5 0 0 0 .036.025.5.5 0 0 0 .058.04.5.5 0 0 0 .074.04.5.5 0 0 0 .065.021.5.5 0 0 0 .086.014.5.5 0 0 0 .035.006.5.5 0 0 0 .035-.006.5.5 0 0 0 .086-.014.5.5 0 0 0 .065-.021.5.5 0 0 0 .074-.04.5.5 0 0 0 .058-.04.5.5 0 0 0 .036-.025l3-3a.5.5 0 0 0 0-.708.5.5 0 0 0-.708 0L13 13.293V8.5a.5.5 0 0 0-.5-.5Z" fill="context-stroke"/>
</svg>
