<!-- This Source Code Form is subject to the terms of the Mozilla Public
   - License, v. 2.0. If a copy of the MPL was not distributed with this
   - file, You can obtain one at http://mozilla.org/MPL/2.0/. -->
<svg xmlns="http://www.w3.org/2000/svg" fill-opacity="context-fill-opacity" viewBox="0 0 16 16" width="16" height="16">
  <path d="M14.5 7.5a7 7 0 1 1-14 0 7 7 0 0 1 14 0z" fill="context-fill"/>
  <path d="M7.5 0C3.818 0 .749 2.667.12 6.17l-.022.129a7.517 7.517 0 0 0 0 2.404l.021.127C.75 12.333 3.818 15 7.5 15c3.682 0 6.751-2.667 7.38-6.17l.022-.127a7.518 7.518 0 0 0 0-2.404l-.021-.129C14.25 2.667 11.182 0 7.5 0Zm0 1.137c.257.225.661.631 1.084 1.265.298.447.597 1.002.844 1.674A23.127 23.127 0 0 0 7.5 4c-.708 0-1.346.028-1.928.076.214-.59.498-1.151.844-1.674.305-.467.67-.892 1.084-1.265Zm-1.393.013a7.97 7.97 0 0 0-.523.698 9.031 9.031 0 0 0-1.107 2.353c-1.335.198-2.282.518-2.95.852-.022.01-.042.022-.064.033A6.494 6.494 0 0 1 6.107 1.15Zm2.786 0a6.494 6.494 0 0 1 4.644 3.936l-.064-.033c-.668-.334-1.615-.654-2.95-.852a9.066 9.066 0 0 0-1.107-2.353 7.853 7.853 0 0 0-.523-.698ZM7.5 5c.848 0 1.587.04 2.236.11C9.9 5.804 10 6.6 10 7.5c0 .9-.101 1.693-.264 2.389A21.13 21.13 0 0 1 7.5 10a21.13 21.13 0 0 1-2.236-.111A10.47 10.47 0 0 1 5 7.5c0-.9.101-1.695.264-2.39C5.913 5.04 6.652 5 7.5 5Zm-3.29.26C4.08 5.934 4 6.68 4 7.5c0 .82.079 1.566.21 2.24-1.023-.184-1.743-.44-2.237-.687-.456-.228-.721-.446-.87-.594-.021-.022-.022-.026-.039-.043a6.569 6.569 0 0 1 0-1.834l.04-.041c.148-.148.413-.366.869-.594.494-.247 1.214-.503 2.238-.687Zm6.58 0c1.023.184 1.743.44 2.237.687.456.228.721.446.87.594l.039.041a6.59 6.59 0 0 1 0 1.834c-.017.017-.018.021-.04.043-.148.148-.413.366-.869.594-.494.247-1.214.503-2.238.687.132-.674.211-1.42.211-2.24 0-.82-.079-1.566-.21-2.24ZM1.462 9.914l.064.033c.668.334 1.615.654 2.95.852a9.077 9.077 0 0 0 1.107 2.353c.177.265.354.494.525.698a6.495 6.495 0 0 1-4.646-3.936Zm12.074 0A6.495 6.495 0 0 1 8.89 13.85c.171-.204.348-.433.525-.698.48-.727.853-1.52 1.107-2.353 1.335-.198 2.282-.518 2.95-.852.022-.01.042-.022.064-.033zm-7.965 1.01c.582.048 1.22.076 1.928.076s1.346-.028 1.928-.076a7.947 7.947 0 0 1-.844 1.674A6.391 6.391 0 0 1 7.5 13.863a6.391 6.391 0 0 1-1.084-1.265 7.947 7.947 0 0 1-.844-1.674Z" fill="context-stroke"/>
</svg>
