<!-- This Source Code Form is subject to the terms of the Mozilla Public
   - License, v. 2.0. If a copy of the MPL was not distributed with this
   - file, You can obtain one at http://mozilla.org/MPL/2.0/. -->
<svg xmlns="http://www.w3.org/2000/svg" fill-opacity="context-fill-opacity" viewBox="0 0 16 16" width="16" height="16">
  <path d="M7.5.5a7 7 0 0 0-7 7 7 7 0 0 0 7 7 7 7 0 0 0 .695-.035A2.466 2.466 0 0 1 8 13.5v-2c0-.78.434-1.393 1-1.852V9.5C9 7.58 10.58 6 12.5 6c.714 0 1.38.22 1.936.592A7 7 0 0 0 7.5.5Zm3 10c-.554 0-1 .446-1 1v2c0 .554.446 1 1 1h4c.554 0 1-.446 1-1v-2c0-.554-.446-1-1-1z" fill="context-fill"/>
  <path d="M7.5 0C3.818 0 .749 2.667.12 6.17l-.022.129a7.517 7.517 0 0 0 0 2.404l.021.127C.75 12.333 3.818 15 7.5 15c.326 0 .647-.022.963-.063-.3-.42-.462-.922-.463-1.437v-.139a5.56 5.56 0 0 1-.5.502 6.391 6.391 0 0 1-1.084-1.265 7.947 7.947 0 0 1-.844-1.674c.582.048 1.22.076 1.928.076.197 0 .378-.008.564-.012.102-.388.317-.725.59-1.015-1.13.055-2.264.027-3.39-.084A10.487 10.487 0 0 1 5 7.5c0-.9.101-1.695.264-2.39C5.913 5.04 6.652 5 7.5 5c.848 0 1.587.04 2.236.11.136.582.226 1.238.252 1.962.276-.285.601-.523.96-.703-.037-.389-.09-.76-.159-1.11 1.024.185 1.744.441 2.238.688.1.05.186.099.268.147.65.153 1.233.488 1.69.949a7.638 7.638 0 0 0-.083-.744l-.021-.129C14.25 2.667 11.182 0 7.5 0Zm0 1.137c.257.225.661.631 1.084 1.265.298.447.597 1.002.844 1.674A23.127 23.127 0 0 0 7.5 4c-.708 0-1.346.028-1.928.076.214-.59.498-1.151.844-1.674.305-.467.67-.892 1.084-1.265Zm-1.393.013a7.97 7.97 0 0 0-.523.698 9.031 9.031 0 0 0-1.107 2.353c-1.335.198-2.282.518-2.95.852-.022.01-.042.022-.064.033A6.494 6.494 0 0 1 6.107 1.15Zm2.786 0a6.494 6.494 0 0 1 4.644 3.936l-.064-.033c-.668-.334-1.615-.654-2.95-.852a9.066 9.066 0 0 0-1.107-2.353 7.853 7.853 0 0 0-.523-.698ZM4.21 5.26C4.079 5.934 4 6.68 4 7.5c0 .82.079 1.566.21 2.24-1.023-.184-1.743-.44-2.237-.687-.456-.228-.721-.446-.87-.594-.021-.022-.022-.026-.039-.043a6.573 6.573 0 0 1 0-1.834l.04-.041c.148-.148.413-.366.869-.594.494-.247 1.214-.503 2.238-.687ZM12.5 7A2.506 2.506 0 0 0 10 9.5v.59c-.58.208-1 .763-1 1.41v2c0 .822.678 1.5 1.5 1.5h4c.822 0 1.5-.678 1.5-1.5v-2c0-.647-.42-1.202-1-1.41V9.5C15 8.124 13.876 7 12.5 7Zm0 1c.84 0 1.5.66 1.5 1.5v.5h-3v-.5c0-.84.66-1.5 1.5-1.5ZM1.463 9.912l.064.035c.668.334 1.615.654 2.95.852a9.066 9.066 0 0 0 1.107 2.353c.177.265.354.494.525.698a6.496 6.496 0 0 1-4.646-3.938ZM10.5 11h4c.286 0 .5.214.5.5v2c0 .286-.214.5-.5.5h-4a.488.488 0 0 1-.5-.5v-2c0-.286.214-.5.5-.5Z" fill="context-stroke"/>
</svg>
