<!-- This Source Code Form is subject to the terms of the Mozilla Public
   - License, v. 2.0. If a copy of the MPL was not distributed with this
   - file, You can obtain one at http://mozilla.org/MPL/2.0/. -->
<svg xmlns="http://www.w3.org/2000/svg" fill-opacity="context-fill-opacity" viewBox="0 0 16 16" height="16" width="16">
  <path d="M11.148 2.5c-.854 0-1.708.558-2.363 1.213l-.805.708 1.475 1.284c.47.41.44 1.15 0 1.59-.44.44-1.151.44-1.592 0L6.561 5.992C5.16 7.457 4.665 8.02 3.5 9.25c1.621 1.58 2.1 2.149 3.63 3.816.217.217.541.434.866.434.325 0 .65-.217.867-.434 1.5-1.695 3.05-3.139 4.65-4.738.656-.654.987-1.412.987-2.328 0-.916-.331-1.863-.986-2.518a3.337 3.337 0 0 0-2.366-.982Z" fill="context-fill"/>
  <path d="M4.844 2c-.983 0-1.97.38-2.719 1.129C1.358 3.896 1 4.966 1 6s.392 1.95 1.125 2.682a.48.48 0 0 0 .004.004c1.619 1.578 3.111 3.061 4.633 4.718l.008.008.007.008c.035.034.071.069.11.103.038.035.077.07.119.104h.002c.042.033.085.067.13.098a1.81 1.81 0 0 0 .475.222 1.406 1.406 0 0 0 .766 0c.356-.098.631-.32.838-.527l.012-.01.01-.012a46.757 46.757 0 0 1 1.69-1.804c.955-.97 1.933-1.908 2.938-2.912a4.253 4.253 0 0 0 .68-.897A3.633 3.633 0 0 0 15 6a4.39 4.39 0 0 0-.156-1.162 3.852 3.852 0 0 0-.977-1.71 3.871 3.871 0 0 0-2.35-1.11h-.001A3.844 3.844 0 0 0 11.148 2c-.067 0-.133.003-.199.008a3.178 3.178 0 0 0-1.295.406 5.166 5.166 0 0 0-.65.434 6.51 6.51 0 0 0-.572.511l-.463.407-.407-.407C6.854 2.651 5.917 2 4.845 2Zm0 1c.637 0 1.41.465 2.011 1.066.337.314.687.643.999.909l1.273 1.107c.237.206.225.609-.025.86a.614.614 0 0 1-.885 0L6.553 5.276l-.354.37c-1.252 1.31-1.827 1.944-2.754 2.93-.204-.201-.405-.402-.613-.604C2.255 7.396 2 6.798 2 6s.29-1.622.832-2.164A2.83 2.83 0 0 1 4.844 3Zm6.304 0a2.83 2.83 0 0 1 2.204 1.053c.12.152.224.318.312.496v.002c.219.444.336.952.336 1.449 0 .696-.201 1.241-.639 1.754v.002a3.98 3.98 0 0 1-.2.217c-.793.792-1.577 1.55-2.352 2.324a60.45 60.45 0 0 0-1.73 1.787c-.191.206-.38.415-.57.629-.117.118-.29.22-.411.264a.33.33 0 0 1-.102.023.33.33 0 0 1-.1-.023h-.001a1.198 1.198 0 0 1-.276-.153h-.002a1.114 1.114 0 0 1-.133-.111l-.234-.256 2.604-2.603a.5.5 0 0 0-.708-.708l-2.574 2.575a96.12 96.12 0 0 0-.754-.81l2.057-2.057a.5.5 0 0 0-.707-.708l-2.045 2.045a71.88 71.88 0 0 0-.936-.943c.814-.865 1.442-1.543 2.385-2.537l.938.937c.63.631 1.668.631 2.299 0 .63-.63.677-1.708-.026-2.32l-1.02-.887.364-.363.012-.012c.45-.45.998-.825 1.511-.984A1.9 1.9 0 0 1 11.148 3Z" fill="context-stroke"/>
</svg>
