<!-- This Source Code Form is subject to the terms of the Mozilla Public
   - License, v. 2.0. If a copy of the MPL was not distributed with this
   - file, You can obtain one at http://mozilla.org/MPL/2.0/. -->
<svg xmlns="http://www.w3.org/2000/svg" fill-opacity="context-fill-opacity" viewBox="0 0 16 16" height="16" width="16">
  <path d="M13.514 8.327c.655-.654.986-1.41.986-2.327 0-.916-.331-1.864-.986-2.518a3.335 3.335 0 0 0-2.365-.982c-.854 0-1.71.558-2.364 1.212l-.789.788-.788-.788C6.553 3.058 5.698 2.5 4.844 2.5c-.855 0-1.71.327-2.365.982C1.824 4.136 1.5 5.084 1.5 6c0 .916.324 1.673.979 2.327C4.1 9.908 5.599 11.4 7.13 13.067c.217.216.542.433.866.433.325 0 .65-.216.867-.433 1.5-1.696 3.05-3.14 4.65-4.74Z" fill="context-fill"/>
  <path d="M4.844 2c-.983 0-1.97.38-2.719 1.129C1.358 3.896 1 4.966 1 6s.392 1.95 1.125 2.682a.5.5 0 0 0 .004.004c1.619 1.578 3.111 3.061 4.633 4.718a.5.5 0 0 0 .015.016c.276.275.672.58 1.22.58.546 0 .944-.305 1.22-.58a.5.5 0 0 0 .02-.022c1.48-1.673 3.022-3.11 4.63-4.716C14.6 7.95 15 7.037 15 6s-.367-2.106-1.133-2.871A3.843 3.843 0 0 0 11.148 2c-1.072 0-2.008.651-2.716 1.36l-.436.433-.434-.434C6.854 2.651 5.917 2 4.845 2Zm0 1c.637 0 1.41.465 2.011 1.066l.788.788a.5.5 0 0 0 .707 0l.789-.788C9.74 3.466 10.51 3 11.149 3a2.83 2.83 0 0 1 2.011.836C13.704 4.38 14 5.204 14 6s-.262 1.395-.84 1.973c-1.585 1.584-3.137 3.032-4.65 4.74-.158.157-.411.287-.514.287-.103 0-.354-.13-.512-.287-1.534-1.67-3.035-3.164-4.652-4.74C2.255 7.396 2 6.798 2 6s.29-1.622.832-2.164A2.83 2.83 0 0 1 4.844 3Z" fill="context-stroke"/>
</svg>
