<!-- This Source Code Form is subject to the terms of the Mozilla Public
   - License, v. 2.0. If a copy of the MPL was not distributed with this
   - file, You can obtain one at http://mozilla.org/MPL/2.0/. -->
<svg xmlns="http://www.w3.org/2000/svg" fill-opacity="context-fill-opacity" viewBox="0 0 16 16" height="16" width="16">
  <path d="M8 3.5A3.5 3.5 0 0 0 4.5 7a3.5 3.5 0 0 0 .316 1.453l3.903-4.88A3.5 3.5 0 0 0 8 3.5Zm3.107 1.892-3.99 4.989A3.5 3.5 0 0 0 8 10.5 3.5 3.5 0 0 0 11.5 7a3.5 3.5 0 0 0-.393-1.608Z" fill="context-fill"/>
  <path d="M11.445 2.002a.5.5 0 0 0-.336.185l-8 10a.5.5 0 0 0 .079.703.5.5 0 0 0 .703-.078l8-10a.5.5 0 0 0-.079-.703.5.5 0 0 0-.367-.107ZM8 3c-.069 0-.137.002-.205.006-3.657.114-5.73 3.244-6.711 4.716a.5.5 0 0 0 0 .555c.422.633 1.05 1.572 1.914 2.447l.637-.795c-.619-.654-1.107-1.356-1.492-1.93.519-.771 1.225-1.776 2.185-2.585A3.972 3.972 0 0 0 4 7c0 .68.171 1.32.473 1.882l.7-.878a2.993 2.993 0 0 1 2.664-4h.009A3.06 3.06 0 0 1 8 4c.052 0 .103.002.154.004h.008c.067.003.132.011.197.02l.74-.927a6.343 6.343 0 0 0-.894-.091A4.018 4.018 0 0 0 8 3Zm3.943 1.35-1.181 1.476c.152.36.238.756.238 1.174a2.992 2.992 0 0 1-3.537 2.949l-.688.857c.387.125.798.194 1.225.194 2.203 0 4-1.797 4-4 0-.563-.117-1.1-.328-1.586.96.81 1.666 1.814 2.185 2.586-1.034 1.537-2.808 4-5.857 4a5.29 5.29 0 0 1-1.9-.348l-.65.814A6.29 6.29 0 0 0 8 13c3.786 0 5.916-3.223 6.916-4.723a.5.5 0 0 0 0-.555c-.578-.867-1.536-2.31-2.973-3.373Zm-4.416.712a2 2 0 0 0-1.523 1.904Zm2.461 1.73-1.74 2.174A2 2 0 0 0 10 7a2 2 0 0 0-.012-.207Z" fill="context-stroke"/>
</svg>
