<!-- This Source Code Form is subject to the terms of the Mozilla Public
   - License, v. 2.0. If a copy of the MPL was not distributed with this
   - file, You can obtain one at http://mozilla.org/MPL/2.0/. -->
<svg xmlns="http://www.w3.org/2000/svg" fill-opacity="context-fill-opacity" viewBox="0 0 16 16" width="16" height="16">
  <path d="M4 2c-1.108 0-2 .892-2 2v8c0 1.108.892 2 2 2h8c1.108 0 2-.892 2-2V4c0-1.108-.892-2-2-2Zm1 3h6v1H5ZM4 7h8v3h-1.17c-.41 1.167-1.52 2-2.83 2s-2.42-.833-2.83-2H4Z" fill="context-fill"/>
  <path d="M4 1C2.347 1 1 2.347 1 4v8c0 1.653 1.347 3 3 3h8c1.653 0 3-1.347 3-3V4c0-1.653-1.347-3-3-3Zm0 1h8c1.117 0 2 .883 2 2v5h-1V7c0-.545-.455-1-1-1V5c0-.545-.455-1-1-1H5c-.545 0-1 .455-1 1v1c-.545 0-1 .455-1 1v2.002c-.342 0-.673 0-1-.002V4c0-1.117.883-2 2-2Zm1 3h6v1H5ZM4 7h8v2h-1.5a.5.5 0 0 0-.5.5c0 .667-.722 1.5-2 1.5s-2-.833-2-1.5a.5.5 0 0 0-.5-.5c-.399 0-.951 0-1.5.002Zm1.244 3c.299 1.084 1.28 2 2.756 2 1.476 0 2.457-.916 2.756-2H14v2c0 1.117-.883 2-2 2H4c-1.117 0-2-.883-2-2v-1.998c1.123.004 2.362-.001 3.244-.002Z" fill="context-stroke"/>
</svg>
