<!-- This Source Code Form is subject to the terms of the Mozilla Public
   - License, v. 2.0. If a copy of the MPL was not distributed with this
   - file, You can obtain one at http://mozilla.org/MPL/2.0/. -->
<svg xmlns="http://www.w3.org/2000/svg" fill-opacity="context-fill-opacity" viewBox="0 0 16 16" height="16" width="16">
  <path d="M3 3.5c-.831 0-1.5.669-1.5 1.5v7c0 .83.669 1.5 1.5 1.5h4.5v-10z" fill="context-fill"/>
  <path d="M3 3c-1.1 0-2 .9-2 2v7c0 1.099.9 2 2 2h10c1.1 0 2-.901 2-2V5c0-1.1-.9-2-2-2Zm0 1h4v9H3c-.563 0-1-.438-1-1V5c0-.563.437-1 1-1Zm5 0h5c.563 0 1 .437 1 1v7c0 .562-.437 1-1 1H8ZM3.5 6a.5.5 0 0 0-.5.5.5.5 0 0 0 .5.5h2a.5.5 0 0 0 .5-.5.5.5 0 0 0-.5-.5Zm0 2a.5.5 0 0 0-.5.5.5.5 0 0 0 .5.5h2a.5.5 0 0 0 .5-.5.5.5 0 0 0-.5-.5Zm0 2a.5.5 0 0 0-.5.5.5.5 0 0 0 .5.5h2a.5.5 0 0 0 .5-.5.5.5 0 0 0-.5-.5Z" fill="context-stroke"/>
</svg>
