<!-- This Source Code Form is subject to the terms of the Mozilla Public
   - License, v. 2.0. If a copy of the MPL was not distributed with this
   - file, You can obtain one at http://mozilla.org/MPL/2.0/. -->
<svg xmlns="http://www.w3.org/2000/svg" fill-opacity="context-fill-opacity" viewBox="0 0 16 16" height="16" width="16">
  <path d="M11.588 1a1.992 1.992 0 0 0-1.414.582L8.052 3.703a2.006 2.006 0 0 0 0 2.829l.354.355-1.52 1.52-.354-.354a2.007 2.007 0 0 0-2.828 0l-2.122 2.122a2.006 2.006 0 0 0 0 2.827l1.414 1.415a2.008 2.008 0 0 0 2.83 0l2.12-2.122a2.006 2.006 0 0 0 0-2.828l-.353-.354 1.52-1.52.354.353c.777.778 2.05.778 2.828 0l2.121-2.121a2.006 2.006 0 0 0 0-2.829l-1.414-1.414A1.989 1.989 0 0 0 11.588 1zm0 .99c.254 0 .508.1.707.299l1.414 1.414a.988.988 0 0 1 0 1.414L11.588 7.24a.987.987 0 0 1-1.414 0l-.354-.352 1.032-1.033a.5.5 0 0 0 0-.707.5.5 0 0 0-.707 0L9.113 6.18l-.354-.355a.987.987 0 0 1 0-1.415l2.122-2.121a1 1 0 0 1 .707-.298zm-6.47 6.471c.255 0 .509.1.708.299l.353.353-1.033 1.033a.5.5 0 0 0 0 .708.5.5 0 0 0 .707 0L6.886 9.82l.354.354a.987.987 0 0 1 0 1.414L5.119 13.71a.99.99 0 0 1-1.415-.001l-1.415-1.414a.986.986 0 0 1 0-1.415L4.41 8.76a.998.998 0 0 1 .709-.299z" fill="context-stroke"/>
</svg>
