<!-- This Source Code Form is subject to the terms of the Mozilla Public
   - License, v. 2.0. If a copy of the MPL was not distributed with this
   - file, You can obtain one at http://mozilla.org/MPL/2.0/. -->
<svg xmlns="http://www.w3.org/2000/svg" fill-opacity="context-fill-opacity" viewBox="0 0 16 16" height="16" width="16">
  <path d="M4 5.5h8c.831 0 1.5.669 1.5 1.5v6c0 .83-.669 1.5-1.5 1.5H4c-.831 0-1.5-.67-1.5-1.5V7c0-.831.669-1.5 1.5-1.5Z" fill="context-fill"/>
  <path d="M8 0C5.793 0 4 1.792 4 4v1c-1.1 0-2 .9-2 2v6c0 1.099.9 2 2 2h8c1.1 0 2-.901 2-2V7c0-1.1-.9-2-2-2V4c0-2.208-1.793-4-4-4Zm0 1c1.67 0 3 1.329 3 3v1H5V4c0-1.671 1.33-3 3-3ZM4 6h8c.563 0 1 .437 1 1v6c0 .562-.437 1-1 1H4c-.563 0-1-.438-1-1V7c0-.563.437-1 1-1Zm4 2c-.546 0-1 .453-1 1 0 .323.16.613.402.797l-.422 1.574a.5.5 0 0 0 .485.629H8.5a.5.5 0 0 0 .484-.621L8.59 9.802A1 1 0 0 0 9 9c0-.547-.454-1-1-1Z" fill="context-stroke"/>
</svg>
