<!-- This Source Code Form is subject to the terms of the Mozilla Public
   - License, v. 2.0. If a copy of the MPL was not distributed with this
   - file, You can obtain one at http://mozilla.org/MPL/2.0/. -->
<svg xmlns="http://www.w3.org/2000/svg" fill-opacity="context-fill-opacity" viewBox="0 0 16 16" width="16" height="16">
  <path d="M3 4h10c.554 0 1 .446 1 1v7c0 .554-.446 1-1 1H3c-.554 0-1-.446-1-1V5c0-.554.446-1 1-1Z" fill="context-fill"/>
  <path d="M3 3c-1.1 0-2 .9-2 2v7c0 1.1.9 2 2 2h10c1.1 0 2-.9 2-2V5c0-1.1-.9-2-2-2Zm0 1h10c.563 0 1 .437 1 1v7c0 .563-.437 1-1 1H3c-.563 0-1-.437-1-1V5c0-.563.437-1 1-1Zm.47 1.002a.5.5 0 0 0-.343.166.5.5 0 0 0 .041.705l2.781 2.47-2.803 2.803a.5.5 0 0 0 0 .708.5.5 0 0 0 .708 0L6.697 9.01l.971.863a.5.5 0 0 0 .664 0l.97-.863 2.844 2.844a.5.5 0 0 0 .708 0 .5.5 0 0 0 0-.708L10.05 8.344l2.781-2.471a.5.5 0 0 0 .041-.705.5.5 0 0 0-.705-.041L8 8.832 3.832 5.127a.5.5 0 0 0-.361-.125Z" fill="context-stroke"/>
</svg>
