<!-- This Source Code Form is subject to the terms of the Mozilla Public
   - License, v. 2.0. If a copy of the MPL was not distributed with this
   - file, You can obtain one at http://mozilla.org/MPL/2.0/. -->
<svg xmlns="http://www.w3.org/2000/svg" fill-opacity="context-fill-opacity" viewBox="0 0 16 16" width="16" height="16">
  <path d="M3 4c-.554 0-1 .446-1 1v7c0 .554.446 1 1 1h5v-1.5c0-.78.434-1.393 1-1.852V9.5C9 7.58 10.58 6 12.5 6c.536 0 1.044.123 1.5.342V5c0-.554-.446-1-1-1Zm7.5 6.5c-.554 0-1 .446-1 1v2c0 .554.446 1 1 1h4c.554 0 1-.446 1-1v-2c0-.554-.446-1-1-1z" fill="context-fill"/>
  <path d="M3 3c-1.1 0-2 .9-2 2v7c0 1.1.9 2 2 2h5.05a2.48 2.48 0 0 1-.05-.5V13H3c-.563 0-1-.437-1-1V5c0-.563.437-1 1-1h10c.563 0 1 .437 1 1v1.342c.374.18.713.424 1 .719V5c0-1.1-.9-2-2-2Zm.47 2.002a.5.5 0 0 0-.343.166.5.5 0 0 0 .041.705l2.781 2.47-2.803 2.803a.5.5 0 0 0 0 .708.5.5 0 0 0 .708 0L6.697 9.01l.971.863a.5.5 0 0 0 .664 0l.676-.6a3.496 3.496 0 0 1 1.021-2.244L8 8.832 3.832 5.127a.5.5 0 0 0-.361-.125Zm8.928.01a.5.5 0 0 0-.23.115l-1.86 1.654a3.474 3.474 0 0 1 2.376-.777l.148-.131a.5.5 0 0 0 .041-.705.5.5 0 0 0-.475-.156ZM12.5 7A2.506 2.506 0 0 0 10 9.5v.59c-.58.208-1 .763-1 1.41v2c0 .822.678 1.5 1.5 1.5h4c.822 0 1.5-.678 1.5-1.5v-2c0-.647-.42-1.202-1-1.41V9.5C15 8.124 13.876 7 12.5 7Zm0 1c.84 0 1.5.66 1.5 1.5v.5h-3v-.5c0-.84.66-1.5 1.5-1.5Zm-2 3h4c.286 0 .5.214.5.5v2c0 .286-.214.5-.5.5h-4a.488.488 0 0 1-.5-.5v-2c0-.286.214-.5.5-.5Z" fill="context-stroke"/>
</svg>
