<!-- This Source Code Form is subject to the terms of the Mozilla Public
   - License, v. 2.0. If a copy of the MPL was not distributed with this
   - file, You can obtain one at http://mozilla.org/MPL/2.0/. -->
<svg xmlns="http://www.w3.org/2000/svg" fill-opacity="context-fill-opacity" viewBox="0 0 16 16" height="16" width="16">
  <path d="M4 7c-.546 0-1 .453-1 1 0 .546.454 1 1 1s1-.454 1-1v-.002a.5.5 0 0 0 0-.002A1.008 1.008 0 0 0 4 7Zm4 0c-.546 0-1 .453-1 1 0 .546.454 1 1 1s1-.454 1-1v-.002a.5.5 0 0 0 0-.002A1.008 1.008 0 0 0 8 7Zm4 0c-.546 0-1 .453-1 1 0 .546.454 1 1 1s1-.454 1-1v-.002a.5.5 0 0 0 0-.002A1.008 1.008 0 0 0 12 7Z" fill="context-stroke"/>
</svg>
