<!-- This Source Code Form is subject to the terms of the Mozilla Public
   - License, v. 2.0. If a copy of the MPL was not distributed with this
   - file, You can obtain one at http://mozilla.org/MPL/2.0/. -->
<svg xmlns="http://www.w3.org/2000/svg" fill-opacity="context-fill-opacity" viewBox="0 0 16 16" height="16" width="16">
  <path d="M13 3c-1.099 0-2 .901-2 2s.901 2 2 2 2-.901 2-2-.901-2-2-2zm0 1c.558 0 1 .442 1 1s-.442 1-1 1-1-.442-1-1 .442-1 1-1zM8 5a.5.5 0 0 0-.371.166l-4.5 5a.5.5 0 0 0 .037.705.5.5 0 0 0 .705-.037L8 6.246l4.129 4.588a.5.5 0 0 0 .705.037.5.5 0 0 0 .037-.705l-4.5-5A.5.5 0 0 0 8 5z" fill="context-stroke"/>
  <path d="M14.5 5A1.5 1.5 0 0 1 13 6.5 1.5 1.5 0 0 1 11.5 5 1.5 1.5 0 0 1 13 3.5 1.5 1.5 0 0 1 14.5 5Z" fill="context-fill"/>
</svg>
