<!-- This Source Code Form is subject to the terms of the Mozilla Public
   - License, v. 2.0. If a copy of the MPL was not distributed with this
   - file, You can obtain one at http://mozilla.org/MPL/2.0/. -->
<svg xmlns="http://www.w3.org/2000/svg" fill-opacity="context-fill-opacity" viewBox="0 0 16 16" height="16" width="16">
  <!-- Use both context-fill and context-stroke path to account for the styling coming from toolkit for those sections we can't override. -->
  <path d="M3.166 5.128a.5.5 0 0 0-.037.706l4.5 5a.5.5 0 0 0 .742 0l4.5-5a.5.5 0 0 0-.037-.706.5.5 0 0 0-.705.038L8 9.753 3.871 5.166a.5.5 0 0 0-.705-.038z" fill="context-fill transparent"/>
  <path d="M3.166 5.128a.5.5 0 0 0-.037.706l4.5 5a.5.5 0 0 0 .742 0l4.5-5a.5.5 0 0 0-.037-.706.5.5 0 0 0-.705.038L8 9.753 3.871 5.166a.5.5 0 0 0-.705-.038z" fill="context-stroke transparent"/>
</svg>
