<!-- This Source Code Form is subject to the terms of the Mozilla Public
   - License, v. 2.0. If a copy of the MPL was not distributed with this
   - file, You can obtain one at http://mozilla.org/MPL/2.0/. -->
<svg xmlns="http://www.w3.org/2000/svg" fill-opacity="context-fill-opacity" viewBox="0 0 16 16" height="16" width="16">
  <path d="M8.5 3a.5.5 0 0 0-.354.146.5.5 0 0 0 0 .707L11.293 7H3.5a.5.5 0 0 0-.5.5.5.5 0 0 0 .5.5h7.793l-3.147 3.146a.5.5 0 0 0 0 .707.5.5 0 0 0 .708 0l4-4a.5.5 0 0 0 .103-.152.5.5 0 0 0 .008-.024A.5.5 0 0 0 13 7.5a.5.5 0 0 0-.018-.13.5.5 0 0 0-.048-.12.5.5 0 0 0-.08-.104l-4-4A.5.5 0 0 0 8.5 3Z" fill="context-stroke"/>
</svg>
