<!-- This Source Code Form is subject to the terms of the Mozilla Public
   - License, v. 2.0. If a copy of the MPL was not distributed with this
   - file, You can obtain one at http://mozilla.org/MPL/2.0/. -->
<svg xmlns="http://www.w3.org/2000/svg" fill-opacity="context-fill-opacity" viewBox="0 0 16 16" height="16" width="16">
  <!-- Use both context-fill and context-stroke path to account for the styling coming from toolkit for those sections we can't override. -->
  <path d="M10.872 3.166a.5.5 0 0 0-.706-.037l-5 4.5a.5.5 0 0 0 0 .742l5 4.5a.5.5 0 0 0 .706-.037.5.5 0 0 0-.038-.705L6.247 8l4.587-4.129a.5.5 0 0 0 .038-.705z" fill="context-fill transparent"/>
  <path d="M10.872 3.166a.5.5 0 0 0-.706-.037l-5 4.5a.5.5 0 0 0 0 .742l5 4.5a.5.5 0 0 0 .706-.037.5.5 0 0 0-.038-.705L6.247 8l4.587-4.129a.5.5 0 0 0 .038-.705z" fill="context-stroke transparent"/>
</svg>
