<!-- This Source Code Form is subject to the terms of the Mozilla Public
   - License, v. 2.0. If a copy of the MPL was not distributed with this
   - file, You can obtain one at http://mozilla.org/MPL/2.0/. -->
<svg xmlns="http://www.w3.org/2000/svg" fill-opacity="context-fill-opacity" viewBox="0 0 16 16" height="16" width="16">
  <path d="M3.525 5.002a.5.5 0 0 0-.359.127.5.5 0 0 0-.037.705l4.5 5a.5.5 0 0 0 .742 0l4.5-5a.5.5 0 0 0-.037-.705.5.5 0 0 0-.705.037L8 9.754 3.871 5.166a.5.5 0 0 0-.346-.164zM13 9c-1.099 0-2 .901-2 2s.901 2 2 2 2-.901 2-2-.901-2-2-2zm0 1c.558 0 1 .442 1 1s-.442 1-1 1-1-.442-1-1 .442-1 1-1z" fill="context-stroke"/>
  <path d="M14.5 11a1.5 1.5 0 0 1-1.5 1.5 1.5 1.5 0 0 1-1.5-1.5A1.5 1.5 0 0 1 13 9.5a1.5 1.5 0 0 1 1.5 1.5Z" fill="context-fill"/>
</svg>
