<!-- This Source Code Form is subject to the terms of the Mozilla Public
   - License, v. 2.0. If a copy of the MPL was not distributed with this
   - file, You can obtain one at http://mozilla.org/MPL/2.0/. -->
<svg xmlns="http://www.w3.org/2000/svg" fill-opacity="context-fill-opacity" viewBox="0 0 16 16" height="16" width="16">
  <!-- Use both context-fill and context-stroke path to account for the styling coming from toolkit for those sections we can't override. -->
  <path d="M5.128 3.166a.5.5 0 0 1 .706-.037l5 4.5a.5.5 0 0 1 0 .742l-5 4.5a.5.5 0 0 1-.706-.037.5.5 0 0 1 .038-.705L9.753 8 5.166 3.871a.5.5 0 0 1-.038-.705z" fill="context-fill transparent"/>
  <path d="M5.128 3.166a.5.5 0 0 1 .706-.037l5 4.5a.5.5 0 0 1 0 .742l-5 4.5a.5.5 0 0 1-.706-.037.5.5 0 0 1 .038-.705L9.753 8 5.166 3.871a.5.5 0 0 1-.038-.705z" fill="context-stroke transparent"/>
</svg>
