<!-- This Source Code Form is subject to the terms of the Mozilla Public
   - License, v. 2.0. If a copy of the MPL was not distributed with this
   - file, You can obtain one at http://mozilla.org/MPL/2.0/. -->
<svg xmlns="http://www.w3.org/2000/svg" fill-opacity="context-fill-opacity" viewBox="0 0 16 16" height="16" width="16">
  <path d="M7.5.5a7 7 0 0 0-7 7 7 7 0 0 0 3 5.728V11.75c0-.693.558-1.25 1.25-1.25H6.5v-.446A2.75 2.75 0 0 1 4.75 7.5 2.75 2.75 0 0 1 7.5 4.75a2.75 2.75 0 0 1 2.75 2.75 2.75 2.75 0 0 1-1.75 2.554v.338a1.49 1.49 0 0 1 1-.392H11V8.5c0-.817.683-1.5 1.5-1.5s1.5.683 1.5 1.5V10h.03a7 7 0 0 0 .47-2.5 7 7 0 0 0-7-7z" fill="context-fill"/>
  <path d="M7.5 0C3.364 0 0 3.363 0 7.5a7.493 7.493 0 0 0 3.143 6.1.5.5 0 0 0 .064.044 7.458 7.458 0 0 0 7.793.48V13h-.037A6.473 6.473 0 0 1 7.5 14c-1.29 0-2.49-.376-3.5-1.022V12c0-.563.437-1 1-1h1.5a.5.5 0 0 0 .1-.99c-.113-.023-.61-.332-.97-.815-.36-.483-.629-1.11-.63-1.695C5 6.113 6.113 5 7.5 5S10 6.113 10 7.5c-.001.585-.27 1.212-.63 1.695-.36.483-.857.792-.97.814a.5.5 0 0 0-.244.836A1.516 1.516 0 0 1 9.5 10h.398c.083-.096.193-.101.272-.207.46-.616.829-1.417.83-2.293C11 5.573 9.427 4 7.5 4A3.508 3.508 0 0 0 4 7.5c.001.876.37 1.677.83 2.293.08.106.19.11.272.207H5c-1.1 0-2 .9-2 2v.191A6.477 6.477 0 0 1 1 7.5C1 3.904 3.904 1 7.5 1a6.492 6.492 0 0 1 6.465 7.183v.002c.022.102.035.207.035.315V10h.568A7.46 7.46 0 0 0 15 7.5C15 3.363 11.636 0 7.5 0Zm5 8a.5.5 0 0 0-.5.5V11H9.5a.5.5 0 0 0-.5.5.5.5 0 0 0 .5.5H12v2.5a.5.5 0 0 0 .5.5.5.5 0 0 0 .5-.5V12h2.5a.5.5 0 0 0 .5-.5.5.5 0 0 0-.5-.5H13V8.5a.5.5 0 0 0-.5-.5Z" fill="context-stroke"/>
</svg>
