<!-- This Source Code Form is subject to the terms of the Mozilla Public
   - License, v. 2.0. If a copy of the MPL was not distributed with this
   - file, You can obtain one at http://mozilla.org/MPL/2.0/. -->
<svg xmlns="http://www.w3.org/2000/svg" fill-opacity="context-fill-opacity" viewBox="0 0 16 16" height="16" width="16">
  <path d="M7.5.5a7 7 0 0 0-7 7 7 7 0 0 0 2.002 4.877A10.446 10.446 0 0 1 2.5 12V9.5c0-.554.446-1 1-1h1s-1-.5-1-2c0-1 .5-2 2-2 1.027 0 1.584.468 1.834.923a2.991 2.991 0 0 1 2.771-.863 2.982 2.982 0 0 1 1.516.818 3.019 3.019 0 0 1 .818 1.516c.008.035.01.072.016.108L12.5 7c.817 0 1.5.683 1.5 1.5V10h.03c.306-.794.467-1.64.47-2.5a7 7 0 0 0-7-7z" fill="context-fill"/>
  <path d="M7.5 0C3.364 0 0 3.363 0 7.5 0 11.636 3.364 15 7.5 15a7.452 7.452 0 0 0 3.5-.87V13h-.035A6.472 6.472 0 0 1 6 13.824V12c0-.563.437-1 1-1h1.09c.134-.368.41-.673.76-.846a.5.5 0 0 0-.25-.145c-.113-.022-.61-.331-.97-.814-.36-.483-.629-1.11-.63-1.695 0-.084.006-.167.014-.248.001-.018.004-.034.006-.051a2.533 2.533 0 0 1 .078-.39c.013-.046.025-.092.04-.136l.022-.056c.02-.053.041-.105.065-.156l.013-.032a2.506 2.506 0 0 1 .457-.662.5.5 0 0 0 .01-.011A2.49 2.49 0 0 1 9.5 5c1.251 0 2.276.907 2.465 2.103a1.454 1.454 0 0 1 1.008-.023A3.508 3.508 0 0 0 9.5 4a3.48 3.48 0 0 0-2.1.703C6.99 4.305 6.355 4 5.5 4c-.861 0-1.537.312-1.947.804C3.143 5.297 3 5.916 3 6.5c0 .69.252 1.117.488 1.504A1.506 1.506 0 0 0 2 9.5v1.466A6.475 6.475 0 0 1 1 7.5C1 3.904 3.904 1 7.5 1a6.492 6.492 0 0 1 6.463 7.177c.024.105.037.212.037.323V10h.57c.278-.783.43-1.624.43-2.5C15 3.363 11.636 0 7.5 0Zm-2 5c.648 0 .98.2 1.184.427a3.481 3.481 0 0 0-.657 1.645c-.004.038-.01.076-.013.115v.004A3.515 3.515 0 0 0 6 7.5c.001.876.37 1.677.83 2.293.08.106.19.11.272.207H7c-1.1 0-2 .9-2 2v1.504a6.492 6.492 0 0 1-2-1.313V9.5c0-.286.214-.5.5-.5h1a.5.5 0 0 0 .223-.948s-.143-.066-.332-.302C4.201 7.513 4 7.139 4 6.5c0-.417.108-.798.322-1.055C4.537 5.188 4.862 5 5.5 5Zm7 3a.5.5 0 0 0-.5.5V11H9.5a.5.5 0 0 0 0 1H12v2.5a.5.5 0 0 0 1 0V12h2.5a.5.5 0 0 0 0-1H13V8.5a.5.5 0 0 0-.5-.5ZM11 9.597c-.245.225-.475.368-.572.403H11Z" fill="context-stroke"/>
</svg>
