<!-- This Source Code Form is subject to the terms of the Mozilla Public
   - License, v. 2.0. If a copy of the MPL was not distributed with this
   - file, You can obtain one at http://mozilla.org/MPL/2.0/. -->
<svg xmlns="http://www.w3.org/2000/svg" fill-opacity="context-fill-opacity" viewBox="0 0 16 16" height="16" width="16">
  <path d="M4 1C2.347 1 1 2.346 1 4v3c0 1.653 1.347 3 3 3v2.5a.5.5 0 0 0 .854.353L5.707 12H8.09a1.456 1.456 0 0 1 0-1H6.707l1-1H10c.35 0 .687-.06 1-.172V8.736A2.008 2.008 0 0 1 10 9H7.5a.5.5 0 0 0-.354.146L5 11.293V9.5a.5.5 0 0 0-.5-.5H4c-1.117 0-2-.884-2-2V4c0-1.117.883-2 2-2h6c1.117 0 2 .883 2 2v3c0 .03-.003.06-.004.091.159-.058.328-.091.504-.091.174 0 .341.033.498.09L13 7V4.263c.6.343 1 .986 1 1.737v4h.828c.111-.314.172-.65.172-1V6c0-1.35-.899-2.497-2.129-2.871A3.007 3.007 0 0 0 10 .999H4Zm.5 4a.5.5 0 0 0-.5.5.5.5 0 0 0 .5.5.5.5 0 0 0 .5-.5.5.5 0 0 0-.5-.5Zm1.975 0A.5.5 0 0 0 6.5 6h1a.5.5 0 1 0 0-1zM9.5 5a.5.5 0 0 0-.5.5.5.5 0 0 0 .5.5.5.5 0 0 0 .5-.5.5.5 0 0 0-.5-.5Zm3 3a.5.5 0 0 0-.5.5V11H9.5a.5.5 0 0 0-.5.5.5.5 0 0 0 .5.5H12v2.5a.5.5 0 0 0 .5.5.5.5 0 0 0 .5-.5V12h2.5a.5.5 0 0 0 .5-.5.5.5 0 0 0-.5-.5H13V8.5a.5.5 0 0 0-.5-.5Zm-3.227 4.98 1.747 1.746A1.444 1.444 0 0 1 11 14.5v-1.207L10.707 13H9.5a1.43 1.43 0 0 1-.227-.02Z" fill="context-stroke"/>
  <path d="M13 4.264V7l-.002.09C13.576 7.3 14 7.858 14 8.5V6c0-.75-.4-1.394-1-1.736Zm-2 5.564c-.313.111-.65.172-1 .172h1zM7.707 10l-1 1H8.09c.21-.577.768-1 1.41-1Zm3 3 .293.293V13Z" fill="context-fill"/>
</svg>
