<!-- This Source Code Form is subject to the terms of the Mozilla Public
   - License, v. 2.0. If a copy of the MPL was not distributed with this
   - file, You can obtain one at http://mozilla.org/MPL/2.0/. -->
<svg xmlns="http://www.w3.org/2000/svg" fill-opacity="context-fill-opacity" viewBox="0 0 16 16" height="16" width="16">
  <path d="M11 1.5A3.5 3.5 0 0 0 7.5 5a3.5 3.5 0 0 0 .246 1.264l-.24.242L7.5 6.5l-5 5v2h2l1-1v-1h1l1-1v-1h1l1-1-.006-.006.242-.24A3.5 3.5 0 0 0 11 8.5c0-.831.669-1.5 1.5-1.5.4 0 .761.155 1.03.408A3.5 3.5 0 0 0 14.5 5 3.5 3.5 0 0 0 11 1.5Zm.5 2a1 1 0 0 1 1 1 1 1 0 0 1-1 1 1 1 0 0 1-1-1 1 1 0 0 1 1-1z" fill="context-fill"/>
  <path d="M11 1C8.797 1 7 2.797 7 5a.5.5 0 0 0 0 .004c.003.373.108.731.213 1.088l-.055.054a.5.5 0 0 0-.012 0l-5 5A.5.5 0 0 0 2 11.5v2a.5.5 0 0 0 .5.5h2a.5.5 0 0 0 .354-.146l1-1A.5.5 0 0 0 6 12.5V12h.5a.5.5 0 0 0 .354-.146l1-1A.5.5 0 0 0 8 10.5V10h.5a.5.5 0 0 0 .354-.146l1-1a.5.5 0 0 0 .023-.036l.031-.03c.357.104.715.21 1.088.212A.5.5 0 0 0 11 9v-.5a1.5 1.5 0 0 1 .088-.504c-.029 0-.057.004-.086.004a3.004 3.004 0 0 1-1.082-.21.5.5 0 0 0-.535.108l-.242.24a.5.5 0 0 0-.008.02L8.293 9H7.5a.5.5 0 0 0-.5.5v.793L6.293 11H5.5a.5.5 0 0 0-.5.5v.793L4.293 13H3v-1.293l4.842-4.842a.5.5 0 0 0 .02-.008l.24-.242a.5.5 0 0 0 .109-.535A3.004 3.004 0 0 1 8 5v-.002A2.992 2.992 0 0 1 11 2c1.663 0 3 1.337 3 3a2.99 2.99 0 0 1-.885 2.133 1.5 1.5 0 0 1 .72.683A3.987 3.987 0 0 0 15 5c0-2.203-1.797-4-4-4Zm.5 2c-.823 0-1.5.677-1.5 1.5S10.677 6 11.5 6 13 5.323 13 4.5 12.323 3 11.5 3Zm0 1c.282 0 .5.218.5.5 0 .282-.218.5-.5.5a.493.493 0 0 1-.5-.5c0-.282.218-.5.5-.5Zm1 4a.5.5 0 0 0-.5.5V11H9.5a.5.5 0 0 0 0 1H12v2.5a.5.5 0 0 0 1 0V12h2.5a.5.5 0 0 0 0-1H13V8.5a.5.5 0 0 0-.5-.5Z" fill="context-stroke"/>
</svg>
