<!-- This Source Code Form is subject to the terms of the Mozilla Public
   - License, v. 2.0. If a copy of the MPL was not distributed with this
   - file, You can obtain one at http://mozilla.org/MPL/2.0/. -->
<svg xmlns="http://www.w3.org/2000/svg" fill-opacity="context-fill-opacity" viewBox="0 0 16 16" height="16" width="16">
  <path d="M4 1.5c-.831 0-1.5.669-1.5 1.5v10c0 .83.669 1.5 1.5 1.5h6V13H8.5c-.817 0-1.5-.684-1.5-1.5 0-.817.683-1.5 1.5-1.5H10V8.5c0-.817.683-1.5 1.5-1.5s1.5.683 1.5 1.5V10h.5V3c0-.831-.669-1.5-1.5-1.5Z" fill="context-fill"/>
  <path d="M4 1c-1.1 0-2 .9-2 2h-.5a.5.5 0 1 0 0 1H2v2h-.5a.5.5 0 1 0 0 1H2v2h-.5a.5.5 0 1 0 0 1H2v2h-.5a.5.5 0 1 0 0 1H2c0 1.099.9 2 2 2h6.09a1.456 1.456 0 0 1-.09-.5V14H4c-.563 0-1-.438-1-1h.5a.5.5 0 1 0 0-1H3v-2h.5a.5.5 0 1 0 0-1H3V7h.5a.5.5 0 1 0 0-1H3V4h.5a.5.5 0 1 0 0-1H3c0-.563.437-1 1-1h8c.563 0 1 .437 1 1v7h1V3c0-1.1-.9-2-2-2Zm4.5 3c-.861 0-1.537.312-1.947.804C6.143 5.297 6 5.916 6 6.5c0 .86.298 1.486.61 1.875.181.227.258.242.39.334v.29h-.5c-.822 0-1.5.678-1.5 1.5v1a.5.5 0 0 0 .5.5.5.5 0 0 0 .5-.5v-1c0-.285.214-.5.5-.5h1a.5.5 0 0 0 .5-.5v-1a.5.5 0 0 0-.277-.447s-.143-.066-.332-.302C7.201 7.513 7 7.139 7 6.5c0-.417.108-.798.322-1.055C7.537 5.188 7.862 5 8.5 5c.639 0 .963.188 1.178.445.214.257.322.638.322 1.055 0 .639-.202 1.013-.39 1.25-.19.236-.333.302-.333.302A.5.5 0 0 0 9 8.5v1a.5.5 0 0 0 .5.5h.5V8.499c0-.621.397-1.166.947-1.39.034-.188.053-.39.053-.61 0-.583-.142-1.202-.553-1.695C10.037 4.312 9.361 4 8.5 4Zm3 4a.5.5 0 0 0-.5.5V11H8.5a.5.5 0 0 0-.5.5.5.5 0 0 0 .5.5H11v2.5a.5.5 0 0 0 .5.5.5.5 0 0 0 .5-.5V12h2.5a.5.5 0 0 0 .5-.5.5.5 0 0 0-.5-.5H12V8.5a.5.5 0 0 0-.5-.5Zm1.5 5v1.5c0 .082-.008.163-.021.242A2.006 2.006 0 0 0 14 13Z" fill="context-stroke"/>
</svg>
