<!-- This Source Code Form is subject to the terms of the Mozilla Public
   - License, v. 2.0. If a copy of the MPL was not distributed with this
   - file, You can obtain one at http://mozilla.org/MPL/2.0/. -->
<svg xmlns="http://www.w3.org/2000/svg" fill-opacity="context-fill-opacity" viewBox="0 0 16 16" height="16" width="16">
  <path d="M3 4c-.554 0-1 .446-1 1v7c0 .554.446 1 1 1h6.5c-.817 0-1.5-.683-1.5-1.5S8.683 10 9.5 10H11V8.5c0-.817.683-1.5 1.5-1.5s1.5.683 1.5 1.5V5c0-.554-.446-1-1-1Z" fill="context-fill"/>
  <path d="M3 3c-1.1 0-2 .9-2 2v7c0 1.1.9 2 2 2h8v-1H3c-.563 0-1-.437-1-1V5c0-.563.437-1 1-1h10c.563 0 1 .437 1 1v5h1V5c0-1.1-.9-2-2-2Zm.47 2.002a.5.5 0 0 0-.343.166.5.5 0 0 0 .041.705l2.781 2.47-2.803 2.803a.5.5 0 0 0 0 .708.5.5 0 0 0 .708 0L6.697 9.01l.971.863a.5.5 0 0 0 .664 0l.97-.863.991.99H11v-.707l-.95-.95 2.782-2.47a.5.5 0 0 0 .041-.705.5.5 0 0 0-.705-.041L8 8.832 3.832 5.127a.5.5 0 0 0-.361-.125ZM12.5 8a.5.5 0 0 0-.5.5V11H9.5a.5.5 0 0 0-.5.5.5.5 0 0 0 .5.5H12v2.5a.5.5 0 0 0 .5.5.5.5 0 0 0 .5-.5V12h2.5a.5.5 0 0 0 .5-.5.5.5 0 0 0-.5-.5H13V8.5a.5.5 0 0 0-.5-.5Zm1.5 5v.729c.301-.176.553-.428.729-.729Z" fill="context-stroke"/>
</svg>
