<!-- This Source Code Form is subject to the terms of the Mozilla Public
   - License, v. 2.0. If a copy of the MPL was not distributed with this
   - file, You can obtain one at http://mozilla.org/MPL/2.0/. -->
<svg xmlns="http://www.w3.org/2000/svg" fill-opacity="context-fill-opacity" viewBox="0 0 16 16" height="16" width="16">
  <path d="M3.5 1.5c-1.108 0-2 1.892-2 3h13c0-1.108-.892-3-2-3z" fill="context-fill"/>
  <path d="M4 1C2.347 1 1 2.346 1 4v8c0 1.653 1.347 3 3 3h5.5a.5.5 0 0 0 .5-.5.5.5 0 0 0-.5-.5H4c-1.117 0-2-.884-2-2V5h2v.5a.5.5 0 0 0 1 0V5h6v.5a.5.5 0 0 0 1 0V5h2v4.5a.5.5 0 0 0 .5.5.5.5 0 0 0 .5-.5V4c0-1.654-1.347-3-3-3Zm0 1h8c1.117 0 2 .883 2 2h-2v-.5a.5.5 0 0 0-.5-.493.5.5 0 0 0-.5.493V4H5v-.5a.5.5 0 0 0-.5-.493.5.5 0 0 0-.5.493V4H2c0-1.117.883-2 2-2Zm.5 5a.5.5 0 0 0-.492.5.5.5 0 0 0 .492.5h1a.5.5 0 0 0 .428-.748A.5.5 0 0 0 5.5 7Zm3.016 0a.5.5 0 0 0-.493.5.5.5 0 0 0 .493.5h1a.5.5 0 0 0 .427-.252.5.5 0 0 0 0-.496A.5.5 0 0 0 8.516 7ZM11.5 8a.5.5 0 0 0-.5.5V11H8.5a.5.5 0 0 0-.5.5.5.5 0 0 0 .5.5H11v2.5a.5.5 0 0 0 .5.5.5.5 0 0 0 .5-.5V12h2.5a.5.5 0 0 0 .5-.5.5.5 0 0 0-.5-.5H12V8.5a.5.5 0 0 0-.5-.5Zm-7 1a.5.5 0 0 0-.492.5.5.5 0 0 0 .492.5h1a.5.5 0 0 0 .428-.748A.5.5 0 0 0 5.5 9Zm3.016 0a.5.5 0 0 0-.493.5.5.5 0 0 0 .493.5h1a.5.5 0 0 0 0-1zM4.5 11a.5.5 0 0 0-.492.5.5.5 0 0 0 .492.5h1a.5.5 0 0 0 .428-.252.5.5 0 0 0 0-.496A.5.5 0 0 0 5.5 11Zm9.371 2.017a.5.5 0 0 0-.225.13l-.5.5a.5.5 0 0 0 0 .706.5.5 0 0 0 .708 0l.5-.5a.5.5 0 0 0 0-.707.5.5 0 0 0-.483-.129z" fill="context-stroke"/>
</svg>
