<!-- This Source Code Form is subject to the terms of the Mozilla Public
   - License, v. 2.0. If a copy of the MPL was not distributed with this
   - file, You can obtain one at http://mozilla.org/MPL/2.0/. -->
<svg xmlns="http://www.w3.org/2000/svg" fill-opacity="context-fill-opacity" viewBox="0 0 16 16" height="16" width="16">
  <path d="M6.5 0c-.647 0-1.204.42-1.412 1H4c-1.1 0-2 .9-2 2v10c0 1.1.9 2 2 2h6.086a1.5 1.5 0 0 1-.086-.5V14H4c-.563 0-1-.437-1-1V3c0-.563.437-1 1-1h1.086A1.51 1.51 0 0 0 6.5 3.004h3A1.51 1.51 0 0 0 10.914 2H12c.563 0 1 .437 1 1v7h1V3c0-1.1-.9-2-2-2h-1.088c-.208-.58-.765-1-1.412-1Zm0 1h3c.286 0 .5.214.5.5v.004c0 .286-.214.5-.5.5h-3a.488.488 0 0 1-.5-.5V1.5c0-.286.214-.5.5-.5Zm4.06 5.004a.5.5 0 0 0-.13.002.5.5 0 0 0-.33.193L7.445 9.74 5.854 8.145a.5.5 0 0 0-.708 0 .5.5 0 0 0 0 .708l2 2A1.497 1.497 0 0 1 8.5 10l1.756-2.34c.028-.041.058-.08.09-.119l.554-.74a.5.5 0 0 0-.1-.701.5.5 0 0 0-.24-.096ZM11.5 8a.5.5 0 0 0-.5.5V11H8.5a.5.5 0 0 0-.5.5.5.5 0 0 0 .5.5H11v2.5a.5.5 0 0 0 .5.5.5.5 0 0 0 .5-.5V12h2.5a.5.5 0 0 0 .5-.5.5.5 0 0 0-.5-.5H12V8.5a.5.5 0 0 0-.5-.5Zm1.5 5v1.5c0 .082-.009.162-.021.24A2.004 2.004 0 0 0 14 13Z" fill="context-stroke"/>
  <path d="M4 1.5c-.554 0-1.5.946-1.5 1.5v10c0 .554.946 1.5 1.5 1.5h6V13H8.5c-.831 0-1.5-.669-1.5-1.5S7.669 10 8.5 10H10V8.5c0-.831.669-1.5 1.5-1.5s1.5.669 1.5 1.5h.5V3c0-.554-.946-1.5-1.5-1.5h-1.5V2c0 .277-.223.5-.5.5H6a.499.499 0 0 1-.5-.5v-.5Z" fill="context-fill"/>
</svg>
