<!-- This Source Code Form is subject to the terms of the Mozilla Public
   - License, v. 2.0. If a copy of the MPL was not distributed with this
   - file, You can obtain one at http://mozilla.org/MPL/2.0/. -->
<svg xmlns="http://www.w3.org/2000/svg" fill-opacity="context-fill-opacity" viewBox="0 0 16 16" height="16" width="16">
  <path d="M7.5.5a7 7 0 0 0-7 7 7 7 0 0 0 1.748 4.605c0-.035 0-.07.002-.105v-2c0-.831.669-1.5 1.5-1.5h1.5c-.72-.146-1.998-1.538-2-3a3 3 0 0 1 5.838-.97A2.998 2.998 0 0 1 12.455 7h.045c.817 0 1.5.683 1.5 1.5V10h.016a7 7 0 0 0 .484-2.5 7 7 0 0 0-7-7ZM2.371 12.244a7 7 0 0 0 .436.43 7 7 0 0 1-.436-.43zm.697.66a7 7 0 0 0 .504.371 7 7 0 0 1-.504-.371zm.778.555a7 7 0 0 0 .56.304 7 7 0 0 1-.56-.304zm6.574.388a7 7 0 0 1-.764.297 7 7 0 0 0 .764-.297zm-5.719.06a7 7 0 0 0 .615.23 7 7 0 0 1-.615-.23zm4.778.298a7 7 0 0 1-.79.18 7 7 0 0 0 .79-.18zm-3.877.027a7 7 0 0 0 .664.145 7 7 0 0 1-.664-.145z" fill="context-fill"/>
  <path d="M7.5 0C3.364 0 0 3.363 0 7.5 0 11.636 3.364 15 7.5 15a7.452 7.452 0 0 0 3.5-.87V13h-.033A6.47 6.47 0 0 1 7.5 14a6.543 6.543 0 0 1-1.5-.176V12c0-.563.437-1 1-1h1.09c.134-.368.41-.673.76-.846a.5.5 0 0 0-.25-.145c-.113-.022-.61-.331-.97-.814-.314-.422-.561-.956-.618-1.475a.5.5 0 0 0 0-.002.5.5 0 0 0 0-.002.5.5 0 0 0 0-.002.5.5 0 0 0 0-.001.5.5 0 0 0 0-.002.5.5 0 0 0 0-.002.5.5 0 0 0 0-.002.5.5 0 0 0 0-.002.5.5 0 0 0 0-.002.5.5 0 0 0 0-.002.5.5 0 0 0 0-.002 2.117 2.117 0 0 1 .002-.443c.008-.082.017-.164.033-.243.006-.032.016-.062.023-.093a2.48 2.48 0 0 1 .203-.559 2.5 2.5 0 0 1 1.659-1.295h.002c.06-.014.121-.024.183-.033a2.489 2.489 0 0 1 2.848 2.07 1.455 1.455 0 0 1 1.008-.023A3.508 3.508 0 0 0 9.5 4c-.03 0-.06 0-.09.002A3.5 3.5 0 0 0 6.25 2a3.508 3.508 0 0 0-3.5 3.5c.001.876.37 1.677.83 2.293.08.106.19.11.272.207H3.75c-1.1 0-2 .9-2 2v.535A6.483 6.483 0 0 1 1 7.5C1 3.904 3.904 1 7.5 1a6.492 6.492 0 0 1 6.463 7.18c.023.103.037.21.037.32V10h.57c.278-.783.43-1.624.43-2.5C15 3.363 11.636 0 7.5 0ZM6.25 3c.893 0 1.608.511 2.041 1.216a3.51 3.51 0 0 0-2.287 3.436v.012c.003.045.007.09.012.133.072.76.407 1.45.814 1.996.08.106.19.11.272.207H7c-1.1 0-2 .9-2 2v1.504a6.498 6.498 0 0 1-2.25-1.565v-1.94c0-.562.437-1 1-1h1.5a.5.5 0 0 0 .1-.99c-.113-.022-.61-.331-.97-.814-.36-.483-.629-1.11-.63-1.695 0-1.387 1.113-2.5 2.5-2.5Zm6.25 5a.5.5 0 0 0-.5.5V11H9.5a.5.5 0 0 0 0 1H12v2.5a.5.5 0 0 0 1 0V12h2.5a.5.5 0 0 0 0-1H13V8.5a.5.5 0 0 0-.5-.5ZM11 9.597c-.245.225-.475.368-.572.403H11Z" fill="context-stroke"/>
</svg>
