<!-- This Source Code Form is subject to the terms of the Mozilla Public
   - License, v. 2.0. If a copy of the MPL was not distributed with this
   - file, You can obtain one at http://mozilla.org/MPL/2.0/. -->
<svg xmlns="http://www.w3.org/2000/svg" fill-opacity="context-fill-opacity" viewBox="0 0 16 16" height="16" width="16">
  <path d="M7.875 6.004a2.01 2.01 0 0 0-1.871 1.871zm2.121 2.121L8.125 9.996a2.01 2.01 0 0 0 1.871-1.871z" fill="context-stroke"/>
  <path d="M2.582 2.227a.5.5 0 0 0-.225.128A8.002 8.002 0 0 0 0 7.998a.5.5 0 0 0 0 .004 8.003 8.003 0 0 0 1.396 4.484l.043-.047.678-.677A6.996 6.996 0 0 1 1 8.002v-.004a6.998 6.998 0 0 1 2.064-4.932.5.5 0 0 0 .002-.709.5.5 0 0 0-.484-.13Zm12.03 1.277c-.018.019-.033.039-.051.057l-.668.668A7 7 0 0 1 15 7.998a6.998 6.998 0 0 1-2.064 4.936.5.5 0 0 0-.002.709.5.5 0 0 0 .709.002A8.002 8.002 0 0 0 16 8.002.5.5 0 0 0 16 8a8 8 0 0 0-1.389-4.496Zm-9.794.814a.5.5 0 0 0-.353.147A5 5 0 0 0 3 8c0 .812.2 1.603.568 2.31l.75-.75a4 4 0 0 1 .854-4.389.5.5 0 0 0 0-.706.5.5 0 0 0-.354-.147zm7.614 1.371-.75.75a4 4 0 0 1-.854 4.389.5.5 0 0 0 0 .707.5.5 0 0 0 .707 0A5 5 0 0 0 13 8c0-.812-.2-1.603-.568-2.31Z" fill="context-fill"/>
  <path d="m13.146 2.146-11 11a.5.5 0 0 0 0 .707.5.5 0 0 0 .708 0l11-11a.5.5 0 0 0 0-.707.5.5 0 0 0-.708 0z" fill="#ff555f"/>
</svg>
