<!-- This Source Code Form is subject to the terms of the Mozilla Public
   - License, v. 2.0. If a copy of the MPL was not distributed with this
   - file, You can obtain one at http://mozilla.org/MPL/2.0/. -->
<svg xmlns="http://www.w3.org/2000/svg" fill-opacity="context-fill-opacity" viewBox="0 0 16 16" height="16" width="16">
  <path d="M9.5 8A1.5 1.5 0 0 1 8 9.5 1.5 1.5 0 0 1 6.5 8 1.5 1.5 0 0 1 8 6.5 1.5 1.5 0 0 1 9.5 8Z" fill="context-fill"/>
  <path d="M13.3 2.199a.5.5 0 0 0-.353.146.5.5 0 0 0 0 .707A7 7 0 0 1 15 7.998a6.998 6.998 0 0 1-2.064 4.935.5.5 0 0 0-.002.71.5.5 0 0 0 .709.001A8.002 8.002 0 0 0 16 8.002.5.5 0 0 0 16 8a8 8 0 0 0-2.346-5.655.5.5 0 0 0-.353-.146Zm-10.718.027a.5.5 0 0 0-.225.13A8.002 8.002 0 0 0 0 7.997a.5.5 0 0 0 0 .004 8.002 8.002 0 0 0 2.357 5.642.5.5 0 0 0 .71-.002.5.5 0 0 0-.003-.709A6.998 6.998 0 0 1 1 8.002v-.004a6.998 6.998 0 0 1 2.064-4.932.5.5 0 0 0 .002-.709.5.5 0 0 0-.484-.13Zm2.236 2.092a.5.5 0 0 0-.353.146 5 5 0 0 0 0 7.07.5.5 0 0 0 .707 0 .5.5 0 0 0 0-.706 4 4 0 0 1 0-5.656.5.5 0 0 0 0-.708.5.5 0 0 0-.354-.146zm6.364 0a.5.5 0 0 0-.354.146.5.5 0 0 0 0 .708 4 4 0 0 1 0 5.656.5.5 0 0 0 0 .707.5.5 0 0 0 .707 0 5 5 0 0 0 0-7.07.5.5 0 0 0-.353-.147zM8 6c-1.099 0-2 .901-2 2 0 1.098.901 2 2 2s2-.902 2-2c0-1.099-.901-2-2-2Zm0 1c.558 0 1 .441 1 1 0 .558-.442 1-1 1s-1-.442-1-1c0-.559.442-1 1-1Z" fill="context-stroke"/>
</svg>
