<!-- This Source Code Form is subject to the terms of the Mozilla Public
   - License, v. 2.0. If a copy of the MPL was not distributed with this
   - file, You can obtain one at http://mozilla.org/MPL/2.0/. -->
<svg xmlns="http://www.w3.org/2000/svg" fill-opacity="context-fill-opacity" viewBox="0 0 16 16" width="16" height="16">
  <path d="M4 2c-1.108 0-2 .892-2 2v8c0 1.108.892 2 2 2h5.98l-.162-.607-1.824-.178a1.694 1.694 0 0 1-.133-.02c-.951-.18-1.746-.835-1.85-1.947-.377-.334-.596-.762-.767-1.248H4V7h7.688l1.462-.652.051-.022c.231-.093.497-.201.799-.281V4c0-1.108-.892-2-2-2Zm1 3h6v1H5Z" fill="context-fill"/>
  <path d="M4 1C2.347 1 1 2.347 1 4v8c0 1.653 1.347 3 3 3h6.248l-.268-1H4c-1.117 0-2-.883-2-2v-1.998c1.123.004 2.362-.001 3.244-.002.13.475.392.918.77 1.266A2.661 2.661 0 0 1 6 11c0-.33.066-.631.182-.9A1.184 1.184 0 0 1 6 9.5a.5.5 0 0 0-.5-.5c-.399 0-.951 0-1.5.002V7h7.688l1.162-.518A1.004 1.004 0 0 0 12 6V5c0-.545-.455-1-1-1H5c-.545 0-1 .455-1 1v1c-.545 0-1 .455-1 1v2.002c-.342 0-.673 0-1-.002V4c0-1.117.883-2 2-2h8c1.117 0 2 .883 2 2v2.045a3.24 3.24 0 0 1 .834-.113c.056 0 .111.005.166.01V4c0-1.653-1.347-3-3-3Zm1 4h6v1H5Zm9.834 1.932c-.471 0-.834.15-1.26.322a.5.5 0 0 0-.015.008l-5.58 2.484C7.437 9.915 7 10.388 7 11c0 .666.5 1.11 1.047 1.213a.5.5 0 0 0 .045.006l2.513.246.668 2.502c.062.265.2.5.403.691.203.192.489.342.824.342.629 0 1.043-.484 1.242-.924a.5.5 0 0 0 .018-.049l1.941-5.83a.5.5 0 0 0 .002-.004c.097-.296.297-.605.297-1.095 0-.639-.528-1.166-1.166-1.166Zm0 1c.098 0 .166.068.166.166 0 .176-.112.37-.248.787l-1.928 5.785c-.108.235-.219.33-.324.33-.033 0-.08-.015-.137-.068a.472.472 0 0 1-.117-.194.5.5 0 0 0-.004-.013l-.685-2.575 1.297-1.296a.5.5 0 0 0 0-.708.5.5 0 0 0-.708 0l-1.332 1.333-2.584-.25C8.156 11.213 8 11.069 8 11c0-.102.12-.259.297-.307a.5.5 0 0 0 .074-.025l5.576-2.486c.43-.173.622-.25.887-.25z" fill="context-stroke"/>
</svg>

