<!-- This Source Code Form is subject to the terms of the Mozilla Public
   - License, v. 2.0. If a copy of the MPL was not distributed with this
   - file, You can obtain one at http://mozilla.org/MPL/2.0/. -->
<svg xmlns="http://www.w3.org/2000/svg" fill-opacity="context-fill-opacity" viewBox="0 0 16 16" width="16" height="16">
  <path d="M3.53 3.002a.5.5 0 0 0-.362.125.5.5 0 0 0-.041.705L6.83 8l-3.703 4.168a.5.5 0 0 0 .041.705.5.5 0 0 0 .705-.041l4-4.5a.5.5 0 0 0 0-.664l-4-4.5a.5.5 0 0 0-.344-.166Zm5 0a.5.5 0 0 0-.362.125.5.5 0 0 0-.041.705L11.83 8l-3.703 4.168a.5.5 0 0 0 .041.705.5.5 0 0 0 .705-.041l4-4.5a.5.5 0 0 0 0-.664l-4-4.5a.5.5 0 0 0-.344-.166Z" fill="context-stroke"/>
</svg>
