<!-- This Source Code Form is subject to the terms of the Mozilla Public
   - License, v. 2.0. If a copy of the MPL was not distributed with this
   - file, You can obtain one at http://mozilla.org/MPL/2.0/. -->
<svg xmlns="http://www.w3.org/2000/svg" fill-opacity="context-fill-opacity" viewBox="0 0 16 16" height="16" width="16">
  <path d="M14.5 1.5c-.426-.02-.974.305-.974.305C8.372 6.95 6.5 6.5 6.5 8.5a1826.084 1826.084 0 0 0 2 2c2 0 1.81-2.545 6.963-7.692 0 0 .024-.379-.008-.75-.044-.507-.568-.472-.955-.558Zm-10 9c-.628 0-1.176.426-1.275.727L1.5 14.5c2.616 0 4.5 0 4.987-1.804.016-.062.013-.13.013-.195 0-2-1.239-2.007-2-2z" fill="context-fill"/>
  <path d="M14.523 1c-.35-.017-.637.09-.86.183-.225.093-.392.192-.392.192a.5.5 0 0 0-.1.076c-2.55 2.547-4.256 3.685-5.378 4.473-.561.393-.99.698-1.31 1.097a2.25 2.25 0 0 0-.477 1.266l-1.73 1.73a2.104 2.104 0 0 0-.88.31c-.297.19-.533.4-.646.743l.031-.076-1.724 3.271A.5.5 0 0 0 1.5 15c1.308 0 2.455.01 3.418-.243.963-.252 1.765-.873 2.05-1.931.012-.043.013-.072.018-.108l1.73-1.728a2.245 2.245 0 0 0 1.33-.602c.413-.382.746-.887 1.17-1.529.85-1.284 2.055-3.155 4.6-5.697a.5.5 0 0 0 .147-.323s.027-.403-.01-.824a1.016 1.016 0 0 0-.236-.576 1.05 1.05 0 0 0-.444-.289c-.287-.102-.531-.107-.664-.137A.5.5 0 0 0 14.523 1Zm-.056 1.002c.208.04.402.066.472.091l.018.008c.021.247.01.41.006.52-2.483 2.512-3.76 4.444-4.582 5.687-.422.638-.738 1.092-1.014 1.348-.228.212-.442.258-.719.285l-.795-.795-.804-.804c.023-.283.058-.5.215-.696.192-.24.552-.52 1.103-.906 1.091-.766 2.885-1.975 5.445-4.52.022-.012.095-.056.233-.113.153-.063.342-.107.422-.105ZM6.5 9.207l.646.646.647.647-.94.94c-.162-.524-.448-.896-.804-1.116a1.99 1.99 0 0 0-.457-.21ZM4.5 11a.5.5 0 0 0 .004 0c.377-.003.77.018 1.017.172.248.153.479.43.479 1.328 0 .083-.007.106.004.066-.201.746-.585 1.027-1.34 1.225-.55.144-1.44.138-2.305.152l1.309-2.484a.5.5 0 0 0 .031-.077c-.014.042.075-.109.233-.209.157-.1.367-.173.568-.173Z" fill="context-stroke"/>
</svg>
