<!-- This Source Code Form is subject to the terms of the Mozilla Public
   - License, v. 2.0. If a copy of the MPL was not distributed with this
   - file, You can obtain one at http://mozilla.org/MPL/2.0/. -->
<svg xmlns="http://www.w3.org/2000/svg" fill-opacity="context-fill-opacity" viewBox="0 0 16 16" height="16" width="16">
  <path d="M4 1.5c-.554 0-1.5.946-1.5 1.5v10c0 .554.946 1.5 1.5 1.5h8c.554 0 1.5-.946 1.5-1.5V3c0-.554-.946-1.5-1.5-1.5h-1.5V2c0 .277-.223.5-.5.5H6a.499.499 0 0 1-.5-.5v-.5Zm1 2h6c.277 0 .5.223.5.5v8c0 .277-.223.5-.5.5H5a.499.499 0 0 1-.5-.5V4c0-.277.223-.5.5-.5Z" fill="context-fill"/>
  <path d="M6.5 0c-.647 0-1.204.42-1.412 1H4c-1.1 0-2 .9-2 2v10c0 1.099.9 2 2 2h8c1.1 0 2-.901 2-2V3c0-1.1-.9-2-2-2h-1.088c-.208-.58-.765-1-1.412-1Zm0 1h3c.286 0 .5.214.5.5v.004c0 .285-.214.5-.5.5h-3a.488.488 0 0 1-.5-.5V1.5c0-.286.214-.5.5-.5ZM4 2h1.086c.196.55.708.958 1.312 1H5c-.545 0-1 .454-1 1v8c0 .545.455 1 1 1h6c.545 0 1-.455 1-1V4c0-.546-.455-1-1-1H9.602a1.512 1.512 0 0 0 1.312-1H12c.563 0 1 .437 1 1v10c0 .562-.437 1-1 1H4c-.563 0-1-.438-1-1V3c0-.563.437-1 1-1Zm1 2h6v8H5Zm1.5 1a.5.5 0 0 0-.5.5.5.5 0 0 0 .5.5h3a.5.5 0 0 0 .5-.5.5.5 0 0 0-.5-.5Zm0 2a.5.5 0 0 0-.5.5.5.5 0 0 0 .5.5h3a.5.5 0 0 0 .5-.5.5.5 0 0 0-.5-.5Zm0 2a.5.5 0 0 0-.5.5.5.5 0 0 0 .5.5h3a.5.5 0 0 0 .5-.5.5.5 0 0 0-.5-.5Z" fill="context-stroke"/>
</svg>
