<!-- This Source Code Form is subject to the terms of the Mozilla Public
   - License, v. 2.0. If a copy of the MPL was not distributed with this
   - file, You can obtain one at http://mozilla.org/MPL/2.0/. -->
<svg xmlns="http://www.w3.org/2000/svg" fill-opacity="context-fill-opacity" viewBox="0 0 16 16" height="16" width="16">
  <path d="M4 1.5c-.554 0-1.5.446-1.5 1v11c0 .554.946 1 1.5 1h8c.554 0 1.5-.446 1.5-1v-11c0-.554-.946-1-1.5-1h-1.5s-.5 1-1 1h-3c-.5 0-1-1-1-1zm1 3h6c.277 0 .5.223.5.5v7c0 .277-.223.5-.5.5H5a.499.499 0 0 1-.5-.5V5c0-.277.223-.5.5-.5Z" fill="context-fill"/>
  <path d="M6.5 0c-.647 0-1.204.42-1.412 1H4c-1.1 0-2 .9-2 2v10c0 1.099.9 2 2 2h8c1.1 0 2-.901 2-2V3c0-1.1-.9-2-2-2h-1.088c-.208-.58-.765-1-1.412-1Zm0 1h3c.286 0 .5.214.5.5v.004c0 .285-.214.5-.5.5h-3a.488.488 0 0 1-.5-.5V1.5c0-.286.214-.5.5-.5ZM4 2h1.086c.196.55.708.958 1.312 1h3.204a1.512 1.512 0 0 0 1.312-1H12c.563 0 1 .437 1 1v10c0 .562-.437 1-1 1H4c-.563 0-1-.438-1-1V3c0-.563.437-1 1-1Zm1.5 2C4.678 4 4 4.677 4 5.5v6c0 .822.678 1.5 1.5 1.5h5c.822 0 1.5-.678 1.5-1.5v-6c0-.823-.678-1.5-1.5-1.5Zm0 1h5c.286 0 .5.214.5.5v6c0 .285-.214.5-.5.5h-5a.488.488 0 0 1-.5-.5v-6c0-.286.214-.5.5-.5Zm1 1a.5.5 0 0 0 0 1h3a.5.5 0 0 0 0-1zm0 2a.5.5 0 0 0 0 1h3a.5.5 0 0 0 0-1zm0 2a.5.5 0 0 0 0 1h3a.5.5 0 0 0 0-1z" fill="context-stroke"/>
</svg>
