<!-- This Source Code Form is subject to the terms of the Mozilla Public
   - License, v. 2.0. If a copy of the MPL was not distributed with this
   - file, You can obtain one at http://mozilla.org/MPL/2.0/. -->
<svg xmlns="http://www.w3.org/2000/svg" fill-opacity="context-fill-opacity" viewBox="0 0 16 16" height="16" width="16">
  <path d="M4.5 3.5c-.554 0-1 .446-1 1v6c0 .554.446 1 1 1h3.623A4.5 4.5 0 0 1 12.5 8V4.5c0-.554-.446-1-1-1z" fill="context-fill"/>
  <path d="M4 1C2.347 1 1 2.346 1 4v8c0 1.653 1.347 3 3 3h4.764a4.5 4.5 0 0 1-.496-1H4c-1.117 0-2-.884-2-2V4c0-1.117.883-2 2-2h8c1.117 0 2 .883 2 2v4.258a4.5 4.5 0 0 1 1 .5V4c0-1.654-1.347-3-3-3H4zm.5 1.998V3C3.678 3 3 3.677 3 4.5v6c0 .822.678 1.5 1.5 1.5h3.535a4.5 4.5 0 0 1 .233-1H4.5a.488.488 0 0 1-.459-.293L6.062 9.09l1.715.857a.5.5 0 0 0 .577-.093L9.967 8.24l.303.364a4.5 4.5 0 0 1 .953-.418l-.838-1.006a.5.5 0 0 0-.362-.182.5.5 0 0 0-.377.148L7.9 8.893l-1.677-.84a.5.5 0 0 0-.535.056L4 9.46V4.498c0-.285.214-.5.5-.5h7c.286 0 .5.215.5.5v3.537A4.5 4.5 0 0 1 12.5 8a4.5 4.5 0 0 1 .5.03V4.497c0-.822-.678-1.5-1.5-1.5h-7zM7 5a1 1 0 0 0-1 1 1 1 0 0 0 1 1 1 1 0 0 0 1-1 1 1 0 0 0-1-1zm5.5 4A3.508 3.508 0 0 0 9 12.5c0 1.927 1.573 3.5 3.5 3.5s3.5-1.573 3.5-3.5S14.427 9 12.5 9zm0 1c1.387 0 2.5 1.113 2.5 2.5 0 .511-.151.987-.412 1.38l-3.469-3.468c.395-.26.87-.412 1.381-.412zm-2.088 1.12 3.469 3.468c-.395.26-.87.412-1.381.412a2.492 2.492 0 0 1-2.5-2.5c0-.512.151-.986.412-1.38z" fill="context-stroke"/>
</svg>
