<!-- This Source Code Form is subject to the terms of the Mozilla Public
   - License, v. 2.0. If a copy of the MPL was not distributed with this
   - file, You can obtain one at http://mozilla.org/MPL/2.0/. -->
<svg xmlns="http://www.w3.org/2000/svg" fill-opacity="context-fill-opacity" viewBox="0 0 16 16" height="16" width="16">
  <path d="M3 5.5c-.831 0-1.5.669-1.5 1.5v5c0 .83.669 1.5 1.5 1.5h.5v-4h9v4h.5c.831 0 1.5-.67 1.5-1.5V7c0-.831-.669-1.5-1.5-1.5h-.5v2h-9v-2z" fill="context-fill"/>
  <path d="M4.5 1C3.678 1 3 1.677 3 2.5V5c-1.1 0-2 .9-2 2v5c0 1.099.9 2 2 2v.5c0 .822.678 1.5 1.5 1.5h7c.822 0 1.5-.678 1.5-1.5V14c1.1 0 2-.901 2-2V7c0-1.1-.9-2-2-2V2.5c0-.823-.678-1.5-1.5-1.5Zm0 1h7c.286 0 .5.214.5.5V7H4V2.5c0-.286.214-.5.5-.5ZM3 6v1.5a.5.5 0 0 0 .5.5h9a.5.5 0 0 0 .5-.5V6c.563 0 1 .437 1 1v5c0 .562-.437 1-1 1V9.5a.5.5 0 0 0-.5-.5h-9a.5.5 0 0 0-.5.5V13c-.563 0-1-.438-1-1V7c0-.563.437-1 1-1Zm1 4h8v4.5c0 .285-.214.5-.5.5h-7a.488.488 0 0 1-.5-.5Zm3.5 1a.5.5 0 0 0-.5.5.5.5 0 0 0 .5.5h3a.5.5 0 0 0 .5-.5.5.5 0 0 0-.5-.5Zm-2 2a.5.5 0 0 0-.5.5.5.5 0 0 0 .5.5h5a.5.5 0 0 0 .5-.5.5.5 0 0 0-.5-.5Z" fill="context-stroke"/>
</svg>
