<!-- This Source Code Form is subject to the terms of the Mozilla Public
   - License, v. 2.0. If a copy of the MPL was not distributed with this
   - file, You can obtain one at http://mozilla.org/MPL/2.0/. -->
<svg xmlns="http://www.w3.org/2000/svg" fill-opacity="context-fill-opacity" viewBox="0 0 16 16" height="16" width="16">
  <path d="M14.5 7.5a7 7 0 0 1-7 7 7 7 0 0 1-7-7 7 7 0 0 1 7-7 7 7 0 0 1 7 7z" fill="context-fill"/>
  <path d="M7.5 0C3.364 0 0 3.363 0 7.5 0 11.636 3.364 15 7.5 15S15 11.636 15 7.5C15 3.363 11.636 0 7.5 0Zm0 1C11.096 1 14 3.904 14 7.5c0 3.595-2.904 6.5-6.5 6.5A6.492 6.492 0 0 1 1 7.5C1 3.904 3.904 1 7.5 1Zm0 2A2.508 2.508 0 0 0 5 5.5a.5.5 0 0 0 .5.5.5.5 0 0 0 .5-.5C6 4.665 6.666 4 7.5 4S9 4.665 9 5.5C9 6.334 8.334 7 7.5 7a.5.5 0 0 0-.137.021.5.5 0 0 0-.037.012.5.5 0 0 0-.107.056.5.5 0 0 0-.016.01.5.5 0 0 0-.101.1.5.5 0 0 0-.016.025.5.5 0 0 0-.055.112.5.5 0 0 0-.008.017A.5.5 0 0 0 7 7.5v2a.5.5 0 0 0 .5.5.5.5 0 0 0 .5-.5V7.949h.002A2.51 2.51 0 0 0 10 5.499c0-1.374-1.125-2.5-2.5-2.5zm0 8a.5.5 0 0 0-.5.5.5.5 0 0 0 .5.5.5.5 0 0 0 .5-.5.5.5 0 0 0-.5-.5Z" fill="context-stroke"/>
</svg>
