<!-- This Source Code Form is subject to the terms of the Mozilla Public
   - License, v. 2.0. If a copy of the MPL was not distributed with this
   - file, You can obtain one at http://mozilla.org/MPL/2.0/. -->
<svg xmlns="http://www.w3.org/2000/svg" fill-opacity="context-fill-opacity" viewBox="0 0 16 16" height="16" width="16">
  <path d="M4 3.5a2.5 2.5 0 0 0 0 5 2.5 2.5 0 0 0 .5-.057V9c0 1-1 1.5-2 1.5.25.5.648.988 1.5 1A2.518 2.518 0 0 0 6.5 9V6.5c-.013-.08-.002-.33 0-.5A2.5 2.5 0 0 0 4 3.5Zm7 0a2.5 2.5 0 0 0 0 5 2.5 2.5 0 0 0 .5-.057V9c0 1-1 1.5-2 1.5.25.5.648.988 1.5 1A2.518 2.518 0 0 0 13.5 9V6.5c-.013-.08-.002-.33 0-.5A2.5 2.5 0 0 0 11 3.5Z" fill="context-fill"/>
  <path d="M14 9a3.019 3.019 0 0 1-3 3 .5.5 0 0 1-.008 0c-.52-.007-.957-.173-1.277-.424-.32-.25-.519-.567-.662-.853A.5.5 0 0 1 9.5 10c.417 0 .83-.112 1.098-.291C10.866 9.53 11 9.333 11 9 9.35 9 8 7.65 8 6s1.35-3 3-3c1.651 0 3 1.35 3 3a.5.5 0 0 1 0 .006c0 .093-.005.197-.006.285 0 .088.01.191 0 .129A.5.5 0 0 1 14 6.5Zm-.994-2.42c-.023-.142-.013-.203-.011-.303 0-.097.005-.2.006-.277 0-1.11-.89-2-2-2-1.11 0-2 .89-2 2a1.992 1.992 0 0 0 1.998 2h.002c.132-.002.265-.017.394-.045a.5.5 0 0 1 .605.488V9c0 .667-.366 1.22-.847 1.541-.243.162-.55.156-.832.23.005.005.007.014.011.018.154.12.344.203.672.209A2.016 2.016 0 0 0 13 9V6.5ZM7 9a3.019 3.019 0 0 1-3 3 .5.5 0 0 1-.008 0c-.52-.007-.957-.173-1.277-.424-.32-.25-.519-.567-.662-.853A.5.5 0 0 1 2.5 10c.417 0 .83-.112 1.098-.291C3.866 9.53 4 9.333 4 9 2.35 9 1 7.65 1 6s1.35-3 3-3c1.651 0 3 1.35 3 3a.5.5 0 0 1 0 .006c0 .093-.005.197-.006.285 0 .088.01.191 0 .129A.5.5 0 0 1 7 6.5Zm-.994-2.42c-.023-.142-.013-.203-.011-.303 0-.097.005-.2.006-.277 0-1.11-.89-2-2-2-1.11 0-2 .89-2 2a1.992 1.992 0 0 0 1.998 2h.002c.132-.002.265-.017.394-.045A.5.5 0 0 1 5 8.443V9c0 .667-.366 1.22-.847 1.541-.243.162-.55.156-.832.23.005.005.007.014.011.018.154.12.344.203.672.209A2.016 2.016 0 0 0 6 9V6.5Z" fill="context-stroke"/>
</svg>
