<!-- This Source Code Form is subject to the terms of the Mozilla Public
   - License, v. 2.0. If a copy of the MPL was not distributed with this
   - file, You can obtain one at http://mozilla.org/MPL/2.0/. -->
<svg xmlns="http://www.w3.org/2000/svg" fill-opacity="context-fill-opacity" viewBox="0 0 16 16" height="16" width="16">
  <path d="M4.5.5a1 1 0 0 0-.707.293l-3 3a1 1 0 0 0 0 1.414l3 3a1 1 0 0 0 1.414-1.414L3.914 5.5H7c.294 0 .5.205.5.5v.5a1 1 0 0 0 2 0V6c0-1.368-1.132-2.5-2.5-2.5H3.914l1.293-1.293A1 1 0 0 0 4.5.5Zm7 6.996a1 1 0 0 0-.707 1.707l1.293 1.293H9a.478.478 0 0 1-.5-.5v-.543a1 1 0 0 0-2 0v.543c0 1.367 1.132 2.5 2.5 2.5h3.086l-1.293 1.293a1 1 0 0 0 1.414 1.414l3-3a1 1 0 0 0 0-1.414l-3-3a.997.997 0 0 0-.707-.293Z" fill="context-fill"/>
  <path d="M4.5 0a1.5 1.5 0 0 0-1.06.44l-3 3a1.504 1.504 0 0 0-.239.31h.002A1.501 1.501 0 0 0 0 4.5c0 .263.071.522.203.75H.201c.065.113.146.217.238.31l3 3c.582.582 1.54.582 2.122 0a1.508 1.508 0 0 0 0-2.12L5.121 6H7v.5C7 7.322 7.677 8 8.5 8S10 7.322 10 6.5V6c0-1.644-1.356-3-3-3H5.121l.44-.44a1.508 1.508 0 0 0 0-2.12A1.5 1.5 0 0 0 4.5 0Zm0 1a.5.5 0 0 1 .354.146c.199.2.199.508 0 .707L3.561 3.146A.5.5 0 0 0 3.914 4H7c1.092 0 2 .908 2 2v.5c0 .282-.218.5-.5.5a.493.493 0 0 1-.5-.5V6c0-.528-.473-1-1-1H3.914a.5.5 0 0 0-.353.853l1.293 1.293c.199.2.199.508 0 .707-.2.2-.508.2-.708 0l-3-3a.497.497 0 0 1-.078-.103.5.5 0 0 1-.002 0 .5.5 0 0 1 0-.5.5.5 0 0 1 .002 0 .497.497 0 0 1 .078-.104l3-3A.5.5 0 0 1 4.5 1Zm7 6c-.385 0-.77.144-1.06.435a1.508 1.508 0 0 0 0 2.121l.439.44H9v-.543c0-.823-.677-1.5-1.5-1.5S6 8.63 6 9.453v.543c0 1.643 1.356 3 3 3h1.879l-.44.44a1.508 1.508 0 0 0 0 2.12 1.5 1.5 0 0 0 2.122 0l3-3c.092-.093.173-.197.238-.31h-.002a1.5 1.5 0 0 0 .203-.75c0-.264-.071-.522-.203-.75h.002a1.506 1.506 0 0 0-.238-.31l-3-3A1.495 1.495 0 0 0 11.5 7Zm0 .994c.127 0 .254.048.354.148l3 3c.03.031.056.066.078.104a.5.5 0 0 1 .002 0 .5.5 0 0 1 0 .5.5.5 0 0 1-.002 0 .497.497 0 0 1-.078.103l-3 3a.5.5 0 0 1-.708 0 .493.493 0 0 1 0-.707l1.293-1.293a.5.5 0 0 0-.353-.853H9c-1.092 0-2-.909-2-2v-.543c0-.282.218-.5.5-.5.282 0 .5.218.5.5v.543c0 .527.473 1 1 1h3.086a.5.5 0 0 0 .353-.854l-1.293-1.293a.493.493 0 0 1 0-.707c.1-.1.227-.148.354-.148z" fill="context-stroke"/>
</svg>
