<!-- This Source Code Form is subject to the terms of the Mozilla Public
   - License, v. 2.0. If a copy of the MPL was not distributed with this
   - file, You can obtain one at http://mozilla.org/MPL/2.0/. -->
<svg xmlns="http://www.w3.org/2000/svg" fill-opacity="context-fill-opacity" viewBox="0 0 16 16" height="16" width="16">
  <path fill="context-fill" d="M4.5 1a.5.5 0 0 0-.354.146l-3 3a.5.5 0 0 0-.097.145.5.5 0 0 0-.02.062.5.5 0 0 0-.023.117A.5.5 0 0 0 1 4.5a.5.5 0 0 0 .006.029.5.5 0 0 0 .023.117.5.5 0 0 0 .02.063.5.5 0 0 0 .097.144l3 3a.5.5 0 0 0 .708 0 .5.5 0 0 0 0-.707L2.707 5H8c.563 0 1 .437 1 1v1.5a.5.5 0 0 0 .5.5.5.5 0 0 0 .5-.5V6c0-1.1-.9-2-2-2H2.707l2.147-2.147a.5.5 0 0 0 0-.707A.5.5 0 0 0 4.5 1Zm2 7a.5.5 0 0 0-.5.5V10c0 1.099.9 2 2 2h5.293l-2.147 2.146a.5.5 0 0 0 0 .707.5.5 0 0 0 .708 0l3-3a.5.5 0 0 0 .109-.162.5.5 0 0 0 .002-.006.5.5 0 0 0 .031-.25.5.5 0 0 0-.004-.015.5.5 0 0 0-.03-.112.5.5 0 0 0-.01-.025.5.5 0 0 0-.018-.033.5.5 0 0 0-.01-.016.5.5 0 0 0-.028-.039.5.5 0 0 0-.001-.002.5.5 0 0 0-.004-.006.5.5 0 0 0-.037-.04l-3-3a.5.5 0 0 0-.708 0 .5.5 0 0 0 0 .706L13.293 11H8c-.563 0-1-.438-1-1V8.5a.5.5 0 0 0-.5-.5Z"/>
</svg>
