<!-- This Source Code Form is subject to the terms of the Mozilla Public
   - License, v. 2.0. If a copy of the MPL was not distributed with this
   - file, You can obtain one at http://mozilla.org/MPL/2.0/. -->
<svg xmlns="http://www.w3.org/2000/svg" fill-opacity="context-fill-opacity" viewBox="0 0 16 16" height="16" width="16">
  <path d="M4.5.5a1 1 0 0 0-.707.293l-3 3a1 1 0 0 0 0 1.414l3 3a1 1 0 0 0 1.414-1.414L3.914 5.5H7c1 0 1.5 1 1.5 2 .5-.25.988-.648 1-1.5 0-1.368-1.132-2.5-2.5-2.5H3.914l1.293-1.293A1 1 0 0 0 4.5.5Zm7 6.996a1 1 0 0 0-.707 1.707l1.293 1.293H9c-1.5.003-1.5-1.246-1.5-2.043-.5.047-.988.668-1 1.543 0 1.367 1.132 2.5 2.5 2.5h3.086l-1.293 1.293a1 1 0 0 0 1.414 1.414l3-3a1 1 0 0 0 0-1.414l-3-3a.997.997 0 0 0-.707-.293Z" fill="context-fill"/>
  <path d="M4.5 0a1.5 1.5 0 0 0-1.06.44l-3 3a1.504 1.504 0 0 0-.239.31h.002A1.501 1.501 0 0 0 0 4.5c0 .263.071.522.203.75H.201c.065.113.146.217.238.31l3 3c.582.582 1.54.582 2.122 0a1.508 1.508 0 0 0 0-2.12L5.121 6H7c.333 0 .53.134.709.402C7.888 6.67 8 7.083 8 7.5a.5.5 0 0 0 .723.447c.286-.143.603-.343.853-.662.25-.32.417-.757.424-1.278a.5.5 0 0 1 0-.002.5.5 0 0 1 0-.002.5.5 0 0 1 0-.002.5.5 0 0 1 0-.002c0-1.643-1.356-3-3-3H5.121l.44-.439a1.508 1.508 0 0 0 0-2.121A1.5 1.5 0 0 0 4.5-.001zm0 1a.5.5 0 0 1 .354.146c.199.2.199.508 0 .707L3.561 3.146A.5.5 0 0 0 3.914 4H7c1.09 0 1.995.906 1.998 1.996-.006.328-.088.518-.209.672-.004.005-.013.007-.018.011-.074-.282-.068-.59-.23-.832C8.22 5.366 7.667 5 7 5H3.914a.5.5 0 0 0-.353.853l1.293 1.293c.199.2.199.508 0 .707-.2.2-.508.2-.708 0l-3-3a.497.497 0 0 1-.078-.103.5.5 0 0 1-.002 0 .5.5 0 0 1 0-.5.5.5 0 0 1 .002 0 .497.497 0 0 1 .078-.104l3-3A.5.5 0 0 1 4.5 1Zm7 6c-.385 0-.77.144-1.06.435a1.508 1.508 0 0 0 0 2.121l.439.44H9a.5.5 0 0 1-.002 0c-.25 0-.483-.2-.687-.56C8.107 9.074 8 8.573 8 8.453a.5.5 0 0 0-.547-.498c-.88.081-1.439.976-1.453 2.033a.5.5 0 0 0 0 .008c0 1.644 1.356 3 3 3h1.879l-.44.44a1.508 1.508 0 0 0 0 2.12 1.5 1.5 0 0 0 2.122 0l3-3c.092-.093.173-.197.238-.31h-.002a1.5 1.5 0 0 0 .203-.75c0-.264-.071-.522-.203-.75h.002a1.506 1.506 0 0 0-.238-.31l-3-3A1.495 1.495 0 0 0 11.5 7Zm0 .994c.127 0 .254.048.354.148l3 3c.03.031.056.066.078.104a.5.5 0 0 1 .002 0 .5.5 0 0 1 0 .5.5.5 0 0 1-.002 0 .497.497 0 0 1-.078.103l-3 3a.5.5 0 0 1-.708 0 .493.493 0 0 1 0-.707l1.293-1.293a.5.5 0 0 0-.353-.853H9A2.016 2.016 0 0 1 7.002 10c.006-.37.16-.389.291-.563.065.17.048.315.146.488.296.524.812 1.072 1.561 1.07h3.086a.5.5 0 0 0 .353-.853l-1.293-1.293a.493.493 0 0 1 0-.707c.1-.1.227-.148.354-.148z" fill="context-stroke"/>
</svg>
