<!-- This Source Code Form is subject to the terms of the Mozilla Public
   - License, v. 2.0. If a copy of the MPL was not distributed with this
   - file, You can obtain one at http://mozilla.org/MPL/2.0/. -->
<svg xmlns="http://www.w3.org/2000/svg" fill-opacity="context-fill-opacity" viewBox="0 0 16 16" height="16" width="16">
  <path fill="context-fill" d="M4.422 7.006a.5.5 0 0 0-.276.14l-3 3a.5.5 0 0 0-.097.145.5.5 0 0 0-.02.062.5.5 0 0 0-.023.117.5.5 0 0 0-.006.03.5.5 0 0 0 .006.029.5.5 0 0 0 .023.117.5.5 0 0 0 .02.063.5.5 0 0 0 .097.144l3 3a.5.5 0 0 0 .708 0 .5.5 0 0 0 0-.707L2.707 11H8c.563 0 1 .437 1 1v2.5a.5.5 0 0 0 .5.5.5.5 0 0 0 .5-.5V12c0-1.1-.9-2-2-2H2.707l2.147-2.147a.5.5 0 0 0 0-.707.5.5 0 0 0-.432-.14z"/>
  <path fill="context-stroke" d="M4.5 1a.5.5 0 0 0-.5.5V3c0 1.099.9 2 2 2h4.293L8.146 7.146a.5.5 0 0 0 0 .707.5.5 0 0 0 .708 0l3-3a.5.5 0 0 0 .05-.06.5.5 0 0 0 .07-.139A.5.5 0 0 0 12 4.5a.5.5 0 0 0-.004-.06.5.5 0 0 0-.008-.052.5.5 0 0 0-.002-.007.5.5 0 0 0-.002-.006.5.5 0 0 0-.017-.053.5.5 0 0 0-.016-.04.5.5 0 0 0-.008-.015.5.5 0 0 0-.02-.033.5.5 0 0 0-.01-.018.5.5 0 0 0-.022-.029.5.5 0 0 0-.004-.006.5.5 0 0 0-.033-.035l-.022-.021-2.978-2.979a.5.5 0 0 0-.708 0 .5.5 0 0 0 0 .707L10.293 4H6c-.563 0-1-.438-1-1V1.5a.5.5 0 0 0-.5-.5Zm6.922.006a.5.5 0 0 0-.276.14.5.5 0 0 0 0 .707L13.793 4.5l-2.647 2.646a.5.5 0 0 0 0 .707.5.5 0 0 0 .708 0l3-3a.5.5 0 0 0 0-.707l-3-3a.5.5 0 0 0-.432-.14z"/>
</svg>
