<!-- This Source Code Form is subject to the terms of the Mozilla Public
   - License, v. 2.0. If a copy of the MPL was not distributed with this
   - file, You can obtain one at http://mozilla.org/MPL/2.0/. -->
<svg xmlns="http://www.w3.org/2000/svg" fill-opacity="context-fill-opacity" viewBox="0 0 16 16" height="16" width="16">
  <path d="M7.5 3.5a1 1 0 0 0-.707.293l-3 3A1 1 0 0 0 3.635 7a1 1 0 0 0-.135.5 1 1 0 0 0 .135.5 1 1 0 0 0 .158.207l3 3a1 1 0 0 0 1.414 0 1 1 0 0 0 0-1.414L6.914 8.5H11c.294 0 .5.205.5.5v2.5a1 1 0 0 0 1 1 1 1 0 0 0 1-1V9c0-1.368-1.132-2.5-2.5-2.5H6.914l1.293-1.293a1 1 0 0 0 0-1.414A1 1 0 0 0 7.5 3.5Z" fill="context-fill"/>
  <path d="M7.5 3a1.5 1.5 0 0 0-1.06.439l-3 3a1.504 1.504 0 0 0-.239.31h.002a1.501 1.501 0 0 0-.203.75c0 .264.071.523.203.75h-.002c.065.114.146.218.238.311l3 3c.582.582 1.54.582 2.122 0a1.508 1.508 0 0 0 0-2.121l-.44-.44H11v2.5c0 .823.677 1.5 1.5 1.5s1.5-.677 1.5-1.5v-2.5c0-1.643-1.356-3-3-3H8.121l.44-.439a1.508 1.508 0 0 0 0-2.121 1.5 1.5 0 0 0-1.061-.44Zm0 1a.5.5 0 0 1 .354.146c.199.2.199.508 0 .707L6.561 6.146A.5.5 0 0 0 6.914 7H11c1.092 0 2 .908 2 2v2.5c0 .282-.218.5-.5.5a.493.493 0 0 1-.5-.5V9c0-.528-.473-1-1-1H6.914a.5.5 0 0 0-.353.853l1.293 1.293c.199.2.199.508 0 .707-.2.2-.508.2-.708 0l-3-3a.495.495 0 0 1-.078-.103.5.5 0 0 0-.002 0 .499.499 0 0 1 0-.5.5.5 0 0 0 .002 0 .496.496 0 0 1 .078-.104l3-3A.5.5 0 0 1 7.5 4Z" fill="context-stroke"/>
</svg>
