<!-- This Source Code Form is subject to the terms of the Mozilla Public
   - License, v. 2.0. If a copy of the MPL was not distributed with this
   - file, You can obtain one at http://mozilla.org/MPL/2.0/. -->
<svg xmlns="http://www.w3.org/2000/svg" fill-opacity="context-fill-opacity" viewBox="0 0 16 16" height="16" width="16">
  <path fill="context-fill" d="M7.422 4.006a.5.5 0 0 0-.276.14l-3 3a.5.5 0 0 0-.097.145.5.5 0 0 0-.02.062.5.5 0 0 0-.023.117A.5.5 0 0 0 4 7.5a.5.5 0 0 0 .006.029.5.5 0 0 0 .023.117.5.5 0 0 0 .02.063.5.5 0 0 0 .097.144l3 3a.5.5 0 0 0 .708 0 .5.5 0 0 0 0-.707L5.707 8H11c.563 0 1 .437 1 1v2.5a.5.5 0 0 0 .5.5.5.5 0 0 0 .5-.5V9c0-1.1-.9-2-2-2H5.707l2.147-2.147a.5.5 0 0 0 0-.707.5.5 0 0 0-.432-.14z"/>
</svg>
