<!-- This Source Code Form is subject to the terms of the Mozilla Public
   - License, v. 2.0. If a copy of the MPL was not distributed with this
   - file, You can obtain one at http://mozilla.org/MPL/2.0/. -->
<svg xmlns="http://www.w3.org/2000/svg" fill-opacity="context-fill-opacity" viewBox="0 0 16 16" height="16" width="16">
  <path d="M11.502 1.5a1 1 0 0 0-.709.293l-3 3a1.002 1.002 0 0 0-.147.191 1.015 1.015 0 0 0-.04.086.996.996 0 0 0-.057.133.998.998 0 0 0-.024.105 1 1 0 0 0-.02.147.996.996 0 0 0-.005.045l.006.045a1 1 0 0 0 .02.148 1 1 0 0 0 .023.1 1 1 0 0 0 .058.14.996.996 0 0 0 .04.082 1 1 0 0 0 .146.192.999.999 0 0 0 .191.146.98.98 0 0 0 .079.037.854.854 0 0 0 .23.082.996.996 0 0 0 .164.022L8.5 6.5h2.25c.75 0 1.75 1.25 1.75 2v1a1 1 0 0 0 2 0v-1c0-1.25-2-4-3-4h-.586l1.293-1.293a1 1 0 0 0-.705-1.707ZM4.5 5.5a1 1 0 0 0-.707.293l-3 3A1 1 0 0 0 .635 9a1 1 0 0 0-.135.5 1 1 0 0 0 .135.5 1 1 0 0 0 .158.207l3 3a1 1 0 0 0 1.414 0 1 1 0 0 0 0-1.414L3.914 10.5H8c.294 0 .5.205.5.5v2.5a1 1 0 0 0 1 1 1 1 0 0 0 1-1V11c0-1.368-1.132-2.5-2.5-2.5H3.914l1.293-1.293a1 1 0 0 0 0-1.414A1 1 0 0 0 4.5 5.5Z" fill="context-fill"/>
  <path d="M11.504 1a1.51 1.51 0 0 0-.17.01.5.5 0 0 0-.002 0 1.497 1.497 0 0 0-.893.43l-3 3a.5.5 0 0 0-.003.003c-.085.086-.16.183-.221.287a.5.5 0 0 0-.01.018c-.016.03-.03.062-.045.093l-.008.018-.007.018a1.32 1.32 0 0 0-.069.164.5.5 0 0 0-.01.027 1.496 1.496 0 0 0-.03.139v.006a1.37 1.37 0 0 0-.03.212l-.004.022a.5.5 0 0 0 0 .105c.002.023.006.046.01.069a1.5 1.5 0 0 0 .021.162v.004l.002.008c.009.046.02.091.033.136a.5.5 0 0 0 .006.018c.024.072.054.143.088.21.014.032.027.063.043.093a.5.5 0 0 0 .01.017c.061.104.136.2.22.287a.5.5 0 0 0 .008.008c.087.085.183.16.287.22a.5.5 0 0 0 .02.01c.027.015.056.029.084.042l.02.01c.005.001.01.005.015.007.062.03.124.057.19.078a.5.5 0 0 0 .01.002 1.517 1.517 0 0 0 .318.059l.045.006A.5.5 0 0 0 8.5 7h2c.334 0 .725.18 1.021.476.297.296.479.686.479 1.024v1c0 .822.677 1.5 1.5 1.5s1.5-.678 1.5-1.5v-1c0-1.105-.34-2.211-1.027-3.065-.496-.615-1.238-.996-2.075-1.213l.663-.662a1.508 1.508 0 0 0 0-2.12A1.497 1.497 0 0 0 11.504 1Zm-.06 1v.002h.001a.502.502 0 0 1 .409.851l-1.293 1.293a.5.5 0 0 0 .353.854c1.025 0 1.758.418 2.28 1.064.52.647.806 1.54.806 2.436v1c0 .282-.218.5-.5.5a.493.493 0 0 1-.5-.5v-1c0-.669-.318-1.278-.771-1.73C11.775 6.316 11.166 6 10.5 6H8.537l-.01-.002a.5.5 0 0 0-.047-.004.454.454 0 0 1-.082-.01.5.5 0 0 0-.007-.002l-.024-.006a.48.48 0 0 1-.076-.031.5.5 0 0 0-.035-.016l-.018-.007-.002-.002a.495.495 0 0 1-.09-.067.495.495 0 0 1-.066-.088l-.002-.004a.35.35 0 0 1-.01-.021.5.5 0 0 0-.015-.033.505.505 0 0 1-.026-.06.516.516 0 0 1-.01-.044.5.5 0 0 0-.001-.012.5.5 0 0 1-.01-.074.5.5 0 0 0-.002-.017.5.5 0 0 0 .002-.016.484.484 0 0 1 .01-.072.5.5 0 0 0 .004-.022.5.5 0 0 1 .01-.043.496.496 0 0 1 .02-.049.5.5 0 0 0 .016-.037l.012-.025.002-.004a.493.493 0 0 1 .066-.088l.004-.004 2.996-2.996A.503.503 0 0 1 11.443 2ZM4.5 5a1.5 1.5 0 0 0-1.06.44l-3 3a1.504 1.504 0 0 0-.239.31h.002A1.501 1.501 0 0 0 0 9.5c0 .263.071.522.203.75H.201c.065.113.146.217.238.31l3 3c.582.582 1.54.582 2.122 0a1.508 1.508 0 0 0 0-2.12l-.44-.44H8v2.5c0 .822.677 1.5 1.5 1.5s1.5-.678 1.5-1.5V11c0-1.644-1.356-3-3-3H5.121l.44-.44a1.508 1.508 0 0 0 0-2.12A1.5 1.5 0 0 0 4.5 5Zm0 1a.5.5 0 0 1 .354.146c.199.2.199.508 0 .707L3.561 8.146A.5.5 0 0 0 3.914 9H8c1.092 0 2 .908 2 2v2.5c0 .282-.218.5-.5.5a.493.493 0 0 1-.5-.5V11c0-.528-.473-1-1-1H3.914a.5.5 0 0 0-.353.853l1.293 1.293c.199.2.199.508 0 .707-.2.2-.508.2-.708 0l-3-3a.495.495 0 0 1-.078-.103.5.5 0 0 0-.002 0 .499.499 0 0 1 0-.5.5.5 0 0 0 .002 0 .496.496 0 0 1 .078-.104l3-3A.5.5 0 0 1 4.5 6Z" fill="context-stroke"/>
</svg>
