<!-- This Source Code Form is subject to the terms of the Mozilla Public
   - License, v. 2.0. If a copy of the MPL was not distributed with this
   - file, You can obtain one at http://mozilla.org/MPL/2.0/. -->
<svg xmlns="http://www.w3.org/2000/svg" fill-opacity="context-fill-opacity" viewBox="0 0 16 16" height="16" width="16">
  <path fill="context-fill" d="M3.422.006a.5.5 0 0 0-.276.14l-3 3a.5.5 0 0 0-.021.03.5.5 0 0 0-.049.066.5.5 0 0 0-.035.07.5.5 0 0 0-.021.067.5.5 0 0 0-.014.085A.5.5 0 0 0 0 3.5a.5.5 0 0 0 .006.035.5.5 0 0 0 .014.086.5.5 0 0 0 .021.064.5.5 0 0 0 .04.074.5.5 0 0 0 .04.059.5.5 0 0 0 .025.035l3 3a.5.5 0 0 0 .708 0 .5.5 0 0 0 0-.707L1.707 4H6c.563 0 1 .437 1 1v2.5a.5.5 0 0 0 .5.5.5.5 0 0 0 .5-.5V5c0-1.1-.9-2-2-2H1.707L3.854.853a.5.5 0 0 0 0-.707.5.5 0 0 0-.432-.14z"/>
  <path fill="#ff9400" d="M5.5 9a.5.5 0 0 0-.5.5V11c0 1.099.9 2 2 2h4.293l-2.147 2.146a.5.5 0 0 0 0 .707.5.5 0 0 0 .708 0l3-3a.5.5 0 0 0 .05-.06.5.5 0 0 0 .07-.139A.5.5 0 0 0 13 12.5a.5.5 0 0 0-.004-.06.5.5 0 0 0-.008-.052.5.5 0 0 0-.002-.007.5.5 0 0 0-.002-.006.5.5 0 0 0-.017-.053.5.5 0 0 0-.016-.04.5.5 0 0 0-.008-.015.5.5 0 0 0-.02-.033.5.5 0 0 0-.01-.018.5.5 0 0 0-.022-.029.5.5 0 0 0-.004-.006.5.5 0 0 0-.033-.035l-.022-.021-2.978-2.979a.5.5 0 0 0-.708 0 .5.5 0 0 0 0 .707L11.293 12H7c-.563 0-1-.438-1-1V9.5a.5.5 0 0 0-.5-.5Zm6.922.006a.5.5 0 0 0-.276.14.5.5 0 0 0 0 .707l2.647 2.647-2.647 2.646a.5.5 0 0 0 0 .707.5.5 0 0 0 .708 0l3-3a.5.5 0 0 0 0-.707l-3-3a.5.5 0 0 0-.432-.14z"/>
  <path fill="context-stroke" d="M12.422.006a.5.5 0 0 0-.276.14.5.5 0 0 0 0 .707L14.293 3H11c-1.1 0-2 .9-2 2v1.5a.5.5 0 0 0 .5.5.5.5 0 0 0 .5-.5V5c0-.563.437-1 1-1h3.293l-2.147 2.146a.5.5 0 0 0 0 .707.5.5 0 0 0 .708 0l3-3a.5.5 0 0 0 .05-.06.5.5 0 0 0 .07-.139A.5.5 0 0 0 16 3.5a.5.5 0 0 0-.146-.354l-3-3a.5.5 0 0 0-.432-.14z"/>
</svg>
