<!-- This Source Code Form is subject to the terms of the Mozilla Public
   - License, v. 2.0. If a copy of the MPL was not distributed with this
   - file, You can obtain one at http://mozilla.org/MPL/2.0/. -->
<svg xmlns="http://www.w3.org/2000/svg" fill-opacity="context-fill-opacity" viewBox="0 0 16 16" height="16" width="16">
  <path d="M7.85 2a6.013 6.013 0 0 0-5.623 4.363c-.778 2.742.524 5.39 2.925 6.637H3.5a.5.5 0 0 0-.5.5.5.5 0 0 0 .5.5h3a.5.5 0 0 0 .5-.5v-3a.5.5 0 0 0-.5-.5.5.5 0 0 0-.5.5v1.797c-2.287-.946-3.506-3.209-2.81-5.66a4.992 4.992 0 0 1 6.173-3.448 4.992 4.992 0 0 1 3.448 6.174c-.352 1.241-1.617 2.231-2.534 2.69a.5.5 0 0 0-.224.671.5.5 0 0 0 .67.223c1.083-.542 2.574-1.63 3.05-3.31A6.007 6.007 0 0 0 7.85 2z" fill="context-stroke"/>
</svg>
