<!-- This Source Code Form is subject to the terms of the Mozilla Public
   - License, v. 2.0. If a copy of the MPL was not distributed with this
   - file, You can obtain one at http://mozilla.org/MPL/2.0/. -->
<svg xmlns="http://www.w3.org/2000/svg" fill-opacity="context-fill-opacity" viewBox="0 0 16 16" height="16" width="16">
  <path d="m4.035 8.5-2.5 4.33 2.733-.733L5 14.83l2.5-4.33Zm7.447 0-3.464 2 2.5 4.33.732-2.733 2.732.733z" fill="context-fill"/>
  <path d="M8 1c-.518 0-.878.313-1.129.554-.25.242-.45.435-.566.485-.118.05-.369.052-.696.052-.327 0-.788.017-1.144.373-.356.357-.373.818-.373 1.145 0 .327-.003.578-.053.695-.05.118-.243.318-.484.569C3.313 5.123 3 5.482 3 6c0 .517.313.878.555 1.129.241.25.434.449.484.566.027.065.04.174.047.31a.5.5 0 0 0-.482.245l-2.5 4.33a.5.5 0 0 0 .562.732l2.248-.601.604 2.248a.5.5 0 0 0 .916.12l2.365-4.097a1.245 1.245 0 0 0 .31.012l2.36 4.086a.5.5 0 0 0 .916-.121l.603-2.248 2.248.601a.5.5 0 0 0 .563-.732l-2.5-4.33a.5.5 0 0 0-.385-.239c.006-.14.02-.25.047-.316.05-.117.243-.316.484-.566.242-.251.555-.612.555-1.13 0-.517-.313-.875-.555-1.126-.241-.251-.434-.451-.484-.569-.05-.117-.053-.368-.053-.695 0-.327-.017-.788-.373-1.145-.356-.355-.817-.372-1.144-.373-.327 0-.578-.003-.696-.052-.117-.05-.315-.243-.566-.485C8.879 1.313 8.518 1 8 1Zm0 1c.103 0 .224.074.434.275.209.202.45.507.87.686.422.178.81.13 1.087.13.277 0 .386.03.437.08.051.052.08.16.08.438s-.047.665.131 1.086c.178.421.484.662.686.871.201.21.275.33.275.434 0 .103-.074.224-.275.433-.202.21-.508.45-.686.871-.178.421-.13.809-.13 1.086 0 .278-.03.387-.08.438-.052.051-.16.08-.438.08s-.665-.047-1.086.13c-.421.179-.662.485-.871.686-.21.202-.33.276-.434.276-.103 0-.224-.074-.434-.276-.209-.201-.45-.507-.87-.685-.422-.178-.81-.131-1.087-.131-.277 0-.386-.029-.437-.08-.051-.051-.08-.16-.08-.438 0-.277.047-.665-.131-1.086-.178-.42-.484-.662-.686-.87C4.074 6.224 4 6.104 4 6c0-.104.074-.225.275-.434.202-.21.508-.45.686-.871.178-.421.13-.808.13-1.086s.03-.386.08-.437c.052-.052.16-.08.438-.08s.665.047 1.086-.131c.421-.179.662-.484.871-.686C7.776 2.074 7.896 2 8 2Zm0 1C6.35 3 5 4.349 5 6c0 1.65 1.35 3 3 3s3-1.35 3-3c0-1.651-1.35-3-3-3Zm0 1c1.11 0 2 .89 2 2 0 1.11-.89 2-2 2-1.11 0-2-.89-2-2 0-1.11.89-2 2-2ZM4.223 9.177c.055.125.13.247.242.358.356.356.817.373 1.144.373.327 0 .578.003.696.053.117.05.315.242.566.484.016.016.037.033.055.049l-1.756 3.04-.42-1.566a.5.5 0 0 0-.611-.353l-1.567.42 1.65-2.858zm7.51.092 1.597 2.766-1.566-.42a.5.5 0 0 0-.614.353l-.42 1.569-1.72-2.985c.04-.036.083-.073.119-.107.25-.242.45-.435.566-.484.118-.05.369-.053.696-.053.327 0 .788-.017 1.144-.373.084-.084.147-.174.197-.266z" fill="context-stroke"/>
</svg>
