<!-- This Source Code Form is subject to the terms of the Mozilla Public
   - License, v. 2.0. If a copy of the MPL was not distributed with this
   - file, You can obtain one at http://mozilla.org/MPL/2.0/. -->
<svg xmlns="http://www.w3.org/2000/svg" fill-opacity="context-fill-opacity" viewBox="0 0 16 16" width="16" height="16">
  <path d="M4 1.5c-.5 0-1.5 0-1.5 1s1 1 1.5 1c4.5 0 8.5 3 8.5 8.5 0 .5 0 1.5 1 1.5s.992-1 .992-1.5C14.492 4.5 9.5 1.5 4 1.5Zm0 4c-.5 0-1.5 0-1.5 1s1 1 1.5 1c2.5.035 4.5 2 4.5 4.5 0 .5 0 1.5 1 1.5s1.007-1 1-1.5C10.5 8 7 5.5 4 5.5Zm0 4a2.5 2.5 0 1 0 0 5 2.5 2.5 0 0 0 0-5z" fill="context-fill"/>
  <path d="M4 1c-.25 0-.682-.016-1.123.16C2.437 1.336 2 1.833 2 2.5s.436 1.164.877 1.34C3.317 4.016 3.75 4 4 4c2.139 0 4.14.711 5.6 2.055C11.06 7.398 12 9.37 12 12c0 .25-.016.682.16 1.123.176.44.673.877 1.34.877s1.162-.438 1.336-.879c.174-.441.156-.874.156-1.121 0-3.86-1.306-6.653-3.355-8.44C9.587 1.775 6.84 1 4 1Zm0 1c2.66 0 5.158.726 6.98 2.314 1.823 1.59 3.012 4.047 3.012 7.686 0 .253-.013.57-.086.754-.072.184-.073.246-.406.246s-.336-.064-.41-.248c-.074-.184-.09-.502-.09-.752 0-2.871-1.06-5.148-2.725-6.68C8.61 3.79 6.361 3 4 3c-.25 0-.568-.016-.752-.09C3.064 2.836 3 2.833 3 2.5c0-.333.064-.336.248-.41C3.432 2.016 3.75 2 4 2Zm0 3c-.25 0-.682-.016-1.123.16C2.437 5.336 2 5.833 2 6.5s.436 1.164.877 1.34c.438.175.864.16 1.115.16C6.234 8.031 8 9.767 8 12c0 .25-.016.682.16 1.123.176.44.673.877 1.34.877s1.164-.434 1.342-.875c.177-.44.162-.871.158-1.129C10.998 7.706 7.277 5 4 5Zm0 1c2.722 0 6 2.292 6 6a.5.5 0 0 0 0 .008c.004.242-.012.558-.086.742-.074.184-.08.25-.414.25-.333 0-.336-.064-.41-.248C9.016 12.568 9 12.25 9 12c0-2.767-2.234-4.961-4.992-5A.5.5 0 0 0 4 7c-.25 0-.568-.016-.752-.09C3.064 6.836 3 6.833 3 6.5c0-.333.064-.336.248-.41C3.432 6.016 3.75 6 4 6Zm0 3c-1.65 0-3 1.35-3 3s1.35 3 3 3 3-1.35 3-3-1.35-3-3-3Zm0 1c1.11 0 2 .89 2 2 0 1.11-.89 2-2 2-1.11 0-2-.89-2-2 0-1.11.89-2 2-2z" fill="context-stroke"/>
</svg>
