<!-- This Source Code Form is subject to the terms of the Mozilla Public
   - License, v. 2.0. If a copy of the MPL was not distributed with this
   - file, You can obtain one at http://mozilla.org/MPL/2.0/. -->
<svg xmlns="http://www.w3.org/2000/svg" viewBox="0 0 16 16" fill-opacity="context-fill-opacity" height="16" width="16">
  <!-- Use both context-fill and context-stroke path to account for the styling coming from toolkit for those sections we can't override. -->
  <path d="M6.5 2C4.02 2 2 4.02 2 6.5S4.02 11 6.5 11c1.06 0 2.034-.371 2.805-.988l3.841 3.842a.5.5 0 0 0 .708 0 .5.5 0 0 0 0-.708l-3.842-3.841C10.629 8.535 11 7.56 11 6.5 11 4.02 8.98 2 6.5 2zm0 1C8.439 3 10 4.561 10 6.5S8.439 10 6.5 10A3.492 3.492 0 0 1 3 6.5C3 4.561 4.561 3 6.5 3z" fill="context-fill transparent"/>
  <path d="M6.5 2C4.02 2 2 4.02 2 6.5S4.02 11 6.5 11c1.06 0 2.034-.371 2.805-.988l3.841 3.842a.5.5 0 0 0 .708 0 .5.5 0 0 0 0-.708l-3.842-3.841C10.629 8.535 11 7.56 11 6.5 11 4.02 8.98 2 6.5 2zm0 1C8.439 3 10 4.561 10 6.5S8.439 10 6.5 10A3.492 3.492 0 0 1 3 6.5C3 4.561 4.561 3 6.5 3z" fill="context-stroke transparent"/>
</svg>
