<!-- This Source Code Form is subject to the terms of the Mozilla Public
   - License, v. 2.0. If a copy of the MPL was not distributed with this
   - file, You can obtain one at http://mozilla.org/MPL/2.0/. -->
<svg xmlns="http://www.w3.org/2000/svg" fill-opacity="context-fill-opacity" viewBox="0 0 16 16" width="16" height="16">
  <path d="M8.39 13.529c.073.544.558.971 1.11.971s.946-.432 1.178-.945L14.09 3.91c.175-.535.41-.91.41-1.41a1 1 0 0 0-1-1c-.552 0-.967.17-1.608.43L2.5 5.321c-.559.15-1 .632-1 1.184 0 .552.422 1.009.96 1.082L6.5 9.5Z" fill="context-fill"/>
  <path d="M13.5 1c-.654 0-1.153.206-1.791.463l-.004.002L2.33 4.852C1.595 5.066 1 5.702 1 6.506c0 .824.625 1.405 1.303 1.56l-.057-.027.121.041a1.688 1.688 0 0 1-.064-.014l3.82 1.809 1.795 3.822-.016-.054.035.097-.019-.043c.087.322.264.618.518.858A1.56 1.56 0 0 0 9.5 15c.813 0 1.359-.63 1.635-1.24a.5.5 0 0 0 .015-.04l3.412-9.642a.5.5 0 0 0 .004-.014C14.721 3.59 15 3.157 15 2.5c0-.823-.677-1.5-1.5-1.5Zm0 1c.282 0 .5.218.5.5 0 .343-.19.66-.385 1.256l-3.394 9.596c-.188.413-.43.648-.721.648a.556.556 0 0 1-.377-.172.918.918 0 0 1-.246-.414.5.5 0 0 0-.035-.098l-1.74-3.71 2.752-2.752a.5.5 0 0 0 0-.708.5.5 0 0 0-.708 0L6.395 8.898 2.674 7.137a.5.5 0 0 0-.121-.04C2.324 7.055 2 6.76 2 6.507c0-.286.265-.604.629-.701a.5.5 0 0 0 .04-.012L12.063 2.4a.5.5 0 0 0 .016-.007c.643-.26.973-.393 1.422-.393Z" fill="context-stroke"/>
</svg>
