<!-- This Source Code Form is subject to the terms of the Mozilla Public
   - License, v. 2.0. If a copy of the MPL was not distributed with this
   - file, You can obtain one at http://mozilla.org/MPL/2.0/. -->
<svg xmlns="http://www.w3.org/2000/svg" fill-opacity="context-fill-opacity" viewBox="0 0 16 16" width="16" height="16">
  <path d="M7.5.5c-.554 0-1 .446-1 1v1.213A5.5 5.5 0 0 0 4.182 4.06l-1.057-.612a.999.999 0 0 0-1.367.365l-.5.868a.997.997 0 0 0 .367 1.365l1.053.607A5.5 5.5 0 0 0 2.5 8a5.5 5.5 0 0 0 .178 1.338l-1.053.607a.997.997 0 0 0-.367 1.366l.5.867a.999.999 0 0 0 1.367.365l1.053-.607A5.5 5.5 0 0 0 6.5 13.287v1.205c0 .554.446 1 1 1h1c.554 0 1-.446 1-1v-1.205a5.5 5.5 0 0 0 2.322-1.351l1.053.607a.999.999 0 0 0 1.367-.365l.5-.867a.997.997 0 0 0-.367-1.366l-1.053-.607A5.5 5.5 0 0 0 13.5 8a5.5 5.5 0 0 0-.168-1.352l1.043-.601a.997.997 0 0 0 .367-1.365l-.5-.868a.999.999 0 0 0-1.367-.365l-1.047.604A5.5 5.5 0 0 0 9.5 2.709V1.5c0-.554-.446-1-1-1zm.5 6A1.5 1.5 0 0 1 9.5 8 1.5 1.5 0 0 1 8 9.5 1.5 1.5 0 0 1 6.5 8 1.5 1.5 0 0 1 8 6.5Z" fill="context-fill"/>
  <path d="M7.5 0C6.678 0 6 .678 6 1.5v.943A5.957 5.957 0 0 0 4.197 3.49l-.822-.474a1.51 1.51 0 0 0-2.05.548l-.5.868a1.508 1.508 0 0 0 .55 2.048l.766.442c-.068.355-.138.712-.141 1.074a.5.5 0 0 0 0 .008c.003.36.073.714.14 1.066l-.765.442a1.508 1.508 0 0 0-.55 2.049l.5.867a1.51 1.51 0 0 0 2.05.549l.816-.471A5.955 5.955 0 0 0 6 13.556v.936c0 .823.678 1.5 1.5 1.5h1c.822 0 1.5-.677 1.5-1.5v-.935a5.955 5.955 0 0 0 1.809-1.051l.816.47a1.51 1.51 0 0 0 2.05-.548l.5-.867a1.508 1.508 0 0 0-.55-2.05l-.766-.44c.068-.353.138-.708.141-1.067A.5.5 0 0 0 14 8c0-.365-.069-.724-.135-1.082l.76-.438c.712-.41.962-1.336.55-2.048l-.5-.868a1.51 1.51 0 0 0-2.05-.548l-.813.468A5.95 5.95 0 0 0 10 2.438V1.5C10 .678 9.322 0 8.5 0Zm0 1h1c.286 0 .5.214.5.5v1.209a.5.5 0 0 0 .363.48 5.005 5.005 0 0 1 2.117 1.223.5.5 0 0 0 .598.074l1.047-.603a.489.489 0 0 1 .684.181l.5.868a.487.487 0 0 1-.184.681l-1.043.602a.5.5 0 0 0-.234.556c.101.402.152.813.152 1.227a4.99 4.99 0 0 1-.162 1.213.5.5 0 0 0 .234.56l1.053.608a.487.487 0 0 1 .184.682l-.5.867a.489.489 0 0 1-.684.181l-1.053-.607a.5.5 0 0 0-.6.076 5 5 0 0 1-2.11 1.229.5.5 0 0 0-.362.48v1.205c0 .286-.214.5-.5.5h-1a.488.488 0 0 1-.5-.5v-1.205a.5.5 0 0 0-.361-.48 5 5 0 0 1-2.112-1.229.5.5 0 0 0-.6-.076l-1.052.607a.489.489 0 0 1-.684-.181l-.5-.867a.487.487 0 0 1 .184-.682l1.053-.608a.5.5 0 0 0 .234-.56A4.989 4.989 0 0 1 3 8.004v-.008c.004-.41.059-.818.162-1.215a.5.5 0 0 0-.234-.56l-1.053-.608a.487.487 0 0 1-.184-.681l.5-.868a.489.489 0 0 1 .684-.181l1.057.611a.5.5 0 0 0 .6-.076 4.998 4.998 0 0 1 2.107-1.225.5.5 0 0 0 .361-.48V1.5c0-.286.214-.5.5-.5ZM8 6c-1.099 0-2 .901-2 2s.901 2 2 2 2-.901 2-2-.901-2-2-2Zm0 1c.558 0 1 .442 1 1s-.442 1-1 1-1-.442-1-1 .442-1 1-1Z" fill="context-stroke"/>
</svg>
