<!-- This Source Code Form is subject to the terms of the Mozilla Public
   - License, v. 2.0. If a copy of the MPL was not distributed with this
   - file, You can obtain one at http://mozilla.org/MPL/2.0/. -->
<svg xmlns="http://www.w3.org/2000/svg" fill-opacity="context-fill-opacity" viewBox="0 0 16 16" height="16" width="16">
  <path d="M8 .498a1 1 0 0 0-.48.123l-5.5 3c-.32.176-.52.514-.52.879 0 7 1 8.478 6.02 10.879a.998.998 0 0 0 .96 0C13.5 12.979 14.5 11.5 14.5 4.5c0-.365-.2-.703-.52-.879l-5.5-3A1 1 0 0 0 8 .498ZM7.5 3v10c-3.45-1.65-3.969-2.595-3.969-7.406 0-.251.138-.483.358-.604Z" fill="context-fill"/>
  <path d="M8-.002c-.248 0-.496.06-.72.184l-5.5 3A1.5 1.5 0 0 0 1 4.5c0 3.524.239 5.732 1.193 7.412.951 1.674 2.57 2.7 5.09 3.906a1.5 1.5 0 0 0 1.434 0c2.52-1.206 4.139-2.232 5.09-3.906C14.76 10.232 15 8.024 15 4.5a1.502 1.502 0 0 0-.78-1.318l-5.5-3A1.499 1.499 0 0 0 8-.002ZM8 1a.5.5 0 0 1 .24.06l5.5 3c.16.088.26.258.26.44 0 3.476-.262 5.509-1.063 6.918-.8 1.41-2.186 2.321-4.671 3.51a.5.5 0 0 0-.026.011.502.502 0 0 1-.48 0 .5.5 0 0 0-.026-.011c-2.485-1.189-3.87-2.1-4.671-3.51C2.261 10.008 2 7.976 2 4.5c0-.182.1-.352.26-.44l5.5-3A.5.5 0 0 1 8 1Zm-.545 1.502a.5.5 0 0 0-.197.06l-3.61 1.99a1.19 1.19 0 0 0-.617 1.042c0 2.423.114 3.94.75 5.125.636 1.184 1.754 1.895 3.504 2.732A.5.5 0 0 0 8 13V3a.5.5 0 0 0-.545-.498ZM7 3.846v8.3c-1.16-.613-1.94-1.16-2.338-1.9-.485-.903-.63-2.264-.63-4.652 0-.068.038-.132.097-.164a.5.5 0 0 0 .002-.002Z" fill="context-stroke"/>
</svg>
