<!-- This Source Code Form is subject to the terms of the Mozilla Public
   - License, v. 2.0. If a copy of the MPL was not distributed with this
   - file, You can obtain one at http://mozilla.org/MPL/2.0/. -->
<svg xmlns="http://www.w3.org/2000/svg" fill-opacity="context-fill-opacity" viewBox="0 0 16 16" height="16" width="16">
  <path d="M4 1.5A2.495 2.495 0 0 0 1.5 4v8c0 1.385 1.115 2.5 2.5 2.5h8c1.385 0 2.5-1.115 2.5-2.5V4c0-1.385-1.115-2.5-2.5-2.5Z" fill="context-fill"/>
  <path d="M4 1C2.347 1 1 2.346 1 4v8c0 1.653 1.347 3 3 3h8c1.653 0 3-1.347 3-3V4c0-1.654-1.347-3-3-3Zm0 1h8c1.117 0 2 .883 2 2v8c0 1.116-.883 2-2 2H4c-1.117 0-2-.884-2-2V4c0-1.117.883-2 2-2Zm1 1c-1.099 0-2 .901-2 2 0 1.098.901 2 2 2h1v2H5c-1.099 0-2 .901-2 2 0 1.098.901 2 2 2s2-.902 2-2v-1h2v1c0 1.098.901 2 2 2s2-.902 2-2c0-1.099-.901-2-2-2h-1V7h1c1.099 0 2-.902 2-2 0-1.099-.901-2-2-2s-2 .901-2 2v1H7V5c0-1.099-.901-2-2-2Zm0 1c.558 0 1 .441 1 1v1H5c-.558 0-1-.442-1-1 0-.559.442-1 1-1Zm6 0c.558 0 1 .441 1 1 0 .558-.442 1-1 1h-1V5c0-.559.442-1 1-1ZM7 7h2v2H7Zm-2 3h1v1c0 .558-.442 1-1 1s-1-.442-1-1c0-.559.442-1 1-1Zm5 0h1c.558 0 1 .441 1 1 0 .558-.442 1-1 1s-1-.442-1-1z" fill="context-stroke"/>
</svg>
