<!-- This Source Code Form is subject to the terms of the Mozilla Public
   - License, v. 2.0. If a copy of the MPL was not distributed with this
   - file, You can obtain one at http://mozilla.org/MPL/2.0/. -->
<svg xmlns="http://www.w3.org/2000/svg" fill-opacity="context-fill-opacity" viewBox="0 0 16 16" height="16" width="16">
  <path d="M4 1.5A2.495 2.495 0 0 0 1.5 4v8c0 1.385 1.115 2.5 2.5 2.5h1.502v-13z" fill="context-fill"/>
  <path d="M4 1C2.347 1 1 2.346 1 4v8c0 1.653 1.347 3 3 3h8c1.653 0 3-1.347 3-3V4c0-1.654-1.347-3-3-3Zm0 1h1v12H4c-1.117 0-2-.884-2-2V4c0-1.117.883-2 2-2Zm2 0h6c1.117 0 2 .883 2 2v8c0 1.116-.883 2-2 2H6ZM3.5 4a.5.5 0 0 0-.5.5.5.5 0 0 0 .5.5.5.5 0 0 0 .5-.5.5.5 0 0 0-.5-.5Zm4 0c-.277 0-.5.196-.5.44v.12c0 .243.223.44.5.44h4c.277 0 .5-.197.5-.44v-.12c0-.244-.223-.44-.5-.44Zm-4 3a.5.5 0 0 0-.5.5.5.5 0 0 0 .5.5.5.5 0 0 0 .5-.5.5.5 0 0 0-.5-.5Zm4 0c-.277 0-.5.205-.5.459v.082c0 .254.223.459.5.459h4c.277 0 .5-.205.5-.46v-.081c0-.254-.223-.46-.5-.46h-4zm-4 3a.5.5 0 0 0-.5.5.5.5 0 0 0 .5.5.5.5 0 0 0 .5-.5.5.5 0 0 0-.5-.5Zm4 0a.5.5 0 1 0 0 1h4a.5.5 0 1 0 0-1z" fill="context-stroke"/>
</svg>
