<!-- This Source Code Form is subject to the terms of the Mozilla Public
   - License, v. 2.0. If a copy of the MPL was not distributed with this
   - file, You can obtain one at http://mozilla.org/MPL/2.0/. -->
<svg xmlns="http://www.w3.org/2000/svg" fill="none" fill-opacity="context-fill-opacity" viewBox="0 0 16 16" height="16" width="16">
  <path d="M7 1.5c.146.5.5 1.912.5 2.5 0 .89-.187 1.374-.5 2-.298.596-.294 1-1 1-.553 0-.707-.082-1-.5-.157-.223-.393-1.21-.5-1.5-1 .5-2 3.109-2 4.5 0 1.749 1 4.5 3 5a3.674 3.674 0 0 1-.003-.16c0-1.547.524-3.34 2.003-3.34 1.48 0 2.003 1.793 2.003 3.34 0 .054 0 .107-.003.16 2-.5 3-3.251 3-5 0-.115-.004-.228-.01-.341a.5.5 0 0 1 .01-.143C12.145 4.868 10 2.5 7 1.5Z" fill="context-fill"/>
  <path d="M6.432 1.234a.5.5 0 0 1 .51-.227c1.658.289 5.577 2.165 6.056 7.916a6.695 6.695 0 0 1 .002.542c0 2.533-1.444 4.73-3.527 5.602a.5.5 0 0 1-.656-.651c.116-.281.183-.604.183-.952 0-1.214-.77-2-1.5-2s-1.5.786-1.5 2c0 .348.067.67.183.952a.5.5 0 0 1-.656.65C3.444 14.195 2 11.999 2 9.465c0-1.992.891-3.77 2.28-4.865a.5.5 0 0 1 .802.303c.096.526.265.946.458 1.22.197.282.365.342.46.342.123 0 .369-.112.613-.602.23-.46.387-1.13.387-1.898 0-.954-.241-1.742-.55-2.172a.5.5 0 0 1-.018-.558ZM7.775 2.31c.146.5.225 1.067.225 1.654 0 .89-.18 1.72-.492 2.345C7.21 6.905 6.706 7.464 6 7.464c-.553 0-.986-.35-1.279-.767a3.414 3.414 0 0 1-.396-.775C3.511 6.823 3 8.073 3 9.464c0 1.75.805 3.27 2.003 4.16a3.674 3.674 0 0 1-.003-.16c0-1.546 1.02-3 2.5-3s2.5 1.454 2.5 3c0 .054-.001.107-.003.16 1.198-.89 2.003-2.41 2.003-4.16a6.37 6.37 0 0 0-.01-.34.5.5 0 0 1 .01-.144c-.355-4.149-2.653-5.985-4.225-6.671Z" fill="context-stroke"/>
</svg>
