<!-- This Source Code Form is subject to the terms of the Mozilla Public
   - License, v. 2.0. If a copy of the MPL was not distributed with this
   - file, You can obtain one at http://mozilla.org/MPL/2.0/. -->
<svg xmlns="http://www.w3.org/2000/svg" fill-opacity="context-fill-opacity" viewBox="0 0 16 16" height="16" width="16">
  <path d="M8 1.5a.869.869 0 0 0-.787.499L5.5 5.499l-3.272.344a.867.867 0 0 0-.486 1.475L4.019 9.49l-.779 3.972a.868.868 0 0 0 1.204.967L8 12.851l3.556 1.578a.868.868 0 0 0 1.204-.967l-.779-3.972 2.277-2.172a.867.867 0 0 0-.486-1.475L10.5 5.5 8.787 1.999a.869.869 0 0 0-.787-.5Z" fill="context-fill"/>
  <path d="M8 1a1.37 1.37 0 0 0-1.24.787L5.172 5.031l-2.996.314a.5.5 0 0 0-.02.002C1.07 5.505.609 6.903 1.391 7.673a.5.5 0 0 0 .005.006l2.079 1.983-.725 3.699v.002c-.216 1.06.907 1.961 1.896 1.523L8 13.398l3.354 1.488c.989.438 2.112-.464 1.896-1.523l-.725-3.701 2.079-1.983a.5.5 0 0 0 .005-.006c.782-.77.321-2.168-.765-2.326a.5.5 0 0 0-.02-.002l-2.996-.314L9.24 1.786A1.373 1.373 0 0 0 8 1Zm0 1c.145 0 .273.08.334.21a.5.5 0 0 0 .004.008l1.713 3.502a.5.5 0 0 0 .396.278l3.254.34c.334.048.444.39.205.625l-2.27 2.166a.5.5 0 0 0-.146.457l.78 3.972a.5.5 0 0 0 0 .006c.065.32-.21.54-.51.409l-3.557-1.579a.5.5 0 0 0-.406 0l-3.555 1.579c-.302.133-.578-.088-.512-.409a.5.5 0 0 0 0-.006l.78-3.972a.5.5 0 0 0-.147-.458l-2.27-2.166c-.238-.235-.128-.576.206-.625l3.254-.34a.5.5 0 0 0 .396-.277l1.713-3.502a.5.5 0 0 0 .004-.008C7.727 2.08 7.856 2 8 2Z" fill="context-stroke"/>
</svg>
