<!-- This Source Code Form is subject to the terms of the Mozilla Public
   - License, v. 2.0. If a copy of the MPL was not distributed with this
   - file, You can obtain one at http://mozilla.org/MPL/2.0/. -->
<svg xmlns="http://www.w3.org/2000/svg" fill="none" fill-opacity="context-fill-opacity" viewBox="0 0 16 16" height="16" width="16">
  <path fill="#ff0039" d="M15.5 12.5a3 3 0 0 1-3 3 3 3 0 0 1-3-3 3 3 0 0 1 3-3 3 3 0 0 1 3 3z" opacity="0.2"/>
  <path fill="#ff0039" d="M12.5 9A3.508 3.508 0 0 0 9 12.5c0 1.927 1.573 3.5 3.5 3.5s3.5-1.573 3.5-3.5S14.427 9 12.5 9zm0 1c1.387 0 2.5 1.113 2.5 2.5S13.887 15 12.5 15a2.492 2.492 0 0 1-2.5-2.5c0-1.387 1.113-2.5 2.5-2.5zm-1 2a.5.5 0 0 0-.5.5.5.5 0 0 0 .5.5h2a.5.5 0 0 0 .5-.5.5.5 0 0 0-.5-.5h-2z"/>
  <path d="M4.5 1.5a1 1 0 1 0 0 2 1 1 0 0 0 0-2zm6 4a1 1 0 1 0 0 2 1 1 0 0 0 0-2z" fill="context-fill"/>
  <path d="M4.5 1C3.677 1 3 1.677 3 2.5c0 .648.42 1.204 1 1.412V11c0 1.1.9 2 2 2h3.91a3 3 0 0 1-.363-1H6c-.563 0-1-.437-1-1V6.729c.295.171.636.183 1 .183h3.088c.208.58.764 1 1.412 1 .823 0 1.5-.677 1.5-1.5 0-.822-.677-1.5-1.5-1.5-.648 0-1.204.42-1.412 1H6c-.563 0-1-.35-1-.912V3.912c.58-.208 1-.764 1-1.412C6 1.677 5.323 1 4.5 1Zm0 1c.282 0 .5.218.5.5 0 .282-.218.5-.5.5a.493.493 0 0 1-.5-.5c0-.282.218-.5.5-.5Zm6 3.912c.282 0 .5.218.5.5 0 .282-.218.5-.5.5a.493.493 0 0 1-.5-.5c0-.282.218-.5.5-.5z" fill="context-stroke"/>
</svg>
