<!-- This Source Code Form is subject to the terms of the Mozilla Public
   - License, v. 2.0. If a copy of the MPL was not distributed with this
   - file, You can obtain one at http://mozilla.org/MPL/2.0/. -->
<svg xmlns="http://www.w3.org/2000/svg" fill-opacity="context-fill-opacity" viewBox="0 0 16 16" width="16" height="16">
  <path d="M4 2a.98.98 0 0 0-.477.121 1.004 1.004 0 0 0-.478.578v.002c-.01.031-.02.062-.025.094v.004c-.007.032-.01.065-.014.097v.002A1.056 1.056 0 0 0 3 3v10a.86.86 0 0 0 .006.102v.002a.781.781 0 0 0 .014.097v.004c.006.031.016.064.025.094v.002a1.004 1.004 0 0 0 .654.654h.002a.77.77 0 0 0 .094.026h.004c.032.006.065.01.097.013h.002c.034.003.067.006.102.006h8a.98.98 0 0 0 .477-.121 1.004 1.004 0 0 0 .478-.578A.997.997 0 0 0 13 13V3a.983.983 0 0 0-.02-.201v-.004c-.006-.032-.016-.063-.025-.094V2.7a1.005 1.005 0 0 0-.654-.654h-.002a1.031 1.031 0 0 0-.094-.025h-.004a1.005 1.005 0 0 0-.098-.014h-.002A.996.996 0 0 0 12 2h-1.086A1.51 1.51 0 0 1 9.5 3.004h-3A1.51 1.51 0 0 1 5.086 2Z" fill="context-fill"/>
  <path d="M6.5 0c-.647 0-1.204.42-1.412 1H4c-1.1 0-2 .9-2 2v10c0 1.1.9 2 2 2h8c1.1 0 2-.9 2-2V3c0-1.1-.9-2-2-2h-1.088c-.208-.58-.765-1-1.412-1Zm0 1h3c.286 0 .5.214.5.5v.004c0 .286-.214.5-.5.5h-3a.488.488 0 0 1-.5-.5V1.5c0-.286.214-.5.5-.5ZM4 2h1.086A1.51 1.51 0 0 0 6.5 3.004h3A1.51 1.51 0 0 0 10.914 2H12c.563 0 1 .437 1 1v10c0 .563-.437 1-1 1H4c-.563 0-1-.437-1-1V3c0-.563.437-1 1-1Zm6.56 4.004a.5.5 0 0 0-.13.002.5.5 0 0 0-.33.193L7.445 9.74 5.854 8.145a.5.5 0 0 0-.708 0 .5.5 0 0 0 0 .708l2 2A.5.5 0 0 0 7.9 10.8l3-4a.5.5 0 0 0-.1-.701.5.5 0 0 0-.24-.096Z" fill="context-stroke"/>
</svg>
