<!-- This Source Code Form is subject to the terms of the Mozilla Public
   - License, v. 2.0. If a copy of the MPL was not distributed with this
   - file, You can obtain one at http://mozilla.org/MPL/2.0/. -->
<svg xmlns="http://www.w3.org/2000/svg" fill-opacity="context-fill-opacity" viewBox="0 0 16 16" width="16" height="16">
  <path d="M4 2h8c.554 0 1 .446 1 1v10c0 .554-.446 1-1 1H4c-.554 0-1-.446-1-1V3c0-.554.446-1 1-1Z" fill="context-fill"/>
  <path d="M4 1c-1.1 0-2 .9-2 2v10c0 1.1.9 2 2 2h8c1.1 0 2-.9 2-2V3c0-1.1-.9-2-2-2Zm0 1h8c.563 0 1 .437 1 1v10c0 .563-.437 1-1 1H4c-.563 0-1-.437-1-1V3c0-.563.437-1 1-1Zm4 1a.5.5 0 0 0-.5.5v.563A2.011 2.011 0 0 0 6 6c0 .692.358 1.304.896 1.664L5.961 10H5.5a.5.5 0 0 0-.5.5.5.5 0 0 0 .5.5h.06l-.525 1.314a.5.5 0 0 0 .28.65.5.5 0 0 0 .65-.278L6.639 11H9.36l.674 1.686a.5.5 0 0 0 .65.279.5.5 0 0 0 .28-.65L10.439 11h.061a.5.5 0 0 0 .5-.5.5.5 0 0 0-.5-.5h-.46l-.936-2.336C9.642 7.304 10 6.692 10 6c0-.926-.64-1.714-1.5-1.938V3.5A.5.5 0 0 0 8 3Zm0 2c.558 0 1 .442 1 1s-.442 1-1 1-1-.442-1-1 .442-1 1-1Zm-.158 2.994a1.979 1.979 0 0 0 .316 0L8.961 10H7.039Z" fill="context-stroke"/>
</svg>
