<!-- This Source Code Form is subject to the terms of the Mozilla Public
   - License, v. 2.0. If a copy of the MPL was not distributed with this
   - file, You can obtain one at http://mozilla.org/MPL/2.0/. -->
<svg xmlns="http://www.w3.org/2000/svg" fill-opacity="context-fill-opacity" viewBox="0 0 16 16" height="16" width="16">
  <path fill="#ff0039" d="M14.5 7.5a7 7 0 0 1-7 7 7 7 0 0 1-7-7 7 7 0 0 1 7-7 7 7 0 0 1 7 7z" opacity="0.2"/>
  <path fill="#ff0039" d="M7.5 0C3.364 0 0 3.363 0 7.5 0 11.636 3.364 15 7.5 15S15 11.636 15 7.5C15 3.363 11.636 0 7.5 0Zm0 1C11.096 1 14 3.904 14 7.5c0 3.595-2.904 6.5-6.5 6.5A6.492 6.492 0 0 1 1 7.5C1 3.904 3.904 1 7.5 1Zm-4 6a.5.5 0 0 0-.5.5.5.5 0 0 0 .5.5h8a.5.5 0 0 0 .5-.5.5.5 0 0 0-.5-.5Z"/>
</svg>
