<!-- This Source Code Form is subject to the terms of the Mozilla Public
   - License, v. 2.0. If a copy of the MPL was not distributed with this
   - file, You can obtain one at http://mozilla.org/MPL/2.0/. -->
<svg xmlns="http://www.w3.org/2000/svg" fill-opacity="context-fill-opacity" viewBox="0 0 16 16" height="16" width="16">
  <path d="M6 2.5A3.5 3.5 0 0 1 9.5 6a3.5 3.5 0 0 1-.246 1.264l.243.239L14 12s1 1 0 2-2 0-2 0c-1.575-1.58-3.18-3.168-4.736-4.746A3.5 3.5 0 0 1 6 9.5 3.5 3.5 0 0 1 2.5 6V4.5L5 7s1 0 1.5-.5C7.5 5.5 7 5 7 5L4.5 2.5Z" fill="context-fill"/>
  <path d="M4.5 2a.5.5 0 0 0-.354.853l2.47 2.469c.001.004.009.014.009.053 0 .083-.037.33-.479.771-.132.132-.419.248-.681.3-.158.032-.196.027-.28.032L2.854 4.146A.5.5 0 0 0 2 4.5V6c0 2.203 1.797 4 4 4a.5.5 0 0 0 .004 0c.372-.003.73-.107 1.086-.211 1.513 1.53 3.041 3.044 4.556 4.564 0 0 .32.329.82.496.502.167 1.27.122 1.888-.496.617-.618.663-1.385.496-1.887a2.232 2.232 0 0 0-.496-.82c-1.519-1.518-3.033-3.043-4.565-4.555.105-.356.208-.715.211-1.088a.5.5 0 0 0 0-.004c0-2.203-1.797-4-4-4zm1.207 1H6a2.992 2.992 0 0 1 3 2.998V6c-.003.37-.075.736-.21 1.08a.5.5 0 0 0 .112.54c1.59 1.566 3.163 3.152 4.744 4.733 0 0 .172.181.254.43.083.248.129.48-.254.863-.382.382-.614.337-.863.254a1.297 1.297 0 0 1-.43-.254c-1.579-1.585-3.167-3.156-4.734-4.744a.5.5 0 0 0-.539-.113c-.344.136-.71.207-1.08.21h-.002a2.992 2.992 0 0 1-2.998-3v-.292l1.646 1.646A.5.5 0 0 0 5 7.5s.297 0 .66-.073c.363-.072.826-.206 1.194-.574.558-.559.771-1.062.771-1.478 0-.209-.054-.382-.115-.504a1.118 1.118 0 0 0-.156-.225Z" fill="context-stroke"/>
</svg>
