<!-- This Source Code Form is subject to the terms of the Mozilla Public
   - License, v. 2.0. If a copy of the MPL was not distributed with this
   - file, You can obtain one at http://mozilla.org/MPL/2.0/. -->
<svg xmlns="http://www.w3.org/2000/svg" fill-opacity="context-fill-opacity" viewBox="0 0 16 16" height="16" width="16">
  <path d="M5.854 3.5c.094.317.146.653.146 1C6 6.427 4.427 8 2.5 8a3.48 3.48 0 0 1-1-.147V12c0 .83.669 1.5 1.5 1.5h10c.831 0 1.5-.67 1.5-1.5V5c0-.831-.669-1.5-1.5-1.5Z" fill="context-fill"/>
  <path d="M2.5 2A2.508 2.508 0 0 0 0 4.5C0 5.874 1.125 7 2.5 7S5 5.874 5 4.5C5 3.125 3.875 2 2.5 2Zm0 1C3.334 3 4 3.665 4 4.5 4 5.334 3.334 6 2.5 6S1 5.334 1 4.5C1 3.665 1.666 3 2.5 3Zm3.162 0c.148.31.25.647.3 1H13c.563 0 1 .437 1 1v7c0 .562-.437 1-1 1H3c-.563 0-1-.438-1-1V7.963a3.473 3.473 0 0 1-1-.301V12c0 1.099.9 2 2 2h10c1.1 0 2-.901 2-2V5c0-1.1-.9-2-2-2Zm6.736 2.011a.5.5 0 0 0-.23.116L8 8.832 5.371 6.496c-.191.274-.42.52-.68.73l1.258 1.117-2.803 2.803a.5.5 0 0 0 0 .707.5.5 0 0 0 .708 0l2.843-2.844.971.864a.5.5 0 0 0 .664 0l.97-.864 2.844 2.844a.5.5 0 0 0 .708 0 .5.5 0 0 0 0-.707l-2.803-2.803 2.781-2.47a.5.5 0 0 0 .041-.705.5.5 0 0 0-.475-.157Z" fill="context-stroke"/>
</svg>
