<!-- This Source Code Form is subject to the terms of the Mozilla Public
   - License, v. 2.0. If a copy of the MPL was not distributed with this
   - file, You can obtain one at http://mozilla.org/MPL/2.0/. -->
<svg xmlns="http://www.w3.org/2000/svg" fill-opacity="context-fill-opacity" viewBox="0 0 16 16" height="16" width="16">
  <path d="M5.996 1.998A3.008 3.008 0 0 0 3 5a.5.5 0 0 0 0 .002c.003.782.368 1.482.904 2.035C2.856 7.095 2 7.935 2 8.997v2.5a.5.5 0 0 0 .5.5.5.5 0 0 0 .5-.5v-2.5c0-.562.437-1 1-1h.5a.5.5 0 0 0 .5-.5V6.99a.5.5 0 0 0-.2-.4A1.999 1.999 0 0 1 4 5v-.002c0-1.11.887-1.999 1.996-2a1.993 1.993 0 0 1 1.992 1.779A2.994 2.994 0 0 0 7 7.002a.5.5 0 0 0 0 .002c.003.782.368 1.482.904 2.035C6.856 9.097 6 9.937 6 10.999v2.5a.5.5 0 0 0 .5.5.5.5 0 0 0 .5-.5v-2.5c0-.562.437-1 1-1h.5a.5.5 0 0 0 .5-.5v-.507a.5.5 0 0 0-.2-.4 1.999 1.999 0 0 1-.8-1.59V7c0-1.11.887-1.999 1.996-2A1.994 1.994 0 0 1 12 6.996v.002a2 2 0 0 1-.8 1.593.5.5 0 0 0-.2.4V9.5a.5.5 0 0 0 .5.5h.5c.563 0 1 .437 1 1v2.5a.5.5 0 0 0 .5.5.5.5 0 0 0 .5-.5V11c0-1.063-.856-1.903-1.904-1.961.537-.553.902-1.254.904-2.037A.5.5 0 0 0 13 7v-.006a.5.5 0 0 0 0-.002A3.006 3.006 0 0 0 9.996 4c-.388 0-.759.077-1.1.213a3.01 3.01 0 0 0-2.9-2.215z" fill="context-stroke"/>
</svg>
