<!-- This Source Code Form is subject to the terms of the Mozilla Public
   - License, v. 2.0. If a copy of the MPL was not distributed with this
   - file, You can obtain one at http://mozilla.org/MPL/2.0/. -->
<svg xmlns="http://www.w3.org/2000/svg" fill-opacity="context-fill-opacity" viewBox="0 0 16 16" height="16" width="16">
  <path d="M4 1.5A2.495 2.495 0 0 0 1.5 4v8c0 .82.5 2 2 2.5v-2.998C3.5 10 4 10 4.5 9.5V7.992a2.5 2.5 0 0 1-1-1.993 2.5 2.5 0 0 1 4.844-.869A2.5 2.5 0 0 1 10 4.5 2.5 2.5 0 0 1 12.5 7a2.5 2.5 0 0 1-1 1.992V10.5c.5 0 1 1 1 1.5v2.5c1-.5 2-1.68 2-2.5V4c0-1.385-1.115-2.5-2.5-2.5Z" fill="context-fill"/>
  <path d="M4 1C2.347 1 1 2.346 1 4v8c0 .953.45 1.803 1.146 2.353l.004.004a.504.504 0 0 0 .096.072c.494.358 1.1.57 1.754.57h8a2.98 2.98 0 0 0 1.754-.57.5.5 0 0 0 .096-.072l.004-.004A2.995 2.995 0 0 0 15 12V4c0-1.654-1.347-3-3-3Zm0 1h8c1.117 0 2 .883 2 2v8.02a1.97 1.97 0 0 1-.988 1.706V11.5c0-.823-.678-1.5-1.5-1.5a.5.5 0 0 0-.5.5.5.5 0 0 0 .5.5c.285 0 .5.214.5.5V14H8v-2.5c0-.286.214-.5.5-.5a.5.5 0 0 0 .5-.5.5.5 0 0 0-.5-.5c-.822 0-1.5.677-1.5 1.5V14H3.992A.5.5 0 0 0 4 13.935V10.5c0-.286.214-.5.5-.5a.5.5 0 0 0 .5-.5.5.5 0 0 0-.5-.5C3.678 9 3 9.677 3 10.5v3.234a1.97 1.97 0 0 1-1-1.715V4c0-1.117.883-2 2-2Zm2 1C4.35 3 3 4.349 3 6c0 1.65 1.35 3 3 3 .178 0 .352-.017.521-.047a4 4 0 0 1-.388-.957A1.992 1.992 0 0 1 4 6c0-1.11.89-2 2-2 .39 0 .752.108 1.059.298a4 4 0 0 1 .779-.664A2.98 2.98 0 0 0 6 3Zm4 1C8.35 4 7 5.349 7 7c0 1.65 1.35 3 3 3s3-1.35 3-3c0-1.651-1.35-3-3-3zm0 1c1.11 0 2 .89 2 2 0 1.11-.89 2-2 2-1.11 0-2-.89-2-2 0-1.11.89-2 2-2Z" fill="context-stroke"/>
</svg>
