<!-- This Source Code Form is subject to the terms of the Mozilla Public
   - License, v. 2.0. If a copy of the MPL was not distributed with this
   - file, You can obtain one at http://mozilla.org/MPL/2.0/. -->
<svg xmlns="http://www.w3.org/2000/svg" fill-opacity="context-fill-opacity" viewBox="0 0 16 16" height="16" width="16">
  <path d="M7.5.5a7 7 0 0 0-7 7 7 7 0 0 0 2.002 4.877A10.446 10.446 0 0 1 2.5 12V9.5c0-.554.446-1 1-1h1s-1-.5-1-2c0-1 .5-2 2-2 1.027 0 1.584.468 1.834.923a2.991 2.991 0 0 1 2.771-.863 2.982 2.982 0 0 1 1.516.818 3.019 3.019 0 0 1 .818 1.516 3.016 3.016 0 0 1 .045.879c-.01.09-.022.18-.04.27-.256 1.248-1.313 2.33-1.944 2.457H12a1.312 1.312 0 0 1 .76.238 1.627 1.627 0 0 1 .314.274v.002c.117.13.176.236.176.236 0 .079-.003.156-.008.232A7 7 0 0 0 14.5 7.5a7 7 0 0 0-7-7z" fill="context-fill"/>
  <path d="M7.5 0C3.364 0 0 3.363 0 7.5 0 11.636 3.364 15 7.5 15S15 11.636 15 7.5C15 3.363 11.636 0 7.5 0Zm0 1C11.096 1 14 3.904 14 7.5a6.483 6.483 0 0 1-.732 3.002A1.875 1.875 0 0 0 12 10h-.102c.083-.097.193-.101.272-.207.46-.616.829-1.417.83-2.293C13 5.573 11.427 4 9.5 4a3.48 3.48 0 0 0-2.1.703C6.99 4.305 6.355 4 5.5 4c-.861 0-1.537.312-1.947.804C3.143 5.297 3 5.916 3 6.5c0 .69.252 1.117.488 1.504A1.506 1.506 0 0 0 2 9.5v1.466A6.475 6.475 0 0 1 1 7.5C1 3.904 3.904 1 7.5 1Zm-2 4c.648 0 .98.2 1.184.427a3.48 3.48 0 0 0-.67 1.76v.004A3.515 3.515 0 0 0 6 7.5c.001.876.37 1.677.83 2.293.08.106.19.11.272.207H7c-1.1 0-2 .9-2 2v1.504a6.492 6.492 0 0 1-2-1.313V9.5c0-.286.214-.5.5-.5h1a.5.5 0 0 0 .223-.948s-.143-.066-.332-.302C4.201 7.513 4 7.139 4 6.5c0-.417.108-.798.322-1.055C4.537 5.188 4.862 5 5.5 5Zm4 0C10.887 5 12 6.113 12 7.5c-.001.585-.27 1.212-.63 1.695-.36.483-.857.792-.97.814a.5.5 0 0 0 .1.99H12c.36 0 .603.225.725.372A6.487 6.487 0 0 1 6 13.824V12c0-.563.437-1 1-1h1.5a.5.5 0 0 0 .1-.99c-.113-.023-.61-.332-.97-.815-.36-.483-.629-1.11-.63-1.695a2.536 2.536 0 0 1 .098-.69c.113-.396.32-.751.597-1.04a.5.5 0 0 0 .01-.013A2.49 2.49 0 0 1 9.5 5Z" fill="context-stroke"/>
</svg>
