<!-- This Source Code Form is subject to the terms of the Mozilla Public
   - License, v. 2.0. If a copy of the MPL was not distributed with this
   - file, You can obtain one at http://mozilla.org/MPL/2.0/. -->
<svg xmlns="http://www.w3.org/2000/svg" fill-opacity="context-fill-opacity" viewBox="0 0 16 16" height="16" width="16">
  <path d="M7.5 1.5c-.653 0-1.222.453-1.5 1L.824 11.96C.5 12.5.502 12.611.5 13A1.5 1.5 0 0 0 2 14.5h11a1.5 1.5 0 0 0 1.5-1.5c0-.394 0-.5-.332-1.053L9 2.5c-.282-.553-.844-1-1.5-1Z" fill="context-fill"/>
  <path d="M7.5 1c-.883 0-1.593.58-1.945 1.273l.006-.014-5.166 9.444c-.34.566-.393.908-.395 1.295A.5.5 0 0 0 0 13c0 1.098.901 2 2 2h11c1.099 0 2-.902 2-2 0-.394-.058-.734-.404-1.31l.011.017-5.168-9.448.006.014C9.091 1.578 8.383 1 7.5 1Zm0 1c.429 0 .845.316 1.055.726a.5.5 0 0 0 .006.014l5.168 9.447a.5.5 0 0 0 .011.018c.318.528.26.4.26.795 0 .558-.442 1-1 1H2a.993.993 0 0 1-1-.998V13c.001-.387-.055-.27.252-.782a.5.5 0 0 0 .01-.017L6.439 2.74a.5.5 0 0 0 .006-.014C6.649 2.326 7.077 2 7.5 2Zm0 3a.5.5 0 0 0-.5.5v4a.5.5 0 0 0 .5.5.5.5 0 0 0 .5-.5v-4a.5.5 0 0 0-.5-.5Zm0 6a.5.5 0 0 0-.5.5.5.5 0 0 0 .5.5.5.5 0 0 0 .5-.5.5.5 0 0 0-.5-.5Z" fill="context-stroke"/>
</svg>
