<?xml version="1.0" encoding="UTF-8" standalone="no"?><svg xmlns="http://www.w3.org/2000/svg" width="200" height="200"><path style="opacity:0.25" d="m 102.67,29.68 c 14.96,0.12 30.01,11.21 33.20,26.00 -0.51,8.53 0.78,16.56 1.03,24.90 0.58,8.90 -7.86,14.56 -8.45,23.02 -1.86,6.90 -6.91,15.36 2.03,19.28 6.53,10.05 18.56,13.25 29.58,15.58 10.26,2.06 22.93,7.02 24.40,18.94 2.96,13.96 4.36,28.27 4.14,42.55 -58.61,0 -117.22,0 -175.84,0 0.68,-14.69 0.68,-29.77 5.09,-43.93 2.73,-9.40 12.21,-13.18 20.55,-16.20 9.25,-4.29 19.66,-5.81 28.54,-10.82 5.51,-5.56 16.05,-11.86 10.05,-20.90 -1.90,-7.90 -5.37,-14.76 -9.19,-21.75 -3.52,-9.28 1.30,-18.10 0.71,-27.53 0.52,-7.65 0.91,-16.78 8.42,-21.07 7.49,-3.01 15.24,-5.47 22.96,-7.89 l 1.34,-0.13 1.35,-0.05 0,0 z"/></svg>